G04*
G04 #@! TF.GenerationSoftware,Altium Limited,Altium Designer,22.2.1 (43)*
G04*
G04 Layer_Color=32896*
%FSTAX25Y25*%
%MOIN*%
G70*
G04*
G04 #@! TF.SameCoordinates,CAACB314-B994-4A0E-AD61-3740CE87C19C*
G04*
G04*
G04 #@! TF.FilePolarity,Positive*
G04*
G01*
G75*
%ADD14C,0.01000*%
%ADD51R,0.09055X0.00787*%
%ADD52R,0.09055X0.00689*%
%ADD53R,0.08957X0.00689*%
D14*
X0004862Y-0041827D02*
X0010374D01*
X0010571Y-0042024D01*
Y-0049898D02*
Y-0042024D01*
X0004862Y-0049898D02*
X0010571D01*
X0004862Y-0051768D02*
Y-0049898D01*
Y-0051768D02*
X0079665D01*
X0004862Y-0041827D02*
Y-0010626D01*
X0004961Y-0010528D01*
X0010669D01*
X0010768Y-0010429D01*
Y-0002457D01*
X0004862D02*
X0010768D01*
X0004862D02*
Y-0000587D01*
X0079665Y-0051768D02*
Y-0046256D01*
X0074547D02*
X0079665D01*
X0074547D02*
Y-0005705D01*
X0079665D01*
Y-0000587D01*
X0004862D02*
X0079665D01*
X0021668Y-0026835D02*
X0022501Y-0026002D01*
X0024167D01*
X0025Y-0026835D01*
Y-0027668D01*
X0024167Y-0028501D01*
X0022501D01*
X0021668Y-0029334D01*
Y-0030167D01*
X0022501Y-0031D01*
X0024167D01*
X0025Y-0030167D01*
X0020002Y-0031D02*
Y-0026002D01*
X0018336Y-0027668D01*
X0016669Y-0026002D01*
Y-0031D01*
X0015003Y-0026002D02*
Y-0031D01*
X0012504D01*
X0011671Y-0030167D01*
Y-0026835D01*
X0012504Y-0026002D01*
X0015003D01*
X0055Y-0021D02*
Y-0015002D01*
X0051001Y-0021D01*
Y-0015002D01*
X0049002Y-0021D02*
Y-0015002D01*
X0046003D01*
X0045003Y-0016002D01*
Y-0018001D01*
X0046003Y-0019001D01*
X0049002D01*
X0047003D02*
X0045003Y-0021D01*
X0039005Y-0015002D02*
X0043004D01*
Y-0018001D01*
X0041004D01*
X0043004D01*
Y-0021D01*
X0033007D02*
X0037006D01*
X0033007Y-0017001D01*
Y-0016002D01*
X0034007Y-0015002D01*
X0036006D01*
X0037006Y-0016002D01*
X0028009Y-0021D02*
Y-0015002D01*
X0031008Y-0018001D01*
X0027009D01*
X002501Y-0015002D02*
Y-0021D01*
X0021011D01*
X0019012Y-0016002D02*
X0018012Y-0015002D01*
X0016013D01*
X0015013Y-0016002D01*
Y-002D01*
X0016013Y-0021D01*
X0018012D01*
X0019012Y-002D01*
Y-0016002D01*
X0013014Y-0021D02*
X0011014D01*
X0012014D01*
Y-0015002D01*
X0013014Y-0016002D01*
D51*
X0079469Y-001102D02*
D03*
D52*
X0079469Y-001599D02*
D03*
Y-002101D02*
D03*
X0079469Y-003597D02*
D03*
D53*
X0079517Y-002603D02*
D03*
Y-0030951D02*
D03*
X0079518Y-004099D02*
D03*
M02*
