G04*
G04 #@! TF.GenerationSoftware,Altium Limited,Altium Designer,22.2.1 (43)*
G04*
G04 Layer_Physical_Order=2*
G04 Layer_Color=15428901*
%FSTAX25Y25*%
%MOIN*%
G70*
G04*
G04 #@! TF.SameCoordinates,CAACB314-B994-4A0E-AD61-3740CE87C19C*
G04*
G04*
G04 #@! TF.FilePolarity,Positive*
G04*
G01*
G75*
%ADD10C,0.01968*%
%ADD39C,0.03150*%
%ADD41C,0.01181*%
%ADD42C,0.03937*%
%ADD43R,0.06693X0.06693*%
%ADD44C,0.06693*%
%ADD45C,0.03150*%
%ADD46R,0.07874X0.03543*%
%ADD47R,0.07874X0.07874*%
%ADD48C,0.01575*%
D10*
X0059673Y-00305D02*
X0062673Y-00335D01*
X0059673Y-00305D02*
Y-00215D01*
X0056673Y-00195D02*
X0062713Y-0013461D01*
X0056673Y-00345D02*
Y-00195D01*
X0059673Y-00215D02*
X0061673Y-00195D01*
X0065673D01*
X0062713Y-0013461D02*
X0079665D01*
X0095Y-0006D02*
X01D01*
X0079665Y-0043461D02*
X0083961D01*
X00865Y-0046D01*
X0088D01*
X0105D02*
X011Y-0041D01*
X0102Y-0046D02*
X0105D01*
X0092D02*
X0097461D01*
X0056673Y-00345D02*
X0061673Y-00395D01*
X0069673Y-00235D02*
X0079626D01*
X0065673Y-00195D02*
X0069673Y-00235D01*
D39*
X0038Y-0039D02*
Y-0036D01*
X0035Y-0039D02*
X0038D01*
Y-0042D02*
Y-0039D01*
X0037Y-0048D02*
X00625D01*
X0028Y-0039D02*
X0037Y-0048D01*
X0028Y-0039D02*
Y-00115D01*
X00255Y-0009D02*
X0028Y-00115D01*
X0057539Y-0008461D02*
X0079665D01*
X0046Y-002D02*
X0057539Y-0008461D01*
X0046Y-00295D02*
Y-002D01*
X0038Y-0018D02*
X0049Y-0007D01*
X0038Y-0036D02*
Y-0018D01*
X00525Y-00035D02*
X00825D01*
X0049Y-0007D02*
X00525Y-00035D01*
X00625Y-0048D02*
X0067039Y-0043461D01*
X0079665D01*
X0079626Y-00335D02*
X0079665Y-0033461D01*
X0070673Y-00335D02*
X0079626D01*
X0070673Y-00285D02*
X0079626D01*
X0079665Y-0028461D01*
X0079626Y-00185D02*
X0079665Y-0018461D01*
X0070673Y-00185D02*
X0079626D01*
D41*
X00825Y-00035D02*
X0083558D01*
X0088Y-0046D02*
X0092D01*
X0097461D02*
X0102D01*
X0083558Y-00035D02*
X0086058Y-0006D01*
X0095D01*
X0071634Y-0018461D02*
X0079665D01*
D42*
X01Y-0006D02*
Y-0001D01*
Y-0011D02*
Y-0006D01*
Y-00375D02*
Y-0031D01*
Y-0021D02*
Y-0011D01*
Y-0031D02*
Y-0021D01*
X011Y-0011D02*
Y-0001D01*
Y-0021D02*
Y-0011D01*
Y-0031D02*
Y-0021D01*
Y-0041D02*
Y-0031D01*
Y-0051D02*
Y-0041D01*
D43*
Y-0001D02*
D03*
X01D02*
D03*
X009D02*
D03*
D44*
X011Y-0011D02*
D03*
Y-0021D02*
D03*
Y-0031D02*
D03*
Y-0041D02*
D03*
Y-0051D02*
D03*
X01Y-0011D02*
D03*
Y-0021D02*
D03*
Y-0031D02*
D03*
Y-0041D02*
D03*
Y-0051D02*
D03*
X009Y-0011D02*
D03*
Y-0021D02*
D03*
Y-0031D02*
D03*
Y-0041D02*
D03*
Y-0051D02*
D03*
D45*
X0037Y-0048D02*
D03*
X00255Y-0009D02*
D03*
X00638Y-00246D02*
D03*
X0046Y-00297D02*
D03*
X0035Y-0039D02*
D03*
X0028Y-00115D02*
D03*
X0038Y-0036D02*
D03*
X00625Y-0048D02*
D03*
X0049Y-0007D02*
D03*
X0038Y-0042D02*
D03*
X0070673Y-00185D02*
D03*
Y-00285D02*
D03*
X0062673Y-00335D02*
D03*
X0070673D02*
D03*
X0061673Y-00395D02*
D03*
D46*
X0079665Y-0008461D02*
D03*
Y-0013461D02*
D03*
Y-0018461D02*
D03*
Y-0023461D02*
D03*
Y-0028461D02*
D03*
Y-0033461D02*
D03*
Y-0038461D02*
D03*
Y-0043461D02*
D03*
D47*
X000565Y-0045862D02*
D03*
Y-0006492D02*
D03*
D48*
X0066673Y-00355D02*
Y-0027473D01*
X0063673Y-0024473D02*
X0066673Y-0027473D01*
X0069634Y-0038461D02*
X0079665D01*
X0066673Y-00355D02*
X0069634Y-0038461D01*
X0079626Y-00235D02*
X0079665Y-0023461D01*
M02*
