G04*
G04 #@! TF.GenerationSoftware,Altium Limited,Altium Designer,22.2.1 (43)*
G04*
G04 Layer_Physical_Order=1*
G04 Layer_Color=204*
%FSTAX25Y25*%
%MOIN*%
G70*
G04*
G04 #@! TF.SameCoordinates,CAACB314-B994-4A0E-AD61-3740CE87C19C*
G04*
G04*
G04 #@! TF.FilePolarity,Positive*
G04*
G01*
G75*
%ADD10C,0.01968*%
%ADD14C,0.01000*%
%ADD17R,0.10000X0.06000*%
%ADD18O,0.07087X0.02165*%
%ADD19R,0.11811X0.05906*%
%ADD20R,0.05512X0.02559*%
%ADD21R,0.08268X0.02559*%
G04:AMPARAMS|DCode=22|XSize=74.8mil|YSize=125.98mil|CornerRadius=0mil|HoleSize=0mil|Usage=FLASHONLY|Rotation=270.000|XOffset=0mil|YOffset=0mil|HoleType=Round|Shape=Octagon|*
%AMOCTAGOND22*
4,1,8,0.06299,0.01870,0.06299,-0.01870,0.04429,-0.03740,-0.04429,-0.03740,-0.06299,-0.01870,-0.06299,0.01870,-0.04429,0.03740,0.04429,0.03740,0.06299,0.01870,0.0*
%
%ADD22OCTAGOND22*%

%ADD23R,0.05000X0.03500*%
%ADD24R,0.03500X0.05000*%
G04:AMPARAMS|DCode=25|XSize=60mil|YSize=50mil|CornerRadius=0mil|HoleSize=0mil|Usage=FLASHONLY|Rotation=0.000|XOffset=0mil|YOffset=0mil|HoleType=Round|Shape=Octagon|*
%AMOCTAGOND25*
4,1,8,0.03000,-0.01250,0.03000,0.01250,0.01750,0.02500,-0.01750,0.02500,-0.03000,0.01250,-0.03000,-0.01250,-0.01750,-0.02500,0.01750,-0.02500,0.03000,-0.01250,0.0*
%
%ADD25OCTAGOND25*%

%ADD26R,0.06000X0.05000*%
%ADD39C,0.03150*%
%ADD40C,0.02165*%
%ADD41C,0.01181*%
%ADD42C,0.03937*%
%ADD43R,0.06693X0.06693*%
%ADD44C,0.06693*%
%ADD45C,0.03150*%
D10*
X00345Y-00385D02*
X0051D01*
X0034Y-0039D02*
X00345Y-00385D01*
X00627Y-00235D02*
X00638Y-00246D01*
X00696Y-00335D02*
X0070673D01*
X00646Y-00285D02*
X00696Y-00335D01*
X0054847Y-00285D02*
X00646D01*
X0070673D02*
Y-0024073D01*
X00651Y-00185D02*
X0070673Y-0024073D01*
X0054847Y-00185D02*
X00651D01*
X0059673Y-00435D02*
X0061673Y-00415D01*
Y-00395D01*
X0038Y-0005D02*
X00415Y-00085D01*
Y-001376D02*
Y-00085D01*
Y-001376D02*
X0043Y-0015259D01*
X0062Y-00485D02*
X00625Y-0048D01*
X0086673Y-0051D02*
X009D01*
X0084173Y-00485D02*
X0086673Y-0051D01*
X00775Y-00485D02*
X0084173D01*
X00775Y-00435D02*
X0084173D01*
X0086673Y-0041D01*
X009D01*
X00775Y-00385D02*
X0082673D01*
X0051D02*
X0054847D01*
Y-00435D02*
X0059673D01*
X0054847Y-00335D02*
X0062673D01*
X0054847Y-00235D02*
X00627D01*
X0054847Y-00135D02*
X0065673D01*
X009Y-0031173D02*
Y-0031D01*
X0082673Y-00385D02*
X009Y-0031173D01*
X0065673Y-00135D02*
X0070673Y-00185D01*
X0038Y-0005D02*
X0039999D01*
D14*
X0086724Y-0014276D02*
X009Y-0011D01*
X0086724Y-0016689D02*
Y-0014276D01*
X007474Y-0004627D02*
Y-0004D01*
X00775Y-00185D02*
X0078656D01*
X0082543Y-0014613D01*
Y-001243D01*
X007474Y-0004627D02*
X0082543Y-001243D01*
X0084724Y-0018689D02*
X0086724Y-0016689D01*
X0084724Y-0023759D02*
Y-0018689D01*
X0079983Y-00285D02*
X0084724Y-0023759D01*
X0075673Y-00185D02*
X00775D01*
Y-00285D02*
X0079983D01*
D17*
X0017Y-0033091D02*
D03*
Y-0044509D02*
D03*
Y-0018909D02*
D03*
Y-0007491D02*
D03*
D18*
X0054847Y-00135D02*
D03*
Y-00185D02*
D03*
Y-00235D02*
D03*
Y-00285D02*
D03*
Y-00335D02*
D03*
Y-00385D02*
D03*
Y-00435D02*
D03*
Y-00485D02*
D03*
X00775Y-00135D02*
D03*
Y-00185D02*
D03*
Y-00235D02*
D03*
Y-00285D02*
D03*
Y-00335D02*
D03*
Y-00385D02*
D03*
Y-00435D02*
D03*
Y-00485D02*
D03*
D19*
X0038Y-0005D02*
D03*
D20*
X0045687Y-0044905D02*
D03*
Y-0033094D02*
D03*
D21*
X00444Y-0039D02*
D03*
D22*
X0034D02*
D03*
D23*
X0005Y-000726D02*
D03*
Y-001474D02*
D03*
X0005Y-004474D02*
D03*
Y-003726D02*
D03*
X0043Y-002274D02*
D03*
Y-0015259D02*
D03*
X0032Y-001526D02*
D03*
Y-002274D02*
D03*
D24*
X006726Y-0004D02*
D03*
X007474D02*
D03*
D25*
X0059Y-0004D02*
D03*
D26*
X0049D02*
D03*
D39*
X0008968Y-0033291D02*
X0022291D01*
X0007969Y-0018709D02*
X0017D01*
X0024032Y-0007291D02*
X0032Y-001526D01*
X0017Y-0007291D02*
X0024032D01*
X0017Y-0044709D02*
X0024709D01*
X0046Y-0032781D02*
Y-00297D01*
X00287D02*
X0046D01*
X0017709Y-0018709D02*
X00287Y-00297D01*
X00457Y-0048D02*
Y-00458D01*
X0037Y-0048D02*
X00457D01*
X0024709Y-0044709D02*
X0028Y-0048D01*
X0037D01*
X0049Y-0007D02*
Y-0004D01*
X0031Y-0037D02*
X0033Y-0039D01*
X0026Y-0037D02*
X0031D01*
X0022291Y-0033291D02*
X0026Y-0037D01*
X0033Y-0039D02*
X0034D01*
X0042999Y-002274D02*
X0043Y-002274D01*
X0032Y-002274D02*
X0042999D01*
X0005Y-000726D02*
X0016969D01*
X0005Y-0015741D02*
Y-001474D01*
Y-0015741D02*
X0007969Y-0018709D01*
X0016969Y-004474D02*
X0017Y-0044709D01*
X0005Y-004474D02*
X0016969D01*
X0005Y-003726D02*
X0008968Y-0033291D01*
D40*
X00375Y-00485D02*
X0054847D01*
X0062D01*
X0037Y-0048D02*
X00375Y-00485D01*
D41*
X00505Y-00105D02*
X0072D01*
X00485Y-00125D02*
X00505Y-00105D01*
X00485Y-0021D02*
Y-00125D01*
X004676Y-002274D02*
X00485Y-0021D01*
X00845Y-00065D02*
X0084634Y-0006634D01*
Y-0015823D02*
Y-0006634D01*
X00845Y-00065D02*
X009Y-0001D01*
X0082634Y-0017823D02*
X0084634Y-0015823D01*
X0082634Y-0021366D02*
Y-0017823D01*
X00805Y-00235D02*
X0082634Y-0021366D01*
X0072Y-00105D02*
X0075Y-00135D01*
X00775D01*
X00835Y-0028673D02*
X009Y-0022173D01*
X00835Y-0031673D02*
Y-0028673D01*
X0081673Y-00335D02*
X00835Y-0031673D01*
X00775Y-00235D02*
X00805D01*
X0043Y-002274D02*
X004676D01*
X009Y-0022173D02*
Y-0021D01*
X0078327Y-00335D02*
X0081673D01*
X009Y-0013173D02*
Y-0011D01*
D42*
X01D02*
Y-0001D01*
Y-0021D02*
Y-0011D01*
Y-0031D02*
Y-0021D01*
Y-0041D02*
Y-0031D01*
Y-0051D02*
Y-0041D01*
X011Y-0011D02*
Y-0001D01*
Y-0021D02*
Y-0011D01*
Y-0031D02*
Y-0021D01*
Y-0041D02*
Y-0031D01*
Y-0051D02*
Y-0041D01*
X0059Y-0004D02*
X00664D01*
D43*
X011Y-0001D02*
D03*
X01D02*
D03*
X009D02*
D03*
D44*
X011Y-0011D02*
D03*
Y-0021D02*
D03*
Y-0031D02*
D03*
Y-0041D02*
D03*
Y-0051D02*
D03*
X01Y-0011D02*
D03*
Y-0021D02*
D03*
Y-0031D02*
D03*
Y-0041D02*
D03*
Y-0051D02*
D03*
X009Y-0011D02*
D03*
Y-0021D02*
D03*
Y-0031D02*
D03*
Y-0041D02*
D03*
Y-0051D02*
D03*
D45*
X0037Y-0048D02*
D03*
X00255Y-0009D02*
D03*
X00638Y-00246D02*
D03*
X0046Y-00297D02*
D03*
X0035Y-0039D02*
D03*
X0028Y-00115D02*
D03*
X0038Y-0036D02*
D03*
X00625Y-0048D02*
D03*
X0049Y-0007D02*
D03*
X0038Y-0042D02*
D03*
X0070673Y-00185D02*
D03*
Y-00285D02*
D03*
X0062673Y-00335D02*
D03*
X0070673D02*
D03*
X0061673Y-00395D02*
D03*
M02*
