G04*
G04 #@! TF.GenerationSoftware,Altium Limited,Altium Designer,22.2.1 (43)*
G04*
G04 Layer_Color=65535*
%FSTAX25Y25*%
%MOIN*%
G70*
G04*
G04 #@! TF.SameCoordinates,CAACB314-B994-4A0E-AD61-3740CE87C19C*
G04*
G04*
G04 #@! TF.FilePolarity,Positive*
G04*
G01*
G75*
%ADD10C,0.01968*%
%ADD11C,0.00800*%
%ADD12C,0.00591*%
%ADD13C,0.00984*%
%ADD14C,0.01000*%
%ADD15C,0.00600*%
%ADD16C,0.00787*%
D10*
X0057282Y-001D02*
G03*
X0057282Y-001I-0000608J0D01*
G01*
D11*
X0064173Y-0011315D02*
G03*
X0066173Y-0013315I0002J0D01*
G01*
X0066173Y-0013315D02*
G03*
X0068173Y-0011315I0J0002D01*
G01*
X0060173Y-0011315D02*
X0064173D01*
X0068173D02*
X0072173D01*
X00086Y-0017693D02*
Y-00125D01*
Y-00095D02*
Y-0004307D01*
X00014Y-00095D02*
Y-0004307D01*
Y-0017693D02*
Y-00125D01*
Y-0017693D02*
X00086D01*
X00014Y-0004307D02*
X00086D01*
X00014Y-00395D02*
Y-0034307D01*
Y-0047693D02*
Y-00425D01*
X00086Y-0047693D02*
Y-00425D01*
Y-00395D02*
Y-0034307D01*
X00014D02*
X00086D01*
X00014Y-0047693D02*
X00086D01*
X00394Y-0012307D02*
X00466D01*
Y-0025693D02*
Y-0012307D01*
X00394Y-0025693D02*
X00466D01*
X00394D02*
Y-0012307D01*
X00284Y-0025693D02*
X00356D01*
X00284D02*
Y-0012307D01*
X00356D01*
Y-0025693D02*
Y-0012307D01*
X0077693Y-00076D02*
Y-00004D01*
X0064307Y-00076D02*
X0077693D01*
X0064307D02*
Y-00004D01*
X0077693D01*
X0045Y-00005D02*
X0052D01*
X0045Y-00075D02*
Y-00005D01*
Y-00075D02*
X0052D01*
X0056Y-00005D02*
X00645D01*
Y-00075D02*
Y-00005D01*
X0056Y-00075D02*
X00645D01*
X0063D02*
Y-00005D01*
D12*
X00415Y-00455D02*
G03*
X00415Y-00455I-0001J0D01*
G01*
D13*
X0047941Y-0048055D02*
G03*
X0047941Y-0048055I-0000492J0D01*
G01*
D14*
X00107Y-0048839D02*
Y-00413D01*
Y-00363D02*
Y-0028761D01*
X00233Y-00363D02*
Y-0028761D01*
Y-0048839D02*
Y-00413D01*
X00107Y-0048839D02*
X00233D01*
X00107Y-0028761D02*
X00233D01*
Y-00107D02*
Y-0003161D01*
Y-0023239D02*
Y-00157D01*
X00107Y-0023239D02*
Y-00157D01*
Y-00107D02*
Y-0003161D01*
X00233D01*
X00107Y-0023239D02*
X00233D01*
D15*
X0017Y-00408D02*
Y-00393D01*
Y-00383D02*
Y-00368D01*
X00145Y-00383D02*
X00195D01*
X00145Y-00393D02*
X00195D01*
X0017Y-00127D02*
Y-00112D01*
Y-00152D02*
Y-00137D01*
X00145D02*
X00195D01*
X00145Y-00127D02*
X00195D01*
X0005Y-0012D02*
Y-00115D01*
Y-00105D02*
Y-001D01*
X00035Y-00105D02*
X00065D01*
X00035Y-00115D02*
X00065D01*
X0005Y-00405D02*
Y-004D01*
Y-0042D02*
Y-00415D01*
X00035D02*
X00065D01*
X00035Y-00405D02*
X00065D01*
D16*
X0060173Y-0050685D02*
Y-0011315D01*
X0072173Y-0050685D02*
Y-0011315D01*
X0060173Y-0050685D02*
X0072173D01*
X0032Y-0034D02*
Y-0029D01*
X0037D01*
X0032Y-0049D02*
Y-0044D01*
Y-0049D02*
X0037D01*
X0105Y-0056D02*
X0115D01*
X0105D02*
Y0004D01*
X0115Y-0056D02*
Y0004D01*
X0105D02*
X0115D01*
X0095Y-0056D02*
X0105D01*
X0095D02*
Y0004D01*
X0105Y-0056D02*
Y0004D01*
X0095D02*
X0105D01*
X0085Y-0056D02*
X0095D01*
X0085D02*
Y0004D01*
X0095Y-0056D02*
Y0004D01*
X0085D02*
X0095D01*
M02*
