M48
;Layer_Color=9474304
;FILE_FORMAT=2:5
INCH,LZ
;TYPE=PLATED
T1F00S00C0.01575
T2F00S00C0.03543
%
T01
X0037Y-0048
X0038Y-0042
X0035Y-0039
X0038Y-0036
X0046Y-00297
X0062673Y-00335
X0061673Y-00395
X00625Y-0048
X0070673Y-00335
Y-00285
Y-00185
X00638Y-00246
X0049Y-0007
X00255Y-0009
X0028Y-00115
T02
X009Y-0051
X01
X011
Y-0041
Y-0031
Y-0021
Y-0011
Y-0001
X01
Y-0011
Y-0021
Y-0031
Y-0041
X009
Y-0031
Y-0021
Y-0011
Y-0001
M30
