G04*
G04 #@! TF.GenerationSoftware,Altium Limited,Altium Designer,22.2.1 (43)*
G04*
G04 Layer_Color=8421504*
%FSLAX25Y25*%
%MOIN*%
G70*
G04*
G04 #@! TF.SameCoordinates,9C75C661-4079-485B-A4B9-5B77D2324FE1*
G04*
G04*
G04 #@! TF.FilePolarity,Positive*
G04*
G01*
G75*
%ADD18O,0.01968X0.06693*%
%ADD19O,0.06693X0.01968*%
%ADD20R,0.03500X0.05000*%
%ADD21R,0.01500X0.08465*%
G04:AMPARAMS|DCode=22|XSize=50mil|YSize=35mil|CornerRadius=0mil|HoleSize=0mil|Usage=FLASHONLY|Rotation=135.000|XOffset=0mil|YOffset=0mil|HoleType=Round|Shape=Rectangle|*
%AMROTATEDRECTD22*
4,1,4,0.03005,-0.00530,0.00530,-0.03005,-0.03005,0.00530,-0.00530,0.03005,0.03005,-0.00530,0.0*
%
%ADD22ROTATEDRECTD22*%

D18*
X107931Y156232D02*
D03*
X111081D02*
D03*
X114230D02*
D03*
X117380D02*
D03*
X120530D02*
D03*
X123679D02*
D03*
X126829D02*
D03*
X129978D02*
D03*
X133128D02*
D03*
X136278D02*
D03*
X139427D02*
D03*
Y202295D02*
D03*
X136278D02*
D03*
X133128D02*
D03*
X129978D02*
D03*
X126829D02*
D03*
X123679D02*
D03*
X120530D02*
D03*
X117380D02*
D03*
X114230D02*
D03*
X111081D02*
D03*
X107931D02*
D03*
D19*
X146711Y163516D02*
D03*
Y166665D02*
D03*
Y169815D02*
D03*
Y172965D02*
D03*
Y176114D02*
D03*
Y179264D02*
D03*
Y182413D02*
D03*
Y185563D02*
D03*
Y188713D02*
D03*
Y191862D02*
D03*
Y195012D02*
D03*
X100648D02*
D03*
Y191862D02*
D03*
Y188713D02*
D03*
Y185563D02*
D03*
Y182413D02*
D03*
Y179264D02*
D03*
Y176114D02*
D03*
Y172965D02*
D03*
Y169815D02*
D03*
Y166665D02*
D03*
Y163516D02*
D03*
D20*
X179516Y180922D02*
D03*
X172036D02*
D03*
X179516Y161022D02*
D03*
X172036D02*
D03*
D21*
X150788Y20906D02*
D03*
X140552D02*
D03*
D22*
X98065Y123536D02*
D03*
X92776Y118247D02*
D03*
X91465Y130136D02*
D03*
X86176Y124847D02*
D03*
M02*
