G04*
G04 #@! TF.GenerationSoftware,Altium Limited,Altium Designer,22.2.1 (43)*
G04*
G04 Layer_Physical_Order=2*
G04 Layer_Color=15428901*
%FSLAX25Y25*%
%MOIN*%
G70*
G04*
G04 #@! TF.SameCoordinates,9C75C661-4079-485B-A4B9-5B77D2324FE1*
G04*
G04*
G04 #@! TF.FilePolarity,Positive*
G04*
G01*
G75*
%ADD11C,0.01000*%
%ADD16C,0.01575*%
%ADD20R,0.03500X0.05000*%
%ADD47C,0.01181*%
%ADD48C,0.01968*%
%ADD49C,0.03150*%
%ADD51C,0.03937*%
%ADD52C,0.07087*%
%ADD53C,0.05118*%
%ADD54C,0.12598*%
%ADD55O,0.04724X0.07874*%
%ADD56C,0.06693*%
%ADD57C,0.07480*%
%ADD58R,0.07480X0.07480*%
%ADD59R,0.06693X0.06693*%
%ADD60R,0.06693X0.06693*%
%ADD61R,0.07087X0.07087*%
%ADD62P,0.09465X4X270.0*%
%ADD63R,0.04724X0.07874*%
%ADD64C,0.04724*%
%ADD65C,0.05906*%
%ADD66R,0.05906X0.05906*%
%ADD67O,0.05906X0.07874*%
%ADD68R,0.05906X0.07874*%
%ADD69C,0.07874*%
%ADD70C,0.03150*%
%ADD71C,0.02756*%
%ADD72C,0.02362*%
%ADD73R,0.02165X0.07087*%
%ADD74O,0.02165X0.07087*%
%ADD75R,0.09000X0.07500*%
%ADD76R,0.04724X0.05512*%
%ADD77R,0.05512X0.04724*%
%ADD78R,0.07500X0.09000*%
%ADD79R,0.05512X0.02559*%
%ADD80R,0.08268X0.02559*%
G04:AMPARAMS|DCode=81|XSize=74.8mil|YSize=125.98mil|CornerRadius=0mil|HoleSize=0mil|Usage=FLASHONLY|Rotation=90.000|XOffset=0mil|YOffset=0mil|HoleType=Round|Shape=Octagon|*
%AMOCTAGOND81*
4,1,8,-0.06299,-0.01870,-0.06299,0.01870,-0.04429,0.03740,0.04429,0.03740,0.06299,0.01870,0.06299,-0.01870,0.04429,-0.03740,-0.04429,-0.03740,-0.06299,-0.01870,0.0*
%
%ADD81OCTAGOND81*%

%ADD82R,0.02559X0.05512*%
%ADD83R,0.02559X0.08268*%
G04:AMPARAMS|DCode=84|XSize=74.8mil|YSize=125.98mil|CornerRadius=0mil|HoleSize=0mil|Usage=FLASHONLY|Rotation=0.000|XOffset=0mil|YOffset=0mil|HoleType=Round|Shape=Octagon|*
%AMOCTAGOND84*
4,1,8,-0.01870,0.06299,0.01870,0.06299,0.03740,0.04429,0.03740,-0.04429,0.01870,-0.06299,-0.01870,-0.06299,-0.03740,-0.04429,-0.03740,0.04429,-0.01870,0.06299,0.0*
%
%ADD84OCTAGOND84*%

G36*
X222773Y282271D02*
X225017Y281732D01*
X227149Y280849D01*
X229116Y279643D01*
X230871Y278144D01*
X232370Y276390D01*
X233576Y274422D01*
X234459Y272290D01*
X234997Y270046D01*
X235174Y267802D01*
X235163Y267746D01*
Y239098D01*
X234216Y238776D01*
X234013Y239040D01*
X233150Y239703D01*
X232144Y240120D01*
X231065Y240262D01*
X229986Y240120D01*
X228980Y239703D01*
X228116Y239040D01*
X227454Y238177D01*
X227037Y237171D01*
X226895Y236092D01*
X227037Y235013D01*
X227454Y234007D01*
X228116Y233144D01*
X228980Y232481D01*
X229986Y232065D01*
X231065Y231923D01*
X232144Y232065D01*
X233150Y232481D01*
X234013Y233144D01*
X234216Y233408D01*
X235163Y233087D01*
Y229098D01*
X234216Y228776D01*
X234013Y229040D01*
X233150Y229703D01*
X232144Y230120D01*
X231065Y230262D01*
X229986Y230120D01*
X228980Y229703D01*
X228116Y229040D01*
X227454Y228177D01*
X227037Y227171D01*
X226895Y226092D01*
X227037Y225013D01*
X227454Y224007D01*
X228116Y223144D01*
X228980Y222481D01*
X229986Y222065D01*
X231065Y221923D01*
X232144Y222065D01*
X233150Y222481D01*
X234013Y223144D01*
X234216Y223408D01*
X235163Y223087D01*
Y219098D01*
X234216Y218776D01*
X234013Y219040D01*
X233150Y219703D01*
X232144Y220120D01*
X231065Y220262D01*
X229986Y220120D01*
X228980Y219703D01*
X228116Y219040D01*
X227454Y218177D01*
X227037Y217171D01*
X226895Y216092D01*
X227037Y215013D01*
X227454Y214007D01*
X228116Y213144D01*
X228980Y212481D01*
X229986Y212065D01*
X231065Y211923D01*
X232144Y212065D01*
X233150Y212481D01*
X234013Y213144D01*
X234216Y213408D01*
X235163Y213087D01*
Y209098D01*
X234216Y208776D01*
X234013Y209040D01*
X233150Y209703D01*
X232144Y210120D01*
X231065Y210262D01*
X229986Y210120D01*
X228980Y209703D01*
X228116Y209040D01*
X227454Y208177D01*
X227037Y207171D01*
X226895Y206092D01*
X227037Y205013D01*
X227454Y204007D01*
X228116Y203144D01*
X228980Y202481D01*
X229986Y202065D01*
X231065Y201923D01*
X232144Y202065D01*
X233150Y202481D01*
X234013Y203144D01*
X234216Y203408D01*
X235163Y203087D01*
Y199098D01*
X234216Y198776D01*
X234013Y199040D01*
X233150Y199703D01*
X232144Y200120D01*
X231065Y200262D01*
X229986Y200120D01*
X228980Y199703D01*
X228116Y199040D01*
X227454Y198177D01*
X227037Y197171D01*
X226895Y196092D01*
X227037Y195013D01*
X227454Y194007D01*
X228116Y193144D01*
X228980Y192481D01*
X229986Y192065D01*
X231065Y191923D01*
X232144Y192065D01*
X233150Y192481D01*
X234013Y193144D01*
X234216Y193408D01*
X235163Y193087D01*
Y137726D01*
X231278D01*
X231065Y137768D01*
Y137768D01*
X231028Y137736D01*
X230869Y137757D01*
X230864Y137758D01*
X230863Y137758D01*
X229714Y137909D01*
X228456Y138430D01*
X227601Y139087D01*
X176617Y190070D01*
Y205473D01*
X176728Y206881D01*
X177138Y208588D01*
X177810Y210209D01*
X178727Y211706D01*
X178793Y211783D01*
X181124D01*
Y220445D01*
X177007D01*
X176793Y220487D01*
Y220487D01*
X176767Y220465D01*
X176096Y220599D01*
X175622Y220915D01*
X174299Y222238D01*
D01*
X174299Y222238D01*
X169396Y227141D01*
X168679Y227620D01*
X167835Y227788D01*
X154154D01*
X153309Y227620D01*
X152592Y227141D01*
X147513Y222062D01*
X147034Y221346D01*
X146866Y220501D01*
Y212737D01*
X147034Y211892D01*
X147513Y211176D01*
X147513Y211176D01*
X147513Y211176D01*
X152123Y206566D01*
Y200915D01*
X150330Y199122D01*
X141065D01*
X132212Y207975D01*
X131496Y208454D01*
X130651Y208622D01*
X114364D01*
Y210652D01*
X114446Y211276D01*
X114633Y211727D01*
X115848D01*
Y218302D01*
X114633D01*
X114446Y218753D01*
X114364Y219377D01*
Y220293D01*
X114376D01*
X114364Y220419D01*
Y221957D01*
X115323D01*
Y232532D01*
X115159D01*
Y233526D01*
X115244Y234173D01*
X115547Y234906D01*
X115999Y235494D01*
X116040Y235525D01*
X116043Y235522D01*
X116086Y235585D01*
X116734Y236430D01*
X117170Y237484D01*
X117319Y238614D01*
X117170Y239745D01*
X116734Y240798D01*
X116040Y241703D01*
X115135Y242397D01*
X114081Y242833D01*
X112951Y242982D01*
X111820Y242833D01*
X110767Y242397D01*
X109862Y241703D01*
X109168Y240798D01*
X108732Y239745D01*
X108583Y238614D01*
X108732Y237484D01*
X109168Y236430D01*
X109816Y235585D01*
X109859Y235522D01*
X109862Y235525D01*
X109903Y235494D01*
X110148Y235175D01*
X110011Y234725D01*
X109072Y232968D01*
X108714Y232532D01*
X106248D01*
Y229634D01*
X105825Y229458D01*
X105015Y229352D01*
X11572D01*
X10728Y229184D01*
X10011Y228705D01*
X5262Y223956D01*
X5262Y223956D01*
Y223956D01*
X3439Y222133D01*
X2960Y221416D01*
X2792Y220572D01*
Y220423D01*
X2675Y219831D01*
X2255Y219204D01*
X2186Y219158D01*
Y219158D01*
X1085Y219291D01*
X1242Y219238D01*
X1058Y219301D01*
Y267746D01*
X1058Y267746D01*
X1058D01*
X1046Y267802D01*
X1223Y270046D01*
X1762Y272290D01*
X2645Y274422D01*
X3851Y276390D01*
X5349Y278144D01*
X7104Y279643D01*
X9072Y280849D01*
X11204Y281732D01*
X13447Y282271D01*
X15692Y282447D01*
X15748Y282436D01*
X220472D01*
X220529Y282447D01*
X222773Y282271D01*
D02*
G37*
G36*
X226931Y129941D02*
Y129458D01*
X235163D01*
Y126598D01*
X234216Y126276D01*
X234013Y126540D01*
X233150Y127203D01*
X232144Y127620D01*
X231065Y127762D01*
X229986Y127620D01*
X228980Y127203D01*
X228116Y126540D01*
X227454Y125677D01*
X227037Y124671D01*
X226895Y123592D01*
X227037Y122513D01*
X227454Y121507D01*
X228116Y120644D01*
X228980Y119981D01*
X229986Y119565D01*
X231065Y119423D01*
X232144Y119565D01*
X233150Y119981D01*
X234013Y120644D01*
X234216Y120908D01*
X235163Y120587D01*
Y116598D01*
X234216Y116276D01*
X234013Y116540D01*
X233150Y117203D01*
X232144Y117620D01*
X231065Y117762D01*
X229986Y117620D01*
X228980Y117203D01*
X228904Y117145D01*
X231761Y114288D01*
X231065Y113592D01*
X231761Y112896D01*
X228904Y110039D01*
X228980Y109981D01*
X229986Y109565D01*
X231065Y109423D01*
X232144Y109565D01*
X233150Y109981D01*
X234013Y110644D01*
X234216Y110908D01*
X235163Y110587D01*
Y106598D01*
X234216Y106276D01*
X234013Y106540D01*
X233150Y107203D01*
X232144Y107620D01*
X231065Y107762D01*
X229986Y107620D01*
X228980Y107203D01*
X228116Y106540D01*
X227835Y106174D01*
X227805Y106154D01*
X227805Y106154D01*
Y106154D01*
X227544Y105872D01*
X225889Y106978D01*
X224527Y108340D01*
Y128844D01*
X226007Y130324D01*
X226931Y129941D01*
D02*
G37*
G36*
X5000Y129424D02*
Y129424D01*
X5027Y129448D01*
X6717Y129281D01*
X8368Y128781D01*
X9890Y127967D01*
X11010Y127048D01*
X11014Y127044D01*
Y112161D01*
X7755Y108902D01*
X7754Y108903D01*
X7745Y108891D01*
X7658Y108804D01*
X6957Y108267D01*
X6013Y107876D01*
X5073Y107752D01*
X5000Y107762D01*
X3921Y107620D01*
X2915Y107203D01*
X2052Y106540D01*
X2005Y106479D01*
X1058Y106800D01*
Y110384D01*
X2005Y110705D01*
X2052Y110644D01*
X2915Y109981D01*
X3921Y109565D01*
X5000Y109423D01*
X6079Y109565D01*
X7085Y109981D01*
X7161Y110039D01*
X4304Y112896D01*
X5000Y113592D01*
X4304Y114288D01*
X7161Y117145D01*
X7085Y117203D01*
X6079Y117620D01*
X5000Y117762D01*
X3921Y117620D01*
X2915Y117203D01*
X2052Y116540D01*
X2005Y116479D01*
X1058Y116800D01*
Y120384D01*
X2005Y120705D01*
X2052Y120644D01*
X2915Y119981D01*
X3921Y119565D01*
X5000Y119423D01*
X6079Y119565D01*
X7085Y119981D01*
X7948Y120644D01*
X8611Y121507D01*
X9027Y122513D01*
X9170Y123592D01*
X9027Y124671D01*
X8611Y125677D01*
X7948Y126540D01*
X7085Y127203D01*
X6079Y127620D01*
X5000Y127762D01*
X3921Y127620D01*
X2915Y127203D01*
X2052Y126540D01*
X2005Y126479D01*
X1058Y126801D01*
Y129458D01*
X4826D01*
X5000Y129424D01*
D02*
G37*
G36*
X106128Y224847D02*
X106248Y224797D01*
Y221957D01*
X108688D01*
X109578Y220505D01*
X109890Y219750D01*
X109776Y219178D01*
X109868Y218718D01*
X109868Y218718D01*
X110108Y217927D01*
X110663Y216889D01*
X110751Y215775D01*
Y190915D01*
X110889Y190224D01*
X111280Y189638D01*
X115394Y185524D01*
X115011Y184600D01*
X110620D01*
X110594Y184617D01*
X109672Y184801D01*
X108751Y184617D01*
X107969Y184095D01*
X107447Y183314D01*
X107264Y182392D01*
X107447Y181470D01*
X107969Y180689D01*
X108751Y180167D01*
X109672Y179984D01*
X110594Y180167D01*
X110620Y180184D01*
X117200D01*
Y180062D01*
X121334D01*
Y187149D01*
X119441D01*
X119267Y187183D01*
Y187183D01*
X119263Y187180D01*
X118874Y187257D01*
X118560Y187467D01*
X114364Y191663D01*
Y204206D01*
X129736D01*
X138590Y195353D01*
X138590Y195353D01*
X138590D01*
X138590Y195353D01*
X138590D01*
X138590Y195353D01*
Y195353D01*
Y195353D01*
D01*
D01*
X138590D01*
Y195353D01*
X139306Y194874D01*
X140151Y194706D01*
X151245D01*
X152090Y194874D01*
X152806Y195353D01*
X152806Y195353D01*
X152806Y195353D01*
X155892Y198439D01*
X156370Y199155D01*
X156538Y200000D01*
Y207480D01*
X156370Y208325D01*
X155892Y209041D01*
X151282Y213652D01*
Y219586D01*
X155068Y223373D01*
X166920D01*
X171333Y218960D01*
X171877Y218251D01*
X172202Y217466D01*
Y211790D01*
X172201Y211785D01*
X172202D01*
Y205202D01*
X172196Y205131D01*
X172202D01*
Y189155D01*
X172370Y188311D01*
X172848Y187594D01*
X172848Y187594D01*
X172848Y187594D01*
X224235Y136208D01*
Y133661D01*
X221443Y130869D01*
X221052Y130283D01*
X220914Y129592D01*
X220914Y129592D01*
X220914D01*
X220914Y129592D01*
X220914D01*
Y107592D01*
X220914Y107592D01*
X220914D01*
X221052Y106901D01*
X221443Y106315D01*
X225443Y102315D01*
X226029Y101923D01*
X226720Y101786D01*
X226721Y101786D01*
Y101781D01*
X227553Y101318D01*
X227553Y101318D01*
D01*
X227553Y101318D01*
X227553Y101318D01*
X227584Y101338D01*
X227705Y101180D01*
X227805Y101031D01*
X227835Y101011D01*
X228116Y100644D01*
X228980Y99981D01*
X229986Y99565D01*
X231065Y99423D01*
X232144Y99565D01*
X233150Y99981D01*
X234013Y100644D01*
X234216Y100908D01*
X235163Y100587D01*
Y96598D01*
X234216Y96276D01*
X234013Y96540D01*
X233150Y97203D01*
X232144Y97620D01*
X231065Y97762D01*
X229986Y97620D01*
X228980Y97203D01*
X228116Y96540D01*
X227454Y95677D01*
X227037Y94671D01*
X226895Y93592D01*
X227037Y92513D01*
X227454Y91507D01*
X228116Y90644D01*
X228980Y89981D01*
X229986Y89565D01*
X231065Y89423D01*
X232144Y89565D01*
X233150Y89981D01*
X234013Y90644D01*
X234216Y90908D01*
X235163Y90587D01*
Y87726D01*
X228323D01*
X231761Y84288D01*
X231065Y83592D01*
X231761Y82896D01*
X228323Y79458D01*
X235163D01*
Y62992D01*
Y59511D01*
X234266Y59069D01*
X233504Y59653D01*
X232402Y60110D01*
X231221Y60265D01*
X230039Y60110D01*
X228937Y59653D01*
X228779Y59532D01*
X231916Y56394D01*
X231221Y55699D01*
X231916Y55002D01*
X228779Y51865D01*
X228937Y51744D01*
X230039Y51287D01*
X231221Y51132D01*
X232402Y51287D01*
X233504Y51744D01*
X234266Y52328D01*
X235163Y51886D01*
Y32739D01*
X234266Y32297D01*
X233504Y32882D01*
X232402Y33338D01*
X231221Y33493D01*
X230039Y33338D01*
X228937Y32882D01*
X228779Y32760D01*
X231916Y29623D01*
X231221Y28927D01*
X231916Y28231D01*
X228779Y25093D01*
X228937Y24972D01*
X230039Y24516D01*
X231221Y24360D01*
X232402Y24516D01*
X233504Y24972D01*
X234266Y25557D01*
X235163Y25114D01*
Y15748D01*
X235174Y15692D01*
X234997Y13447D01*
X234459Y11204D01*
X233576Y9072D01*
X232370Y7104D01*
X230871Y5349D01*
X229116Y3851D01*
X227149Y2645D01*
X225017Y1762D01*
X222773Y1223D01*
X220529Y1046D01*
X220472Y1058D01*
X203183D01*
X202861Y2005D01*
X202954Y2076D01*
X203679Y3021D01*
X204135Y4123D01*
X204291Y5305D01*
X204135Y6487D01*
X203679Y7588D01*
X203558Y7746D01*
X200420Y4609D01*
X199724Y5305D01*
X199029Y4609D01*
X195891Y7746D01*
X195770Y7588D01*
X195313Y6487D01*
X195158Y5305D01*
X195313Y4123D01*
X195770Y3021D01*
X196495Y2076D01*
X196588Y2005D01*
X196266Y1058D01*
X186536D01*
Y9832D01*
X177480D01*
Y1058D01*
X57748D01*
X57426Y2005D01*
X57442Y2017D01*
X58167Y2962D01*
X58624Y4064D01*
X58779Y5246D01*
X58624Y6428D01*
X58167Y7529D01*
X58046Y7687D01*
X54909Y4550D01*
X54212Y5246D01*
X53517Y4550D01*
X50379Y7687D01*
X50258Y7529D01*
X49801Y6428D01*
X49646Y5246D01*
X49801Y4064D01*
X50258Y2962D01*
X50983Y2017D01*
X50999Y2005D01*
X50678Y1058D01*
X41023D01*
Y9773D01*
X31968D01*
Y1058D01*
X15748D01*
X15692Y1046D01*
X13447Y1223D01*
X11204Y1762D01*
X9072Y2645D01*
X7104Y3851D01*
X5349Y5349D01*
X3851Y7104D01*
X2645Y9072D01*
X1762Y11204D01*
X1223Y13447D01*
X1046Y15692D01*
X1058Y15748D01*
Y24340D01*
X8135D01*
X4304Y28172D01*
X5000Y28868D01*
X4304Y29564D01*
X8135Y33395D01*
X1058D01*
Y51827D01*
X1955Y52269D01*
X2717Y51685D01*
X3818Y51228D01*
X5000Y51073D01*
X6182Y51228D01*
X7283Y51685D01*
X7441Y51806D01*
X4304Y54943D01*
X5000Y55639D01*
X4304Y56335D01*
X7441Y59473D01*
X7283Y59594D01*
X6182Y60050D01*
X5000Y60206D01*
X3818Y60050D01*
X2717Y59594D01*
X1955Y59009D01*
X1058Y59452D01*
Y62992D01*
X1058Y62992D01*
Y79458D01*
X7742D01*
X4304Y82896D01*
X5000Y83592D01*
X4304Y84288D01*
X7742Y87726D01*
X1058D01*
Y90384D01*
X2005Y90705D01*
X2052Y90644D01*
X2915Y89981D01*
X3921Y89565D01*
X5000Y89423D01*
X6079Y89565D01*
X7085Y89981D01*
X7948Y90644D01*
X8611Y91507D01*
X9027Y92513D01*
X9170Y93592D01*
X9027Y94671D01*
X8611Y95677D01*
X7948Y96540D01*
X7085Y97203D01*
X6079Y97620D01*
X5000Y97762D01*
X3921Y97620D01*
X2915Y97203D01*
X2052Y96540D01*
X2005Y96479D01*
X1058Y96801D01*
Y100384D01*
X2005Y100705D01*
X2052Y100644D01*
X2915Y99981D01*
X3921Y99565D01*
X5000Y99423D01*
X6079Y99565D01*
X7085Y99981D01*
X7948Y100644D01*
X8611Y101507D01*
X9027Y102513D01*
X9170Y103592D01*
X9160Y103665D01*
X9284Y104605D01*
X9675Y105550D01*
X10212Y106250D01*
X10299Y106337D01*
X10311Y106346D01*
X10310Y106347D01*
X14098Y110135D01*
X14489Y110721D01*
X14627Y111413D01*
X14627Y111413D01*
X14627Y111413D01*
Y111413D01*
Y127792D01*
D01*
Y127792D01*
X14627D01*
D01*
Y127792D01*
X14627D01*
Y127792D01*
X14627Y127792D01*
X14627Y127792D01*
D01*
D01*
D01*
D01*
X14489Y128483D01*
X14357Y128681D01*
X14357Y128681D01*
X14098Y129069D01*
Y129069D01*
X14098Y129069D01*
X13759Y129408D01*
X13761Y129411D01*
X13728Y129440D01*
X10398Y132769D01*
X10400Y132770D01*
X10384Y132783D01*
X9134Y134033D01*
Y137726D01*
X1058D01*
Y147884D01*
X2005Y148205D01*
X2052Y148144D01*
X2915Y147481D01*
X3921Y147065D01*
X5000Y146923D01*
X6079Y147065D01*
X7085Y147481D01*
X7161Y147539D01*
X4304Y150396D01*
X5000Y151092D01*
X4304Y151788D01*
X7161Y154645D01*
X7085Y154703D01*
X6079Y155120D01*
X5000Y155262D01*
X3921Y155120D01*
X2915Y154703D01*
X2052Y154040D01*
X2005Y153979D01*
X1058Y154300D01*
Y157884D01*
X2005Y158205D01*
X2052Y158144D01*
X2915Y157481D01*
X3921Y157065D01*
X5000Y156923D01*
X6079Y157065D01*
X7085Y157481D01*
X7948Y158144D01*
X7972Y158175D01*
X8533Y158606D01*
X9223Y158891D01*
X9952Y158987D01*
X10394D01*
X10492Y158977D01*
Y158987D01*
X13277D01*
X13343Y158982D01*
Y158987D01*
X25006D01*
X45895Y138099D01*
X46351Y137794D01*
X46888Y137687D01*
X116643D01*
X117172Y137682D01*
D01*
X117172D01*
X117172D01*
D01*
X117174Y137682D01*
X117174Y137682D01*
X117174D01*
X117174Y137682D01*
X117175Y137682D01*
X117542Y137609D01*
X117824Y137421D01*
X117845Y137389D01*
X117877Y137368D01*
X118065Y137086D01*
X118138Y136719D01*
X118138Y136716D01*
X118143D01*
Y127987D01*
X47653Y57497D01*
X31413D01*
Y57503D01*
X31343Y57497D01*
X29098D01*
X28019Y57639D01*
X26892Y58106D01*
X26013Y58780D01*
X25946Y58868D01*
X25000Y59594D01*
X23898Y60050D01*
X22716Y60206D01*
X21534Y60050D01*
X20433Y59594D01*
X19487Y58868D01*
X18762Y57923D01*
X18305Y56821D01*
X18150Y55639D01*
X18305Y54457D01*
X18762Y53356D01*
X19487Y52410D01*
X20433Y51685D01*
X21534Y51228D01*
X22716Y51073D01*
X23898Y51228D01*
X25000Y51685D01*
X25946Y52410D01*
X26016Y52502D01*
X27103Y53394D01*
X28444Y54111D01*
X29900Y54552D01*
X31267Y54687D01*
X46624D01*
X47006Y53763D01*
X35568Y42325D01*
X35283Y41899D01*
X35183Y41396D01*
Y39840D01*
X35164D01*
X35177Y39711D01*
X35065Y38568D01*
X34694Y37346D01*
X34092Y36219D01*
X33338Y35301D01*
X33267Y35246D01*
X32541Y34301D01*
X32085Y33199D01*
X31929Y32017D01*
X32085Y30835D01*
X32541Y29734D01*
X33267Y28788D01*
X34213Y28062D01*
X35314Y27606D01*
X36496Y27451D01*
X37678Y27606D01*
X38779Y28062D01*
X39725Y28788D01*
X40451Y29734D01*
X40907Y30835D01*
X41063Y32017D01*
X40907Y33199D01*
X40451Y34301D01*
X39725Y35246D01*
X39654Y35301D01*
X38900Y36219D01*
X38298Y37346D01*
X37927Y38568D01*
X37815Y39711D01*
X37827Y39840D01*
X37809D01*
Y40853D01*
X65663Y68708D01*
X66587Y68325D01*
Y63243D01*
X66571D01*
X66582Y63125D01*
X66475Y62033D01*
X66122Y60868D01*
X65548Y59795D01*
X64829Y58919D01*
X64763Y58868D01*
X64037Y57923D01*
X63581Y56821D01*
X63425Y55639D01*
X63581Y54457D01*
X64037Y53356D01*
X64763Y52410D01*
X65709Y51685D01*
X66810Y51228D01*
X67992Y51073D01*
X69174Y51228D01*
X70275Y51685D01*
X71221Y52410D01*
X71947Y53356D01*
X72403Y54457D01*
X72559Y55639D01*
X72403Y56821D01*
X71947Y57923D01*
X71221Y58868D01*
X71155Y58919D01*
X70436Y59795D01*
X69863Y60868D01*
X69509Y62032D01*
X69402Y63125D01*
X69414Y63243D01*
X69397D01*
Y69354D01*
X126210Y126167D01*
X126514Y126623D01*
X126621Y127161D01*
X126621Y127161D01*
X126621Y127161D01*
Y127161D01*
Y141992D01*
X127185Y144825D01*
X128107Y145009D01*
X128888Y145531D01*
X129410Y146312D01*
X129594Y147234D01*
X129410Y148155D01*
X128888Y148937D01*
X128107Y149459D01*
X127185Y149642D01*
X127088Y149623D01*
X126342Y149771D01*
X125709Y150194D01*
X122966Y152937D01*
X122510Y153242D01*
X121972Y153349D01*
X116772D01*
X116235Y153242D01*
X115779Y152937D01*
X105660Y142819D01*
X48233D01*
X19666Y171386D01*
X19210Y171690D01*
X18673Y171797D01*
X13203D01*
X11850Y171930D01*
X10415Y172366D01*
X9092Y173073D01*
X8008Y173962D01*
X7948Y174040D01*
X7085Y174703D01*
X6079Y175120D01*
X5000Y175262D01*
X3921Y175120D01*
X2915Y174703D01*
X2052Y174040D01*
X2005Y173979D01*
X1058Y174301D01*
Y176958D01*
X9134D01*
Y185226D01*
X7780D01*
Y193014D01*
X7948Y193144D01*
X8611Y194007D01*
X9027Y195013D01*
X9170Y196092D01*
X9027Y197171D01*
X8611Y198177D01*
X7948Y199040D01*
X7780Y199170D01*
Y203014D01*
X7948Y203144D01*
X8611Y204007D01*
X9027Y205013D01*
X9170Y206092D01*
X9027Y207171D01*
X8611Y208177D01*
X7948Y209040D01*
X7780Y209170D01*
Y213014D01*
X7948Y213144D01*
X8611Y214007D01*
X9027Y215013D01*
X9156Y215992D01*
X9176Y216092D01*
X9170D01*
X9153Y216220D01*
X9307Y218187D01*
X9798Y220231D01*
X10602Y222172D01*
X11700Y223964D01*
X12531Y224936D01*
X105450D01*
X106128Y224847D01*
D02*
G37*
%LPC*%
G36*
X101081Y277689D02*
X93600D01*
Y268240D01*
X101081D01*
Y277689D01*
D02*
G37*
G36*
X42222D02*
X34742D01*
Y268240D01*
X42222D01*
Y277689D01*
D02*
G37*
G36*
X87341Y277721D02*
X86364Y277593D01*
X85454Y277216D01*
X84673Y276616D01*
X84074Y275835D01*
X83697Y274925D01*
X83568Y273949D01*
Y271980D01*
X83697Y271004D01*
X84074Y270094D01*
X84673Y269313D01*
X85454Y268713D01*
X86364Y268336D01*
X87341Y268208D01*
X88317Y268336D01*
X89227Y268713D01*
X90008Y269313D01*
X90608Y270094D01*
X90984Y271004D01*
X91113Y271980D01*
Y273949D01*
X90984Y274925D01*
X90608Y275835D01*
X90008Y276616D01*
X89227Y277216D01*
X88317Y277593D01*
X87341Y277721D01*
D02*
G37*
G36*
X48482D02*
X47506Y277593D01*
X46596Y277216D01*
X45815Y276616D01*
X45215Y275835D01*
X44839Y274925D01*
X44710Y273949D01*
Y271980D01*
X44839Y271004D01*
X45215Y270094D01*
X45815Y269313D01*
X46596Y268713D01*
X47506Y268336D01*
X48482Y268208D01*
X49459Y268336D01*
X50369Y268713D01*
X51150Y269313D01*
X51749Y270094D01*
X52126Y271004D01*
X52255Y271980D01*
Y273949D01*
X52126Y274925D01*
X51749Y275835D01*
X51150Y276616D01*
X50369Y277216D01*
X49459Y277593D01*
X48482Y277721D01*
D02*
G37*
G36*
X220472Y275118D02*
X219034Y274976D01*
X217651Y274557D01*
X216377Y273875D01*
X215260Y272958D01*
X214343Y271841D01*
X213662Y270567D01*
X213242Y269184D01*
X213100Y267746D01*
X213242Y266307D01*
X213662Y264925D01*
X214343Y263650D01*
X215260Y262533D01*
X216377Y261616D01*
X217651Y260935D01*
X219034Y260515D01*
X220472Y260374D01*
X221911Y260515D01*
X223294Y260935D01*
X224568Y261616D01*
X225685Y262533D01*
X226602Y263650D01*
X227283Y264925D01*
X227703Y266307D01*
X227845Y267746D01*
X227703Y269184D01*
X227283Y270567D01*
X226602Y271841D01*
X225685Y272958D01*
X224568Y273875D01*
X223294Y274557D01*
X221911Y274976D01*
X220472Y275118D01*
D02*
G37*
G36*
X15748D02*
X14310Y274976D01*
X12927Y274557D01*
X11652Y273875D01*
X10535Y272958D01*
X9618Y271841D01*
X8937Y270567D01*
X8518Y269184D01*
X8376Y267746D01*
X8518Y266307D01*
X8937Y264925D01*
X9618Y263650D01*
X10535Y262533D01*
X11652Y261616D01*
X12927Y260935D01*
X14310Y260515D01*
X15748Y260374D01*
X17186Y260515D01*
X18569Y260935D01*
X19844Y261616D01*
X20961Y262533D01*
X21878Y263650D01*
X22559Y264925D01*
X22978Y266307D01*
X23120Y267746D01*
X22978Y269184D01*
X22559Y270567D01*
X21878Y271841D01*
X20961Y272958D01*
X19844Y273875D01*
X18569Y274557D01*
X17186Y274976D01*
X15748Y275118D01*
D02*
G37*
G36*
X173698Y273271D02*
X132180D01*
Y264514D01*
X132180D01*
Y263625D01*
X132157Y263601D01*
X132157D01*
Y256424D01*
X155801D01*
Y263601D01*
X155801D01*
Y263807D01*
X156509Y264514D01*
X173698D01*
Y273271D01*
D02*
G37*
G36*
X125693Y252748D02*
X120209D01*
X122951Y250006D01*
X125693Y252748D01*
D02*
G37*
G36*
X193817Y247513D02*
X192584Y247351D01*
X191434Y246875D01*
X190447Y246117D01*
X189690Y245131D01*
X189214Y243981D01*
X189052Y242748D01*
X189214Y241515D01*
X189690Y240365D01*
X190447Y239378D01*
X191434Y238621D01*
X192584Y238145D01*
X193817Y237983D01*
X195050Y238145D01*
X196200Y238621D01*
X197187Y239378D01*
X197944Y240365D01*
X198420Y241515D01*
X198582Y242748D01*
X198420Y243981D01*
X197944Y245131D01*
X197187Y246117D01*
X196200Y246875D01*
X195050Y247351D01*
X193817Y247513D01*
D02*
G37*
G36*
X42242D02*
X41009Y247351D01*
X39860Y246875D01*
X38873Y246117D01*
X38115Y245131D01*
X37639Y243981D01*
X37477Y242748D01*
X37639Y241515D01*
X38115Y240365D01*
X38873Y239378D01*
X39860Y238621D01*
X41009Y238145D01*
X42242Y237983D01*
X43475Y238145D01*
X44625Y238621D01*
X45612Y239378D01*
X46369Y240365D01*
X46845Y241515D01*
X47007Y242748D01*
X46845Y243981D01*
X46369Y245131D01*
X45612Y246117D01*
X44625Y246875D01*
X43475Y247351D01*
X42242Y247513D01*
D02*
G37*
G36*
X221065Y240262D02*
X219986Y240120D01*
X218980Y239703D01*
X218904Y239645D01*
X221065Y237484D01*
X223225Y239645D01*
X223149Y239703D01*
X222144Y240120D01*
X221065Y240262D01*
D02*
G37*
G36*
X172951Y242982D02*
X171820Y242833D01*
X170767Y242397D01*
X169862Y241703D01*
X169168Y240798D01*
X168732Y239745D01*
X168583Y238614D01*
X168732Y237484D01*
X169168Y236430D01*
X169862Y235525D01*
X170767Y234831D01*
X171820Y234395D01*
X172951Y234246D01*
X174081Y234395D01*
X175135Y234831D01*
X176040Y235525D01*
X176734Y236430D01*
X177170Y237484D01*
X177319Y238614D01*
X177170Y239745D01*
X176734Y240798D01*
X176040Y241703D01*
X175135Y242397D01*
X174081Y242833D01*
X172951Y242982D01*
D02*
G37*
G36*
X162951D02*
X161820Y242833D01*
X160767Y242397D01*
X159862Y241703D01*
X159168Y240798D01*
X158732Y239745D01*
X158583Y238614D01*
X158732Y237484D01*
X159168Y236430D01*
X159862Y235525D01*
X160767Y234831D01*
X161820Y234395D01*
X162951Y234246D01*
X164081Y234395D01*
X165135Y234831D01*
X166040Y235525D01*
X166734Y236430D01*
X167170Y237484D01*
X167319Y238614D01*
X167170Y239745D01*
X166734Y240798D01*
X166040Y241703D01*
X165135Y242397D01*
X164081Y242833D01*
X162951Y242982D01*
D02*
G37*
G36*
X152951D02*
X151820Y242833D01*
X150767Y242397D01*
X149862Y241703D01*
X149168Y240798D01*
X148732Y239745D01*
X148583Y238614D01*
X148732Y237484D01*
X149168Y236430D01*
X149862Y235525D01*
X150767Y234831D01*
X151820Y234395D01*
X152951Y234246D01*
X154081Y234395D01*
X155135Y234831D01*
X156040Y235525D01*
X156734Y236430D01*
X157170Y237484D01*
X157319Y238614D01*
X157170Y239745D01*
X156734Y240798D01*
X156040Y241703D01*
X155135Y242397D01*
X154081Y242833D01*
X152951Y242982D01*
D02*
G37*
G36*
X112951Y252784D02*
X111872Y252642D01*
X110866Y252225D01*
X110003Y251562D01*
X109340Y250699D01*
X108923Y249693D01*
X108781Y248614D01*
X108923Y247535D01*
X109340Y246529D01*
X110003Y245666D01*
X110866Y245003D01*
X111872Y244587D01*
X112951Y244444D01*
X113068Y244460D01*
X114315Y244296D01*
X115586Y243769D01*
X116543Y243035D01*
X116577Y243001D01*
X116654Y242908D01*
X116662Y242916D01*
X116662Y242916D01*
X116867Y242711D01*
X116867D01*
X116867Y242711D01*
X116867Y242711D01*
Y242711D01*
X117323Y242407D01*
X117860Y242300D01*
X119190D01*
X119632Y241403D01*
X119168Y240798D01*
X118732Y239745D01*
X118583Y238614D01*
X118732Y237484D01*
X119168Y236430D01*
X119258Y236313D01*
X122255Y239310D01*
X122951Y238614D01*
X123647Y239310D01*
X126644Y236313D01*
X126734Y236430D01*
X127170Y237484D01*
X127319Y238614D01*
X127170Y239745D01*
X126734Y240798D01*
X126270Y241403D01*
X126712Y242300D01*
X129190D01*
X129632Y241403D01*
X129168Y240798D01*
X128732Y239745D01*
X128583Y238614D01*
X128732Y237484D01*
X129168Y236430D01*
X129862Y235525D01*
X129973Y235440D01*
X130802Y234360D01*
X131376Y232974D01*
X131546Y231684D01*
Y231629D01*
X131532Y231486D01*
X131546D01*
Y212266D01*
X131546Y212266D01*
X131546D01*
X131653Y211728D01*
X131957Y211272D01*
X138896Y204334D01*
X138896Y204328D01*
X138895Y204327D01*
D01*
D01*
X138895Y204327D01*
D01*
D01*
X138897Y204325D01*
X138897Y204325D01*
X138897Y204325D01*
X139105Y204014D01*
X139171Y203681D01*
X139164Y203644D01*
X139347Y202722D01*
X139869Y201941D01*
X140651Y201419D01*
X141572Y201236D01*
X142494Y201419D01*
X143275Y201941D01*
X143798Y202722D01*
X143981Y203644D01*
X143832Y204393D01*
X144714Y204864D01*
X145044Y204534D01*
X145044Y204528D01*
X145043Y204527D01*
D01*
D01*
X145043Y204527D01*
D01*
D01*
X145046Y204525D01*
X145046Y204525D01*
X145046Y204525D01*
X145254Y204214D01*
X145320Y203881D01*
X145312Y203844D01*
X145496Y202922D01*
X146018Y202141D01*
X146799Y201619D01*
X147721Y201436D01*
X148643Y201619D01*
X149424Y202141D01*
X149946Y202922D01*
X150129Y203844D01*
X149946Y204766D01*
X149424Y205547D01*
X148643Y206069D01*
X147721Y206253D01*
X147684Y206245D01*
X147351Y206311D01*
X147040Y206519D01*
X147040Y206519D01*
X147040Y206519D01*
X147038Y206522D01*
X147038Y206522D01*
D01*
D01*
X147038Y206521D01*
X147037Y206521D01*
X147031Y206521D01*
X139263Y214288D01*
Y234854D01*
X140160Y235297D01*
X140767Y234831D01*
X141820Y234395D01*
X142951Y234246D01*
X144081Y234395D01*
X145135Y234831D01*
X146039Y235525D01*
X146734Y236430D01*
X147170Y237484D01*
X147319Y238614D01*
X147170Y239745D01*
X146734Y240798D01*
X146039Y241703D01*
X145135Y242397D01*
X144081Y242833D01*
X142951Y242982D01*
X141820Y242833D01*
X140767Y242397D01*
X140249Y241999D01*
X139313Y242352D01*
X139249Y242672D01*
X138944Y243128D01*
X137374Y244698D01*
X136918Y245003D01*
X136380Y245110D01*
X127085D01*
Y251356D01*
X123647Y247918D01*
X122951Y248614D01*
X122255Y247918D01*
X118817Y251356D01*
Y246203D01*
X117870Y245882D01*
X117796Y245979D01*
X117269Y247250D01*
X117105Y248497D01*
X117120Y248614D01*
X116978Y249693D01*
X116562Y250699D01*
X115899Y251562D01*
X115036Y252225D01*
X114030Y252642D01*
X112951Y252784D01*
D02*
G37*
G36*
X122951Y237222D02*
X120650Y234921D01*
X120767Y234831D01*
X121820Y234395D01*
X122951Y234246D01*
X124081Y234395D01*
X125135Y234831D01*
X125252Y234921D01*
X122951Y237222D01*
D02*
G37*
G36*
X102951Y242982D02*
X101820Y242833D01*
X100767Y242397D01*
X99862Y241703D01*
X99168Y240798D01*
X98732Y239745D01*
X98583Y238614D01*
X98732Y237484D01*
X99168Y236430D01*
X99862Y235525D01*
X100767Y234831D01*
X101820Y234395D01*
X102951Y234246D01*
X104081Y234395D01*
X105135Y234831D01*
X106040Y235525D01*
X106734Y236430D01*
X107170Y237484D01*
X107319Y238614D01*
X107170Y239745D01*
X106734Y240798D01*
X106040Y241703D01*
X105135Y242397D01*
X104081Y242833D01*
X102951Y242982D01*
D02*
G37*
G36*
X92951D02*
X91820Y242833D01*
X90767Y242397D01*
X89862Y241703D01*
X89168Y240798D01*
X88732Y239745D01*
X88583Y238614D01*
X88732Y237484D01*
X89168Y236430D01*
X89862Y235525D01*
X90767Y234831D01*
X91820Y234395D01*
X92951Y234246D01*
X94081Y234395D01*
X95135Y234831D01*
X96039Y235525D01*
X96734Y236430D01*
X97170Y237484D01*
X97319Y238614D01*
X97170Y239745D01*
X96734Y240798D01*
X96039Y241703D01*
X95135Y242397D01*
X94081Y242833D01*
X92951Y242982D01*
D02*
G37*
G36*
X82951D02*
X81820Y242833D01*
X80767Y242397D01*
X79862Y241703D01*
X79168Y240798D01*
X78732Y239745D01*
X78583Y238614D01*
X78732Y237484D01*
X79168Y236430D01*
X79862Y235525D01*
X80767Y234831D01*
X81820Y234395D01*
X82951Y234246D01*
X84081Y234395D01*
X85135Y234831D01*
X86040Y235525D01*
X86734Y236430D01*
X87170Y237484D01*
X87319Y238614D01*
X87170Y239745D01*
X86734Y240798D01*
X86040Y241703D01*
X85135Y242397D01*
X84081Y242833D01*
X82951Y242982D01*
D02*
G37*
G36*
X72951D02*
X71820Y242833D01*
X70767Y242397D01*
X69862Y241703D01*
X69168Y240798D01*
X68732Y239745D01*
X68583Y238614D01*
X68732Y237484D01*
X69168Y236430D01*
X69862Y235525D01*
X70767Y234831D01*
X71820Y234395D01*
X72951Y234246D01*
X74081Y234395D01*
X75135Y234831D01*
X76039Y235525D01*
X76734Y236430D01*
X77170Y237484D01*
X77319Y238614D01*
X77170Y239745D01*
X76734Y240798D01*
X76039Y241703D01*
X75135Y242397D01*
X74081Y242833D01*
X72951Y242982D01*
D02*
G37*
G36*
X62951D02*
X61820Y242833D01*
X60767Y242397D01*
X59862Y241703D01*
X59168Y240798D01*
X58732Y239745D01*
X58583Y238614D01*
X58732Y237484D01*
X59168Y236430D01*
X59862Y235525D01*
X60767Y234831D01*
X61820Y234395D01*
X62951Y234246D01*
X64081Y234395D01*
X65135Y234831D01*
X66040Y235525D01*
X66734Y236430D01*
X67170Y237484D01*
X67319Y238614D01*
X67170Y239745D01*
X66734Y240798D01*
X66040Y241703D01*
X65135Y242397D01*
X64081Y242833D01*
X62951Y242982D01*
D02*
G37*
G36*
X224617Y238253D02*
X222457Y236092D01*
X224617Y233931D01*
X224676Y234007D01*
X225092Y235013D01*
X225234Y236092D01*
X225092Y237171D01*
X224676Y238177D01*
X224617Y238253D01*
D02*
G37*
G36*
X217512D02*
X217454Y238177D01*
X217037Y237171D01*
X216895Y236092D01*
X217037Y235013D01*
X217454Y234007D01*
X217512Y233931D01*
X219673Y236092D01*
X217512Y238253D01*
D02*
G37*
G36*
X215199Y240226D02*
X206931D01*
Y231958D01*
X215199D01*
Y240226D01*
D02*
G37*
G36*
X128854Y232532D02*
X121063D01*
X124958Y228637D01*
X128854Y232532D01*
D02*
G37*
G36*
X221065Y234700D02*
X218285Y231921D01*
Y230264D01*
X221065Y227484D01*
X223844Y230264D01*
Y231921D01*
X221065Y234700D01*
D02*
G37*
G36*
X129496Y230390D02*
X126350Y227245D01*
X129496Y224099D01*
Y230390D01*
D02*
G37*
G36*
X120421D02*
Y224099D01*
X123566Y227245D01*
X120421Y230390D01*
D02*
G37*
G36*
X224617Y228253D02*
X222457Y226092D01*
X224617Y223931D01*
X224676Y224007D01*
X225092Y225013D01*
X225234Y226092D01*
X225092Y227171D01*
X224676Y228177D01*
X224617Y228253D01*
D02*
G37*
G36*
X217512D02*
X217454Y228177D01*
X217037Y227171D01*
X216895Y226092D01*
X217037Y225013D01*
X217454Y224007D01*
X217512Y223931D01*
X219673Y226092D01*
X217512Y228253D01*
D02*
G37*
G36*
X215199Y230226D02*
X206931D01*
Y221958D01*
X215199D01*
Y230226D01*
D02*
G37*
G36*
X124958Y225853D02*
X121063Y221957D01*
X128854D01*
X124958Y225853D01*
D02*
G37*
G36*
X221065Y224700D02*
X218285Y221920D01*
Y220264D01*
X221065Y217484D01*
X223844Y220264D01*
Y221920D01*
X221065Y224700D01*
D02*
G37*
G36*
X122686Y218302D02*
X118895D01*
X120791Y216406D01*
X122686Y218302D01*
D02*
G37*
G36*
X224617Y218253D02*
X222457Y216092D01*
X224617Y213931D01*
X224676Y214007D01*
X225092Y215013D01*
X225234Y216092D01*
X225092Y217171D01*
X224676Y218177D01*
X224617Y218253D01*
D02*
G37*
G36*
X217512D02*
X217454Y218177D01*
X217037Y217171D01*
X216895Y216092D01*
X217037Y215013D01*
X217454Y214007D01*
X217512Y213931D01*
X219673Y216092D01*
X217512Y218253D01*
D02*
G37*
G36*
X123328Y216160D02*
X122183Y215014D01*
X123328Y213869D01*
Y216160D01*
D02*
G37*
G36*
X118253D02*
Y213869D01*
X119399Y215014D01*
X118253Y216160D01*
D02*
G37*
G36*
X215199Y220226D02*
X206931D01*
Y211958D01*
X215199D01*
Y220226D01*
D02*
G37*
G36*
X120791Y213622D02*
X118895Y211727D01*
X122686D01*
X120791Y213622D01*
D02*
G37*
G36*
X221065Y214700D02*
X218285Y211920D01*
Y210264D01*
X221065Y207484D01*
X223844Y210264D01*
Y211920D01*
X221065Y214700D01*
D02*
G37*
G36*
X224617Y208253D02*
X222457Y206092D01*
X224617Y203931D01*
X224676Y204007D01*
X225092Y205013D01*
X225234Y206092D01*
X225092Y207171D01*
X224676Y208177D01*
X224617Y208253D01*
D02*
G37*
G36*
X217512D02*
X217454Y208177D01*
X217037Y207171D01*
X216895Y206092D01*
X217037Y205013D01*
X217454Y204007D01*
X217512Y203931D01*
X219673Y206092D01*
X217512Y208253D01*
D02*
G37*
G36*
X215199Y210226D02*
X206931D01*
Y201958D01*
X215199D01*
Y210226D01*
D02*
G37*
G36*
X221065Y204700D02*
X218285Y201921D01*
Y200264D01*
X221065Y197484D01*
X223844Y200264D01*
Y201921D01*
X221065Y204700D01*
D02*
G37*
G36*
X224617Y198253D02*
X222457Y196092D01*
X224617Y193931D01*
X224676Y194007D01*
X225092Y195013D01*
X225234Y196092D01*
X225092Y197171D01*
X224676Y198177D01*
X224617Y198253D01*
D02*
G37*
G36*
X217512D02*
X217454Y198177D01*
X217037Y197171D01*
X216895Y196092D01*
X217037Y195013D01*
X217454Y194007D01*
X217512Y193931D01*
X219673Y196092D01*
X217512Y198253D01*
D02*
G37*
G36*
X215199Y200226D02*
X206931D01*
Y191958D01*
X215199D01*
Y200226D01*
D02*
G37*
G36*
X221065Y194700D02*
X218904Y192540D01*
X218980Y192481D01*
X219986Y192065D01*
X221065Y191923D01*
X222144Y192065D01*
X223149Y192481D01*
X223225Y192540D01*
X221065Y194700D01*
D02*
G37*
%LPD*%
G36*
X154724Y271949D02*
X154812Y271944D01*
X154974Y271915D01*
X155122Y271870D01*
X155191Y271846D01*
X155255Y271826D01*
X155309Y271801D01*
X155358Y271777D01*
X155403Y271752D01*
X155442Y271732D01*
X155472Y271718D01*
X155491Y271703D01*
X155506Y271698D01*
X155511Y271693D01*
X155580Y271644D01*
X155649Y271590D01*
X155777Y271472D01*
X155885Y271344D01*
X155978Y271226D01*
X156018Y271172D01*
X156052Y271117D01*
X156081Y271073D01*
X156111Y271029D01*
X156131Y271000D01*
X156146Y270970D01*
X156150Y270955D01*
X156155Y270950D01*
X156023Y270877D01*
X155949Y270980D01*
X155880Y271063D01*
X155811Y271137D01*
X155752Y271196D01*
X155703Y271240D01*
X155663Y271270D01*
X155639Y271290D01*
X155629Y271295D01*
X155555Y271339D01*
X155476Y271369D01*
X155403Y271393D01*
X155329Y271408D01*
X155270Y271418D01*
X155226Y271423D01*
X155181D01*
X155083Y271413D01*
X154989Y271393D01*
X154911Y271363D01*
X154847Y271329D01*
X154792Y271290D01*
X154753Y271260D01*
X154734Y271240D01*
X154724Y271231D01*
X154665Y271157D01*
X154620Y271073D01*
X154591Y270994D01*
X154566Y270916D01*
X154556Y270847D01*
X154551Y270788D01*
X154546Y270768D01*
Y270754D01*
Y270744D01*
Y270739D01*
Y270680D01*
X154556Y270625D01*
X154581Y270527D01*
X154615Y270434D01*
X154655Y270355D01*
X154694Y270296D01*
X154728Y270247D01*
X154753Y270217D01*
X154758Y270212D01*
X154763Y270207D01*
X154851Y270133D01*
X154950Y270065D01*
X155053Y270010D01*
X155157Y269966D01*
X155245Y269927D01*
X155285Y269912D01*
X155319Y269902D01*
X155349Y269893D01*
X155368Y269887D01*
X155383Y269883D01*
X155388D01*
Y269764D01*
X155275Y269730D01*
X155166Y269696D01*
X155063Y269656D01*
X154970Y269612D01*
X154886Y269573D01*
X154802Y269528D01*
X154734Y269484D01*
X154665Y269445D01*
X154611Y269405D01*
X154561Y269366D01*
X154517Y269337D01*
X154482Y269307D01*
X154453Y269282D01*
X154433Y269263D01*
X154423Y269253D01*
X154419Y269248D01*
X154359Y269184D01*
X154305Y269115D01*
X154261Y269046D01*
X154222Y268977D01*
X154187Y268909D01*
X154163Y268840D01*
X154138Y268771D01*
X154123Y268712D01*
X154109Y268653D01*
X154099Y268599D01*
X154089Y268549D01*
X154084Y268510D01*
X154079Y268476D01*
Y268451D01*
Y268436D01*
Y268431D01*
X154089Y268308D01*
X154109Y268195D01*
X154138Y268097D01*
X154168Y268013D01*
X154202Y267944D01*
X154232Y267895D01*
X154246Y267880D01*
X154251Y267865D01*
X154261Y267861D01*
Y267856D01*
X154296Y267816D01*
X154330Y267782D01*
X154404Y267723D01*
X154478Y267683D01*
X154546Y267659D01*
X154605Y267639D01*
X154655Y267634D01*
X154674Y267629D01*
X154699D01*
X154743Y267634D01*
X154788Y267644D01*
X154832Y267664D01*
X154881Y267688D01*
X154974Y267742D01*
X155063Y267811D01*
X155142Y267880D01*
X155176Y267910D01*
X155206Y267934D01*
X155230Y267959D01*
X155250Y267979D01*
X155260Y267988D01*
X155265Y267993D01*
X155314Y268047D01*
X155349Y268082D01*
X155368Y268107D01*
X155378Y268111D01*
X155452Y268175D01*
X155526Y268220D01*
X155555Y268239D01*
X155580Y268249D01*
X155595Y268259D01*
X155599D01*
X155644Y268279D01*
X155693Y268288D01*
X155737Y268298D01*
X155777Y268308D01*
X155811D01*
X155835Y268313D01*
X155860D01*
X155929Y268308D01*
X155993Y268293D01*
X156047Y268279D01*
X156091Y268259D01*
X156131Y268234D01*
X156155Y268220D01*
X156175Y268205D01*
X156180Y268200D01*
X156219Y268156D01*
X156249Y268107D01*
X156273Y268057D01*
X156288Y268013D01*
X156298Y267974D01*
X156303Y267939D01*
Y267919D01*
Y267910D01*
X156298Y267856D01*
X156293Y267806D01*
X156259Y267718D01*
X156214Y267639D01*
X156165Y267570D01*
X156116Y267516D01*
X156072Y267482D01*
X156037Y267457D01*
X156032Y267447D01*
X156027D01*
X155914Y267388D01*
X155796Y267349D01*
X155673Y267319D01*
X155555Y267295D01*
X155501Y267290D01*
X155452Y267285D01*
X155408Y267280D01*
X155368D01*
X155339Y267275D01*
X155294D01*
X155181Y267280D01*
X155078Y267290D01*
X154980Y267300D01*
X154891Y267314D01*
X154817Y267329D01*
X154788Y267334D01*
X154763Y267344D01*
X154743Y267349D01*
X154728D01*
X154719Y267354D01*
X154714D01*
X154611Y267388D01*
X154512Y267423D01*
X154419Y267462D01*
X154340Y267501D01*
X154276Y267536D01*
X154227Y267565D01*
X154207Y267575D01*
X154192Y267585D01*
X154187Y267590D01*
X154182D01*
X154040Y267688D01*
X153912Y267792D01*
X153804Y267895D01*
X153715Y267993D01*
X153646Y268082D01*
X153617Y268121D01*
X153592Y268151D01*
X153577Y268180D01*
X153562Y268200D01*
X153553Y268210D01*
Y268215D01*
X153513Y268288D01*
X153479Y268357D01*
X153425Y268500D01*
X153385Y268638D01*
X153361Y268766D01*
X153351Y268820D01*
X153341Y268874D01*
X153336Y268918D01*
Y268958D01*
X153331Y268987D01*
Y269012D01*
Y269026D01*
Y269032D01*
X153341Y269184D01*
X153361Y269322D01*
X153390Y269440D01*
X153405Y269494D01*
X153425Y269543D01*
X153444Y269587D01*
X153459Y269627D01*
X153474Y269661D01*
X153489Y269691D01*
X153498Y269710D01*
X153508Y269725D01*
X153518Y269735D01*
Y269740D01*
X153553Y269794D01*
X153597Y269843D01*
X153685Y269937D01*
X153779Y270016D01*
X153873Y270084D01*
X153961Y270143D01*
X153996Y270163D01*
X154030Y270183D01*
X154054Y270198D01*
X154074Y270207D01*
X154089Y270217D01*
X154094D01*
X154005Y270281D01*
X153927Y270345D01*
X153863Y270409D01*
X153804Y270473D01*
X153764Y270522D01*
X153730Y270567D01*
X153710Y270596D01*
X153705Y270601D01*
Y270606D01*
X153661Y270694D01*
X153627Y270778D01*
X153602Y270862D01*
X153582Y270936D01*
X153572Y270994D01*
X153567Y271044D01*
Y271063D01*
Y271078D01*
Y271083D01*
Y271088D01*
X153572Y271162D01*
X153582Y271231D01*
X153592Y271295D01*
X153612Y271354D01*
X153661Y271462D01*
X153710Y271550D01*
X153764Y271624D01*
X153789Y271649D01*
X153813Y271673D01*
X153833Y271693D01*
X153843Y271708D01*
X153853Y271713D01*
X153858Y271718D01*
X153912Y271757D01*
X153971Y271796D01*
X154099Y271855D01*
X154227Y271895D01*
X154355Y271924D01*
X154409Y271934D01*
X154463Y271944D01*
X154512Y271949D01*
X154551D01*
X154586Y271954D01*
X154635D01*
X154724Y271949D01*
D02*
G37*
G36*
X140623Y271718D02*
X140559Y271703D01*
X140495Y271673D01*
X140436Y271639D01*
X140387Y271605D01*
X140342Y271565D01*
X140313Y271531D01*
X140288Y271511D01*
X140283Y271501D01*
X140264Y271482D01*
X140259Y271472D01*
X140052Y271216D01*
Y268146D01*
Y268082D01*
X140057Y268023D01*
X140062Y267969D01*
X140072Y267919D01*
X140082Y267875D01*
X140092Y267836D01*
X140111Y267767D01*
X140131Y267723D01*
X140151Y267688D01*
X140165Y267669D01*
X140170Y267664D01*
X140195Y267644D01*
X140224Y267624D01*
X140288Y267595D01*
X140362Y267575D01*
X140441Y267560D01*
X140510Y267550D01*
X140569Y267546D01*
X140588Y267541D01*
X140623D01*
Y267369D01*
X139152D01*
Y267541D01*
X139216Y267546D01*
X139275Y267550D01*
X139329Y267560D01*
X139373Y267565D01*
X139457Y267590D01*
X139521Y267610D01*
X139570Y267634D01*
X139600Y267649D01*
X139619Y267664D01*
X139624Y267669D01*
X139644Y267693D01*
X139664Y267723D01*
X139693Y267792D01*
X139713Y267870D01*
X139727Y267954D01*
X139737Y268028D01*
X139742Y268087D01*
Y268111D01*
Y268131D01*
Y268141D01*
Y268146D01*
Y270837D01*
X136810Y267260D01*
X136623D01*
Y271103D01*
Y271167D01*
X136618Y271226D01*
X136613Y271285D01*
X136603Y271334D01*
X136593Y271378D01*
X136584Y271418D01*
X136564Y271482D01*
X136544Y271531D01*
X136524Y271560D01*
X136510Y271580D01*
X136505Y271585D01*
X136480Y271605D01*
X136451Y271624D01*
X136382Y271659D01*
X136308Y271683D01*
X136234Y271698D01*
X136165Y271708D01*
X136106Y271713D01*
X136082Y271718D01*
X136052D01*
Y271885D01*
X137518D01*
Y271718D01*
X137454Y271713D01*
X137400Y271708D01*
X137346Y271698D01*
X137297Y271688D01*
X137218Y271669D01*
X137154Y271644D01*
X137105Y271624D01*
X137076Y271605D01*
X137056Y271590D01*
X137051Y271585D01*
X137031Y271560D01*
X137012Y271531D01*
X136982Y271462D01*
X136958Y271388D01*
X136943Y271304D01*
X136933Y271231D01*
X136928Y271172D01*
Y271147D01*
Y271127D01*
Y271117D01*
Y271113D01*
Y269036D01*
X139255Y271885D01*
X140623D01*
Y271718D01*
D02*
G37*
G36*
X149528Y271718D02*
X149464Y271713D01*
X149405Y271703D01*
X149351Y271693D01*
X149302Y271683D01*
X149223Y271664D01*
X149154Y271639D01*
X149110Y271615D01*
X149075Y271600D01*
X149056Y271585D01*
X149051Y271580D01*
X149031Y271555D01*
X149012Y271531D01*
X148982Y271467D01*
X148957Y271398D01*
X148943Y271324D01*
X148933Y271260D01*
X148928Y271206D01*
Y271182D01*
Y271167D01*
Y271157D01*
Y271152D01*
Y268151D01*
X148933Y268033D01*
X148948Y267939D01*
X148972Y267856D01*
X148992Y267792D01*
X149016Y267742D01*
X149041Y267708D01*
X149056Y267688D01*
X149061Y267683D01*
X149085Y267659D01*
X149120Y267639D01*
X149189Y267610D01*
X149267Y267580D01*
X149346Y267565D01*
X149415Y267550D01*
X149479Y267546D01*
X149499Y267541D01*
X149533D01*
Y267369D01*
X147998D01*
Y267541D01*
X148062D01*
X148126Y267546D01*
X148180Y267550D01*
X148234Y267560D01*
X148278Y267570D01*
X148318Y267580D01*
X148387Y267605D01*
X148436Y267624D01*
X148475Y267644D01*
X148495Y267659D01*
X148500Y267664D01*
X148524Y267688D01*
X148544Y267723D01*
X148574Y267796D01*
X148598Y267875D01*
X148613Y267959D01*
X148623Y268038D01*
Y268072D01*
X148628Y268102D01*
Y268126D01*
Y268146D01*
Y268156D01*
Y268161D01*
Y271221D01*
X146999Y267369D01*
X146817D01*
X145169Y271324D01*
Y268190D01*
Y268121D01*
X145174Y268057D01*
X145179Y267998D01*
X145189Y267949D01*
X145199Y267900D01*
X145208Y267861D01*
X145228Y267792D01*
X145248Y267738D01*
X145267Y267703D01*
X145282Y267683D01*
X145287Y267678D01*
X145312Y267659D01*
X145341Y267639D01*
X145410Y267605D01*
X145489Y267580D01*
X145563Y267565D01*
X145636Y267550D01*
X145695Y267546D01*
X145720Y267541D01*
X145755D01*
Y267369D01*
X143560Y267369D01*
Y267541D01*
X143624Y267546D01*
X143678Y267550D01*
X143727Y267555D01*
X143777Y267565D01*
X143855Y267585D01*
X143914Y267610D01*
X143959Y267629D01*
X143988Y267649D01*
X144008Y267664D01*
X144013Y267669D01*
X144033Y267693D01*
X144047Y267728D01*
X144077Y267806D01*
X144096Y267895D01*
X144106Y267984D01*
X144116Y268072D01*
Y268111D01*
X144121Y268141D01*
Y268170D01*
Y268190D01*
Y268205D01*
Y268210D01*
Y271113D01*
X144116Y271221D01*
X144101Y271314D01*
X144082Y271393D01*
X144062Y271452D01*
X144042Y271496D01*
X144023Y271531D01*
X144008Y271550D01*
X144003Y271555D01*
X143949Y271600D01*
X143880Y271634D01*
X143806Y271664D01*
X143732Y271683D01*
X143664Y271698D01*
X143609Y271708D01*
X143585D01*
X143570Y271713D01*
X143555D01*
Y271885D01*
X145223Y271885D01*
X146532Y268776D01*
X147845Y271885D01*
X149528D01*
Y271718D01*
D02*
G37*
G36*
X172406D02*
X172293Y271708D01*
X172199Y271688D01*
X172121Y271664D01*
X172057Y271639D01*
X172012Y271609D01*
X171978Y271590D01*
X171958Y271575D01*
X171953Y271570D01*
X171909Y271516D01*
X171880Y271447D01*
X171855Y271373D01*
X171840Y271300D01*
X171830Y271231D01*
X171826Y271177D01*
Y271152D01*
Y271137D01*
Y271127D01*
Y271123D01*
Y268170D01*
Y268107D01*
X171830Y268047D01*
X171845Y267949D01*
X171865Y267865D01*
X171889Y267796D01*
X171914Y267747D01*
X171934Y267713D01*
X171949Y267688D01*
X171953Y267683D01*
X172008Y267639D01*
X172076Y267605D01*
X172155Y267580D01*
X172229Y267560D01*
X172298Y267550D01*
X172357Y267546D01*
X172381Y267541D01*
X172411D01*
Y267369D01*
X168583D01*
X168327Y268903D01*
X168509D01*
X168554Y268780D01*
X168608Y268663D01*
X168657Y268554D01*
X168711Y268456D01*
X168760Y268367D01*
X168815Y268288D01*
X168864Y268220D01*
X168913Y268156D01*
X168962Y268097D01*
X169001Y268052D01*
X169041Y268013D01*
X169075Y267979D01*
X169100Y267954D01*
X169120Y267939D01*
X169134Y267929D01*
X169139Y267924D01*
X169218Y267875D01*
X169297Y267831D01*
X169385Y267796D01*
X169474Y267762D01*
X169567Y267738D01*
X169661Y267713D01*
X169838Y267678D01*
X169922Y267669D01*
X170000Y267659D01*
X170069Y267654D01*
X170128Y267649D01*
X170177Y267644D01*
X170305D01*
X170359Y267649D01*
X170404Y267654D01*
X170448Y267659D01*
X170522Y267669D01*
X170576Y267688D01*
X170615Y267703D01*
X170645Y267713D01*
X170659Y267723D01*
X170664Y267728D01*
X170679Y267747D01*
X170694Y267772D01*
X170719Y267836D01*
X170733Y267915D01*
X170748Y267993D01*
X170753Y268067D01*
X170758Y268131D01*
Y268156D01*
Y268175D01*
Y268185D01*
Y268190D01*
Y271123D01*
Y271186D01*
X170753Y271246D01*
X170743Y271300D01*
X170738Y271349D01*
X170728Y271393D01*
X170714Y271432D01*
X170689Y271496D01*
X170669Y271541D01*
X170645Y271570D01*
X170630Y271590D01*
X170625Y271595D01*
X170596Y271615D01*
X170561Y271634D01*
X170482Y271664D01*
X170394Y271683D01*
X170305Y271698D01*
X170222Y271708D01*
X170182Y271713D01*
X170148D01*
X170123Y271718D01*
X170084D01*
Y271885D01*
X172406D01*
Y271718D01*
D02*
G37*
G36*
X162975D02*
X162861Y271708D01*
X162768Y271688D01*
X162689Y271664D01*
X162625Y271639D01*
X162581Y271609D01*
X162546Y271590D01*
X162527Y271575D01*
X162522Y271570D01*
X162478Y271516D01*
X162448Y271447D01*
X162423Y271373D01*
X162409Y271300D01*
X162399Y271231D01*
X162394Y271177D01*
Y271152D01*
Y271137D01*
Y271127D01*
Y271123D01*
Y268170D01*
Y268107D01*
X162399Y268047D01*
X162414Y267949D01*
X162433Y267865D01*
X162458Y267796D01*
X162483Y267747D01*
X162502Y267713D01*
X162517Y267688D01*
X162522Y267683D01*
X162576Y267639D01*
X162645Y267605D01*
X162724Y267580D01*
X162797Y267560D01*
X162866Y267550D01*
X162925Y267546D01*
X162950Y267541D01*
X162979D01*
Y267369D01*
X159152D01*
X158896Y268903D01*
X159078D01*
X159122Y268780D01*
X159176Y268663D01*
X159225Y268554D01*
X159280Y268456D01*
X159329Y268367D01*
X159383Y268288D01*
X159432Y268220D01*
X159481Y268156D01*
X159530Y268097D01*
X159570Y268052D01*
X159609Y268013D01*
X159644Y267979D01*
X159668Y267954D01*
X159688Y267939D01*
X159703Y267929D01*
X159708Y267924D01*
X159786Y267875D01*
X159865Y267831D01*
X159954Y267796D01*
X160042Y267762D01*
X160136Y267738D01*
X160229Y267713D01*
X160406Y267678D01*
X160490Y267669D01*
X160569Y267659D01*
X160637Y267654D01*
X160696Y267649D01*
X160746Y267644D01*
X160874D01*
X160928Y267649D01*
X160972Y267654D01*
X161016Y267659D01*
X161090Y267669D01*
X161144Y267688D01*
X161184Y267703D01*
X161213Y267713D01*
X161228Y267723D01*
X161233Y267728D01*
X161248Y267747D01*
X161262Y267772D01*
X161287Y267836D01*
X161302Y267915D01*
X161316Y267993D01*
X161321Y268067D01*
X161326Y268131D01*
Y268156D01*
Y268175D01*
Y268185D01*
Y268190D01*
Y271123D01*
Y271186D01*
X161321Y271246D01*
X161311Y271300D01*
X161307Y271349D01*
X161297Y271393D01*
X161282Y271432D01*
X161257Y271496D01*
X161238Y271541D01*
X161213Y271570D01*
X161198Y271590D01*
X161193Y271595D01*
X161164Y271615D01*
X161129Y271634D01*
X161051Y271664D01*
X160962Y271683D01*
X160874Y271698D01*
X160790Y271708D01*
X160751Y271713D01*
X160716D01*
X160692Y271718D01*
X160652D01*
Y271885D01*
X162975D01*
Y271718D01*
D02*
G37*
G36*
X158773D02*
X158709Y271713D01*
X158650Y271708D01*
X158596Y271703D01*
X158546Y271693D01*
X158463Y271678D01*
X158399Y271654D01*
X158350Y271634D01*
X158315Y271619D01*
X158296Y271605D01*
X158291Y271600D01*
X158246Y271555D01*
X158217Y271496D01*
X158192Y271427D01*
X158177Y271363D01*
X158168Y271304D01*
X158163Y271255D01*
Y271236D01*
Y271221D01*
Y271211D01*
Y271206D01*
Y268111D01*
X158168Y268008D01*
X158182Y267915D01*
X158202Y267846D01*
X158227Y267787D01*
X158251Y267742D01*
X158271Y267713D01*
X158286Y267693D01*
X158291Y267688D01*
X158315Y267669D01*
X158350Y267649D01*
X158419Y267619D01*
X158497Y267590D01*
X158581Y267570D01*
X158655Y267555D01*
X158714Y267546D01*
X158738D01*
X158758Y267541D01*
X158773D01*
Y267369D01*
X156470D01*
Y267541D01*
X156534Y267546D01*
X156598Y267555D01*
X156652Y267565D01*
X156702Y267575D01*
X156751Y267590D01*
X156790Y267600D01*
X156859Y267624D01*
X156908Y267649D01*
X156942Y267669D01*
X156962Y267683D01*
X156967Y267688D01*
X156992Y267713D01*
X157011Y267742D01*
X157041Y267806D01*
X157065Y267880D01*
X157080Y267959D01*
X157090Y268028D01*
X157095Y268082D01*
Y268107D01*
Y268121D01*
Y268131D01*
Y268136D01*
Y271206D01*
X157090Y271304D01*
X157075Y271388D01*
X157056Y271457D01*
X157036Y271511D01*
X157016Y271550D01*
X156997Y271575D01*
X156982Y271590D01*
X156977Y271595D01*
X156952Y271615D01*
X156923Y271629D01*
X156849Y271659D01*
X156770Y271678D01*
X156687Y271693D01*
X156608Y271708D01*
X156573D01*
X156544Y271713D01*
X156519Y271718D01*
X156485D01*
Y271885D01*
X158773D01*
Y271718D01*
D02*
G37*
G36*
X143255Y271718D02*
X143191Y271713D01*
X143132Y271708D01*
X143078Y271703D01*
X143029Y271693D01*
X142945Y271678D01*
X142881Y271654D01*
X142832Y271634D01*
X142798Y271619D01*
X142778Y271605D01*
X142773Y271600D01*
X142729Y271555D01*
X142699Y271496D01*
X142675Y271427D01*
X142660Y271363D01*
X142650Y271304D01*
X142645Y271255D01*
Y271236D01*
Y271221D01*
Y271211D01*
Y271206D01*
Y268111D01*
X142650Y268008D01*
X142665Y267915D01*
X142684Y267846D01*
X142709Y267787D01*
X142734Y267742D01*
X142753Y267713D01*
X142768Y267693D01*
X142773Y267688D01*
X142798Y267669D01*
X142832Y267649D01*
X142901Y267619D01*
X142980Y267590D01*
X143063Y267570D01*
X143137Y267555D01*
X143196Y267546D01*
X143221D01*
X143240Y267541D01*
X143255D01*
Y267369D01*
X140953D01*
Y267541D01*
X141016Y267546D01*
X141080Y267555D01*
X141135Y267565D01*
X141184Y267575D01*
X141233Y267590D01*
X141272Y267600D01*
X141341Y267624D01*
X141390Y267649D01*
X141425Y267669D01*
X141445Y267683D01*
X141449Y267688D01*
X141474Y267713D01*
X141494Y267742D01*
X141523Y267806D01*
X141548Y267880D01*
X141563Y267959D01*
X141572Y268028D01*
X141577Y268082D01*
Y268107D01*
Y268121D01*
Y268131D01*
Y268136D01*
Y271206D01*
X141572Y271304D01*
X141558Y271388D01*
X141538Y271457D01*
X141518Y271511D01*
X141499Y271550D01*
X141479Y271575D01*
X141464Y271590D01*
X141459Y271595D01*
X141435Y271614D01*
X141405Y271629D01*
X141331Y271659D01*
X141253Y271678D01*
X141169Y271693D01*
X141090Y271708D01*
X141056D01*
X141026Y271713D01*
X141002Y271718D01*
X140967D01*
Y271885D01*
X143255D01*
Y271718D01*
D02*
G37*
G36*
X135782D02*
X135718Y271713D01*
X135659Y271708D01*
X135605Y271703D01*
X135555Y271693D01*
X135472Y271678D01*
X135408Y271654D01*
X135359Y271634D01*
X135324Y271619D01*
X135304Y271605D01*
X135300Y271600D01*
X135255Y271555D01*
X135226Y271496D01*
X135201Y271427D01*
X135186Y271363D01*
X135177Y271304D01*
X135171Y271255D01*
Y271236D01*
Y271221D01*
Y271211D01*
Y271206D01*
Y268111D01*
X135177Y268008D01*
X135191Y267915D01*
X135211Y267846D01*
X135236Y267787D01*
X135260Y267742D01*
X135280Y267713D01*
X135294Y267693D01*
X135300Y267688D01*
X135324Y267669D01*
X135359Y267649D01*
X135427Y267619D01*
X135506Y267590D01*
X135590Y267570D01*
X135663Y267555D01*
X135723Y267546D01*
X135747D01*
X135767Y267541D01*
X135782D01*
Y267369D01*
X133479D01*
Y267541D01*
X133543Y267546D01*
X133607Y267555D01*
X133661Y267565D01*
X133710Y267575D01*
X133759Y267590D01*
X133799Y267600D01*
X133868Y267624D01*
X133917Y267649D01*
X133951Y267669D01*
X133971Y267683D01*
X133976Y267688D01*
X134001Y267713D01*
X134020Y267742D01*
X134050Y267806D01*
X134074Y267880D01*
X134089Y267959D01*
X134099Y268028D01*
X134104Y268082D01*
Y268107D01*
Y268121D01*
Y268131D01*
Y268136D01*
Y271206D01*
X134099Y271304D01*
X134084Y271388D01*
X134064Y271457D01*
X134045Y271511D01*
X134025Y271550D01*
X134005Y271575D01*
X133991Y271590D01*
X133986Y271595D01*
X133961Y271614D01*
X133932Y271629D01*
X133858Y271659D01*
X133779Y271678D01*
X133695Y271693D01*
X133617Y271708D01*
X133582D01*
X133553Y271713D01*
X133528Y271718D01*
X133494D01*
Y271885D01*
X135782D01*
Y271718D01*
D02*
G37*
G36*
X165872Y271984D02*
X166030Y271964D01*
X166173Y271944D01*
X166241Y271929D01*
X166300Y271915D01*
X166359Y271900D01*
X166409Y271890D01*
X166453Y271875D01*
X166492Y271865D01*
X166522Y271855D01*
X166542Y271846D01*
X166556Y271841D01*
X166561D01*
X166704Y271782D01*
X166842Y271713D01*
X166960Y271644D01*
X167063Y271575D01*
X167112Y271546D01*
X167151Y271516D01*
X167186Y271492D01*
X167216Y271467D01*
X167240Y271447D01*
X167255Y271432D01*
X167265Y271427D01*
X167270Y271423D01*
X167407Y271290D01*
X167525Y271147D01*
X167629Y271014D01*
X167712Y270886D01*
X167747Y270827D01*
X167776Y270778D01*
X167801Y270729D01*
X167821Y270690D01*
X167840Y270655D01*
X167850Y270631D01*
X167855Y270616D01*
X167860Y270611D01*
X167929Y270439D01*
X167978Y270262D01*
X168012Y270099D01*
X168027Y270020D01*
X168037Y269947D01*
X168047Y269878D01*
X168052Y269814D01*
X168057Y269760D01*
Y269710D01*
X168062Y269676D01*
Y269647D01*
Y269627D01*
Y269622D01*
X168052Y269430D01*
X168032Y269253D01*
X168017Y269169D01*
X168003Y269091D01*
X167988Y269017D01*
X167968Y268948D01*
X167954Y268884D01*
X167939Y268825D01*
X167924Y268776D01*
X167909Y268736D01*
X167894Y268702D01*
X167889Y268677D01*
X167880Y268663D01*
Y268657D01*
X167806Y268495D01*
X167722Y268353D01*
X167634Y268220D01*
X167589Y268161D01*
X167550Y268107D01*
X167511Y268057D01*
X167471Y268013D01*
X167437Y267974D01*
X167407Y267944D01*
X167388Y267919D01*
X167368Y267900D01*
X167358Y267890D01*
X167353Y267885D01*
X167230Y267777D01*
X167102Y267683D01*
X166979Y267600D01*
X166866Y267536D01*
X166812Y267506D01*
X166768Y267482D01*
X166724Y267462D01*
X166689Y267447D01*
X166659Y267432D01*
X166640Y267427D01*
X166625Y267418D01*
X166620D01*
X166468Y267364D01*
X166310Y267329D01*
X166167Y267300D01*
X166035Y267280D01*
X165976Y267275D01*
X165921Y267270D01*
X165872Y267265D01*
X165833D01*
X165798Y267260D01*
X165754D01*
X165587Y267265D01*
X165429Y267285D01*
X165282Y267309D01*
X165218Y267319D01*
X165154Y267334D01*
X165100Y267349D01*
X165051Y267364D01*
X165006Y267373D01*
X164967Y267383D01*
X164937Y267393D01*
X164918Y267403D01*
X164903Y267408D01*
X164898D01*
X164751Y267467D01*
X164613Y267536D01*
X164495Y267605D01*
X164391Y267673D01*
X164347Y267703D01*
X164308Y267733D01*
X164273Y267757D01*
X164244Y267782D01*
X164219Y267801D01*
X164205Y267816D01*
X164195Y267821D01*
X164190Y267826D01*
X164052Y267959D01*
X163934Y268097D01*
X163830Y268230D01*
X163747Y268357D01*
X163713Y268411D01*
X163683Y268466D01*
X163658Y268510D01*
X163639Y268549D01*
X163619Y268584D01*
X163609Y268608D01*
X163599Y268623D01*
Y268628D01*
X163530Y268805D01*
X163481Y268977D01*
X163442Y269145D01*
X163427Y269223D01*
X163417Y269297D01*
X163407Y269366D01*
X163402Y269430D01*
X163398Y269484D01*
Y269533D01*
X163393Y269568D01*
Y269597D01*
Y269617D01*
Y269622D01*
X163402Y269814D01*
X163422Y269991D01*
X163437Y270075D01*
X163452Y270153D01*
X163467Y270227D01*
X163486Y270296D01*
X163506Y270360D01*
X163521Y270414D01*
X163535Y270463D01*
X163550Y270502D01*
X163560Y270537D01*
X163570Y270562D01*
X163580Y270576D01*
Y270581D01*
X163653Y270744D01*
X163742Y270891D01*
X163830Y271024D01*
X163875Y271083D01*
X163914Y271137D01*
X163959Y271186D01*
X163993Y271231D01*
X164027Y271270D01*
X164057Y271304D01*
X164082Y271329D01*
X164101Y271349D01*
X164111Y271359D01*
X164116Y271363D01*
X164239Y271472D01*
X164367Y271565D01*
X164490Y271644D01*
X164603Y271708D01*
X164652Y271738D01*
X164701Y271762D01*
X164741Y271782D01*
X164775Y271796D01*
X164805Y271811D01*
X164824Y271821D01*
X164839Y271826D01*
X164844D01*
X164997Y271880D01*
X165149Y271919D01*
X165292Y271949D01*
X165425Y271969D01*
X165484Y271974D01*
X165538Y271978D01*
X165587Y271984D01*
X165626Y271988D01*
X165705D01*
X165872Y271984D01*
D02*
G37*
G36*
X152997Y265799D02*
X149666D01*
Y266463D01*
X152997D01*
Y265799D01*
D02*
G37*
G36*
X134376Y261939D02*
X137693D01*
X137487Y261665D01*
X137398Y261684D01*
X137313Y261699D01*
X137232Y261710D01*
X137162Y261717D01*
X137099Y261721D01*
X137073Y261724D01*
X134771D01*
Y261540D01*
Y261367D01*
Y261204D01*
X134774Y261053D01*
Y260913D01*
X134778Y260787D01*
Y260673D01*
Y260570D01*
X134782Y260477D01*
Y260396D01*
X134786Y260330D01*
Y260274D01*
X134789Y260237D01*
X134605D01*
X134789Y260175D01*
Y260182D01*
Y260201D01*
Y260230D01*
X134789Y260237D01*
X137845D01*
X137638Y259964D01*
X137549Y259983D01*
X137465Y259998D01*
X137387Y260009D01*
X137313Y260016D01*
X137254Y260020D01*
X137228Y260023D01*
X134693D01*
Y258352D01*
X134697Y258333D01*
X134701Y258319D01*
X134723Y258296D01*
X134756Y258278D01*
X134793Y258267D01*
X134830Y258260D01*
X134863Y258256D01*
X134893D01*
X134933Y258260D01*
X134974D01*
X135066Y258267D01*
X135166Y258274D01*
X135258Y258285D01*
X135302Y258289D01*
X135343Y258293D01*
X135380Y258296D01*
X135413Y258300D01*
X135439Y258304D01*
X135457Y258308D01*
X135476D01*
Y258145D01*
X135369Y258112D01*
X135273Y258079D01*
X135188Y258042D01*
X135118Y258009D01*
X135059Y257972D01*
X135007Y257939D01*
X134963Y257905D01*
X134930Y257872D01*
X134900Y257843D01*
X134881Y257813D01*
X134863Y257791D01*
X134852Y257769D01*
X134848Y257750D01*
X134845Y257739D01*
X134841Y257732D01*
Y257728D01*
X134749Y257761D01*
X134668Y257798D01*
X134601Y257835D01*
X134549Y257872D01*
X134509Y257905D01*
X134479Y257931D01*
X134461Y257946D01*
X134457Y257953D01*
X134417Y258005D01*
X134387Y258060D01*
X134369Y258116D01*
X134354Y258164D01*
X134346Y258208D01*
X134339Y258245D01*
Y258267D01*
Y258271D01*
Y258274D01*
Y260023D01*
X133424D01*
X133837Y260488D01*
X134110Y260237D01*
X134605D01*
X134398Y260308D01*
X134402Y260392D01*
X134406Y260488D01*
Y260595D01*
X134409Y260706D01*
Y260824D01*
X134413Y260942D01*
Y261060D01*
Y261175D01*
X134417Y261285D01*
Y261389D01*
Y261481D01*
Y261562D01*
Y261599D01*
Y261629D01*
Y261658D01*
Y261680D01*
Y261699D01*
Y261713D01*
Y261721D01*
Y261724D01*
X133730D01*
X134125Y262171D01*
X134376Y261939D01*
D02*
G37*
G36*
X145365Y262267D02*
X145369Y262219D01*
X145376Y262163D01*
X145387Y262108D01*
X145416Y261983D01*
X145450Y261857D01*
X145465Y261798D01*
X145483Y261743D01*
X145498Y261691D01*
X145509Y261647D01*
X145524Y261610D01*
X145531Y261584D01*
X145535Y261566D01*
X145538Y261558D01*
X145889D01*
X146221Y261713D01*
X146213Y261455D01*
X146210Y261193D01*
Y261068D01*
X146206Y260942D01*
Y260824D01*
Y260713D01*
X146203Y260610D01*
Y260518D01*
Y260433D01*
Y260363D01*
Y260333D01*
Y260304D01*
Y260282D01*
Y260263D01*
Y260248D01*
Y260237D01*
Y260230D01*
Y260226D01*
Y260075D01*
Y259920D01*
X146206Y259610D01*
Y259455D01*
X146210Y259308D01*
Y259167D01*
Y259031D01*
X146213Y258905D01*
Y258791D01*
X146217Y258691D01*
Y258647D01*
Y258603D01*
Y258566D01*
X146221Y258533D01*
Y258503D01*
Y258481D01*
Y258463D01*
Y258448D01*
Y258444D01*
X146210Y258440D01*
X145852Y258547D01*
Y258802D01*
X144328D01*
Y258496D01*
X143959Y258647D01*
X143963Y258721D01*
X143966Y258802D01*
X143970Y258964D01*
X143974Y259134D01*
Y259215D01*
Y259293D01*
X143977Y259366D01*
Y259433D01*
Y259496D01*
Y259547D01*
Y259592D01*
Y259625D01*
Y259643D01*
Y259651D01*
X143804Y259824D01*
X144195Y260127D01*
X144346Y259913D01*
X145852D01*
Y260462D01*
X144501D01*
Y260252D01*
X144129Y260385D01*
X144132Y260448D01*
X144136Y260518D01*
X144140Y260665D01*
X144147Y260817D01*
Y260891D01*
Y260961D01*
Y261031D01*
X144151Y261093D01*
Y261149D01*
Y261197D01*
Y261237D01*
Y261267D01*
Y261285D01*
Y261293D01*
X143977Y261451D01*
X144365Y261750D01*
X144516Y261558D01*
X145354D01*
X145302Y261614D01*
X145254Y261665D01*
X145214Y261713D01*
X145177Y261754D01*
X145151Y261787D01*
X145129Y261813D01*
X145114Y261828D01*
X145110Y261835D01*
X145070Y261879D01*
X145033Y261920D01*
X144992Y261953D01*
X144955Y261979D01*
X144922Y262001D01*
X144896Y262020D01*
X144881Y262027D01*
X144874Y262031D01*
X145361Y262308D01*
X145365Y262267D01*
D02*
G37*
G36*
X141793Y262219D02*
X141789Y262119D01*
X141786Y262027D01*
X141782Y261946D01*
Y261868D01*
X141778Y261798D01*
Y261736D01*
Y261684D01*
X141774Y261632D01*
Y261592D01*
Y261558D01*
Y261529D01*
Y261507D01*
Y261492D01*
Y261485D01*
Y261481D01*
X142771D01*
X142564Y261208D01*
X142476Y261226D01*
X142391Y261241D01*
X142309Y261252D01*
X142236Y261260D01*
X142177Y261263D01*
X142151Y261267D01*
X141797D01*
X141867Y261130D01*
X141948Y260998D01*
X142033Y260868D01*
X142121Y260747D01*
X142214Y260629D01*
X142309Y260518D01*
X142402Y260415D01*
X142490Y260322D01*
X142579Y260234D01*
X142660Y260160D01*
X142734Y260093D01*
X142797Y260034D01*
X142848Y259990D01*
X142889Y259957D01*
X142904Y259946D01*
X142915Y259939D01*
X142918Y259931D01*
X142922D01*
X142848Y259813D01*
X142704Y259894D01*
X142571Y259979D01*
X142453Y260060D01*
X142343Y260145D01*
X142247Y260226D01*
X142158Y260304D01*
X142081Y260381D01*
X142011Y260451D01*
X141955Y260518D01*
X141904Y260580D01*
X141863Y260636D01*
X141830Y260680D01*
X141804Y260717D01*
X141789Y260747D01*
X141778Y260761D01*
X141774Y260769D01*
Y260706D01*
Y260632D01*
X141778Y260555D01*
Y260473D01*
X141782Y260300D01*
X141786Y260127D01*
X141789Y260042D01*
Y259968D01*
X141793Y259898D01*
Y259839D01*
Y259787D01*
X141797Y259750D01*
Y259735D01*
Y259724D01*
Y259721D01*
Y259717D01*
X141387Y259868D01*
X141391Y259939D01*
X141394Y260016D01*
Y260101D01*
X141398Y260189D01*
X141402Y260374D01*
Y260462D01*
Y260555D01*
X141405Y260640D01*
Y260721D01*
Y260791D01*
Y260854D01*
Y260905D01*
Y260946D01*
Y260961D01*
Y260972D01*
Y260975D01*
Y260979D01*
X141354Y260913D01*
X141302Y260839D01*
X141254Y260769D01*
X141210Y260702D01*
X141173Y260647D01*
X141158Y260621D01*
X141144Y260599D01*
X141132Y260584D01*
X141125Y260570D01*
X141118Y260562D01*
Y260558D01*
X141092Y260514D01*
X141062Y260481D01*
X141036Y260459D01*
X141011Y260444D01*
X140992Y260433D01*
X140974Y260429D01*
X140963Y260426D01*
X140959D01*
X140933Y260429D01*
X140911Y260444D01*
X140889Y260466D01*
X140870Y260488D01*
X140859Y260510D01*
X140848Y260533D01*
X140845Y260547D01*
X140841Y260551D01*
X140826Y260595D01*
X140811Y260636D01*
X140804Y260665D01*
X140800Y260695D01*
X140797Y260717D01*
X140793Y260732D01*
Y260739D01*
Y260743D01*
X140797Y260784D01*
X140811Y260824D01*
X140826Y260861D01*
X140848Y260891D01*
X140867Y260916D01*
X140885Y260935D01*
X140900Y260949D01*
X140904Y260953D01*
X140926Y260972D01*
X140955Y260990D01*
X140989Y261009D01*
X141025Y261027D01*
X141110Y261064D01*
X141195Y261093D01*
X141276Y261119D01*
X141309Y261130D01*
X141343Y261141D01*
X141369Y261149D01*
X141387Y261156D01*
X141402Y261160D01*
X141405D01*
Y261267D01*
X140697D01*
X141073Y261695D01*
X141306Y261481D01*
X141405D01*
Y261902D01*
X141232Y262071D01*
X141797Y262326D01*
X141793Y262219D01*
D02*
G37*
G36*
X140110Y262186D02*
X140107Y262079D01*
Y261983D01*
X140103Y261894D01*
Y261820D01*
X140099Y261750D01*
Y261695D01*
Y261643D01*
X140095Y261603D01*
Y261566D01*
Y261536D01*
Y261518D01*
Y261499D01*
Y261488D01*
Y261485D01*
Y261481D01*
X140782D01*
X140594Y261226D01*
X140398Y261267D01*
X140169D01*
X140225Y261149D01*
X140287Y261038D01*
X140354Y260931D01*
X140424Y260828D01*
X140498Y260732D01*
X140571Y260640D01*
X140645Y260555D01*
X140715Y260477D01*
X140782Y260407D01*
X140845Y260344D01*
X140904Y260289D01*
X140952Y260245D01*
X140992Y260208D01*
X141025Y260182D01*
X141044Y260167D01*
X141051Y260160D01*
X141011Y260095D01*
X140960Y260051D01*
X140870Y260101D01*
X140771Y260164D01*
X140679Y260226D01*
X140594Y260293D01*
X140513Y260359D01*
X140439Y260429D01*
X140376Y260492D01*
X140317Y260555D01*
X140265Y260617D01*
X140221Y260669D01*
X140180Y260721D01*
X140151Y260761D01*
X140125Y260798D01*
X140110Y260824D01*
X140099Y260839D01*
X140095Y260846D01*
Y260776D01*
Y260699D01*
Y260614D01*
X140099Y260529D01*
X140103Y260348D01*
Y260256D01*
Y260167D01*
X140107Y260086D01*
Y260009D01*
X140110Y259939D01*
Y259876D01*
X140114Y259824D01*
Y259787D01*
Y259772D01*
Y259761D01*
Y259758D01*
Y259754D01*
X139704Y259909D01*
X139712Y260042D01*
X139716Y260175D01*
X139719Y260300D01*
Y260359D01*
Y260418D01*
X139723Y260470D01*
Y260518D01*
Y260558D01*
Y260595D01*
Y260625D01*
Y260647D01*
Y260662D01*
Y260665D01*
Y261267D01*
X139686Y261127D01*
X139634Y260994D01*
X139579Y260872D01*
X139513Y260754D01*
X139442Y260647D01*
X139369Y260547D01*
X139295Y260459D01*
X139221Y260378D01*
X139147Y260304D01*
X139081Y260241D01*
X139014Y260186D01*
X138959Y260141D01*
X138915Y260104D01*
X138878Y260082D01*
X138856Y260064D01*
X138852Y260060D01*
X138848D01*
X138833Y260090D01*
X138811Y260119D01*
X138786Y260141D01*
X138756Y260164D01*
X138690Y260197D01*
X138619Y260223D01*
X138553Y260241D01*
X138524Y260245D01*
X138498Y260248D01*
X138476Y260252D01*
X138457Y260256D01*
X138442D01*
Y260396D01*
X138590Y260451D01*
X138730Y260510D01*
X138856Y260577D01*
X138977Y260647D01*
X139084Y260717D01*
X139184Y260791D01*
X139273Y260861D01*
X139350Y260931D01*
X139420Y261001D01*
X139479Y261064D01*
X139531Y261119D01*
X139571Y261167D01*
X139605Y261211D01*
X139627Y261241D01*
X139642Y261260D01*
X139645Y261267D01*
X138575D01*
X138974Y261713D01*
X139225Y261481D01*
X139723D01*
Y261898D01*
X139531Y262049D01*
X140114Y262304D01*
X140110Y262186D01*
D02*
G37*
G36*
X147579Y261998D02*
X147535Y261927D01*
X147494Y261861D01*
X147457Y261798D01*
X147424Y261739D01*
X147391Y261680D01*
X147365Y261629D01*
X147343Y261577D01*
X147320Y261533D01*
X147306Y261492D01*
X147291Y261455D01*
X147280Y261422D01*
X147269Y261396D01*
X147262Y261378D01*
X147258Y261359D01*
X147254Y261352D01*
Y261348D01*
X147239Y261300D01*
X147225Y261256D01*
X147210Y261219D01*
X147195Y261189D01*
X147180Y261160D01*
X147166Y261138D01*
X147151Y261119D01*
X147136Y261104D01*
X147110Y261086D01*
X147088Y261075D01*
X147073Y261071D01*
X147070D01*
X147044Y261075D01*
X147018Y261086D01*
X146996Y261101D01*
X146970Y261119D01*
X146948Y261134D01*
X146933Y261149D01*
X146922Y261160D01*
X146918Y261164D01*
X146889Y261200D01*
X146867Y261245D01*
X146848Y261293D01*
X146837Y261337D01*
X146830Y261378D01*
X146826Y261411D01*
Y261433D01*
Y261437D01*
Y261440D01*
X146830Y261473D01*
X146834Y261507D01*
X146856Y261569D01*
X146885Y261625D01*
X146918Y261673D01*
X146951Y261710D01*
X146981Y261739D01*
X147003Y261758D01*
X147007Y261765D01*
X147011D01*
X147081Y261820D01*
X147158Y261876D01*
X147236Y261927D01*
X147310Y261975D01*
X147372Y262016D01*
X147402Y262031D01*
X147424Y262046D01*
X147446Y262060D01*
X147461Y262068D01*
X147468Y262075D01*
X147472D01*
X147579Y261998D01*
D02*
G37*
G36*
X135756Y261440D02*
X136616D01*
X136966Y261595D01*
X136959Y261466D01*
X136955Y261344D01*
Y261289D01*
X136952Y261237D01*
Y261186D01*
Y261141D01*
X136948Y261101D01*
Y261068D01*
Y261034D01*
Y261009D01*
Y260990D01*
Y260972D01*
Y260964D01*
Y260961D01*
Y260857D01*
X136952Y260750D01*
X136955Y260647D01*
Y260551D01*
X136959Y260507D01*
Y260466D01*
X136963Y260433D01*
Y260403D01*
X136966Y260378D01*
Y260359D01*
Y260348D01*
Y260344D01*
X136575Y260433D01*
Y260577D01*
X135764D01*
Y260403D01*
X135391Y260536D01*
X135398Y260662D01*
X135402Y260784D01*
X135409Y260891D01*
Y260939D01*
Y260986D01*
Y261027D01*
X135413Y261064D01*
Y261097D01*
Y261123D01*
Y261145D01*
Y261160D01*
Y261171D01*
Y261175D01*
X135258Y261333D01*
X135583Y261614D01*
X135756Y261440D01*
D02*
G37*
G36*
X147191Y260544D02*
X147981D01*
X147771Y260271D01*
X147686Y260289D01*
X147612Y260304D01*
X147549Y260315D01*
X147494Y260322D01*
X147453Y260326D01*
X147420Y260330D01*
X147195D01*
Y258879D01*
X147350Y258806D01*
X147494Y258724D01*
X147560Y258684D01*
X147627Y258640D01*
X147689Y258599D01*
X147745Y258558D01*
X147797Y258522D01*
X147841Y258485D01*
X147881Y258455D01*
X147918Y258429D01*
X147944Y258403D01*
X147963Y258389D01*
X147977Y258378D01*
X147981Y258374D01*
X147645Y258057D01*
X147597Y258134D01*
X147542Y258212D01*
X147487Y258285D01*
X147435Y258348D01*
X147387Y258403D01*
X147369Y258429D01*
X147350Y258448D01*
X147335Y258463D01*
X147324Y258473D01*
X147320Y258481D01*
X147317Y258485D01*
X147280Y258522D01*
X147243Y258555D01*
X147213Y258584D01*
X147184Y258610D01*
X147158Y258629D01*
X147136Y258647D01*
X147096Y258673D01*
X147066Y258688D01*
X147047Y258691D01*
X147036Y258695D01*
X147033D01*
X147018Y258691D01*
X147000Y258684D01*
X146977Y258669D01*
X146955Y258654D01*
X146907Y258614D01*
X146859Y258570D01*
X146815Y258525D01*
X146778Y258488D01*
X146763Y258473D01*
X146752Y258463D01*
X146749Y258455D01*
X146745Y258451D01*
X146653Y258363D01*
X146553Y258285D01*
X146453Y258223D01*
X146365Y258171D01*
X146321Y258149D01*
X146284Y258130D01*
X146250Y258116D01*
X146221Y258101D01*
X146195Y258090D01*
X146177Y258086D01*
X146166Y258079D01*
X146162D01*
X146096Y258057D01*
X146025Y258038D01*
X145874Y258005D01*
X145723Y257979D01*
X145649Y257968D01*
X145579Y257957D01*
X145509Y257950D01*
X145450Y257942D01*
X145394Y257935D01*
X145343Y257931D01*
X145306Y257927D01*
X145276D01*
X145258Y257924D01*
X145250D01*
X145140Y257916D01*
X145025Y257909D01*
X144904Y257905D01*
X144782Y257902D01*
X144538Y257894D01*
X144420Y257891D01*
X144306Y257887D01*
X144103D01*
X144014Y257883D01*
X143789D01*
X143782Y257931D01*
X143767Y257972D01*
X143749Y258009D01*
X143723Y258046D01*
X143693Y258075D01*
X143660Y258101D01*
X143590Y258145D01*
X143524Y258178D01*
X143490Y258189D01*
X143465Y258201D01*
X143439Y258208D01*
X143420Y258212D01*
X143409Y258215D01*
X143405D01*
Y258385D01*
X143597Y258363D01*
X143782Y258348D01*
X143959Y258333D01*
X144129Y258322D01*
X144287Y258311D01*
X144439Y258304D01*
X144583Y258300D01*
X144712Y258296D01*
X144830Y258293D01*
X144937D01*
X145025Y258289D01*
X145103D01*
X145136Y258293D01*
X145247D01*
X145394Y258300D01*
X145527Y258311D01*
X145653Y258322D01*
X145767Y258337D01*
X145867Y258355D01*
X145959Y258374D01*
X146044Y258392D01*
X146114Y258411D01*
X146180Y258429D01*
X146210Y258440D01*
X146221Y258437D01*
Y258440D01*
Y258444D01*
X146232Y258448D01*
X146276Y258463D01*
X146313Y258477D01*
X146343Y258488D01*
X146361Y258499D01*
X146372Y258503D01*
X146376Y258507D01*
X146431Y258544D01*
X146487Y258577D01*
X146535Y258610D01*
X146582Y258643D01*
X146623Y258673D01*
X146664Y258702D01*
X146726Y258758D01*
X146778Y258802D01*
X146815Y258839D01*
X146837Y258861D01*
X146841Y258865D01*
X146844Y258868D01*
Y260278D01*
X146671Y260433D01*
X147040Y260758D01*
X147191Y260544D01*
D02*
G37*
G36*
X141214Y260009D02*
X141328Y259846D01*
X141446Y259691D01*
X141575Y259544D01*
X141704Y259403D01*
X141833Y259274D01*
X141963Y259156D01*
X142088Y259049D01*
X142206Y258950D01*
X142317Y258865D01*
X142417Y258791D01*
X142461Y258758D01*
X142505Y258732D01*
X142542Y258706D01*
X142575Y258680D01*
X142605Y258662D01*
X142631Y258647D01*
X142649Y258632D01*
X142664Y258625D01*
X142671Y258621D01*
X142675Y258617D01*
X142605Y258492D01*
X142468Y258547D01*
X142335Y258614D01*
X142202Y258688D01*
X142070Y258765D01*
X141944Y258846D01*
X141822Y258927D01*
X141704Y259012D01*
X141597Y259093D01*
X141548Y259132D01*
X141605Y259193D01*
X141509Y259304D01*
X141505Y259300D01*
X141487Y259296D01*
X141464Y259285D01*
X141435Y259271D01*
X141398Y259252D01*
X141397Y259252D01*
X141324Y259315D01*
X141258Y259370D01*
X141202Y259422D01*
X141180Y259440D01*
X141162Y259459D01*
X141147Y259470D01*
X141136Y259481D01*
X141132Y259485D01*
X141129Y259488D01*
X139616D01*
X139701Y259378D01*
X139789Y259271D01*
X139882Y259171D01*
X139977Y259075D01*
X140077Y258983D01*
X140177Y258902D01*
X140273Y258824D01*
X140365Y258754D01*
X140453Y258688D01*
X140535Y258632D01*
X140608Y258584D01*
X140671Y258544D01*
X140723Y258510D01*
X140763Y258488D01*
X140778Y258481D01*
X140789Y258473D01*
X140793Y258470D01*
X140797D01*
X140944Y258396D01*
X141103Y258326D01*
X141269Y258263D01*
X141439Y258204D01*
X141616Y258149D01*
X141789Y258101D01*
X141959Y258057D01*
X142121Y258020D01*
X142280Y257986D01*
X142424Y257957D01*
X142490Y257946D01*
X142553Y257935D01*
X142612Y257924D01*
X142664Y257913D01*
X142712Y257905D01*
X142756Y257898D01*
X142793Y257894D01*
X142826Y257887D01*
X142852Y257883D01*
X142870D01*
X142882Y257879D01*
X142885D01*
X142856Y257710D01*
X142712Y257721D01*
X142571Y257736D01*
X142435Y257750D01*
X142306Y257769D01*
X142180Y257784D01*
X142059Y257802D01*
X141940Y257824D01*
X141830Y257846D01*
X141719Y257865D01*
X141620Y257887D01*
X141520Y257909D01*
X141428Y257935D01*
X141335Y257957D01*
X141254Y257979D01*
X141173Y258001D01*
X141099Y258027D01*
X141025Y258049D01*
X140963Y258071D01*
X140900Y258090D01*
X140845Y258112D01*
X140789Y258130D01*
X140741Y258149D01*
X140701Y258167D01*
X140660Y258186D01*
X140627Y258201D01*
X140597Y258212D01*
X140571Y258223D01*
X140553Y258234D01*
X140535Y258241D01*
X140524Y258248D01*
X140520Y258252D01*
X140516D01*
X140372Y258333D01*
X140239Y258422D01*
X140110Y258514D01*
X139989Y258606D01*
X139874Y258702D01*
X139767Y258795D01*
X139667Y258887D01*
X139579Y258975D01*
X139498Y259060D01*
X139428Y259138D01*
X139369Y259204D01*
X139317Y259263D01*
X139276Y259315D01*
X139247Y259352D01*
X139239Y259363D01*
X139232Y259374D01*
X139225Y259378D01*
Y259381D01*
X139014Y259503D01*
X139394Y259894D01*
X139605Y259702D01*
X141003D01*
X140948Y259728D01*
X140893Y259750D01*
X140837Y259769D01*
X140786Y259784D01*
X140745Y259791D01*
X140708Y259798D01*
X140686Y259806D01*
X140679D01*
X140960Y260051D01*
X140977Y260042D01*
X141011Y260095D01*
X141110Y260182D01*
X141214Y260009D01*
D02*
G37*
G36*
X151431Y261466D02*
X151380Y261455D01*
X151335Y261440D01*
X151298Y261426D01*
X151265Y261411D01*
X151239Y261396D01*
X151217Y261381D01*
X151206Y261374D01*
X151202Y261370D01*
X151165Y261337D01*
X151129Y261296D01*
X151095Y261248D01*
X151062Y261200D01*
X151033Y261156D01*
X151011Y261119D01*
X150999Y261104D01*
X150992Y261093D01*
X150988Y261086D01*
Y261082D01*
X150140Y259536D01*
Y258806D01*
Y258758D01*
X150143Y258713D01*
X150154Y258640D01*
X150169Y258577D01*
X150188Y258525D01*
X150206Y258488D01*
X150221Y258463D01*
X150232Y258448D01*
X150236Y258444D01*
X150254Y258426D01*
X150276Y258411D01*
X150328Y258385D01*
X150383Y258366D01*
X150442Y258352D01*
X150494Y258344D01*
X150538Y258341D01*
X150557Y258337D01*
X150579D01*
Y258208D01*
X148896D01*
Y258337D01*
X148944Y258341D01*
X148985Y258344D01*
X149025Y258352D01*
X149062Y258359D01*
X149125Y258374D01*
X149173Y258392D01*
X149206Y258407D01*
X149232Y258422D01*
X149247Y258433D01*
X149250Y258437D01*
X149265Y258455D01*
X149280Y258481D01*
X149302Y258533D01*
X149317Y258595D01*
X149328Y258654D01*
X149335Y258713D01*
Y258739D01*
X149339Y258761D01*
Y258780D01*
Y258795D01*
Y258802D01*
Y258806D01*
Y259721D01*
X148487Y261119D01*
X148446Y261178D01*
X148409Y261230D01*
X148376Y261274D01*
X148346Y261311D01*
X148320Y261337D01*
X148298Y261355D01*
X148287Y261367D01*
X148284Y261370D01*
X148247Y261396D01*
X148206Y261418D01*
X148169Y261437D01*
X148136Y261448D01*
X148110Y261455D01*
X148084Y261459D01*
X148070Y261462D01*
X148066D01*
Y261595D01*
X149140D01*
Y261462D01*
X149118D01*
X149051Y261459D01*
X148996Y261455D01*
X148948Y261444D01*
X148907Y261433D01*
X148878Y261422D01*
X148856Y261415D01*
X148841Y261407D01*
X148837Y261403D01*
X148804Y261381D01*
X148782Y261355D01*
X148763Y261326D01*
X148752Y261300D01*
X148745Y261274D01*
X148741Y261256D01*
Y261241D01*
Y261237D01*
X148745Y261193D01*
X148756Y261149D01*
X148760Y261130D01*
X148767Y261116D01*
X148771Y261104D01*
Y261101D01*
X148796Y261042D01*
X148822Y260986D01*
X148837Y260961D01*
X148845Y260942D01*
X148852Y260931D01*
X148856Y260927D01*
X149487Y259883D01*
X150114Y261119D01*
X150132Y261156D01*
X150147Y261189D01*
X150158Y261211D01*
X150162Y261215D01*
Y261219D01*
X150169Y261252D01*
X150173Y261278D01*
X150177Y261296D01*
Y261304D01*
X150173Y261333D01*
X150162Y261355D01*
X150151Y261378D01*
X150132Y261392D01*
X150118Y261407D01*
X150107Y261415D01*
X150095Y261422D01*
X150092D01*
X150055Y261437D01*
X150014Y261444D01*
X149970Y261451D01*
X149926Y261459D01*
X149889D01*
X149859Y261462D01*
X149796D01*
Y261595D01*
X151431D01*
Y261466D01*
D02*
G37*
G36*
X141405Y259245D02*
X141498Y259171D01*
X141548Y259132D01*
X141546Y259130D01*
X141490Y259071D01*
X141439Y259012D01*
X141394Y258961D01*
X141354Y258909D01*
X141317Y258857D01*
X141287Y258813D01*
X141258Y258772D01*
X141236Y258735D01*
X141214Y258702D01*
X141199Y258673D01*
X141184Y258647D01*
X141173Y258629D01*
X141166Y258614D01*
X141162Y258606D01*
Y258603D01*
X141147Y258566D01*
X141136Y258536D01*
X141121Y258507D01*
X141107Y258485D01*
X141081Y258448D01*
X141055Y258422D01*
X141033Y258407D01*
X141014Y258400D01*
X141003Y258396D01*
X141000D01*
X140981Y258400D01*
X140959Y258415D01*
X140940Y258433D01*
X140922Y258459D01*
X140904Y258481D01*
X140893Y258499D01*
X140885Y258514D01*
X140882Y258518D01*
X140859Y258562D01*
X140841Y258606D01*
X140830Y258643D01*
X140819Y258673D01*
X140815Y258699D01*
X140811Y258721D01*
Y258732D01*
Y258735D01*
X140815Y258776D01*
X140830Y258820D01*
X140848Y258857D01*
X140867Y258894D01*
X140889Y258927D01*
X140907Y258950D01*
X140922Y258968D01*
X140926Y258972D01*
X140952Y258998D01*
X140985Y259023D01*
X141022Y259049D01*
X141066Y259075D01*
X141162Y259130D01*
X141262Y259186D01*
X141309Y259208D01*
X141354Y259234D01*
X141397Y259252D01*
X141405Y259245D01*
D02*
G37*
G36*
X135775Y259662D02*
X136749D01*
X137099Y259817D01*
X137092Y259669D01*
X137088Y259533D01*
Y259470D01*
X137084Y259407D01*
Y259348D01*
Y259296D01*
X137081Y259248D01*
Y259204D01*
Y259167D01*
Y259134D01*
Y259108D01*
Y259090D01*
Y259079D01*
Y259075D01*
Y258946D01*
X137084Y258817D01*
X137088Y258691D01*
Y258632D01*
Y258581D01*
X137092Y258529D01*
Y258481D01*
X137096Y258440D01*
Y258403D01*
X137099Y258378D01*
Y258355D01*
Y258341D01*
Y258337D01*
X136712Y258466D01*
Y258721D01*
X135764D01*
Y258392D01*
X135391Y258525D01*
X135395Y258584D01*
X135398Y258647D01*
X135402Y258713D01*
Y258784D01*
X135409Y258924D01*
Y259064D01*
Y259127D01*
X135413Y259186D01*
Y259241D01*
Y259285D01*
Y259326D01*
Y259352D01*
Y259370D01*
Y259378D01*
X135240Y259533D01*
X135601Y259835D01*
X135775Y259662D01*
D02*
G37*
G36*
X154509Y261470D02*
X154461D01*
X154420Y261466D01*
X154379Y261459D01*
X154346Y261455D01*
X154284Y261437D01*
X154239Y261418D01*
X154202Y261400D01*
X154180Y261381D01*
X154165Y261370D01*
X154162Y261367D01*
X154147Y261344D01*
X154132Y261318D01*
X154110Y261256D01*
X154092Y261189D01*
X154081Y261119D01*
X154073Y261053D01*
Y261023D01*
X154070Y260998D01*
Y260975D01*
Y260961D01*
Y260949D01*
Y260946D01*
Y258817D01*
Y258769D01*
X154073Y258721D01*
X154077Y258680D01*
X154084Y258643D01*
X154099Y258581D01*
X154114Y258529D01*
X154132Y258488D01*
X154147Y258463D01*
X154158Y258448D01*
X154162Y258444D01*
X154180Y258426D01*
X154202Y258411D01*
X154254Y258389D01*
X154309Y258366D01*
X154368Y258355D01*
X154420Y258344D01*
X154464Y258341D01*
X154483Y258337D01*
X154505D01*
Y258208D01*
X152859D01*
X152745Y258212D01*
X152634Y258219D01*
X152531Y258230D01*
X152439Y258248D01*
X152350Y258267D01*
X152269Y258289D01*
X152195Y258315D01*
X152125Y258337D01*
X152066Y258363D01*
X152014Y258385D01*
X151970Y258407D01*
X151937Y258426D01*
X151907Y258444D01*
X151885Y258455D01*
X151874Y258463D01*
X151870Y258466D01*
X151808Y258518D01*
X151752Y258573D01*
X151704Y258629D01*
X151664Y258688D01*
X151627Y258747D01*
X151601Y258806D01*
X151575Y258865D01*
X151557Y258924D01*
X151542Y258975D01*
X151531Y259027D01*
X151523Y259071D01*
X151516Y259108D01*
Y259141D01*
X151512Y259167D01*
Y259182D01*
Y259186D01*
X151516Y259248D01*
X151523Y259308D01*
X151534Y259363D01*
X151549Y259415D01*
X151568Y259462D01*
X151590Y259510D01*
X151612Y259551D01*
X151634Y259588D01*
X151656Y259621D01*
X151678Y259651D01*
X151701Y259677D01*
X151719Y259699D01*
X151734Y259713D01*
X151745Y259724D01*
X151752Y259732D01*
X151756Y259735D01*
X151804Y259776D01*
X151859Y259809D01*
X151915Y259842D01*
X151974Y259876D01*
X152099Y259927D01*
X152217Y259972D01*
X152276Y259990D01*
X152328Y260005D01*
X152376Y260016D01*
X152416Y260027D01*
X152450Y260034D01*
X152476Y260042D01*
X152490Y260046D01*
X152498D01*
X152424Y260060D01*
X152354Y260079D01*
X152287Y260097D01*
X152228Y260119D01*
X152173Y260141D01*
X152121Y260164D01*
X152077Y260186D01*
X152033Y260208D01*
X151999Y260230D01*
X151966Y260248D01*
X151940Y260267D01*
X151918Y260282D01*
X151903Y260293D01*
X151892Y260304D01*
X151885Y260308D01*
X151881Y260311D01*
X151845Y260348D01*
X151815Y260389D01*
X151785Y260429D01*
X151763Y260470D01*
X151726Y260555D01*
X151704Y260636D01*
X151690Y260706D01*
X151686Y260736D01*
X151682Y260761D01*
X151678Y260784D01*
Y260798D01*
Y260809D01*
Y260813D01*
X151682Y260883D01*
X151693Y260949D01*
X151708Y261009D01*
X151730Y261068D01*
X151756Y261119D01*
X151782Y261167D01*
X151815Y261208D01*
X151845Y261248D01*
X151874Y261282D01*
X151903Y261311D01*
X151933Y261337D01*
X151959Y261359D01*
X151981Y261374D01*
X151996Y261389D01*
X152007Y261392D01*
X152011Y261396D01*
X152077Y261433D01*
X152147Y261462D01*
X152225Y261488D01*
X152302Y261510D01*
X152464Y261547D01*
X152546Y261558D01*
X152623Y261569D01*
X152697Y261580D01*
X152763Y261584D01*
X152826Y261588D01*
X152878Y261592D01*
X152922Y261595D01*
X154509D01*
Y261470D01*
D02*
G37*
%LPC*%
G36*
X165784Y271762D02*
X165759D01*
X165656Y271757D01*
X165562Y271738D01*
X165469Y271713D01*
X165385Y271673D01*
X165306Y271634D01*
X165238Y271585D01*
X165174Y271536D01*
X165115Y271482D01*
X165060Y271427D01*
X165016Y271378D01*
X164977Y271329D01*
X164947Y271290D01*
X164923Y271255D01*
X164903Y271226D01*
X164893Y271206D01*
X164888Y271201D01*
X164834Y271093D01*
X164785Y270975D01*
X164741Y270847D01*
X164706Y270719D01*
X164677Y270586D01*
X164652Y270453D01*
X164628Y270325D01*
X164613Y270202D01*
X164598Y270084D01*
X164588Y269976D01*
X164583Y269878D01*
X164578Y269789D01*
X164574Y269720D01*
Y269666D01*
Y269647D01*
Y269632D01*
Y269627D01*
Y269622D01*
X164578Y269430D01*
X164588Y269248D01*
X164598Y269081D01*
X164618Y268923D01*
X164642Y268780D01*
X164667Y268648D01*
X164691Y268530D01*
X164716Y268426D01*
X164746Y268328D01*
X164770Y268249D01*
X164795Y268180D01*
X164820Y268121D01*
X164839Y268082D01*
X164849Y268047D01*
X164859Y268028D01*
X164864Y268023D01*
X164918Y267929D01*
X164982Y267846D01*
X165046Y267772D01*
X165115Y267713D01*
X165189Y267659D01*
X165257Y267619D01*
X165326Y267580D01*
X165395Y267555D01*
X165459Y267531D01*
X165523Y267516D01*
X165577Y267501D01*
X165621Y267496D01*
X165661Y267492D01*
X165690Y267487D01*
X165715D01*
X165818Y267492D01*
X165912Y267511D01*
X166005Y267536D01*
X166089Y267575D01*
X166167Y267615D01*
X166236Y267664D01*
X166300Y267713D01*
X166359Y267767D01*
X166413Y267816D01*
X166458Y267865D01*
X166497Y267915D01*
X166527Y267954D01*
X166551Y267993D01*
X166571Y268018D01*
X166581Y268038D01*
X166586Y268042D01*
X166640Y268151D01*
X166689Y268274D01*
X166728Y268397D01*
X166763Y268525D01*
X166792Y268657D01*
X166822Y268790D01*
X166842Y268918D01*
X166856Y269041D01*
X166871Y269159D01*
X166881Y269272D01*
X166886Y269371D01*
X166891Y269455D01*
X166896Y269524D01*
Y269578D01*
Y269597D01*
Y269612D01*
Y269617D01*
Y269622D01*
X166891Y269814D01*
X166881Y269996D01*
X166871Y270163D01*
X166851Y270321D01*
X166832Y270463D01*
X166807Y270596D01*
X166778Y270714D01*
X166753Y270822D01*
X166728Y270916D01*
X166699Y270994D01*
X166674Y271063D01*
X166655Y271123D01*
X166635Y271167D01*
X166620Y271196D01*
X166615Y271216D01*
X166610Y271221D01*
X166551Y271314D01*
X166492Y271398D01*
X166423Y271472D01*
X166355Y271536D01*
X166286Y271585D01*
X166217Y271629D01*
X166148Y271664D01*
X166079Y271693D01*
X166015Y271718D01*
X165951Y271732D01*
X165897Y271747D01*
X165853Y271752D01*
X165813Y271757D01*
X165784Y271762D01*
D02*
G37*
G36*
X145852Y261344D02*
X144501D01*
Y260677D01*
X145852D01*
Y261344D01*
D02*
G37*
G36*
Y259699D02*
X144328D01*
Y259016D01*
X145852D01*
Y259699D01*
D02*
G37*
G36*
X136575Y261226D02*
X135764D01*
Y260791D01*
X136575D01*
Y261226D01*
D02*
G37*
G36*
X136712Y259448D02*
X135764D01*
Y258935D01*
X136712D01*
Y259448D01*
D02*
G37*
G36*
X153040Y261433D02*
X152970D01*
X152926Y261426D01*
X152845Y261407D01*
X152778Y261381D01*
X152723Y261355D01*
X152682Y261326D01*
X152653Y261300D01*
X152638Y261282D01*
X152630Y261278D01*
Y261274D01*
X152608Y261241D01*
X152590Y261208D01*
X152560Y261130D01*
X152538Y261046D01*
X152523Y260964D01*
X152516Y260891D01*
X152512Y260857D01*
X152509Y260828D01*
Y260806D01*
Y260787D01*
Y260776D01*
Y260772D01*
Y260702D01*
X152516Y260640D01*
X152523Y260580D01*
X152534Y260525D01*
X152546Y260477D01*
X152560Y260433D01*
X152571Y260392D01*
X152586Y260359D01*
X152601Y260330D01*
X152616Y260304D01*
X152630Y260282D01*
X152641Y260263D01*
X152653Y260252D01*
X152660Y260241D01*
X152664Y260237D01*
X152667Y260234D01*
X152701Y260208D01*
X152737Y260182D01*
X152778Y260164D01*
X152822Y260145D01*
X152915Y260119D01*
X153007Y260101D01*
X153051Y260093D01*
X153092Y260090D01*
X153129Y260086D01*
X153162D01*
X153191Y260082D01*
X153269D01*
Y261112D01*
X153265Y261182D01*
X153261Y261241D01*
X153254Y261285D01*
X153243Y261322D01*
X153232Y261344D01*
X153225Y261363D01*
X153221Y261370D01*
X153217Y261374D01*
X153195Y261392D01*
X153165Y261407D01*
X153132Y261418D01*
X153099Y261426D01*
X153066Y261429D01*
X153040Y261433D01*
D02*
G37*
G36*
X153188Y259931D02*
X153158D01*
X153084Y259927D01*
X153014Y259924D01*
X152948Y259916D01*
X152889Y259905D01*
X152837Y259891D01*
X152785Y259876D01*
X152745Y259861D01*
X152704Y259842D01*
X152671Y259828D01*
X152641Y259809D01*
X152619Y259795D01*
X152597Y259784D01*
X152583Y259769D01*
X152571Y259761D01*
X152568Y259758D01*
X152564Y259754D01*
X152534Y259717D01*
X152505Y259680D01*
X152483Y259636D01*
X152461Y259588D01*
X152431Y259488D01*
X152409Y259392D01*
X152402Y259344D01*
X152394Y259304D01*
X152391Y259263D01*
Y259230D01*
X152387Y259201D01*
Y259178D01*
Y259164D01*
Y259160D01*
Y259082D01*
X152394Y259012D01*
X152398Y258950D01*
X152409Y258891D01*
X152420Y258835D01*
X152431Y258787D01*
X152442Y258743D01*
X152453Y258702D01*
X152468Y258669D01*
X152479Y258640D01*
X152490Y258617D01*
X152501Y258595D01*
X152512Y258581D01*
X152516Y258570D01*
X152523Y258566D01*
Y258562D01*
X152549Y258533D01*
X152583Y258507D01*
X152653Y258463D01*
X152726Y258433D01*
X152800Y258411D01*
X152870Y258400D01*
X152900Y258392D01*
X152926D01*
X152948Y258389D01*
X152977D01*
X153036Y258392D01*
X153088Y258400D01*
X153129Y258411D01*
X153158Y258426D01*
X153180Y258437D01*
X153199Y258448D01*
X153206Y258455D01*
X153210Y258459D01*
X153221Y258473D01*
X153228Y258492D01*
X153243Y258540D01*
X153254Y258595D01*
X153261Y258651D01*
X153265Y258702D01*
X153269Y258747D01*
Y258761D01*
Y258776D01*
Y258784D01*
Y258787D01*
Y259927D01*
X153214D01*
X153188Y259931D01*
D02*
G37*
G36*
X227512Y115753D02*
X227454Y115677D01*
X227037Y114671D01*
X226895Y113592D01*
X227037Y112513D01*
X227454Y111507D01*
X227512Y111431D01*
X229673Y113592D01*
X227512Y115753D01*
D02*
G37*
G36*
X8553D02*
X6392Y113592D01*
X8553Y111431D01*
X8611Y111507D01*
X9027Y112513D01*
X9170Y113592D01*
X9027Y114671D01*
X8611Y115677D01*
X8553Y115753D01*
D02*
G37*
G36*
X15000Y220262D02*
X13921Y220120D01*
X12915Y219703D01*
X12839Y219645D01*
X15000Y217484D01*
X17161Y219645D01*
X17085Y219703D01*
X16079Y220120D01*
X15000Y220262D01*
D02*
G37*
G36*
X75761Y218951D02*
X71458D01*
X73609Y216800D01*
X75761Y218951D01*
D02*
G37*
G36*
X18553Y218253D02*
X16392Y216092D01*
X18553Y213931D01*
X18611Y214007D01*
X19027Y215013D01*
X19170Y216092D01*
X19027Y217171D01*
X18611Y218177D01*
X18553Y218253D01*
D02*
G37*
G36*
X11447D02*
X11389Y218177D01*
X10972Y217171D01*
X10830Y216092D01*
X10972Y215013D01*
X11389Y214007D01*
X11447Y213931D01*
X13608Y216092D01*
X11447Y218253D01*
D02*
G37*
G36*
X76759Y217166D02*
X75001Y215408D01*
X76759Y213650D01*
Y217166D01*
D02*
G37*
G36*
X70460D02*
Y213650D01*
X72218Y215408D01*
X70460Y217166D01*
D02*
G37*
G36*
X29134Y220226D02*
X20866D01*
Y211958D01*
X29134D01*
Y220226D01*
D02*
G37*
G36*
X15000Y214700D02*
X12839Y212540D01*
X12915Y212481D01*
X13921Y212065D01*
X15000Y211923D01*
X16079Y212065D01*
X17085Y212481D01*
X17161Y212540D01*
X15000Y214700D01*
D02*
G37*
G36*
X73609Y214016D02*
X71458Y211865D01*
X75761D01*
X73609Y214016D01*
D02*
G37*
G36*
X15000Y210262D02*
X13921Y210120D01*
X12915Y209703D01*
X12839Y209645D01*
X15000Y207484D01*
X17161Y209645D01*
X17085Y209703D01*
X16079Y210120D01*
X15000Y210262D01*
D02*
G37*
G36*
X54606Y208901D02*
X50816D01*
X52711Y207006D01*
X54606Y208901D01*
D02*
G37*
G36*
X55248Y206759D02*
X54103Y205614D01*
X55248Y204468D01*
Y206759D01*
D02*
G37*
G36*
X50174D02*
Y204468D01*
X51319Y205614D01*
X50174Y206759D01*
D02*
G37*
G36*
X18553Y208253D02*
X16392Y206092D01*
X18553Y203931D01*
X18611Y204007D01*
X19027Y205013D01*
X19170Y206092D01*
X19027Y207171D01*
X18611Y208177D01*
X18553Y208253D01*
D02*
G37*
G36*
X11447D02*
X11389Y208177D01*
X10972Y207171D01*
X10830Y206092D01*
X10972Y205013D01*
X11389Y204007D01*
X11447Y203931D01*
X13608Y206092D01*
X11447Y208253D01*
D02*
G37*
G36*
X52711Y204222D02*
X50816Y202326D01*
X54606D01*
X52711Y204222D01*
D02*
G37*
G36*
X29134Y210226D02*
X20866D01*
Y201958D01*
X29134D01*
Y210226D01*
D02*
G37*
G36*
X15000Y204700D02*
X12839Y202539D01*
X12915Y202481D01*
X13921Y202065D01*
X15000Y201923D01*
X16079Y202065D01*
X17085Y202481D01*
X17161Y202539D01*
X15000Y204700D01*
D02*
G37*
G36*
Y200262D02*
X13921Y200120D01*
X12915Y199703D01*
X12839Y199645D01*
X15000Y197484D01*
X17161Y199645D01*
X17085Y199703D01*
X16079Y200120D01*
X15000Y200262D01*
D02*
G37*
G36*
X71710Y197565D02*
X70360D01*
X71035Y196890D01*
X71710Y197565D01*
D02*
G37*
G36*
X157108Y220482D02*
X155978Y220333D01*
X154924Y219897D01*
X154020Y219203D01*
X153325Y218298D01*
X152889Y217245D01*
X152740Y216114D01*
X152889Y214984D01*
X153325Y213930D01*
X154020Y213025D01*
X154924Y212331D01*
X155978Y211895D01*
X157108Y211746D01*
X157284Y211769D01*
X158036Y211110D01*
Y196417D01*
X133282Y171663D01*
X132543Y171517D01*
X131762Y170994D01*
X131239Y170213D01*
X131056Y169291D01*
X131239Y168370D01*
X131762Y167588D01*
X132543Y167066D01*
X133465Y166883D01*
X134386Y167066D01*
X135168Y167588D01*
X135690Y168370D01*
X135837Y169109D01*
X161120Y194392D01*
X161120Y194392D01*
X161120Y194392D01*
X161511Y194978D01*
X161649Y195669D01*
Y211584D01*
Y213380D01*
X161511Y214071D01*
X161165Y214590D01*
X161328Y214984D01*
X161476Y216114D01*
X161328Y217245D01*
X160891Y218298D01*
X160197Y219203D01*
X159292Y219897D01*
X158239Y220333D01*
X157108Y220482D01*
D02*
G37*
G36*
X18553Y198253D02*
X16392Y196092D01*
X18553Y193931D01*
X18611Y194007D01*
X19027Y195013D01*
X19170Y196092D01*
X19027Y197171D01*
X18611Y198177D01*
X18553Y198253D01*
D02*
G37*
G36*
X11447D02*
X11389Y198177D01*
X10972Y197171D01*
X10830Y196092D01*
X10972Y195013D01*
X11389Y194007D01*
X11447Y193931D01*
X13608Y196092D01*
X11447Y198253D01*
D02*
G37*
G36*
X74579Y197565D02*
X74494D01*
X72427Y195498D01*
X74494Y193431D01*
X74579D01*
Y197565D01*
D02*
G37*
G36*
X71035Y194106D02*
X70360Y193431D01*
X71710D01*
X71035Y194106D01*
D02*
G37*
G36*
X67577Y197565D02*
X67492D01*
Y193431D01*
X67577D01*
X69643Y195498D01*
X67577Y197565D01*
D02*
G37*
G36*
X60158Y219010D02*
X59715Y218951D01*
X57074D01*
Y211865D01*
X57378D01*
Y205797D01*
X57378Y205797D01*
Y195743D01*
X57243Y194717D01*
X56995Y194120D01*
X54526D01*
X52841Y192435D01*
X52556Y192378D01*
X52513Y192382D01*
Y192372D01*
X40648D01*
X39929Y192277D01*
X39258Y191999D01*
X38682Y191558D01*
X30249Y183124D01*
X29872D01*
X29153Y183029D01*
X28483Y182751D01*
X27907Y182310D01*
X27465Y181734D01*
X27187Y181063D01*
X27093Y180344D01*
Y167593D01*
X27093Y167593D01*
X27093D01*
X27187Y166873D01*
X27465Y166203D01*
X27907Y165627D01*
X48485Y145049D01*
X48485Y145049D01*
X48485D01*
X48485Y145048D01*
X48485D01*
X48485Y145048D01*
Y145048D01*
Y145048D01*
D01*
D01*
X48485D01*
Y145048D01*
X49061Y144607D01*
X49535Y144410D01*
X49731Y144329D01*
X50451Y144234D01*
X101214D01*
X101933Y144329D01*
X102604Y144607D01*
X103179Y145048D01*
X103179Y145048D01*
X103179Y145048D01*
X114002Y155871D01*
X128002D01*
X131394Y152480D01*
Y144054D01*
X128960Y141621D01*
X128518Y141045D01*
X128240Y140375D01*
X128146Y139655D01*
Y99862D01*
X94609Y66325D01*
X94168Y65750D01*
X93890Y65079D01*
X93795Y64360D01*
Y25255D01*
X88586Y20046D01*
X88144Y19470D01*
X87866Y18800D01*
X87771Y18080D01*
Y10968D01*
X87483Y10271D01*
X87374Y9449D01*
X87483Y8627D01*
X87800Y7860D01*
X88305Y7203D01*
X88963Y6698D01*
X89729Y6380D01*
X90551Y6272D01*
X91373Y6380D01*
X92140Y6698D01*
X92797Y7203D01*
X93302Y7860D01*
X93620Y8627D01*
X93728Y9449D01*
X93620Y10271D01*
X93331Y10968D01*
Y16929D01*
X98540Y22138D01*
X98982Y22714D01*
X99260Y23384D01*
X99354Y24104D01*
X99354Y24104D01*
X99354Y24104D01*
Y24104D01*
Y63209D01*
X132891Y96745D01*
X133332Y97320D01*
X133610Y97991D01*
X133705Y98710D01*
X133705Y98710D01*
X133705Y98710D01*
Y98710D01*
Y138504D01*
X136139Y140938D01*
X136581Y141513D01*
X136858Y142184D01*
X136953Y142903D01*
Y153631D01*
X136858Y154351D01*
X136581Y155021D01*
X136139Y155597D01*
X131119Y160617D01*
X130543Y161058D01*
X129873Y161336D01*
X129154Y161431D01*
X127180D01*
Y179971D01*
X127239D01*
Y187633D01*
X127304Y187789D01*
X127389Y187899D01*
X127572Y188341D01*
X129700Y190469D01*
Y200115D01*
X127436Y202379D01*
X122909D01*
X120645Y200115D01*
Y190469D01*
X122773Y188341D01*
X122956Y187899D01*
X123041Y187789D01*
X123106Y187633D01*
Y179971D01*
X123165D01*
Y161431D01*
X112851D01*
X112131Y161336D01*
X111461Y161058D01*
X110885Y160617D01*
X100062Y149794D01*
X51602D01*
X32652Y168744D01*
Y177880D01*
X32790Y177937D01*
X33365Y178378D01*
X33647Y178660D01*
X33790Y178770D01*
X33774Y178787D01*
X41799Y186812D01*
X52513D01*
Y186802D01*
X52556Y186806D01*
X52841Y186750D01*
X54526Y185065D01*
X64172D01*
X66300Y187193D01*
X66742Y187376D01*
X66852Y187461D01*
X67008Y187525D01*
X74670D01*
Y191659D01*
X67008D01*
X66852Y191724D01*
X66742Y191808D01*
X66300Y191991D01*
X64172Y194120D01*
X62937D01*
Y195582D01*
X62961Y195821D01*
X62937D01*
Y205797D01*
X62937Y205797D01*
Y211865D01*
X63373D01*
Y218951D01*
X60600D01*
X60158Y219010D01*
D02*
G37*
G36*
X29134Y200226D02*
X20866D01*
Y191958D01*
X29134D01*
Y200226D01*
D02*
G37*
G36*
X15000Y194700D02*
X12839Y192540D01*
X12915Y192481D01*
X13921Y192065D01*
X15000Y191923D01*
X16079Y192065D01*
X17085Y192481D01*
X17161Y192540D01*
X15000Y194700D01*
D02*
G37*
G36*
X85248Y185902D02*
X80173D01*
Y185694D01*
X74579D01*
Y185754D01*
X67492D01*
Y181620D01*
X74579D01*
Y181679D01*
X79797D01*
Y169541D01*
X79310Y168906D01*
X78933Y167996D01*
X78804Y167020D01*
X78933Y166043D01*
X79310Y165133D01*
X79909Y164352D01*
X80691Y163753D01*
X81600Y163376D01*
X82577Y163247D01*
X83553Y163376D01*
X84463Y163753D01*
X85244Y164352D01*
X85283Y164402D01*
X86244Y165191D01*
X87396Y165806D01*
X88645Y166186D01*
X89886Y166308D01*
X91373D01*
Y165938D01*
X98460D01*
Y172237D01*
X91373D01*
Y171867D01*
X89945D01*
Y171881D01*
X89768Y171867D01*
X85356D01*
Y181974D01*
X85262Y182693D01*
X85248Y182727D01*
Y185902D01*
D02*
G37*
G36*
X133145Y187149D02*
X129011D01*
Y187064D01*
X131078Y184997D01*
X133145Y187064D01*
Y187149D01*
D02*
G37*
G36*
X92086Y185902D02*
X88295D01*
X90191Y184006D01*
X92086Y185902D01*
D02*
G37*
G36*
X133145Y184281D02*
X132470Y183606D01*
X133145Y182931D01*
Y184281D01*
D02*
G37*
G36*
X129011D02*
Y182931D01*
X129686Y183606D01*
X129011Y184281D01*
D02*
G37*
G36*
X92728Y183760D02*
X91583Y182614D01*
X92728Y181469D01*
Y183760D01*
D02*
G37*
G36*
X87653D02*
Y181469D01*
X88799Y182614D01*
X87653Y183760D01*
D02*
G37*
G36*
X131078Y182214D02*
X129011Y180147D01*
Y180062D01*
X133145D01*
Y180147D01*
X131078Y182214D01*
D02*
G37*
G36*
X90191Y181222D02*
X88295Y179327D01*
X92086D01*
X90191Y181222D01*
D02*
G37*
G36*
X164976Y183947D02*
X164102Y183832D01*
X163288Y183495D01*
X162589Y182958D01*
X162053Y182259D01*
X161716Y181445D01*
X161601Y180572D01*
X161716Y179698D01*
X162053Y178884D01*
X162589Y178185D01*
X163288Y177648D01*
X164102Y177311D01*
X164976Y177196D01*
X165850Y177311D01*
X166664Y177648D01*
X167363Y178185D01*
X167899Y178884D01*
X168236Y179698D01*
X168351Y180572D01*
X168236Y181445D01*
X167899Y182259D01*
X167363Y182958D01*
X166664Y183495D01*
X165850Y183832D01*
X164976Y183947D01*
D02*
G37*
G36*
X72577Y170792D02*
X71601Y170663D01*
X70691Y170287D01*
X69909Y169687D01*
X69310Y168906D01*
X68933Y167996D01*
X68804Y167020D01*
X68933Y166043D01*
X69310Y165133D01*
X69909Y164352D01*
X70691Y163753D01*
X71601Y163376D01*
X72577Y163247D01*
X73553Y163376D01*
X74463Y163753D01*
X75244Y164352D01*
X75844Y165133D01*
X76221Y166043D01*
X76349Y167020D01*
X76221Y167996D01*
X75844Y168906D01*
X75244Y169687D01*
X74463Y170287D01*
X73553Y170663D01*
X72577Y170792D01*
D02*
G37*
G36*
X62577D02*
X61601Y170663D01*
X60691Y170287D01*
X59909Y169687D01*
X59310Y168906D01*
X58933Y167996D01*
X58804Y167020D01*
X58933Y166043D01*
X59310Y165133D01*
X59909Y164352D01*
X60691Y163753D01*
X61601Y163376D01*
X62577Y163247D01*
X63553Y163376D01*
X64463Y163753D01*
X65244Y164352D01*
X65844Y165133D01*
X66221Y166043D01*
X66349Y167020D01*
X66221Y167996D01*
X65844Y168906D01*
X65244Y169687D01*
X64463Y170287D01*
X63553Y170663D01*
X62577Y170792D01*
D02*
G37*
G36*
X52577D02*
X51600Y170663D01*
X50691Y170287D01*
X49909Y169687D01*
X49310Y168906D01*
X48933Y167996D01*
X48804Y167020D01*
X48933Y166043D01*
X49310Y165133D01*
X49909Y164352D01*
X50691Y163753D01*
X51600Y163376D01*
X52577Y163247D01*
X53553Y163376D01*
X54463Y163753D01*
X55244Y164352D01*
X55844Y165133D01*
X56221Y166043D01*
X56349Y167020D01*
X56221Y167996D01*
X55844Y168906D01*
X55244Y169687D01*
X54463Y170287D01*
X53553Y170663D01*
X52577Y170792D01*
D02*
G37*
G36*
X84925Y160760D02*
X80229D01*
X82577Y158412D01*
X84925Y160760D01*
D02*
G37*
G36*
X164976Y165049D02*
X164102Y164934D01*
X163288Y164597D01*
X162589Y164061D01*
X162053Y163362D01*
X161716Y162548D01*
X161601Y161674D01*
X161716Y160800D01*
X162053Y159986D01*
X162589Y159287D01*
X163288Y158751D01*
X164102Y158414D01*
X164976Y158299D01*
X165850Y158414D01*
X166664Y158751D01*
X167363Y159287D01*
X167899Y159986D01*
X168236Y160800D01*
X168351Y161674D01*
X168236Y162548D01*
X167899Y163362D01*
X167363Y164061D01*
X166664Y164597D01*
X165850Y164934D01*
X164976Y165049D01*
D02*
G37*
G36*
X96674Y158851D02*
X93159D01*
X94916Y157094D01*
X96674Y158851D01*
D02*
G37*
G36*
X86317Y159368D02*
X83969Y157020D01*
X86317Y154671D01*
Y159368D01*
D02*
G37*
G36*
X78837D02*
Y154671D01*
X81185Y157020D01*
X78837Y159368D01*
D02*
G37*
G36*
X98460Y157853D02*
X96308Y155702D01*
X98460Y153550D01*
Y157853D01*
D02*
G37*
G36*
X91373D02*
Y153550D01*
X93525Y155702D01*
X91373Y157853D01*
D02*
G37*
G36*
X82577Y155628D02*
X80229Y153279D01*
X84925D01*
X82577Y155628D01*
D02*
G37*
G36*
X72577Y160792D02*
X71601Y160663D01*
X70691Y160287D01*
X69909Y159687D01*
X69310Y158906D01*
X68933Y157996D01*
X68804Y157020D01*
X68933Y156043D01*
X69310Y155133D01*
X69909Y154352D01*
X70691Y153753D01*
X71601Y153376D01*
X72577Y153247D01*
X73553Y153376D01*
X74463Y153753D01*
X75244Y154352D01*
X75844Y155133D01*
X76221Y156043D01*
X76349Y157020D01*
X76221Y157996D01*
X75844Y158906D01*
X75244Y159687D01*
X74463Y160287D01*
X73553Y160663D01*
X72577Y160792D01*
D02*
G37*
G36*
X62577D02*
X61601Y160663D01*
X60691Y160287D01*
X59909Y159687D01*
X59310Y158906D01*
X58933Y157996D01*
X58804Y157020D01*
X58933Y156043D01*
X59310Y155133D01*
X59909Y154352D01*
X60691Y153753D01*
X61601Y153376D01*
X62577Y153247D01*
X63553Y153376D01*
X64463Y153753D01*
X65244Y154352D01*
X65844Y155133D01*
X66221Y156043D01*
X66349Y157020D01*
X66221Y157996D01*
X65844Y158906D01*
X65244Y159687D01*
X64463Y160287D01*
X63553Y160663D01*
X62577Y160792D01*
D02*
G37*
G36*
X52577D02*
X51600Y160663D01*
X50691Y160287D01*
X49909Y159687D01*
X49310Y158906D01*
X48933Y157996D01*
X48804Y157020D01*
X48933Y156043D01*
X49310Y155133D01*
X49909Y154352D01*
X50691Y153753D01*
X51600Y153376D01*
X52577Y153247D01*
X53553Y153376D01*
X54463Y153753D01*
X55244Y154352D01*
X55844Y155133D01*
X56221Y156043D01*
X56349Y157020D01*
X56221Y157996D01*
X55844Y158906D01*
X55244Y159687D01*
X54463Y160287D01*
X53553Y160663D01*
X52577Y160792D01*
D02*
G37*
G36*
X94916Y154310D02*
X93159Y152552D01*
X96674D01*
X94916Y154310D01*
D02*
G37*
G36*
X8553Y153253D02*
X6392Y151092D01*
X8553Y148931D01*
X8611Y149007D01*
X9027Y150013D01*
X9170Y151092D01*
X9027Y152171D01*
X8611Y153177D01*
X8553Y153253D01*
D02*
G37*
G36*
X199029Y148901D02*
X193954D01*
Y144177D01*
X193526Y143536D01*
X193342Y142614D01*
X193526Y141692D01*
X194048Y140911D01*
X194829Y140389D01*
X195751Y140206D01*
X196672Y140389D01*
X197454Y140911D01*
X197976Y141692D01*
X198102Y142326D01*
X199029D01*
Y148901D01*
D02*
G37*
G36*
X175548Y148902D02*
X170473D01*
Y143271D01*
X170342Y142614D01*
X170526Y141692D01*
X171048Y140911D01*
X171829Y140389D01*
X172751Y140206D01*
X173672Y140389D01*
X174454Y140911D01*
X174976Y141692D01*
X175102Y142327D01*
X175548D01*
Y148902D01*
D02*
G37*
G36*
X140270Y168550D02*
X139348Y168367D01*
X138567Y167845D01*
X138045Y167063D01*
X137862Y166142D01*
X138045Y165220D01*
X138567Y164439D01*
X138612Y164409D01*
X138860Y164038D01*
X138952Y163572D01*
X138949Y163547D01*
X138957D01*
Y140095D01*
X139057Y139593D01*
X139271Y139273D01*
X138915Y138739D01*
X138633Y138458D01*
X138307Y138523D01*
X137385Y138339D01*
X136604Y137817D01*
X136082Y137036D01*
X135899Y136114D01*
X136082Y135192D01*
X136604Y134411D01*
X136636Y134390D01*
X136824Y134108D01*
X136897Y133741D01*
X136897Y133738D01*
X136902D01*
Y65336D01*
X125225Y53658D01*
X124744D01*
Y53670D01*
X124624Y53658D01*
X124576D01*
X123380Y53816D01*
X122109Y54343D01*
X121111Y55108D01*
X121039Y55202D01*
X120175Y55864D01*
X119170Y56281D01*
X118091Y56423D01*
X117011Y56281D01*
X116006Y55864D01*
X115142Y55202D01*
X114480Y54338D01*
X114063Y53333D01*
X113921Y52254D01*
X114063Y51174D01*
X114480Y50169D01*
X115142Y49305D01*
X116006Y48643D01*
X117011Y48226D01*
X118091Y48084D01*
X119170Y48226D01*
X120175Y48643D01*
X121039Y49305D01*
X121111Y49399D01*
X122109Y50165D01*
X123380Y50691D01*
X124576Y50849D01*
X124624D01*
X124744Y50837D01*
Y50849D01*
X125807D01*
X126345Y50955D01*
X126801Y51260D01*
X126801Y51260D01*
X126801Y51260D01*
X139301Y63760D01*
X139589Y64192D01*
X140546Y63902D01*
Y49196D01*
X124930Y33580D01*
X124749D01*
X123500Y33744D01*
X122163Y34298D01*
X121116Y35101D01*
X121039Y35202D01*
X120175Y35864D01*
X119170Y36281D01*
X118091Y36423D01*
X117011Y36281D01*
X116006Y35864D01*
X115142Y35202D01*
X114480Y34338D01*
X114063Y33333D01*
X113921Y32254D01*
X114063Y31174D01*
X114480Y30169D01*
X115142Y29305D01*
X116006Y28643D01*
X117011Y28226D01*
X118091Y28084D01*
X119170Y28226D01*
X120175Y28643D01*
X121039Y29305D01*
X121105Y29392D01*
X122054Y30120D01*
X123260Y30619D01*
X124404Y30770D01*
X124800D01*
X124934Y30757D01*
Y30770D01*
X125512D01*
X126049Y30877D01*
X126505Y31181D01*
X126505Y31181D01*
X126505Y31181D01*
X142944Y47620D01*
X143249Y48076D01*
X143356Y48614D01*
X143356Y48614D01*
X143356Y48614D01*
Y48614D01*
Y126238D01*
X143361D01*
X143361Y126241D01*
X143434Y126608D01*
X143622Y126890D01*
X143654Y126911D01*
X144014Y127450D01*
X144971Y127160D01*
Y77744D01*
X145071Y77241D01*
X145355Y76816D01*
X145355Y76816D01*
X145355Y76816D01*
X161698Y60473D01*
Y60473D01*
X161698Y60473D01*
X161698Y60473D01*
X161754Y60417D01*
X162544Y59454D01*
X163169Y58285D01*
X163554Y57017D01*
X163674Y55792D01*
X163662Y55699D01*
X163817Y54517D01*
X164274Y53415D01*
X164999Y52469D01*
X165945Y51744D01*
X167046Y51287D01*
X168228Y51132D01*
X169410Y51287D01*
X170512Y51744D01*
X171458Y52469D01*
X172183Y53415D01*
X172639Y54517D01*
X172795Y55699D01*
X172639Y56880D01*
X172183Y57982D01*
X171458Y58928D01*
X170512Y59653D01*
X169410Y60110D01*
X168228Y60265D01*
X168145Y60254D01*
X167005Y60366D01*
X165828Y60723D01*
X164743Y61303D01*
X163836Y62048D01*
X163698Y62186D01*
X163568Y62344D01*
X163568Y62344D01*
X163536Y62376D01*
X163911Y63279D01*
X181677D01*
X189908Y55048D01*
Y42226D01*
X186890Y39208D01*
X186873Y39225D01*
X186721Y39040D01*
X185939Y38258D01*
D01*
X185939Y38258D01*
D01*
D01*
Y38258D01*
X185939Y38257D01*
X185939Y38257D01*
D01*
X185816Y38134D01*
X184799Y37354D01*
X183453Y36796D01*
X182148Y36625D01*
X182008Y36643D01*
X180826Y36487D01*
X179725Y36031D01*
X178779Y35306D01*
X178053Y34360D01*
X177597Y33258D01*
X177441Y32076D01*
X177597Y30895D01*
X178053Y29793D01*
X178779Y28847D01*
X179725Y28122D01*
X180826Y27665D01*
X182008Y27510D01*
X183190Y27665D01*
X184291Y28122D01*
X185237Y28847D01*
X185963Y29793D01*
X186419Y30895D01*
X186574Y32076D01*
X186560Y32185D01*
X186693Y33534D01*
X187118Y34936D01*
X187809Y36227D01*
X188665Y37271D01*
X192149Y40755D01*
X192433Y41180D01*
X192533Y41683D01*
Y55592D01*
X192433Y56094D01*
X192149Y56520D01*
X184313Y64356D01*
X184696Y65280D01*
X202460D01*
X206846Y60893D01*
X207703Y59849D01*
X208394Y58558D01*
X208819Y57156D01*
X208952Y55807D01*
X208937Y55699D01*
X209093Y54517D01*
X209549Y53415D01*
X210275Y52469D01*
X211221Y51744D01*
X212322Y51287D01*
X213504Y51132D01*
X214686Y51287D01*
X215787Y51744D01*
X216733Y52469D01*
X217459Y53415D01*
X217915Y54517D01*
X218071Y55699D01*
X217915Y56880D01*
X217459Y57982D01*
X216733Y58928D01*
X215787Y59653D01*
X214686Y60110D01*
X213504Y60265D01*
X213364Y60247D01*
X212059Y60418D01*
X210713Y60976D01*
X209696Y61756D01*
X209573Y61879D01*
X209573Y61879D01*
X209573Y61879D01*
X208791Y62662D01*
X208639Y62847D01*
X208622Y62830D01*
X203932Y67520D01*
X203506Y67805D01*
X203004Y67905D01*
X163636D01*
X151596Y79944D01*
Y81806D01*
X152520Y82189D01*
X155923Y78786D01*
X156349Y78501D01*
X156851Y78401D01*
X173368D01*
X174770Y78263D01*
X176246Y77816D01*
X177606Y77089D01*
X178707Y76185D01*
X178779Y76091D01*
X179725Y75366D01*
X180826Y74910D01*
X182008Y74754D01*
X183190Y74910D01*
X184291Y75366D01*
X185237Y76091D01*
X185963Y77037D01*
X186419Y78139D01*
X186574Y79321D01*
X186419Y80502D01*
X185963Y81604D01*
X185237Y82550D01*
X184291Y83275D01*
X183190Y83732D01*
X182008Y83887D01*
X180826Y83732D01*
X179725Y83275D01*
X178779Y82550D01*
X178701Y82448D01*
X177728Y81702D01*
X176478Y81184D01*
X175285Y81027D01*
X173326D01*
X173235Y81034D01*
Y81027D01*
X157395D01*
X153596Y84825D01*
Y102713D01*
X154553Y103004D01*
X154612Y102915D01*
X155394Y102393D01*
X156315Y102210D01*
X157237Y102393D01*
X157864Y102812D01*
X168555D01*
X169246Y102949D01*
X169832Y103341D01*
X173728Y107237D01*
X174120Y107823D01*
X174257Y108514D01*
X174257Y108514D01*
X174257Y108514D01*
Y108514D01*
Y129256D01*
X175621D01*
X175964Y128742D01*
X176583Y128328D01*
X177313Y128183D01*
X178042Y128328D01*
X178661Y128742D01*
X179074Y129360D01*
X179219Y130090D01*
Y135011D01*
X179074Y135741D01*
X178661Y136359D01*
X178042Y136773D01*
X177313Y136918D01*
X176583Y136773D01*
X175964Y136359D01*
X175551Y135741D01*
X175406Y135011D01*
Y134073D01*
X169239D01*
Y134239D01*
X158664D01*
Y125164D01*
X169239D01*
Y127716D01*
X170088Y128244D01*
X170644Y127970D01*
Y109262D01*
X167807Y106424D01*
X157864D01*
X157237Y106843D01*
X156315Y107027D01*
X156315D01*
D01*
X156132Y106990D01*
X155394Y106843D01*
X154612Y106321D01*
X154612Y106321D01*
X154261Y106321D01*
X153596Y106523D01*
Y155129D01*
X153596Y155129D01*
X153596Y155129D01*
X153496Y155631D01*
X153400Y155775D01*
X153400Y155775D01*
X153212Y156057D01*
Y156057D01*
X153212Y156057D01*
X151461Y157808D01*
X151035Y158092D01*
X150533Y158192D01*
X146520D01*
X146512Y158200D01*
Y158200D01*
D01*
D01*
D01*
X146512D01*
X146512D01*
D01*
D01*
X146511Y158200D01*
Y158200D01*
D01*
Y158200D01*
X146487Y158197D01*
X146021Y158290D01*
X145650Y158538D01*
X145620Y158583D01*
X144839Y159105D01*
X143917Y159288D01*
X142996Y159105D01*
X142465Y158750D01*
X141583Y159221D01*
Y163547D01*
X141591D01*
X141588Y163572D01*
X141680Y164038D01*
X141929Y164409D01*
X141973Y164439D01*
X142495Y165220D01*
X142678Y166142D01*
X142495Y167063D01*
X141973Y167845D01*
X141192Y168367D01*
X140270Y168550D01*
D02*
G37*
G36*
X191548Y148901D02*
X186474D01*
Y142326D01*
X187712D01*
X187767Y142244D01*
X187931Y141421D01*
Y139721D01*
X186177Y137968D01*
X185829Y137447D01*
X185809Y137345D01*
X185707Y136832D01*
X185707Y136832D01*
Y135974D01*
X185551Y135741D01*
X185406Y135011D01*
Y130090D01*
X185551Y129360D01*
X185965Y128742D01*
X186583Y128328D01*
X187313Y128183D01*
X188042Y128328D01*
X188661Y128742D01*
X189074Y129360D01*
X189219Y130090D01*
Y135011D01*
X189209Y135062D01*
X189322Y135921D01*
X189674Y136769D01*
X190182Y137430D01*
X190240Y137489D01*
D01*
D01*
X190240Y137489D01*
X190240D01*
D01*
D01*
X190240D01*
Y137489D01*
D01*
X190240Y137489D01*
D01*
X190240Y137489D01*
D01*
D01*
D01*
Y137489D01*
D01*
X190240Y137489D01*
Y137489D01*
D01*
D01*
D01*
D01*
D01*
D01*
X190240D01*
D01*
D01*
D01*
D01*
Y137489D01*
D01*
X190672Y137920D01*
X190672Y137920D01*
X191020Y138441D01*
X191040Y138543D01*
X191142Y139056D01*
X191142Y139056D01*
Y141272D01*
X191160D01*
X191142Y141411D01*
Y142326D01*
X191548D01*
Y148901D01*
D02*
G37*
G36*
X183028Y148902D02*
X177953D01*
Y142327D01*
X178403D01*
Y141506D01*
X178386Y141377D01*
X178403D01*
Y138956D01*
X178403Y138956D01*
X178505Y138443D01*
X178525Y138341D01*
X178873Y137820D01*
X179552Y137142D01*
X180007Y136549D01*
X180314Y135807D01*
X180414Y135050D01*
X180406Y135011D01*
Y130090D01*
X180551Y129360D01*
X180965Y128742D01*
X181583Y128328D01*
X182313Y128183D01*
X183042Y128328D01*
X183661Y128742D01*
X184074Y129360D01*
X184220Y130090D01*
Y135011D01*
X184074Y135741D01*
X183918Y135974D01*
Y136652D01*
X183918Y136652D01*
X183817Y137164D01*
X183796Y137266D01*
X183448Y137787D01*
X181784Y139451D01*
Y139451D01*
X181784Y139452D01*
X181614Y139621D01*
Y141511D01*
X181770Y142292D01*
X181793Y142327D01*
X183028D01*
Y148902D01*
D02*
G37*
G36*
X192313Y136918D02*
X191583Y136773D01*
X190964Y136359D01*
X190551Y135741D01*
X190406Y135011D01*
Y130090D01*
X190506Y129585D01*
Y126614D01*
Y125924D01*
X189003Y124420D01*
X180751D01*
X180060Y124283D01*
X179474Y123891D01*
X176035Y120453D01*
X175644Y119867D01*
X175506Y119176D01*
Y114846D01*
X175406Y114342D01*
Y109421D01*
X175506Y108916D01*
Y106724D01*
X167833Y99050D01*
X164147D01*
X163520Y99469D01*
X162598Y99653D01*
X161677Y99469D01*
X160895Y98947D01*
X160373Y98166D01*
X160190Y97244D01*
X160373Y96322D01*
X160895Y95541D01*
X161677Y95019D01*
X162598Y94836D01*
X163520Y95019D01*
X164147Y95438D01*
X168581D01*
X169272Y95575D01*
X169858Y95967D01*
X178590Y104699D01*
X178982Y105285D01*
X179119Y105976D01*
X179119Y105976D01*
X179119Y105976D01*
Y105976D01*
Y108916D01*
X179219Y109421D01*
Y114342D01*
X179119Y114846D01*
Y118428D01*
X181499Y120808D01*
X189751D01*
X190442Y120945D01*
X191028Y121337D01*
X193590Y123899D01*
X193982Y124485D01*
X194119Y125176D01*
Y125866D01*
X195677Y127424D01*
X195992Y127895D01*
X198524D01*
Y127889D01*
X198587Y127895D01*
X198726D01*
X199792Y127755D01*
X200664Y127393D01*
Y125164D01*
X211239D01*
Y134239D01*
X200664D01*
Y132009D01*
X199792Y131648D01*
X198726Y131508D01*
X198587D01*
X198524Y131514D01*
Y131508D01*
X194220D01*
Y135011D01*
X194074Y135741D01*
X193661Y136359D01*
X193042Y136773D01*
X192313Y136918D01*
D02*
G37*
G36*
X47500Y131401D02*
X46578Y131217D01*
X45797Y130695D01*
X45275Y129914D01*
X45092Y128992D01*
X45275Y128070D01*
X45797Y127289D01*
X46578Y126767D01*
X47318Y126620D01*
X55623Y118315D01*
X55623Y118315D01*
X55623Y118315D01*
Y118315D01*
X55623Y118315D01*
Y118315D01*
X56209Y117923D01*
X56900Y117786D01*
X79372D01*
X79999Y117367D01*
X80920Y117184D01*
X81842Y117367D01*
X82623Y117889D01*
X83146Y118670D01*
X83329Y119592D01*
X83146Y120514D01*
X82623Y121295D01*
X81842Y121817D01*
X80920Y122001D01*
X79999Y121817D01*
X79372Y121398D01*
X57648D01*
X49872Y129174D01*
X49725Y129914D01*
X49203Y130695D01*
X48422Y131217D01*
X47500Y131401D01*
D02*
G37*
G36*
X209097Y120065D02*
X202806D01*
X205951Y116920D01*
X209097Y120065D01*
D02*
G37*
G36*
X167097D02*
X160806D01*
X163952Y116920D01*
X167097Y120065D01*
D02*
G37*
G36*
X194183Y116212D02*
X190443D01*
Y115143D01*
X192313Y113273D01*
X194183Y115143D01*
Y116212D01*
D02*
G37*
G36*
X182313Y116248D02*
X181583Y116103D01*
X180965Y115690D01*
X180551Y115071D01*
X180545Y115041D01*
X182313Y113273D01*
X184080Y115041D01*
X184074Y115071D01*
X183661Y115690D01*
X183042Y116103D01*
X182313Y116248D01*
D02*
G37*
G36*
X211239Y119424D02*
X207343Y115528D01*
X211239Y111633D01*
Y119424D01*
D02*
G37*
G36*
X200664D02*
Y111633D01*
X204559Y115528D01*
X200664Y119424D01*
D02*
G37*
G36*
X169239D02*
X165343Y115528D01*
X169239Y111633D01*
Y119424D01*
D02*
G37*
G36*
X158664D02*
Y111633D01*
X162559Y115528D01*
X158664Y119424D01*
D02*
G37*
G36*
X194183Y112359D02*
X193705Y111881D01*
X194183Y111403D01*
Y112359D01*
D02*
G37*
G36*
X190443D02*
Y111403D01*
X190921Y111881D01*
X190443Y112359D01*
D02*
G37*
G36*
X184220Y112396D02*
X183705Y111881D01*
X184220Y111366D01*
Y112396D01*
D02*
G37*
G36*
X180406D02*
Y111366D01*
X180921Y111881D01*
X180406Y112396D01*
D02*
G37*
G36*
X205951Y114136D02*
X202806Y110991D01*
X209097D01*
X205951Y114136D01*
D02*
G37*
G36*
X163952D02*
X160806Y110991D01*
X167097D01*
X163952Y114136D01*
D02*
G37*
G36*
X192313Y110489D02*
X190443Y108619D01*
Y107550D01*
X194183D01*
Y108619D01*
X192313Y110489D01*
D02*
G37*
G36*
X182313D02*
X180506Y108683D01*
Y107297D01*
X180644Y106606D01*
X181035Y106020D01*
X181622Y105628D01*
X182313Y105491D01*
X183004Y105628D01*
X183590Y106020D01*
X183982Y106606D01*
X184119Y107297D01*
Y108683D01*
X182313Y110489D01*
D02*
G37*
G36*
X196586Y101602D02*
X192795D01*
X194691Y99706D01*
X196586Y101602D01*
D02*
G37*
G36*
X197228Y99460D02*
X196083Y98314D01*
X197228Y97169D01*
Y99460D01*
D02*
G37*
G36*
X192153D02*
Y97169D01*
X193299Y98314D01*
X192153Y99460D01*
D02*
G37*
G36*
X194691Y96922D02*
X192795Y95027D01*
X196586D01*
X194691Y96922D01*
D02*
G37*
G36*
X187313Y116248D02*
X186583Y116103D01*
X185965Y115690D01*
X185551Y115071D01*
X185406Y114342D01*
Y113271D01*
X185306Y112767D01*
Y101602D01*
X184673D01*
Y95027D01*
X189748D01*
Y101602D01*
X189320D01*
Y112767D01*
X189219Y113271D01*
Y114342D01*
X189074Y115071D01*
X188661Y115690D01*
X188042Y116103D01*
X187313Y116248D01*
D02*
G37*
G36*
X176297Y94360D02*
X175167Y94211D01*
X174113Y93775D01*
X173209Y93081D01*
X172514Y92176D01*
X172078Y91123D01*
X171929Y89992D01*
X172078Y88862D01*
X172514Y87808D01*
X173209Y86903D01*
X174113Y86209D01*
X175167Y85773D01*
X176297Y85624D01*
X177428Y85773D01*
X178481Y86209D01*
X179386Y86903D01*
X180080Y87808D01*
X180517Y88862D01*
X180665Y89992D01*
X180517Y91123D01*
X180080Y92176D01*
X179386Y93081D01*
X178481Y93775D01*
X177428Y94211D01*
X176297Y94360D01*
D02*
G37*
G36*
X166297D02*
X165167Y94211D01*
X164113Y93775D01*
X163209Y93081D01*
X162514Y92176D01*
X162078Y91123D01*
X161929Y89992D01*
X162078Y88862D01*
X162514Y87808D01*
X163209Y86903D01*
X164113Y86209D01*
X165167Y85773D01*
X166297Y85624D01*
X167428Y85773D01*
X168481Y86209D01*
X169386Y86903D01*
X170080Y87808D01*
X170517Y88862D01*
X170665Y89992D01*
X170517Y91123D01*
X170080Y92176D01*
X169386Y93081D01*
X168481Y93775D01*
X167428Y94211D01*
X166297Y94360D01*
D02*
G37*
G36*
X69762D02*
X68631Y94211D01*
X67578Y93775D01*
X66673Y93081D01*
X65979Y92176D01*
X65543Y91123D01*
X65394Y89992D01*
X65543Y88862D01*
X65979Y87808D01*
X66673Y86903D01*
X67578Y86209D01*
X68631Y85773D01*
X69762Y85624D01*
X70892Y85773D01*
X71946Y86209D01*
X72851Y86903D01*
X73545Y87808D01*
X73981Y88862D01*
X74130Y89992D01*
X73981Y91123D01*
X73545Y92176D01*
X72851Y93081D01*
X71946Y93775D01*
X70892Y94211D01*
X69762Y94360D01*
D02*
G37*
G36*
X59762D02*
X58631Y94211D01*
X57578Y93775D01*
X56673Y93081D01*
X55979Y92176D01*
X55543Y91123D01*
X55394Y89992D01*
X55543Y88862D01*
X55979Y87808D01*
X56673Y86903D01*
X57578Y86209D01*
X58631Y85773D01*
X59762Y85624D01*
X60892Y85773D01*
X61946Y86209D01*
X62850Y86903D01*
X63545Y87808D01*
X63981Y88862D01*
X64130Y89992D01*
X63981Y91123D01*
X63545Y92176D01*
X62850Y93081D01*
X61946Y93775D01*
X60892Y94211D01*
X59762Y94360D01*
D02*
G37*
G36*
X42242Y90820D02*
X41009Y90658D01*
X39860Y90182D01*
X38873Y89425D01*
X38115Y88438D01*
X37639Y87288D01*
X37477Y86055D01*
X37639Y84822D01*
X38115Y83672D01*
X38873Y82686D01*
X39860Y81928D01*
X41009Y81452D01*
X42242Y81290D01*
X43475Y81452D01*
X44625Y81928D01*
X45612Y82686D01*
X46369Y83672D01*
X46845Y84822D01*
X47007Y86055D01*
X46845Y87288D01*
X46369Y88438D01*
X45612Y89425D01*
X44625Y90182D01*
X43475Y90658D01*
X42242Y90820D01*
D02*
G37*
G36*
X226931Y86334D02*
Y80850D01*
X229673Y83592D01*
X226931Y86334D01*
D02*
G37*
G36*
X9134D02*
X6392Y83592D01*
X9134Y80850D01*
Y86334D01*
D02*
G37*
G36*
X94471Y84012D02*
Y80134D01*
X98348D01*
X94471Y84012D01*
D02*
G37*
G36*
X92502D02*
X88625Y80134D01*
X92502D01*
Y84012D01*
D02*
G37*
G36*
X203558Y81762D02*
X201116Y79321D01*
X203558Y76879D01*
X203679Y77037D01*
X204135Y78139D01*
X204291Y79321D01*
X204135Y80502D01*
X203679Y81604D01*
X203558Y81762D01*
D02*
G37*
G36*
X193817Y90820D02*
X192584Y90658D01*
X191434Y90182D01*
X190447Y89425D01*
X189690Y88438D01*
X189214Y87288D01*
X189052Y86055D01*
X189214Y84822D01*
X189690Y83672D01*
X190447Y82686D01*
X191434Y81928D01*
X192584Y81452D01*
X193817Y81290D01*
X194753Y81413D01*
X195362Y80620D01*
X195313Y80502D01*
X195158Y79321D01*
X195313Y78139D01*
X195770Y77037D01*
X195891Y76879D01*
X199029Y80016D01*
X202166Y83154D01*
X202008Y83275D01*
X200906Y83732D01*
X199724Y83887D01*
X198926Y83782D01*
X198318Y84575D01*
X198420Y84822D01*
X198582Y86055D01*
X198420Y87288D01*
X197944Y88438D01*
X197187Y89425D01*
X196200Y90182D01*
X195050Y90658D01*
X193817Y90820D01*
D02*
G37*
G36*
X199724Y77929D02*
X197283Y75487D01*
X197441Y75366D01*
X198542Y74910D01*
X199724Y74754D01*
X200906Y74910D01*
X202008Y75366D01*
X202166Y75487D01*
X199724Y77929D01*
D02*
G37*
G36*
X98348Y78165D02*
X94471D01*
Y74288D01*
X98348Y78165D01*
D02*
G37*
G36*
X92502D02*
X88625D01*
X92502Y74288D01*
Y78165D01*
D02*
G37*
G36*
X86415Y76248D02*
X85336Y76106D01*
X84331Y75689D01*
X83467Y75027D01*
X82804Y74163D01*
X82388Y73158D01*
X82266Y72236D01*
X82235Y72079D01*
X82246D01*
X82258Y71988D01*
X82101Y71199D01*
X81717Y70625D01*
X81574Y70481D01*
X81574Y70481D01*
X81574Y70481D01*
X75187Y64094D01*
X74665Y63313D01*
X74481Y62391D01*
Y24596D01*
X74481Y24596D01*
X74481D01*
X74665Y23674D01*
X75187Y22893D01*
X80269Y17811D01*
Y11484D01*
X79926Y11037D01*
X79609Y10271D01*
X79500Y9449D01*
X79609Y8627D01*
X79926Y7860D01*
X80431Y7203D01*
X81089Y6698D01*
X81855Y6380D01*
X82677Y6272D01*
X83499Y6380D01*
X84266Y6698D01*
X84923Y7203D01*
X85428Y7860D01*
X85746Y8627D01*
X85854Y9449D01*
X85746Y10271D01*
X85428Y11037D01*
X85086Y11484D01*
Y18809D01*
X84902Y19730D01*
X84380Y20512D01*
X79298Y25594D01*
Y61394D01*
X85370Y67465D01*
X85370Y67465D01*
X85370Y67465D01*
X85459Y67555D01*
X85840Y67809D01*
X86371Y67915D01*
X86415Y67909D01*
Y67898D01*
X86573Y67930D01*
X87494Y68051D01*
X88500Y68468D01*
X89364Y69130D01*
X90026Y69994D01*
X90443Y70999D01*
X90585Y72079D01*
X90443Y73158D01*
X90026Y74163D01*
X89364Y75027D01*
X88500Y75689D01*
X87494Y76106D01*
X86415Y76248D01*
D02*
G37*
G36*
X118110Y74301D02*
X116672Y74160D01*
X115289Y73740D01*
X114014Y73059D01*
X112897Y72142D01*
X111980Y71025D01*
X111299Y69750D01*
X110880Y68367D01*
X110738Y66929D01*
X110880Y65491D01*
X111299Y64108D01*
X111980Y62833D01*
X112897Y61716D01*
X114014Y60799D01*
X115289Y60118D01*
X116672Y59699D01*
X118110Y59557D01*
X119548Y59699D01*
X120931Y60118D01*
X122206Y60799D01*
X123323Y61716D01*
X124240Y62833D01*
X124921Y64108D01*
X125341Y65491D01*
X125482Y66929D01*
X125341Y68367D01*
X124921Y69750D01*
X124240Y71025D01*
X123323Y72142D01*
X122206Y73059D01*
X120931Y73740D01*
X119548Y74160D01*
X118110Y74301D01*
D02*
G37*
G36*
X150512Y60265D02*
X149330Y60110D01*
X148229Y59653D01*
X148070Y59532D01*
X150512Y57090D01*
X152953Y59532D01*
X152795Y59653D01*
X151694Y60110D01*
X150512Y60265D01*
D02*
G37*
G36*
X85709Y60206D02*
X84527Y60050D01*
X83425Y59594D01*
X83267Y59473D01*
X85709Y57031D01*
X88150Y59473D01*
X87992Y59594D01*
X86891Y60050D01*
X85709Y60206D01*
D02*
G37*
G36*
X199724Y57116D02*
X198542Y56960D01*
X197441Y56504D01*
X197283Y56382D01*
X199724Y53941D01*
X202166Y56382D01*
X202008Y56504D01*
X200906Y56960D01*
X199724Y57116D01*
D02*
G37*
G36*
X227387Y58140D02*
X227266Y57982D01*
X226810Y56880D01*
X226654Y55699D01*
X226810Y54517D01*
X227266Y53415D01*
X227387Y53257D01*
X229829Y55699D01*
X227387Y58140D01*
D02*
G37*
G36*
X154345D02*
X151904Y55699D01*
X154345Y53257D01*
X154467Y53415D01*
X154923Y54517D01*
X155078Y55699D01*
X154923Y56880D01*
X154467Y57982D01*
X154345Y58140D01*
D02*
G37*
G36*
X146678D02*
X146557Y57982D01*
X146101Y56880D01*
X145945Y55699D01*
X146101Y54517D01*
X146557Y53415D01*
X146678Y53257D01*
X149120Y55699D01*
X146678Y58140D01*
D02*
G37*
G36*
X89542Y58081D02*
X87100Y55639D01*
X89542Y53198D01*
X89663Y53356D01*
X90120Y54457D01*
X90275Y55639D01*
X90120Y56821D01*
X89663Y57923D01*
X89542Y58081D01*
D02*
G37*
G36*
X81875D02*
X81754Y57923D01*
X81298Y56821D01*
X81142Y55639D01*
X81298Y54457D01*
X81754Y53356D01*
X81875Y53198D01*
X84317Y55639D01*
X81875Y58081D01*
D02*
G37*
G36*
X8833D02*
X6392Y55639D01*
X8833Y53198D01*
X8955Y53356D01*
X9411Y54457D01*
X9567Y55639D01*
X9411Y56821D01*
X8955Y57923D01*
X8833Y58081D01*
D02*
G37*
G36*
X150512Y54307D02*
X148070Y51865D01*
X148229Y51744D01*
X149330Y51287D01*
X150512Y51132D01*
X151694Y51287D01*
X152795Y51744D01*
X152953Y51865D01*
X150512Y54307D01*
D02*
G37*
G36*
X85709Y54247D02*
X83267Y51806D01*
X83425Y51685D01*
X84527Y51228D01*
X85709Y51073D01*
X86891Y51228D01*
X87992Y51685D01*
X88150Y51806D01*
X85709Y54247D01*
D02*
G37*
G36*
X203558Y54990D02*
X201116Y52549D01*
X203558Y50107D01*
X203679Y50266D01*
X204135Y51367D01*
X204291Y52549D01*
X204135Y53731D01*
X203679Y54832D01*
X203558Y54990D01*
D02*
G37*
G36*
X195891D02*
X195770Y54832D01*
X195313Y53731D01*
X195158Y52549D01*
X195313Y51367D01*
X195770Y50266D01*
X195891Y50107D01*
X198333Y52549D01*
X195891Y54990D01*
D02*
G37*
G36*
X186536Y57076D02*
X177480D01*
Y48021D01*
X186536D01*
Y57076D01*
D02*
G37*
G36*
X199724Y51157D02*
X197283Y48715D01*
X197441Y48594D01*
X198542Y48138D01*
X199724Y47982D01*
X200906Y48138D01*
X202008Y48594D01*
X202166Y48715D01*
X199724Y51157D01*
D02*
G37*
G36*
X118091Y46423D02*
X117011Y46281D01*
X116006Y45864D01*
X115142Y45202D01*
X114480Y44338D01*
X114063Y43333D01*
X113921Y42254D01*
X114063Y41174D01*
X114480Y40169D01*
X115142Y39305D01*
X116006Y38643D01*
X117011Y38226D01*
X118091Y38084D01*
X119170Y38226D01*
X120175Y38643D01*
X121039Y39305D01*
X121702Y40169D01*
X122118Y41174D01*
X122260Y42254D01*
X122118Y43333D01*
X121702Y44338D01*
X121039Y45202D01*
X120175Y45864D01*
X119170Y46281D01*
X118091Y46423D01*
D02*
G37*
G36*
X199724Y36643D02*
X198542Y36487D01*
X197441Y36031D01*
X197283Y35910D01*
X199724Y33468D01*
X202166Y35910D01*
X202008Y36031D01*
X200906Y36487D01*
X199724Y36643D01*
D02*
G37*
G36*
X54212Y36584D02*
X53031Y36428D01*
X51929Y35972D01*
X51771Y35851D01*
X54212Y33409D01*
X56654Y35851D01*
X56496Y35972D01*
X55395Y36428D01*
X54212Y36584D01*
D02*
G37*
G36*
X153647Y33454D02*
X147376D01*
X150512Y30319D01*
X153647Y33454D01*
D02*
G37*
G36*
X85709Y33434D02*
X84527Y33279D01*
X83425Y32822D01*
X83267Y32701D01*
X85709Y30260D01*
X88150Y32701D01*
X87992Y32822D01*
X86891Y33279D01*
X85709Y33434D01*
D02*
G37*
G36*
X203558Y34518D02*
X201116Y32076D01*
X203558Y29635D01*
X203679Y29793D01*
X204135Y30895D01*
X204291Y32076D01*
X204135Y33258D01*
X203679Y34360D01*
X203558Y34518D01*
D02*
G37*
G36*
X195891D02*
X195770Y34360D01*
X195313Y33258D01*
X195158Y32076D01*
X195313Y30895D01*
X195770Y29793D01*
X195891Y29635D01*
X198333Y32076D01*
X195891Y34518D01*
D02*
G37*
G36*
X58046Y34459D02*
X55604Y32017D01*
X58046Y29576D01*
X58167Y29734D01*
X58624Y30835D01*
X58779Y32017D01*
X58624Y33199D01*
X58167Y34301D01*
X58046Y34459D01*
D02*
G37*
G36*
X50379D02*
X50258Y34301D01*
X49801Y33199D01*
X49646Y32017D01*
X49801Y30835D01*
X50258Y29734D01*
X50379Y29576D01*
X52821Y32017D01*
X50379Y34459D01*
D02*
G37*
G36*
X199724Y30685D02*
X197283Y28243D01*
X197441Y28122D01*
X198542Y27665D01*
X199724Y27510D01*
X200906Y27665D01*
X202008Y28122D01*
X202166Y28243D01*
X199724Y30685D01*
D02*
G37*
G36*
X54212Y30625D02*
X51771Y28184D01*
X51929Y28062D01*
X53031Y27606D01*
X54212Y27451D01*
X55395Y27606D01*
X56496Y28062D01*
X56654Y28184D01*
X54212Y30625D01*
D02*
G37*
G36*
X227387Y31368D02*
X227266Y31210D01*
X226810Y30109D01*
X226654Y28927D01*
X226810Y27745D01*
X227266Y26643D01*
X227387Y26485D01*
X229829Y28927D01*
X227387Y31368D01*
D02*
G37*
G36*
X89542Y31309D02*
X87100Y28868D01*
X89542Y26426D01*
X89663Y26584D01*
X90120Y27686D01*
X90275Y28868D01*
X90120Y30050D01*
X89663Y31151D01*
X89542Y31309D01*
D02*
G37*
G36*
X81875D02*
X81754Y31151D01*
X81298Y30050D01*
X81142Y28868D01*
X81298Y27686D01*
X81754Y26584D01*
X81875Y26426D01*
X84317Y28868D01*
X81875Y31309D01*
D02*
G37*
G36*
X155039Y32062D02*
X151904Y28927D01*
X155039Y25791D01*
Y32062D01*
D02*
G37*
G36*
X145984D02*
Y25791D01*
X149120Y28927D01*
X145984Y32062D01*
D02*
G37*
G36*
X9527Y32003D02*
X6392Y28868D01*
X9527Y25732D01*
Y32003D01*
D02*
G37*
G36*
X218032Y33454D02*
X208976D01*
Y24399D01*
X218032D01*
Y33454D01*
D02*
G37*
G36*
X150512Y27535D02*
X147376Y24399D01*
X153647D01*
X150512Y27535D01*
D02*
G37*
G36*
X168228Y33493D02*
X167046Y33338D01*
X165945Y32882D01*
X164999Y32156D01*
X164274Y31210D01*
X163817Y30109D01*
X163662Y28927D01*
X163817Y27745D01*
X164274Y26643D01*
X164999Y25698D01*
X165945Y24972D01*
X167046Y24516D01*
X168228Y24360D01*
X169410Y24516D01*
X170512Y24972D01*
X171458Y25698D01*
X172183Y26643D01*
X172639Y27745D01*
X172795Y28927D01*
X172639Y30109D01*
X172183Y31210D01*
X171458Y32156D01*
X170512Y32882D01*
X169410Y33338D01*
X168228Y33493D01*
D02*
G37*
G36*
X72520Y33395D02*
X63464D01*
Y24340D01*
X72520D01*
Y33395D01*
D02*
G37*
G36*
X85709Y27476D02*
X83267Y25034D01*
X83425Y24913D01*
X84527Y24457D01*
X85709Y24301D01*
X86891Y24457D01*
X87992Y24913D01*
X88150Y25034D01*
X85709Y27476D01*
D02*
G37*
G36*
X22716Y33434D02*
X21534Y33279D01*
X20433Y32822D01*
X19487Y32097D01*
X18762Y31151D01*
X18305Y30050D01*
X18150Y28868D01*
X18305Y27686D01*
X18762Y26584D01*
X19487Y25639D01*
X20433Y24913D01*
X21534Y24457D01*
X22716Y24301D01*
X23898Y24457D01*
X25000Y24913D01*
X25946Y25639D01*
X26671Y26584D01*
X27128Y27686D01*
X27283Y28868D01*
X27128Y30050D01*
X26671Y31151D01*
X25946Y32097D01*
X25000Y32822D01*
X23898Y33279D01*
X22716Y33434D01*
D02*
G37*
G36*
X159843Y26878D02*
X159020Y26769D01*
X158254Y26452D01*
X157596Y25947D01*
X157091Y25289D01*
X156774Y24523D01*
X156666Y23701D01*
Y20551D01*
X156774Y19729D01*
X157091Y18963D01*
X157596Y18305D01*
X158254Y17800D01*
X159020Y17483D01*
X159843Y17374D01*
X160665Y17483D01*
X161431Y17800D01*
X162089Y18305D01*
X162594Y18963D01*
X162911Y19729D01*
X163019Y20551D01*
Y23701D01*
X162911Y24523D01*
X162594Y25289D01*
X162089Y25947D01*
X161431Y26452D01*
X160665Y26769D01*
X159843Y26878D01*
D02*
G37*
G36*
X131496D02*
X130674Y26769D01*
X129908Y26452D01*
X129250Y25947D01*
X128745Y25289D01*
X128428Y24523D01*
X128319Y23701D01*
Y20551D01*
X128428Y19729D01*
X128745Y18963D01*
X129250Y18305D01*
X129908Y17800D01*
X130674Y17483D01*
X131496Y17374D01*
X132318Y17483D01*
X133084Y17800D01*
X133742Y18305D01*
X134247Y18963D01*
X134565Y19729D01*
X134673Y20551D01*
Y23701D01*
X134565Y24523D01*
X134247Y25289D01*
X133742Y25947D01*
X133084Y26452D01*
X132318Y26769D01*
X131496Y26878D01*
D02*
G37*
G36*
X153543Y18915D02*
X152814Y18769D01*
X152195Y18356D01*
X151782Y17738D01*
X151637Y17008D01*
X151782Y16278D01*
X152195Y15660D01*
X152814Y15246D01*
X153543Y15101D01*
X154273Y15246D01*
X154892Y15660D01*
X155305Y16278D01*
X155450Y17008D01*
X155305Y17738D01*
X154892Y18356D01*
X154273Y18769D01*
X153543Y18915D01*
D02*
G37*
G36*
X137795D02*
X137066Y18769D01*
X136447Y18356D01*
X136034Y17738D01*
X135889Y17008D01*
X136034Y16278D01*
X136447Y15660D01*
X137066Y15246D01*
X137795Y15101D01*
X138525Y15246D01*
X139144Y15660D01*
X139557Y16278D01*
X139702Y17008D01*
X139557Y17738D01*
X139144Y18356D01*
X138525Y18769D01*
X137795Y18915D01*
D02*
G37*
G36*
X199724Y9871D02*
X198542Y9716D01*
X197441Y9260D01*
X197283Y9138D01*
X199724Y6697D01*
X202166Y9138D01*
X202008Y9260D01*
X200906Y9716D01*
X199724Y9871D01*
D02*
G37*
G36*
X54212Y9812D02*
X53031Y9657D01*
X51929Y9200D01*
X51771Y9079D01*
X54212Y6638D01*
X56654Y9079D01*
X56496Y9200D01*
X55395Y9657D01*
X54212Y9812D01*
D02*
G37*
G36*
X98425Y12626D02*
X97603Y12517D01*
X96837Y12200D01*
X96179Y11695D01*
X95674Y11037D01*
X95357Y10271D01*
X95248Y9449D01*
X95357Y8627D01*
X95674Y7860D01*
X96179Y7203D01*
X96837Y6698D01*
X97603Y6380D01*
X98425Y6272D01*
X99247Y6380D01*
X100014Y6698D01*
X100672Y7203D01*
X101176Y7860D01*
X101494Y8627D01*
X101602Y9449D01*
X101494Y10271D01*
X101176Y11037D01*
X100672Y11695D01*
X100014Y12200D01*
X99247Y12517D01*
X98425Y12626D01*
D02*
G37*
G36*
X109449Y14173D02*
X103150D01*
Y4724D01*
X109449D01*
Y14173D01*
D02*
G37*
G36*
X77953D02*
X71653D01*
Y4724D01*
X77953D01*
Y14173D01*
D02*
G37*
G36*
X159843Y13216D02*
X159020Y13108D01*
X158254Y12791D01*
X157596Y12286D01*
X157091Y11628D01*
X156774Y10862D01*
X156666Y10039D01*
Y6890D01*
X156774Y6067D01*
X157091Y5301D01*
X157596Y4643D01*
X158254Y4139D01*
X159020Y3821D01*
X159843Y3713D01*
X160665Y3821D01*
X161431Y4139D01*
X162089Y4643D01*
X162594Y5301D01*
X162911Y6067D01*
X163019Y6890D01*
Y10039D01*
X162911Y10862D01*
X162594Y11628D01*
X162089Y12286D01*
X161431Y12791D01*
X160665Y13108D01*
X159843Y13216D01*
D02*
G37*
G36*
X131496D02*
X130674Y13108D01*
X129908Y12791D01*
X129250Y12286D01*
X128745Y11628D01*
X128428Y10862D01*
X128319Y10039D01*
Y6890D01*
X128428Y6067D01*
X128745Y5301D01*
X129250Y4643D01*
X129908Y4139D01*
X130674Y3821D01*
X131496Y3713D01*
X132318Y3821D01*
X133084Y4139D01*
X133742Y4643D01*
X134247Y5301D01*
X134565Y6067D01*
X134673Y6890D01*
Y10039D01*
X134565Y10862D01*
X134247Y11628D01*
X133742Y12286D01*
X133084Y12791D01*
X132318Y13108D01*
X131496Y13216D01*
D02*
G37*
%LPD*%
D11*
X36496Y39840D02*
G03*
X38787Y34308I7823J0D01*
G01*
X36496Y37426D02*
G03*
X38080Y33601I5408J0D01*
G01*
X34205Y34308D02*
G03*
X36496Y39840I-5531J5531D01*
G01*
X34912Y33601D02*
G03*
X36496Y37425I-3824J3824D01*
G01*
X175136Y79714D02*
G03*
X179717Y81612I0J6478D01*
G01*
X177550Y79714D02*
G03*
X180424Y80905I0J4064D01*
G01*
X179717Y77029D02*
G03*
X173235Y79714I-6482J-6482D01*
G01*
X180424Y77737D02*
G03*
X175649Y79714I-4775J-4775D01*
G01*
X181131Y78444D02*
G03*
X178064Y79714I-3067J-3067D01*
G01*
X187818Y38280D02*
G03*
X185248Y32076I6203J-6203D01*
G01*
X186110Y36573D02*
G03*
X184248Y32076I4496J-4496D01*
G01*
X182008Y35317D02*
G03*
X186867Y37329I0J6872D01*
G01*
X182008Y34317D02*
G03*
X185160Y35622I0J4458D01*
G01*
X208645Y60951D02*
G03*
X213504Y58939I4859J4859D01*
G01*
X210352Y59244D02*
G03*
X213504Y57939I3152J3152D01*
G01*
X210264Y55699D02*
G03*
X207694Y61902I-8773J0D01*
G01*
X211264Y55699D02*
G03*
X209401Y60195I-6359J0D01*
G01*
X162869Y61159D02*
G03*
X168228Y58939I5360J5360D01*
G01*
X164576Y59452D02*
G03*
X168228Y57939I3653J3653D01*
G01*
X164988Y55699D02*
G03*
X162626Y61401I-8065J0D01*
G01*
X165988Y55699D02*
G03*
X164333Y59694I-5651J0D01*
G01*
X140270Y163547D02*
G03*
X139510Y165382I-2595J0D01*
G01*
X141030D02*
G03*
X140270Y163547I1835J-1835D01*
G01*
X146353Y140544D02*
G03*
X143951Y141539I-2403J-2403D01*
G01*
X145026Y142614D02*
G03*
X145551Y141347I1792J0D01*
G01*
X148721Y148545D02*
G03*
X147980Y150332I-2528J0D01*
G01*
X149500D02*
G03*
X148721Y148450I1882J-1882D01*
G01*
X146512Y156879D02*
G03*
X144677Y156120I0J-2595D01*
G01*
Y157640D02*
G03*
X146512Y156879I1835J1835D01*
G01*
X121183Y145457D02*
G03*
X119348Y146217I-1835J-1835D01*
G01*
X120423Y147292D02*
G03*
X121183Y145457I2595J0D01*
G01*
X137951Y213594D02*
Y242114D01*
X148721Y142350D02*
X150283Y140787D01*
X148721Y142350D02*
Y151092D01*
X152283Y84281D02*
Y155129D01*
X144283Y142614D02*
X148283Y138614D01*
X143951Y142614D02*
X144283D01*
X148283Y78572D02*
Y138614D01*
X140270Y140095D02*
Y164644D01*
Y140095D02*
X146283Y134081D01*
Y77744D02*
Y134081D01*
X150533Y156879D02*
X152283Y155129D01*
X150283Y79401D02*
Y140787D01*
X156851Y79714D02*
X182008D01*
X152283Y84281D02*
X156851Y79714D01*
X119348Y147292D02*
X123048Y143592D01*
Y127949D02*
Y143592D01*
X191220Y41683D02*
Y55592D01*
X182008Y32470D02*
X191220Y41683D01*
X167935Y56092D02*
X168228D01*
X162264Y64592D02*
X182220D01*
X191220Y55592D01*
X163092Y66592D02*
X203004D01*
X213504Y56092D01*
X37716Y32470D02*
Y33632D01*
X36496Y34852D02*
X37716Y33632D01*
X36496Y34852D02*
Y41396D01*
X123048Y127949D01*
X143917Y156879D02*
X150533D01*
X150283Y79401D02*
X163092Y66592D01*
X148283Y78572D02*
X162264Y64592D01*
X146283Y77744D02*
X167935Y56092D01*
D16*
X181171Y144184D02*
G03*
X180009Y141377I2807J-2807D01*
G01*
X189536Y141272D02*
G03*
X188330Y144183I-4117J0D01*
G01*
X182018Y135011D02*
G03*
X180649Y138316I-4674J0D01*
G01*
X189105Y138624D02*
G03*
X187608Y135011I3613J-3613D01*
G01*
X187313Y131665D02*
Y136832D01*
X189536Y139056D01*
Y143268D01*
X182313Y131665D02*
Y136652D01*
X180009Y138956D02*
Y143268D01*
Y138956D02*
X182313Y136652D01*
D20*
X120791Y215014D02*
D03*
X113310D02*
D03*
X90191Y182614D02*
D03*
X82710D02*
D03*
X52711Y205614D02*
D03*
X60191D02*
D03*
X189011Y145614D02*
D03*
X196491D02*
D03*
X180491Y145614D02*
D03*
X173010D02*
D03*
X194691Y98314D02*
D03*
X187210D02*
D03*
D47*
X117656Y243910D02*
G03*
X112951Y245858I-4705J-4705D01*
G01*
X115639Y245926D02*
G03*
X112951Y247039I-2688J-2688D01*
G01*
X115707Y248614D02*
G03*
X117656Y243910I6653J0D01*
G01*
X114526Y248614D02*
G03*
X115639Y245926I3802J0D01*
G01*
X132951Y231486D02*
G03*
X130863Y236526I-7129J0D01*
G01*
X132951Y234337D02*
G03*
X131698Y237361I-4277J0D01*
G01*
X135039Y236526D02*
G03*
X132951Y231486I5041J-5041D01*
G01*
X134204Y237361D02*
G03*
X132951Y234337I3024J-3024D01*
G01*
X9963Y160392D02*
G03*
X6949Y159143I0J-4263D01*
G01*
Y163041D02*
G03*
X13343Y160392I6395J6395D01*
G01*
X6114Y162206D02*
G03*
X10492Y160392I4378J4378D01*
G01*
X9963Y170392D02*
G03*
X6949Y169143I0J-4263D01*
G01*
Y173041D02*
G03*
X13343Y170392I6395J6395D01*
G01*
X6114Y172206D02*
G03*
X10492Y170392I4378J4378D01*
G01*
X31413Y56092D02*
G03*
X24944Y53412I0J-9149D01*
G01*
X28562Y56092D02*
G03*
X24108Y54247I0J-6298D01*
G01*
X24944Y57867D02*
G03*
X29227Y56092I4284J4284D01*
G01*
X67992Y63243D02*
G03*
X70219Y57867I7604J0D01*
G01*
X67992Y60392D02*
G03*
X69384Y57031I4752J0D01*
G01*
X65765Y57867D02*
G03*
X67992Y63243I-5377J5377D01*
G01*
X66600Y57031D02*
G03*
X67992Y60392I-3361J3361D01*
G01*
X124554Y32175D02*
G03*
X120039Y30305I0J-6385D01*
G01*
X121702Y32175D02*
G03*
X119204Y31140I0J-3533D01*
G01*
X120039Y34202D02*
G03*
X124934Y32175I4895J4895D01*
G01*
X119204Y33367D02*
G03*
X122082Y32175I2878J2878D01*
G01*
X124744Y52254D02*
G03*
X120039Y50305I0J-6653D01*
G01*
X121892Y52254D02*
G03*
X119204Y51140I0J-3802D01*
G01*
X120039Y54202D02*
G03*
X124744Y52254I4705J4705D01*
G01*
X119204Y53367D02*
G03*
X121892Y52254I2688J2688D01*
G01*
X138307Y133738D02*
G03*
X137611Y135418I-2376J0D01*
G01*
X139003D02*
G03*
X138307Y133738I1680J-1680D01*
G01*
X141951Y126238D02*
G03*
X141255Y127918I-2376J0D01*
G01*
X142647D02*
G03*
X141951Y126238I1680J-1680D01*
G01*
X146041Y205524D02*
G03*
X147721Y204828I1680J1680D01*
G01*
X146737Y203844D02*
G03*
X146041Y205524I-2376J0D01*
G01*
X139892Y205324D02*
G03*
X141572Y204628I1680J1680D01*
G01*
X140588Y203644D02*
G03*
X139892Y205324I-2376J0D01*
G01*
X125505Y145554D02*
G03*
X126201Y147234I-1680J1680D01*
G01*
X127185Y146250D02*
G03*
X125505Y145554I0J-2376D01*
G01*
X124647Y149269D02*
G03*
X127185Y148218I2538J2538D01*
G01*
X119548Y136716D02*
G03*
X118852Y138396I-2376J0D01*
G01*
X120244D02*
G03*
X119548Y136716I1680J-1680D01*
G01*
X117172Y139092D02*
G03*
X118852Y139788I0J2376D01*
G01*
Y138396D02*
G03*
X117172Y139092I-1680J-1680D01*
G01*
X48235Y56092D02*
X119548Y127405D01*
X22716Y56092D02*
X48235D01*
X137951Y213614D02*
X147721Y203844D01*
X141951Y127632D02*
X142933Y128614D01*
X141951Y48614D02*
Y127632D01*
X125512Y32175D02*
X141951Y48614D01*
X46888Y139092D02*
X119548D01*
X25588Y160392D02*
X46888Y139092D01*
X5000Y160392D02*
X25588D01*
X47651Y141414D02*
X106242D01*
X18673Y170392D02*
X47651Y141414D01*
X5000Y170392D02*
X18673D01*
X106242Y141414D02*
X116772Y151944D01*
X119548Y127405D02*
Y139092D01*
X132951Y212266D02*
Y238614D01*
X116772Y151944D02*
X121972D01*
X132951Y212266D02*
X141572Y203644D01*
X67992Y57313D02*
X69213Y56092D01*
X67992Y57313D02*
Y69936D01*
X118032Y32175D02*
X125512D01*
X67992Y69936D02*
X125216Y127161D01*
X138307Y64754D02*
Y136114D01*
X118091Y52254D02*
X125807D01*
X138307Y64754D01*
X125216Y127161D02*
Y145265D01*
X126934Y146983D01*
X121972Y151944D02*
X126934Y146983D01*
X112951Y248614D02*
X117860Y243705D01*
X136380D01*
X137951Y242134D01*
D48*
X226721Y133592D02*
G03*
X229082Y134876I0J2813D01*
G01*
Y132308D02*
G03*
X226721Y133592I-2361J-1529D01*
G01*
Y103592D02*
G03*
X229082Y104876I0J2813D01*
G01*
Y102308D02*
G03*
X226721Y103592I-2361J-1529D01*
G01*
X12482Y128131D02*
G03*
X5000Y131230I-7482J-7482D01*
G01*
X9121Y131491D02*
G03*
X5000Y133198I-4121J-4121D01*
G01*
X9032Y107625D02*
G03*
X7362Y103592I4033J-4033D01*
G01*
X5000Y105954D02*
G03*
X9032Y107625I0J5703D01*
G01*
X125172Y186080D02*
G03*
X123224Y190784I-6653J0D01*
G01*
X127121D02*
G03*
X125172Y186080I4705J-4705D01*
G01*
X117267Y186206D02*
G03*
X119267Y185377I2000J2000D01*
G01*
X124302Y189329D02*
G03*
X125320Y188002I2111J566D01*
G01*
X125025D02*
G03*
X126043Y189329I-1093J1893D01*
G01*
X68561Y189592D02*
G03*
X63857Y187643I0J-6653D01*
G01*
Y191541D02*
G03*
X68561Y189592I4705J4705D01*
G01*
X65312Y188721D02*
G03*
X66639Y189740I-566J2111D01*
G01*
Y189444D02*
G03*
X65312Y190463I-1893J-1093D01*
G01*
X112557Y215541D02*
G03*
X108831Y224538I-12724J0D01*
G01*
X112557Y220293D02*
G03*
X110223Y225930I-7971J0D01*
G01*
X198524Y129701D02*
G03*
X203246Y131657I0J6677D01*
G01*
Y127746D02*
G03*
X198524Y129701I-4721J-4721D01*
G01*
X111583Y219178D02*
G03*
X113693Y216428I4375J1172D01*
G01*
X112557Y219431D02*
G03*
X113852Y216306I4419J0D01*
G01*
Y213723D02*
G03*
X112557Y210598I3125J-3125D01*
G01*
X192382Y130159D02*
G03*
X193488Y129701I1106J1106D01*
G01*
X192382Y130159D02*
G03*
X193488Y129701I1106J1106D01*
G01*
X182313Y107297D02*
Y111881D01*
X177313Y105976D02*
Y119176D01*
X159843Y211584D02*
Y213380D01*
X157108Y216114D02*
X159843Y213380D01*
X172451Y108514D02*
Y131665D01*
X168555Y104618D02*
X172451Y108514D01*
X156315Y104618D02*
X168555D01*
X162598Y97244D02*
X168581D01*
X177313Y105976D01*
X192313Y126614D02*
X194400Y128701D01*
X193600Y129701D02*
X205951D01*
X192313Y126614D02*
Y131665D01*
Y125176D02*
Y126614D01*
X177313Y119176D02*
X180751Y122614D01*
X189751D01*
X192313Y125176D01*
X112557Y190915D02*
Y227244D01*
Y190915D02*
X119267Y184205D01*
X125151Y158651D02*
X125172Y158673D01*
X226442Y133314D02*
X226720Y133592D01*
X222720Y129592D02*
X226442Y133314D01*
X192313Y112767D02*
Y114118D01*
X59806Y189592D02*
X69648D01*
X56900Y119592D02*
X80920D01*
X47500Y128992D02*
X56900Y119592D01*
X222720Y107592D02*
Y129592D01*
Y107592D02*
X226720Y103592D01*
X231220D01*
X226720Y133592D02*
X231220D01*
X5000Y103592D02*
X12820Y111413D01*
Y127792D01*
X7020Y133592D02*
X12820Y127792D01*
X5000Y133592D02*
X7020D01*
X125172Y184993D02*
Y194835D01*
X133465Y169291D02*
X159843Y195669D01*
Y211584D01*
D49*
X83277Y68778D02*
G03*
X84644Y72079I-3300J3300D01*
G01*
X86415Y70307D02*
G03*
X83667Y69168I0J-3887D01*
G01*
X172450Y131665D02*
G03*
X166509Y128492I0J-7149D01*
G01*
X172451Y131665D02*
X176609D01*
X165915D02*
X172451D01*
X163952Y129701D02*
X165915Y131665D01*
X76890Y62391D02*
X86453Y71954D01*
X76890Y24596D02*
Y62391D01*
Y24596D02*
X82677Y18809D01*
Y9449D02*
Y18809D01*
X156315Y104618D02*
X156315Y104618D01*
D51*
X89945Y169087D02*
G03*
X83273Y166324I0J-9436D01*
G01*
X58096Y190845D02*
G03*
X60157Y195821I-4977J4977D01*
G01*
X52513Y189592D02*
G03*
X55537Y190845I0J4277D01*
G01*
Y188339D02*
G03*
X52513Y189592I-3024J-3024D01*
G01*
X29872Y179950D02*
G03*
X31808Y180752I0J2737D01*
G01*
X82577Y167020D02*
X84645Y169087D01*
X94916D01*
X29872Y167593D02*
Y180344D01*
Y167593D02*
X50451Y147014D01*
X101214D01*
X112851Y158651D01*
X125151D01*
X129154D01*
X221065Y226092D02*
Y236092D01*
Y216092D02*
Y226092D01*
Y206092D02*
Y216092D01*
Y196092D02*
Y206092D01*
X40648Y189592D02*
X59806D01*
X5000Y206092D02*
Y216092D01*
Y196092D02*
Y206092D01*
X29872Y180344D02*
X31400D01*
X40648Y189592D01*
X129154Y158651D02*
X134173Y153631D01*
Y142903D02*
Y153631D01*
X130925Y139655D02*
X134173Y142903D01*
X130925Y98710D02*
Y139655D01*
X90551Y9449D02*
Y18080D01*
X124716Y194379D02*
X125172Y194835D01*
X90551Y18080D02*
X96575Y24104D01*
Y64360D01*
X130925Y98710D01*
X60158Y205797D02*
Y216230D01*
X60157Y205797D02*
X60158Y205797D01*
X59806Y189592D02*
X60157Y189944D01*
Y205797D01*
X82577Y167020D02*
Y181974D01*
X5000Y181092D02*
Y196092D01*
D52*
X166297Y89992D02*
D03*
X176297D02*
D03*
X69762D02*
D03*
X59762D02*
D03*
X62951Y238614D02*
D03*
X72951D02*
D03*
X82951D02*
D03*
X92951D02*
D03*
X102951D02*
D03*
X112951D02*
D03*
X122951D02*
D03*
X132951D02*
D03*
X142951D02*
D03*
X152951D02*
D03*
X162951D02*
D03*
X172951D02*
D03*
X157108Y216114D02*
D03*
D53*
X164976Y161674D02*
D03*
Y180572D02*
D03*
D54*
X118110Y66929D02*
D03*
X220472Y267717D02*
D03*
X15748D02*
D03*
D55*
X131496Y8465D02*
D03*
X159843D02*
D03*
Y22126D02*
D03*
X131496D02*
D03*
D56*
X118091Y42254D02*
D03*
Y52254D02*
D03*
Y32254D02*
D03*
X5000Y93592D02*
D03*
Y103592D02*
D03*
X5000Y123592D02*
D03*
Y113592D02*
D03*
Y171092D02*
D03*
Y161092D02*
D03*
Y151092D02*
D03*
X15000Y196092D02*
D03*
X5000D02*
D03*
X15000Y206092D02*
D03*
X5000D02*
D03*
X15000Y216092D02*
D03*
X5000D02*
D03*
X231065Y93592D02*
D03*
Y103592D02*
D03*
Y123592D02*
D03*
Y113592D02*
D03*
X221065Y236092D02*
D03*
X231065D02*
D03*
X221065Y226092D02*
D03*
X231065D02*
D03*
X221065Y216092D02*
D03*
X231065D02*
D03*
X221065Y206092D02*
D03*
X231065D02*
D03*
X221065Y196092D02*
D03*
X231065D02*
D03*
X112951Y248614D02*
D03*
X86415Y72079D02*
D03*
D57*
X150512Y55699D02*
D03*
X168228D02*
D03*
Y28927D02*
D03*
X213504Y55699D02*
D03*
X231221D02*
D03*
Y28927D02*
D03*
X182008Y32076D02*
D03*
X199724D02*
D03*
Y5305D02*
D03*
X182008Y79321D02*
D03*
X199724D02*
D03*
Y52549D02*
D03*
X67992Y55639D02*
D03*
X85709D02*
D03*
Y28868D02*
D03*
X36496Y32017D02*
D03*
X54212D02*
D03*
Y5246D02*
D03*
X5000Y55639D02*
D03*
X22716D02*
D03*
Y28868D02*
D03*
D58*
X150512Y28927D02*
D03*
X213504D02*
D03*
X182008Y5305D02*
D03*
Y52549D02*
D03*
X67992Y28868D02*
D03*
X36496Y5246D02*
D03*
X5000Y28868D02*
D03*
D59*
X5000Y83592D02*
D03*
X5000Y133592D02*
D03*
Y181092D02*
D03*
X231065Y83592D02*
D03*
Y133592D02*
D03*
D60*
X25000Y196092D02*
D03*
Y206092D02*
D03*
Y216092D02*
D03*
X211065Y236092D02*
D03*
Y226092D02*
D03*
Y216092D02*
D03*
Y206092D02*
D03*
Y196092D02*
D03*
X122951Y248614D02*
D03*
D61*
X176793Y216114D02*
D03*
D62*
X93486Y79150D02*
D03*
D63*
X74803Y9449D02*
D03*
X106299D02*
D03*
D64*
X98425D02*
D03*
X90551D02*
D03*
X82677D02*
D03*
D65*
X52577Y167020D02*
D03*
Y157020D02*
D03*
X62577Y167020D02*
D03*
Y157020D02*
D03*
X72577Y167020D02*
D03*
Y157020D02*
D03*
X82577Y167020D02*
D03*
D66*
Y157020D02*
D03*
D67*
X87341Y272965D02*
D03*
X48482D02*
D03*
D68*
X97341D02*
D03*
X38482D02*
D03*
D69*
X42242Y242748D02*
D03*
X193817D02*
D03*
X42242Y86055D02*
D03*
X193817D02*
D03*
D70*
X182313Y107297D02*
D03*
X161417Y43307D02*
D03*
X224410D02*
D03*
X192913Y19685D02*
D03*
X118110Y23622D02*
D03*
Y11811D02*
D03*
X70866Y43307D02*
D03*
X15748D02*
D03*
X62992Y19685D02*
D03*
X47244D02*
D03*
X11811Y251969D02*
D03*
Y244094D02*
D03*
Y236221D02*
D03*
X141548Y220317D02*
D03*
X141648Y229917D02*
D03*
X179134Y167323D02*
D03*
Y171260D02*
D03*
X153543Y177165D02*
D03*
X179134Y175197D02*
D03*
X205709Y187008D02*
D03*
Y179134D02*
D03*
Y172244D02*
D03*
Y165354D02*
D03*
X218504Y112205D02*
D03*
Y119095D02*
D03*
X86572Y112044D02*
D03*
X37402Y127953D02*
D03*
X27559D02*
D03*
X17717D02*
D03*
X47244Y119095D02*
D03*
X37402D02*
D03*
X27559D02*
D03*
X17717D02*
D03*
X172751Y142614D02*
D03*
X29951Y168614D02*
D03*
X29872Y174614D02*
D03*
X119548Y139092D02*
D03*
X119348Y147292D02*
D03*
X47500Y128992D02*
D03*
X80920Y119592D02*
D03*
X109672Y182392D02*
D03*
X143917Y156879D02*
D03*
X29872Y180344D02*
D03*
X127185Y147234D02*
D03*
X141572Y203644D02*
D03*
X147721Y203844D02*
D03*
X148740Y151092D02*
D03*
X143951Y142614D02*
D03*
X133465Y169291D02*
D03*
X140270Y166142D02*
D03*
X162598Y97244D02*
D03*
X195751Y142614D02*
D03*
X141951Y128614D02*
D03*
X138307Y136114D02*
D03*
X156315Y104618D02*
D03*
X96504Y204205D02*
D03*
X90504D02*
D03*
X94504Y214205D02*
D03*
X98504Y210205D02*
D03*
X90504Y218205D02*
D03*
X84504Y204205D02*
D03*
X46504Y178205D02*
D03*
Y184205D02*
D03*
X154504Y164205D02*
D03*
X102504Y132205D02*
D03*
X8504Y144205D02*
D03*
D71*
X178324Y214583D02*
G03*
X174409Y205131I9452J-9452D01*
G01*
X176376Y216532D02*
G03*
X174409Y211785I4747J-4747D01*
G01*
X173963Y219452D02*
G03*
X176793Y218279I2830J2830D01*
G01*
X174628Y216114D02*
G03*
X172738Y220677I-6453J0D01*
G01*
X112951Y233386D02*
G03*
X111420Y237083I-5228J0D01*
G01*
X114482D02*
G03*
X112951Y233386I3697J-3697D01*
G01*
X226443Y133314D02*
G03*
X229517Y134808I0J3910D01*
G01*
X229673Y132200D02*
G03*
X226984Y133314I-2689J-2689D01*
G01*
X226443Y137122D02*
G03*
X230864Y135550I3864J3864D01*
G01*
X225840Y137725D02*
G03*
X231065Y135561I5224J5224D01*
G01*
X5000Y220571D02*
G03*
X6331Y217542I4112J0D01*
G01*
X3669D02*
G03*
X5000Y220571I-2781J3029D01*
G01*
X11528Y227100D02*
G03*
X6968Y216092I11007J-11007D01*
G01*
X6823Y222395D02*
G03*
X4213Y216092I6303J-6303D01*
G01*
X109146Y229707D02*
G03*
X112951Y238614I-8523J8906D01*
G01*
X111052Y227716D02*
G03*
X112951Y232162I-4254J4446D01*
G01*
X104820Y227144D02*
G03*
X109109Y228921I0J6066D01*
G01*
Y225566D02*
G03*
X105300Y227144I-3810J-3810D01*
G01*
X174409Y189155D02*
Y219005D01*
X176793Y216622D01*
X149074Y212737D02*
Y220501D01*
X154154Y225580D01*
X167835D01*
X176793Y216114D02*
Y216622D01*
X149074Y212737D02*
X154331Y207480D01*
Y200000D02*
Y207480D01*
X151245Y196914D02*
X154331Y200000D01*
X226442Y133314D02*
Y137122D01*
X174409Y189155D02*
X226442Y137122D01*
X112557Y226059D02*
Y227992D01*
X111709Y227144D02*
X112557Y227992D01*
X113251Y206414D02*
X130651D01*
X140151Y196914D01*
X151245D01*
X226442Y133314D02*
X230942D01*
X231220Y133592D01*
X5000Y216092D02*
Y220572D01*
X112951Y228385D02*
Y238614D01*
X5000Y220572D02*
X11572Y227144D01*
X111709D01*
X112557Y227992D02*
X112951Y228385D01*
X109672Y182392D02*
X118672D01*
X167835Y225580D02*
X174409Y219005D01*
D72*
X82308Y182962D02*
G03*
X80559Y183687I-1749J-1749D01*
G01*
X187313Y98314D02*
Y112767D01*
X125172Y158673D02*
Y184993D01*
X70435Y183687D02*
X81001D01*
D73*
X192313Y111881D02*
D03*
D74*
X187313D02*
D03*
X182313D02*
D03*
X177313D02*
D03*
X192313Y132550D02*
D03*
X187313D02*
D03*
X182313D02*
D03*
X177313D02*
D03*
D75*
X205951Y115528D02*
D03*
Y129701D02*
D03*
X163952Y115528D02*
D03*
Y129701D02*
D03*
D76*
X73609Y215408D02*
D03*
X60224D02*
D03*
D77*
X94916Y155702D02*
D03*
Y169087D02*
D03*
D78*
X124958Y227245D02*
D03*
X110785D02*
D03*
D79*
X71035Y195498D02*
D03*
Y183687D02*
D03*
D80*
X69749Y189592D02*
D03*
D81*
X59349D02*
D03*
D82*
X131078Y183606D02*
D03*
X119267D02*
D03*
D83*
X125172Y184892D02*
D03*
D84*
Y195292D02*
D03*
M02*
