G04*
G04 #@! TF.GenerationSoftware,Altium Limited,Altium Designer,22.2.1 (43)*
G04*
G04 Layer_Color=65535*
%FSLAX25Y25*%
%MOIN*%
G70*
G04*
G04 #@! TF.SameCoordinates,9C75C661-4079-485B-A4B9-5B77D2324FE1*
G04*
G04*
G04 #@! TF.FilePolarity,Positive*
G04*
G01*
G75*
%ADD10C,0.00984*%
%ADD11C,0.01000*%
%ADD12C,0.00787*%
%ADD13C,0.00800*%
%ADD14C,0.00600*%
%ADD15C,0.00394*%
%ADD16C,0.01575*%
%ADD17C,0.00000*%
G36*
X164233Y210123D02*
X164342Y210114D01*
X164460Y210094D01*
X164588Y210074D01*
X164735Y210054D01*
X165040Y209966D01*
X165208Y209917D01*
X165365Y209848D01*
X165532Y209779D01*
X165690Y209681D01*
X165847Y209582D01*
X165995Y209464D01*
X166005Y209454D01*
X166024Y209435D01*
X166064Y209395D01*
X166113Y209346D01*
X166172Y209277D01*
X166241Y209189D01*
X166320Y209090D01*
X166398Y208982D01*
X166477Y208864D01*
X166556Y208716D01*
X166624Y208569D01*
X166703Y208401D01*
X166772Y208224D01*
X166821Y208037D01*
X166870Y207840D01*
X166910Y207624D01*
X165680Y207526D01*
Y207536D01*
X165670Y207555D01*
X165660Y207594D01*
X165650Y207644D01*
X165631Y207703D01*
X165611Y207772D01*
X165562Y207929D01*
X165493Y208106D01*
X165414Y208283D01*
X165316Y208451D01*
X165208Y208588D01*
X165198Y208598D01*
X165188Y208608D01*
X165158Y208638D01*
X165119Y208667D01*
X165070Y208716D01*
X165011Y208756D01*
X164863Y208854D01*
X164686Y208952D01*
X164470Y209041D01*
X164233Y209100D01*
X164105Y209110D01*
X163968Y209120D01*
X163869D01*
X163761Y209100D01*
X163613Y209080D01*
X163456Y209041D01*
X163279Y208982D01*
X163102Y208893D01*
X162925Y208785D01*
X162915D01*
X162895Y208766D01*
X162866Y208746D01*
X162826Y208706D01*
X162728Y208608D01*
X162590Y208470D01*
X162443Y208293D01*
X162285Y208077D01*
X162137Y207831D01*
X162000Y207536D01*
Y207526D01*
X161990Y207496D01*
X161970Y207447D01*
X161951Y207388D01*
X161921Y207299D01*
X161891Y207201D01*
X161862Y207073D01*
X161832Y206935D01*
X161803Y206778D01*
X161773Y206610D01*
X161744Y206414D01*
X161714Y206207D01*
X161695Y205981D01*
X161675Y205735D01*
X161665Y205479D01*
X161655Y205203D01*
X161665Y205213D01*
X161675Y205233D01*
X161705Y205272D01*
X161734Y205312D01*
X161773Y205371D01*
X161832Y205440D01*
X161960Y205587D01*
X162118Y205754D01*
X162305Y205922D01*
X162511Y206079D01*
X162748Y206217D01*
X162757D01*
X162777Y206227D01*
X162816Y206246D01*
X162856Y206266D01*
X162925Y206296D01*
X162994Y206325D01*
X163072Y206355D01*
X163161Y206384D01*
X163367Y206443D01*
X163594Y206502D01*
X163840Y206542D01*
X164105Y206552D01*
X164164D01*
X164224Y206542D01*
X164312D01*
X164420Y206522D01*
X164548Y206502D01*
X164686Y206473D01*
X164834Y206433D01*
X164991Y206384D01*
X165168Y206325D01*
X165336Y206256D01*
X165513Y206168D01*
X165700Y206060D01*
X165877Y205941D01*
X166044Y205794D01*
X166211Y205636D01*
X166221Y205627D01*
X166251Y205597D01*
X166290Y205538D01*
X166349Y205469D01*
X166418Y205381D01*
X166487Y205272D01*
X166566Y205144D01*
X166654Y204997D01*
X166733Y204839D01*
X166812Y204662D01*
X166880Y204465D01*
X166949Y204259D01*
X167008Y204032D01*
X167048Y203796D01*
X167077Y203550D01*
X167087Y203285D01*
Y203275D01*
Y203245D01*
Y203196D01*
X167077Y203127D01*
Y203039D01*
X167067Y202940D01*
X167058Y202832D01*
X167038Y202704D01*
X166989Y202429D01*
X166910Y202133D01*
X166812Y201828D01*
X166674Y201513D01*
Y201504D01*
X166654Y201474D01*
X166634Y201435D01*
X166595Y201385D01*
X166556Y201317D01*
X166506Y201238D01*
X166378Y201061D01*
X166211Y200854D01*
X166024Y200647D01*
X165798Y200451D01*
X165542Y200274D01*
X165532D01*
X165513Y200254D01*
X165473Y200234D01*
X165414Y200205D01*
X165345Y200175D01*
X165267Y200136D01*
X165178Y200097D01*
X165070Y200057D01*
X164962Y200018D01*
X164834Y199978D01*
X164558Y199909D01*
X164253Y199860D01*
X164086Y199850D01*
X163918Y199841D01*
X163850D01*
X163771Y199850D01*
X163663Y199860D01*
X163535Y199880D01*
X163377Y199900D01*
X163210Y199939D01*
X163023Y199978D01*
X162826Y200037D01*
X162629Y200116D01*
X162413Y200205D01*
X162206Y200323D01*
X161990Y200451D01*
X161783Y200598D01*
X161586Y200775D01*
X161399Y200972D01*
X161390Y200982D01*
X161360Y201031D01*
X161311Y201090D01*
X161252Y201189D01*
X161173Y201317D01*
X161094Y201474D01*
X161006Y201651D01*
X160917Y201868D01*
X160819Y202114D01*
X160730Y202389D01*
X160652Y202694D01*
X160583Y203039D01*
X160514Y203403D01*
X160465Y203816D01*
X160435Y204249D01*
X160425Y204721D01*
Y204731D01*
Y204751D01*
Y204790D01*
Y204849D01*
Y204918D01*
X160435Y204997D01*
Y205095D01*
X160445Y205203D01*
Y205312D01*
X160455Y205440D01*
X160484Y205715D01*
X160514Y206020D01*
X160563Y206345D01*
X160612Y206689D01*
X160691Y207044D01*
X160770Y207398D01*
X160878Y207752D01*
X160996Y208086D01*
X161144Y208411D01*
X161311Y208706D01*
X161498Y208972D01*
X161508Y208982D01*
X161537Y209021D01*
X161596Y209080D01*
X161675Y209149D01*
X161764Y209238D01*
X161882Y209336D01*
X162019Y209444D01*
X162167Y209553D01*
X162344Y209661D01*
X162531Y209769D01*
X162738Y209868D01*
X162964Y209956D01*
X163210Y210025D01*
X163466Y210084D01*
X163741Y210123D01*
X164037Y210133D01*
X164155D01*
X164233Y210123D01*
D02*
G37*
G36*
X117247Y210123D02*
X117356Y210114D01*
X117474Y210094D01*
X117602Y210074D01*
X117749Y210054D01*
X118054Y209966D01*
X118221Y209917D01*
X118379Y209848D01*
X118546Y209779D01*
X118704Y209681D01*
X118861Y209582D01*
X119009Y209464D01*
X119019Y209454D01*
X119038Y209435D01*
X119078Y209395D01*
X119127Y209346D01*
X119186Y209277D01*
X119255Y209189D01*
X119334Y209090D01*
X119412Y208982D01*
X119491Y208864D01*
X119570Y208716D01*
X119639Y208569D01*
X119717Y208401D01*
X119786Y208224D01*
X119835Y208037D01*
X119885Y207840D01*
X119924Y207624D01*
X118694Y207526D01*
Y207536D01*
X118684Y207555D01*
X118674Y207594D01*
X118664Y207644D01*
X118645Y207703D01*
X118625Y207772D01*
X118576Y207929D01*
X118507Y208106D01*
X118428Y208283D01*
X118330Y208451D01*
X118221Y208588D01*
X118212Y208598D01*
X118202Y208608D01*
X118172Y208638D01*
X118133Y208667D01*
X118084Y208716D01*
X118025Y208756D01*
X117877Y208854D01*
X117700Y208952D01*
X117483Y209041D01*
X117247Y209100D01*
X117120Y209110D01*
X116982Y209120D01*
X116883D01*
X116775Y209100D01*
X116628Y209080D01*
X116470Y209041D01*
X116293Y208982D01*
X116116Y208893D01*
X115939Y208785D01*
X115929D01*
X115909Y208766D01*
X115880Y208746D01*
X115840Y208706D01*
X115742Y208608D01*
X115604Y208470D01*
X115456Y208293D01*
X115299Y208077D01*
X115152Y207831D01*
X115014Y207536D01*
Y207526D01*
X115004Y207496D01*
X114984Y207447D01*
X114964Y207388D01*
X114935Y207299D01*
X114906Y207201D01*
X114876Y207073D01*
X114846Y206935D01*
X114817Y206778D01*
X114787Y206610D01*
X114758Y206414D01*
X114728Y206207D01*
X114709Y205981D01*
X114689Y205735D01*
X114679Y205479D01*
X114669Y205203D01*
X114679Y205213D01*
X114689Y205233D01*
X114718Y205272D01*
X114748Y205312D01*
X114787Y205371D01*
X114846Y205440D01*
X114974Y205587D01*
X115132Y205754D01*
X115319Y205922D01*
X115525Y206079D01*
X115761Y206217D01*
X115771D01*
X115791Y206227D01*
X115830Y206246D01*
X115870Y206266D01*
X115939Y206296D01*
X116007Y206325D01*
X116086Y206355D01*
X116175Y206384D01*
X116382Y206443D01*
X116608Y206502D01*
X116854Y206542D01*
X117120Y206552D01*
X117178D01*
X117237Y206542D01*
X117326D01*
X117434Y206522D01*
X117562Y206502D01*
X117700Y206473D01*
X117848Y206433D01*
X118005Y206384D01*
X118182Y206325D01*
X118350Y206256D01*
X118527Y206168D01*
X118713Y206060D01*
X118891Y205941D01*
X119058Y205794D01*
X119225Y205636D01*
X119235Y205627D01*
X119265Y205597D01*
X119304Y205538D01*
X119363Y205469D01*
X119432Y205381D01*
X119501Y205272D01*
X119580Y205144D01*
X119668Y204997D01*
X119747Y204839D01*
X119825Y204662D01*
X119894Y204465D01*
X119963Y204259D01*
X120022Y204032D01*
X120062Y203796D01*
X120091Y203550D01*
X120101Y203285D01*
Y203275D01*
Y203245D01*
Y203196D01*
X120091Y203127D01*
Y203039D01*
X120081Y202940D01*
X120071Y202832D01*
X120052Y202704D01*
X120003Y202429D01*
X119924Y202133D01*
X119825Y201828D01*
X119688Y201513D01*
Y201504D01*
X119668Y201474D01*
X119648Y201435D01*
X119609Y201385D01*
X119570Y201317D01*
X119520Y201238D01*
X119393Y201061D01*
X119225Y200854D01*
X119038Y200647D01*
X118812Y200451D01*
X118556Y200274D01*
X118546D01*
X118527Y200254D01*
X118487Y200234D01*
X118428Y200205D01*
X118359Y200175D01*
X118281Y200136D01*
X118192Y200096D01*
X118084Y200057D01*
X117975Y200018D01*
X117848Y199978D01*
X117572Y199909D01*
X117267Y199860D01*
X117100Y199850D01*
X116932Y199841D01*
X116864D01*
X116785Y199850D01*
X116677Y199860D01*
X116549Y199880D01*
X116391Y199900D01*
X116224Y199939D01*
X116037Y199978D01*
X115840Y200037D01*
X115644Y200116D01*
X115427Y200205D01*
X115220Y200323D01*
X115004Y200451D01*
X114797Y200598D01*
X114600Y200775D01*
X114413Y200972D01*
X114404Y200982D01*
X114374Y201031D01*
X114325Y201090D01*
X114266Y201189D01*
X114187Y201317D01*
X114108Y201474D01*
X114020Y201651D01*
X113931Y201868D01*
X113833Y202114D01*
X113744Y202389D01*
X113666Y202694D01*
X113597Y203039D01*
X113528Y203403D01*
X113479Y203816D01*
X113449Y204249D01*
X113439Y204721D01*
Y204731D01*
Y204751D01*
Y204790D01*
Y204849D01*
Y204918D01*
X113449Y204997D01*
Y205095D01*
X113459Y205203D01*
Y205312D01*
X113469Y205440D01*
X113498Y205715D01*
X113528Y206020D01*
X113577Y206345D01*
X113626Y206689D01*
X113705Y207044D01*
X113784Y207398D01*
X113892Y207752D01*
X114010Y208086D01*
X114158Y208411D01*
X114325Y208706D01*
X114512Y208972D01*
X114522Y208982D01*
X114551Y209021D01*
X114610Y209080D01*
X114689Y209149D01*
X114778Y209238D01*
X114896Y209336D01*
X115033Y209444D01*
X115181Y209553D01*
X115358Y209661D01*
X115545Y209769D01*
X115752Y209868D01*
X115978Y209956D01*
X116224Y210025D01*
X116480Y210084D01*
X116755Y210123D01*
X117051Y210133D01*
X117169D01*
X117247Y210123D01*
D02*
G37*
G36*
X134556Y210261D02*
X134644D01*
X134763Y210251D01*
X134890Y210242D01*
X135028Y210222D01*
X135176Y210202D01*
X135333Y210182D01*
X135658Y210114D01*
X136002Y210025D01*
X136337Y209907D01*
X136347D01*
X136376Y209887D01*
X136425Y209868D01*
X136485Y209838D01*
X136554Y209808D01*
X136642Y209759D01*
X136839Y209651D01*
X137065Y209513D01*
X137292Y209346D01*
X137518Y209149D01*
X137724Y208923D01*
X137734Y208913D01*
X137744Y208893D01*
X137774Y208854D01*
X137813Y208805D01*
X137852Y208746D01*
X137901Y208667D01*
X137951Y208578D01*
X138010Y208480D01*
X138079Y208372D01*
X138138Y208244D01*
X138197Y208106D01*
X138266Y207959D01*
X138325Y207801D01*
X138384Y207634D01*
X138443Y207457D01*
X138492Y207270D01*
X137292Y206945D01*
Y206955D01*
X137282Y206975D01*
X137272Y207024D01*
X137252Y207073D01*
X137232Y207132D01*
X137203Y207211D01*
X137134Y207388D01*
X137055Y207575D01*
X136957Y207782D01*
X136849Y207978D01*
X136721Y208155D01*
Y208165D01*
X136701Y208175D01*
X136662Y208224D01*
X136583Y208313D01*
X136475Y208411D01*
X136337Y208520D01*
X136170Y208638D01*
X135983Y208756D01*
X135756Y208864D01*
X135747D01*
X135727Y208874D01*
X135697Y208893D01*
X135648Y208903D01*
X135589Y208923D01*
X135520Y208952D01*
X135442Y208972D01*
X135353Y209002D01*
X135146Y209041D01*
X134910Y209090D01*
X134644Y209120D01*
X134369Y209130D01*
X134212D01*
X134133Y209120D01*
X134044D01*
X133946Y209110D01*
X133828Y209090D01*
X133582Y209061D01*
X133316Y209012D01*
X133041Y208943D01*
X132785Y208844D01*
X132775D01*
X132755Y208834D01*
X132726Y208815D01*
X132676Y208795D01*
X132617Y208766D01*
X132558Y208736D01*
X132401Y208647D01*
X132234Y208539D01*
X132057Y208421D01*
X131879Y208274D01*
X131712Y208106D01*
X131693Y208086D01*
X131643Y208028D01*
X131574Y207939D01*
X131486Y207811D01*
X131378Y207663D01*
X131279Y207496D01*
X131171Y207309D01*
X131082Y207112D01*
Y207102D01*
X131063Y207073D01*
X131043Y207024D01*
X131023Y206945D01*
X130994Y206866D01*
X130964Y206758D01*
X130925Y206640D01*
X130895Y206512D01*
X130856Y206364D01*
X130817Y206207D01*
X130787Y206040D01*
X130758Y205863D01*
X130718Y205489D01*
X130699Y205085D01*
Y205066D01*
Y205026D01*
Y204957D01*
X130709Y204859D01*
Y204741D01*
X130728Y204613D01*
X130738Y204465D01*
X130758Y204298D01*
X130777Y204121D01*
X130817Y203944D01*
X130895Y203560D01*
X131014Y203186D01*
X131082Y202999D01*
X131161Y202822D01*
X131171Y202812D01*
X131181Y202783D01*
X131210Y202734D01*
X131250Y202675D01*
X131299Y202596D01*
X131358Y202517D01*
X131427Y202419D01*
X131506Y202310D01*
X131594Y202202D01*
X131693Y202094D01*
X131801Y201986D01*
X131929Y201868D01*
X132057Y201759D01*
X132194Y201661D01*
X132352Y201563D01*
X132509Y201474D01*
X132519D01*
X132549Y201454D01*
X132598Y201435D01*
X132667Y201405D01*
X132745Y201376D01*
X132844Y201336D01*
X132952Y201297D01*
X133080Y201258D01*
X133208Y201218D01*
X133355Y201179D01*
X133680Y201110D01*
X134025Y201061D01*
X134202Y201051D01*
X134389Y201041D01*
X134477D01*
X134536Y201051D01*
X134615D01*
X134704Y201061D01*
X134812Y201071D01*
X134930Y201080D01*
X135186Y201120D01*
X135471Y201179D01*
X135776Y201258D01*
X136081Y201366D01*
X136091D01*
X136120Y201385D01*
X136160Y201395D01*
X136219Y201425D01*
X136288Y201454D01*
X136366Y201494D01*
X136554Y201582D01*
X136750Y201691D01*
X136957Y201809D01*
X137163Y201946D01*
X137341Y202084D01*
Y203964D01*
X134379D01*
Y205154D01*
X138649D01*
Y201405D01*
X138639Y201395D01*
X138610Y201376D01*
X138551Y201326D01*
X138482Y201277D01*
X138393Y201208D01*
X138285Y201139D01*
X138157Y201061D01*
X138030Y200972D01*
X137882Y200874D01*
X137724Y200775D01*
X137380Y200588D01*
X137006Y200401D01*
X136612Y200234D01*
X136603D01*
X136563Y200215D01*
X136514Y200195D01*
X136435Y200175D01*
X136337Y200146D01*
X136229Y200106D01*
X136101Y200077D01*
X135953Y200037D01*
X135796Y199998D01*
X135628Y199969D01*
X135451Y199929D01*
X135264Y199900D01*
X134881Y199860D01*
X134467Y199841D01*
X134320D01*
X134221Y199850D01*
X134084Y199860D01*
X133936Y199870D01*
X133759Y199890D01*
X133572Y199919D01*
X133365Y199949D01*
X133159Y199998D01*
X132932Y200047D01*
X132696Y200106D01*
X132460Y200175D01*
X132224Y200264D01*
X131998Y200362D01*
X131761Y200470D01*
X131752Y200480D01*
X131712Y200500D01*
X131643Y200539D01*
X131565Y200588D01*
X131466Y200657D01*
X131348Y200736D01*
X131220Y200834D01*
X131082Y200943D01*
X130935Y201061D01*
X130787Y201199D01*
X130630Y201356D01*
X130482Y201513D01*
X130335Y201691D01*
X130187Y201887D01*
X130059Y202094D01*
X129931Y202310D01*
X129921Y202320D01*
X129902Y202369D01*
X129872Y202429D01*
X129833Y202527D01*
X129793Y202635D01*
X129734Y202773D01*
X129685Y202930D01*
X129626Y203098D01*
X129567Y203294D01*
X129518Y203501D01*
X129459Y203727D01*
X129420Y203964D01*
X129380Y204210D01*
X129351Y204465D01*
X129331Y204731D01*
X129321Y205007D01*
Y205026D01*
Y205076D01*
Y205154D01*
X129331Y205253D01*
X129341Y205390D01*
X129351Y205538D01*
X129370Y205715D01*
X129400Y205902D01*
X129429Y206109D01*
X129469Y206325D01*
X129518Y206552D01*
X129577Y206788D01*
X129646Y207024D01*
X129734Y207270D01*
X129823Y207506D01*
X129931Y207752D01*
X129941Y207772D01*
X129961Y207811D01*
X130000Y207870D01*
X130049Y207959D01*
X130108Y208067D01*
X130187Y208185D01*
X130275Y208323D01*
X130384Y208470D01*
X130502Y208618D01*
X130640Y208775D01*
X130777Y208933D01*
X130945Y209090D01*
X131112Y209248D01*
X131299Y209395D01*
X131496Y209523D01*
X131702Y209651D01*
X131712Y209661D01*
X131752Y209681D01*
X131820Y209710D01*
X131909Y209750D01*
X132017Y209799D01*
X132145Y209848D01*
X132303Y209907D01*
X132470Y209966D01*
X132657Y210015D01*
X132863Y210074D01*
X133080Y210123D01*
X133316Y210173D01*
X133562Y210212D01*
X133818Y210242D01*
X134093Y210261D01*
X134369Y210271D01*
X134477D01*
X134556Y210261D01*
D02*
G37*
G36*
X85543Y205302D02*
X89322Y200008D01*
X87678D01*
X85130Y203600D01*
X85120Y203609D01*
X85090Y203649D01*
X85051Y203718D01*
X84992Y203796D01*
X84933Y203885D01*
X84864Y203993D01*
X84706Y204229D01*
Y204219D01*
X84697Y204209D01*
X84657Y204141D01*
X84598Y204052D01*
X84529Y203944D01*
X84451Y203826D01*
X84372Y203698D01*
X84293Y203590D01*
X84234Y203501D01*
X81676Y200008D01*
X80072D01*
X83969Y205233D01*
X80534Y210094D01*
X82128D01*
X83969Y207516D01*
X83978Y207506D01*
X83998Y207476D01*
X84027Y207437D01*
X84057Y207388D01*
X84106Y207319D01*
X84165Y207240D01*
X84283Y207063D01*
X84411Y206856D01*
X84549Y206650D01*
X84667Y206453D01*
X84765Y206276D01*
Y206286D01*
X84785Y206296D01*
X84805Y206325D01*
X84825Y206364D01*
X84903Y206473D01*
X84992Y206620D01*
X85110Y206788D01*
X85248Y206975D01*
X85395Y207191D01*
X85563Y207407D01*
X87590Y210094D01*
X89046D01*
X85543Y205302D01*
D02*
G37*
G36*
X143786Y203039D02*
X139978D01*
Y204288D01*
X143786D01*
Y203039D01*
D02*
G37*
G36*
X71088Y203216D02*
Y203206D01*
Y203157D01*
Y203098D01*
Y203009D01*
X71078Y202901D01*
X71068Y202783D01*
X71058Y202645D01*
X71049Y202497D01*
X71009Y202183D01*
X70960Y201858D01*
X70881Y201543D01*
X70832Y201395D01*
X70773Y201257D01*
Y201248D01*
X70763Y201228D01*
X70744Y201189D01*
X70714Y201149D01*
X70684Y201090D01*
X70645Y201021D01*
X70537Y200864D01*
X70399Y200697D01*
X70232Y200520D01*
X70035Y200352D01*
X69799Y200205D01*
X69789D01*
X69769Y200185D01*
X69730Y200175D01*
X69681Y200146D01*
X69622Y200116D01*
X69543Y200087D01*
X69454Y200057D01*
X69356Y200027D01*
X69248Y199988D01*
X69130Y199959D01*
X68864Y199900D01*
X68569Y199860D01*
X68244Y199841D01*
X68185D01*
X68116Y199850D01*
X68028D01*
X67919Y199860D01*
X67791Y199880D01*
X67644Y199900D01*
X67496Y199939D01*
X67329Y199978D01*
X67162Y200027D01*
X66995Y200087D01*
X66827Y200165D01*
X66660Y200244D01*
X66502Y200352D01*
X66345Y200461D01*
X66207Y200598D01*
X66198Y200608D01*
X66178Y200638D01*
X66138Y200677D01*
X66099Y200736D01*
X66050Y200825D01*
X65991Y200913D01*
X65922Y201031D01*
X65863Y201169D01*
X65794Y201317D01*
X65735Y201484D01*
X65676Y201671D01*
X65627Y201877D01*
X65587Y202094D01*
X65558Y202330D01*
X65538Y202586D01*
Y202861D01*
X66739Y203029D01*
Y203019D01*
Y202979D01*
X66748Y202921D01*
Y202842D01*
X66758Y202753D01*
X66768Y202645D01*
X66788Y202527D01*
X66808Y202399D01*
X66857Y202143D01*
X66935Y201877D01*
X66985Y201759D01*
X67034Y201641D01*
X67093Y201543D01*
X67162Y201454D01*
X67181Y201435D01*
X67231Y201385D01*
X67319Y201317D01*
X67447Y201248D01*
X67595Y201169D01*
X67782Y201100D01*
X67998Y201051D01*
X68106Y201041D01*
X68234Y201031D01*
X68323D01*
X68411Y201041D01*
X68529Y201061D01*
X68667Y201090D01*
X68815Y201130D01*
X68963Y201179D01*
X69100Y201257D01*
X69120Y201267D01*
X69159Y201297D01*
X69218Y201346D01*
X69297Y201425D01*
X69386Y201513D01*
X69464Y201612D01*
X69543Y201740D01*
X69602Y201877D01*
X69612Y201897D01*
X69622Y201956D01*
X69642Y201996D01*
X69651Y202055D01*
X69661Y202114D01*
X69681Y202192D01*
X69691Y202271D01*
X69700Y202369D01*
X69720Y202468D01*
X69730Y202586D01*
X69740Y202704D01*
Y202842D01*
X69750Y202989D01*
Y203147D01*
Y210094D01*
X71088D01*
Y203216D01*
D02*
G37*
G36*
X126536Y203550D02*
X127894D01*
Y202419D01*
X126536D01*
Y200008D01*
X125296D01*
Y202419D01*
X120918D01*
Y203550D01*
X125523Y210094D01*
X126536D01*
Y203550D01*
D02*
G37*
G36*
X101307Y210123D02*
X101415D01*
X101533Y210114D01*
X101671Y210094D01*
X101828Y210064D01*
X102005Y210035D01*
X102182Y209986D01*
X102369Y209936D01*
X102566Y209868D01*
X102753Y209789D01*
X102950Y209700D01*
X103127Y209592D01*
X103304Y209464D01*
X103471Y209326D01*
X103481Y209316D01*
X103511Y209287D01*
X103550Y209248D01*
X103599Y209179D01*
X103668Y209100D01*
X103737Y209012D01*
X103816Y208903D01*
X103894Y208775D01*
X103973Y208638D01*
X104052Y208480D01*
X104121Y208323D01*
X104190Y208146D01*
X104239Y207959D01*
X104278Y207752D01*
X104308Y207545D01*
X104318Y207329D01*
Y207319D01*
Y207299D01*
Y207270D01*
Y207230D01*
X104308Y207171D01*
Y207112D01*
X104288Y206955D01*
X104259Y206778D01*
X104209Y206571D01*
X104150Y206355D01*
X104062Y206138D01*
Y206128D01*
X104052Y206109D01*
X104032Y206079D01*
X104013Y206040D01*
X103983Y205981D01*
X103954Y205922D01*
X103865Y205764D01*
X103757Y205587D01*
X103609Y205371D01*
X103442Y205144D01*
X103235Y204908D01*
X103225Y204898D01*
X103206Y204879D01*
X103176Y204839D01*
X103127Y204790D01*
X103058Y204721D01*
X102989Y204643D01*
X102891Y204554D01*
X102783Y204446D01*
X102664Y204328D01*
X102517Y204190D01*
X102369Y204042D01*
X102192Y203885D01*
X102005Y203718D01*
X101799Y203531D01*
X101572Y203344D01*
X101336Y203137D01*
X101326Y203127D01*
X101287Y203098D01*
X101228Y203048D01*
X101159Y202989D01*
X101070Y202911D01*
X100972Y202822D01*
X100736Y202625D01*
X100500Y202419D01*
X100264Y202212D01*
X100155Y202114D01*
X100057Y202015D01*
X99968Y201937D01*
X99900Y201868D01*
X99890Y201858D01*
X99850Y201809D01*
X99791Y201740D01*
X99713Y201661D01*
X99634Y201553D01*
X99545Y201445D01*
X99457Y201326D01*
X99378Y201199D01*
X104327D01*
Y200008D01*
X97666D01*
Y200018D01*
Y200028D01*
Y200087D01*
Y200165D01*
X97676Y200283D01*
X97695Y200411D01*
X97715Y200559D01*
X97754Y200707D01*
X97803Y200864D01*
Y200874D01*
X97813Y200893D01*
X97833Y200933D01*
X97853Y200982D01*
X97882Y201041D01*
X97912Y201110D01*
X98000Y201287D01*
X98118Y201494D01*
X98256Y201720D01*
X98423Y201956D01*
X98620Y202202D01*
X98630Y202212D01*
X98650Y202232D01*
X98679Y202271D01*
X98729Y202320D01*
X98787Y202379D01*
X98856Y202458D01*
X98935Y202547D01*
X99033Y202645D01*
X99142Y202743D01*
X99260Y202861D01*
X99398Y202989D01*
X99535Y203127D01*
X99693Y203265D01*
X99860Y203413D01*
X100047Y203570D01*
X100234Y203727D01*
X100254Y203747D01*
X100303Y203786D01*
X100391Y203855D01*
X100500Y203954D01*
X100637Y204062D01*
X100785Y204200D01*
X100952Y204347D01*
X101129Y204505D01*
X101503Y204849D01*
X101867Y205203D01*
X102035Y205381D01*
X102192Y205558D01*
X102340Y205715D01*
X102458Y205873D01*
X102468Y205882D01*
X102487Y205912D01*
X102517Y205951D01*
X102546Y206010D01*
X102596Y206079D01*
X102645Y206158D01*
X102694Y206256D01*
X102753Y206355D01*
X102861Y206581D01*
X102960Y206827D01*
X102989Y206965D01*
X103019Y207093D01*
X103038Y207230D01*
X103048Y207358D01*
Y207368D01*
Y207388D01*
Y207427D01*
X103038Y207486D01*
X103029Y207545D01*
X103019Y207614D01*
X102979Y207791D01*
X102920Y207988D01*
X102822Y208195D01*
X102763Y208293D01*
X102694Y208401D01*
X102615Y208500D01*
X102517Y208598D01*
X102507Y208608D01*
X102497Y208618D01*
X102458Y208647D01*
X102418Y208677D01*
X102369Y208716D01*
X102300Y208756D01*
X102232Y208805D01*
X102143Y208854D01*
X102054Y208903D01*
X101946Y208952D01*
X101710Y209031D01*
X101444Y209090D01*
X101297Y209100D01*
X101139Y209110D01*
X101051D01*
X100992Y209100D01*
X100913Y209090D01*
X100824Y209080D01*
X100726Y209061D01*
X100628Y209041D01*
X100391Y208982D01*
X100155Y208884D01*
X100037Y208824D01*
X99919Y208746D01*
X99811Y208667D01*
X99703Y208569D01*
X99693Y208559D01*
X99683Y208549D01*
X99654Y208510D01*
X99624Y208470D01*
X99585Y208421D01*
X99535Y208352D01*
X99486Y208274D01*
X99437Y208185D01*
X99388Y208086D01*
X99339Y207978D01*
X99299Y207850D01*
X99250Y207722D01*
X99221Y207585D01*
X99191Y207427D01*
X99181Y207270D01*
X99171Y207093D01*
X97902Y207221D01*
Y207240D01*
X97912Y207280D01*
X97922Y207358D01*
X97931Y207457D01*
X97961Y207575D01*
X97991Y207713D01*
X98030Y207860D01*
X98069Y208028D01*
X98128Y208195D01*
X98197Y208372D01*
X98276Y208549D01*
X98364Y208736D01*
X98473Y208913D01*
X98591Y209080D01*
X98729Y209238D01*
X98876Y209385D01*
X98886Y209395D01*
X98915Y209415D01*
X98965Y209454D01*
X99033Y209504D01*
X99122Y209562D01*
X99221Y209622D01*
X99348Y209690D01*
X99486Y209759D01*
X99644Y209828D01*
X99811Y209897D01*
X99998Y209956D01*
X100205Y210015D01*
X100421Y210064D01*
X100657Y210104D01*
X100903Y210123D01*
X101169Y210133D01*
X101238D01*
X101307Y210123D01*
D02*
G37*
G36*
X94655Y200008D02*
X93415Y200008D01*
Y207890D01*
X93405D01*
X93395Y207870D01*
X93366Y207850D01*
X93336Y207821D01*
X93238Y207732D01*
X93100Y207624D01*
X92933Y207496D01*
X92726Y207348D01*
X92490Y207191D01*
X92234Y207034D01*
X92224D01*
X92205Y207014D01*
X92165Y206994D01*
X92116Y206965D01*
X92047Y206925D01*
X91978Y206886D01*
X91801Y206798D01*
X91604Y206699D01*
X91388Y206591D01*
X91162Y206492D01*
X90945Y206404D01*
Y207594D01*
X90955Y207604D01*
X90994Y207614D01*
X91044Y207644D01*
X91122Y207683D01*
X91211Y207732D01*
X91309Y207791D01*
X91427Y207850D01*
X91555Y207929D01*
X91840Y208096D01*
X92146Y208303D01*
X92451Y208529D01*
X92756Y208775D01*
X92765Y208785D01*
X92785Y208805D01*
X92834Y208844D01*
X92883Y208893D01*
X92943Y208962D01*
X93021Y209031D01*
X93100Y209120D01*
X93189Y209208D01*
X93366Y209415D01*
X93543Y209641D01*
X93710Y209887D01*
X93789Y210005D01*
X93848Y210133D01*
X94655Y210133D01*
Y200008D01*
D02*
G37*
G36*
X74552Y201199D02*
X79511D01*
Y200008D01*
X73213D01*
Y210094D01*
X74552D01*
Y201199D01*
D02*
G37*
G36*
X156145Y210123D02*
X156263Y210114D01*
X156391Y210094D01*
X156529Y210064D01*
X156686Y210035D01*
X156853Y209996D01*
X157030Y209946D01*
X157208Y209887D01*
X157385Y209808D01*
X157562Y209720D01*
X157729Y209622D01*
X157896Y209504D01*
X158054Y209366D01*
X158064Y209356D01*
X158093Y209326D01*
X158133Y209287D01*
X158182Y209228D01*
X158241Y209159D01*
X158310Y209061D01*
X158379Y208962D01*
X158457Y208844D01*
X158536Y208716D01*
X158605Y208569D01*
X158674Y208421D01*
X158733Y208254D01*
X158782Y208077D01*
X158831Y207890D01*
X158851Y207703D01*
X158861Y207496D01*
Y207486D01*
Y207467D01*
Y207427D01*
X158851Y207378D01*
Y207319D01*
X158841Y207240D01*
X158811Y207073D01*
X158772Y206886D01*
X158703Y206679D01*
X158615Y206473D01*
X158487Y206266D01*
Y206256D01*
X158467Y206246D01*
X158418Y206178D01*
X158329Y206089D01*
X158211Y205971D01*
X158054Y205843D01*
X157867Y205715D01*
X157641Y205587D01*
X157375Y205469D01*
X157385D01*
X157414Y205459D01*
X157464Y205440D01*
X157522Y205410D01*
X157601Y205381D01*
X157690Y205341D01*
X157896Y205233D01*
X158123Y205095D01*
X158359Y204928D01*
X158585Y204731D01*
X158684Y204613D01*
X158782Y204495D01*
X158792Y204485D01*
X158802Y204465D01*
X158831Y204426D01*
X158861Y204377D01*
X158900Y204308D01*
X158940Y204239D01*
X158979Y204141D01*
X159028Y204042D01*
X159077Y203934D01*
X159117Y203806D01*
X159195Y203540D01*
X159254Y203226D01*
X159264Y203068D01*
X159274Y202891D01*
Y202881D01*
Y202832D01*
X159264Y202763D01*
Y202675D01*
X159245Y202566D01*
X159225Y202438D01*
X159195Y202291D01*
X159156Y202133D01*
X159107Y201966D01*
X159048Y201789D01*
X158979Y201612D01*
X158890Y201425D01*
X158782Y201238D01*
X158664Y201061D01*
X158516Y200884D01*
X158359Y200716D01*
X158349Y200707D01*
X158319Y200677D01*
X158261Y200638D01*
X158192Y200579D01*
X158103Y200510D01*
X157995Y200441D01*
X157857Y200362D01*
X157719Y200283D01*
X157552Y200195D01*
X157365Y200116D01*
X157168Y200047D01*
X156952Y199978D01*
X156726Y199919D01*
X156480Y199880D01*
X156224Y199850D01*
X155948Y199841D01*
X155879D01*
X155800Y199850D01*
X155702D01*
X155574Y199870D01*
X155427Y199890D01*
X155259Y199909D01*
X155082Y199949D01*
X154895Y199998D01*
X154698Y200057D01*
X154502Y200126D01*
X154305Y200215D01*
X154098Y200313D01*
X153901Y200431D01*
X153714Y200559D01*
X153537Y200716D01*
X153527Y200726D01*
X153498Y200756D01*
X153459Y200805D01*
X153400Y200874D01*
X153331Y200962D01*
X153252Y201071D01*
X153173Y201189D01*
X153085Y201326D01*
X152996Y201474D01*
X152917Y201641D01*
X152839Y201828D01*
X152770Y202025D01*
X152721Y202232D01*
X152671Y202448D01*
X152642Y202675D01*
X152632Y202921D01*
Y202930D01*
Y202960D01*
Y203019D01*
X152642Y203088D01*
X152652Y203167D01*
X152662Y203265D01*
X152671Y203373D01*
X152691Y203491D01*
X152750Y203757D01*
X152839Y204032D01*
X152898Y204170D01*
X152967Y204308D01*
X153035Y204436D01*
X153124Y204564D01*
X153134Y204574D01*
X153144Y204593D01*
X153173Y204623D01*
X153213Y204672D01*
X153272Y204731D01*
X153331Y204790D01*
X153409Y204859D01*
X153488Y204928D01*
X153586Y205007D01*
X153695Y205076D01*
X153813Y205154D01*
X153941Y205233D01*
X154078Y205302D01*
X154226Y205361D01*
X154384Y205420D01*
X154551Y205469D01*
X154541D01*
X154521Y205479D01*
X154472Y205499D01*
X154423Y205518D01*
X154364Y205548D01*
X154285Y205587D01*
X154118Y205676D01*
X153931Y205794D01*
X153734Y205932D01*
X153557Y206089D01*
X153400Y206276D01*
Y206286D01*
X153380Y206296D01*
X153370Y206325D01*
X153340Y206364D01*
X153311Y206424D01*
X153281Y206483D01*
X153222Y206630D01*
X153154Y206807D01*
X153094Y207024D01*
X153055Y207260D01*
X153035Y207526D01*
Y207536D01*
Y207575D01*
X153045Y207634D01*
Y207713D01*
X153055Y207801D01*
X153075Y207909D01*
X153104Y208037D01*
X153134Y208175D01*
X153173Y208313D01*
X153232Y208460D01*
X153291Y208618D01*
X153370Y208775D01*
X153459Y208923D01*
X153567Y209080D01*
X153685Y209228D01*
X153823Y209376D01*
X153832Y209385D01*
X153862Y209405D01*
X153901Y209444D01*
X153970Y209494D01*
X154049Y209553D01*
X154138Y209612D01*
X154256Y209681D01*
X154384Y209759D01*
X154521Y209828D01*
X154679Y209897D01*
X154856Y209956D01*
X155043Y210015D01*
X155250Y210064D01*
X155456Y210104D01*
X155692Y210123D01*
X155928Y210133D01*
X156056D01*
X156145Y210123D01*
D02*
G37*
G36*
X148302Y210123D02*
X148381Y210114D01*
X148479Y210104D01*
X148578Y210094D01*
X148794Y210054D01*
X149031Y209996D01*
X149277Y209907D01*
X149513Y209799D01*
X149523D01*
X149542Y209779D01*
X149572Y209769D01*
X149621Y209740D01*
X149729Y209661D01*
X149877Y209562D01*
X150034Y209425D01*
X150201Y209267D01*
X150369Y209070D01*
X150526Y208854D01*
Y208844D01*
X150546Y208824D01*
X150566Y208795D01*
X150595Y208746D01*
X150625Y208687D01*
X150664Y208618D01*
X150703Y208529D01*
X150753Y208441D01*
X150802Y208332D01*
X150851Y208224D01*
X150949Y207968D01*
X151058Y207673D01*
X151146Y207358D01*
Y207348D01*
X151156Y207319D01*
X151166Y207270D01*
X151186Y207201D01*
X151205Y207112D01*
X151225Y207004D01*
X151245Y206876D01*
X151264Y206729D01*
X151284Y206571D01*
X151304Y206384D01*
X151323Y206197D01*
X151343Y205981D01*
X151363Y205754D01*
X151373Y205508D01*
X151382Y205253D01*
Y204977D01*
Y204957D01*
Y204898D01*
Y204810D01*
X151373Y204682D01*
Y204534D01*
X151363Y204357D01*
X151353Y204170D01*
X151333Y203954D01*
X151313Y203727D01*
X151294Y203501D01*
X151225Y203019D01*
X151136Y202547D01*
X151077Y202330D01*
X151008Y202114D01*
Y202104D01*
X150989Y202064D01*
X150969Y202005D01*
X150940Y201937D01*
X150900Y201838D01*
X150851Y201740D01*
X150802Y201622D01*
X150733Y201494D01*
X150585Y201228D01*
X150398Y200943D01*
X150172Y200677D01*
X150044Y200549D01*
X149916Y200431D01*
X149906Y200421D01*
X149887Y200401D01*
X149847Y200372D01*
X149788Y200342D01*
X149719Y200293D01*
X149631Y200244D01*
X149532Y200195D01*
X149424Y200136D01*
X149296Y200077D01*
X149159Y200028D01*
X149011Y199978D01*
X148844Y199929D01*
X148676Y199900D01*
X148489Y199870D01*
X148302Y199850D01*
X148096Y199841D01*
X148027D01*
X147958Y199850D01*
X147850Y199860D01*
X147732Y199870D01*
X147584Y199900D01*
X147427Y199929D01*
X147259Y199969D01*
X147082Y200028D01*
X146895Y200096D01*
X146698Y200175D01*
X146511Y200274D01*
X146325Y200392D01*
X146138Y200529D01*
X145960Y200697D01*
X145803Y200874D01*
X145793Y200893D01*
X145764Y200933D01*
X145714Y201012D01*
X145646Y201120D01*
X145577Y201258D01*
X145488Y201425D01*
X145400Y201631D01*
X145311Y201868D01*
X145213Y202133D01*
X145124Y202438D01*
X145036Y202773D01*
X144967Y203137D01*
X144898Y203550D01*
X144849Y203983D01*
X144819Y204465D01*
X144809Y204977D01*
Y204987D01*
Y204997D01*
Y205056D01*
Y205154D01*
X144819Y205272D01*
Y205430D01*
X144829Y205597D01*
X144839Y205794D01*
X144858Y206010D01*
X144878Y206237D01*
X144898Y206473D01*
X144967Y206945D01*
X145055Y207427D01*
X145114Y207644D01*
X145173Y207860D01*
Y207870D01*
X145193Y207909D01*
X145213Y207968D01*
X145242Y208037D01*
X145282Y208136D01*
X145331Y208234D01*
X145380Y208352D01*
X145449Y208480D01*
X145596Y208756D01*
X145783Y209031D01*
X146010Y209297D01*
X146138Y209425D01*
X146265Y209543D01*
X146275Y209553D01*
X146295Y209572D01*
X146344Y209602D01*
X146394Y209631D01*
X146472Y209681D01*
X146551Y209730D01*
X146659Y209779D01*
X146767Y209838D01*
X146895Y209897D01*
X147033Y209946D01*
X147181Y209996D01*
X147348Y210045D01*
X147515Y210074D01*
X147702Y210104D01*
X147889Y210123D01*
X148096Y210133D01*
X148233D01*
X148302Y210123D01*
D02*
G37*
G36*
X109159D02*
X109277Y210114D01*
X109405Y210094D01*
X109543Y210064D01*
X109700Y210035D01*
X109867Y209996D01*
X110045Y209946D01*
X110222Y209887D01*
X110399Y209808D01*
X110576Y209720D01*
X110743Y209622D01*
X110910Y209504D01*
X111068Y209366D01*
X111078Y209356D01*
X111107Y209326D01*
X111147Y209287D01*
X111196Y209228D01*
X111255Y209159D01*
X111324Y209061D01*
X111393Y208962D01*
X111471Y208844D01*
X111550Y208716D01*
X111619Y208569D01*
X111688Y208421D01*
X111747Y208254D01*
X111796Y208077D01*
X111845Y207890D01*
X111865Y207703D01*
X111875Y207496D01*
Y207486D01*
Y207467D01*
Y207427D01*
X111865Y207378D01*
Y207319D01*
X111855Y207240D01*
X111826Y207073D01*
X111786Y206886D01*
X111717Y206679D01*
X111629Y206473D01*
X111501Y206266D01*
Y206256D01*
X111481Y206246D01*
X111432Y206178D01*
X111343Y206089D01*
X111225Y205971D01*
X111068Y205843D01*
X110881Y205715D01*
X110655Y205587D01*
X110389Y205469D01*
X110399D01*
X110428Y205459D01*
X110477Y205440D01*
X110537Y205410D01*
X110615Y205381D01*
X110704Y205341D01*
X110910Y205233D01*
X111137Y205095D01*
X111373Y204928D01*
X111599Y204731D01*
X111698Y204613D01*
X111796Y204495D01*
X111806Y204485D01*
X111816Y204465D01*
X111845Y204426D01*
X111875Y204377D01*
X111914Y204308D01*
X111953Y204239D01*
X111993Y204141D01*
X112042Y204042D01*
X112091Y203934D01*
X112131Y203806D01*
X112209Y203540D01*
X112268Y203226D01*
X112278Y203068D01*
X112288Y202891D01*
Y202881D01*
Y202832D01*
X112278Y202763D01*
Y202675D01*
X112259Y202566D01*
X112239Y202438D01*
X112209Y202291D01*
X112170Y202133D01*
X112121Y201966D01*
X112062Y201789D01*
X111993Y201612D01*
X111904Y201425D01*
X111796Y201238D01*
X111678Y201061D01*
X111530Y200884D01*
X111373Y200716D01*
X111363Y200707D01*
X111334Y200677D01*
X111275Y200638D01*
X111206Y200579D01*
X111117Y200510D01*
X111009Y200441D01*
X110871Y200362D01*
X110733Y200283D01*
X110566Y200195D01*
X110379Y200116D01*
X110182Y200047D01*
X109966Y199978D01*
X109739Y199919D01*
X109494Y199880D01*
X109238Y199850D01*
X108962Y199841D01*
X108893D01*
X108815Y199850D01*
X108716D01*
X108588Y199870D01*
X108441Y199890D01*
X108273Y199909D01*
X108096Y199949D01*
X107909Y199998D01*
X107712Y200057D01*
X107516Y200126D01*
X107319Y200215D01*
X107112Y200313D01*
X106915Y200431D01*
X106728Y200559D01*
X106551Y200716D01*
X106542Y200726D01*
X106512Y200756D01*
X106473Y200805D01*
X106413Y200874D01*
X106345Y200962D01*
X106266Y201071D01*
X106187Y201189D01*
X106099Y201326D01*
X106010Y201474D01*
X105931Y201641D01*
X105853Y201828D01*
X105784Y202025D01*
X105735Y202232D01*
X105685Y202448D01*
X105656Y202675D01*
X105646Y202921D01*
Y202930D01*
Y202960D01*
Y203019D01*
X105656Y203088D01*
X105666Y203167D01*
X105675Y203265D01*
X105685Y203373D01*
X105705Y203491D01*
X105764Y203757D01*
X105853Y204032D01*
X105912Y204170D01*
X105981Y204308D01*
X106050Y204436D01*
X106138Y204564D01*
X106148Y204574D01*
X106158Y204593D01*
X106187Y204623D01*
X106227Y204672D01*
X106286Y204731D01*
X106345Y204790D01*
X106423Y204859D01*
X106502Y204928D01*
X106600Y205007D01*
X106709Y205076D01*
X106827Y205154D01*
X106955Y205233D01*
X107092Y205302D01*
X107240Y205361D01*
X107397Y205420D01*
X107565Y205469D01*
X107555D01*
X107535Y205479D01*
X107486Y205499D01*
X107437Y205518D01*
X107378Y205548D01*
X107299Y205587D01*
X107132Y205676D01*
X106945Y205794D01*
X106748Y205932D01*
X106571Y206089D01*
X106413Y206276D01*
Y206286D01*
X106394Y206296D01*
X106384Y206325D01*
X106354Y206364D01*
X106325Y206424D01*
X106296Y206483D01*
X106236Y206630D01*
X106167Y206807D01*
X106108Y207024D01*
X106069Y207260D01*
X106050Y207526D01*
Y207536D01*
Y207575D01*
X106059Y207634D01*
Y207713D01*
X106069Y207801D01*
X106089Y207909D01*
X106118Y208037D01*
X106148Y208175D01*
X106187Y208313D01*
X106246Y208460D01*
X106305Y208618D01*
X106384Y208775D01*
X106473Y208923D01*
X106581Y209080D01*
X106699Y209228D01*
X106837Y209376D01*
X106846Y209385D01*
X106876Y209405D01*
X106915Y209444D01*
X106984Y209494D01*
X107063Y209553D01*
X107151Y209612D01*
X107270Y209681D01*
X107397Y209759D01*
X107535Y209828D01*
X107693Y209897D01*
X107870Y209956D01*
X108057Y210015D01*
X108264Y210064D01*
X108470Y210104D01*
X108706Y210123D01*
X108942Y210133D01*
X109070D01*
X109159Y210123D01*
D02*
G37*
%LPC*%
G36*
X163850Y205459D02*
X163771D01*
X163712Y205449D01*
X163643Y205440D01*
X163554Y205430D01*
X163466Y205410D01*
X163358Y205381D01*
X163141Y205312D01*
X163023Y205262D01*
X162895Y205203D01*
X162777Y205135D01*
X162659Y205046D01*
X162541Y204957D01*
X162433Y204849D01*
X162423Y204839D01*
X162403Y204820D01*
X162383Y204790D01*
X162344Y204741D01*
X162295Y204682D01*
X162246Y204613D01*
X162197Y204524D01*
X162147Y204426D01*
X162088Y204318D01*
X162039Y204200D01*
X161990Y204072D01*
X161941Y203934D01*
X161901Y203786D01*
X161882Y203619D01*
X161862Y203452D01*
X161852Y203275D01*
Y203265D01*
Y203245D01*
Y203216D01*
Y203167D01*
X161862Y203108D01*
Y203039D01*
X161882Y202881D01*
X161921Y202694D01*
X161960Y202488D01*
X162029Y202271D01*
X162118Y202045D01*
Y202035D01*
X162128Y202015D01*
X162147Y201986D01*
X162167Y201946D01*
X162226Y201848D01*
X162315Y201720D01*
X162423Y201572D01*
X162551Y201425D01*
X162708Y201287D01*
X162875Y201159D01*
X162885D01*
X162895Y201149D01*
X162925Y201130D01*
X162964Y201110D01*
X163053Y201061D01*
X163180Y201012D01*
X163338Y200953D01*
X163515Y200903D01*
X163702Y200864D01*
X163899Y200854D01*
X163978D01*
X164027Y200864D01*
X164096Y200874D01*
X164174Y200884D01*
X164361Y200933D01*
X164578Y201012D01*
X164686Y201061D01*
X164804Y201120D01*
X164912Y201189D01*
X165030Y201277D01*
X165139Y201376D01*
X165247Y201484D01*
X165257Y201494D01*
X165276Y201513D01*
X165296Y201553D01*
X165336Y201602D01*
X165375Y201661D01*
X165424Y201740D01*
X165483Y201828D01*
X165532Y201937D01*
X165582Y202055D01*
X165640Y202183D01*
X165690Y202320D01*
X165729Y202478D01*
X165768Y202645D01*
X165798Y202822D01*
X165808Y203009D01*
X165818Y203206D01*
Y203216D01*
Y203255D01*
Y203304D01*
X165808Y203383D01*
X165798Y203462D01*
X165788Y203570D01*
X165768Y203678D01*
X165749Y203806D01*
X165680Y204062D01*
X165640Y204200D01*
X165582Y204338D01*
X165513Y204475D01*
X165444Y204603D01*
X165355Y204731D01*
X165257Y204849D01*
X165247Y204859D01*
X165227Y204879D01*
X165198Y204908D01*
X165158Y204948D01*
X165099Y204987D01*
X165040Y205046D01*
X164962Y205095D01*
X164873Y205154D01*
X164775Y205213D01*
X164676Y205262D01*
X164430Y205361D01*
X164302Y205400D01*
X164155Y205430D01*
X164007Y205449D01*
X163850Y205459D01*
D02*
G37*
G36*
X116864Y205459D02*
X116785D01*
X116726Y205449D01*
X116657Y205440D01*
X116568Y205430D01*
X116480Y205410D01*
X116372Y205381D01*
X116155Y205312D01*
X116037Y205262D01*
X115909Y205203D01*
X115791Y205135D01*
X115673Y205046D01*
X115555Y204957D01*
X115447Y204849D01*
X115437Y204839D01*
X115417Y204820D01*
X115398Y204790D01*
X115358Y204741D01*
X115309Y204682D01*
X115260Y204613D01*
X115210Y204524D01*
X115161Y204426D01*
X115102Y204318D01*
X115053Y204200D01*
X115004Y204072D01*
X114955Y203934D01*
X114915Y203786D01*
X114896Y203619D01*
X114876Y203452D01*
X114866Y203275D01*
Y203265D01*
Y203245D01*
Y203216D01*
Y203167D01*
X114876Y203108D01*
Y203039D01*
X114896Y202881D01*
X114935Y202694D01*
X114974Y202488D01*
X115043Y202271D01*
X115132Y202045D01*
Y202035D01*
X115142Y202015D01*
X115161Y201986D01*
X115181Y201946D01*
X115240Y201848D01*
X115329Y201720D01*
X115437Y201572D01*
X115565Y201425D01*
X115722Y201287D01*
X115890Y201159D01*
X115899D01*
X115909Y201149D01*
X115939Y201130D01*
X115978Y201110D01*
X116067Y201061D01*
X116194Y201012D01*
X116352Y200953D01*
X116529Y200903D01*
X116716Y200864D01*
X116913Y200854D01*
X116991D01*
X117041Y200864D01*
X117110Y200874D01*
X117188Y200884D01*
X117375Y200933D01*
X117592Y201012D01*
X117700Y201061D01*
X117818Y201120D01*
X117926Y201189D01*
X118044Y201277D01*
X118153Y201376D01*
X118261Y201484D01*
X118271Y201494D01*
X118290Y201513D01*
X118310Y201553D01*
X118350Y201602D01*
X118389Y201661D01*
X118438Y201740D01*
X118497Y201828D01*
X118546Y201937D01*
X118596Y202055D01*
X118655Y202183D01*
X118704Y202320D01*
X118743Y202478D01*
X118782Y202645D01*
X118812Y202822D01*
X118822Y203009D01*
X118832Y203206D01*
Y203216D01*
Y203255D01*
Y203304D01*
X118822Y203383D01*
X118812Y203462D01*
X118802Y203570D01*
X118782Y203678D01*
X118763Y203806D01*
X118694Y204062D01*
X118655Y204200D01*
X118596Y204338D01*
X118527Y204475D01*
X118458Y204603D01*
X118369Y204731D01*
X118271Y204849D01*
X118261Y204859D01*
X118241Y204879D01*
X118212Y204908D01*
X118172Y204948D01*
X118113Y204987D01*
X118054Y205046D01*
X117975Y205095D01*
X117887Y205154D01*
X117789Y205213D01*
X117690Y205262D01*
X117444Y205361D01*
X117316Y205400D01*
X117169Y205430D01*
X117021Y205449D01*
X116864Y205459D01*
D02*
G37*
G36*
X125296Y208106D02*
X122128Y203550D01*
X125296D01*
Y208106D01*
D02*
G37*
G36*
X155948Y209120D02*
X155879D01*
X155830Y209110D01*
X155771D01*
X155692Y209100D01*
X155535Y209061D01*
X155348Y209012D01*
X155151Y208923D01*
X154954Y208815D01*
X154856Y208736D01*
X154767Y208657D01*
Y208647D01*
X154748Y208638D01*
X154698Y208578D01*
X154620Y208480D01*
X154541Y208352D01*
X154452Y208195D01*
X154374Y208008D01*
X154324Y207801D01*
X154315Y207693D01*
X154305Y207575D01*
Y207565D01*
Y207545D01*
Y207506D01*
X154315Y207457D01*
Y207398D01*
X154324Y207329D01*
X154364Y207162D01*
X154413Y206975D01*
X154492Y206778D01*
X154610Y206581D01*
X154679Y206492D01*
X154757Y206404D01*
X154767D01*
X154777Y206384D01*
X154807Y206364D01*
X154846Y206335D01*
X154944Y206256D01*
X155082Y206178D01*
X155250Y206099D01*
X155456Y206020D01*
X155692Y205971D01*
X155820Y205961D01*
X155958Y205951D01*
X156027D01*
X156076Y205961D01*
X156135D01*
X156214Y205971D01*
X156371Y206010D01*
X156558Y206060D01*
X156755Y206138D01*
X156952Y206246D01*
X157040Y206315D01*
X157129Y206394D01*
X157139Y206404D01*
X157149Y206414D01*
X157168Y206443D01*
X157198Y206473D01*
X157276Y206571D01*
X157365Y206699D01*
X157444Y206866D01*
X157522Y207053D01*
X157572Y207270D01*
X157591Y207388D01*
Y207506D01*
Y207516D01*
Y207536D01*
Y207575D01*
X157581Y207624D01*
Y207673D01*
X157572Y207742D01*
X157532Y207900D01*
X157473Y208086D01*
X157395Y208274D01*
X157276Y208470D01*
X157198Y208559D01*
X157119Y208647D01*
X157109Y208657D01*
X157099Y208667D01*
X157070Y208687D01*
X157030Y208726D01*
X156932Y208795D01*
X156794Y208884D01*
X156627Y208972D01*
X156430Y209051D01*
X156204Y209100D01*
X156076Y209110D01*
X155948Y209120D01*
D02*
G37*
G36*
X155919Y204938D02*
X155830D01*
X155771Y204928D01*
X155702Y204918D01*
X155614Y204908D01*
X155515Y204889D01*
X155407Y204869D01*
X155181Y204800D01*
X155062Y204751D01*
X154935Y204692D01*
X154816Y204623D01*
X154698Y204554D01*
X154580Y204456D01*
X154472Y204357D01*
X154462Y204347D01*
X154452Y204328D01*
X154423Y204298D01*
X154384Y204249D01*
X154344Y204200D01*
X154295Y204131D01*
X154236Y204052D01*
X154187Y203964D01*
X154138Y203855D01*
X154078Y203747D01*
X153990Y203501D01*
X153951Y203363D01*
X153931Y203226D01*
X153911Y203068D01*
X153901Y202911D01*
Y202901D01*
Y202891D01*
Y202861D01*
Y202822D01*
X153911Y202714D01*
X153931Y202586D01*
X153960Y202429D01*
X154010Y202251D01*
X154069Y202074D01*
X154147Y201887D01*
Y201877D01*
X154157Y201868D01*
X154197Y201809D01*
X154256Y201720D01*
X154334Y201612D01*
X154433Y201484D01*
X154561Y201356D01*
X154708Y201228D01*
X154885Y201120D01*
X154895D01*
X154905Y201110D01*
X154935Y201100D01*
X154974Y201080D01*
X155072Y201031D01*
X155210Y200992D01*
X155368Y200943D01*
X155554Y200893D01*
X155751Y200864D01*
X155958Y200854D01*
X156046D01*
X156105Y200864D01*
X156184Y200874D01*
X156273Y200884D01*
X156371Y200903D01*
X156480Y200923D01*
X156706Y200992D01*
X156834Y201041D01*
X156952Y201090D01*
X157080Y201159D01*
X157198Y201228D01*
X157316Y201317D01*
X157424Y201415D01*
X157434Y201425D01*
X157454Y201445D01*
X157473Y201474D01*
X157513Y201523D01*
X157562Y201572D01*
X157611Y201641D01*
X157660Y201720D01*
X157719Y201809D01*
X157768Y201907D01*
X157818Y202025D01*
X157916Y202271D01*
X157956Y202409D01*
X157975Y202556D01*
X157995Y202714D01*
X158005Y202871D01*
Y202881D01*
Y202911D01*
Y202960D01*
X157995Y203019D01*
X157985Y203098D01*
X157975Y203186D01*
X157956Y203285D01*
X157926Y203393D01*
X157857Y203629D01*
X157808Y203747D01*
X157749Y203875D01*
X157680Y203993D01*
X157601Y204121D01*
X157513Y204239D01*
X157404Y204347D01*
X157395Y204357D01*
X157375Y204377D01*
X157345Y204406D01*
X157296Y204436D01*
X157237Y204485D01*
X157168Y204534D01*
X157089Y204584D01*
X157001Y204643D01*
X156893Y204702D01*
X156784Y204751D01*
X156529Y204849D01*
X156391Y204879D01*
X156243Y204908D01*
X156086Y204928D01*
X155919Y204938D01*
D02*
G37*
G36*
X148076Y209110D02*
X147997D01*
X147938Y209100D01*
X147860Y209090D01*
X147781Y209070D01*
X147584Y209021D01*
X147476Y208982D01*
X147368Y208933D01*
X147249Y208874D01*
X147141Y208805D01*
X147023Y208716D01*
X146915Y208618D01*
X146807Y208510D01*
X146708Y208382D01*
X146698Y208372D01*
X146679Y208342D01*
X146649Y208283D01*
X146610Y208195D01*
X146561Y208096D01*
X146511Y207959D01*
X146452Y207801D01*
X146394Y207614D01*
X146334Y207388D01*
X146275Y207142D01*
X146226Y206866D01*
X146177Y206552D01*
X146138Y206217D01*
X146108Y205833D01*
X146088Y205420D01*
X146079Y204977D01*
Y204967D01*
Y204948D01*
Y204918D01*
Y204869D01*
Y204810D01*
Y204741D01*
X146088Y204662D01*
Y204574D01*
X146098Y204377D01*
X146108Y204151D01*
X146128Y203895D01*
X146148Y203629D01*
X146216Y203078D01*
X146265Y202802D01*
X146325Y202537D01*
X146394Y202281D01*
X146472Y202045D01*
X146561Y201838D01*
X146659Y201671D01*
X146669Y201661D01*
X146689Y201631D01*
X146718Y201592D01*
X146767Y201543D01*
X146817Y201484D01*
X146886Y201415D01*
X146964Y201336D01*
X147053Y201267D01*
X147161Y201189D01*
X147269Y201110D01*
X147515Y200982D01*
X147643Y200933D01*
X147791Y200893D01*
X147938Y200864D01*
X148096Y200854D01*
X148135D01*
X148175Y200864D01*
X148233D01*
X148312Y200884D01*
X148391Y200893D01*
X148489Y200923D01*
X148588Y200953D01*
X148706Y201002D01*
X148814Y201051D01*
X148932Y201120D01*
X149050Y201199D01*
X149178Y201297D01*
X149296Y201405D01*
X149414Y201523D01*
X149523Y201671D01*
X149532Y201681D01*
X149552Y201710D01*
X149582Y201759D01*
X149611Y201838D01*
X149660Y201937D01*
X149709Y202064D01*
X149759Y202212D01*
X149818Y202399D01*
X149877Y202606D01*
X149926Y202842D01*
X149975Y203108D01*
X150024Y203413D01*
X150054Y203747D01*
X150083Y204121D01*
X150103Y204534D01*
X150113Y204977D01*
Y204987D01*
Y205007D01*
Y205036D01*
Y205085D01*
Y205144D01*
Y205213D01*
X150103Y205292D01*
Y205381D01*
X150093Y205577D01*
X150083Y205804D01*
X150064Y206060D01*
X150044Y206325D01*
X149975Y206876D01*
X149926Y207152D01*
X149867Y207427D01*
X149798Y207673D01*
X149729Y207909D01*
X149631Y208116D01*
X149532Y208283D01*
X149523Y208293D01*
X149503Y208323D01*
X149473Y208362D01*
X149424Y208411D01*
X149375Y208480D01*
X149306Y208549D01*
X149227Y208618D01*
X149129Y208697D01*
X149031Y208775D01*
X148922Y208844D01*
X148676Y208982D01*
X148539Y209031D01*
X148391Y209070D01*
X148233Y209100D01*
X148076Y209110D01*
D02*
G37*
G36*
X108962Y209120D02*
X108893D01*
X108844Y209110D01*
X108785D01*
X108706Y209100D01*
X108549Y209061D01*
X108362Y209012D01*
X108165Y208923D01*
X107968Y208815D01*
X107870Y208736D01*
X107781Y208657D01*
Y208647D01*
X107762Y208638D01*
X107712Y208578D01*
X107634Y208480D01*
X107555Y208352D01*
X107466Y208195D01*
X107388Y208008D01*
X107339Y207801D01*
X107329Y207693D01*
X107319Y207575D01*
Y207565D01*
Y207545D01*
Y207506D01*
X107329Y207457D01*
Y207398D01*
X107339Y207329D01*
X107378Y207162D01*
X107427Y206975D01*
X107506Y206778D01*
X107624Y206581D01*
X107693Y206492D01*
X107772Y206404D01*
X107781D01*
X107791Y206384D01*
X107821Y206364D01*
X107860Y206335D01*
X107958Y206256D01*
X108096Y206178D01*
X108264Y206099D01*
X108470Y206020D01*
X108706Y205971D01*
X108834Y205961D01*
X108972Y205951D01*
X109041D01*
X109090Y205961D01*
X109149D01*
X109228Y205971D01*
X109385Y206010D01*
X109572Y206060D01*
X109769Y206138D01*
X109966Y206246D01*
X110054Y206315D01*
X110143Y206394D01*
X110153Y206404D01*
X110163Y206414D01*
X110182Y206443D01*
X110212Y206473D01*
X110291Y206571D01*
X110379Y206699D01*
X110458Y206866D01*
X110537Y207053D01*
X110586Y207270D01*
X110605Y207388D01*
Y207506D01*
Y207516D01*
Y207536D01*
Y207575D01*
X110596Y207624D01*
Y207673D01*
X110586Y207742D01*
X110546Y207900D01*
X110487Y208086D01*
X110409Y208274D01*
X110291Y208470D01*
X110212Y208559D01*
X110133Y208647D01*
X110123Y208657D01*
X110113Y208667D01*
X110084Y208687D01*
X110045Y208726D01*
X109946Y208795D01*
X109808Y208884D01*
X109641Y208972D01*
X109444Y209051D01*
X109218Y209100D01*
X109090Y209110D01*
X108962Y209120D01*
D02*
G37*
G36*
X108933Y204938D02*
X108844D01*
X108785Y204928D01*
X108716Y204918D01*
X108627Y204908D01*
X108529Y204889D01*
X108421Y204869D01*
X108195Y204800D01*
X108077Y204751D01*
X107949Y204692D01*
X107831Y204623D01*
X107712Y204554D01*
X107594Y204456D01*
X107486Y204357D01*
X107476Y204347D01*
X107466Y204328D01*
X107437Y204298D01*
X107397Y204249D01*
X107358Y204200D01*
X107309Y204131D01*
X107250Y204052D01*
X107201Y203964D01*
X107151Y203855D01*
X107092Y203747D01*
X107004Y203501D01*
X106965Y203363D01*
X106945Y203226D01*
X106925Y203068D01*
X106915Y202911D01*
Y202901D01*
Y202891D01*
Y202861D01*
Y202822D01*
X106925Y202714D01*
X106945Y202586D01*
X106974Y202429D01*
X107024Y202251D01*
X107083Y202074D01*
X107161Y201887D01*
Y201877D01*
X107171Y201868D01*
X107211Y201809D01*
X107270Y201720D01*
X107348Y201612D01*
X107447Y201484D01*
X107575Y201356D01*
X107722Y201228D01*
X107899Y201120D01*
X107909D01*
X107919Y201110D01*
X107949Y201100D01*
X107988Y201080D01*
X108086Y201031D01*
X108224Y200992D01*
X108381Y200943D01*
X108569Y200893D01*
X108765Y200864D01*
X108972Y200854D01*
X109061D01*
X109119Y200864D01*
X109198Y200874D01*
X109287Y200884D01*
X109385Y200903D01*
X109494Y200923D01*
X109720Y200992D01*
X109848Y201041D01*
X109966Y201090D01*
X110094Y201159D01*
X110212Y201228D01*
X110330Y201317D01*
X110438Y201415D01*
X110448Y201425D01*
X110468Y201445D01*
X110487Y201474D01*
X110527Y201523D01*
X110576Y201572D01*
X110625Y201641D01*
X110674Y201720D01*
X110733Y201809D01*
X110783Y201907D01*
X110832Y202025D01*
X110930Y202271D01*
X110969Y202409D01*
X110989Y202556D01*
X111009Y202714D01*
X111019Y202871D01*
Y202881D01*
Y202911D01*
Y202960D01*
X111009Y203019D01*
X110999Y203098D01*
X110989Y203186D01*
X110969Y203285D01*
X110940Y203393D01*
X110871Y203629D01*
X110822Y203747D01*
X110763Y203875D01*
X110694Y203993D01*
X110615Y204121D01*
X110527Y204239D01*
X110418Y204347D01*
X110409Y204357D01*
X110389Y204377D01*
X110359Y204406D01*
X110310Y204436D01*
X110251Y204485D01*
X110182Y204534D01*
X110103Y204584D01*
X110015Y204643D01*
X109907Y204702D01*
X109799Y204751D01*
X109543Y204849D01*
X109405Y204879D01*
X109257Y204908D01*
X109100Y204928D01*
X108933Y204938D01*
D02*
G37*
%LPD*%
D10*
X105274Y156232D02*
G03*
X105274Y156232I-492J0D01*
G01*
D11*
X133858Y66929D02*
G03*
X133858Y66929I-15748J0D01*
G01*
X236221Y267717D02*
G03*
X236221Y267717I-15748J0D01*
G01*
X31496D02*
G03*
X31496Y267717I-15748J0D01*
G01*
X114168Y48137D02*
G03*
X122013Y48137I3922J-5883D01*
G01*
X32400Y84087D02*
X49526D01*
X203659D01*
Y244717D01*
X32400D02*
X203659D01*
X32400Y84087D02*
Y244717D01*
X32321Y83890D02*
X203581D01*
X114591Y48254D02*
X121591D01*
X155370Y56313D02*
X163370D01*
X155370Y28313D02*
X163370D01*
X170370Y33313D02*
Y51313D01*
X148370Y33313D02*
Y51313D01*
X154370Y49313D02*
X157270D01*
X154370Y35313D02*
Y49313D01*
Y35313D02*
X157270D01*
X163370Y39313D02*
Y45213D01*
X158770Y42313D02*
X161370D01*
X154370D02*
X156970D01*
X218362Y56313D02*
X226362D01*
X218362Y28313D02*
X226362D01*
X233362Y33313D02*
Y51313D01*
X211362Y33313D02*
Y51313D01*
X217362Y49313D02*
X220262D01*
X217362Y35313D02*
Y49313D01*
Y35313D02*
X220262D01*
X226362Y39313D02*
Y45213D01*
X221762Y42313D02*
X224362D01*
X217362D02*
X219962D01*
X186866Y32691D02*
X194866D01*
X186866Y4691D02*
X194866D01*
X201866Y9691D02*
Y27691D01*
X179866Y9691D02*
Y27691D01*
X185866Y25691D02*
X188766D01*
X185866Y11691D02*
Y25691D01*
Y11691D02*
X188766D01*
X194866Y15691D02*
Y21591D01*
X190266Y18691D02*
X192866D01*
X185866D02*
X188466D01*
X186866Y79935D02*
X194866D01*
X186866Y51935D02*
X194866D01*
X201866Y56935D02*
Y74935D01*
X179866Y56935D02*
Y74935D01*
X185866Y72935D02*
X188766D01*
X185866Y58935D02*
Y72935D01*
Y58935D02*
X188766D01*
X194866Y62935D02*
Y68835D01*
X190266Y65935D02*
X192866D01*
X185866D02*
X188466D01*
X72850Y56254D02*
X80850D01*
X72850Y28254D02*
X80850D01*
X87850Y33254D02*
Y51254D01*
X65850Y33254D02*
Y51254D01*
X71850Y49254D02*
X74750D01*
X71850Y35254D02*
Y49254D01*
Y35254D02*
X74750D01*
X80850Y39254D02*
Y45154D01*
X76250Y42254D02*
X78850D01*
X71850D02*
X74450D01*
X41354Y32631D02*
X49354D01*
X41354Y4631D02*
X49354D01*
X56354Y9631D02*
Y27632D01*
X34354Y9631D02*
Y27632D01*
X40354Y25631D02*
X43254D01*
X40354Y11631D02*
Y25631D01*
Y11631D02*
X43254D01*
X49354Y15631D02*
Y21531D01*
X44754Y18632D02*
X47354D01*
X40354D02*
X42954D01*
X9858Y56254D02*
X17858D01*
X9858Y28254D02*
X17858D01*
X24858Y33254D02*
Y51254D01*
X2858Y33254D02*
Y51254D01*
X8858Y49254D02*
X11758D01*
X8858Y35254D02*
Y49254D01*
Y35254D02*
X11758D01*
X17858Y39254D02*
Y45154D01*
X13258Y42254D02*
X15858D01*
X8858D02*
X11458D01*
X220904Y297391D02*
Y299391D01*
X16180Y297391D02*
Y299391D01*
X214904Y296391D02*
X220904Y298391D01*
X214904Y300391D02*
X220904Y298391D01*
X16180D02*
X22180Y296391D01*
X16180Y298391D02*
X22180Y300391D01*
X138636Y298391D02*
X220904D01*
X16180D02*
X98448D01*
X220957Y-19504D02*
Y-17504D01*
X146154Y-19504D02*
Y-17504D01*
X214957Y-20504D02*
X220957Y-18504D01*
X214957Y-16504D02*
X220957Y-18504D01*
X146154D02*
X152154Y-20504D01*
X146154Y-18504D02*
X152154Y-16504D01*
X203150Y-18504D02*
X220957D01*
X146154D02*
X163961D01*
X89461Y-21472D02*
Y-19472D01*
X14658Y-21472D02*
Y-19472D01*
X83461Y-22472D02*
X89461Y-20472D01*
X83461Y-18472D02*
X89461Y-20472D01*
X14658D02*
X20658Y-22472D01*
X14658Y-20472D02*
X20658Y-18472D01*
X71653Y-20472D02*
X89461D01*
X14658D02*
X32465D01*
X122224Y-52742D02*
Y-50743D01*
X17992Y-52742D02*
Y-50743D01*
X116224Y-53742D02*
X122224Y-51743D01*
X116224Y-49742D02*
X122224Y-51743D01*
X17992D02*
X23992Y-53742D01*
X17992Y-51743D02*
X23992Y-49742D01*
X101699Y-51743D02*
X122224D01*
X17992D02*
X38518D01*
X226496Y-52742D02*
Y-50743D01*
X122224Y-52742D02*
Y-50743D01*
X220496Y-53742D02*
X226496Y-51743D01*
X220496Y-49742D02*
X226496Y-51743D01*
X122224D02*
X128224Y-53742D01*
X122224Y-51743D02*
X128224Y-49742D01*
X205950Y-51743D02*
X226496D01*
X122224D02*
X142770D01*
X271301Y281743D02*
X273301D01*
X271301Y-1751D02*
X273301D01*
X272301Y281743D02*
X274301Y275743D01*
X270301D02*
X272301Y281743D01*
Y-1751D02*
X274301Y4249D01*
X270301D02*
X272301Y-1751D01*
Y171587D02*
Y281743D01*
Y-1751D02*
Y108406D01*
X238723Y306709D02*
Y308709D01*
X2503Y306709D02*
Y308709D01*
X232723Y305709D02*
X238723Y307709D01*
X232723Y309709D02*
X238723Y307709D01*
X2503D02*
X8502Y305709D01*
X2503Y307709D02*
X8502Y309709D01*
X140707Y307709D02*
X238723D01*
X2503D02*
X100519D01*
X103417Y248593D02*
X107415D01*
X105416Y250593D02*
Y246594D01*
X222920Y246891D02*
X218922D01*
X14873Y190544D02*
Y186545D01*
X6672Y189143D02*
X2674D01*
X4673Y191142D02*
Y187144D01*
X12251Y173212D02*
X16250D01*
X14250D01*
Y167214D01*
X18249Y173212D02*
X22248Y167214D01*
Y173212D02*
X18249Y167214D01*
X12051Y157714D02*
Y163712D01*
X15050D01*
X16050Y162712D01*
Y160713D01*
X15050Y159713D01*
X12051D01*
X14050D02*
X16050Y157714D01*
X18049Y163712D02*
X22048Y157714D01*
Y163712D02*
X18049Y157714D01*
X16119Y152490D02*
X15120Y153490D01*
X13120D01*
X12120Y152490D01*
Y148492D01*
X13120Y147492D01*
X15120D01*
X16119Y148492D01*
Y150491D01*
X14120D01*
X18119Y147492D02*
Y153490D01*
X22117Y147492D01*
Y153490D01*
X24117D02*
Y147492D01*
X27116D01*
X28115Y148492D01*
Y152490D01*
X27116Y153490D01*
X24117D01*
X12109Y182806D02*
X13108Y183806D01*
X15108D01*
X16107Y182806D01*
Y181807D01*
X15108Y180807D01*
X14108D01*
X15108D01*
X16107Y179807D01*
Y178807D01*
X15108Y177808D01*
X13108D01*
X12109Y178807D01*
X18107Y177808D02*
Y178807D01*
X19106D01*
Y177808D01*
X18107D01*
X23105Y182806D02*
X24105Y183806D01*
X26104D01*
X27104Y182806D01*
Y181807D01*
X26104Y180807D01*
X25104D01*
X26104D01*
X27104Y179807D01*
Y178807D01*
X26104Y177808D01*
X24105D01*
X23105Y178807D01*
X29103Y183806D02*
Y179807D01*
X31102Y177808D01*
X33102Y179807D01*
Y183806D01*
X213420Y86290D02*
Y80292D01*
X217419D01*
X212920Y100892D02*
Y106890D01*
X215919D01*
X216919Y105891D01*
Y103891D01*
X215919Y102892D01*
X212920D01*
X214920D02*
X216919Y100892D01*
X212465Y117190D02*
Y111192D01*
X215464D01*
X216463Y112192D01*
Y116191D01*
X215464Y117190D01*
X212465D01*
X212520Y136790D02*
Y131792D01*
X213520Y130792D01*
X215519D01*
X216519Y131792D01*
Y136790D01*
X19006Y117248D02*
Y111250D01*
X22005D01*
X23005Y112249D01*
Y116248D01*
X22005Y117248D01*
X19006D01*
Y136441D02*
Y131442D01*
X20006Y130443D01*
X22005D01*
X23005Y131442D01*
Y136441D01*
X19783Y86933D02*
Y80935D01*
X23782D01*
X19006Y100620D02*
Y106618D01*
X22005D01*
X23005Y105618D01*
Y103619D01*
X22005Y102619D01*
X19006D01*
X21005D02*
X23005Y100620D01*
X118491Y46453D02*
Y50452D01*
X116492Y48453D02*
X120491D01*
X133190Y54931D02*
X132190Y55931D01*
X130191D01*
X129191Y54931D01*
Y50933D01*
X130191Y49933D01*
X132190D01*
X133190Y50933D01*
Y52932D01*
X131190D01*
X129289Y30543D02*
Y36541D01*
X132289D01*
X133288Y35542D01*
Y33542D01*
X132289Y32542D01*
X129289D01*
X131289D02*
X133288Y30543D01*
X98581Y106626D02*
X99994Y108040D01*
X99288Y107333D01*
X95046Y111574D01*
Y110160D01*
X98581Y113695D02*
Y115108D01*
X99994Y116522D01*
X101408D01*
X104236Y113695D01*
Y112281D01*
X102822Y110867D01*
X101408D01*
X98581Y113695D01*
X102115Y118643D02*
X106356Y114401D01*
X104943Y115815D01*
Y121470D01*
Y117229D01*
X109184D01*
X80345Y127170D02*
X77518Y124342D01*
Y129998D01*
X76811Y130704D01*
X75397D01*
X73983Y129291D01*
Y127877D01*
X78225Y132118D02*
Y133532D01*
X79638Y134946D01*
X81052D01*
X83880Y132118D01*
Y130704D01*
X82466Y129291D01*
X81052D01*
X78225Y132118D01*
X81759Y137066D02*
X86000Y132825D01*
X84587Y134239D01*
Y139894D01*
Y135652D01*
X88828D01*
X212064Y96091D02*
X211064Y97090D01*
X209064D01*
X208065Y96091D01*
Y92092D01*
X209064Y91092D01*
X211064D01*
X212064Y92092D01*
X214063Y97090D02*
Y91092D01*
Y94091D01*
X218061D01*
Y97090D01*
Y91092D01*
X220061D02*
X222060D01*
X221061D01*
Y97090D01*
X220061Y96091D01*
X209563Y125891D02*
X208564Y126890D01*
X206564D01*
X205565Y125891D01*
Y121892D01*
X206564Y120892D01*
X208564D01*
X209563Y121892D01*
X211563Y126890D02*
Y120892D01*
Y123891D01*
X215562D01*
Y126890D01*
Y120892D01*
X221560D02*
X217561D01*
X221560Y124891D01*
Y125891D01*
X220560Y126890D01*
X218561D01*
X217561Y125891D01*
X18999Y96091D02*
X17999Y97090D01*
X16000D01*
X15000Y96091D01*
Y92092D01*
X16000Y91092D01*
X17999D01*
X18999Y92092D01*
X20998Y97090D02*
Y91092D01*
Y94091D01*
X24997D01*
Y97090D01*
Y91092D01*
X29995D02*
Y97090D01*
X26996Y94091D01*
X30995D01*
X18999Y126091D02*
X17999Y127090D01*
X16000D01*
X15000Y126091D01*
Y122092D01*
X16000Y121092D01*
X17999D01*
X18999Y122092D01*
X20998Y127090D02*
Y121092D01*
Y124091D01*
X24997D01*
Y127090D01*
Y121092D01*
X26996Y126091D02*
X27996Y127090D01*
X29995D01*
X30995Y126091D01*
Y125091D01*
X29995Y124091D01*
X28995D01*
X29995D01*
X30995Y123091D01*
Y122092D01*
X29995Y121092D01*
X27996D01*
X26996Y122092D01*
X89217Y253095D02*
Y259092D01*
X92216D01*
X93215Y258093D01*
Y256094D01*
X92216Y255094D01*
X89217D01*
X95215Y253095D02*
Y259092D01*
X98214D01*
X99213Y258093D01*
Y256094D01*
X98214Y255094D01*
X95215D01*
X101213Y253095D02*
Y259092D01*
X103212Y257093D01*
X105211Y259092D01*
Y253095D01*
X175106Y192229D02*
X174107Y193229D01*
X172107D01*
X171108Y192229D01*
Y188231D01*
X172107Y187231D01*
X174107D01*
X175106Y188231D01*
X181105Y187231D02*
X177106D01*
X181105Y191230D01*
Y192229D01*
X180105Y193229D01*
X178105D01*
X177106Y192229D01*
X175106Y172329D02*
X174107Y173329D01*
X172107D01*
X171108Y172329D01*
Y168331D01*
X172107Y167331D01*
X174107D01*
X175106Y168331D01*
X177106Y167331D02*
X179105D01*
X178105D01*
Y173329D01*
X177106Y172329D01*
X78050Y26112D02*
X76051D01*
X75051Y25113D01*
Y21114D01*
X76051Y20114D01*
X78050D01*
X79050Y21114D01*
Y25113D01*
X78050Y26112D01*
X81049Y20114D02*
Y26112D01*
X85048Y20114D01*
Y26112D01*
X87047Y20114D02*
X91046Y24113D01*
X96044Y26112D02*
X94045D01*
X93045Y25113D01*
Y21114D01*
X94045Y20114D01*
X96044D01*
X97044Y21114D01*
Y25113D01*
X96044Y26112D01*
X103042D02*
X99043D01*
Y23113D01*
X101042D01*
X99043D01*
Y20114D01*
X109040Y26112D02*
X105041D01*
Y23113D01*
X107041D01*
X105041D01*
Y20114D01*
X120517Y181992D02*
Y176994D01*
X121516Y175995D01*
X123516D01*
X124515Y176994D01*
Y181992D01*
X126515Y175995D02*
X128514D01*
X127514D01*
Y181992D01*
X126515Y180993D01*
D12*
X123406Y42254D02*
G03*
X123406Y42254I-5315J0D01*
G01*
X194961Y123072D02*
Y217560D01*
X41417Y123072D02*
X194961D01*
X41417D02*
Y217560D01*
X194961D01*
X107931Y161153D02*
X139427D01*
X107931Y197374D02*
X139427D01*
X105569Y163516D02*
Y195012D01*
X141789Y163516D02*
Y195012D01*
X105569Y163516D02*
X107931Y161153D01*
X105569Y195012D02*
X107931Y197374D01*
X139427Y161153D02*
X141789Y163516D01*
X139427Y197374D02*
X141789Y195012D01*
X107931Y161153D02*
Y167059D01*
X109900D01*
Y161153D02*
Y167059D01*
X222362Y42313D02*
Y56092D01*
X213504Y42313D02*
X222362D01*
X213504Y28533D02*
Y56092D01*
X231220D01*
X13858Y42254D02*
X22716D01*
X10000Y78592D02*
Y108592D01*
X0D02*
X10000D01*
X0Y78592D02*
Y108592D01*
Y78592D02*
X10000D01*
X-0Y108592D02*
Y138592D01*
Y108592D02*
X10000D01*
Y138592D01*
X-0D02*
X10000D01*
X-0Y146092D02*
X10000D01*
X-0D02*
Y186092D01*
X10000Y146092D02*
Y186092D01*
X-0D02*
X10000D01*
X236065Y78592D02*
Y108592D01*
X226065D02*
X236065D01*
X226065Y78592D02*
Y108592D01*
Y78592D02*
X236065D01*
X226065Y108592D02*
Y138592D01*
Y108592D02*
X236065D01*
Y138592D01*
X226065D02*
X236065D01*
X122654Y279147D02*
X124320Y277480D01*
Y258614D02*
Y277480D01*
X120987Y258614D02*
Y277444D01*
X120951D02*
X120987Y277480D01*
X122654Y279147D01*
X110987Y277480D02*
X112654Y279147D01*
X110987Y258614D02*
Y277444D01*
X114320Y258614D02*
Y277480D01*
X112654Y279147D02*
X114320Y277480D01*
X107951Y253114D02*
Y258614D01*
X127951D01*
Y253114D02*
Y258614D01*
X125451Y253614D02*
X127951Y256114D01*
X120951Y253114D02*
X127951D01*
X107951D02*
X120951D01*
X206120Y191092D02*
Y240992D01*
Y191092D02*
X236020D01*
X206120Y201192D02*
X236020D01*
X236120Y201092D01*
X206120Y211092D02*
X235920D01*
X206320Y221092D02*
X236120D01*
X206120Y231092D02*
X236120D01*
X236020Y191092D02*
X236120Y191192D01*
Y240892D01*
X236020Y240992D02*
X236120Y240892D01*
X206120Y240992D02*
X236020D01*
X-0Y200992D02*
X30020D01*
X29920Y210992D02*
X30020Y210892D01*
X20Y210992D02*
X29920D01*
X-0Y191192D02*
Y220992D01*
Y191192D02*
X29920D01*
X30020Y191292D01*
Y220992D01*
X-0D02*
X30020D01*
D13*
X169083Y177323D02*
X174276D01*
X177276D02*
X182469D01*
X177276Y184522D02*
X182469D01*
X169083D02*
X174276D01*
X169083Y177322D02*
Y184522D01*
X182469Y177322D02*
Y184522D01*
X169083Y157423D02*
X174276D01*
X177276D02*
X182469D01*
X177276Y164622D02*
X182469D01*
X169083D02*
X174276D01*
X169083Y157422D02*
Y164622D01*
X182469Y157422D02*
Y164622D01*
X152669Y23465D02*
X156669D01*
X134669D02*
X138669D01*
X145669Y-2362D02*
Y14465D01*
X159669Y13465D02*
Y17465D01*
Y-2535D02*
Y3465D01*
X131669Y-2535D02*
X159669D01*
X131669D02*
Y3465D01*
Y13465D02*
Y17465D01*
X88143Y118705D02*
X93234Y113614D01*
X88143Y118705D02*
X97608Y128170D01*
X102699Y123079D01*
X93234Y113614D02*
X102699Y123079D01*
X81542Y125305D02*
X86634Y120214D01*
X81542Y125305D02*
X91008Y134770D01*
X96099Y129679D01*
X86634Y120214D02*
X96099Y129679D01*
D14*
X174776Y180923D02*
X175276D01*
X176276D02*
X176776D01*
X176276Y179423D02*
Y182423D01*
X175276Y179423D02*
Y182423D01*
X174776Y161023D02*
X175276D01*
X176276D02*
X176776D01*
X176276Y159523D02*
Y162523D01*
X175276Y159523D02*
Y162523D01*
X138249Y3571D02*
Y13413D01*
Y3571D02*
X142186D01*
Y13413D01*
X138249D02*
X142186D01*
X153134Y3571D02*
Y13413D01*
X149197Y3571D02*
X153134D01*
X149197D02*
Y13413D01*
X153134D01*
X139669Y5598D02*
Y13413D01*
Y5598D02*
X140469D01*
X140669D01*
Y13413D01*
X150669Y5598D02*
Y13413D01*
Y5598D02*
X151669D01*
Y13413D01*
X103447Y300790D02*
X99448D01*
Y297791D01*
X101447Y298791D01*
X102447D01*
X103447Y297791D01*
Y295792D01*
X102447Y294792D01*
X100448D01*
X99448Y295792D01*
X109445Y294792D02*
X105446D01*
X109445Y298791D01*
Y299791D01*
X108445Y300790D01*
X106446D01*
X105446Y299791D01*
X119442Y294792D02*
X117442Y296792D01*
Y298791D01*
X119442Y300790D01*
X122441Y294792D02*
Y298791D01*
X123440D01*
X124440Y297791D01*
Y294792D01*
Y297791D01*
X125440Y298791D01*
X126439Y297791D01*
Y294792D01*
X128439D02*
Y298791D01*
X129438D01*
X130438Y297791D01*
Y294792D01*
Y297791D01*
X131438Y298791D01*
X132437Y297791D01*
Y294792D01*
X134437D02*
X136436Y296792D01*
Y298791D01*
X134437Y300790D01*
X164961Y-22103D02*
X166961D01*
X165961D01*
Y-16105D01*
X164961Y-17105D01*
X169960Y-21103D02*
X170959Y-22103D01*
X172959D01*
X173958Y-21103D01*
Y-17105D01*
X172959Y-16105D01*
X170959D01*
X169960Y-17105D01*
Y-18104D01*
X170959Y-19104D01*
X173958D01*
X183955Y-22103D02*
X181956Y-20104D01*
Y-18104D01*
X183955Y-16105D01*
X186954Y-22103D02*
Y-18104D01*
X187954D01*
X188953Y-19104D01*
Y-22103D01*
Y-19104D01*
X189953Y-18104D01*
X190953Y-19104D01*
Y-22103D01*
X192952D02*
Y-18104D01*
X193952D01*
X194951Y-19104D01*
Y-22103D01*
Y-19104D01*
X195951Y-18104D01*
X196951Y-19104D01*
Y-22103D01*
X198950D02*
X200950Y-20104D01*
Y-18104D01*
X198950Y-16105D01*
X33465Y-24071D02*
X35465D01*
X34465D01*
Y-18073D01*
X33465Y-19073D01*
X38464Y-23072D02*
X39463Y-24071D01*
X41463D01*
X42462Y-23072D01*
Y-19073D01*
X41463Y-18073D01*
X39463D01*
X38464Y-19073D01*
Y-20073D01*
X39463Y-21072D01*
X42462D01*
X52459Y-24071D02*
X50460Y-22072D01*
Y-20073D01*
X52459Y-18073D01*
X55458Y-24071D02*
Y-20073D01*
X56458D01*
X57457Y-21072D01*
Y-24071D01*
Y-21072D01*
X58457Y-20073D01*
X59457Y-21072D01*
Y-24071D01*
X61456D02*
Y-20073D01*
X62456D01*
X63455Y-21072D01*
Y-24071D01*
Y-21072D01*
X64455Y-20073D01*
X65455Y-21072D01*
Y-24071D01*
X67454D02*
X69454Y-22072D01*
Y-20073D01*
X67454Y-18073D01*
X43517Y-55342D02*
X39518D01*
X43517Y-51343D01*
Y-50343D01*
X42517Y-49343D01*
X40518D01*
X39518Y-50343D01*
X49515Y-49343D02*
X47515Y-50343D01*
X45516Y-52342D01*
Y-54342D01*
X46516Y-55342D01*
X48515D01*
X49515Y-54342D01*
Y-53342D01*
X48515Y-52342D01*
X45516D01*
X51514Y-55342D02*
Y-54342D01*
X52514D01*
Y-55342D01*
X51514D01*
X59512D02*
Y-49343D01*
X56512Y-52342D01*
X60511D01*
X62511Y-49343D02*
X66509D01*
Y-50343D01*
X62511Y-54342D01*
Y-55342D01*
X72507Y-49343D02*
X68509D01*
Y-52342D01*
X70508Y-51343D01*
X71508D01*
X72507Y-52342D01*
Y-54342D01*
X71508Y-55342D01*
X69508D01*
X68509Y-54342D01*
X82504Y-55342D02*
X80505Y-53342D01*
Y-51343D01*
X82504Y-49343D01*
X85503Y-55342D02*
Y-51343D01*
X86503D01*
X87502Y-52342D01*
Y-55342D01*
Y-52342D01*
X88502Y-51343D01*
X89502Y-52342D01*
Y-55342D01*
X91501D02*
Y-51343D01*
X92501D01*
X93501Y-52342D01*
Y-55342D01*
Y-52342D01*
X94500Y-51343D01*
X95500Y-52342D01*
Y-55342D01*
X97499D02*
X99499Y-53342D01*
Y-51343D01*
X97499Y-49343D01*
X147769Y-55342D02*
X143770D01*
X147769Y-51343D01*
Y-50343D01*
X146769Y-49343D01*
X144770D01*
X143770Y-50343D01*
X153767Y-49343D02*
X151767Y-50343D01*
X149768Y-52342D01*
Y-54342D01*
X150768Y-55342D01*
X152767D01*
X153767Y-54342D01*
Y-53342D01*
X152767Y-52342D01*
X149768D01*
X155766Y-55342D02*
Y-54342D01*
X156766D01*
Y-55342D01*
X155766D01*
X163763D02*
Y-49343D01*
X160764Y-52342D01*
X164763D01*
X166762Y-50343D02*
X167762Y-49343D01*
X169762D01*
X170761Y-50343D01*
Y-51343D01*
X169762Y-52342D01*
X170761Y-53342D01*
Y-54342D01*
X169762Y-55342D01*
X167762D01*
X166762Y-54342D01*
Y-53342D01*
X167762Y-52342D01*
X166762Y-51343D01*
Y-50343D01*
X167762Y-52342D02*
X169762D01*
X176759Y-49343D02*
X172760D01*
Y-52342D01*
X174760Y-51343D01*
X175760D01*
X176759Y-52342D01*
Y-54342D01*
X175760Y-55342D01*
X173760D01*
X172760Y-54342D01*
X186756Y-55342D02*
X184757Y-53342D01*
Y-51343D01*
X186756Y-49343D01*
X189755Y-55342D02*
Y-51343D01*
X190755D01*
X191754Y-52342D01*
Y-55342D01*
Y-52342D01*
X192754Y-51343D01*
X193754Y-52342D01*
Y-55342D01*
X195753D02*
Y-51343D01*
X196753D01*
X197752Y-52342D01*
Y-55342D01*
Y-52342D01*
X198752Y-51343D01*
X199752Y-52342D01*
Y-55342D01*
X201751D02*
X203750Y-53342D01*
Y-51343D01*
X201751Y-49343D01*
X269902Y109406D02*
Y113405D01*
X270902D01*
X274901Y109406D01*
X275900D01*
Y119403D02*
Y115404D01*
X271902Y119403D01*
X270902D01*
X269902Y118403D01*
Y116404D01*
X270902Y115404D01*
X275900Y121402D02*
X274901D01*
Y122402D01*
X275900D01*
Y121402D01*
X270902Y126400D02*
X269902Y127400D01*
Y129399D01*
X270902Y130399D01*
X274901D01*
X275900Y129399D01*
Y127400D01*
X274901Y126400D01*
X270902D01*
Y132398D02*
X269902Y133398D01*
Y135398D01*
X270902Y136397D01*
X274901D01*
X275900Y135398D01*
Y133398D01*
X274901Y132398D01*
X270902D01*
X269902Y138397D02*
Y142395D01*
X270902D01*
X274901Y138397D01*
X275900D01*
Y152392D02*
X273901Y150393D01*
X271902D01*
X269902Y152392D01*
X275900Y155391D02*
X271902D01*
Y156391D01*
X272901Y157390D01*
X275900D01*
X272901D01*
X271902Y158390D01*
X272901Y159390D01*
X275900D01*
Y161389D02*
X271902D01*
Y162389D01*
X272901Y163388D01*
X275900D01*
X272901D01*
X271902Y164388D01*
X272901Y165388D01*
X275900D01*
Y167387D02*
X273901Y169386D01*
X271902D01*
X269902Y167387D01*
X105517Y310108D02*
X103518Y309108D01*
X101519Y307109D01*
Y305109D01*
X102518Y304110D01*
X104518D01*
X105517Y305109D01*
Y306109D01*
X104518Y307109D01*
X101519D01*
X107517Y309108D02*
X108517Y310108D01*
X110516D01*
X111515Y309108D01*
Y305109D01*
X110516Y304110D01*
X108517D01*
X107517Y305109D01*
Y309108D01*
X121512Y304110D02*
X119513Y306109D01*
Y308108D01*
X121512Y310108D01*
X124511Y304110D02*
Y308108D01*
X125511D01*
X126511Y307109D01*
Y304110D01*
Y307109D01*
X127510Y308108D01*
X128510Y307109D01*
Y304110D01*
X130509D02*
Y308108D01*
X131509D01*
X132509Y307109D01*
Y304110D01*
Y307109D01*
X133508Y308108D01*
X134508Y307109D01*
Y304110D01*
X136507D02*
X138507Y306109D01*
Y308108D01*
X136507Y310108D01*
D15*
X139051Y27406D02*
X140551Y25905D01*
X139051Y27406D02*
X142051D01*
X140551Y25905D02*
X142051Y27406D01*
D16*
X74803Y591D02*
Y18307D01*
X106299D01*
Y591D02*
Y18307D01*
X74803Y591D02*
X106299D01*
D17*
X0Y145392D02*
Y185392D01*
M02*
