M48
;Layer_Color=9474304
;FILE_FORMAT=2:5
INCH,LZ
;TYPE=PLATED
T1F00S00C0.01575
T3F00S00C0.02362
T4F00S00C0.02756
T6F00S00C0.03543
T7F00S00C0.03937
T8F00S00C0.07874
T9F00S00C0.12598
;TYPE=NON_PLATED
T10F00S00C0.02165
%
T01
X011811Y0011811
Y0023622
X0161417Y0043307
X0192913Y0019685
X022441Y0043307
X0218504Y0112205
X0182313Y0107297
X0156315Y0104618
X0162598Y0097244
X0086572Y0112044
X0070866Y0043307
X0062992Y0019685
X0047244
X0015748Y0043307
X0017717Y0119095
Y0127953
X0027559
Y0119095
X0037402
Y0127953
X00475Y0128992
X0047244Y0119095
X008092Y0119592
X0084504Y0204205
X0090504
X0096504
X0098504Y0210205
X0094504Y0214205
X0090504Y0218205
X0046504Y0184205
Y0178205
X0029872Y0180344
Y0174614
X0029951Y0168614
X0008504Y0144205
X0011811Y0236221
Y0244094
Y0251969
X0141648Y0229917
X0141548Y0220317
X0141572Y0203644
X0147721Y0203844
X0153543Y0177165
X0154504Y0164205
X014027Y0166142
X0133465Y0169291
X0143917Y0156879
X014874Y0151092
X0143951Y0142614
X0138307Y0136114
X0141951Y0128614
X0119548Y0139092
X0119348Y0147292
X0127185Y0147234
X0102504Y0132205
X0109672Y0182392
X0179134Y0175197
Y017126
Y0167323
X0205709Y0165354
Y0172244
Y0179134
Y0187008
X0195751Y0142614
X0172751
X0218504Y0119095
T03
X0164976Y0161674
Y0180572
T04
X0082677Y0009449
X0090551
X0098425
T06
X0118091Y0032254
Y0042254
Y0052254
X0231065Y0083592
Y0093592
Y0103592
Y0113592
X0093486Y007915
X0086415Y0072079
X0005Y0083592
Y0093592
Y0103592
X0005Y0113592
Y0123592
Y0133592
Y0151092
Y0161092
Y0171092
Y0181092
Y0196092
X0015
X0025
Y0206092
X0015
X0005
Y0216092
X0015
X0025
X0038482Y0272965
X0048482
X0087341
X0097341
X0082577Y016702
X0072577
X0062577
X0052577
Y015702
X0062577
X0072577
X0082577
X0112951Y0248614
X0122951
X0157108Y0216114
X0176793
X0211065Y0216092
Y0226092
Y0236092
X0221065
X0231065
Y0226092
X0221065
Y0216092
X0231065
Y0206092
X0221065
X0211065
Y0196092
X0221065
X0231065
Y0133592
Y0123592
T07
X0150512Y0028927
X0168228
X0182008Y0032076
X0199724
X0213504Y0028927
X0231221
Y0055699
X0213504
X0199724Y0052549
X0182008
X0168228Y0055699
X0150512
X0166297Y0089992
X0176297
X0182008Y0079321
X0199724
Y0005305
X0182008
X0085709Y0028868
X0067992
X0054212Y0032017
X0036496
X0022716Y0028868
X0005
Y0055639
X0022716
X0067992
X0085709
X0069762Y0089992
X0059762
X0054212Y0005246
X0036496
X0062951Y0238614
X0072951
X0082951
X0092951
X0102951
X0112951
X0122951
X0132951
X0142951
X0152951
X0162951
X0172951
T08
X0193817Y0086055
X0042242
Y0242748
X0193817
T09
X011811Y0066929
X0015748Y0267717
X0220472
T10
X0137795Y0017008
X0153543
M30
