G04*
G04 #@! TF.GenerationSoftware,Altium Limited,Altium Designer,22.2.1 (43)*
G04*
G04 Layer_Physical_Order=1*
G04 Layer_Color=204*
%FSLAX25Y25*%
%MOIN*%
G70*
G04*
G04 #@! TF.SameCoordinates,9C75C661-4079-485B-A4B9-5B77D2324FE1*
G04*
G04*
G04 #@! TF.FilePolarity,Positive*
G04*
G01*
G75*
%ADD11C,0.01000*%
%ADD16C,0.01575*%
%ADD18O,0.01968X0.06693*%
%ADD19O,0.06693X0.01968*%
%ADD20R,0.03500X0.05000*%
%ADD21R,0.01500X0.08465*%
G04:AMPARAMS|DCode=22|XSize=50mil|YSize=35mil|CornerRadius=0mil|HoleSize=0mil|Usage=FLASHONLY|Rotation=135.000|XOffset=0mil|YOffset=0mil|HoleType=Round|Shape=Rectangle|*
%AMROTATEDRECTD22*
4,1,4,0.03005,-0.00530,0.00530,-0.03005,-0.03005,0.00530,-0.00530,0.03005,0.03005,-0.00530,0.0*
%
%ADD22ROTATEDRECTD22*%

%ADD47C,0.01181*%
%ADD48C,0.01968*%
%ADD49C,0.03150*%
%ADD50C,0.01772*%
%ADD51C,0.03937*%
%ADD52C,0.07087*%
%ADD53C,0.05118*%
%ADD54C,0.12598*%
%ADD55O,0.04724X0.07874*%
%ADD56C,0.06693*%
%ADD57C,0.07480*%
%ADD58R,0.07480X0.07480*%
%ADD59R,0.06693X0.06693*%
%ADD60R,0.06693X0.06693*%
%ADD61R,0.07087X0.07087*%
%ADD62P,0.09465X4X270.0*%
%ADD63R,0.04724X0.07874*%
%ADD64C,0.04724*%
%ADD65C,0.05906*%
%ADD66R,0.05906X0.05906*%
%ADD67O,0.05906X0.07874*%
%ADD68R,0.05906X0.07874*%
%ADD69C,0.07874*%
%ADD70C,0.03150*%
G36*
X222720Y281935D02*
X224912Y281409D01*
X226995Y280546D01*
X228917Y279368D01*
X230631Y277904D01*
X232095Y276190D01*
X233273Y274268D01*
X234136Y272185D01*
X234662Y269993D01*
X234833Y267822D01*
X234818Y267746D01*
Y239980D01*
X233921Y239538D01*
X233320Y239999D01*
X232232Y240449D01*
X231065Y240603D01*
X229897Y240449D01*
X228809Y239999D01*
X227875Y239282D01*
X227158Y238348D01*
X226708Y237260D01*
X226565Y236176D01*
X225565D01*
X225422Y237260D01*
X224971Y238348D01*
X224859Y238494D01*
X222457Y236092D01*
X224859Y233690D01*
X224971Y233837D01*
X225422Y234925D01*
X225565Y236008D01*
X226565D01*
X226708Y234925D01*
X227158Y233837D01*
X227875Y232902D01*
X228809Y232186D01*
X229897Y231735D01*
X230981Y231592D01*
Y230592D01*
X229897Y230449D01*
X228809Y229999D01*
X227875Y229282D01*
X227158Y228348D01*
X226708Y227260D01*
X226565Y226176D01*
X225565D01*
X225422Y227260D01*
X224971Y228348D01*
X224859Y228494D01*
X222457Y226092D01*
X224859Y223690D01*
X224971Y223837D01*
X225422Y224925D01*
X225565Y226008D01*
X226565D01*
X226708Y224925D01*
X227158Y223837D01*
X227875Y222902D01*
X228809Y222185D01*
X229897Y221735D01*
X230981Y221592D01*
Y220592D01*
X229897Y220449D01*
X228809Y219999D01*
X227875Y219282D01*
X227158Y218348D01*
X226708Y217260D01*
X226565Y216176D01*
X225565D01*
X225422Y217260D01*
X224971Y218348D01*
X224859Y218494D01*
X221761Y215396D01*
X221065Y216092D01*
X220369Y215396D01*
X217271Y218494D01*
X217158Y218348D01*
X216707Y217260D01*
X216554Y216092D01*
X216707Y214925D01*
X217158Y213837D01*
X217304Y213647D01*
X216861Y212750D01*
X215537D01*
Y220565D01*
X206592D01*
Y218334D01*
X205549Y217902D01*
X204396Y217750D01*
X204287D01*
X204193Y217759D01*
Y217750D01*
X195489D01*
X195107Y218674D01*
X200767Y224334D01*
X203951D01*
Y224323D01*
X204062Y224334D01*
X204615D01*
X205701Y224191D01*
X206592Y223822D01*
Y221620D01*
X215537D01*
Y230565D01*
X210473D01*
X210458Y230932D01*
X211065Y231588D01*
X211065Y231588D01*
D01*
X211225Y231620D01*
X215537D01*
Y240565D01*
X206592D01*
Y237540D01*
X206180Y237264D01*
X205566Y236651D01*
X205519Y236612D01*
X205524Y236608D01*
D01*
X203943Y235027D01*
X203804Y234914D01*
X203817Y234901D01*
X202174Y233259D01*
X202104Y233199D01*
X202109Y233194D01*
X200534Y231619D01*
X200392Y231497D01*
X200392Y231497D01*
X200402Y231487D01*
X198756Y229840D01*
X198691Y229784D01*
X198695Y229780D01*
X182387Y213471D01*
X181463Y213854D01*
Y220783D01*
X172124D01*
Y211450D01*
X160256D01*
X159934Y212397D01*
X160439Y212784D01*
X161187Y213759D01*
X161657Y214895D01*
X161818Y216114D01*
X161657Y217333D01*
X161187Y218469D01*
X160439Y219444D01*
X159463Y220193D01*
X158327Y220663D01*
X157108Y220824D01*
X155889Y220663D01*
X154753Y220193D01*
X153778Y219444D01*
X153030Y218469D01*
X152559Y217333D01*
X152399Y216114D01*
X152559Y214895D01*
X153030Y213759D01*
X153778Y212784D01*
X154282Y212397D01*
X153961Y211450D01*
X137320D01*
X136685Y211324D01*
X136147Y210964D01*
X133449Y208266D01*
X133441Y208275D01*
X133441Y208275D01*
X133385Y208202D01*
X132554Y207371D01*
X131559Y207469D01*
X131385Y207731D01*
X118361Y220754D01*
X117793Y221133D01*
X117124Y221267D01*
X108087D01*
X104701Y224652D01*
Y231486D01*
X104710D01*
X104701Y231579D01*
Y231713D01*
X104855Y232885D01*
X105396Y234190D01*
X106170Y235199D01*
X106281Y235284D01*
X107029Y236259D01*
X107451Y237277D01*
X108451D01*
X108872Y236259D01*
X109621Y235284D01*
X110596Y234536D01*
X111732Y234065D01*
X112951Y233905D01*
X114170Y234065D01*
X115306Y234536D01*
X116281Y235284D01*
X117030Y236259D01*
X117451Y237277D01*
X118451D01*
X118872Y236259D01*
X119016Y236071D01*
X121559Y238614D01*
X119016Y241157D01*
X118872Y240969D01*
X118451Y239951D01*
X117451D01*
X117030Y240969D01*
X116281Y241944D01*
X115306Y242693D01*
X114170Y243163D01*
X113789Y243213D01*
Y244213D01*
X114118Y244257D01*
X115206Y244707D01*
X116141Y245424D01*
X116858Y246359D01*
X117308Y247446D01*
X117462Y248614D01*
X117308Y249782D01*
X116858Y250870D01*
X116141Y251804D01*
X115206Y252521D01*
X114118Y252971D01*
X112951Y253125D01*
X111783Y252971D01*
X110695Y252521D01*
X109761Y251804D01*
X109044Y250870D01*
X108593Y249782D01*
X108440Y248614D01*
X108593Y247446D01*
X109044Y246359D01*
X109761Y245424D01*
X110695Y244707D01*
X111783Y244257D01*
X112113Y244213D01*
Y243213D01*
X111732Y243163D01*
X110596Y242693D01*
X109621Y241944D01*
X108872Y240969D01*
X108451Y239951D01*
X107451D01*
X107029Y240969D01*
X106281Y241944D01*
X105306Y242693D01*
X104170Y243163D01*
X102951Y243324D01*
X101732Y243163D01*
X100596Y242693D01*
X99621Y241944D01*
X98872Y240969D01*
X98451Y239951D01*
X97451D01*
X97030Y240969D01*
X96281Y241944D01*
X95306Y242693D01*
X94170Y243163D01*
X92951Y243324D01*
X91732Y243163D01*
X90596Y242693D01*
X89621Y241944D01*
X88872Y240969D01*
X88451Y239951D01*
X87451D01*
X87029Y240969D01*
X86281Y241944D01*
X85306Y242693D01*
X84170Y243163D01*
X82951Y243324D01*
X81732Y243163D01*
X80596Y242693D01*
X79621Y241944D01*
X78872Y240969D01*
X78451Y239951D01*
X77451D01*
X77030Y240969D01*
X76281Y241944D01*
X75306Y242693D01*
X74170Y243163D01*
X72951Y243324D01*
X71732Y243163D01*
X70596Y242693D01*
X69621Y241944D01*
X68872Y240969D01*
X68451Y239951D01*
X67451D01*
X67030Y240969D01*
X66281Y241944D01*
X65306Y242693D01*
X64170Y243163D01*
X62951Y243324D01*
X61732Y243163D01*
X60596Y242693D01*
X59621Y241944D01*
X58872Y240969D01*
X58402Y239833D01*
X58241Y238614D01*
X58402Y237395D01*
X58872Y236259D01*
X59621Y235284D01*
X60596Y234536D01*
X61732Y234065D01*
X62951Y233905D01*
X63090Y233923D01*
X64351Y233757D01*
X65655Y233217D01*
X66593Y232496D01*
X66688Y232402D01*
X66747Y232329D01*
X66754Y232336D01*
X70335Y228755D01*
X70903Y228375D01*
X71573Y228242D01*
X83823D01*
X102535Y209530D01*
X103103Y209151D01*
X103772Y209018D01*
X104792D01*
X105175Y208094D01*
X100298Y203217D01*
X99962Y203213D01*
X99965Y202884D01*
X99256Y202175D01*
X75278D01*
X74609Y202042D01*
X74041Y201663D01*
X44123Y171745D01*
X43199Y172127D01*
Y202092D01*
X43050Y202839D01*
X42628Y203472D01*
X34586Y211513D01*
X34589Y211516D01*
X34547Y211552D01*
X31897Y214202D01*
X31897Y214202D01*
X31904Y214209D01*
X31829Y214270D01*
X29472Y216627D01*
Y220565D01*
X20528D01*
Y211620D01*
X24812D01*
X25000Y211582D01*
D01*
X25000Y211582D01*
X25511Y211018D01*
X25489Y210565D01*
X20528D01*
Y201620D01*
X24812D01*
X25000Y201582D01*
D01*
X25000Y201582D01*
X25536Y201002D01*
X25540Y201087D01*
X25519Y200565D01*
X20528D01*
Y191620D01*
X24812D01*
X25000Y191582D01*
Y191582D01*
X25033Y191612D01*
X26843Y191434D01*
X28615Y190896D01*
X30248Y190023D01*
X31419Y189062D01*
X31656Y188825D01*
X31656Y188825D01*
X31656Y188825D01*
X32998Y187483D01*
Y182263D01*
X32051Y181941D01*
X31799Y182270D01*
X31234Y182703D01*
X30577Y182975D01*
X29872Y183068D01*
X29167Y182975D01*
X28510Y182703D01*
X27946Y182270D01*
X27513Y181706D01*
X27241Y181049D01*
X27148Y180344D01*
X27241Y179639D01*
X27513Y178982D01*
X27721Y178712D01*
Y176247D01*
X27513Y175976D01*
X27241Y175319D01*
X27148Y174614D01*
X27241Y173909D01*
X27513Y173252D01*
X27721Y172982D01*
Y170144D01*
X27592Y169976D01*
X27320Y169319D01*
X27227Y168614D01*
X27320Y167909D01*
X27592Y167252D01*
X27721Y167084D01*
Y146520D01*
X27721Y146520D01*
X27721D01*
X27885Y145696D01*
X28351Y144998D01*
X44800Y128550D01*
Y128550D01*
X44800Y128550D01*
X44800Y128550D01*
X44800Y128550D01*
D01*
D01*
D01*
D01*
X44800Y128550D01*
X44839Y128510D01*
X44869Y128287D01*
X45141Y127630D01*
X45574Y127066D01*
X46063Y126691D01*
X45741Y125744D01*
X10536D01*
X9778Y125844D01*
X8916Y126200D01*
X8234Y126724D01*
X8190Y126782D01*
X8192Y126784D01*
X8187Y126787D01*
Y126787D01*
X8187Y126787D01*
X8157Y126807D01*
X7255Y127499D01*
X6168Y127949D01*
X5000Y128103D01*
X3833Y127949D01*
X2744Y127499D01*
X2300Y127158D01*
X1403Y127600D01*
Y129120D01*
X9472D01*
Y133384D01*
X9514Y133592D01*
X9514D01*
X9495Y133614D01*
X9614Y134517D01*
X9971Y135379D01*
X10436Y135986D01*
X10554Y136103D01*
X10554D01*
D01*
D01*
X10554Y136103D01*
Y136103D01*
X10554D01*
X10554Y136103D01*
X10554Y136103D01*
D01*
X14742Y140291D01*
X15208Y140989D01*
X15372Y141813D01*
X15372Y141813D01*
X15372Y141813D01*
Y141813D01*
Y187872D01*
X15208Y188695D01*
X14742Y189393D01*
X13200Y190935D01*
X13755Y191767D01*
X13833Y191735D01*
X15000Y191581D01*
X16168Y191735D01*
X17255Y192185D01*
X17402Y192298D01*
X14304Y195396D01*
X15696Y196788D01*
X18794Y193690D01*
X18907Y193837D01*
X19357Y194925D01*
X19511Y196092D01*
X19357Y197260D01*
X18907Y198348D01*
X18190Y199282D01*
X18121Y199335D01*
Y202850D01*
X18190Y202902D01*
X18907Y203837D01*
X19357Y204925D01*
X19511Y206092D01*
X19357Y207260D01*
X18907Y208348D01*
X18190Y209282D01*
X18121Y209334D01*
Y212850D01*
X18190Y212902D01*
X18907Y213837D01*
X19357Y214925D01*
X19511Y216092D01*
X19357Y217260D01*
X18907Y218348D01*
X18794Y218494D01*
X15696Y215396D01*
X15000Y216092D01*
X14304Y215396D01*
X11206Y218494D01*
X11093Y218348D01*
X10643Y217260D01*
X10500Y216176D01*
X9500D01*
X9357Y217260D01*
X8907Y218348D01*
X8190Y219282D01*
X7255Y219999D01*
X6168Y220449D01*
X5000Y220603D01*
X3833Y220449D01*
X2744Y219999D01*
X2300Y219658D01*
X1403Y220100D01*
Y267746D01*
X1403Y267746D01*
X1403D01*
X1388Y267822D01*
X1559Y269993D01*
X2085Y272185D01*
X2947Y274268D01*
X4125Y276190D01*
X5590Y277904D01*
X7304Y279368D01*
X9226Y280546D01*
X11309Y281409D01*
X13501Y281935D01*
X15672Y282106D01*
X15748Y282091D01*
X220472D01*
X220549Y282106D01*
X222720Y281935D01*
D02*
G37*
G36*
X217304Y198537D02*
X217158Y198348D01*
X216707Y197260D01*
X216554Y196092D01*
X216707Y194925D01*
X217158Y193837D01*
X217271Y193690D01*
X220369Y196788D01*
X221065Y196092D01*
X221761Y196788D01*
X224859Y193690D01*
X224971Y193837D01*
X225422Y194925D01*
X225565Y196008D01*
X226565D01*
X226708Y194925D01*
X227158Y193837D01*
X227875Y192902D01*
X228809Y192185D01*
X229897Y191735D01*
X231065Y191581D01*
X232232Y191735D01*
X233320Y192185D01*
X233921Y192646D01*
X234818Y192204D01*
Y138065D01*
X226592D01*
Y129120D01*
X234818D01*
Y127480D01*
X233921Y127038D01*
X233320Y127499D01*
X232232Y127949D01*
X231065Y128103D01*
X229897Y127949D01*
X228809Y127499D01*
X227908Y126807D01*
X227873Y126784D01*
X227875Y126782D01*
X227830Y126724D01*
X227149Y126200D01*
X226287Y125844D01*
X225528Y125744D01*
X144510D01*
X144351Y125982D01*
X144823Y126864D01*
X182414D01*
X183084Y126997D01*
X183652Y127376D01*
X183652Y127376D01*
X183652Y127376D01*
X194839Y138564D01*
X194850Y138553D01*
X194922Y138647D01*
X196228Y139953D01*
X196456Y139983D01*
X197113Y140255D01*
X197677Y140688D01*
X198110Y141252D01*
X198382Y141909D01*
X198475Y142614D01*
X198382Y143319D01*
X198110Y143976D01*
X197677Y144540D01*
X197113Y144973D01*
X196456Y145245D01*
X195751Y145338D01*
X195046Y145245D01*
X194389Y144973D01*
X193825Y144540D01*
X193392Y143976D01*
X193120Y143319D01*
X193047Y142768D01*
X193016Y142614D01*
X193027D01*
X193033Y142564D01*
X192872Y141752D01*
X192460Y141135D01*
X192364Y141039D01*
X192364D01*
X192364Y141039D01*
D01*
D01*
Y141039D01*
X192364Y141039D01*
D01*
D01*
D01*
X192364Y141039D01*
D01*
X181689Y130364D01*
X144336D01*
X144327Y130369D01*
X144327Y130369D01*
X144107Y130460D01*
X143887Y130551D01*
X143884Y130548D01*
X143754Y130635D01*
X143313Y130973D01*
X142656Y131245D01*
X141951Y131338D01*
X141246Y131245D01*
X140589Y130973D01*
X140025Y130540D01*
X139592Y129976D01*
X139320Y129319D01*
X139227Y128614D01*
X139320Y127909D01*
X139592Y127252D01*
X140025Y126688D01*
X139300Y125744D01*
X126316D01*
X116382Y135677D01*
Y137226D01*
X117329Y137548D01*
X117622Y137166D01*
X118186Y136733D01*
X118843Y136461D01*
X119548Y136368D01*
X120253Y136461D01*
X120910Y136733D01*
X121474Y137166D01*
X121907Y137730D01*
X122179Y138387D01*
X122252Y138938D01*
X122282Y139092D01*
X122287D01*
D01*
D01*
D01*
D01*
D01*
D01*
X122287Y139092D01*
X122287D01*
X122287D01*
X122287Y139092D01*
X124145Y141214D01*
X124145Y141214D01*
X124524Y141781D01*
X124657Y142451D01*
Y144639D01*
X125554Y145081D01*
X125823Y144875D01*
X126480Y144603D01*
X127185Y144510D01*
X127890Y144603D01*
X128547Y144875D01*
X129111Y145308D01*
X129544Y145872D01*
X129816Y146529D01*
X129909Y147234D01*
X129880Y147453D01*
X130772Y147905D01*
X137522Y141442D01*
D01*
X137522Y141442D01*
Y141442D01*
X138060Y141082D01*
X138695Y140956D01*
X141356D01*
X141356Y140956D01*
D01*
D01*
Y140956D01*
X141356Y140956D01*
Y140952D01*
X141356Y140952D01*
X141356Y140952D01*
Y140952D01*
X141356D01*
X142018Y140682D01*
D01*
D01*
D01*
X142018Y140682D01*
D01*
X142018Y140682D01*
X142019Y140682D01*
X142019Y140682D01*
X142126Y140610D01*
X142589Y140255D01*
X143246Y139983D01*
X143951Y139890D01*
X144656Y139983D01*
X145313Y140255D01*
X145877Y140688D01*
X146310Y141252D01*
X146582Y141909D01*
X146675Y142614D01*
X146582Y143319D01*
X146310Y143976D01*
X145877Y144540D01*
X145313Y144973D01*
X144656Y145245D01*
X143951Y145338D01*
X143246Y145245D01*
X142589Y144973D01*
X142126Y144618D01*
X142019Y144546D01*
X142018Y144546D01*
D01*
X142018D01*
D01*
X141364Y144275D01*
X141356Y144276D01*
D01*
X141356Y144276D01*
X141356Y144272D01*
Y144272D01*
X141356Y144272D01*
X139381D01*
X132930Y150723D01*
X133047Y151314D01*
X133173Y151727D01*
X133951Y151882D01*
X134649Y152349D01*
X134756D01*
X135454Y151882D01*
X136278Y151718D01*
X137101Y151882D01*
X137799Y152349D01*
X137906D01*
X138604Y151882D01*
X139427Y151718D01*
X140251Y151882D01*
X140949Y152349D01*
X141415Y153047D01*
X141579Y153870D01*
X141951Y154241D01*
X143313Y154235D01*
X143917Y154155D01*
X144485Y154230D01*
X146770Y154221D01*
Y153001D01*
X146746Y152946D01*
X146746D01*
X146747Y152944D01*
X146684Y152849D01*
X146381Y152454D01*
X146109Y151797D01*
X146016Y151092D01*
X146109Y150387D01*
X146381Y149730D01*
X146814Y149166D01*
X147378Y148733D01*
X148035Y148461D01*
X148740Y148368D01*
X149445Y148461D01*
X150102Y148733D01*
X150666Y149166D01*
X151099Y149730D01*
X151371Y150387D01*
X151464Y151092D01*
X151371Y151797D01*
X151099Y152454D01*
X150796Y152849D01*
X150685Y153016D01*
X150685Y153037D01*
X150685Y153037D01*
X150683Y153041D01*
D01*
D01*
D01*
X150683D01*
D01*
X150671Y153053D01*
Y161896D01*
X150644Y162036D01*
X150679Y162121D01*
X151061Y162692D01*
X151225Y163516D01*
X151061Y164339D01*
X150594Y165037D01*
Y165144D01*
X151061Y165842D01*
X151225Y166665D01*
X151159Y166992D01*
X151794Y167766D01*
X155732D01*
X159900Y163597D01*
X159900Y163597D01*
X159900Y163597D01*
X159900Y163597D01*
X160901Y162596D01*
X161162Y162206D01*
X161263Y161700D01*
X161259Y161674D01*
X161253D01*
X161270Y161589D01*
X161386Y160712D01*
X161757Y159816D01*
X162348Y159046D01*
X163118Y158455D01*
X164014Y158084D01*
X164976Y157957D01*
X165938Y158084D01*
X166120Y158159D01*
X169160D01*
Y157396D01*
X174912D01*
Y158725D01*
X175030Y158816D01*
X175526Y159462D01*
X175659Y159783D01*
X176640Y159588D01*
Y159538D01*
X178124Y161022D01*
X176640Y162506D01*
Y162458D01*
X175659Y162263D01*
X175526Y162583D01*
X175030Y163230D01*
X174912Y163348D01*
Y164648D01*
X169160D01*
Y164401D01*
X167475D01*
X166834Y164893D01*
X165938Y165264D01*
X165061Y165380D01*
X164976Y165396D01*
Y165391D01*
X164938Y165386D01*
X164124Y165493D01*
X163330Y165822D01*
X162743Y166272D01*
X159722Y169294D01*
X158256Y171487D01*
X162743Y175973D01*
X163330Y176424D01*
X164124Y176752D01*
X164938Y176860D01*
X164976Y176855D01*
Y176849D01*
X165061Y176866D01*
X165938Y176981D01*
X166834Y177353D01*
X167475Y177844D01*
X169160D01*
Y177296D01*
X174912D01*
Y178625D01*
X175030Y178716D01*
X175526Y179362D01*
X175659Y179683D01*
X176640Y179488D01*
Y179438D01*
X178124Y180922D01*
X176640Y182406D01*
Y182358D01*
X175659Y182163D01*
X175526Y182483D01*
X175030Y183130D01*
X174988Y183172D01*
X174912Y183231D01*
Y184548D01*
X169160D01*
Y184086D01*
X166120D01*
X165938Y184162D01*
X164976Y184288D01*
X164014Y184162D01*
X163118Y183790D01*
X162348Y183200D01*
X161757Y182430D01*
X161386Y181534D01*
X161270Y180656D01*
X161253Y180572D01*
X161259D01*
X161263Y180546D01*
X161162Y180040D01*
X160901Y179649D01*
X159900Y178648D01*
X159900D01*
X159900Y178648D01*
D01*
D01*
Y178648D01*
X159900Y178648D01*
D01*
D01*
D01*
X159900Y178648D01*
D01*
X156339Y175087D01*
X155350Y175234D01*
X155101Y175699D01*
X155531Y176342D01*
X155695Y177165D01*
X155531Y177989D01*
X155065Y178687D01*
X154367Y179153D01*
X153543Y179317D01*
X152720Y179153D01*
X152504Y179009D01*
X151225Y179264D01*
X151061Y180087D01*
X150761Y180536D01*
X150874Y180810D01*
X151412Y181169D01*
X166223Y195980D01*
X200642D01*
X202105Y195865D01*
X203708Y195480D01*
X205231Y194849D01*
X206592Y194015D01*
Y191620D01*
X215537D01*
Y199434D01*
X216861D01*
X217304Y198537D01*
D02*
G37*
G36*
X2744Y192185D02*
X3833Y191735D01*
X4959Y191586D01*
X5000Y191578D01*
Y191581D01*
X5073Y191591D01*
X5925Y191479D01*
X6787Y191121D01*
X7394Y190656D01*
X11069Y186980D01*
Y142704D01*
X7393Y139028D01*
X6787Y138563D01*
X5925Y138206D01*
X5022Y138087D01*
X5000Y138106D01*
Y138106D01*
X4792Y138065D01*
X1403D01*
Y147084D01*
X2300Y147527D01*
X2744Y147186D01*
X3833Y146735D01*
X5000Y146581D01*
X6168Y146735D01*
X7255Y147186D01*
X7402Y147298D01*
X4304Y150396D01*
X5000Y151092D01*
X4304Y151788D01*
X7402Y154886D01*
X7255Y154999D01*
X6168Y155449D01*
X5084Y155592D01*
Y156592D01*
X6168Y156735D01*
X7255Y157185D01*
X8190Y157902D01*
X8907Y158837D01*
X9357Y159925D01*
X9511Y161092D01*
X9357Y162260D01*
X8907Y163348D01*
X8190Y164282D01*
X7255Y164999D01*
X6168Y165449D01*
X5084Y165592D01*
Y166592D01*
X6168Y166735D01*
X7255Y167185D01*
X8190Y167902D01*
X8907Y168837D01*
X9357Y169925D01*
X9511Y171092D01*
X9357Y172260D01*
X8907Y173348D01*
X8190Y174282D01*
X7255Y174999D01*
X6168Y175449D01*
X5000Y175603D01*
X3833Y175449D01*
X2744Y174999D01*
X2300Y174658D01*
X1403Y175100D01*
Y176620D01*
X9472D01*
Y185565D01*
X1403D01*
Y192084D01*
X2300Y192527D01*
X2744Y192185D01*
D02*
G37*
G36*
X101970Y146385D02*
Y143117D01*
X92261Y133408D01*
X90935Y134734D01*
X86868Y130667D01*
X89192Y128343D01*
X89400Y128071D01*
X96000Y121471D01*
X96271Y121263D01*
X98595Y118939D01*
X102663Y123006D01*
X97535Y128134D01*
X97288Y127888D01*
X95816Y129360D01*
X96063Y129606D01*
X95236Y130433D01*
Y131433D01*
X104875Y141072D01*
X105418Y140847D01*
X105799Y140593D01*
Y123414D01*
X82129Y99744D01*
X9000D01*
X8840Y99712D01*
X8311Y100561D01*
X8907Y101337D01*
X9357Y102425D01*
X9511Y103592D01*
X9357Y104760D01*
X8907Y105848D01*
X8190Y106782D01*
X7255Y107499D01*
X6168Y107949D01*
X5084Y108092D01*
Y109092D01*
X6168Y109235D01*
X7255Y109686D01*
X7402Y109798D01*
X4304Y112896D01*
X5000Y113592D01*
X4304Y114288D01*
X7402Y117386D01*
X7255Y117499D01*
X6168Y117949D01*
X5084Y118092D01*
Y119092D01*
X6168Y119235D01*
X7255Y119685D01*
X8157Y120377D01*
X8192Y120400D01*
X8190Y120402D01*
X8234Y120460D01*
X8916Y120984D01*
X9778Y121341D01*
X10536Y121441D01*
X75321D01*
X76144Y121604D01*
X76842Y122071D01*
X100342Y145571D01*
X100808Y146269D01*
X100972Y147092D01*
X100972D01*
X101263D01*
X101970Y146385D01*
D02*
G37*
G36*
X123903Y122071D02*
X124601Y121604D01*
X125424Y121441D01*
X225528D01*
X226287Y121341D01*
X227149Y120984D01*
X227830Y120460D01*
X227875Y120402D01*
X227873Y120400D01*
X227908Y120377D01*
X228809Y119685D01*
X229897Y119235D01*
X230981Y119092D01*
Y118092D01*
X229897Y117949D01*
X228809Y117499D01*
X228663Y117386D01*
X231761Y114288D01*
X231065Y113592D01*
X231761Y112896D01*
X228663Y109798D01*
X228809Y109686D01*
X229897Y109235D01*
X230981Y109092D01*
Y108092D01*
X229897Y107949D01*
X228809Y107499D01*
X227875Y106782D01*
X227158Y105848D01*
X226708Y104760D01*
X226554Y103592D01*
X226708Y102425D01*
X227158Y101337D01*
X227875Y100402D01*
X228809Y99686D01*
X229850Y99254D01*
X229513Y98313D01*
X228737Y98548D01*
X227685Y99111D01*
X226926Y99734D01*
X226778Y99882D01*
Y99882D01*
X226778Y99882D01*
X212594Y114066D01*
X211896Y114532D01*
X211072Y114696D01*
X126764D01*
X113232Y128227D01*
Y131435D01*
X114156Y131817D01*
X123903Y122071D01*
D02*
G37*
G36*
X124351Y111023D02*
X125049Y110556D01*
X125872Y110392D01*
X210181D01*
X223735Y96839D01*
X223729Y96833D01*
X223797Y96777D01*
X226288Y94286D01*
X226483Y93994D01*
X226557Y93619D01*
X226554Y93592D01*
X226551D01*
X226559Y93551D01*
X226708Y92425D01*
X227158Y91337D01*
X227875Y90402D01*
X228809Y89685D01*
X229897Y89235D01*
X231065Y89081D01*
X232232Y89235D01*
X233320Y89685D01*
X233921Y90146D01*
X234818Y89704D01*
Y88064D01*
X227984D01*
X231761Y84288D01*
X231065Y83592D01*
X231761Y82896D01*
X227984Y79120D01*
X234818D01*
Y62992D01*
Y60202D01*
X233921Y59760D01*
X233675Y59949D01*
X232491Y60439D01*
X231221Y60607D01*
X229950Y60439D01*
X228766Y59949D01*
X228538Y59773D01*
X231916Y56394D01*
X231221Y55699D01*
X231916Y55002D01*
X228538Y51623D01*
X228766Y51448D01*
X229950Y50958D01*
X231221Y50790D01*
X232491Y50958D01*
X233675Y51448D01*
X233921Y51637D01*
X234818Y51194D01*
Y33431D01*
X233921Y32989D01*
X233675Y33177D01*
X232491Y33668D01*
X231221Y33835D01*
X229950Y33668D01*
X228766Y33177D01*
X228538Y33002D01*
X231916Y29623D01*
X231221Y28927D01*
X231916Y28231D01*
X228538Y24852D01*
X228766Y24676D01*
X229950Y24186D01*
X231221Y24019D01*
X232491Y24186D01*
X233675Y24676D01*
X233921Y24865D01*
X234818Y24423D01*
Y15748D01*
X234833Y15672D01*
X234662Y13501D01*
X234136Y11309D01*
X233273Y9226D01*
X232095Y7304D01*
X230631Y5590D01*
X228917Y4125D01*
X226995Y2947D01*
X224912Y2085D01*
X222720Y1559D01*
X220549Y1388D01*
X220472Y1403D01*
X203995D01*
X203552Y2300D01*
X203975Y2851D01*
X204465Y4034D01*
X204633Y5305D01*
X204465Y6575D01*
X203975Y7759D01*
X203799Y7988D01*
X200420Y4609D01*
X199724Y5305D01*
X199029Y4609D01*
X195650Y7988D01*
X195474Y7759D01*
X194984Y6575D01*
X194816Y5305D01*
X194984Y4034D01*
X195474Y2851D01*
X195897Y2300D01*
X195454Y1403D01*
X186874D01*
Y10171D01*
X177142D01*
Y1403D01*
X58528D01*
X58086Y2300D01*
X58463Y2792D01*
X58953Y3975D01*
X59121Y5246D01*
X58953Y6516D01*
X58463Y7700D01*
X58287Y7929D01*
X54909Y4550D01*
X54212Y5246D01*
X53517Y4550D01*
X50138Y7929D01*
X49962Y7700D01*
X49472Y6516D01*
X49304Y5246D01*
X49472Y3975D01*
X49962Y2792D01*
X50339Y2300D01*
X49897Y1403D01*
X41362D01*
Y10112D01*
X31630D01*
Y1403D01*
X15748D01*
X15672Y1388D01*
X13501Y1559D01*
X11309Y2085D01*
X9226Y2947D01*
X7304Y4125D01*
X5590Y5590D01*
X4125Y7304D01*
X2947Y9226D01*
X2085Y11309D01*
X1559Y13501D01*
X1388Y15672D01*
X1403Y15748D01*
Y24002D01*
X8474D01*
X4304Y28172D01*
X5000Y28868D01*
X4304Y29564D01*
X8474Y33734D01*
X1403D01*
Y51135D01*
X2300Y51578D01*
X2546Y51389D01*
X3730Y50898D01*
X5000Y50731D01*
X6270Y50898D01*
X7454Y51389D01*
X7683Y51565D01*
X4304Y54943D01*
X5000Y55639D01*
X4304Y56335D01*
X7683Y59714D01*
X7454Y59890D01*
X6270Y60380D01*
X5000Y60548D01*
X3730Y60380D01*
X2546Y59890D01*
X2300Y59701D01*
X1403Y60143D01*
Y62992D01*
X1403Y62992D01*
Y79120D01*
X8081D01*
X4304Y82896D01*
X5000Y83592D01*
X4304Y84288D01*
X8081Y88064D01*
X1403D01*
Y89584D01*
X2300Y90027D01*
X2744Y89685D01*
X3833Y89235D01*
X5000Y89081D01*
X6168Y89235D01*
X7255Y89685D01*
X8190Y90402D01*
X8907Y91337D01*
X9357Y92425D01*
X9511Y93592D01*
Y93592D01*
X9514Y93606D01*
X9511Y93618D01*
X9508Y93618D01*
X9499Y93685D01*
X9611Y94534D01*
X9956Y95369D01*
X10012Y95441D01*
X59146D01*
X59212Y94443D01*
X58464Y94344D01*
X57328Y93874D01*
X56353Y93125D01*
X55604Y92150D01*
X55134Y91014D01*
X54974Y89795D01*
X55134Y88576D01*
X55604Y87440D01*
X56353Y86465D01*
X57328Y85717D01*
X58464Y85246D01*
X59683Y85086D01*
X60902Y85246D01*
X62038Y85717D01*
X63013Y86465D01*
X63762Y87440D01*
X64183Y88458D01*
X65183D01*
X65605Y87440D01*
X66353Y86465D01*
X67328Y85717D01*
X68464Y85246D01*
X69683Y85086D01*
X70902Y85246D01*
X72038Y85717D01*
X73013Y86465D01*
X73762Y87440D01*
X74232Y88576D01*
X74393Y89795D01*
X74232Y91014D01*
X73762Y92150D01*
X73013Y93125D01*
X72038Y93874D01*
X70902Y94344D01*
X70155Y94443D01*
X70220Y95441D01*
X83021D01*
X83844Y95604D01*
X84542Y96071D01*
X84542Y96071D01*
X84542Y96071D01*
X109472Y121001D01*
X109939Y121699D01*
X110102Y122522D01*
X110102Y122522D01*
X110102Y122522D01*
Y122522D01*
Y123965D01*
X111026Y124347D01*
X124351Y111023D01*
D02*
G37*
%LPC*%
G36*
X101419Y278027D02*
X93262D01*
Y267901D01*
X101419D01*
Y278027D01*
D02*
G37*
G36*
X42561D02*
X34404D01*
Y267901D01*
X42561D01*
Y278027D01*
D02*
G37*
G36*
X87341Y278063D02*
X86276Y277923D01*
X85284Y277512D01*
X84432Y276858D01*
X83778Y276006D01*
X83367Y275013D01*
X83227Y273949D01*
Y271980D01*
X83367Y270915D01*
X83778Y269923D01*
X84432Y269071D01*
X85284Y268417D01*
X86276Y268006D01*
X87341Y267866D01*
X88405Y268006D01*
X89398Y268417D01*
X90250Y269071D01*
X90903Y269923D01*
X91314Y270915D01*
X91454Y271980D01*
Y273949D01*
X91314Y275013D01*
X90903Y276006D01*
X90250Y276858D01*
X89398Y277512D01*
X88405Y277923D01*
X87341Y278063D01*
D02*
G37*
G36*
X48482D02*
X47418Y277923D01*
X46425Y277512D01*
X45573Y276858D01*
X44920Y276006D01*
X44509Y275013D01*
X44368Y273949D01*
Y271980D01*
X44509Y270915D01*
X44920Y269923D01*
X45573Y269071D01*
X46425Y268417D01*
X47418Y268006D01*
X48482Y267866D01*
X49547Y268006D01*
X50539Y268417D01*
X51391Y269071D01*
X52045Y269923D01*
X52456Y270915D01*
X52596Y271980D01*
Y273949D01*
X52456Y275013D01*
X52045Y276006D01*
X51391Y276858D01*
X50539Y277512D01*
X49547Y277923D01*
X48482Y278063D01*
D02*
G37*
G36*
X220472Y275458D02*
X218968Y275310D01*
X217521Y274871D01*
X216188Y274158D01*
X215019Y273199D01*
X214060Y272030D01*
X213347Y270697D01*
X212908Y269250D01*
X212760Y267746D01*
X212908Y266241D01*
X213347Y264794D01*
X214060Y263461D01*
X215019Y262292D01*
X216188Y261333D01*
X217521Y260620D01*
X218968Y260181D01*
X220472Y260033D01*
X221977Y260181D01*
X223424Y260620D01*
X224757Y261333D01*
X225926Y262292D01*
X226885Y263461D01*
X227598Y264794D01*
X228037Y266241D01*
X228185Y267746D01*
X228037Y269250D01*
X227598Y270697D01*
X226885Y272030D01*
X225926Y273199D01*
X224757Y274158D01*
X223424Y274871D01*
X221977Y275310D01*
X220472Y275458D01*
D02*
G37*
G36*
X15748D02*
X14243Y275310D01*
X12797Y274871D01*
X11463Y274158D01*
X10295Y273199D01*
X9336Y272030D01*
X8623Y270697D01*
X8184Y269250D01*
X8036Y267746D01*
X8184Y266241D01*
X8623Y264794D01*
X9336Y263461D01*
X10295Y262292D01*
X11463Y261333D01*
X12797Y260620D01*
X14243Y260181D01*
X15748Y260033D01*
X17253Y260181D01*
X18699Y260620D01*
X20033Y261333D01*
X21202Y262292D01*
X22161Y263461D01*
X22873Y264794D01*
X23312Y266241D01*
X23460Y267746D01*
X23312Y269250D01*
X22873Y270697D01*
X22161Y272030D01*
X21202Y273199D01*
X20033Y274158D01*
X18699Y274871D01*
X17253Y275310D01*
X15748Y275458D01*
D02*
G37*
G36*
X126031Y253086D02*
X119870D01*
X122951Y250006D01*
X126031Y253086D01*
D02*
G37*
G36*
X127423Y251695D02*
X124343Y248614D01*
X127423Y245534D01*
Y251695D01*
D02*
G37*
G36*
X118478D02*
Y245534D01*
X121559Y248614D01*
X118478Y251695D01*
D02*
G37*
G36*
X122951Y247222D02*
X119870Y244142D01*
X121531D01*
X121726Y243161D01*
X120596Y242693D01*
X120408Y242549D01*
X122951Y240006D01*
X125493Y242549D01*
X125306Y242693D01*
X124175Y243161D01*
X124371Y244142D01*
X126031D01*
X122951Y247222D01*
D02*
G37*
G36*
X162951Y243324D02*
X161732Y243163D01*
X160596Y242693D01*
X159621Y241944D01*
X158872Y240969D01*
X158451Y239951D01*
X157451D01*
X157029Y240969D01*
X156281Y241944D01*
X155306Y242693D01*
X154170Y243163D01*
X152951Y243324D01*
X151732Y243163D01*
X150596Y242693D01*
X149621Y241944D01*
X148872Y240969D01*
X148451Y239951D01*
X147451D01*
X147029Y240969D01*
X146281Y241944D01*
X145306Y242693D01*
X144170Y243163D01*
X142951Y243324D01*
X141732Y243163D01*
X140596Y242693D01*
X139621Y241944D01*
X138872Y240969D01*
X138451Y239951D01*
X137451D01*
X137030Y240969D01*
X136281Y241944D01*
X135306Y242693D01*
X134170Y243163D01*
X132951Y243324D01*
X131732Y243163D01*
X130596Y242693D01*
X129621Y241944D01*
X128872Y240969D01*
X128451Y239951D01*
X127451D01*
X127030Y240969D01*
X126885Y241157D01*
X124343Y238614D01*
X126885Y236071D01*
X127030Y236259D01*
X127451Y237277D01*
X128451D01*
X128872Y236259D01*
X129621Y235284D01*
X130596Y234536D01*
X131732Y234065D01*
X132951Y233905D01*
X134170Y234065D01*
X135306Y234536D01*
X136281Y235284D01*
X137030Y236259D01*
X137451Y237277D01*
X138451D01*
X138872Y236259D01*
X139621Y235284D01*
X140596Y234536D01*
X141732Y234065D01*
X142951Y233905D01*
X144170Y234065D01*
X145306Y234536D01*
X146281Y235284D01*
X147029Y236259D01*
X147451Y237277D01*
X148451D01*
X148872Y236259D01*
X149621Y235284D01*
X150596Y234536D01*
X151732Y234065D01*
X152951Y233905D01*
X154170Y234065D01*
X155306Y234536D01*
X156281Y235284D01*
X157029Y236259D01*
X157451Y237277D01*
X158451D01*
X158872Y236259D01*
X159621Y235284D01*
X160596Y234536D01*
X161732Y234065D01*
X162951Y233905D01*
X164170Y234065D01*
X165306Y234536D01*
X166281Y235284D01*
X167030Y236259D01*
X167301Y236914D01*
X168282Y236719D01*
Y233945D01*
X177620D01*
Y243283D01*
X168282D01*
Y240509D01*
X167301Y240314D01*
X167030Y240969D01*
X166281Y241944D01*
X165306Y242693D01*
X164170Y243163D01*
X162951Y243324D01*
D02*
G37*
G36*
X221065Y240603D02*
X219897Y240449D01*
X218809Y239999D01*
X218663Y239886D01*
X221065Y237484D01*
X223467Y239886D01*
X223320Y239999D01*
X222232Y240449D01*
X221065Y240603D01*
D02*
G37*
G36*
X193738Y247658D02*
X192417Y247484D01*
X191185Y246974D01*
X190127Y246162D01*
X189316Y245104D01*
X188806Y243873D01*
X188632Y242551D01*
X188806Y241229D01*
X189316Y239998D01*
X190127Y238940D01*
X191185Y238129D01*
X192417Y237618D01*
X193738Y237444D01*
X195060Y237618D01*
X196292Y238129D01*
X197349Y238940D01*
X198161Y239998D01*
X198671Y241229D01*
X198845Y242551D01*
X198671Y243873D01*
X198161Y245104D01*
X197349Y246162D01*
X196292Y246974D01*
X195060Y247484D01*
X193738Y247658D01*
D02*
G37*
G36*
X42164D02*
X40842Y247484D01*
X39610Y246974D01*
X38552Y246162D01*
X37741Y245104D01*
X37231Y243873D01*
X37057Y242551D01*
X37231Y241229D01*
X37741Y239998D01*
X38552Y238940D01*
X39610Y238129D01*
X40842Y237618D01*
X42164Y237444D01*
X43485Y237618D01*
X44717Y238129D01*
X45774Y238940D01*
X46586Y239998D01*
X47096Y241229D01*
X47270Y242551D01*
X47096Y243873D01*
X46586Y245104D01*
X45774Y246162D01*
X44717Y246974D01*
X43485Y247484D01*
X42164Y247658D01*
D02*
G37*
G36*
X122951Y237222D02*
X120408Y234680D01*
X120596Y234536D01*
X121732Y234065D01*
X122951Y233905D01*
X124170Y234065D01*
X125306Y234536D01*
X125493Y234680D01*
X122951Y237222D01*
D02*
G37*
G36*
X217271Y238494D02*
X217158Y238348D01*
X216707Y237260D01*
X216554Y236092D01*
X216707Y234925D01*
X217158Y233837D01*
X217271Y233690D01*
X219673Y236092D01*
X217271Y238494D01*
D02*
G37*
G36*
X221065Y234700D02*
X218663Y232298D01*
X218809Y232186D01*
X219897Y231735D01*
X220981Y231592D01*
Y230592D01*
X219897Y230449D01*
X218809Y229999D01*
X218663Y229886D01*
X221065Y227484D01*
X223467Y229886D01*
X223320Y229999D01*
X222232Y230449D01*
X221148Y230592D01*
Y231592D01*
X222232Y231735D01*
X223320Y232186D01*
X223467Y232298D01*
X221065Y234700D01*
D02*
G37*
G36*
X217271Y228494D02*
X217158Y228348D01*
X216707Y227260D01*
X216554Y226092D01*
X216707Y224925D01*
X217158Y223837D01*
X217271Y223690D01*
X219673Y226092D01*
X217271Y228494D01*
D02*
G37*
G36*
X221065Y224700D02*
X218663Y222298D01*
X218809Y222185D01*
X219897Y221735D01*
X220981Y221592D01*
Y220592D01*
X219897Y220449D01*
X218809Y219999D01*
X218663Y219886D01*
X221065Y217484D01*
X223467Y219886D01*
X223320Y219999D01*
X222232Y220449D01*
X221148Y220592D01*
Y221592D01*
X222232Y221735D01*
X223320Y222185D01*
X223467Y222298D01*
X221065Y224700D01*
D02*
G37*
G36*
X15000Y220603D02*
X13833Y220449D01*
X12744Y219999D01*
X12598Y219886D01*
X15000Y217484D01*
X17402Y219886D01*
X17255Y219999D01*
X16168Y220449D01*
X15000Y220603D01*
D02*
G37*
G36*
X221065Y194700D02*
X218663Y192298D01*
X218809Y192185D01*
X219897Y191735D01*
X221065Y191581D01*
X222232Y191735D01*
X223320Y192185D01*
X223467Y192298D01*
X221065Y194700D01*
D02*
G37*
G36*
X181750Y184548D02*
X177282D01*
X179516Y182314D01*
X181750Y184548D01*
D02*
G37*
G36*
X182392Y182406D02*
X180908Y180922D01*
X182392Y179438D01*
Y182406D01*
D02*
G37*
G36*
X179516Y179531D02*
X177282Y177296D01*
X181750D01*
X179516Y179531D01*
D02*
G37*
G36*
X181750Y164648D02*
X177282D01*
X179516Y162414D01*
X181750Y164648D01*
D02*
G37*
G36*
X182392Y162506D02*
X180908Y161022D01*
X182392Y159538D01*
Y162506D01*
D02*
G37*
G36*
X179516Y159631D02*
X177282Y157396D01*
X181750D01*
X179516Y159631D01*
D02*
G37*
G36*
X172751Y145338D02*
X172046Y145245D01*
X171389Y144973D01*
X170825Y144540D01*
X170392Y143976D01*
X170120Y143319D01*
X170047Y142768D01*
X170018Y142620D01*
X170012Y142614D01*
X170012Y142614D01*
X169921Y142394D01*
X169830Y142174D01*
X169832Y142173D01*
D01*
X169832Y142173D01*
Y142170D01*
X165526Y137864D01*
X140683D01*
Y137866D01*
Y137869D01*
X140676Y137870D01*
X140430Y138237D01*
X139863Y138617D01*
X139193Y138750D01*
X139063Y138724D01*
X139012Y138745D01*
X138307Y138838D01*
X137602Y138745D01*
X136945Y138473D01*
X136381Y138040D01*
X135948Y137476D01*
X135676Y136819D01*
X135583Y136114D01*
X135676Y135409D01*
X135948Y134752D01*
X136381Y134188D01*
X136945Y133755D01*
X137602Y133483D01*
X138307Y133390D01*
X139012Y133483D01*
X139669Y133755D01*
X140110Y134094D01*
X140239Y134180D01*
X140244Y134177D01*
Y134177D01*
Y134177D01*
X140244D01*
D01*
Y134177D01*
X140244D01*
X140244Y134177D01*
X140607Y134328D01*
X140683Y134360D01*
Y134362D01*
D01*
Y134362D01*
X140685Y134364D01*
X166251D01*
X166921Y134497D01*
X167488Y134877D01*
D01*
X167488Y134877D01*
X167488Y134877D01*
X167488Y134877D01*
X167488Y134877D01*
X172309Y139695D01*
X172311Y139693D01*
X172750Y139875D01*
X172751Y139875D01*
Y139880D01*
X172904Y139910D01*
X173456Y139983D01*
X174113Y140255D01*
X174677Y140688D01*
X175110Y141252D01*
X175382Y141909D01*
X175475Y142614D01*
X175382Y143319D01*
X175110Y143976D01*
X174677Y144540D01*
X174113Y144973D01*
X173456Y145245D01*
X172751Y145338D01*
D02*
G37*
G36*
X8794Y153494D02*
X6392Y151092D01*
X8794Y148690D01*
X8907Y148837D01*
X9357Y149925D01*
X9511Y151092D01*
X9357Y152260D01*
X8907Y153348D01*
X8794Y153494D01*
D02*
G37*
G36*
X85645Y129445D02*
X81578Y125377D01*
X82621Y124335D01*
X80553Y122268D01*
X80215Y122223D01*
X79558Y121951D01*
X78994Y121518D01*
X78561Y120954D01*
X78289Y120297D01*
X78196Y119592D01*
X78289Y118887D01*
X78561Y118230D01*
X78994Y117666D01*
X79558Y117233D01*
X80215Y116961D01*
X80920Y116868D01*
X81625Y116961D01*
X82283Y117233D01*
X82847Y117666D01*
X83280Y118230D01*
X83552Y118887D01*
X83596Y119225D01*
X85163Y120792D01*
X86163D01*
X86706Y120249D01*
X90773Y124317D01*
X85645Y129445D01*
D02*
G37*
G36*
X93760Y121330D02*
Y119231D01*
X95859D01*
X95052Y120038D01*
X94841Y120313D01*
X94566Y120524D01*
X93760Y121330D01*
D02*
G37*
G36*
X91791Y122391D02*
X88178Y118777D01*
X88316Y118640D01*
Y117640D01*
X84646Y113970D01*
X84213Y113406D01*
X83941Y112749D01*
X83848Y112044D01*
X83941Y111339D01*
X84213Y110682D01*
X84646Y110118D01*
X85210Y109685D01*
X85867Y109413D01*
X86572Y109320D01*
X87278Y109413D01*
X87934Y109685D01*
X88499Y110118D01*
X92168Y113787D01*
X93168D01*
X93306Y113649D01*
X96919Y117263D01*
X92776D01*
Y118247D01*
X91791D01*
Y122391D01*
D02*
G37*
G36*
X8794Y115994D02*
X6392Y113592D01*
X8794Y111190D01*
X8907Y111337D01*
X9357Y112425D01*
X9511Y113592D01*
X9357Y114760D01*
X8907Y115848D01*
X8794Y115994D01*
D02*
G37*
G36*
X227271D02*
X227158Y115848D01*
X226708Y114760D01*
X226554Y113592D01*
X226708Y112425D01*
X227158Y111337D01*
X227271Y111190D01*
X229673Y113592D01*
X227271Y115994D01*
D02*
G37*
G36*
X156315Y107342D02*
X155610Y107249D01*
X154953Y106977D01*
X154389Y106544D01*
X154389Y106544D01*
X141503Y93659D01*
X123150D01*
X122445Y93566D01*
X121788Y93294D01*
X121543Y93106D01*
X121223Y92861D01*
X121223Y92861D01*
X96431Y68068D01*
X94191D01*
X91401Y70858D01*
X91039Y71401D01*
X90917Y72010D01*
X90926Y72079D01*
X90773Y73246D01*
X90322Y74334D01*
X89605Y75268D01*
X88671Y75985D01*
X87583Y76436D01*
X86415Y76590D01*
X85248Y76436D01*
X84160Y75985D01*
X83226Y75268D01*
X82509Y74334D01*
X82058Y73246D01*
X81904Y72079D01*
X82058Y70911D01*
X82509Y69823D01*
X83226Y68889D01*
X84160Y68172D01*
X85248Y67721D01*
X86415Y67567D01*
X86459Y67573D01*
X86929Y67480D01*
X87364Y67189D01*
Y67189D01*
X87364Y67189D01*
X87364D01*
X87365Y67190D01*
X87493Y67062D01*
X87567Y66971D01*
X87575Y66979D01*
X87575Y66979D01*
X91136Y63418D01*
X91136Y63418D01*
X91456Y63173D01*
X91701Y62985D01*
X91893Y62905D01*
X92357Y62713D01*
X93063Y62620D01*
X97559D01*
X97559Y62620D01*
X98264Y62713D01*
X98921Y62985D01*
X99485Y63418D01*
X124278Y88211D01*
X142632D01*
X142632Y88211D01*
X143337Y88303D01*
X143994Y88576D01*
X144558Y89008D01*
X158241Y102692D01*
X158241Y102692D01*
X158674Y103256D01*
X158947Y103913D01*
X158947Y103913D01*
X158947Y103913D01*
X159039Y104618D01*
X158947Y105323D01*
X158674Y105980D01*
X158241Y106544D01*
X157677Y106977D01*
X157020Y107249D01*
X156315Y107342D01*
D02*
G37*
G36*
X162598Y100365D02*
X161791Y100259D01*
X161038Y99947D01*
X160391Y99451D01*
X156061Y95120D01*
X155565Y94474D01*
X155253Y93721D01*
X155147Y92913D01*
Y59207D01*
X154200Y58886D01*
X153982Y59169D01*
X152966Y59949D01*
X151782Y60439D01*
X150512Y60607D01*
X149241Y60439D01*
X148058Y59949D01*
X147829Y59773D01*
X151208Y56394D01*
X150512Y55699D01*
X151208Y55002D01*
X147829Y51623D01*
X148058Y51448D01*
X149241Y50958D01*
X150512Y50790D01*
X151782Y50958D01*
X152966Y51448D01*
X153982Y52228D01*
X154200Y52511D01*
X155147Y52189D01*
Y49718D01*
X140551Y35123D01*
X131213Y44460D01*
X130567Y44956D01*
X129814Y45268D01*
X129006Y45375D01*
X121333D01*
X121280Y45443D01*
X120346Y46160D01*
X119258Y46611D01*
X118174Y46753D01*
Y47754D01*
X119258Y47896D01*
X120346Y48347D01*
X121280Y49064D01*
X121997Y49998D01*
X122448Y51086D01*
X122602Y52254D01*
X122448Y53421D01*
X121997Y54509D01*
X121280Y55443D01*
X120346Y56160D01*
X119258Y56611D01*
X118091Y56765D01*
X116923Y56611D01*
X115835Y56160D01*
X114901Y55443D01*
X114184Y54509D01*
X113733Y53421D01*
X113579Y52254D01*
X113733Y51086D01*
X114184Y49998D01*
X114901Y49064D01*
X115835Y48347D01*
X116923Y47896D01*
X118007Y47754D01*
Y46753D01*
X116923Y46611D01*
X115835Y46160D01*
X114901Y45443D01*
X114184Y44509D01*
X113733Y43421D01*
X113579Y42254D01*
X113733Y41086D01*
X114184Y39998D01*
X114901Y39064D01*
X115835Y38347D01*
X116923Y37896D01*
X118007Y37753D01*
Y36753D01*
X116923Y36611D01*
X115835Y36160D01*
X114901Y35443D01*
X114184Y34509D01*
X113733Y33421D01*
X113579Y32254D01*
X113733Y31086D01*
X114184Y29998D01*
X114901Y29064D01*
X115835Y28347D01*
X116923Y27896D01*
X118091Y27742D01*
X119258Y27896D01*
X120346Y28347D01*
X121280Y29064D01*
X121997Y29998D01*
X122448Y31086D01*
X122602Y32254D01*
X122448Y33421D01*
X121997Y34509D01*
X121280Y35443D01*
X120346Y36160D01*
X119258Y36611D01*
X118174Y36753D01*
Y37753D01*
X119258Y37896D01*
X120346Y38347D01*
X121280Y39064D01*
X121333Y39132D01*
X127714D01*
X138344Y28502D01*
D01*
X138344D01*
Y28502D01*
D01*
X138344D01*
Y28502D01*
X138344D01*
X138344Y28502D01*
Y28502D01*
X138344Y28502D01*
Y28502D01*
X138600Y28305D01*
Y20906D01*
X138676Y20527D01*
Y19873D01*
X137903Y19239D01*
X137795Y19260D01*
X136934Y19088D01*
X136203Y18600D01*
X135715Y17870D01*
X135543Y17008D01*
X135715Y16146D01*
X136203Y15416D01*
X136934Y14927D01*
X137795Y14756D01*
X138657Y14927D01*
X139388Y15416D01*
X139476Y15548D01*
X142428D01*
Y20531D01*
X142502Y20906D01*
Y25984D01*
X142502Y25984D01*
Y28305D01*
X142758Y28502D01*
X144722Y30465D01*
X145646Y30083D01*
Y25453D01*
X149816Y29623D01*
X153986Y33793D01*
X149356D01*
X148973Y34717D01*
X160475Y46218D01*
X160971Y46865D01*
X161283Y47617D01*
X161389Y48425D01*
X161389Y48425D01*
Y86864D01*
X162336Y87185D01*
X162888Y86465D01*
X163864Y85717D01*
X165000Y85246D01*
X166219Y85086D01*
X167438Y85246D01*
X168573Y85717D01*
X169549Y86465D01*
X170297Y87440D01*
X170719Y88458D01*
X171719D01*
X172140Y87440D01*
X172888Y86465D01*
X173864Y85717D01*
X175000Y85246D01*
X176219Y85086D01*
X177437Y85246D01*
X178573Y85717D01*
X179549Y86465D01*
X180297Y87440D01*
X180768Y88576D01*
X180928Y89795D01*
X180768Y91014D01*
X180297Y92150D01*
X179549Y93125D01*
X178573Y93874D01*
X177437Y94344D01*
X176219Y94505D01*
X175000Y94344D01*
X173864Y93874D01*
X172888Y93125D01*
X172140Y92150D01*
X171719Y91133D01*
X170719D01*
X170297Y92150D01*
X169549Y93125D01*
X168573Y93874D01*
X167438Y94344D01*
X166219Y94505D01*
X165488Y94409D01*
X164988Y95275D01*
X165301Y95683D01*
X165613Y96436D01*
X165720Y97244D01*
X165613Y98052D01*
X165301Y98805D01*
X164805Y99451D01*
X164159Y99947D01*
X163406Y100259D01*
X162598Y100365D01*
D02*
G37*
G36*
X42164Y90965D02*
X40842Y90791D01*
X39610Y90281D01*
X38552Y89469D01*
X37741Y88411D01*
X37231Y87180D01*
X37057Y85858D01*
X37231Y84536D01*
X37741Y83305D01*
X38552Y82247D01*
X39610Y81436D01*
X40842Y80926D01*
X42164Y80752D01*
X43485Y80926D01*
X44717Y81436D01*
X45774Y82247D01*
X46586Y83305D01*
X47096Y84536D01*
X47270Y85858D01*
X47096Y87180D01*
X46586Y88411D01*
X45774Y89469D01*
X44717Y90281D01*
X43485Y90791D01*
X42164Y90965D01*
D02*
G37*
G36*
X226592Y86673D02*
Y80512D01*
X229673Y83592D01*
X226592Y86673D01*
D02*
G37*
G36*
X9472D02*
X6392Y83592D01*
X9472Y80512D01*
Y86673D01*
D02*
G37*
G36*
X94471Y84490D02*
Y80134D01*
X98827D01*
X94471Y84490D01*
D02*
G37*
G36*
X92502D02*
X88146Y80134D01*
X92502D01*
Y84490D01*
D02*
G37*
G36*
X203799Y82003D02*
X201116Y79321D01*
X203799Y76638D01*
X203975Y76866D01*
X204465Y78050D01*
X204633Y79321D01*
X204465Y80591D01*
X203975Y81775D01*
X203799Y82003D01*
D02*
G37*
G36*
X193738Y90965D02*
X192417Y90791D01*
X191185Y90281D01*
X190127Y89469D01*
X189316Y88411D01*
X188806Y87180D01*
X188632Y85858D01*
X188806Y84536D01*
X189316Y83305D01*
X190127Y82247D01*
X191185Y81436D01*
X192417Y80926D01*
X193738Y80752D01*
X194213Y80814D01*
X194920Y80107D01*
X194816Y79321D01*
X194984Y78050D01*
X195474Y76866D01*
X195650Y76638D01*
X199029Y80016D01*
X202407Y83395D01*
X202179Y83571D01*
X200995Y84061D01*
X199724Y84229D01*
X199425Y84189D01*
X198718Y84896D01*
X198845Y85858D01*
X198671Y87180D01*
X198161Y88411D01*
X197349Y89469D01*
X196292Y90281D01*
X195060Y90791D01*
X193738Y90965D01*
D02*
G37*
G36*
X199724Y77929D02*
X197041Y75246D01*
X197270Y75070D01*
X198454Y74580D01*
X199724Y74412D01*
X200995Y74580D01*
X202179Y75070D01*
X202407Y75246D01*
X199724Y77929D01*
D02*
G37*
G36*
X182008Y84229D02*
X180738Y84061D01*
X179554Y83571D01*
X178537Y82791D01*
X177757Y81775D01*
X177267Y80591D01*
X177100Y79321D01*
X177267Y78050D01*
X177757Y76866D01*
X178537Y75850D01*
X179554Y75070D01*
X180738Y74580D01*
X182008Y74412D01*
X183278Y74580D01*
X184462Y75070D01*
X185478Y75850D01*
X186258Y76866D01*
X186749Y78050D01*
X186916Y79321D01*
X186749Y80591D01*
X186258Y81775D01*
X185478Y82791D01*
X184462Y83571D01*
X183278Y84061D01*
X182008Y84229D01*
D02*
G37*
G36*
X98827Y78165D02*
X94471D01*
Y73809D01*
X98827Y78165D01*
D02*
G37*
G36*
X92502D02*
X88146D01*
X92502Y73809D01*
Y78165D01*
D02*
G37*
G36*
X118110Y74642D02*
X116606Y74493D01*
X115159Y74054D01*
X113826Y73342D01*
X112657Y72383D01*
X111698Y71214D01*
X110985Y69880D01*
X110546Y68434D01*
X110398Y66929D01*
X110546Y65425D01*
X110985Y63978D01*
X111698Y62644D01*
X112657Y61476D01*
X113826Y60517D01*
X115159Y59804D01*
X116606Y59365D01*
X118110Y59217D01*
X119615Y59365D01*
X121062Y59804D01*
X122395Y60517D01*
X123564Y61476D01*
X124523Y62644D01*
X125235Y63978D01*
X125674Y65425D01*
X125823Y66929D01*
X125674Y68434D01*
X125235Y69880D01*
X124523Y71214D01*
X123564Y72383D01*
X122395Y73342D01*
X121062Y74054D01*
X119615Y74493D01*
X118110Y74642D01*
D02*
G37*
G36*
X85709Y60548D02*
X84438Y60380D01*
X83254Y59890D01*
X83026Y59714D01*
X85709Y57031D01*
X88392Y59714D01*
X88163Y59890D01*
X86979Y60380D01*
X85709Y60548D01*
D02*
G37*
G36*
X199724Y57457D02*
X198454Y57290D01*
X197270Y56799D01*
X197041Y56624D01*
X199724Y53941D01*
X202407Y56624D01*
X202179Y56799D01*
X200995Y57290D01*
X199724Y57457D01*
D02*
G37*
G36*
X227146Y58381D02*
X226970Y58153D01*
X226480Y56969D01*
X226312Y55699D01*
X226480Y54428D01*
X226970Y53244D01*
X227146Y53016D01*
X229829Y55699D01*
X227146Y58381D01*
D02*
G37*
G36*
X146437D02*
X146261Y58153D01*
X145771Y56969D01*
X145604Y55699D01*
X145771Y54428D01*
X146261Y53244D01*
X146437Y53016D01*
X149120Y55699D01*
X146437Y58381D01*
D02*
G37*
G36*
X89784Y58322D02*
X87100Y55639D01*
X89784Y52956D01*
X89959Y53185D01*
X90450Y54369D01*
X90617Y55639D01*
X90450Y56910D01*
X89959Y58093D01*
X89784Y58322D01*
D02*
G37*
G36*
X81634D02*
X81458Y58093D01*
X80968Y56910D01*
X80800Y55639D01*
X80968Y54369D01*
X81458Y53185D01*
X81634Y52956D01*
X84317Y55639D01*
X81634Y58322D01*
D02*
G37*
G36*
X9075D02*
X6392Y55639D01*
X9075Y52956D01*
X9251Y53185D01*
X9741Y54369D01*
X9908Y55639D01*
X9741Y56910D01*
X9251Y58093D01*
X9075Y58322D01*
D02*
G37*
G36*
X213504Y60607D02*
X212234Y60439D01*
X211050Y59949D01*
X210033Y59169D01*
X209253Y58153D01*
X208763Y56969D01*
X208596Y55699D01*
X208763Y54428D01*
X209253Y53244D01*
X210033Y52228D01*
X211050Y51448D01*
X212234Y50958D01*
X213504Y50790D01*
X214774Y50958D01*
X215958Y51448D01*
X216974Y52228D01*
X217755Y53244D01*
X218245Y54428D01*
X218412Y55699D01*
X218245Y56969D01*
X217755Y58153D01*
X216974Y59169D01*
X215958Y59949D01*
X214774Y60439D01*
X213504Y60607D01*
D02*
G37*
G36*
X168228D02*
X166958Y60439D01*
X165774Y59949D01*
X164758Y59169D01*
X163978Y58153D01*
X163488Y56969D01*
X163320Y55699D01*
X163488Y54428D01*
X163978Y53244D01*
X164758Y52228D01*
X165774Y51448D01*
X166958Y50958D01*
X168228Y50790D01*
X169499Y50958D01*
X170682Y51448D01*
X171699Y52228D01*
X172479Y53244D01*
X172969Y54428D01*
X173136Y55699D01*
X172969Y56969D01*
X172479Y58153D01*
X171699Y59169D01*
X170682Y59949D01*
X169499Y60439D01*
X168228Y60607D01*
D02*
G37*
G36*
X85709Y54247D02*
X83026Y51565D01*
X83254Y51389D01*
X84438Y50898D01*
X85709Y50731D01*
X86979Y50898D01*
X88163Y51389D01*
X88392Y51565D01*
X85709Y54247D01*
D02*
G37*
G36*
X67992Y60548D02*
X66722Y60380D01*
X65538Y59890D01*
X64521Y59110D01*
X63741Y58093D01*
X63251Y56910D01*
X63084Y55639D01*
X63251Y54369D01*
X63741Y53185D01*
X64521Y52169D01*
X65538Y51389D01*
X66722Y50898D01*
X67992Y50731D01*
X69262Y50898D01*
X70446Y51389D01*
X71463Y52169D01*
X72243Y53185D01*
X72733Y54369D01*
X72900Y55639D01*
X72733Y56910D01*
X72243Y58093D01*
X71463Y59110D01*
X70446Y59890D01*
X69262Y60380D01*
X67992Y60548D01*
D02*
G37*
G36*
X22716D02*
X21446Y60380D01*
X20262Y59890D01*
X19246Y59110D01*
X18466Y58093D01*
X17976Y56910D01*
X17808Y55639D01*
X17976Y54369D01*
X18466Y53185D01*
X19246Y52169D01*
X20262Y51389D01*
X21446Y50898D01*
X22716Y50731D01*
X23987Y50898D01*
X25170Y51389D01*
X26187Y52169D01*
X26967Y53185D01*
X27457Y54369D01*
X27625Y55639D01*
X27457Y56910D01*
X26967Y58093D01*
X26187Y59110D01*
X25170Y59890D01*
X23987Y60380D01*
X22716Y60548D01*
D02*
G37*
G36*
X203799Y55232D02*
X201116Y52549D01*
X203799Y49866D01*
X203975Y50095D01*
X204465Y51279D01*
X204633Y52549D01*
X204465Y53819D01*
X203975Y55003D01*
X203799Y55232D01*
D02*
G37*
G36*
X195650D02*
X195474Y55003D01*
X194984Y53819D01*
X194816Y52549D01*
X194984Y51279D01*
X195474Y50095D01*
X195650Y49866D01*
X198333Y52549D01*
X195650Y55232D01*
D02*
G37*
G36*
X186874Y57415D02*
X177142D01*
Y47683D01*
X186874D01*
Y57415D01*
D02*
G37*
G36*
X199724Y51157D02*
X197041Y48474D01*
X197270Y48298D01*
X198454Y47808D01*
X199724Y47641D01*
X200995Y47808D01*
X202179Y48298D01*
X202407Y48474D01*
X199724Y51157D01*
D02*
G37*
G36*
Y36985D02*
X198454Y36817D01*
X197270Y36327D01*
X197041Y36151D01*
X199724Y33468D01*
X202407Y36151D01*
X202179Y36327D01*
X200995Y36817D01*
X199724Y36985D01*
D02*
G37*
G36*
X54212Y36926D02*
X52942Y36758D01*
X51758Y36268D01*
X51530Y36092D01*
X54212Y33409D01*
X56896Y36092D01*
X56667Y36268D01*
X55483Y36758D01*
X54212Y36926D01*
D02*
G37*
G36*
X85709Y33776D02*
X84438Y33609D01*
X83254Y33118D01*
X83026Y32943D01*
X85709Y30260D01*
X88392Y32943D01*
X88163Y33118D01*
X86979Y33609D01*
X85709Y33776D01*
D02*
G37*
G36*
X203799Y34759D02*
X201116Y32076D01*
X203799Y29393D01*
X203975Y29622D01*
X204465Y30806D01*
X204633Y32076D01*
X204465Y33347D01*
X203975Y34530D01*
X203799Y34759D01*
D02*
G37*
G36*
X195650D02*
X195474Y34530D01*
X194984Y33347D01*
X194816Y32076D01*
X194984Y30806D01*
X195474Y29622D01*
X195650Y29393D01*
X198333Y32076D01*
X195650Y34759D01*
D02*
G37*
G36*
X58287Y34700D02*
X55604Y32017D01*
X58287Y29334D01*
X58463Y29563D01*
X58953Y30747D01*
X59121Y32017D01*
X58953Y33288D01*
X58463Y34471D01*
X58287Y34700D01*
D02*
G37*
G36*
X50138D02*
X49962Y34471D01*
X49472Y33288D01*
X49304Y32017D01*
X49472Y30747D01*
X49962Y29563D01*
X50138Y29334D01*
X52821Y32017D01*
X50138Y34700D01*
D02*
G37*
G36*
X199724Y30685D02*
X197041Y28001D01*
X197270Y27826D01*
X198454Y27336D01*
X199724Y27168D01*
X200995Y27336D01*
X202179Y27826D01*
X202407Y28001D01*
X199724Y30685D01*
D02*
G37*
G36*
X182008Y36985D02*
X180738Y36817D01*
X179554Y36327D01*
X178537Y35547D01*
X177757Y34530D01*
X177267Y33347D01*
X177100Y32076D01*
X177267Y30806D01*
X177757Y29622D01*
X178537Y28606D01*
X179554Y27826D01*
X180738Y27336D01*
X182008Y27168D01*
X183278Y27336D01*
X184462Y27826D01*
X185478Y28606D01*
X186258Y29622D01*
X186749Y30806D01*
X186916Y32076D01*
X186749Y33347D01*
X186258Y34530D01*
X185478Y35547D01*
X184462Y36327D01*
X183278Y36817D01*
X182008Y36985D01*
D02*
G37*
G36*
X54212Y30625D02*
X51530Y27942D01*
X51758Y27767D01*
X52942Y27277D01*
X54212Y27109D01*
X55483Y27277D01*
X56667Y27767D01*
X56896Y27942D01*
X54212Y30625D01*
D02*
G37*
G36*
X36496Y36926D02*
X35226Y36758D01*
X34042Y36268D01*
X33025Y35488D01*
X32245Y34471D01*
X31755Y33288D01*
X31588Y32017D01*
X31755Y30747D01*
X32245Y29563D01*
X33025Y28547D01*
X34042Y27767D01*
X35226Y27277D01*
X36496Y27109D01*
X37766Y27277D01*
X38950Y27767D01*
X39967Y28547D01*
X40747Y29563D01*
X41237Y30747D01*
X41404Y32017D01*
X41237Y33288D01*
X40747Y34471D01*
X39967Y35488D01*
X38950Y36268D01*
X37766Y36758D01*
X36496Y36926D01*
D02*
G37*
G36*
X227146Y31610D02*
X226970Y31381D01*
X226480Y30197D01*
X226312Y28927D01*
X226480Y27656D01*
X226970Y26473D01*
X227146Y26244D01*
X229829Y28927D01*
X227146Y31610D01*
D02*
G37*
G36*
X89784Y31551D02*
X87100Y28868D01*
X89784Y26185D01*
X89959Y26414D01*
X90450Y27597D01*
X90617Y28868D01*
X90450Y30138D01*
X89959Y31322D01*
X89784Y31551D01*
D02*
G37*
G36*
X81634D02*
X81458Y31322D01*
X80968Y30138D01*
X80800Y28868D01*
X80968Y27597D01*
X81458Y26414D01*
X81634Y26185D01*
X84317Y28868D01*
X81634Y31551D01*
D02*
G37*
G36*
X155378Y32401D02*
X151904Y28927D01*
X155378Y25453D01*
Y32401D01*
D02*
G37*
G36*
X9866Y32342D02*
X6392Y28868D01*
X9866Y25394D01*
Y32342D01*
D02*
G37*
G36*
X159843Y27219D02*
X158932Y27099D01*
X158083Y26748D01*
X157355Y26189D01*
X156796Y25460D01*
X156444Y24611D01*
X156376Y24093D01*
X156011Y24117D01*
X155887Y23994D01*
X156123Y23963D01*
X156324Y23701D01*
Y20551D01*
X156444Y19641D01*
X156796Y18792D01*
X157355Y18063D01*
X158083Y17504D01*
X158932Y17153D01*
X159843Y17033D01*
X160753Y17153D01*
X161602Y17504D01*
X162330Y18063D01*
X162889Y18792D01*
X163241Y19641D01*
X163361Y20551D01*
Y23701D01*
X163241Y24611D01*
X162889Y25460D01*
X162330Y26189D01*
X161602Y26748D01*
X160753Y27099D01*
X159843Y27219D01*
D02*
G37*
G36*
X218370Y33793D02*
X208638D01*
Y24061D01*
X218370D01*
Y33793D01*
D02*
G37*
G36*
X168228Y33835D02*
X166958Y33668D01*
X165774Y33177D01*
X164758Y32397D01*
X163978Y31381D01*
X163488Y30197D01*
X163320Y28927D01*
X163488Y27656D01*
X163978Y26473D01*
X164758Y25456D01*
X165774Y24676D01*
X166958Y24186D01*
X168228Y24019D01*
X169499Y24186D01*
X170682Y24676D01*
X171699Y25456D01*
X172479Y26473D01*
X172969Y27656D01*
X173136Y28927D01*
X172969Y30197D01*
X172479Y31381D01*
X171699Y32397D01*
X170682Y33177D01*
X169499Y33668D01*
X168228Y33835D01*
D02*
G37*
G36*
X72858Y33734D02*
X63126D01*
Y24002D01*
X72858D01*
Y33734D01*
D02*
G37*
G36*
X85709Y27476D02*
X83026Y24793D01*
X83254Y24617D01*
X84438Y24127D01*
X85709Y23960D01*
X86979Y24127D01*
X88163Y24617D01*
X88392Y24793D01*
X85709Y27476D01*
D02*
G37*
G36*
X22716Y33776D02*
X21446Y33609D01*
X20262Y33118D01*
X19246Y32338D01*
X18466Y31322D01*
X17976Y30138D01*
X17808Y28868D01*
X17976Y27597D01*
X18466Y26414D01*
X19246Y25397D01*
X20262Y24617D01*
X21446Y24127D01*
X22716Y23960D01*
X23987Y24127D01*
X25170Y24617D01*
X26187Y25397D01*
X26967Y26414D01*
X27457Y27597D01*
X27625Y28868D01*
X27457Y30138D01*
X26967Y31322D01*
X26187Y32338D01*
X25170Y33118D01*
X23987Y33609D01*
X22716Y33776D01*
D02*
G37*
G36*
X131496Y27219D02*
X130586Y27099D01*
X129737Y26748D01*
X129008Y26189D01*
X128449Y25460D01*
X128098Y24611D01*
X127978Y23701D01*
Y20551D01*
X128098Y19641D01*
X128449Y18792D01*
X129008Y18063D01*
X129737Y17504D01*
X130586Y17153D01*
X131496Y17033D01*
X132407Y17153D01*
X133255Y17504D01*
X133984Y18063D01*
X134543Y18792D01*
X134895Y19641D01*
X135014Y20551D01*
Y23701D01*
X134895Y24611D01*
X134543Y25460D01*
X133984Y26189D01*
X133255Y26748D01*
X132407Y27099D01*
X131496Y27219D01*
D02*
G37*
G36*
X150512Y27535D02*
X147038Y24061D01*
X148912D01*
Y20422D01*
X150091Y21601D01*
X151483Y20210D01*
X148912Y17638D01*
Y15548D01*
X151863D01*
X151951Y15416D01*
X152682Y14927D01*
X153543Y14756D01*
X154405Y14927D01*
X155136Y15416D01*
X155624Y16146D01*
X155795Y17008D01*
X155624Y17870D01*
X155136Y18600D01*
X154405Y19088D01*
X153543Y19260D01*
X153437Y19239D01*
X152664Y19873D01*
Y24061D01*
X153986D01*
X150512Y27535D01*
D02*
G37*
G36*
X109787Y14512D02*
X102811D01*
Y10489D01*
X101824Y10359D01*
X101472Y11208D01*
X100913Y11937D01*
X100184Y12496D01*
X99336Y12847D01*
X98425Y12967D01*
X97515Y12847D01*
X96666Y12496D01*
X95937Y11937D01*
X95378Y11208D01*
X95027Y10359D01*
X94988Y10066D01*
X93988D01*
X93950Y10359D01*
X93598Y11208D01*
X93039Y11937D01*
X92310Y12496D01*
X91462Y12847D01*
X90551Y12967D01*
X89641Y12847D01*
X88792Y12496D01*
X88063Y11937D01*
X87504Y11208D01*
X87153Y10359D01*
X87114Y10066D01*
X86114D01*
X86076Y10359D01*
X85724Y11208D01*
X85165Y11937D01*
X84436Y12496D01*
X83588Y12847D01*
X82677Y12967D01*
X81767Y12847D01*
X80918Y12496D01*
X80189Y11937D01*
X79630Y11208D01*
X79279Y10359D01*
X78291Y10489D01*
Y14512D01*
X71315D01*
Y4386D01*
X78291D01*
Y8408D01*
X79279Y8538D01*
X79630Y7690D01*
X80189Y6961D01*
X80918Y6402D01*
X81767Y6050D01*
X82677Y5931D01*
X83588Y6050D01*
X84436Y6402D01*
X85165Y6961D01*
X85724Y7690D01*
X86076Y8538D01*
X86114Y8832D01*
X87114D01*
X87153Y8538D01*
X87504Y7690D01*
X88063Y6961D01*
X88792Y6402D01*
X89641Y6050D01*
X90551Y5931D01*
X91462Y6050D01*
X92310Y6402D01*
X93039Y6961D01*
X93598Y7690D01*
X93950Y8538D01*
X93988Y8831D01*
X94988D01*
X95027Y8538D01*
X95378Y7690D01*
X95937Y6961D01*
X96666Y6402D01*
X97515Y6050D01*
X98425Y5931D01*
X99336Y6050D01*
X100184Y6402D01*
X100913Y6961D01*
X101472Y7690D01*
X101824Y8538D01*
X102811Y8408D01*
Y4386D01*
X109787D01*
Y14512D01*
D02*
G37*
G36*
X199724Y10213D02*
X198454Y10046D01*
X197270Y9555D01*
X197041Y9380D01*
X199724Y6697D01*
X202407Y9380D01*
X202179Y9555D01*
X200995Y10046D01*
X199724Y10213D01*
D02*
G37*
G36*
X54212Y10154D02*
X52942Y9987D01*
X51758Y9496D01*
X51530Y9321D01*
X54212Y6638D01*
X56896Y9321D01*
X56667Y9496D01*
X55483Y9987D01*
X54212Y10154D01*
D02*
G37*
G36*
X159843Y13558D02*
X158932Y13438D01*
X158083Y13086D01*
X157355Y12527D01*
X156796Y11799D01*
X156444Y10950D01*
X156324Y10039D01*
Y6890D01*
X156444Y5979D01*
X156796Y5131D01*
X157355Y4402D01*
X158083Y3843D01*
X158932Y3491D01*
X159843Y3371D01*
X160753Y3491D01*
X161602Y3843D01*
X162330Y4402D01*
X162889Y5131D01*
X163241Y5979D01*
X163361Y6890D01*
Y10039D01*
X163241Y10950D01*
X162889Y11799D01*
X162330Y12527D01*
X161602Y13086D01*
X160753Y13438D01*
X159843Y13558D01*
D02*
G37*
G36*
X131496D02*
X130586Y13438D01*
X129737Y13086D01*
X129008Y12527D01*
X128449Y11799D01*
X128098Y10950D01*
X127978Y10039D01*
Y6890D01*
X128098Y5979D01*
X128449Y5131D01*
X129008Y4402D01*
X129737Y3843D01*
X130586Y3491D01*
X131496Y3371D01*
X132407Y3491D01*
X133255Y3843D01*
X133984Y4402D01*
X134543Y5131D01*
X134895Y5979D01*
X135014Y6890D01*
Y10039D01*
X134895Y10950D01*
X134543Y11799D01*
X133984Y12527D01*
X133255Y13086D01*
X132407Y13438D01*
X131496Y13558D01*
D02*
G37*
%LPD*%
D11*
X51049Y152197D02*
G03*
X54105Y152197I1528J4823D01*
G01*
D02*
G03*
X57636Y157020I-1528J4823D01*
G01*
X47793Y155373D02*
G03*
X51049Y152197I4783J1647D01*
G01*
X47522Y157228D02*
G03*
X47793Y155373I5055J-208D01*
G01*
X132892Y205080D02*
G03*
X133297Y205769I-384J689D01*
G01*
X134622Y207094D02*
G03*
X133612Y204657I2437J-2437D01*
G01*
X135960Y205023D02*
G03*
X136446Y206090I-928J1068D01*
G01*
X137998Y207642D02*
G03*
X136762Y204657I2985J-2985D01*
G01*
X136291Y205935D02*
G03*
X135762Y204657I1278J-1278D01*
G01*
X151400Y199460D02*
G03*
X149557Y195012I4449J-4449D01*
G01*
X149693Y197753D02*
G03*
X148557Y195012I2742J-2742D01*
G01*
X147986Y196046D02*
G03*
X147557Y195012I1035J-1035D01*
G01*
X150069Y191791D02*
G03*
X149415Y191520I0J-925D01*
G01*
Y192204D02*
G03*
X150415Y191791I999J999D01*
G01*
X150069Y188641D02*
G03*
X149415Y188370I0J-925D01*
G01*
Y189055D02*
G03*
X150415Y188641I999J999D01*
G01*
X150069Y185491D02*
G03*
X149415Y185221I0J-925D01*
G01*
Y185905D02*
G03*
X150415Y185491I999J999D01*
G01*
X150069Y182342D02*
G03*
X149415Y182071I0J-925D01*
G01*
X149449Y182718D02*
G03*
X150240Y182342I791J642D01*
G01*
X130147Y152293D02*
G03*
X129636Y153528I-1746J0D01*
G01*
X117549Y152293D02*
G03*
X117038Y153528I-1746J0D01*
G01*
X57636Y160008D02*
G03*
X60132Y166817I-6098J6098D01*
G01*
X59162Y161533D02*
G03*
X61129Y166900I-4805J4805D01*
G01*
X60687Y163059D02*
G03*
X62126Y166982I-3513J3513D01*
G01*
X207924Y197638D02*
G03*
X209052Y198105I0J1595D01*
G01*
X209052Y194079D02*
G03*
X200461Y197638I-8591J-8591D01*
G01*
X209759Y194787D02*
G03*
X202875Y197638I-6884J-6884D01*
G01*
X210466Y195494D02*
G03*
X205290Y197638I-5177J-5177D01*
G01*
X211173Y196201D02*
G03*
X207704Y197638I-3469J-3469D01*
G01*
X226206Y201233D02*
G03*
X228218Y206092I-4859J4859D01*
G01*
X227913Y202940D02*
G03*
X229218Y206092I-3152J3152D01*
G01*
X231065Y203246D02*
G03*
X226206Y201233I0J-6872D01*
G01*
X231065Y204246D02*
G03*
X227913Y202940I0J-4458D01*
G01*
X204193Y206092D02*
G03*
X209052Y208105I0J6872D01*
G01*
X206607Y206092D02*
G03*
X209759Y207398I0J4458D01*
G01*
X209052Y204079D02*
G03*
X204193Y206092I-4859J-4859D01*
G01*
X209759Y204786D02*
G03*
X206607Y206092I-3152J-3152D01*
G01*
X226206Y211233D02*
G03*
X228218Y216092I-4859J4859D01*
G01*
X227913Y212940D02*
G03*
X229218Y216092I-3152J3152D01*
G01*
X231065Y213246D02*
G03*
X226206Y211233I0J-6872D01*
G01*
X231065Y214246D02*
G03*
X227913Y212940I0J-4458D01*
G01*
X204193Y216092D02*
G03*
X209052Y218105I0J6872D01*
G01*
X206607Y216092D02*
G03*
X209759Y217398I0J4458D01*
G01*
X209052Y214079D02*
G03*
X204193Y216092I-4859J-4859D01*
G01*
X209759Y214787D02*
G03*
X206607Y216092I-3152J-3152D01*
G01*
X203951Y225992D02*
G03*
X209052Y228105I0J7213D01*
G01*
X206366Y225992D02*
G03*
X209759Y227398I0J4799D01*
G01*
X209052Y224079D02*
G03*
X204434Y225992I-4618J-4618D01*
G01*
X209759Y224786D02*
G03*
X206849Y225992I-2911J-2911D01*
G01*
X207352Y236092D02*
G03*
X208316Y236831I0J998D01*
G01*
Y235353D02*
G03*
X207352Y236092I-964J-259D01*
G01*
X211065Y233246D02*
G03*
X199867Y228608I0J-15835D01*
G01*
X211065Y234246D02*
G03*
X201574Y230315I0J-13421D01*
G01*
X211065Y235246D02*
G03*
X203282Y232022I0J-11007D01*
G01*
X211065Y236246D02*
G03*
X204989Y233729I0J-8593D01*
G01*
X211065Y237246D02*
G03*
X206696Y235436I0J-6179D01*
G01*
X141356Y142614D02*
G03*
X143191Y143374I0J2595D01*
G01*
Y141854D02*
G03*
X141356Y142614I-1835J-1835D01*
G01*
X117549Y149091D02*
G03*
X119333Y148367I1750J1750D01*
G01*
X118273Y147307D02*
G03*
X117549Y149091I-2474J35D01*
G01*
X138695Y142614D02*
X143951D01*
X130147Y151161D02*
X138695Y142614D01*
X190837Y211092D02*
X226065D01*
X186494Y201092D02*
X226065D01*
Y211092D02*
X231065Y216092D01*
X226065Y201092D02*
X231065Y206092D01*
X209519Y197638D02*
X211065Y196092D01*
X165536Y197638D02*
X209519D01*
X184366Y201792D02*
X188666Y206092D01*
X163809Y201792D02*
X184366D01*
X183537Y203792D02*
X190837Y211092D01*
X162981Y203792D02*
X183537D01*
X182709Y205792D02*
X193009Y216092D01*
X157731Y205792D02*
X182709D01*
X181880Y207792D02*
X200080Y225992D01*
X138148Y207792D02*
X181880D01*
X181052Y209792D02*
X207352Y236092D01*
X137320Y209792D02*
X181052D01*
X146648Y163213D02*
X146879Y163444D01*
X117549Y149091D02*
X119348Y147292D01*
X117549Y149091D02*
Y156161D01*
X136446Y202224D02*
Y206090D01*
X133297Y202224D02*
Y205769D01*
X210965Y225992D02*
X211065Y226092D01*
X57636Y157020D02*
Y160008D01*
X62577Y164948D01*
Y167020D01*
X47522Y157228D02*
Y166123D01*
X207352Y236092D02*
X211065D01*
X200080Y225992D02*
X210965D01*
X193009Y216092D02*
X211065D01*
X188666Y206092D02*
X211065D01*
X133297Y205769D02*
X137320Y209792D01*
X136446Y206090D02*
X138148Y207792D01*
X139596Y156161D02*
X140315Y156879D01*
X130147Y151161D02*
Y156161D01*
X146879Y182342D02*
X150240D01*
X146879Y185491D02*
X150561D01*
X185194Y199792D02*
X186494Y201092D01*
X146879Y194940D02*
X157731Y205792D01*
X146879Y191791D02*
X150979D01*
X162981Y203792D01*
X146879Y188641D02*
X150658D01*
X163809Y201792D01*
X150561Y185491D02*
X164862Y199792D01*
X185194D01*
X150240Y182342D02*
X165536Y197638D01*
D16*
X98286Y166468D02*
G03*
X96036Y165536I0J-3182D01*
G01*
X149212Y163376D02*
G03*
X148721Y162189I1187J-1187D01*
G01*
X149212Y163376D02*
G03*
X148721Y162189I1187J-1187D01*
G01*
X33206Y210134D02*
G03*
X25000Y213533I-8206J-8206D01*
G01*
X30518Y212822D02*
G03*
X25000Y215108I-5518J-5518D01*
G01*
X35084Y199356D02*
G03*
X25000Y203533I-10084J-10084D01*
G01*
X32396Y202045D02*
G03*
X25000Y205108I-7396J-7396D01*
G01*
X29707Y204733D02*
G03*
X25000Y206683I-4707J-4707D01*
G01*
X28348Y206092D02*
G03*
X27469Y205421I0J-910D01*
G01*
Y206764D02*
G03*
X28348Y206092I879J239D01*
G01*
X33035Y190205D02*
G03*
X25000Y193533I-8036J-8036D01*
G01*
X30347Y192893D02*
G03*
X25000Y195108I-5347J-5347D01*
G01*
X162230Y178219D02*
G03*
X163204Y180572I-2352J2352D01*
G01*
X164976Y178800D02*
G03*
X161280Y177269I0J-5228D01*
G01*
Y164977D02*
G03*
X164976Y163446I3697J3697D01*
G01*
X163204Y161674D02*
G03*
X162230Y164026I-3327J0D01*
G01*
X143262Y166594D02*
G03*
X140827Y165585I0J-3444D01*
G01*
X148721Y153041D02*
G03*
X149297Y151649I1968J0D01*
G01*
X148183D02*
G03*
X148721Y152945I-1297J1297D01*
G01*
X140551Y30709D02*
X140551Y30709D01*
X140551Y20906D02*
Y30709D01*
X140551Y25984D02*
Y30709D01*
X95048Y148784D02*
Y164549D01*
X86857Y140593D02*
X95048Y148784D01*
Y164549D02*
X97093Y166594D01*
X34949Y148565D02*
X42921Y140593D01*
X34949Y148565D02*
Y188291D01*
X27148Y196092D02*
X34949Y188291D01*
X38098Y150458D02*
Y196342D01*
Y150458D02*
X44814Y143743D01*
X28348Y206092D02*
X38098Y196342D01*
X41248Y150950D02*
Y202092D01*
Y150950D02*
X45306Y146892D01*
X27248Y216092D02*
X41248Y202092D01*
X25000Y206092D02*
X28348D01*
X25000Y216092D02*
X27248D01*
X42921Y140593D02*
X86857D01*
X91898Y150088D02*
Y165041D01*
X85553Y143743D02*
X91898Y150088D01*
X44814Y143743D02*
X85553D01*
X88749Y151393D02*
Y166793D01*
X84248Y146892D02*
X88749Y151393D01*
X45306Y146892D02*
X84248D01*
X25000Y196092D02*
X27148D01*
X91898Y165041D02*
X96601Y169743D01*
X97093Y166594D02*
X100817D01*
X96601Y169743D02*
X100817D01*
X88749Y166793D02*
X94849Y172893D01*
X100817D01*
X156540Y169716D02*
X164976Y161280D01*
X146879Y169716D02*
X156540D01*
X140270Y166142D02*
X140722Y166594D01*
X146879D01*
Y163444D02*
X147172D01*
X148721Y161896D01*
Y151092D02*
Y161896D01*
X156877Y172866D02*
X163676Y179665D01*
X146879Y172866D02*
X156877D01*
D18*
X107931Y156232D02*
D03*
X111081D02*
D03*
X114230D02*
D03*
X117380D02*
D03*
X120530D02*
D03*
X123679D02*
D03*
X126829D02*
D03*
X129978D02*
D03*
X133128D02*
D03*
X136278D02*
D03*
X139427D02*
D03*
Y202295D02*
D03*
X136278D02*
D03*
X133128D02*
D03*
X129978D02*
D03*
X126829D02*
D03*
X123679D02*
D03*
X120530D02*
D03*
X117380D02*
D03*
X114230D02*
D03*
X111081D02*
D03*
X107931D02*
D03*
D19*
X146711Y163516D02*
D03*
Y166665D02*
D03*
Y169815D02*
D03*
Y172965D02*
D03*
Y176114D02*
D03*
Y179264D02*
D03*
Y182413D02*
D03*
Y185563D02*
D03*
Y188713D02*
D03*
Y191862D02*
D03*
Y195012D02*
D03*
X100648D02*
D03*
Y191862D02*
D03*
Y188713D02*
D03*
Y185563D02*
D03*
Y182413D02*
D03*
Y179264D02*
D03*
Y176114D02*
D03*
Y172965D02*
D03*
Y169815D02*
D03*
Y166665D02*
D03*
Y163516D02*
D03*
D20*
X179516Y180922D02*
D03*
X172036D02*
D03*
X179516Y161022D02*
D03*
X172036D02*
D03*
D21*
X150788Y20906D02*
D03*
X140552D02*
D03*
D22*
X98065Y123536D02*
D03*
X92776Y118247D02*
D03*
X91465Y130136D02*
D03*
X86176Y124847D02*
D03*
D47*
X47522Y166123D02*
G03*
X47577Y165853I5055J897D01*
G01*
X51094Y171934D02*
G03*
X47522Y166123I1483J-4915D01*
G01*
X93445Y132116D02*
G03*
X92625Y130136I1980J-1980D01*
G01*
X91465Y131296D02*
G03*
X93444Y132115I0J2798D01*
G01*
X103288Y176392D02*
G03*
X104133Y176042I845J845D01*
G01*
X97097Y185465D02*
G03*
X98007Y185841I0J1287D01*
G01*
X97097Y188614D02*
G03*
X98007Y188991I0J1287D01*
G01*
X97078Y191756D02*
G03*
X98007Y192140I0J1313D01*
G01*
X97078Y194905D02*
G03*
X98007Y195290I0J1313D01*
G01*
X107903Y199540D02*
G03*
X103939Y198063I-365J-5075D01*
G01*
X107988Y200718D02*
G03*
X105767Y199891I-205J-2844D01*
G01*
X108072Y201896D02*
G03*
X107595Y201718I-44J-612D01*
G01*
X110802Y204936D02*
G03*
X111250Y206015I-1080J1080D01*
G01*
X113952Y204936D02*
G03*
X114399Y206015I-1080J1080D01*
G01*
X117102Y204936D02*
G03*
X117549Y206015I-1080J1080D01*
G01*
X120251Y204936D02*
G03*
X120698Y206015I-1080J1080D01*
G01*
X126550Y204936D02*
G03*
X126998Y206015I-1080J1080D01*
G01*
X129700Y204936D02*
G03*
X130147Y206015I-1080J1080D01*
G01*
X132734Y158594D02*
G03*
X131969Y160443I-2614J0D01*
G01*
X127148Y152149D02*
G03*
X126550Y153592I-2040J0D01*
G01*
X120698Y152512D02*
G03*
X120251Y153592I-1527J0D01*
G01*
X77676Y164023D02*
G03*
X74938Y157096I6622J-6622D01*
G01*
X75749Y162095D02*
G03*
X73757Y157058I4816J-4816D01*
G01*
X73822Y160168D02*
G03*
X72577Y157020I3010J-3010D01*
G01*
X67573Y159544D02*
G03*
X70223Y166816I-6482J6482D01*
G01*
X69366Y161338D02*
G03*
X71400Y166918I-4974J4974D01*
G01*
X71159Y163131D02*
G03*
X72577Y167020I-3466J3466D01*
G01*
X67520Y163892D02*
G03*
X64936Y157146I6270J-6270D01*
G01*
X65648Y162019D02*
G03*
X63756Y157083I4588J-4588D01*
G01*
X63775Y160147D02*
G03*
X62577Y157020I2907J-2907D01*
G01*
X57537Y164106D02*
G03*
X54934Y157177I6333J-6333D01*
G01*
X55697Y162266D02*
G03*
X53755Y157098I4723J-4723D01*
G01*
X53856Y160425D02*
G03*
X52577Y157020I3112J-3112D01*
G01*
X57390Y172937D02*
G03*
X54939Y167020I5917J-5917D01*
G01*
X55374Y170920D02*
G03*
X53758Y167020I3901J-3901D01*
G01*
X52577Y169382D02*
G03*
X54725Y170272I0J3038D01*
G01*
X67992Y233573D02*
G03*
X62951Y235661I-5041J-5041D01*
G01*
X65975Y235590D02*
G03*
X62951Y236842I-3024J-3024D01*
G01*
X65904Y238614D02*
G03*
X67992Y233573I7129J0D01*
G01*
X64723Y238614D02*
G03*
X65975Y235590I4277J0D01*
G01*
X77991Y233573D02*
G03*
X72951Y235661I-5041J-5041D01*
G01*
X75975Y235590D02*
G03*
X72951Y236842I-3024J-3024D01*
G01*
X75904Y238614D02*
G03*
X77991Y233573I7129J0D01*
G01*
X74722Y238614D02*
G03*
X75975Y235590I4277J0D01*
G01*
X86531Y234178D02*
G03*
X82951Y235661I-3580J-3580D01*
G01*
X85904Y238614D02*
G03*
X88597Y232113I9194J0D01*
G01*
X84723Y238614D02*
G03*
X86580Y234129I6343J0D01*
G01*
X92951Y231486D02*
G03*
X90863Y236526I-7129J0D01*
G01*
X92951Y234337D02*
G03*
X91698Y237361I-4277J0D01*
G01*
X95039Y236526D02*
G03*
X92951Y231486I5041J-5041D01*
G01*
X94204Y237361D02*
G03*
X92951Y234337I3024J-3024D01*
G01*
X102951Y231486D02*
G03*
X100863Y236526I-7129J0D01*
G01*
X102951Y234337D02*
G03*
X101698Y237361I-4277J0D01*
G01*
X105039Y236526D02*
G03*
X102951Y231486I5041J-5041D01*
G01*
X104204Y237361D02*
G03*
X102951Y234337I3024J-3024D01*
G01*
X140683Y136114D02*
G03*
X139003Y135418I0J-2376D01*
G01*
Y136810D02*
G03*
X140683Y136114I1680J1680D01*
G01*
X144327Y128614D02*
G03*
X142647Y127918I0J-2376D01*
G01*
Y129310D02*
G03*
X144327Y128614I1680J1680D01*
G01*
X193602Y139802D02*
G03*
X194767Y142614I-2812J2812D01*
G01*
X146041Y202164D02*
G03*
X146737Y203844I-1680J1680D01*
G01*
X147721Y202860D02*
G03*
X146041Y202164I0J-2376D01*
G01*
X127148Y149699D02*
G03*
X127881Y147930I2503J0D01*
G01*
X126489D02*
G03*
X127148Y149521I-1591J1591D01*
G01*
X121228Y140772D02*
G03*
X120532Y139092I1680J-1680D01*
G01*
X119548Y140076D02*
G03*
X121228Y140772I0J2376D01*
G01*
X171071Y140934D02*
G03*
X171767Y142614I-1680J1680D01*
G01*
X172751Y141630D02*
G03*
X171071Y140934I0J-2376D01*
G01*
X78973Y232592D02*
X85033D01*
X72951Y238614D02*
X78973Y232592D01*
X82951Y237714D02*
Y238614D01*
Y237714D02*
X82995D01*
X105579Y215130D01*
X166251Y136114D02*
X172751Y142614D01*
X139193Y136114D02*
X166251D01*
X139193D02*
Y137000D01*
X182414Y128614D02*
X196501Y142701D01*
X141951Y128614D02*
X182414D01*
X138307Y136114D02*
X139193Y137000D01*
X75278Y200425D02*
X99981D01*
X44976Y170123D02*
X75278Y200425D01*
X85801Y185465D02*
X97695D01*
X77676Y177339D02*
X85801Y185465D01*
X77676Y164023D02*
Y177339D01*
X129851Y173614D02*
X140251Y184014D01*
X129851Y162560D02*
Y173614D01*
X140251Y196374D02*
X147721Y203844D01*
X140251Y184014D02*
Y196374D01*
X129851Y162560D02*
X133297Y159115D01*
X103720Y142392D02*
Y159092D01*
X91326Y129998D02*
X103720Y142392D01*
X126927Y156090D02*
X126998Y156161D01*
X126920Y156090D02*
X126927D01*
X120698Y152242D02*
Y156161D01*
X139596Y202224D02*
Y202980D01*
X117124Y219516D02*
X130147Y206493D01*
Y202224D02*
Y206493D01*
X126998Y202224D02*
Y206043D01*
X115729Y217311D02*
X126998Y206043D01*
X120698Y156161D02*
X120721Y156183D01*
X81442Y188614D02*
X97695D01*
X67520Y174692D02*
X81442Y188614D01*
X67520Y163892D02*
Y174692D01*
X105770Y176042D02*
X107121Y174692D01*
Y162492D02*
Y174692D01*
X103720Y159092D02*
X107121Y162492D01*
X100817Y176042D02*
X105770D01*
X49332Y149808D02*
X64106D01*
X44976Y154164D02*
X49332Y149808D01*
X62577Y158949D02*
X67520Y163892D01*
X44976Y154164D02*
Y170123D01*
X72577Y158923D02*
X77676Y164023D01*
X57538Y169184D02*
X80109Y191756D01*
X52577Y168123D02*
X79359Y194905D01*
X52488Y171934D02*
X78616Y198063D01*
X85033Y232592D02*
X104676Y212949D01*
X107362Y219516D02*
X117124D01*
X104676Y212949D02*
X111007D01*
X102951Y223927D02*
X107362Y219516D01*
X102951Y223927D02*
Y238614D01*
X106458Y217335D02*
X111594D01*
X92951Y230843D02*
X106458Y217335D01*
X92951Y230843D02*
Y238614D01*
X105579Y215130D02*
X111910D01*
X103772Y210768D02*
X109972D01*
X84548Y229992D02*
X103772Y210768D01*
X71573Y229992D02*
X84548D01*
X62951Y238614D02*
X71573Y229992D01*
X106948Y207392D02*
X110048D01*
X99981Y200425D02*
X106948Y207392D01*
X110048D02*
X111250Y206191D01*
X111619Y217311D02*
X115729D01*
X111594Y217335D02*
X111619Y217311D01*
X109972Y210768D02*
X114399Y206341D01*
X111007Y212949D02*
X117549Y206407D01*
X111910Y215130D02*
X120698Y206342D01*
Y202224D02*
Y206342D01*
X117549Y202224D02*
Y206407D01*
X114399Y202224D02*
Y206341D01*
X111250Y202224D02*
Y206191D01*
X103939Y198063D02*
X108100Y202224D01*
X78616Y198063D02*
X103939D01*
X51094Y171934D02*
X52488D01*
X51094D02*
X51094D01*
X79359Y194905D02*
X97687D01*
X80109Y191756D02*
X97687D01*
X57538Y164106D02*
Y169184D01*
X97687Y191756D02*
X97695Y191764D01*
X52577Y159146D02*
X57538Y164106D01*
X97687Y194905D02*
X97695Y194913D01*
X109622Y182342D02*
X109672Y182392D01*
X119548Y139092D02*
X122907Y142451D01*
Y150033D01*
X120698Y152242D02*
X122907Y150033D01*
X52577Y167020D02*
Y168123D01*
X72577Y157020D02*
Y158923D01*
X62577Y157020D02*
Y158949D01*
X52577Y157020D02*
Y159146D01*
X126920Y156090D02*
X127148Y155862D01*
X72577Y164549D02*
Y167020D01*
X64106Y149808D02*
X67572Y153275D01*
Y159544D01*
X72577Y164549D01*
X126672Y147244D02*
X127148Y147720D01*
Y155862D01*
X133297Y156161D02*
Y159115D01*
D48*
X84869Y123541D02*
G03*
X85410Y124847I-1306J1306D01*
G01*
X86176Y124081D02*
G03*
X84868Y123539I0J-1850D01*
G01*
X140990Y156879D02*
G03*
X139427Y156232I0J-2210D01*
G01*
X225362Y123592D02*
G03*
X229394Y125262I0J5703D01*
G01*
Y121922D02*
G03*
X225362Y123592I-4033J-4033D01*
G01*
X225256Y98360D02*
G03*
X231065Y95954I5809J5809D01*
G01*
X228703Y93592D02*
G03*
X227768Y95849I-3191J0D01*
G01*
X9032Y192060D02*
G03*
X5000Y193730I-4033J-4033D01*
G01*
X7362Y196092D02*
G03*
X9032Y192060I5703J0D01*
G01*
X10703Y123592D02*
G03*
X6670Y121922I0J-5703D01*
G01*
Y125262D02*
G03*
X10703Y123592I4033J4033D01*
G01*
X9032Y137625D02*
G03*
X7362Y133592I4033J-4033D01*
G01*
X5000Y135954D02*
G03*
X9032Y137625I0J5703D01*
G01*
X9000Y97592D02*
G03*
X7362Y93606I3954J-3954D01*
G01*
X5014Y95954D02*
G03*
X9000Y97592I32J5592D01*
G01*
X46321Y130071D02*
G03*
X47500Y129583I1179J1179D01*
G01*
X29872Y170229D02*
G03*
X30368Y169032I1694J0D01*
G01*
Y168196D02*
G03*
X29872Y166999I1197J-1197D01*
G01*
X152492Y176114D02*
X153543Y177165D01*
X146711Y176114D02*
X152492D01*
X9000Y97592D02*
X83021D01*
X5000Y93592D02*
X9000Y97592D01*
X29872Y146520D02*
Y180344D01*
Y146520D02*
X47050Y129342D01*
X111081Y127239D02*
Y156232D01*
X111250Y127167D02*
X125872Y112544D01*
X107951Y122522D02*
Y156232D01*
X83021Y97592D02*
X107951Y122522D01*
X98821Y147092D02*
Y161448D01*
X75321Y123592D02*
X98821Y147092D01*
X13220Y141813D02*
Y187872D01*
X5000Y196092D02*
X13220Y187872D01*
X80920Y119592D02*
X86315Y124987D01*
X80920Y119592D02*
Y119592D01*
X5000Y133592D02*
X13220Y141813D01*
X98821Y161448D02*
X100817Y163444D01*
X5000Y123592D02*
X75321D01*
X230024Y93592D02*
X231220D01*
X47050Y129342D02*
X47850D01*
X136446Y156161D02*
Y161380D01*
X133465Y164362D02*
X136446Y161380D01*
X133465Y164362D02*
Y167936D01*
X150512Y26260D02*
Y28533D01*
X114230Y134689D02*
Y156232D01*
X140315Y156879D02*
X143917D01*
X114399Y134617D02*
X125424Y123592D01*
X231220D01*
X211072Y112544D02*
X230024Y93592D01*
X125872Y112544D02*
X211072D01*
D49*
X89291Y69116D02*
G03*
X86415Y70307I-2875J-2875D01*
G01*
X88187Y72079D02*
G03*
X89501Y68905I4488J0D01*
G01*
X86572Y112044D02*
X92915Y118387D01*
X91326Y129998D02*
X97926Y123398D01*
X142632Y90935D02*
X156315Y104618D01*
X97559Y65344D02*
X123150Y90935D01*
X142632D01*
X86453Y71954D02*
X93063Y65344D01*
X97559D01*
D50*
X107887Y182342D02*
G03*
X109185Y182879I0J1835D01*
G01*
X100817Y182342D02*
X109622D01*
D51*
X129006Y42254D02*
X140551Y30709D01*
X15000Y206092D02*
Y216092D01*
Y196092D02*
Y206092D01*
X172566Y161280D02*
X172823Y161023D01*
X164976Y161280D02*
X172566D01*
X172781Y180965D02*
X172823Y180923D01*
X164976Y180965D02*
X172781D01*
X140551Y30709D02*
X158268Y48425D01*
Y92913D01*
X162598Y97244D01*
X118091Y42254D02*
X129006D01*
D52*
X166297Y89992D02*
D03*
X176297D02*
D03*
X69762D02*
D03*
X59762D02*
D03*
X62951Y238614D02*
D03*
X72951D02*
D03*
X82951D02*
D03*
X92951D02*
D03*
X102951D02*
D03*
X112951D02*
D03*
X122951D02*
D03*
X132951D02*
D03*
X142951D02*
D03*
X152951D02*
D03*
X162951D02*
D03*
X172951D02*
D03*
X157108Y216114D02*
D03*
D53*
X164976Y161674D02*
D03*
Y180572D02*
D03*
D54*
X118110Y66929D02*
D03*
X220472Y267717D02*
D03*
X15748D02*
D03*
D55*
X131496Y8465D02*
D03*
X159843D02*
D03*
Y22126D02*
D03*
X131496D02*
D03*
D56*
X118091Y42254D02*
D03*
Y52254D02*
D03*
Y32254D02*
D03*
X5000Y93592D02*
D03*
Y103592D02*
D03*
X5000Y123592D02*
D03*
Y113592D02*
D03*
Y171092D02*
D03*
Y161092D02*
D03*
Y151092D02*
D03*
X15000Y196092D02*
D03*
X5000D02*
D03*
X15000Y206092D02*
D03*
X5000D02*
D03*
X15000Y216092D02*
D03*
X5000D02*
D03*
X231065Y93592D02*
D03*
Y103592D02*
D03*
Y123592D02*
D03*
Y113592D02*
D03*
X221065Y236092D02*
D03*
X231065D02*
D03*
X221065Y226092D02*
D03*
X231065D02*
D03*
X221065Y216092D02*
D03*
X231065D02*
D03*
X221065Y206092D02*
D03*
X231065D02*
D03*
X221065Y196092D02*
D03*
X231065D02*
D03*
X112951Y248614D02*
D03*
X86415Y72079D02*
D03*
D57*
X150512Y55699D02*
D03*
X168228D02*
D03*
Y28927D02*
D03*
X213504Y55699D02*
D03*
X231221D02*
D03*
Y28927D02*
D03*
X182008Y32076D02*
D03*
X199724D02*
D03*
Y5305D02*
D03*
X182008Y79321D02*
D03*
X199724D02*
D03*
Y52549D02*
D03*
X67992Y55639D02*
D03*
X85709D02*
D03*
Y28868D02*
D03*
X36496Y32017D02*
D03*
X54212D02*
D03*
Y5246D02*
D03*
X5000Y55639D02*
D03*
X22716D02*
D03*
Y28868D02*
D03*
D58*
X150512Y28927D02*
D03*
X213504D02*
D03*
X182008Y5305D02*
D03*
Y52549D02*
D03*
X67992Y28868D02*
D03*
X36496Y5246D02*
D03*
X5000Y28868D02*
D03*
D59*
X5000Y83592D02*
D03*
X5000Y133592D02*
D03*
Y181092D02*
D03*
X231065Y83592D02*
D03*
Y133592D02*
D03*
D60*
X25000Y196092D02*
D03*
Y206092D02*
D03*
Y216092D02*
D03*
X211065Y236092D02*
D03*
Y226092D02*
D03*
Y216092D02*
D03*
Y206092D02*
D03*
Y196092D02*
D03*
X122951Y248614D02*
D03*
D61*
X176793Y216114D02*
D03*
D62*
X93486Y79150D02*
D03*
D63*
X74803Y9449D02*
D03*
X106299D02*
D03*
D64*
X98425D02*
D03*
X90551D02*
D03*
X82677D02*
D03*
D65*
X52577Y167020D02*
D03*
Y157020D02*
D03*
X62577Y167020D02*
D03*
Y157020D02*
D03*
X72577Y167020D02*
D03*
Y157020D02*
D03*
X82577Y167020D02*
D03*
D66*
Y157020D02*
D03*
D67*
X87341Y272965D02*
D03*
X48482D02*
D03*
D68*
X97341D02*
D03*
X38482D02*
D03*
D69*
X42242Y242748D02*
D03*
X193817D02*
D03*
X42242Y86055D02*
D03*
X193817D02*
D03*
D70*
X182313Y107297D02*
D03*
X161417Y43307D02*
D03*
X224410D02*
D03*
X192913Y19685D02*
D03*
X118110Y23622D02*
D03*
Y11811D02*
D03*
X70866Y43307D02*
D03*
X15748D02*
D03*
X62992Y19685D02*
D03*
X47244D02*
D03*
X11811Y251969D02*
D03*
Y244094D02*
D03*
Y236221D02*
D03*
X141548Y220317D02*
D03*
X141648Y229917D02*
D03*
X179134Y167323D02*
D03*
Y171260D02*
D03*
X153543Y177165D02*
D03*
X179134Y175197D02*
D03*
X205709Y187008D02*
D03*
Y179134D02*
D03*
Y172244D02*
D03*
Y165354D02*
D03*
X218504Y112205D02*
D03*
Y119095D02*
D03*
X86572Y112044D02*
D03*
X37402Y127953D02*
D03*
X27559D02*
D03*
X17717D02*
D03*
X47244Y119095D02*
D03*
X37402D02*
D03*
X27559D02*
D03*
X17717D02*
D03*
X172751Y142614D02*
D03*
X29951Y168614D02*
D03*
X29872Y174614D02*
D03*
X119548Y139092D02*
D03*
X119348Y147292D02*
D03*
X47500Y128992D02*
D03*
X80920Y119592D02*
D03*
X109672Y182392D02*
D03*
X143917Y156879D02*
D03*
X29872Y180344D02*
D03*
X127185Y147234D02*
D03*
X141572Y203644D02*
D03*
X147721Y203844D02*
D03*
X148740Y151092D02*
D03*
X143951Y142614D02*
D03*
X133465Y169291D02*
D03*
X140270Y166142D02*
D03*
X162598Y97244D02*
D03*
X195751Y142614D02*
D03*
X141951Y128614D02*
D03*
X138307Y136114D02*
D03*
X156315Y104618D02*
D03*
X96504Y204205D02*
D03*
X90504D02*
D03*
X94504Y214205D02*
D03*
X98504Y210205D02*
D03*
X90504Y218205D02*
D03*
X84504Y204205D02*
D03*
X46504Y178205D02*
D03*
Y184205D02*
D03*
X154504Y164205D02*
D03*
X102504Y132205D02*
D03*
X8504Y144205D02*
D03*
M02*
