G04*
G04 #@! TF.GenerationSoftware,Altium Limited,Altium Designer,22.2.1 (43)*
G04*
G04 Layer_Color=128*
%FSLAX25Y25*%
%MOIN*%
G70*
G04*
G04 #@! TF.SameCoordinates,9C75C661-4079-485B-A4B9-5B77D2324FE1*
G04*
G04*
G04 #@! TF.FilePolarity,Positive*
G04*
G01*
G75*
%ADD20R,0.03500X0.05000*%
%ADD73R,0.02165X0.07087*%
%ADD74O,0.02165X0.07087*%
%ADD75R,0.09000X0.07500*%
%ADD76R,0.04724X0.05512*%
%ADD77R,0.05512X0.04724*%
%ADD78R,0.07500X0.09000*%
%ADD79R,0.05512X0.02559*%
%ADD80R,0.08268X0.02559*%
G04:AMPARAMS|DCode=81|XSize=74.8mil|YSize=125.98mil|CornerRadius=0mil|HoleSize=0mil|Usage=FLASHONLY|Rotation=90.000|XOffset=0mil|YOffset=0mil|HoleType=Round|Shape=Octagon|*
%AMOCTAGOND81*
4,1,8,-0.06299,-0.01870,-0.06299,0.01870,-0.04429,0.03740,0.04429,0.03740,0.06299,0.01870,0.06299,-0.01870,0.04429,-0.03740,-0.04429,-0.03740,-0.06299,-0.01870,0.0*
%
%ADD81OCTAGOND81*%

%ADD82R,0.02559X0.05512*%
%ADD83R,0.02559X0.08268*%
G04:AMPARAMS|DCode=84|XSize=74.8mil|YSize=125.98mil|CornerRadius=0mil|HoleSize=0mil|Usage=FLASHONLY|Rotation=0.000|XOffset=0mil|YOffset=0mil|HoleType=Round|Shape=Octagon|*
%AMOCTAGOND84*
4,1,8,-0.01870,0.06299,0.01870,0.06299,0.03740,0.04429,0.03740,-0.04429,0.01870,-0.06299,-0.01870,-0.06299,-0.03740,-0.04429,-0.03740,0.04429,-0.01870,0.06299,0.0*
%
%ADD84OCTAGOND84*%

D20*
X120791Y215014D02*
D03*
X113310D02*
D03*
X90191Y182614D02*
D03*
X82710D02*
D03*
X52711Y205614D02*
D03*
X60191D02*
D03*
X189011Y145614D02*
D03*
X196491D02*
D03*
X180491Y145614D02*
D03*
X173010D02*
D03*
X194691Y98314D02*
D03*
X187210D02*
D03*
D73*
X192313Y111881D02*
D03*
D74*
X187313D02*
D03*
X182313D02*
D03*
X177313D02*
D03*
X192313Y132550D02*
D03*
X187313D02*
D03*
X182313D02*
D03*
X177313D02*
D03*
D75*
X205951Y115528D02*
D03*
Y129701D02*
D03*
X163952Y115528D02*
D03*
Y129701D02*
D03*
D76*
X73609Y215408D02*
D03*
X60224D02*
D03*
D77*
X94916Y155702D02*
D03*
Y169087D02*
D03*
D78*
X124958Y227245D02*
D03*
X110785D02*
D03*
D79*
X71035Y195498D02*
D03*
Y183687D02*
D03*
D80*
X69749Y189592D02*
D03*
D81*
X59349D02*
D03*
D82*
X131078Y183606D02*
D03*
X119267D02*
D03*
D83*
X125172Y184892D02*
D03*
D84*
Y195292D02*
D03*
M02*
