G04*
G04 #@! TF.GenerationSoftware,Altium Limited,Altium Designer,22.2.1 (43)*
G04*
G04 Layer_Color=8388736*
%FSLAX25Y25*%
%MOIN*%
G70*
G04*
G04 #@! TF.SameCoordinates,9C75C661-4079-485B-A4B9-5B77D2324FE1*
G04*
G04*
G04 #@! TF.FilePolarity,Negative*
G04*
G01*
G75*
%ADD23O,0.02769X0.07493*%
%ADD24O,0.07493X0.02769*%
%ADD25R,0.04300X0.05800*%
%ADD26R,0.02300X0.09265*%
G04:AMPARAMS|DCode=27|XSize=58mil|YSize=43mil|CornerRadius=0mil|HoleSize=0mil|Usage=FLASHONLY|Rotation=135.000|XOffset=0mil|YOffset=0mil|HoleType=Round|Shape=Rectangle|*
%AMROTATEDRECTD27*
4,1,4,0.03571,-0.00530,0.00530,-0.03571,-0.03571,0.00530,-0.00530,0.03571,0.03571,-0.00530,0.0*
%
%ADD27ROTATEDRECTD27*%

%ADD28C,0.07887*%
%ADD29C,0.05918*%
%ADD30C,0.13398*%
%ADD31C,0.00800*%
%ADD32O,0.05524X0.08674*%
%ADD33C,0.07493*%
%ADD34C,0.08280*%
%ADD35R,0.08280X0.08280*%
%ADD36R,0.07493X0.07493*%
%ADD37R,0.07493X0.07493*%
%ADD38R,0.07887X0.07887*%
%ADD39P,0.10597X4X270.0*%
%ADD40R,0.05524X0.08674*%
%ADD41C,0.05524*%
%ADD42C,0.06706*%
%ADD43R,0.06706X0.06706*%
%ADD44O,0.06706X0.08674*%
%ADD45R,0.06706X0.08674*%
%ADD46C,0.08674*%
D23*
X107931Y156232D02*
D03*
X111081D02*
D03*
X114230D02*
D03*
X117380D02*
D03*
X120530D02*
D03*
X123679D02*
D03*
X126829D02*
D03*
X129978D02*
D03*
X133128D02*
D03*
X136278D02*
D03*
X139427D02*
D03*
Y202295D02*
D03*
X136278D02*
D03*
X133128D02*
D03*
X129978D02*
D03*
X126829D02*
D03*
X123679D02*
D03*
X120530D02*
D03*
X117380D02*
D03*
X114230D02*
D03*
X111081D02*
D03*
X107931D02*
D03*
D24*
X146711Y163516D02*
D03*
Y166665D02*
D03*
Y169815D02*
D03*
Y172965D02*
D03*
Y176114D02*
D03*
Y179264D02*
D03*
Y182413D02*
D03*
Y185563D02*
D03*
Y188713D02*
D03*
Y191862D02*
D03*
Y195012D02*
D03*
X100648D02*
D03*
Y191862D02*
D03*
Y188713D02*
D03*
Y185563D02*
D03*
Y182413D02*
D03*
Y179264D02*
D03*
Y176114D02*
D03*
Y172965D02*
D03*
Y169815D02*
D03*
Y166665D02*
D03*
Y163516D02*
D03*
D25*
X179516Y180922D02*
D03*
X172036D02*
D03*
X179516Y161022D02*
D03*
X172036D02*
D03*
D26*
X150788Y20906D02*
D03*
X140552D02*
D03*
D27*
X98065Y123536D02*
D03*
X92776Y118247D02*
D03*
X91465Y130136D02*
D03*
X86176Y124847D02*
D03*
D28*
X166297Y89992D02*
D03*
X176297D02*
D03*
X69762D02*
D03*
X59762D02*
D03*
X62951Y238614D02*
D03*
X72951D02*
D03*
X82951D02*
D03*
X92951D02*
D03*
X102951D02*
D03*
X112951D02*
D03*
X122951D02*
D03*
X132951D02*
D03*
X142951D02*
D03*
X152951D02*
D03*
X162951D02*
D03*
X172951D02*
D03*
X157108Y216114D02*
D03*
D29*
X164976Y161674D02*
D03*
Y180572D02*
D03*
D30*
X118110Y66929D02*
D03*
X220472Y267717D02*
D03*
X15748D02*
D03*
D31*
X153543Y17008D02*
D03*
X137795D02*
D03*
D32*
X131496Y8465D02*
D03*
X159843D02*
D03*
Y22126D02*
D03*
X131496D02*
D03*
D33*
X118091Y42254D02*
D03*
Y52254D02*
D03*
Y32254D02*
D03*
X5000Y93592D02*
D03*
Y103592D02*
D03*
X5000Y123592D02*
D03*
Y113592D02*
D03*
Y171092D02*
D03*
Y161092D02*
D03*
Y151092D02*
D03*
X15000Y196092D02*
D03*
X5000D02*
D03*
X15000Y206092D02*
D03*
X5000D02*
D03*
X15000Y216092D02*
D03*
X5000D02*
D03*
X231065Y93592D02*
D03*
Y103592D02*
D03*
Y123592D02*
D03*
Y113592D02*
D03*
X221065Y236092D02*
D03*
X231065D02*
D03*
X221065Y226092D02*
D03*
X231065D02*
D03*
X221065Y216092D02*
D03*
X231065D02*
D03*
X221065Y206092D02*
D03*
X231065D02*
D03*
X221065Y196092D02*
D03*
X231065D02*
D03*
X112951Y248614D02*
D03*
X86415Y72079D02*
D03*
D34*
X150512Y55699D02*
D03*
X168228D02*
D03*
Y28927D02*
D03*
X213504Y55699D02*
D03*
X231221D02*
D03*
Y28927D02*
D03*
X182008Y32076D02*
D03*
X199724D02*
D03*
Y5305D02*
D03*
X182008Y79321D02*
D03*
X199724D02*
D03*
Y52549D02*
D03*
X67992Y55639D02*
D03*
X85709D02*
D03*
Y28868D02*
D03*
X36496Y32017D02*
D03*
X54212D02*
D03*
Y5246D02*
D03*
X5000Y55639D02*
D03*
X22716D02*
D03*
Y28868D02*
D03*
D35*
X150512Y28927D02*
D03*
X213504D02*
D03*
X182008Y5305D02*
D03*
Y52549D02*
D03*
X67992Y28868D02*
D03*
X36496Y5246D02*
D03*
X5000Y28868D02*
D03*
D36*
X5000Y83592D02*
D03*
X5000Y133592D02*
D03*
Y181092D02*
D03*
X231065Y83592D02*
D03*
Y133592D02*
D03*
D37*
X25000Y196092D02*
D03*
Y206092D02*
D03*
Y216092D02*
D03*
X211065Y236092D02*
D03*
Y226092D02*
D03*
Y216092D02*
D03*
Y206092D02*
D03*
Y196092D02*
D03*
X122951Y248614D02*
D03*
D38*
X176793Y216114D02*
D03*
D39*
X93486Y79150D02*
D03*
D40*
X74803Y9449D02*
D03*
X106299D02*
D03*
D41*
X98425D02*
D03*
X90551D02*
D03*
X82677D02*
D03*
D42*
X52577Y167020D02*
D03*
Y157020D02*
D03*
X62577Y167020D02*
D03*
Y157020D02*
D03*
X72577Y167020D02*
D03*
Y157020D02*
D03*
X82577Y167020D02*
D03*
D43*
Y157020D02*
D03*
D44*
X87341Y272965D02*
D03*
X48482D02*
D03*
D45*
X97341D02*
D03*
X38482D02*
D03*
D46*
X42242Y242748D02*
D03*
X193817D02*
D03*
X42242Y86055D02*
D03*
X193817D02*
D03*
M02*
