G04*
G04 #@! TF.GenerationSoftware,Altium Limited,Altium Designer,20.2.6 (244)*
G04*
G04 Layer_Color=8388736*
%FSLAX24Y24*%
%MOIN*%
G70*
G04*
G04 #@! TF.SameCoordinates,5BA78797-F0C5-4362-90F7-91A5E935EFA1*
G04*
G04*
G04 #@! TF.FilePolarity,Negative*
G04*
G01*
G75*
%ADD16R,0.0380X0.0380*%
%ADD17R,0.0380X0.0380*%
%ADD18R,0.0277X0.0552*%
%ADD19R,0.0474X0.0257*%
%ADD20R,0.0434X0.0336*%
%ADD21R,0.0434X0.0277*%
%ADD22R,0.0580X0.0430*%
%ADD23O,0.0671X0.0198*%
%ADD24P,0.0411X8X292.5*%
%ADD25R,0.0316X0.0552*%
%ADD26R,0.0237X0.0336*%
%ADD27R,0.0336X0.0592*%
%ADD28C,0.0671*%
%ADD29R,0.0671X0.0671*%
%ADD30R,0.1182X0.0789*%
%ADD31C,0.0749*%
%ADD32R,0.0749X0.0749*%
%ADD33C,0.0336*%
D16*
X1688Y6190D02*
D03*
X2300D02*
D03*
D17*
X3080Y7544D02*
D03*
Y8156D02*
D03*
X4460Y6200D02*
D03*
Y6812D02*
D03*
X3780Y6200D02*
D03*
Y6812D02*
D03*
X840Y1556D02*
D03*
X1510Y924D02*
D03*
Y1536D02*
D03*
X3160Y924D02*
D03*
Y1536D02*
D03*
X3080Y6812D02*
D03*
Y6200D02*
D03*
X6280Y904D02*
D03*
Y1516D02*
D03*
D18*
X1994Y7770D02*
D03*
X2368Y6870D02*
D03*
X1620D02*
D03*
D19*
X3810Y1604D02*
D03*
Y856D02*
D03*
X4703Y1230D02*
D03*
D20*
X5335Y3474D02*
D03*
Y2466D02*
D03*
X5965D02*
D03*
Y3474D02*
D03*
X5335Y5474D02*
D03*
Y4466D02*
D03*
X5965D02*
D03*
Y5474D02*
D03*
D21*
X5335Y3127D02*
D03*
Y2813D02*
D03*
X5965D02*
D03*
Y3127D02*
D03*
X5335Y5127D02*
D03*
Y4813D02*
D03*
X5965D02*
D03*
Y5127D02*
D03*
D22*
X5460Y856D02*
D03*
Y1604D02*
D03*
X2360Y1604D02*
D03*
Y856D02*
D03*
D23*
X1260Y5122D02*
D03*
Y4866D02*
D03*
Y4610D02*
D03*
Y4354D02*
D03*
Y4098D02*
D03*
Y3842D02*
D03*
Y3586D02*
D03*
Y3330D02*
D03*
Y3074D02*
D03*
Y2818D02*
D03*
X3780Y5122D02*
D03*
Y4866D02*
D03*
Y4610D02*
D03*
Y4354D02*
D03*
Y4098D02*
D03*
Y3842D02*
D03*
Y3586D02*
D03*
Y3330D02*
D03*
Y3074D02*
D03*
Y2818D02*
D03*
D24*
X840Y944D02*
D03*
D25*
X5279Y7622D02*
D03*
X3941D02*
D03*
D26*
X5319Y8518D02*
D03*
X3901D02*
D03*
D27*
X5525Y8390D02*
D03*
X3695D02*
D03*
D28*
X750Y6020D02*
D03*
Y7020D02*
D03*
D29*
Y8020D02*
D03*
D30*
X5640Y6700D02*
D03*
D31*
X7500Y2900D02*
D03*
Y3900D02*
D03*
Y4900D02*
D03*
Y5900D02*
D03*
Y6900D02*
D03*
Y1900D02*
D03*
Y900D02*
D03*
X8500Y2900D02*
D03*
Y3900D02*
D03*
Y4900D02*
D03*
Y5900D02*
D03*
Y6900D02*
D03*
Y1900D02*
D03*
Y900D02*
D03*
X9500Y2900D02*
D03*
Y3900D02*
D03*
Y4900D02*
D03*
Y5900D02*
D03*
Y6900D02*
D03*
Y1900D02*
D03*
Y900D02*
D03*
D32*
X7500Y7900D02*
D03*
X8500D02*
D03*
X9500D02*
D03*
D33*
X4945Y8173D02*
D03*
X4275D02*
D03*
M02*
