G04*
G04 #@! TF.GenerationSoftware,Altium Limited,Altium Designer,20.2.6 (244)*
G04*
G04 Layer_Physical_Order=1*
G04 Layer_Color=255*
%FSLAX24Y24*%
%MOIN*%
G70*
G04*
G04 #@! TF.SameCoordinates,5BA78797-F0C5-4362-90F7-91A5E935EFA1*
G04*
G04*
G04 #@! TF.FilePolarity,Positive*
G04*
G01*
G75*
%ADD12C,0.0100*%
%ADD34R,0.0300X0.0300*%
%ADD35R,0.0300X0.0300*%
%ADD36R,0.0197X0.0472*%
%ADD37R,0.0394X0.0177*%
%ADD38R,0.0354X0.0256*%
%ADD39R,0.0354X0.0197*%
%ADD40R,0.0500X0.0350*%
%ADD41O,0.0591X0.0118*%
%ADD42P,0.0325X8X292.5*%
%ADD43R,0.0236X0.0472*%
%ADD44R,0.0157X0.0256*%
%ADD45R,0.0256X0.0512*%
%ADD46C,0.0591*%
%ADD47R,0.0591X0.0591*%
%ADD48R,0.1102X0.0709*%
%ADD49C,0.0130*%
%ADD50C,0.0157*%
%ADD51C,0.0472*%
%ADD52C,0.0118*%
%ADD53C,0.0197*%
%ADD54C,0.0591*%
%ADD55C,0.0669*%
%ADD56R,0.0669X0.0669*%
%ADD57C,0.0256*%
%ADD58C,0.0236*%
%ADD59C,0.0315*%
G36*
X6886Y8286D02*
X6886Y8286D01*
X6939Y8252D01*
X7000Y8239D01*
X7047D01*
Y7739D01*
X7046Y7734D01*
X7047Y7728D01*
Y7707D01*
X7022Y7678D01*
X6562Y7218D01*
X6523Y7159D01*
X6509Y7090D01*
Y6274D01*
X5980Y5745D01*
X5971Y5737D01*
X5957Y5726D01*
X5949Y5720D01*
X5670D01*
Y5720D01*
X5630D01*
Y5720D01*
X5040D01*
Y5641D01*
X4998Y5632D01*
X4943Y5595D01*
X4242Y4894D01*
X4188Y4911D01*
X4183Y4935D01*
X4144Y4993D01*
Y4994D01*
X4183Y5052D01*
X4197Y5122D01*
X4183Y5191D01*
X4144Y5249D01*
X4085Y5288D01*
X4016Y5302D01*
X3960D01*
Y5932D01*
X4048D01*
Y5968D01*
X4070Y5969D01*
X4178D01*
X4192Y5969D01*
Y5932D01*
X4305D01*
X4311Y5931D01*
X4317Y5932D01*
X4728D01*
Y6468D01*
X4317D01*
X4311Y6469D01*
X4305Y6468D01*
X4192D01*
Y6413D01*
X4164Y6411D01*
X4071D01*
X4063Y6411D01*
X4048Y6413D01*
Y6468D01*
X3934D01*
X3929Y6469D01*
X3923Y6468D01*
X3637D01*
X3631Y6469D01*
X3625Y6468D01*
X3512D01*
Y6423D01*
X3483Y6421D01*
X3370D01*
X3348Y6422D01*
Y6468D01*
X3234D01*
X3229Y6469D01*
X3223Y6468D01*
X2812D01*
Y5932D01*
X3223D01*
X3229Y5931D01*
X3234Y5932D01*
X3348D01*
Y5977D01*
X3377Y5979D01*
X3490D01*
X3512Y5978D01*
Y5932D01*
X3599D01*
Y5302D01*
X3544D01*
X3474Y5288D01*
X3416Y5249D01*
X3377Y5191D01*
X3363Y5122D01*
X3366Y5107D01*
X3320Y5083D01*
X2811Y5591D01*
X2756Y5628D01*
X2690Y5641D01*
X988D01*
X971Y5691D01*
X1032Y5738D01*
X1095Y5821D01*
X1135Y5917D01*
X1141Y5961D01*
X750D01*
Y6020D01*
X691D01*
Y6411D01*
X647Y6405D01*
X551Y6365D01*
X501Y6327D01*
X451Y6352D01*
Y6437D01*
X601Y6587D01*
X607Y6592D01*
X619Y6601D01*
X629Y6607D01*
X638Y6611D01*
X645Y6613D01*
X649Y6614D01*
X653Y6615D01*
X655Y6615D01*
X666Y6613D01*
X672Y6613D01*
X684Y6612D01*
X685Y6612D01*
X685Y6612D01*
X750Y6603D01*
X858Y6617D01*
X958Y6659D01*
X1045Y6725D01*
X1111Y6812D01*
X1153Y6912D01*
X1167Y7020D01*
X1157Y7099D01*
X1194Y7149D01*
X1403D01*
Y6641D01*
X1402Y6635D01*
X1403Y6629D01*
Y6516D01*
X1439D01*
Y6458D01*
X1420D01*
Y6353D01*
X1419Y6352D01*
X1420Y6348D01*
Y6344D01*
X1418Y6339D01*
X1420Y6333D01*
Y5922D01*
X1956D01*
Y6458D01*
X1800D01*
Y6516D01*
X1836D01*
Y6629D01*
X1837Y6635D01*
X1836Y6641D01*
Y7149D01*
X2169D01*
Y6929D01*
X2368D01*
X2566D01*
Y7149D01*
X2856D01*
X2921Y7162D01*
X2977Y7199D01*
X3034Y7256D01*
X3049Y7270D01*
X3057Y7276D01*
X3067D01*
X3073Y7275D01*
X3078Y7276D01*
X3348D01*
Y7812D01*
X2812D01*
Y7542D01*
X2811Y7537D01*
X2812Y7531D01*
Y7521D01*
X2795Y7502D01*
X2785Y7491D01*
X2210D01*
Y7749D01*
X2500D01*
X2569Y7763D01*
X2628Y7802D01*
X2762Y7936D01*
X2812Y7916D01*
Y7888D01*
X3348D01*
Y8424D01*
X2812D01*
Y8337D01*
X2726D01*
X2657Y8323D01*
X2598Y8284D01*
X2425Y8111D01*
X2210D01*
Y8124D01*
X2098D01*
X2093Y8125D01*
X2093Y8125D01*
X2092Y8125D01*
X2086Y8124D01*
X1902D01*
X1896Y8125D01*
X1891Y8124D01*
X1886Y8125D01*
X1884Y8124D01*
X1777D01*
Y8101D01*
X1168D01*
X1163Y8101D01*
Y8433D01*
X337D01*
Y7607D01*
X1163D01*
Y7699D01*
X1168Y7699D01*
X1772D01*
X1777Y7699D01*
Y7491D01*
X1050D01*
X984Y7478D01*
X929Y7441D01*
X895Y7407D01*
X858Y7423D01*
X750Y7437D01*
X642Y7423D01*
X542Y7381D01*
X455Y7315D01*
X389Y7228D01*
X347Y7128D01*
X333Y7020D01*
X342Y6955D01*
X342Y6955D01*
X342Y6954D01*
X343Y6942D01*
X343Y6936D01*
X345Y6925D01*
X345Y6923D01*
X344Y6919D01*
X343Y6915D01*
X341Y6908D01*
X337Y6899D01*
X331Y6889D01*
X322Y6877D01*
X317Y6871D01*
X207Y6761D01*
X161Y6780D01*
Y8333D01*
X467Y8639D01*
X3467D01*
Y8449D01*
X3695D01*
Y8390D01*
X3754D01*
Y8034D01*
X3923D01*
Y8290D01*
X4002D01*
X4038Y8240D01*
X4024Y8173D01*
X4044Y8077D01*
X4078Y8026D01*
X4051Y7976D01*
X3704D01*
Y7645D01*
X3700Y7622D01*
X3704Y7599D01*
Y7268D01*
X4177D01*
Y7599D01*
X4182Y7622D01*
X4177Y7645D01*
Y7891D01*
X4227Y7932D01*
X4275Y7922D01*
X4371Y7942D01*
X4453Y7996D01*
X4507Y8077D01*
X4526Y8173D01*
X4507Y8269D01*
X4453Y8351D01*
X4371Y8405D01*
X4275Y8424D01*
X4179Y8405D01*
X4130Y8372D01*
X4080Y8399D01*
Y8459D01*
X3901D01*
Y8577D01*
X4080D01*
Y8639D01*
X5140D01*
Y8577D01*
X5319D01*
Y8459D01*
X5140D01*
Y8399D01*
X5090Y8372D01*
X5041Y8405D01*
X4945Y8424D01*
X4849Y8405D01*
X4767Y8351D01*
X4713Y8269D01*
X4694Y8173D01*
X4713Y8077D01*
X4767Y7996D01*
X4849Y7942D01*
X4945Y7922D01*
X4993Y7932D01*
X5043Y7891D01*
Y7520D01*
X5039Y7500D01*
X5043Y7480D01*
Y7268D01*
X5236D01*
X5280Y7259D01*
X5324Y7268D01*
X5516D01*
Y7473D01*
X5521Y7500D01*
X5516Y7527D01*
Y7976D01*
X5169D01*
X5142Y8026D01*
X5176Y8077D01*
X5196Y8173D01*
X5182Y8240D01*
X5218Y8290D01*
X5297D01*
Y8034D01*
X5466D01*
Y8390D01*
X5525D01*
Y8449D01*
X5753D01*
Y8639D01*
X6533D01*
X6886Y8286D01*
D02*
G37*
G36*
X2931Y8038D02*
X2930Y8049D01*
X2926Y8059D01*
X2921Y8068D01*
X2912Y8076D01*
X2902Y8082D01*
X2889Y8087D01*
X2873Y8092D01*
X2856Y8094D01*
X2836Y8096D01*
X2813Y8097D01*
Y8215D01*
X2836Y8216D01*
X2856Y8217D01*
X2873Y8220D01*
X2889Y8224D01*
X2902Y8230D01*
X2912Y8236D01*
X2921Y8244D01*
X2926Y8253D01*
X2930Y8263D01*
X2931Y8274D01*
Y8038D01*
D02*
G37*
G36*
X2092Y8002D02*
X2096Y7999D01*
X2101Y7997D01*
X2110Y7995D01*
X2120Y7993D01*
X2133Y7992D01*
X2187Y7989D01*
X2209Y7989D01*
Y7871D01*
X2186Y7870D01*
X2166Y7869D01*
X2148Y7866D01*
X2133Y7861D01*
X2120Y7856D01*
X2109Y7850D01*
X2101Y7842D01*
X2095Y7833D01*
X2091Y7823D01*
X2090Y7812D01*
X2091Y8005D01*
X2092Y8002D01*
D02*
G37*
G36*
X2056Y7851D02*
X2055Y7848D01*
X2055Y7843D01*
X2054Y7829D01*
X2053Y7770D01*
X1935D01*
X1931Y7853D01*
X2057D01*
X2056Y7851D01*
D02*
G37*
G36*
X1898Y7743D02*
X1896Y7757D01*
X1891Y7771D01*
X1883Y7783D01*
X1872Y7793D01*
X1858Y7802D01*
X1840Y7809D01*
X1820Y7814D01*
X1796Y7818D01*
X1769Y7820D01*
X1739Y7821D01*
Y7979D01*
X1769Y7979D01*
X1857Y7985D01*
X1871Y7988D01*
X1882Y7992D01*
X1890Y7996D01*
X1895Y8000D01*
X1896Y8005D01*
X1898Y7743D01*
D02*
G37*
G36*
X1044Y8043D02*
X1049Y8029D01*
X1057Y8017D01*
X1068Y8007D01*
X1083Y7998D01*
X1100Y7991D01*
X1121Y7986D01*
X1144Y7982D01*
X1171Y7980D01*
X1202Y7979D01*
Y7821D01*
X1171Y7820D01*
X1144Y7818D01*
X1121Y7814D01*
X1100Y7809D01*
X1083Y7802D01*
X1068Y7793D01*
X1057Y7783D01*
X1049Y7771D01*
X1044Y7757D01*
X1043Y7743D01*
Y8057D01*
X1044Y8043D01*
D02*
G37*
G36*
X7334Y7567D02*
X7324Y7573D01*
X7314Y7577D01*
X7301D01*
X7287Y7573D01*
X7271Y7567D01*
X7253Y7557D01*
X7234Y7543D01*
X7213Y7526D01*
X7167Y7483D01*
X7083Y7567D01*
X7106Y7591D01*
X7143Y7634D01*
X7157Y7653D01*
X7167Y7671D01*
X7173Y7687D01*
X7177Y7701D01*
Y7714D01*
X7173Y7724D01*
X7167Y7734D01*
X7334Y7567D01*
D02*
G37*
G36*
X3073Y7395D02*
X3065Y7401D01*
X3056Y7404D01*
X3045D01*
X3033Y7401D01*
X3020Y7395D01*
X3005Y7387D01*
X2988Y7375D01*
X2971Y7361D01*
X2931Y7325D01*
X2860Y7395D01*
X2880Y7416D01*
X2911Y7453D01*
X2923Y7469D01*
X2931Y7484D01*
X2937Y7497D01*
X2940Y7509D01*
Y7520D01*
X2937Y7529D01*
X2931Y7537D01*
X3073Y7395D01*
D02*
G37*
G36*
X1062Y7261D02*
X1049Y7248D01*
X1039Y7235D01*
X1030Y7222D01*
X1022Y7210D01*
X1017Y7199D01*
X1013Y7187D01*
X1012Y7176D01*
X1012Y7166D01*
X1014Y7156D01*
X1017Y7146D01*
X876Y7287D01*
X886Y7284D01*
X896Y7282D01*
X906Y7282D01*
X917Y7283D01*
X929Y7287D01*
X940Y7292D01*
X952Y7300D01*
X965Y7309D01*
X978Y7319D01*
X991Y7332D01*
X1062Y7261D01*
D02*
G37*
G36*
X940Y7139D02*
X829Y7020D01*
X750Y7099D01*
X753Y7100D01*
X757Y7103D01*
X764Y7109D01*
X797Y7139D01*
X869Y7210D01*
X940Y7139D01*
D02*
G37*
G36*
X9826Y7561D02*
X9820Y7543D01*
X9814Y7513D01*
X9809Y7472D01*
X9801Y7354D01*
X9795Y6976D01*
X9205D01*
X9204Y7088D01*
X9174Y7561D01*
X9167Y7567D01*
X9833D01*
X9826Y7561D01*
D02*
G37*
G36*
X8826D02*
X8820Y7543D01*
X8814Y7513D01*
X8809Y7472D01*
X8801Y7354D01*
X8795Y6976D01*
X8205D01*
X8204Y7088D01*
X8174Y7561D01*
X8167Y7567D01*
X8833D01*
X8826Y7561D01*
D02*
G37*
G36*
X685Y6732D02*
X666Y6735D01*
X648Y6735D01*
X629Y6733D01*
X611Y6729D01*
X591Y6722D01*
X572Y6713D01*
X553Y6701D01*
X533Y6687D01*
X513Y6671D01*
X493Y6652D01*
X382Y6763D01*
X401Y6783D01*
X417Y6803D01*
X431Y6823D01*
X443Y6842D01*
X452Y6861D01*
X459Y6880D01*
X463Y6899D01*
X465Y6918D01*
X465Y6936D01*
X462Y6955D01*
X685Y6732D01*
D02*
G37*
G36*
X7435Y6572D02*
X7402Y6575D01*
X7368Y6574D01*
X7332Y6566D01*
X7294Y6554D01*
X7255Y6536D01*
X7214Y6512D01*
X7172Y6484D01*
X7128Y6449D01*
X7082Y6410D01*
X7035Y6365D01*
X6965Y6435D01*
X7010Y6482D01*
X7084Y6572D01*
X7112Y6614D01*
X7136Y6655D01*
X7154Y6694D01*
X7166Y6732D01*
X7174Y6768D01*
X7175Y6802D01*
X7172Y6835D01*
X7435Y6572D01*
D02*
G37*
G36*
X1710Y6634D02*
X1703Y6630D01*
X1697Y6624D01*
X1692Y6616D01*
X1688Y6605D01*
X1685Y6592D01*
X1682Y6577D01*
X1680Y6559D01*
X1679Y6517D01*
X1561D01*
X1560Y6539D01*
X1557Y6577D01*
X1554Y6592D01*
X1551Y6605D01*
X1547Y6616D01*
X1542Y6624D01*
X1536Y6630D01*
X1530Y6634D01*
X1522Y6635D01*
X1717D01*
X1710Y6634D01*
D02*
G37*
G36*
X1679Y6434D02*
X1681Y6414D01*
X1684Y6397D01*
X1688Y6381D01*
X1693Y6368D01*
X1700Y6358D01*
X1708Y6349D01*
X1716Y6344D01*
X1726Y6340D01*
X1738Y6339D01*
X1539D01*
X1543Y6340D01*
X1547Y6344D01*
X1550Y6349D01*
X1553Y6358D01*
X1555Y6368D01*
X1557Y6381D01*
X1560Y6414D01*
X1561Y6457D01*
X1679D01*
X1679Y6434D01*
D02*
G37*
G36*
X4311Y6051D02*
X4309Y6059D01*
X4303Y6066D01*
X4293Y6072D01*
X4280Y6077D01*
X4262Y6081D01*
X4240Y6085D01*
X4215Y6088D01*
X4152Y6091D01*
X4120Y6092D01*
X4088Y6091D01*
X4000Y6085D01*
X3978Y6081D01*
X3960Y6077D01*
X3946Y6072D01*
X3937Y6066D01*
X3931Y6059D01*
X3929Y6051D01*
Y6349D01*
X3931Y6337D01*
X3937Y6327D01*
X3946Y6318D01*
X3960Y6310D01*
X3978Y6304D01*
X4000Y6298D01*
X4025Y6294D01*
X4055Y6291D01*
X4122Y6289D01*
X4152Y6289D01*
X4215Y6294D01*
X4240Y6298D01*
X4262Y6304D01*
X4280Y6310D01*
X4293Y6318D01*
X4303Y6327D01*
X4309Y6337D01*
X4311Y6349D01*
Y6051D01*
D02*
G37*
G36*
X3631D02*
X3629Y6061D01*
X3623Y6069D01*
X3613Y6077D01*
X3600Y6083D01*
X3582Y6089D01*
X3560Y6094D01*
X3535Y6097D01*
X3472Y6101D01*
X3434Y6102D01*
Y6298D01*
X3472Y6299D01*
X3560Y6306D01*
X3582Y6311D01*
X3600Y6317D01*
X3613Y6323D01*
X3623Y6331D01*
X3629Y6339D01*
X3631Y6349D01*
Y6051D01*
D02*
G37*
G36*
X3231Y6339D02*
X3237Y6331D01*
X3246Y6323D01*
X3260Y6317D01*
X3278Y6311D01*
X3300Y6306D01*
X3325Y6303D01*
X3388Y6299D01*
X3425Y6298D01*
Y6102D01*
X3388Y6101D01*
X3300Y6094D01*
X3278Y6089D01*
X3260Y6083D01*
X3246Y6077D01*
X3237Y6069D01*
X3231Y6061D01*
X3229Y6051D01*
Y6349D01*
X3231Y6339D01*
D02*
G37*
G36*
X3847Y6126D02*
X3846Y6120D01*
X3849D01*
X3847Y6116D01*
X3846Y6109D01*
X3844Y6097D01*
X3842Y6064D01*
X3841Y6052D01*
X3898D01*
X3887Y6051D01*
X3877Y6048D01*
X3868Y6042D01*
X3860Y6033D01*
X3854Y6023D01*
X3848Y6009D01*
X3844Y5994D01*
X3841Y5976D01*
X3840Y5958D01*
X3839Y5914D01*
X3721D01*
X3717Y5983D01*
X3715Y5994D01*
X3711Y6009D01*
X3706Y6023D01*
X3700Y6033D01*
X3692Y6042D01*
X3683Y6048D01*
X3673Y6051D01*
X3662Y6052D01*
X3714D01*
X3710Y6120D01*
X3711D01*
X3710Y6130D01*
X3849D01*
X3847Y6126D01*
D02*
G37*
G36*
X6224Y5650D02*
X6199Y5623D01*
X6159Y5577D01*
X6145Y5557D01*
X6134Y5539D01*
X6128Y5523D01*
X6125Y5510D01*
X6126Y5499D01*
X6131Y5490D01*
X6140Y5483D01*
X5925Y5599D01*
X5936Y5595D01*
X5948Y5594D01*
X5962Y5595D01*
X5977Y5599D01*
X5993Y5606D01*
X6010Y5616D01*
X6029Y5629D01*
X6049Y5644D01*
X6070Y5663D01*
X6092Y5684D01*
X6224Y5650D01*
D02*
G37*
G36*
X5160Y5379D02*
X5159Y5387D01*
X5156Y5395D01*
X5152Y5402D01*
X5145Y5408D01*
X5136Y5413D01*
X5126Y5417D01*
X5113Y5420D01*
X5099Y5422D01*
X5082Y5423D01*
X5064Y5424D01*
Y5524D01*
X5082Y5524D01*
X5099Y5526D01*
X5113Y5528D01*
X5126Y5531D01*
X5136Y5535D01*
X5145Y5540D01*
X5152Y5546D01*
X5156Y5553D01*
X5159Y5561D01*
X5160Y5569D01*
Y5379D01*
D02*
G37*
G36*
X3839Y5276D02*
X3841Y5256D01*
X3844Y5238D01*
X3848Y5222D01*
X3854Y5209D01*
X3860Y5198D01*
X3868Y5190D01*
X3877Y5184D01*
X3887Y5181D01*
X3898Y5179D01*
X3662D01*
X3673Y5181D01*
X3683Y5184D01*
X3692Y5190D01*
X3700Y5198D01*
X3706Y5209D01*
X3711Y5222D01*
X3715Y5238D01*
X3718Y5256D01*
X3720Y5276D01*
X3721Y5299D01*
X3839D01*
X3839Y5276D01*
D02*
G37*
G36*
X7500Y5565D02*
X7446Y5561D01*
X7389Y5549D01*
X7329Y5529D01*
X7266Y5500D01*
X7200Y5463D01*
X7131Y5418D01*
X7060Y5365D01*
X6908Y5235D01*
X6828Y5157D01*
X6757Y5228D01*
X6835Y5308D01*
X6965Y5460D01*
X7018Y5531D01*
X7063Y5600D01*
X7100Y5666D01*
X7129Y5729D01*
X7149Y5789D01*
X7161Y5846D01*
X7165Y5900D01*
X7500Y5565D01*
D02*
G37*
G36*
X1521Y5175D02*
X1525Y5174D01*
X1531Y5174D01*
X1561Y5172D01*
X1626Y5172D01*
Y5072D01*
X1519Y5067D01*
Y5176D01*
X1521Y5175D01*
D02*
G37*
G36*
X2127Y5038D02*
X2118Y5044D01*
X2106Y5049D01*
X2090Y5054D01*
X2070Y5058D01*
X2046Y5062D01*
X1986Y5067D01*
X1868Y5070D01*
X1866Y5170D01*
X1909Y5170D01*
X2044Y5179D01*
X2068Y5183D01*
X2088Y5187D01*
X2105Y5192D01*
X2117Y5198D01*
X2126Y5205D01*
X2127Y5038D01*
D02*
G37*
G36*
X6142Y5216D02*
X6145Y5208D01*
X6150Y5201D01*
X6157Y5194D01*
X6166Y5189D01*
X6177Y5185D01*
X6190Y5182D01*
X6205Y5179D01*
X6222Y5178D01*
X6241Y5177D01*
Y5077D01*
X6222Y5077D01*
X6205Y5076D01*
X6190Y5073D01*
X6177Y5070D01*
X6166Y5066D01*
X6157Y5060D01*
X6150Y5054D01*
X6145Y5047D01*
X6142Y5039D01*
X6141Y5030D01*
Y5225D01*
X6142Y5216D01*
D02*
G37*
G36*
X3521Y4811D02*
X3519Y4812D01*
X3515Y4813D01*
X3509Y4813D01*
X3479Y4815D01*
X3414Y4816D01*
Y4916D01*
X3521Y4920D01*
Y4811D01*
D02*
G37*
G36*
X1521Y4919D02*
X1525Y4919D01*
X1531Y4918D01*
X1561Y4916D01*
X1626Y4916D01*
Y4816D01*
X1519Y4811D01*
Y4920D01*
X1521Y4919D01*
D02*
G37*
G36*
X7191Y4772D02*
X7183Y4785D01*
X7170Y4797D01*
X7154Y4807D01*
X7132Y4816D01*
X7106Y4824D01*
X7076Y4830D01*
X7041Y4835D01*
X6958Y4840D01*
X6910Y4841D01*
Y4959D01*
X6958Y4960D01*
X7076Y4970D01*
X7106Y4976D01*
X7132Y4984D01*
X7154Y4993D01*
X7170Y5003D01*
X7183Y5015D01*
X7191Y5028D01*
Y4772D01*
D02*
G37*
G36*
X5160Y4739D02*
X5160Y4743D01*
X5157Y4747D01*
X5154Y4751D01*
X5148Y4754D01*
X5142Y4757D01*
X5133Y4759D01*
X5124Y4760D01*
X5112Y4762D01*
X5085Y4763D01*
Y4863D01*
X5100Y4863D01*
X5124Y4865D01*
X5133Y4866D01*
X5142Y4868D01*
X5148Y4871D01*
X5154Y4874D01*
X5157Y4878D01*
X5160Y4882D01*
X5160Y4886D01*
Y4739D01*
D02*
G37*
G36*
X6142Y4901D02*
X6145Y4893D01*
X6150Y4886D01*
X6157Y4880D01*
X6166Y4874D01*
X6177Y4870D01*
X6190Y4867D01*
X6205Y4864D01*
X6222Y4863D01*
X6241Y4863D01*
Y4763D01*
X6222Y4762D01*
X6205Y4761D01*
X6190Y4758D01*
X6177Y4755D01*
X6166Y4751D01*
X6157Y4746D01*
X6150Y4739D01*
X6145Y4732D01*
X6142Y4724D01*
X6141Y4715D01*
Y4910D01*
X6142Y4901D01*
D02*
G37*
G36*
X4041Y4663D02*
X4045Y4663D01*
X4051Y4662D01*
X4080Y4660D01*
X4145Y4660D01*
Y4560D01*
X4039Y4555D01*
Y4664D01*
X4041Y4663D01*
D02*
G37*
G36*
X1521D02*
X1525Y4663D01*
X1531Y4662D01*
X1561Y4660D01*
X1626Y4660D01*
Y4560D01*
X1519Y4555D01*
Y4664D01*
X1521Y4663D01*
D02*
G37*
G36*
X600Y4654D02*
X612Y4495D01*
X616Y4475D01*
X621Y4458D01*
X627Y4446D01*
X634Y4437D01*
X466D01*
X473Y4446D01*
X479Y4458D01*
X484Y4475D01*
X488Y4495D01*
X492Y4519D01*
X497Y4579D01*
X500Y4654D01*
X500Y4697D01*
X600D01*
X600Y4654D01*
D02*
G37*
G36*
X6142Y4573D02*
X6146Y4563D01*
X6152Y4554D01*
X6160Y4546D01*
X6170Y4540D01*
X6183Y4535D01*
X6199Y4530D01*
X6217Y4527D01*
X6237Y4526D01*
X6259Y4525D01*
Y4407D01*
X6237Y4406D01*
X6217Y4405D01*
X6199Y4402D01*
X6183Y4398D01*
X6170Y4392D01*
X6160Y4386D01*
X6152Y4378D01*
X6146Y4369D01*
X6142Y4359D01*
X6141Y4348D01*
Y4584D01*
X6142Y4573D01*
D02*
G37*
G36*
X5350Y4341D02*
X5340Y4344D01*
X5329Y4345D01*
X5317Y4344D01*
X5305Y4340D01*
X5291Y4334D01*
X5276Y4325D01*
X5261Y4315D01*
X5244Y4302D01*
X5227Y4286D01*
X5208Y4269D01*
X5088Y4290D01*
X5110Y4313D01*
X5145Y4353D01*
X5157Y4370D01*
X5166Y4385D01*
X5171Y4398D01*
X5174Y4409D01*
X5172Y4419D01*
X5168Y4426D01*
X5160Y4432D01*
X5350Y4341D01*
D02*
G37*
G36*
X4041Y4408D02*
X4045Y4407D01*
X4051Y4406D01*
X4080Y4405D01*
X4145Y4404D01*
Y4304D01*
X4039Y4299D01*
Y4408D01*
X4041Y4408D01*
D02*
G37*
G36*
X7029Y4715D02*
X7056Y4711D01*
X7077Y4707D01*
X7092Y4703D01*
X7105Y4672D01*
X7177Y4577D01*
X7272Y4505D01*
X7382Y4459D01*
X7500Y4443D01*
Y4357D01*
X7382Y4341D01*
X7272Y4295D01*
X7177Y4223D01*
X7105Y4128D01*
X7087Y4085D01*
X7086Y4085D01*
X7016Y4081D01*
X6970D01*
X6901Y4067D01*
X6842Y4028D01*
X6469Y3655D01*
X6260D01*
Y3720D01*
X5670D01*
Y3720D01*
X5630D01*
Y3720D01*
X5040D01*
Y3645D01*
X5039Y3645D01*
X4822D01*
X4803Y3692D01*
X5315Y4204D01*
X5321Y4209D01*
X5332Y4218D01*
X5335Y4220D01*
X5630D01*
Y4220D01*
X5670D01*
Y4220D01*
X6260D01*
Y4285D01*
X6476D01*
X6545Y4299D01*
X6604Y4338D01*
X6983Y4718D01*
X7029Y4715D01*
D02*
G37*
G36*
X1521Y4408D02*
X1526Y4407D01*
X1532Y4406D01*
X1564Y4405D01*
X1634Y4404D01*
Y4327D01*
X1683Y4376D01*
X1714Y4346D01*
X1834Y4242D01*
X1851Y4230D01*
X1867Y4222D01*
X1879Y4218D01*
X1890Y4216D01*
X1772Y4098D01*
X1770Y4108D01*
X1765Y4121D01*
X1757Y4137D01*
X1746Y4154D01*
X1732Y4173D01*
X1694Y4219D01*
X1642Y4274D01*
X1614Y4303D01*
X1519Y4299D01*
Y4408D01*
X1521Y4408D01*
D02*
G37*
G36*
X3521Y4043D02*
X3519Y4044D01*
X3515Y4045D01*
X3509Y4046D01*
X3479Y4047D01*
X3414Y4048D01*
Y4148D01*
X3521Y4152D01*
Y4043D01*
D02*
G37*
G36*
X2260Y4170D02*
X2272Y4011D01*
X2276Y3991D01*
X2281Y3975D01*
X2287Y3962D01*
X2294Y3953D01*
X2126D01*
X2133Y3962D01*
X2139Y3975D01*
X2144Y3991D01*
X2148Y4011D01*
X2152Y4035D01*
X2157Y4095D01*
X2160Y4170D01*
X2160Y4213D01*
X2260D01*
X2260Y4170D01*
D02*
G37*
G36*
X7180Y3802D02*
X7176Y3810D01*
X7168Y3816D01*
X7156Y3822D01*
X7141Y3827D01*
X7122Y3831D01*
X7099Y3835D01*
X7042Y3839D01*
X6970Y3841D01*
Y3959D01*
X7008Y3959D01*
X7099Y3965D01*
X7122Y3969D01*
X7141Y3973D01*
X7156Y3978D01*
X7168Y3984D01*
X7176Y3990D01*
X7180Y3998D01*
Y3802D01*
D02*
G37*
G36*
X3521Y3788D02*
X3519Y3788D01*
X3515Y3789D01*
X3509Y3790D01*
X3479Y3791D01*
X3414Y3792D01*
Y3892D01*
X3521Y3897D01*
Y3788D01*
D02*
G37*
G36*
X4041Y3640D02*
X4045Y3639D01*
X4051Y3638D01*
X4080Y3637D01*
X4145Y3636D01*
Y3536D01*
X4039Y3532D01*
Y3641D01*
X4041Y3640D01*
D02*
G37*
G36*
X2187Y3526D02*
X2094Y3433D01*
X2093Y3436D01*
X2091Y3440D01*
X2086Y3446D01*
X2069Y3465D01*
X1992Y3544D01*
X2076Y3628D01*
X2187Y3526D01*
D02*
G37*
G36*
X5160Y3534D02*
X5194Y3536D01*
X5214Y3540D01*
X5230Y3545D01*
X5243Y3551D01*
X5252Y3558D01*
Y3390D01*
X5243Y3397D01*
X5230Y3402D01*
X5214Y3407D01*
X5194Y3412D01*
X5170Y3416D01*
X5160Y3416D01*
Y3374D01*
X5159Y3383D01*
X5156Y3392D01*
X5151Y3399D01*
X5144Y3406D01*
X5135Y3411D01*
X5124Y3416D01*
X5111Y3419D01*
X5099Y3421D01*
X5035Y3424D01*
X4992Y3424D01*
Y3524D01*
X5035Y3524D01*
X5118Y3530D01*
X5124Y3532D01*
X5135Y3536D01*
X5144Y3542D01*
X5151Y3548D01*
X5156Y3556D01*
X5159Y3564D01*
X5160Y3574D01*
Y3534D01*
D02*
G37*
G36*
X6142Y3581D02*
X6146Y3571D01*
X6152Y3562D01*
X6160Y3554D01*
X6170Y3548D01*
X6183Y3542D01*
X6199Y3538D01*
X6217Y3535D01*
X6237Y3534D01*
X6259Y3533D01*
Y3415D01*
X6237Y3414D01*
X6217Y3413D01*
X6199Y3410D01*
X6183Y3405D01*
X6170Y3400D01*
X6160Y3394D01*
X6152Y3386D01*
X6146Y3377D01*
X6142Y3367D01*
X6141Y3356D01*
Y3592D01*
X6142Y3581D01*
D02*
G37*
G36*
X642Y3348D02*
X617Y3302D01*
X550Y3315D01*
X458Y3297D01*
X380Y3245D01*
X327Y3167D01*
X309Y3074D01*
X327Y2982D01*
X367Y2923D01*
X367Y2923D01*
X368Y2916D01*
X379Y2779D01*
Y1846D01*
X392Y1780D01*
X429Y1725D01*
X552Y1602D01*
X566Y1586D01*
X572Y1579D01*
Y1569D01*
X571Y1563D01*
X572Y1558D01*
Y1288D01*
X1108D01*
Y1824D01*
X838D01*
X833Y1825D01*
X827Y1824D01*
X817D01*
X798Y1841D01*
X721Y1917D01*
Y2790D01*
X723Y2842D01*
X728Y2895D01*
X731Y2911D01*
X733Y2923D01*
X733Y2923D01*
X773Y2982D01*
X791Y3074D01*
X779Y3133D01*
X821Y3167D01*
X852Y3155D01*
X857Y3143D01*
X843Y3074D01*
X857Y3005D01*
X896Y2947D01*
X884Y2895D01*
X874Y2880D01*
X874Y2877D01*
X1260D01*
Y2818D01*
X1319D01*
Y2656D01*
X1496D01*
X1558Y2669D01*
X1611Y2704D01*
X1646Y2756D01*
X1657Y2810D01*
X1683Y2824D01*
X1707Y2830D01*
X2612Y1925D01*
X2593Y1879D01*
X2419D01*
Y1604D01*
Y1329D01*
X2710D01*
Y1413D01*
X2713Y1417D01*
X2714Y1417D01*
X2905D01*
X2905Y1417D01*
X2910Y1411D01*
Y1286D01*
X3101D01*
Y1536D01*
X3219D01*
Y1286D01*
X3410D01*
Y1412D01*
X3413Y1416D01*
X3413Y1417D01*
X3513D01*
Y1415D01*
X3552D01*
X3558Y1410D01*
X3563Y1409D01*
X3568Y1405D01*
X3586Y1402D01*
X3603Y1397D01*
X3609Y1397D01*
X3614Y1396D01*
X3632Y1400D01*
X3649Y1401D01*
X3655Y1404D01*
X3660Y1405D01*
X3675Y1415D01*
X3676Y1415D01*
X3751D01*
Y1604D01*
X3810D01*
Y1663D01*
X4107D01*
Y1699D01*
X4348D01*
X4355Y1690D01*
X4372Y1603D01*
X4425Y1525D01*
X4482Y1487D01*
X4466Y1437D01*
X4388D01*
Y1057D01*
X4125D01*
Y1063D01*
X4013D01*
X4008Y1064D01*
X4007Y1064D01*
X4006Y1064D01*
X4000Y1063D01*
X3620D01*
X3614Y1064D01*
X3611Y1063D01*
X3608Y1064D01*
X3591Y1063D01*
X3495D01*
Y1057D01*
X3482Y1057D01*
X3433D01*
X3428Y1057D01*
Y1192D01*
X2892D01*
Y1057D01*
X2887Y1057D01*
X2733D01*
X2728Y1057D01*
Y1149D01*
X1992D01*
Y563D01*
X2728D01*
Y655D01*
X2733Y655D01*
X3009D01*
X3011Y655D01*
X3013Y655D01*
X3307D01*
X3309Y655D01*
X3310Y655D01*
X3310Y655D01*
X3342Y655D01*
X3495D01*
Y649D01*
X3607D01*
X3612Y648D01*
X3613Y648D01*
X3614Y648D01*
X3620Y649D01*
X4000D01*
X4006Y648D01*
X4009Y649D01*
X4012Y648D01*
X4029Y649D01*
X4125D01*
Y655D01*
X4138Y655D01*
X4369D01*
X4746Y278D01*
X4811Y235D01*
X4888Y219D01*
X4990D01*
X5000Y212D01*
X5001Y211D01*
X4973Y161D01*
X467D01*
X161Y467D01*
Y3764D01*
X207Y3783D01*
X642Y3348D01*
D02*
G37*
G36*
X4041Y3384D02*
X4045Y3383D01*
X4051Y3382D01*
X4080Y3381D01*
X4145Y3380D01*
Y3280D01*
X4039Y3276D01*
Y3385D01*
X4041Y3384D01*
D02*
G37*
G36*
X5205Y3184D02*
X5209Y3183D01*
X5217Y3182D01*
X5226Y3181D01*
X5270Y3178D01*
X5335Y3177D01*
Y3077D01*
X5311Y3077D01*
X5205Y3071D01*
X5203Y3069D01*
Y3186D01*
X5205Y3184D01*
D02*
G37*
G36*
X5160Y3068D02*
X5160Y3070D01*
X5158Y3072D01*
X5155Y3073D01*
X5151Y3074D01*
X5145Y3075D01*
X5139Y3076D01*
X5122Y3077D01*
X5100Y3077D01*
Y3177D01*
X5111Y3178D01*
X5145Y3180D01*
X5151Y3181D01*
X5155Y3182D01*
X5158Y3183D01*
X5160Y3185D01*
X5160Y3187D01*
Y3068D01*
D02*
G37*
G36*
X5017Y3044D02*
X5008Y3050D01*
X4995Y3056D01*
X4979Y3061D01*
X4959Y3065D01*
X4935Y3069D01*
X4875Y3074D01*
X4800Y3077D01*
X4757Y3077D01*
Y3177D01*
X4800Y3178D01*
X4959Y3190D01*
X4979Y3194D01*
X4995Y3199D01*
X5008Y3205D01*
X5017Y3211D01*
Y3044D01*
D02*
G37*
G36*
X6142Y3217D02*
X6146Y3211D01*
X6152Y3205D01*
X6160Y3200D01*
X6170Y3196D01*
X6183Y3193D01*
X6199Y3190D01*
X6217Y3188D01*
X6259Y3187D01*
Y3068D01*
X6237Y3068D01*
X6199Y3065D01*
X6183Y3062D01*
X6170Y3059D01*
X6160Y3055D01*
X6152Y3050D01*
X6146Y3044D01*
X6142Y3038D01*
X6141Y3030D01*
Y3225D01*
X6142Y3217D01*
D02*
G37*
G36*
X4041Y3128D02*
X4045Y3127D01*
X4051Y3127D01*
X4080Y3125D01*
X4145Y3124D01*
Y3024D01*
X4039Y3020D01*
Y3129D01*
X4041Y3128D01*
D02*
G37*
G36*
X1521D02*
X1525Y3127D01*
X1531Y3127D01*
X1561Y3125D01*
X1626Y3124D01*
Y3024D01*
X1519Y3020D01*
Y3129D01*
X1521Y3128D01*
D02*
G37*
G36*
X4041Y2872D02*
X4045Y2871D01*
X4051Y2871D01*
X4080Y2869D01*
X4145Y2868D01*
Y2768D01*
X4039Y2764D01*
Y2873D01*
X4041Y2872D01*
D02*
G37*
G36*
X627Y2982D02*
X621Y2970D01*
X616Y2953D01*
X612Y2933D01*
X608Y2909D01*
X603Y2849D01*
X600Y2774D01*
X600Y2731D01*
X500D01*
X500Y2774D01*
X488Y2933D01*
X484Y2953D01*
X479Y2970D01*
X473Y2982D01*
X466Y2991D01*
X634D01*
X627Y2982D01*
D02*
G37*
G36*
X7219Y2719D02*
X7171Y2785D01*
X7119Y2844D01*
X7063Y2897D01*
X7002Y2942D01*
X6937Y2981D01*
X6867Y3012D01*
X6792Y3037D01*
X6713Y3054D01*
X6630Y3065D01*
X6542Y3068D01*
X6585Y3187D01*
X7337Y3192D01*
X7219Y2719D01*
D02*
G37*
G36*
X6142Y2902D02*
X6146Y2896D01*
X6152Y2890D01*
X6160Y2885D01*
X6170Y2881D01*
X6183Y2878D01*
X6199Y2875D01*
X6217Y2873D01*
X6259Y2872D01*
Y2753D01*
X6237Y2753D01*
X6199Y2750D01*
X6183Y2747D01*
X6170Y2744D01*
X6160Y2740D01*
X6152Y2735D01*
X6146Y2729D01*
X6142Y2723D01*
X6141Y2715D01*
Y2910D01*
X6142Y2902D01*
D02*
G37*
G36*
X5159Y2715D02*
X5158Y2724D01*
X5155Y2732D01*
X5150Y2739D01*
X5143Y2746D01*
X5134Y2751D01*
X5123Y2755D01*
X5110Y2758D01*
X5095Y2761D01*
X5078Y2762D01*
X5059Y2763D01*
Y2863D01*
X5078Y2863D01*
X5095Y2864D01*
X5110Y2867D01*
X5123Y2870D01*
X5134Y2874D01*
X5143Y2880D01*
X5150Y2886D01*
X5155Y2893D01*
X5158Y2901D01*
X5159Y2910D01*
Y2715D01*
D02*
G37*
G36*
X5160Y2366D02*
X5159Y2376D01*
X5156Y2384D01*
X5151Y2392D01*
X5144Y2398D01*
X5135Y2404D01*
X5124Y2408D01*
X5111Y2412D01*
X5096Y2414D01*
X5078Y2416D01*
X5059Y2416D01*
Y2516D01*
X5078Y2517D01*
X5096Y2518D01*
X5111Y2521D01*
X5124Y2524D01*
X5135Y2529D01*
X5144Y2534D01*
X5151Y2541D01*
X5156Y2548D01*
X5159Y2557D01*
X5160Y2566D01*
Y2366D01*
D02*
G37*
G36*
X6142Y2573D02*
X6146Y2563D01*
X6152Y2554D01*
X6160Y2546D01*
X6170Y2540D01*
X6183Y2535D01*
X6199Y2530D01*
X6217Y2527D01*
X6237Y2526D01*
X6259Y2525D01*
Y2407D01*
X6237Y2406D01*
X6217Y2405D01*
X6199Y2402D01*
X6183Y2398D01*
X6170Y2392D01*
X6160Y2386D01*
X6152Y2378D01*
X6146Y2369D01*
X6142Y2359D01*
X6141Y2348D01*
Y2584D01*
X6142Y2573D01*
D02*
G37*
G36*
X6921Y2565D02*
X7071Y2435D01*
X7142Y2382D01*
X7210Y2337D01*
X7274Y2301D01*
X7336Y2272D01*
X7394Y2252D01*
X7450Y2239D01*
X7503Y2235D01*
X7165Y1897D01*
X7161Y1950D01*
X7148Y2006D01*
X7128Y2064D01*
X7099Y2126D01*
X7063Y2190D01*
X7018Y2258D01*
X6965Y2329D01*
X6835Y2479D01*
X6758Y2558D01*
X6842Y2642D01*
X6921Y2565D01*
D02*
G37*
G36*
X4474Y1887D02*
X4553Y1818D01*
X4561Y1813D01*
X4567Y1811D01*
X4571Y1811D01*
X4479Y1719D01*
X4479Y1723D01*
X4477Y1729D01*
X4472Y1737D01*
X4466Y1746D01*
X4457Y1757D01*
X4420Y1799D01*
X4385Y1835D01*
X4455Y1905D01*
X4474Y1887D01*
D02*
G37*
G36*
X712Y1756D02*
X748Y1725D01*
X765Y1713D01*
X780Y1705D01*
X793Y1699D01*
X805Y1696D01*
X816D01*
X825Y1699D01*
X833Y1705D01*
X691Y1563D01*
X697Y1571D01*
X700Y1580D01*
Y1591D01*
X697Y1603D01*
X691Y1616D01*
X683Y1631D01*
X671Y1647D01*
X657Y1665D01*
X620Y1705D01*
X691Y1775D01*
X712Y1756D01*
D02*
G37*
G36*
X3614Y1517D02*
X3613Y1521D01*
X3609Y1525D01*
X3603Y1528D01*
X3594Y1531D01*
X3582Y1533D01*
X3568Y1535D01*
X3531Y1538D01*
X3484Y1539D01*
Y1669D01*
X3509Y1669D01*
X3582Y1675D01*
X3594Y1677D01*
X3603Y1680D01*
X3609Y1683D01*
X3613Y1687D01*
X3614Y1691D01*
Y1517D01*
D02*
G37*
G36*
X3310Y1682D02*
X3314Y1679D01*
X3320Y1677D01*
X3330Y1675D01*
X3341Y1673D01*
X3372Y1670D01*
X3439Y1669D01*
Y1539D01*
X3414Y1538D01*
X3392Y1536D01*
X3372Y1533D01*
X3355Y1529D01*
X3341Y1523D01*
X3329Y1516D01*
X3320Y1507D01*
X3313Y1498D01*
X3309Y1486D01*
X3308Y1474D01*
X3309Y1685D01*
X3310Y1682D01*
D02*
G37*
G36*
X3011Y1474D02*
X3010Y1486D01*
X3006Y1498D01*
X3000Y1507D01*
X2990Y1516D01*
X2979Y1523D01*
X2964Y1529D01*
X2948Y1533D01*
X2928Y1536D01*
X2906Y1538D01*
X2881Y1539D01*
Y1669D01*
X2906Y1669D01*
X2990Y1675D01*
X3000Y1677D01*
X3006Y1679D01*
X3010Y1682D01*
X3011Y1685D01*
Y1474D01*
D02*
G37*
G36*
X2609Y1722D02*
X2613Y1711D01*
X2619Y1701D01*
X2629Y1692D01*
X2640Y1685D01*
X2655Y1679D01*
X2672Y1675D01*
X2691Y1672D01*
X2714Y1670D01*
X2739Y1669D01*
Y1539D01*
X2714Y1538D01*
X2691Y1536D01*
X2672Y1533D01*
X2655Y1529D01*
X2640Y1523D01*
X2629Y1516D01*
X2619Y1507D01*
X2613Y1498D01*
X2609Y1486D01*
X2608Y1474D01*
Y1734D01*
X2609Y1722D01*
D02*
G37*
G36*
X6131Y1367D02*
X6130Y1380D01*
X6125Y1392D01*
X6118Y1403D01*
X6107Y1412D01*
X6093Y1420D01*
X6077Y1426D01*
X6057Y1431D01*
X6034Y1434D01*
X6009Y1436D01*
X5980Y1437D01*
Y1595D01*
X6009Y1595D01*
X6034Y1597D01*
X6057Y1601D01*
X6077Y1606D01*
X6093Y1612D01*
X6107Y1620D01*
X6118Y1629D01*
X6125Y1639D01*
X6130Y1651D01*
X6131Y1665D01*
Y1367D01*
D02*
G37*
G36*
X5033Y1942D02*
X5192Y1802D01*
X5214Y1787D01*
X5232Y1776D01*
X5247Y1770D01*
X5259Y1767D01*
X5211Y1719D01*
Y1502D01*
X5262Y1453D01*
X5251Y1450D01*
X5238Y1444D01*
X5220Y1433D01*
X5200Y1417D01*
X5148Y1374D01*
X5043Y1275D01*
X5001Y1234D01*
X4999Y1236D01*
X4899Y1143D01*
X4751Y1317D01*
X4762Y1308D01*
X4776Y1303D01*
X4792Y1302D01*
X4811Y1306D01*
X4832Y1315D01*
X4855Y1329D01*
X4881Y1347D01*
X4910Y1369D01*
X4941Y1399D01*
X5068Y1542D01*
X5083Y1564D01*
X5094Y1582D01*
X5100Y1597D01*
X5102Y1609D01*
X5100Y1619D01*
X5094Y1632D01*
X5083Y1650D01*
X5067Y1670D01*
X5024Y1722D01*
X4925Y1827D01*
X4884Y1869D01*
X4992Y1983D01*
X5033Y1942D01*
D02*
G37*
G36*
X5040Y2220D02*
X5630D01*
Y2220D01*
X5670D01*
Y2220D01*
X6260D01*
X6260Y2220D01*
Y2220D01*
X6307Y2208D01*
X6629Y1885D01*
Y1590D01*
X6643Y1521D01*
X6682Y1462D01*
X6730Y1414D01*
X6754Y1390D01*
X6875Y1249D01*
X6922Y1186D01*
X6961Y1126D01*
X6992Y1070D01*
X7016Y1018D01*
X7032Y971D01*
X7041Y930D01*
X7044Y903D01*
X7043Y900D01*
X7059Y782D01*
X7105Y672D01*
X7151Y611D01*
X7127Y561D01*
X7000D01*
X6939Y548D01*
X6886Y514D01*
X6886Y514D01*
X6533Y161D01*
X5417D01*
X5400Y211D01*
X5417Y223D01*
X5461Y281D01*
X5488Y348D01*
X5498Y420D01*
X5488Y492D01*
X5472Y531D01*
X5504Y581D01*
X5810D01*
Y797D01*
X5460D01*
Y856D01*
X5401D01*
Y1131D01*
X5142D01*
X5121Y1181D01*
X5157Y1217D01*
X5198Y1256D01*
X5266Y1247D01*
X5460D01*
X5553Y1259D01*
X5567Y1265D01*
X5567Y1265D01*
X5660Y1253D01*
X5886D01*
X5962Y1263D01*
X6012Y1248D01*
Y1248D01*
X6126D01*
X6131Y1247D01*
X6137Y1248D01*
X6141D01*
X6145Y1247D01*
X6146Y1248D01*
X6548D01*
Y1784D01*
X6197D01*
X6195Y1789D01*
X6139Y1863D01*
X6065Y1920D01*
X5978Y1955D01*
X5886Y1967D01*
X5660D01*
X5567Y1955D01*
X5553Y1949D01*
X5553Y1949D01*
X5460Y1961D01*
X5306D01*
X5260Y1967D01*
X5196Y1959D01*
X5131Y2017D01*
X4905Y2243D01*
X4902Y2245D01*
X4917Y2295D01*
X5040D01*
Y2220D01*
D02*
G37*
G36*
X6929Y1557D02*
X7076Y1431D01*
X7145Y1379D01*
X7212Y1336D01*
X7276Y1300D01*
X7337Y1272D01*
X7396Y1252D01*
X7452Y1239D01*
X7505Y1235D01*
X7165Y895D01*
X7161Y948D01*
X7148Y1004D01*
X7128Y1063D01*
X7100Y1124D01*
X7064Y1188D01*
X7021Y1255D01*
X6969Y1324D01*
X6843Y1471D01*
X6768Y1548D01*
X6852Y1632D01*
X6929Y1557D01*
D02*
G37*
G36*
X3011Y775D02*
X3010Y776D01*
X3005Y776D01*
X2934Y777D01*
X2854Y777D01*
Y935D01*
X2884Y936D01*
X2910Y938D01*
X2934Y942D01*
X2955Y947D01*
X2972Y954D01*
X2986Y963D01*
X2997Y973D01*
X3005Y985D01*
X3010Y998D01*
X3011Y1013D01*
Y775D01*
D02*
G37*
G36*
X4007Y942D02*
X4012Y940D01*
X4020Y939D01*
X4031Y938D01*
X4083Y935D01*
X4163Y935D01*
Y777D01*
X4006Y769D01*
Y943D01*
X4007Y942D01*
D02*
G37*
G36*
X3309Y998D02*
X3314Y985D01*
X3322Y973D01*
X3333Y963D01*
X3347Y954D01*
X3365Y947D01*
X3386Y942D01*
X3409Y938D01*
X3436Y936D01*
X3460Y935D01*
X3614Y943D01*
Y769D01*
X3613Y770D01*
X3608Y772D01*
X3600Y773D01*
X3589Y774D01*
X3537Y776D01*
X3462Y777D01*
X3309Y775D01*
X3308Y1013D01*
X3309Y998D01*
D02*
G37*
G36*
X2609D02*
X2614Y985D01*
X2622Y973D01*
X2633Y963D01*
X2647Y954D01*
X2665Y947D01*
X2685Y942D01*
X2709Y938D01*
X2736Y936D01*
X2766Y935D01*
Y777D01*
X2736Y776D01*
X2709Y774D01*
X2685Y770D01*
X2665Y765D01*
X2647Y758D01*
X2633Y749D01*
X2622Y739D01*
X2614Y727D01*
X2609Y713D01*
X2608Y698D01*
Y1013D01*
X2609Y998D01*
D02*
G37*
G36*
X5089Y333D02*
X5086Y334D01*
X5079Y336D01*
X5068Y337D01*
X5036Y339D01*
X4888Y341D01*
Y499D01*
X5089Y507D01*
Y333D01*
D02*
G37*
%LPC*%
G36*
X5753Y8331D02*
X5584D01*
Y8034D01*
X5753D01*
Y8331D01*
D02*
G37*
G36*
X3636D02*
X3467D01*
Y8034D01*
X3636D01*
Y8331D01*
D02*
G37*
G36*
X6309Y7172D02*
X4971D01*
Y7013D01*
X4966Y7013D01*
X4730D01*
X4728Y7013D01*
Y7080D01*
X4614D01*
X4609Y7081D01*
X4603Y7080D01*
X4598D01*
X4594Y7080D01*
X4594Y7080D01*
X4192D01*
Y6544D01*
X4594D01*
X4594Y6543D01*
X4598Y6544D01*
X4603D01*
X4609Y6543D01*
X4614Y6544D01*
X4728D01*
Y6611D01*
X4730Y6611D01*
X4966D01*
X4971Y6611D01*
Y6228D01*
X6309D01*
Y7172D01*
D02*
G37*
G36*
X4030Y7062D02*
X3839D01*
Y6871D01*
X4030D01*
Y7062D01*
D02*
G37*
G36*
X3721D02*
X3530D01*
Y6871D01*
X3721D01*
Y7062D01*
D02*
G37*
G36*
X3330D02*
X3139D01*
Y6871D01*
X3330D01*
Y7062D01*
D02*
G37*
G36*
X3021D02*
X2830D01*
Y6871D01*
X3021D01*
Y7062D01*
D02*
G37*
G36*
X4030Y6753D02*
X3839D01*
Y6562D01*
X4030D01*
Y6753D01*
D02*
G37*
G36*
X3721D02*
X3530D01*
Y6562D01*
X3721D01*
Y6753D01*
D02*
G37*
G36*
X3330Y6753D02*
X3139D01*
Y6562D01*
X3330D01*
Y6753D01*
D02*
G37*
G36*
X3021D02*
X2830D01*
Y6562D01*
X3021D01*
Y6753D01*
D02*
G37*
G36*
X2566Y6811D02*
X2427D01*
Y6534D01*
X2566D01*
Y6811D01*
D02*
G37*
G36*
X2309D02*
X2169D01*
Y6534D01*
X2309D01*
Y6811D01*
D02*
G37*
G36*
X809Y6411D02*
Y6079D01*
X1141D01*
X1135Y6123D01*
X1095Y6219D01*
X1032Y6302D01*
X949Y6365D01*
X853Y6405D01*
X809Y6411D01*
D02*
G37*
G36*
X2568Y6458D02*
X2031D01*
Y5922D01*
X2568D01*
Y6458D01*
D02*
G37*
%LPD*%
G36*
X4610Y6947D02*
X4615Y6935D01*
X4623Y6925D01*
X4634Y6916D01*
X4648Y6908D01*
X4665Y6902D01*
X4686Y6897D01*
X4709Y6893D01*
X4736Y6891D01*
X4766Y6891D01*
Y6733D01*
X4736Y6732D01*
X4709Y6730D01*
X4686Y6727D01*
X4665Y6722D01*
X4648Y6716D01*
X4634Y6708D01*
X4623Y6699D01*
X4615Y6688D01*
X4610Y6676D01*
X4609Y6663D01*
Y6961D01*
X4610Y6947D01*
D02*
G37*
G36*
X5090Y6654D02*
X5088Y6669D01*
X5084Y6683D01*
X5076Y6694D01*
X5065Y6705D01*
X5051Y6713D01*
X5033Y6720D01*
X5013Y6726D01*
X4989Y6730D01*
X4962Y6732D01*
X4933Y6733D01*
Y6891D01*
X4962Y6891D01*
X4989Y6894D01*
X5013Y6898D01*
X5033Y6903D01*
X5051Y6910D01*
X5065Y6919D01*
X5076Y6929D01*
X5084Y6941D01*
X5088Y6954D01*
X5090Y6969D01*
Y6654D01*
D02*
G37*
%LPC*%
G36*
X1201Y2759D02*
X874D01*
X874Y2756D01*
X909Y2704D01*
X962Y2669D01*
X1024Y2656D01*
X1201D01*
Y2759D01*
D02*
G37*
G36*
X2301Y1879D02*
X2010D01*
Y1663D01*
X2301D01*
Y1879D01*
D02*
G37*
G36*
X1760Y1786D02*
X1569D01*
Y1595D01*
X1760D01*
Y1786D01*
D02*
G37*
G36*
X1451D02*
X1260D01*
Y1595D01*
X1451D01*
Y1786D01*
D02*
G37*
G36*
X4107Y1545D02*
X3869D01*
Y1415D01*
X4107D01*
Y1545D01*
D02*
G37*
G36*
X2301Y1545D02*
X2010D01*
Y1329D01*
X2301D01*
Y1545D01*
D02*
G37*
G36*
X1760Y1477D02*
X1569D01*
Y1286D01*
X1760D01*
Y1477D01*
D02*
G37*
G36*
X1451D02*
X1260D01*
Y1286D01*
X1451D01*
Y1477D01*
D02*
G37*
G36*
X974Y1212D02*
X706D01*
X572Y1078D01*
Y810D01*
X706Y676D01*
X974D01*
X1071Y773D01*
X1242D01*
Y656D01*
X1778D01*
Y1192D01*
X1242D01*
Y1116D01*
X1071D01*
X974Y1212D01*
D02*
G37*
%LPD*%
G36*
X964Y1034D02*
X967Y1026D01*
X974Y1018D01*
X983Y1012D01*
X994Y1006D01*
X1008Y1002D01*
X1024Y999D01*
X1043Y996D01*
X1065Y995D01*
X1089Y994D01*
Y894D01*
X1065Y894D01*
X1024Y890D01*
X1008Y886D01*
X994Y882D01*
X983Y876D01*
X974Y870D01*
X967Y863D01*
X964Y854D01*
X962Y845D01*
Y1043D01*
X964Y1034D01*
D02*
G37*
G36*
X1361Y844D02*
X1360Y854D01*
X1357Y862D01*
X1352Y870D01*
X1345Y876D01*
X1336Y882D01*
X1325Y886D01*
X1312Y890D01*
X1297Y892D01*
X1280Y894D01*
X1261Y894D01*
Y994D01*
X1280Y995D01*
X1297Y996D01*
X1312Y999D01*
X1325Y1002D01*
X1336Y1007D01*
X1345Y1012D01*
X1352Y1019D01*
X1357Y1026D01*
X1360Y1035D01*
X1361Y1044D01*
Y844D01*
D02*
G37*
%LPC*%
G36*
X5119Y1625D02*
X5103Y1609D01*
X5124Y1588D01*
X5129Y1595D01*
X5136Y1604D01*
X5129Y1613D01*
X5119Y1625D01*
D02*
G37*
G36*
X6530Y1154D02*
X6339D01*
Y963D01*
X6530D01*
Y1154D01*
D02*
G37*
G36*
X6221D02*
X6030D01*
Y963D01*
X6221D01*
Y1154D01*
D02*
G37*
G36*
X5810Y1131D02*
X5519D01*
Y915D01*
X5810D01*
Y1131D01*
D02*
G37*
G36*
X6530Y845D02*
X6339D01*
Y654D01*
X6530D01*
Y845D01*
D02*
G37*
G36*
X6221D02*
X6030D01*
Y654D01*
X6221D01*
Y845D01*
D02*
G37*
%LPD*%
D12*
X2856Y7320D02*
X3080Y7544D01*
X1490Y944D02*
X1510Y924D01*
X840Y944D02*
X1490D01*
X550Y1846D02*
X840Y1556D01*
X550Y1846D02*
Y3074D01*
Y4354D02*
Y5120D01*
X900Y5470D01*
X2690D01*
X3294Y4866D01*
X3780D01*
X1050Y7320D02*
X2856D01*
X750Y7020D02*
X1050Y7320D01*
X4420Y1870D02*
X4595Y1695D01*
X2900Y1870D02*
X4420D01*
X2840Y1930D02*
X2900Y1870D01*
X2840Y1930D02*
Y1940D01*
X7000Y6400D02*
X7500Y6900D01*
X7000Y5783D02*
Y6400D01*
X6345Y5127D02*
X7000Y5783D01*
X5965Y5127D02*
X6345D01*
X6413Y4813D02*
X7500Y5900D01*
X5965Y4813D02*
X6413D01*
X1706Y3074D02*
X2840Y1940D01*
X1803Y5120D02*
X2210D01*
X1260Y4610D02*
X1260Y4610D01*
X1260Y4610D02*
X1270Y4600D01*
X1260Y5122D02*
X1802D01*
X1260Y4866D02*
X2048D01*
X1634Y4354D02*
X1890Y4098D01*
X1540Y4354D02*
X1634D01*
X2210Y3870D02*
Y4704D01*
X2048Y4866D02*
X2210Y4704D01*
X1260Y4610D02*
X1790D01*
X1890Y4510D01*
X1802Y5122D02*
X1803Y5120D01*
X5064Y5474D02*
X5335D01*
X4200Y4610D02*
X5064Y5474D01*
X5117Y5127D02*
X5335D01*
X4344Y4354D02*
X5117Y5127D01*
X3780Y4354D02*
X4344D01*
X5085Y4813D02*
X5335D01*
X4470Y4197D02*
X5085Y4813D01*
X4470Y3890D02*
Y4197D01*
X4166Y3586D02*
X4470Y3890D01*
X3780Y3586D02*
X4166D01*
X4199Y3330D02*
X5335Y4466D01*
X3780Y3330D02*
X4199D01*
X3780Y3074D02*
X4274D01*
X4674Y3474D01*
X5335D01*
X3780Y2818D02*
X4338D01*
X4647Y3127D01*
X3352Y3842D02*
X3780D01*
X4420Y2560D02*
X4673Y2813D01*
X5335D01*
X3218Y4098D02*
X3780D01*
X4716Y2466D02*
X5335D01*
X3780Y4610D02*
X4200D01*
X1260Y3074D02*
X1706D01*
X3463Y2560D02*
X4420D01*
X3040Y2700D02*
Y3920D01*
X3218Y4098D01*
X3240Y3730D02*
X3352Y3842D01*
X3240Y2783D02*
Y3730D01*
Y2783D02*
X3463Y2560D01*
X3040Y2700D02*
X3400Y2340D01*
X3390D02*
X4580D01*
X4590D02*
X4716Y2466D01*
X4647Y3127D02*
X5100D01*
X5335D01*
D34*
X1688Y6190D02*
D03*
X2300D02*
D03*
D35*
X3080Y7544D02*
D03*
Y8156D02*
D03*
X4460Y6200D02*
D03*
Y6812D02*
D03*
X3780Y6200D02*
D03*
Y6812D02*
D03*
X840Y1556D02*
D03*
X1510Y924D02*
D03*
Y1536D02*
D03*
X3160Y924D02*
D03*
Y1536D02*
D03*
X3080Y6812D02*
D03*
Y6200D02*
D03*
X6280Y904D02*
D03*
Y1516D02*
D03*
D36*
X1994Y7770D02*
D03*
X2368Y6870D02*
D03*
X1620D02*
D03*
D37*
X3810Y1604D02*
D03*
Y856D02*
D03*
X4703Y1230D02*
D03*
D38*
X5335Y3474D02*
D03*
Y2466D02*
D03*
X5965D02*
D03*
Y3474D02*
D03*
X5335Y5474D02*
D03*
Y4466D02*
D03*
X5965D02*
D03*
Y5474D02*
D03*
D39*
X5335Y3127D02*
D03*
Y2813D02*
D03*
X5965D02*
D03*
Y3127D02*
D03*
X5335Y5127D02*
D03*
Y4813D02*
D03*
X5965D02*
D03*
Y5127D02*
D03*
D40*
X5460Y856D02*
D03*
Y1604D02*
D03*
X2360Y1604D02*
D03*
Y856D02*
D03*
D41*
X1260Y5122D02*
D03*
Y4866D02*
D03*
Y4610D02*
D03*
Y4354D02*
D03*
Y4098D02*
D03*
Y3842D02*
D03*
Y3586D02*
D03*
Y3330D02*
D03*
Y3074D02*
D03*
Y2818D02*
D03*
X3780Y5122D02*
D03*
Y4866D02*
D03*
Y4610D02*
D03*
Y4354D02*
D03*
Y4098D02*
D03*
Y3842D02*
D03*
Y3586D02*
D03*
Y3330D02*
D03*
Y3074D02*
D03*
Y2818D02*
D03*
D42*
X840Y944D02*
D03*
D43*
X5279Y7622D02*
D03*
X3941D02*
D03*
D44*
X5319Y8518D02*
D03*
X3901D02*
D03*
D45*
X5525Y8390D02*
D03*
X3695D02*
D03*
D46*
X750Y6020D02*
D03*
Y7020D02*
D03*
D47*
Y8020D02*
D03*
D48*
X5640Y6700D02*
D03*
D49*
X2360Y1604D02*
X3810D01*
X3810Y1604D01*
D50*
X925Y3348D02*
X1834D01*
X5260Y1604D02*
X5460D01*
X4763Y2101D02*
X5260Y1604D01*
X250Y6520D02*
X750Y7020D01*
X5980Y1516D02*
X6280D01*
X5886Y1610D02*
X5980Y1516D01*
X4703Y1230D02*
X4886D01*
X5260Y1604D01*
X3082Y2101D02*
X4763D01*
X1834Y3348D02*
X3082Y2101D01*
X250Y4024D02*
X925Y3348D01*
X250Y4024D02*
Y6520D01*
X870Y7900D02*
X1994D01*
X750Y8020D02*
X870Y7900D01*
X2360Y856D02*
X2428Y924D01*
X4460Y6812D02*
X5528D01*
X5640Y6700D01*
X4452Y856D02*
X4888Y420D01*
X3810Y856D02*
X4452D01*
X2360D02*
X3810D01*
X4888Y420D02*
X5220D01*
D51*
X5660Y1610D02*
X5886D01*
X5260D02*
X5266Y1604D01*
X5460D01*
D52*
X6970Y3900D02*
X7500D01*
X6544Y3474D02*
X6970Y3900D01*
X5965Y3474D02*
X6544D01*
X6810Y1590D02*
Y1960D01*
X6304Y2466D02*
X6810Y1960D01*
X5965Y2466D02*
X6304D01*
X3780Y5122D02*
Y6200D01*
X2024Y7930D02*
X2500D01*
X1994Y7900D02*
X2024Y7930D01*
X1994Y7770D02*
Y7900D01*
X2500Y7930D02*
X2726Y8156D01*
X6910Y4900D02*
X7500D01*
X6476Y4466D02*
X6910Y4900D01*
X5965Y4466D02*
X6476D01*
X6690Y6199D02*
Y6290D01*
X5965Y5474D02*
X6690Y6199D01*
X7273Y3127D02*
X7500Y2900D01*
X5965Y3127D02*
X7273D01*
X6587Y2813D02*
X6800Y2600D01*
X5965Y2813D02*
X6587D01*
X2726Y8156D02*
X3080D01*
X1260Y3586D02*
X2034D01*
X2210Y3410D01*
X6690Y7090D02*
X7500Y7900D01*
X6810Y1590D02*
X7500Y900D01*
X6800Y2600D02*
X7500Y1900D01*
X6690Y6290D02*
Y7090D01*
X1620Y6258D02*
Y6870D01*
D53*
X3080Y6200D02*
X3780D01*
Y6190D02*
X4460D01*
D54*
X8500Y900D02*
Y1900D01*
Y2900D01*
Y3900D01*
Y4900D01*
Y5900D01*
Y6900D01*
Y7900D01*
X9500Y900D02*
Y1900D01*
Y2900D01*
Y3900D01*
Y4900D01*
Y5900D01*
Y6900D01*
Y7900D01*
D55*
X7500Y2900D02*
D03*
Y3900D02*
D03*
Y4900D02*
D03*
Y5900D02*
D03*
Y6900D02*
D03*
Y1900D02*
D03*
Y900D02*
D03*
X8500Y2900D02*
D03*
Y3900D02*
D03*
Y4900D02*
D03*
Y5900D02*
D03*
Y6900D02*
D03*
Y1900D02*
D03*
Y900D02*
D03*
X9500Y2900D02*
D03*
Y3900D02*
D03*
Y4900D02*
D03*
Y5900D02*
D03*
Y6900D02*
D03*
Y1900D02*
D03*
Y900D02*
D03*
D56*
X7500Y7900D02*
D03*
X8500D02*
D03*
X9500D02*
D03*
D57*
X4945Y8173D02*
D03*
X4275D02*
D03*
D58*
X6260Y2101D02*
D03*
X5236D02*
D03*
X6690Y611D02*
D03*
X6012Y400D02*
D03*
X1800Y5800D02*
D03*
X2200D02*
D03*
X2611Y5783D02*
D03*
X6500Y8300D02*
D03*
X5100Y6000D02*
D03*
X2257Y8518D02*
D03*
X2619D02*
D03*
X3521Y7286D02*
D03*
X3507Y7779D02*
D03*
X5507Y5998D02*
D03*
X5667Y3920D02*
D03*
X374Y1222D02*
D03*
X999Y2101D02*
D03*
X335Y7482D02*
D03*
X3257Y5650D02*
D03*
X1007Y2400D02*
D03*
X757Y400D02*
D03*
X1257D02*
D03*
X6507Y4150D02*
D03*
X7007Y4400D02*
D03*
X4757Y5650D02*
D03*
X6507Y7900D02*
D03*
X550Y3074D02*
D03*
Y4354D02*
D03*
X2300Y6190D02*
D03*
X5280Y7500D02*
D03*
X3941Y7622D02*
D03*
X1890Y4510D02*
D03*
X2210Y3410D02*
D03*
X4595Y1695D02*
D03*
X1890Y4098D02*
D03*
X2210Y3870D02*
D03*
Y5122D02*
D03*
X5335Y3474D02*
D03*
X5100Y3127D02*
D03*
D59*
X5660Y1610D02*
D03*
X5220Y420D02*
D03*
X5260Y1610D02*
D03*
M02*
