M48
;Layer_Color=9474304
;FILE_FORMAT=2:4
INCH,TZ
;TYPE=PLATED
T1F00S00C0.0118
T2F00S00C0.0157
T3F00S00C0.0256
T4F00S00C0.0354
%
T01
X757Y400
X1257
X374Y1222
X999Y2101
X1007Y2400
X550Y3074
Y4354
X1890Y4510
Y4098
X2210Y3870
Y3410
Y5122
X2200Y5800
X1800
X2611Y5783
X2300Y6190
X3257Y5650
X4757
X5100Y6000
X5507Y5998
X5280Y7500
X3941Y7622
X3507Y7779
X3521Y7286
X2619Y8518
X2257
X335Y7482
X6507Y7900
X6500Y8300
X6507Y4150
X7007Y4400
X5667Y3920
X5335Y3474
X5100Y3127
X5236Y2101
X6260
X6690Y611
X6012Y400
X4595Y1695
T02
X5220Y420
X5260Y1610
X5660
T03
X4275Y8173
X4945
T04
X9500Y900
Y1900
Y2900
Y3900
Y4900
Y5900
Y6900
Y7900
X8500
X7500
Y6900
Y5900
Y4900
Y3900
Y2900
Y1900
Y900
X8500
Y1900
Y2900
Y3900
Y4900
Y5900
Y6900
M30
