G04*
G04 #@! TF.GenerationSoftware,Altium Limited,Altium Designer,20.2.6 (244)*
G04*
G04 Layer_Color=16711935*
%FSLAX24Y24*%
%MOIN*%
G70*
G04*
G04 #@! TF.SameCoordinates,5BA78797-F0C5-4362-90F7-91A5E935EFA1*
G04*
G04*
G04 #@! TF.FilePolarity,Negative*
G04*
G01*
G75*
%ADD31C,0.0749*%
%ADD32R,0.0749X0.0749*%
%ADD33C,0.0336*%
%ADD64C,0.0020*%
%ADD65R,0.0434X0.0867*%
%ADD66C,0.0867*%
%ADD67R,0.0867X0.0671*%
%ADD68R,0.0867X0.0867*%
%ADD69C,0.0395*%
D31*
X7500Y2900D02*
D03*
Y3900D02*
D03*
Y4900D02*
D03*
Y5900D02*
D03*
Y6900D02*
D03*
Y1900D02*
D03*
Y900D02*
D03*
X8500Y2900D02*
D03*
Y3900D02*
D03*
Y4900D02*
D03*
Y5900D02*
D03*
Y6900D02*
D03*
Y1900D02*
D03*
Y900D02*
D03*
X9500Y2900D02*
D03*
Y3900D02*
D03*
Y4900D02*
D03*
Y5900D02*
D03*
Y6900D02*
D03*
Y1900D02*
D03*
Y900D02*
D03*
D32*
X7500Y7900D02*
D03*
X8500D02*
D03*
X9500D02*
D03*
D33*
X4945Y8173D02*
D03*
X4275D02*
D03*
D64*
X4600Y3340D02*
Y4180D01*
X3720Y2940D02*
Y4260D01*
X3740Y4620D02*
Y4700D01*
Y2940D02*
Y4280D01*
X3760Y4620D02*
Y4820D01*
Y2940D02*
Y4280D01*
X3780Y4620D02*
Y4920D01*
Y2960D02*
Y4300D01*
X3800Y4620D02*
Y5040D01*
Y2960D02*
Y4320D01*
X3820Y4620D02*
Y5140D01*
Y2980D02*
Y4320D01*
X3840Y4620D02*
Y5260D01*
Y2980D02*
Y4340D01*
X3860Y4620D02*
Y5360D01*
Y3000D02*
Y4360D01*
X3880Y4620D02*
Y5480D01*
Y3020D02*
Y3220D01*
X3900Y4620D02*
Y5580D01*
Y3020D02*
Y3220D01*
X3920Y4700D02*
Y5700D01*
Y3040D02*
Y3220D01*
X3940Y4820D02*
Y5800D01*
Y3040D02*
Y3220D01*
X3960Y4920D02*
Y5880D01*
Y3340D02*
Y4160D01*
Y3040D02*
Y3220D01*
X3980Y5040D02*
Y5880D01*
Y3340D02*
Y4180D01*
Y3040D02*
Y3220D01*
X4000Y5140D02*
Y5880D01*
Y3340D02*
Y4200D01*
Y3040D02*
Y3220D01*
X4020Y5260D02*
Y5880D01*
Y3340D02*
Y4220D01*
Y3040D02*
Y3220D01*
X4040Y5380D02*
Y5880D01*
Y5140D02*
Y5240D01*
Y4640D02*
Y4680D01*
Y3340D02*
Y4240D01*
Y3040D02*
Y3220D01*
X4060Y5480D02*
Y5880D01*
Y5140D02*
Y5340D01*
Y4640D02*
Y4740D01*
Y3340D02*
Y4260D01*
Y3040D02*
Y3220D01*
X4080Y5600D02*
Y5880D01*
Y5140D02*
Y5340D01*
Y4640D02*
Y4780D01*
Y3340D02*
Y4280D01*
Y3040D02*
Y3220D01*
X4100Y5700D02*
Y5880D01*
Y5140D02*
Y5340D01*
Y4640D02*
Y4840D01*
Y3340D02*
Y4300D01*
Y3040D02*
Y3220D01*
X4120Y5700D02*
Y5880D01*
Y5140D02*
Y5340D01*
Y4640D02*
Y4840D01*
Y4120D02*
Y4300D01*
Y3340D02*
Y3520D01*
Y3040D02*
Y3220D01*
X4140Y5700D02*
Y5880D01*
Y5140D02*
Y5340D01*
Y4640D02*
Y4840D01*
Y4120D02*
Y4300D01*
Y3340D02*
Y3520D01*
Y3040D02*
Y3220D01*
X4160Y5700D02*
Y5880D01*
Y5140D02*
Y5340D01*
Y4640D02*
Y4840D01*
Y4120D02*
Y4300D01*
Y3340D02*
Y3520D01*
Y3040D02*
Y3220D01*
X4180Y5700D02*
Y5880D01*
Y5140D02*
Y5340D01*
Y4640D02*
Y4840D01*
Y4120D02*
Y4300D01*
Y3340D02*
Y3520D01*
Y3040D02*
Y3220D01*
X4200Y5700D02*
Y5880D01*
Y4640D02*
Y4840D01*
Y4120D02*
Y4300D01*
Y3340D02*
Y3520D01*
Y3040D02*
Y3220D01*
X4220Y4640D02*
Y5880D01*
Y4120D02*
Y4300D01*
Y3340D02*
Y3520D01*
Y3040D02*
Y3220D01*
X4240Y4640D02*
Y5880D01*
Y4120D02*
Y4300D01*
Y3340D02*
Y3520D01*
Y3040D02*
Y3220D01*
X4260Y4640D02*
Y5880D01*
Y4120D02*
Y4300D01*
Y3340D02*
Y3520D01*
Y3040D02*
Y3220D01*
X4280Y4640D02*
Y5880D01*
Y3340D02*
Y4300D01*
Y3040D02*
Y3220D01*
X4300Y4640D02*
Y5880D01*
Y3340D02*
Y4300D01*
Y3040D02*
Y3220D01*
X4320Y4640D02*
Y5880D01*
Y3340D02*
Y4300D01*
Y3040D02*
Y3220D01*
X4340Y4640D02*
Y5880D01*
Y3340D02*
Y4300D01*
Y3040D02*
Y3220D01*
X4360Y4640D02*
Y5880D01*
Y3340D02*
Y4300D01*
Y3040D02*
Y3220D01*
X4380Y4640D02*
Y4840D01*
Y3340D02*
Y4300D01*
Y3040D02*
Y3220D01*
X4400Y4640D02*
Y4840D01*
Y3340D02*
Y4300D01*
Y3040D02*
Y3220D01*
X4420Y4640D02*
Y4840D01*
Y3340D02*
Y4300D01*
Y3040D02*
Y3220D01*
X4440Y5740D02*
Y5760D01*
Y5280D02*
Y5300D01*
Y5040D02*
Y5060D01*
Y4580D02*
Y4600D01*
Y3340D02*
Y3520D01*
Y3040D02*
Y3220D01*
X4460Y5740D02*
Y5780D01*
Y5500D02*
Y5680D01*
Y5280D02*
Y5320D01*
Y5040D02*
Y5100D01*
Y4820D02*
Y5000D01*
Y4580D02*
Y4640D01*
Y3340D02*
Y3520D01*
Y3040D02*
Y3220D01*
X4480Y5740D02*
Y5820D01*
Y5500D02*
Y5680D01*
Y5280D02*
Y5360D01*
Y5040D02*
Y5120D01*
Y4820D02*
Y5000D01*
Y4580D02*
Y4660D01*
Y3340D02*
Y3520D01*
Y3040D02*
Y3220D01*
X4500Y5740D02*
Y5840D01*
Y5500D02*
Y5680D01*
Y5280D02*
Y5380D01*
Y5040D02*
Y5160D01*
Y4820D02*
Y5000D01*
Y4580D02*
Y4700D01*
Y3340D02*
Y3520D01*
Y3040D02*
Y3220D01*
X4520Y5740D02*
Y5880D01*
Y5500D02*
Y5680D01*
Y5280D02*
Y5420D01*
Y5040D02*
Y5180D01*
Y4820D02*
Y5000D01*
Y4580D02*
Y4720D01*
Y3340D02*
Y3520D01*
Y2900D02*
Y3220D01*
X4540Y5740D02*
Y5900D01*
Y5500D02*
Y5680D01*
Y5280D02*
Y5440D01*
Y5040D02*
Y5220D01*
Y4820D02*
Y5000D01*
Y4580D02*
Y4760D01*
Y3340D02*
Y3520D01*
Y2900D02*
Y3220D01*
X4560Y5740D02*
Y5920D01*
Y5500D02*
Y5680D01*
Y5280D02*
Y5460D01*
Y5040D02*
Y5220D01*
Y4820D02*
Y5000D01*
Y4580D02*
Y4760D01*
Y3340D02*
Y4140D01*
Y2900D02*
Y3220D01*
X4580Y5740D02*
Y5920D01*
Y5500D02*
Y5680D01*
Y5280D02*
Y5460D01*
Y5040D02*
Y5220D01*
Y4820D02*
Y5000D01*
Y4580D02*
Y4760D01*
Y3340D02*
Y4160D01*
Y2920D02*
Y3220D01*
X4600Y5740D02*
Y5920D01*
Y5500D02*
Y5680D01*
Y5280D02*
Y5460D01*
Y5040D02*
Y5220D01*
Y4820D02*
Y5000D01*
Y4580D02*
Y4760D01*
Y2940D02*
Y3220D01*
X4620Y5740D02*
Y5920D01*
Y5500D02*
Y5680D01*
Y5280D02*
Y5460D01*
Y5040D02*
Y5220D01*
Y4820D02*
Y5000D01*
Y4580D02*
Y4760D01*
Y3340D02*
Y4200D01*
Y2940D02*
Y3220D01*
X4640Y5740D02*
Y5920D01*
Y5500D02*
Y5680D01*
Y5280D02*
Y5460D01*
Y5040D02*
Y5220D01*
Y4820D02*
Y5000D01*
Y4580D02*
Y4760D01*
Y3340D02*
Y4220D01*
Y2960D02*
Y3220D01*
X4660Y5740D02*
Y5920D01*
Y5500D02*
Y5680D01*
Y5280D02*
Y5460D01*
Y5040D02*
Y5220D01*
Y4820D02*
Y5000D01*
Y4580D02*
Y4760D01*
Y3340D02*
Y4240D01*
Y2960D02*
Y3220D01*
X4680Y5740D02*
Y5920D01*
Y5500D02*
Y5680D01*
Y5280D02*
Y5460D01*
Y5040D02*
Y5220D01*
Y4820D02*
Y5000D01*
Y4580D02*
Y4760D01*
Y3340D02*
Y4260D01*
Y2980D02*
Y3220D01*
X4700Y5740D02*
Y5920D01*
Y5500D02*
Y5680D01*
Y5280D02*
Y5460D01*
Y5040D02*
Y5220D01*
Y4820D02*
Y5000D01*
Y4580D02*
Y4760D01*
Y3340D02*
Y4260D01*
X4720Y5740D02*
Y5920D01*
Y5500D02*
Y5680D01*
Y5280D02*
Y5460D01*
Y5040D02*
Y5220D01*
Y4820D02*
Y5000D01*
Y4580D02*
Y4760D01*
Y4080D02*
Y4260D01*
Y3340D02*
Y3520D01*
X4740Y5740D02*
Y5920D01*
Y5500D02*
Y5680D01*
Y5280D02*
Y5460D01*
Y5040D02*
Y5220D01*
Y4820D02*
Y5000D01*
Y4580D02*
Y4760D01*
Y4080D02*
Y4260D01*
Y3340D02*
Y3520D01*
X4760Y5740D02*
Y5920D01*
Y5500D02*
Y5680D01*
Y5280D02*
Y5460D01*
Y5040D02*
Y5220D01*
Y4820D02*
Y5000D01*
Y4580D02*
Y4760D01*
Y4080D02*
Y4260D01*
Y3340D02*
Y3520D01*
Y3040D02*
Y3220D01*
X4780Y5740D02*
Y5920D01*
Y5500D02*
Y5680D01*
Y5280D02*
Y5460D01*
Y5040D02*
Y5220D01*
Y4820D02*
Y5000D01*
Y4580D02*
Y4760D01*
Y4080D02*
Y4260D01*
Y3340D02*
Y3520D01*
Y3040D02*
Y3220D01*
X4800Y5740D02*
Y5920D01*
Y5500D02*
Y5680D01*
Y5280D02*
Y5460D01*
Y5040D02*
Y5220D01*
Y4820D02*
Y5000D01*
Y4580D02*
Y4760D01*
Y4080D02*
Y4260D01*
Y3340D02*
Y3520D01*
Y3040D02*
Y3220D01*
X4820Y5500D02*
Y5680D01*
Y4820D02*
Y5000D01*
Y4080D02*
Y4260D01*
Y3340D02*
Y3520D01*
Y3040D02*
Y3220D01*
X4840Y5500D02*
Y5680D01*
Y4820D02*
Y5000D01*
Y4080D02*
Y4260D01*
Y3340D02*
Y3520D01*
Y3040D02*
Y3220D01*
X4860Y5240D02*
Y5920D01*
Y4560D02*
Y5220D01*
Y4080D02*
Y4260D01*
Y3340D02*
Y3520D01*
Y3040D02*
Y3220D01*
X4880Y5260D02*
Y5920D01*
Y4560D02*
Y5220D01*
Y3340D02*
Y4260D01*
Y3040D02*
Y3220D01*
X4900Y5280D02*
Y5920D01*
Y4580D02*
Y5220D01*
Y3340D02*
Y4260D01*
Y3040D02*
Y3220D01*
X4920Y5280D02*
Y5920D01*
Y4600D02*
Y5220D01*
Y3340D02*
Y4260D01*
Y3040D02*
Y3220D01*
X4940Y5300D02*
Y5920D01*
Y4600D02*
Y5220D01*
Y3340D02*
Y4260D01*
Y3040D02*
Y3220D01*
X4960Y5300D02*
Y5920D01*
Y4620D02*
Y5220D01*
Y3340D02*
Y4260D01*
Y3040D02*
Y3220D01*
X4980Y5320D02*
Y5920D01*
Y4620D02*
Y5220D01*
Y3340D02*
Y4260D01*
Y3080D02*
Y3220D01*
X5000Y5340D02*
Y5920D01*
Y4640D02*
Y5220D01*
Y3340D02*
Y4260D01*
Y3100D02*
Y3220D01*
X5020Y5500D02*
Y5680D01*
Y4820D02*
Y5000D01*
Y3340D02*
Y4260D01*
Y3120D02*
Y3220D01*
X5040Y5500D02*
Y5680D01*
Y4820D02*
Y5000D01*
Y3700D02*
Y3860D01*
Y3140D02*
Y3220D01*
X5060Y5500D02*
Y5680D01*
Y4820D02*
Y5000D01*
Y3720D02*
Y3860D01*
Y3160D02*
Y3220D01*
X5080Y5500D02*
Y5680D01*
Y4820D02*
Y5000D01*
Y3760D02*
Y3860D01*
Y3180D02*
Y3220D01*
X5100Y3800D02*
Y3860D01*
Y3200D02*
Y3220D01*
X5120Y3840D02*
Y3860D01*
D65*
X1753Y655D02*
D03*
X2753D02*
D03*
X3253D02*
D03*
X4253D02*
D03*
X2253D02*
D03*
X3753D02*
D03*
X4753D02*
D03*
X5253D02*
D03*
D66*
X6040Y6957D02*
D03*
X1017Y5548D02*
D03*
D67*
X646Y5771D02*
D03*
X6354D02*
D03*
D68*
X1538Y8145D02*
D03*
X5475D02*
D03*
D69*
X5220Y420D02*
D03*
M02*
