M48
;Layer_Color=9474304
;FILE_FORMAT=2:5
INCH,LZ
;TYPE=PLATED
T1F00S00C0.01181
T2F00S00C0.03543
%
T01
X00052Y00135
X00102
X00215Y00155
X00185Y0028
X00285Y0033
X00405Y00355
X00435Y0023
X00485Y0022
X0060269
X00535Y00305
X00726Y00295
X00756Y0032
X00786Y00295
X00816Y0032
X0086Y00345
X00895Y00275
X0091Y0023
X00985Y00355
X0106Y0028
X01185
X00985Y0058
Y0068
X00935
X0104Y0074
Y00855
X0114Y00845
Y0095
X0103Y00985
Y01035
X0102416Y01095
X00985Y00945
X00785Y0108
X00675Y0101
X00585Y0098
Y0088
X00557Y00802
X00592Y00757
X005915Y00587
X00623Y00561
X00555Y0054
X00575Y0047
X00726Y00441
X00786Y00575
X00816Y0061
X0041Y00715
X00443Y0088
X0041Y00928
X00434Y00993
X00402Y01025
X0027598Y0099098
Y0094098
Y0083398
X00135Y00775
X0005Y009
Y0095
X00135Y01
X00235Y0053
X0024Y00475
X0035Y00495
X00035Y00475
X00365Y00165
X0062Y0008
X0066Y0003
X012Y00475
Y007
X01058Y0111
X01015Y0115
X01045Y012
X0095
X00935Y0128
X00985Y0133
X01075Y01275
X00845Y0124
X00785Y0123
X00735
X0075Y01145
X00835Y0113
X0062Y0124
X0038Y01155
X00345Y0119
X00185Y0115
X00135Y01225
X0025Y01305
X00235Y01355
T02
X003Y0011
Y0021
X0071858Y00526
X0091543
M30
