G04*
G04 #@! TF.GenerationSoftware,Altium Limited,Altium Designer,22.2.1 (43)*
G04*
G04 Layer_Color=32896*
%FSTAX25Y25*%
%MOIN*%
G70*
G04*
G04 #@! TF.SameCoordinates,2F0A99F2-06B0-42B4-AD1F-80CD01153156*
G04*
G04*
G04 #@! TF.FilePolarity,Positive*
G04*
G01*
G75*
%ADD10C,0.00800*%
%ADD12C,0.01000*%
%ADD13C,0.00787*%
%ADD14C,0.00600*%
%ADD15C,0.00591*%
%ADD16C,0.01181*%
%ADD34C,0.01968*%
%ADD67C,0.00394*%
%ADD68R,0.00787X0.09055*%
%ADD69R,0.00689X0.09055*%
%ADD70R,0.00689X0.08957*%
D10*
X00715Y0102D02*
G03*
X00715Y0102I-0004J0D01*
G01*
Y0092D02*
G03*
X00715Y0092I-0004J0D01*
G01*
Y0082D02*
G03*
X00715Y0082I-0004J0D01*
G01*
Y0072D02*
G03*
X00715Y0072I-0004J0D01*
G01*
X00649Y0005307D02*
Y00105D01*
Y00135D02*
Y0018693D01*
X00721Y00135D02*
Y0018693D01*
Y0005307D02*
Y00105D01*
X00649Y0005307D02*
X00721D01*
X00649Y0018693D02*
X00721D01*
X00474Y0037301D02*
Y0042494D01*
Y0045494D02*
Y0050687D01*
X0054599Y0045494D02*
Y0050687D01*
Y0037301D02*
Y0042494D01*
X0047399Y0037301D02*
X0054599D01*
X0047399Y0050687D02*
X0054599D01*
X0093Y00734D02*
X0098193D01*
X0084807D02*
X009D01*
X0084807Y00806D02*
X009D01*
X0093D02*
X0098193D01*
Y00734D02*
Y00806D01*
X0084807Y00734D02*
Y00806D01*
X00154Y0037307D02*
X00226D01*
Y0050693D01*
X00154D02*
X00226D01*
X00154Y0037307D02*
Y0050693D01*
X00054D02*
X00126D01*
X00054Y0037307D02*
Y0050693D01*
Y0037307D02*
X00126D01*
Y0050693D01*
D12*
X009931Y0052509D02*
G03*
X009931Y0052509I-001811J0D01*
G01*
D13*
X0060902Y00186D02*
G03*
X0060902Y00186I-0012402J0D01*
G01*
X009Y0027D02*
X0094756D01*
X009Y0001D02*
Y0027D01*
Y0001D02*
X0094756D01*
X0107Y0097D02*
X0123D01*
Y0118D01*
X0107D02*
X0123D01*
X0107Y0097D02*
Y0118D01*
Y01195D02*
X0123D01*
Y01405D01*
X0107D02*
X0123D01*
X0107Y01195D02*
Y01405D01*
D14*
X00685Y0011D02*
Y00115D01*
Y00125D02*
Y0013D01*
X0067Y00125D02*
X007D01*
X0067Y00115D02*
X007D01*
X0051Y0042994D02*
Y0043494D01*
Y0044494D02*
Y0044994D01*
X00495Y0044494D02*
X00525D01*
X00495Y0043494D02*
X00525D01*
X00355Y0043994D02*
X0037D01*
X0033D02*
X00345D01*
Y0041494D02*
Y0046494D01*
X00355Y0041494D02*
Y0046494D01*
X0092Y0077D02*
X00925D01*
X00905D02*
X0091D01*
Y00755D02*
Y00785D01*
X0092Y00755D02*
Y00785D01*
X00915Y00945D02*
Y0096D01*
Y0092D02*
Y00935D01*
X0089D02*
X0094D01*
X0089Y00945D02*
X0094D01*
D15*
X0043042Y0087193D02*
Y0085D01*
X00395D01*
Y0087193D01*
X0041356Y0085D02*
Y0086349D01*
X0043042Y0088796D02*
X0042874Y0088289D01*
X0042368Y0087952D01*
X0041524Y0087783D01*
X0041018D01*
X0040175Y0087952D01*
X0039669Y0088289D01*
X00395Y0088796D01*
Y0089133D01*
X0039669Y0089639D01*
X0040175Y0089976D01*
X0041018Y0090145D01*
X0041524D01*
X0042368Y0089976D01*
X0042874Y0089639D01*
X0043042Y0089133D01*
Y0088796D01*
X0042368Y0090938D02*
X0042537Y0091275D01*
X0043042Y0091781D01*
X00395D01*
X0041018Y0093536D02*
Y0096572D01*
X0043042Y0097618D02*
X00395D01*
X0043042D02*
X00395Y0098968D01*
X0043042Y0100317D02*
X00395Y0098968D01*
X0043042Y0100317D02*
X00395D01*
X0043042Y010133D02*
X00395D01*
Y0103354D01*
X0043042Y0104754D02*
X0042874Y0104248D01*
X0042368Y0103911D01*
X0041524Y0103742D01*
X0041018D01*
X0040175Y0103911D01*
X0039669Y0104248D01*
X00395Y0104754D01*
Y0105091D01*
X0039669Y0105597D01*
X0040175Y0105935D01*
X0041018Y0106104D01*
X0041524D01*
X0042368Y0105935D01*
X0042874Y0105597D01*
X0043042Y0105091D01*
Y0104754D01*
X0042368Y0106896D02*
X0042537Y0107234D01*
X0043042Y010774D01*
X00395D01*
X0042537Y0111856D02*
X0042874Y0111519D01*
X0043042Y0111012D01*
Y0110338D01*
X0042874Y0109832D01*
X0042537Y0109494D01*
X0042199D01*
X0041862Y0109663D01*
X0041693Y0109832D01*
X0041524Y0110169D01*
X0041187Y0111181D01*
X0041018Y0111519D01*
X004085Y0111687D01*
X0040512Y0111856D01*
X0040006D01*
X0039669Y0111519D01*
X00395Y0111012D01*
Y0110338D01*
X0039669Y0109832D01*
X0040006Y0109494D01*
X0041187Y0112649D02*
Y0114167D01*
X0041356Y0114673D01*
X0041524Y0114842D01*
X0041862Y011501D01*
X0042368D01*
X0042705Y0114842D01*
X0042874Y0114673D01*
X0043042Y0114167D01*
Y0112649D01*
X00395D01*
X0043042Y011749D02*
X0040681Y0115803D01*
Y0118334D01*
X0043042Y011749D02*
X00395D01*
X0032Y0085D02*
X0034361D01*
X0035542Y0086181D01*
X0034361Y0087361D01*
X0032D01*
X0033771D01*
Y0085D01*
X0034952Y0090904D02*
X0035542Y0090313D01*
Y0089132D01*
X0034952Y0088542D01*
X0034361D01*
X0033771Y0089132D01*
Y0090313D01*
X0033181Y0090904D01*
X003259D01*
X0032Y0090313D01*
Y0089132D01*
X003259Y0088542D01*
X0034952Y0092084D02*
X0035542Y0092675D01*
Y0093855D01*
X0034952Y0094446D01*
X003259D01*
X0032Y0093855D01*
Y0092675D01*
X003259Y0092084D01*
X0034952D01*
X0032Y0095626D02*
Y0096807D01*
Y0096217D01*
X0035542D01*
X0034952Y0095626D01*
X0033771Y0098578D02*
Y010094D01*
X0034952Y0104482D02*
X0035542Y0103892D01*
Y0102711D01*
X0034952Y010212D01*
X0034361D01*
X0033771Y0102711D01*
Y0103892D01*
X0033181Y0104482D01*
X003259D01*
X0032Y0103892D01*
Y0102711D01*
X003259Y010212D01*
X0032Y0105663D02*
X0035542D01*
Y0107434D01*
X0034952Y0108024D01*
X0033771D01*
X0033181Y0107434D01*
Y0105663D01*
X0035542Y0109205D02*
Y0110386D01*
Y0109795D01*
X0032D01*
Y0109205D01*
Y0110386D01*
Y0112157D02*
X0035542D01*
Y0113928D01*
X0034952Y0114518D01*
X0033771D01*
X0033181Y0113928D01*
Y0112157D01*
X0035542Y0115699D02*
X0032Y011806D01*
X0035542D02*
X0032Y0115699D01*
X0102901Y0131124D02*
X0103426Y0131649D01*
X0104475D01*
X0105Y0131124D01*
Y0129025D01*
X0104475Y01285D01*
X0103426D01*
X0102901Y0129025D01*
Y0130074D01*
X0103951D01*
X0101851Y01285D02*
Y0131649D01*
X0099752Y01285D01*
Y0131649D01*
X0098703D02*
Y01285D01*
X0097128D01*
X0096604Y0129025D01*
Y0131124D01*
X0097128Y0131649D01*
X0098703D01*
X0102901Y0138624D02*
X0103426Y0139149D01*
X0104475D01*
X0105Y0138624D01*
Y0138099D01*
X0104475Y0137574D01*
X0103426D01*
X0102901Y0137049D01*
Y0136525D01*
X0103426Y0136D01*
X0104475D01*
X0105Y0136525D01*
X0101851Y0139149D02*
Y0136D01*
X0100802Y0137049D01*
X0099752Y0136D01*
Y0139149D01*
X0098703Y0135475D02*
X0096604D01*
X0093455Y0138624D02*
X009398Y0139149D01*
X0095029D01*
X0095554Y0138624D01*
Y0136525D01*
X0095029Y0136D01*
X009398D01*
X0093455Y0136525D01*
X0090307Y0136D02*
X0092406D01*
X0090307Y0138099D01*
Y0138624D01*
X0090831Y0139149D01*
X0091881D01*
X0092406Y0138624D01*
X0102901Y0123624D02*
X0103426Y0124149D01*
X0104475D01*
X0105Y0123624D01*
Y0123099D01*
X0104475Y0122574D01*
X0103426D01*
X0102901Y0122049D01*
Y0121525D01*
X0103426Y0121D01*
X0104475D01*
X0105Y0121525D01*
X0101851Y0124149D02*
Y0121D01*
X0100802Y0122049D01*
X0099752Y0121D01*
Y0124149D01*
X0098703Y0120475D02*
X0096604D01*
X0093455Y0123624D02*
X009398Y0124149D01*
X0095029D01*
X0095554Y0123624D01*
Y0121525D01*
X0095029Y0121D01*
X009398D01*
X0093455Y0121525D01*
X0092406Y0121D02*
X0091356D01*
X0091881D01*
Y0124149D01*
X0092406Y0123624D01*
X0102901Y0108624D02*
X0103426Y0109149D01*
X0104475D01*
X0105Y0108624D01*
Y0106525D01*
X0104475Y0106D01*
X0103426D01*
X0102901Y0106525D01*
Y0107574D01*
X0103951D01*
X0101851Y0106D02*
Y0109149D01*
X0099752Y0106D01*
Y0109149D01*
X0098703D02*
Y0106D01*
X0097128D01*
X0096604Y0106525D01*
Y0108624D01*
X0097128Y0109149D01*
X0098703D01*
X0105Y0116149D02*
Y0113D01*
X0103426D01*
X0102901Y0113525D01*
Y0114049D01*
X0103426Y0114574D01*
X0105D01*
X0103426D01*
X0102901Y0115099D01*
Y0115624D01*
X0103426Y0116149D01*
X0105D01*
X0099752Y0113D02*
X0101851D01*
X0099752Y0115099D01*
Y0115624D01*
X0100277Y0116149D01*
X0101327D01*
X0101851Y0115624D01*
X01045Y0101649D02*
Y00985D01*
X0102926D01*
X0102401Y0099025D01*
Y009955D01*
X0102926Y0100074D01*
X01045D01*
X0102926D01*
X0102401Y0100599D01*
Y0101124D01*
X0102926Y0101649D01*
X01045D01*
X0101351Y00985D02*
X0100302D01*
X0100827D01*
Y0101649D01*
X0101351Y0101124D01*
X0079549Y0103624D02*
X0080074Y0104149D01*
X0081124D01*
X0081649Y0103624D01*
Y0101525D01*
X0081124Y0101D01*
X0080074D01*
X0079549Y0101525D01*
Y0102574D01*
X0080599D01*
X00785Y0101D02*
Y0104149D01*
X0076401Y0101D01*
Y0104149D01*
X0075351D02*
Y0101D01*
X0073777D01*
X0073252Y0101525D01*
Y0103624D01*
X0073777Y0104149D01*
X0075351D01*
X00785Y0084149D02*
X0076401D01*
X0077451D01*
Y0081D01*
X0075351Y0084149D02*
X0073252Y0081D01*
Y0084149D02*
X0075351Y0081D01*
X00785Y00915D02*
Y0094649D01*
X0076926D01*
X0076401Y0094124D01*
Y0093074D01*
X0076926Y009255D01*
X00785D01*
X0077451D02*
X0076401Y00915D01*
X0075351Y0094649D02*
X0073252Y00915D01*
Y0094649D02*
X0075351Y00915D01*
X0084272Y0074124D02*
X0083748Y0074649D01*
X0082698D01*
X0082173Y0074124D01*
Y0073599D01*
X0082698Y0073074D01*
X0083223D01*
X0082698D01*
X0082173Y0072549D01*
Y0072025D01*
X0082698Y00715D01*
X0083748D01*
X0084272Y0072025D01*
X0081124Y00715D02*
Y0072025D01*
X0080599D01*
Y00715D01*
X0081124D01*
X00785Y0074124D02*
X0077975Y0074649D01*
X0076926D01*
X0076401Y0074124D01*
Y0073599D01*
X0076926Y0073074D01*
X0077451D01*
X0076926D01*
X0076401Y0072549D01*
Y0072025D01*
X0076926Y00715D01*
X0077975D01*
X00785Y0072025D01*
X0075351Y0074649D02*
Y0072549D01*
X0074302Y00715D01*
X0073252Y0072549D01*
Y0074649D01*
D16*
X00375Y0050295D02*
X0045039D01*
X002496D02*
X00325D01*
X002496Y0037694D02*
X00325D01*
X00375D02*
X0045039D01*
Y0050294D01*
X002496Y0037694D02*
Y0050294D01*
X00852Y00965D02*
Y0104039D01*
Y0083961D02*
Y00915D01*
X00978Y0083961D02*
Y00915D01*
Y00965D02*
Y0104039D01*
X00852D02*
X00978D01*
X00852Y0083961D02*
X00978D01*
X001Y002D02*
X0010087Y0019D01*
X0Y002D02*
X001D01*
X0D02*
Y0021D01*
Y0031D01*
X003D01*
Y0026921D02*
Y0031D01*
X0026134Y0007165D02*
X003D01*
X0026079Y000722D02*
X0026134Y0007165D01*
X0026079Y000722D02*
Y0014921D01*
X0026134Y0014866D01*
X0026055Y0017118D02*
X003D01*
X0026055D02*
Y0024465D01*
X002611Y002452D01*
X003D01*
Y0024567D02*
Y0026921D01*
X0010087Y0012D02*
Y0019D01*
X0000362Y0012D02*
X0010087D01*
X0000362Y000041D02*
Y0012D01*
Y000041D02*
X0000465Y0000307D01*
X003Y0014866D02*
Y0017118D01*
X0026134Y0014866D02*
X003D01*
Y000411D02*
Y0007165D01*
X0027709Y0001819D02*
X003Y000411D01*
X0000465Y0000307D02*
X0026197D01*
X0027709Y0001819D01*
X0061492Y0005608D02*
Y002549D01*
X005539Y0031592D02*
X0061492Y002549D01*
X0041216Y0031592D02*
X005539D01*
X0035508Y0005608D02*
Y0025883D01*
Y0005608D02*
X0061492D01*
X0035508Y0025883D02*
X0041216Y0031592D01*
X00917Y00411D02*
Y00461D01*
X00892Y00436D02*
X00942D01*
X0084491Y00526D02*
X00872D01*
X00762D02*
X0078503D01*
X00807Y00476D02*
X00827Y00476D01*
X0084491Y00476D02*
Y00576D01*
X00807D02*
X00827Y00576D01*
X0079002Y00576D02*
X0079002Y00476D01*
X00827Y00476D02*
Y00576D01*
X00807Y00476D02*
Y00576D01*
D34*
X0080287Y-00005D02*
G03*
X0080287Y-00005I-0000787J0D01*
G01*
D67*
X0062512Y0061576D02*
Y0132442D01*
X0005425Y00616D02*
Y0132442D01*
X0008378Y0114726D02*
X0024126D01*
X0008378Y0067482D02*
X0059374D01*
X0024126Y0114726D02*
Y0130474D01*
X0059374D01*
X0053693Y00616D02*
X0062512D01*
X0014493D02*
Y00666D01*
X0053693D01*
Y00616D02*
Y00666D01*
X0054256Y00616D02*
X0059374D01*
X0057504Y0136403D02*
X0059374D01*
X0057504Y0130498D02*
Y0136403D01*
X0049531Y0130498D02*
X0057504D01*
X0049433Y0130596D02*
X0049531Y0130498D01*
X0049433Y0130596D02*
Y0136305D01*
X0049335Y0136403D02*
X0049433Y0136305D01*
X0018134Y0136403D02*
X0049335D01*
X0008193Y00616D02*
Y0136403D01*
X0010063D01*
Y0130694D02*
Y0136403D01*
Y0130694D02*
X0017937D01*
X0018134Y0130891D01*
Y0136403D01*
X0057528Y0132442D02*
X0062512D01*
X0005425D02*
X0010039D01*
X0010063Y0132466D01*
X0059374Y00616D02*
Y0136403D01*
X0005425Y00616D02*
X0008193D01*
X0014493D01*
X0018134Y0132466D02*
X0049433D01*
X0017313Y0071975D02*
X0017613Y0071825D01*
X0017912Y0071525D01*
X0018062Y0071226D01*
Y0070626D01*
X0017912Y0070326D01*
X0017613Y0070026D01*
X0017313Y0069876D01*
X0016863Y0069726D01*
X0016113D01*
X0015663Y0069876D01*
X0015363Y0070026D01*
X0015063Y0070326D01*
X0014913Y0070626D01*
Y0071226D01*
X0015063Y0071525D01*
X0015363Y0071825D01*
X0015663Y0071975D01*
X0016113D01*
Y0071226D02*
Y0071975D01*
X0018062Y0072695D02*
X0014913D01*
X0018062D02*
X0014913Y0074794D01*
X0018062D02*
X0014913D01*
X0018062Y0075664D02*
X0014913D01*
X0018062D02*
Y0076714D01*
X0017912Y0077163D01*
X0017613Y0077463D01*
X0017313Y0077613D01*
X0016863Y0077763D01*
X0016113D01*
X0015663Y0077613D01*
X0015363Y0077463D01*
X0015063Y0077163D01*
X0014913Y0076714D01*
Y0075664D01*
X0022708Y0070316D02*
X0019559D01*
X0022708Y0070976D02*
X0019559D01*
X0022708D02*
Y0072326D01*
X0022558Y0072776D01*
X0022408Y0072926D01*
X0022108Y0073076D01*
X0021808D01*
X0021508Y0072926D01*
X0021358Y0072776D01*
X0021208Y0072326D01*
Y0070976D01*
Y0072026D02*
X0019559Y0073076D01*
X0022708Y007468D02*
X0022558Y007438D01*
X0022258Y007408D01*
X0021958Y007393D01*
X0021508Y007378D01*
X0020759D01*
X0020309Y007393D01*
X0020009Y007408D01*
X0019709Y007438D01*
X0019559Y007468D01*
Y007528D01*
X0019709Y007558D01*
X0020009Y007588D01*
X0020309Y007603D01*
X0020759Y007618D01*
X0021508D01*
X0021958Y007603D01*
X0022258Y007588D01*
X0022558Y007558D01*
X0022708Y007528D01*
Y007468D01*
X0020159Y007513D02*
X0019259Y007603D01*
X0027865Y0070395D02*
X0024716D01*
X0027865D02*
X0024716Y0071595D01*
X0027865Y0072795D02*
X0024716Y0071595D01*
X0027865Y0072795D02*
X0024716D01*
X0027865Y0073694D02*
X0024716D01*
X0027416Y0076453D02*
X0027716Y0076153D01*
X0027865Y0075704D01*
Y0075104D01*
X0027716Y0074654D01*
X0027416Y0074354D01*
X0027116D01*
X0026816Y0074504D01*
X0026666Y0074654D01*
X0026516Y0074954D01*
X0026216Y0075853D01*
X0026066Y0076153D01*
X0025916Y0076303D01*
X0025616Y0076453D01*
X0025166D01*
X0024867Y0076153D01*
X0024716Y0075704D01*
Y0075104D01*
X0024867Y0074654D01*
X0025166Y0074354D01*
X0027865Y0078058D02*
X0027716Y0077758D01*
X0027416Y0077458D01*
X0027116Y0077308D01*
X0026666Y0077158D01*
X0025916D01*
X0025466Y0077308D01*
X0025166Y0077458D01*
X0024867Y0077758D01*
X0024716Y0078058D01*
Y0078658D01*
X0024867Y0078957D01*
X0025166Y0079257D01*
X0025466Y0079407D01*
X0025916Y0079557D01*
X0026666D01*
X0027116Y0079407D01*
X0027416Y0079257D01*
X0027716Y0078957D01*
X0027865Y0078658D01*
Y0078058D01*
X0032984Y0070198D02*
X0029835D01*
X0032984D02*
X0029835Y0071398D01*
X0032984Y0072598D02*
X0029835Y0071398D01*
X0032984Y0072598D02*
X0029835D01*
X0032984Y0074397D02*
X0032834Y0074097D01*
X0032534Y0073797D01*
X0032234Y0073647D01*
X0031784Y0073497D01*
X0031034D01*
X0030584Y0073647D01*
X0030285Y0073797D01*
X0029985Y0074097D01*
X0029835Y0074397D01*
Y0074997D01*
X0029985Y0075297D01*
X0030285Y0075597D01*
X0030584Y0075747D01*
X0031034Y0075897D01*
X0031784D01*
X0032234Y0075747D01*
X0032534Y0075597D01*
X0032834Y0075297D01*
X0032984Y0074997D01*
Y0074397D01*
X0032534Y007873D02*
X0032834Y0078431D01*
X0032984Y0077981D01*
Y0077381D01*
X0032834Y0076931D01*
X0032534Y0076631D01*
X0032234D01*
X0031934Y0076781D01*
X0031784Y0076931D01*
X0031634Y0077231D01*
X0031334Y0078131D01*
X0031184Y0078431D01*
X0031034Y0078581D01*
X0030734Y007873D01*
X0030285D01*
X0029985Y0078431D01*
X0029835Y0077981D01*
Y0077381D01*
X0029985Y0076931D01*
X0030285Y0076631D01*
X0032984Y0079435D02*
X0029835D01*
X0037573Y0072219D02*
X0037873Y0071919D01*
X0038023Y0071469D01*
Y0070869D01*
X0037873Y007042D01*
X0037573Y007012D01*
X0037273D01*
X0036973Y007027D01*
X0036823Y007042D01*
X0036673Y0070719D01*
X0036373Y0071619D01*
X0036224Y0071919D01*
X0036074Y0072069D01*
X0035774Y0072219D01*
X0035324D01*
X0035024Y0071919D01*
X0034874Y0071469D01*
Y0070869D01*
X0035024Y007042D01*
X0035324Y007012D01*
X0037273Y0075173D02*
X0037573Y0075023D01*
X0037873Y0074723D01*
X0038023Y0074423D01*
Y0073823D01*
X0037873Y0073523D01*
X0037573Y0073224D01*
X0037273Y0073074D01*
X0036823Y0072924D01*
X0036074D01*
X0035624Y0073074D01*
X0035324Y0073224D01*
X0035024Y0073523D01*
X0034874Y0073823D01*
Y0074423D01*
X0035024Y0074723D01*
X0035324Y0075023D01*
X0035624Y0075173D01*
X0038023Y0076058D02*
X0034874D01*
X0038023Y0078157D02*
X0035924Y0076058D01*
X0036673Y0076807D02*
X0034874Y0078157D01*
X004247Y007229D02*
X004277Y007214D01*
X004307Y007184D01*
X004322Y007154D01*
Y0070941D01*
X004307Y0070641D01*
X004277Y0070341D01*
X004247Y0070191D01*
X004202Y0070041D01*
X004127D01*
X0040821Y0070191D01*
X0040521Y0070341D01*
X0040221Y0070641D01*
X0040071Y0070941D01*
Y007154D01*
X0040221Y007184D01*
X0040521Y007214D01*
X0040821Y007229D01*
X004277Y0075274D02*
X004307Y0074974D01*
X004322Y0074524D01*
Y0073925D01*
X004307Y0073475D01*
X004277Y0073175D01*
X004247D01*
X004217Y0073325D01*
X004202Y0073475D01*
X004187Y0073775D01*
X004157Y0074674D01*
X004142Y0074974D01*
X004127Y0075124D01*
X0040971Y0075274D01*
X0040521D01*
X0040221Y0074974D01*
X0040071Y0074524D01*
Y0073925D01*
X0040221Y0073475D01*
X0040521Y0073175D01*
X004322Y0075979D02*
X0040071D01*
X004322D02*
X0040071Y0078078D01*
X004322D02*
X0040071D01*
X0047391Y007229D02*
X0047691Y007214D01*
X0047991Y007184D01*
X0048141Y007154D01*
Y0070941D01*
X0047991Y0070641D01*
X0047691Y0070341D01*
X0047391Y0070191D01*
X0046942Y0070041D01*
X0046192D01*
X0045742Y0070191D01*
X0045442Y0070341D01*
X0045142Y0070641D01*
X0044992Y0070941D01*
Y007154D01*
X0045142Y007184D01*
X0045442Y007214D01*
X0045742Y007229D01*
X0048141Y0075124D02*
Y0073175D01*
X0044992D01*
Y0075124D01*
X0046642Y0073175D02*
Y0074375D01*
X0053102Y0069726D02*
X0049953Y0070926D01*
X0053102Y0072125D02*
X0049953Y0070926D01*
X0052352Y0074779D02*
X0052652Y0074629D01*
X0052952Y0074329D01*
X0053102Y0074029D01*
Y007343D01*
X0052952Y007313D01*
X0052652Y007283D01*
X0052352Y007268D01*
X0051902Y007253D01*
X0051152D01*
X0050703Y007268D01*
X0050403Y007283D01*
X0050103Y007313D01*
X0049953Y007343D01*
Y0074029D01*
X0050103Y0074329D01*
X0050403Y0074629D01*
X0050703Y0074779D01*
X0052352Y0077913D02*
X0052652Y0077763D01*
X0052952Y0077463D01*
X0053102Y0077163D01*
Y0076564D01*
X0052952Y0076264D01*
X0052652Y0075964D01*
X0052352Y0075814D01*
X0051902Y0075664D01*
X0051152D01*
X0050703Y0075814D01*
X0050403Y0075964D01*
X0050103Y0076264D01*
X0049953Y0076564D01*
Y0077163D01*
X0050103Y0077463D01*
X0050403Y0077763D01*
X0050703Y0077913D01*
D68*
X0048941Y0061796D02*
D03*
D69*
X004397Y0061757D02*
D03*
X0038951D02*
D03*
X002398Y0061796D02*
D03*
D70*
X0033931Y0061748D02*
D03*
X002901D02*
D03*
X0018971Y0061747D02*
D03*
M02*
