G04*
G04 #@! TF.GenerationSoftware,Altium Limited,Altium Designer,22.2.1 (43)*
G04*
G04 Layer_Physical_Order=2*
G04 Layer_Color=15428901*
%FSTAX25Y25*%
%MOIN*%
G70*
G04*
G04 #@! TF.SameCoordinates,2F0A99F2-06B0-42B4-AD1F-80CD01153156*
G04*
G04*
G04 #@! TF.FilePolarity,Positive*
G04*
G01*
G75*
%ADD16C,0.01181*%
%ADD17R,0.03500X0.05000*%
%ADD19R,0.13780X0.04016*%
%ADD34C,0.01968*%
%ADD35C,0.01575*%
%ADD36C,0.06299*%
%ADD37C,0.03937*%
%ADD38R,0.06693X0.06693*%
%ADD39C,0.06693*%
%ADD40R,0.07087X0.07087*%
%ADD41C,0.07087*%
%ADD42C,0.02362*%
%ADD43C,0.03150*%
%ADD44C,0.03500*%
%ADD45R,0.07874X0.05906*%
%ADD46R,0.03150X0.07874*%
%ADD47R,0.07874X0.07874*%
%ADD48R,0.05000X0.03500*%
%ADD49R,0.06000X0.10000*%
%ADD50R,0.11000X0.06000*%
%ADD51R,0.24500X0.23000*%
%ADD52R,0.10000X0.06000*%
%ADD53O,0.03937X0.10630*%
%ADD54R,0.03937X0.10630*%
G36*
X010711Y0138404D02*
X0103876Y0135169D01*
X0103781Y0135091D01*
X0103781Y0135091D01*
X0103436Y013473D01*
X0101353Y0132647D01*
X0101002Y0132121D01*
X0100878Y01315D01*
Y0128172D01*
X0094924Y0122217D01*
X0094884Y0122201D01*
X0094149Y0122055D01*
X0093427Y0121572D01*
X0092945Y0120851D01*
X0092776Y012D01*
X0092945Y0119149D01*
X0093427Y0118428D01*
X0094149Y0117946D01*
X0095Y0117776D01*
X0095851Y0117946D01*
X0096573Y0118428D01*
X0097054Y0119149D01*
X0097201Y0119884D01*
X0097217Y0119924D01*
X0103647Y0126353D01*
X0103998Y0126879D01*
X0104122Y01275D01*
Y0130828D01*
X0106246Y0132952D01*
X010725Y0133723D01*
X0108633Y0134296D01*
X0110088Y0134487D01*
X0110118Y0134461D01*
Y0134461D01*
X0110275Y0134492D01*
X0122079D01*
Y0125508D01*
X010711D01*
Y0124609D01*
X0107Y0124128D01*
X0106548Y0124032D01*
X0106379Y0123998D01*
X0105853Y0123647D01*
X0104424Y0122217D01*
X0104384Y0122201D01*
X0103649Y0122055D01*
X0102927Y0121572D01*
X0102445Y0120851D01*
X0102276Y012D01*
X0102445Y0119149D01*
X0102927Y0118428D01*
X0103649Y0117946D01*
X01045Y0117776D01*
X0105351Y0117946D01*
X0106072Y0118428D01*
X0106554Y0119149D01*
X0106619Y0119472D01*
X010711Y0119492D01*
Y0119492D01*
X0122079D01*
Y0118008D01*
X010711D01*
Y0116966D01*
X0106696Y0116634D01*
X0106221Y0116622D01*
X0103014D01*
X0102974Y0116638D01*
X0102351Y0117054D01*
X01015Y0117224D01*
X0100649Y0117054D01*
X0099928Y0116572D01*
X0099445Y0115851D01*
X0099276Y0115D01*
X0099445Y0114149D01*
X0099928Y0113427D01*
X0100649Y0112945D01*
X01015Y0112776D01*
X0102351Y0112945D01*
X0102974Y0113362D01*
X0103014Y0113378D01*
X0106221D01*
X0106696Y0113366D01*
X010711Y0113034D01*
Y0111992D01*
X0122079D01*
Y0103008D01*
X0110472D01*
X0110076Y0103034D01*
X0110059Y0103038D01*
X0109992Y010304D01*
X0109508Y0103062D01*
X0108847Y0103149D01*
X0107927Y0103531D01*
X0107622Y0103765D01*
Y0106D01*
X0107498Y0106621D01*
X0107147Y0107147D01*
X0104602Y0109692D01*
X0104601Y0109694D01*
X010447Y0110351D01*
X0103988Y0111073D01*
X0103267Y0111555D01*
X0102416Y0111724D01*
X0101564Y0111555D01*
X0100843Y0111073D01*
X0100361Y0110351D01*
X0100192Y01095D01*
X0100361Y0108649D01*
X0100843Y0107928D01*
X0101564Y0107446D01*
X0102405Y0107278D01*
X0102407Y0107271D01*
X0102416Y0107268D01*
X0102776Y0106931D01*
X0104378Y0105328D01*
Y0103D01*
X0104502Y0102379D01*
X0104853Y0101853D01*
X0104853Y0101853D01*
X0104853Y0101853D01*
X0104851Y0101851D01*
X0104874Y0101833D01*
X0106757Y0099949D01*
X0106752Y0099944D01*
X01068Y0099906D01*
X010711Y0099596D01*
Y0096992D01*
X0122079D01*
Y0071714D01*
X0121579Y0071563D01*
X0121572Y0071573D01*
X0120851Y0072054D01*
X012Y0072224D01*
X0119149Y0072054D01*
X0118428Y0071573D01*
X0117946Y0070851D01*
X0117776Y007D01*
X0117946Y0069149D01*
X0117977Y0069102D01*
Y0048398D01*
X0117946Y0048351D01*
X0117776Y00475D01*
X0117946Y0046649D01*
X0118428Y0045928D01*
X0119149Y0045445D01*
X012Y0045276D01*
X0120851Y0045445D01*
X0121572Y0045928D01*
X0121579Y0045937D01*
X0122079Y0045786D01*
Y0026878D01*
X0121785Y00265D01*
X010798D01*
X0107785Y0026526D01*
Y0026526D01*
X0107775Y0026516D01*
X0106042Y0026653D01*
X0104341Y0027061D01*
X0102726Y002773D01*
X0101235Y0028644D01*
X0100002Y0029697D01*
X0099707Y0029992D01*
X009954Y0030183D01*
X0099528Y0030171D01*
X0094537Y0035162D01*
Y0048057D01*
X0096086D01*
Y0057143D01*
X0094605D01*
X0094153Y0057352D01*
X0094139Y0057831D01*
Y0061058D01*
X0094051Y006173D01*
X0093792Y0062356D01*
X0093379Y0062894D01*
X0090357Y0065916D01*
Y00735D01*
X009051D01*
Y0077581D01*
X0090532Y007775D01*
X0090532D01*
X0090532Y007775D01*
X0090644Y0078313D01*
X0090702Y0078399D01*
X0090964Y0078791D01*
X0091303Y007913D01*
X0093336Y0081164D01*
X0093749Y0081701D01*
X0094008Y0082328D01*
X0094097Y0083D01*
Y0084291D01*
X00975D01*
Y0092291D01*
X00855D01*
Y0084291D01*
X0088411D01*
X0088619Y0083791D01*
X0087291Y0082464D01*
X0087284Y0082471D01*
X008722Y0082392D01*
X0085924Y0081097D01*
X0085511Y0080559D01*
X0085487Y00805D01*
X008501D01*
Y00735D01*
X0085163D01*
Y0067597D01*
X0070097D01*
Y0068198D01*
X0070106D01*
X0070104Y0068211D01*
X0070193Y0068657D01*
X0070438Y0069024D01*
X007046Y0069041D01*
X0071125Y0069907D01*
X0071543Y0070917D01*
X0071685Y0072D01*
X0071543Y0073083D01*
X0071125Y0074093D01*
X007046Y0074959D01*
X0069593Y0075625D01*
X0068583Y0076043D01*
X00675Y0076185D01*
X0066417Y0076043D01*
X0065407Y0075625D01*
X006454Y0074959D01*
X0063875Y0074093D01*
X0063457Y0073083D01*
X0063315Y0072D01*
X0063457Y0070917D01*
X0063875Y0069907D01*
X006454Y0069041D01*
X0064562Y0069024D01*
X0064807Y0068657D01*
X0064896Y0068211D01*
X0064894Y0068198D01*
X0064903D01*
Y0067597D01*
X0054097D01*
Y0078047D01*
X0054597Y0078314D01*
X0054849Y0078145D01*
X00557Y0077976D01*
X0056551Y0078145D01*
X0057272Y0078628D01*
X0057754Y0079349D01*
X0057901Y0080084D01*
X0057917Y0080124D01*
X0064278Y0086485D01*
X0064283Y008648D01*
X0064324Y0086531D01*
X0064387Y0086594D01*
X0065212Y0087226D01*
X0066316Y0087684D01*
X0067405Y0087827D01*
X00675Y0087815D01*
X0068583Y0087957D01*
X0069593Y0088375D01*
X007046Y008904D01*
X0071125Y0089907D01*
X0071543Y0090917D01*
X0071685Y0092D01*
X0071543Y0093083D01*
X0071125Y0094093D01*
X007046Y0094959D01*
X0069593Y0095625D01*
X0068583Y0096043D01*
X00675Y0096185D01*
X0066417Y0096043D01*
X0065407Y0095625D01*
X006454Y0094959D01*
X0063875Y0094093D01*
X0063457Y0093083D01*
X0063315Y0092D01*
X0063327Y0091905D01*
X0063184Y0090816D01*
X0062726Y0089712D01*
X0062094Y0088887D01*
X0062031Y0088824D01*
X006198Y0088783D01*
X0061985Y0088778D01*
X0055624Y0082417D01*
X0055584Y0082401D01*
X0054849Y0082254D01*
X0054597Y0082086D01*
X0054097Y0082354D01*
Y0088D01*
Y0112424D01*
X0063836Y0122164D01*
X0064249Y0122702D01*
X0064508Y0123328D01*
X0064597Y0124D01*
X0064508Y0124672D01*
X0064249Y0125299D01*
X0063836Y0125836D01*
X0063298Y0126249D01*
X0062672Y0126508D01*
X0062Y0126597D01*
X0061328Y0126508D01*
X0060702Y0126249D01*
X0060164Y0125836D01*
X0049664Y0115336D01*
X0049251Y0114798D01*
X0048992Y0114172D01*
X0048903Y01135D01*
Y0090597D01*
X00443D01*
X0043628Y0090509D01*
X0043122Y0090299D01*
X0042622Y0090523D01*
Y0091286D01*
X0042638Y0091326D01*
X0043055Y0091949D01*
X0043224Y00928D01*
X0043055Y0093651D01*
X0042573Y0094372D01*
X0041913Y0094813D01*
X0041721Y0095282D01*
X0041711Y0095317D01*
X0043476Y0097083D01*
X0043516Y0097099D01*
X0044251Y0097246D01*
X0044973Y0097728D01*
X0045455Y0098449D01*
X0045624Y00993D01*
X0045455Y0100151D01*
X0044973Y0100873D01*
X0044251Y0101355D01*
X00434Y0101524D01*
X0042672Y0101379D01*
X0042507Y0101486D01*
X0042386Y0101607D01*
X0042279Y0101772D01*
X0042424Y01025D01*
X0042255Y0103351D01*
X0041772Y0104072D01*
X0041051Y0104554D01*
X00402Y0104724D01*
X0039349Y0104554D01*
X0038627Y0104072D01*
X0038145Y0103351D01*
X0037999Y0102616D01*
X0037983Y0102576D01*
X0033887Y0098481D01*
X0033536Y0097954D01*
X0033412Y0097334D01*
Y0096231D01*
X003295Y009604D01*
X0029816Y0099175D01*
X0029799Y0099214D01*
X0029653Y009995D01*
X0029171Y0100671D01*
X0028449Y0101153D01*
X0027598Y0101322D01*
X0026747Y0101153D01*
X0026026Y0100671D01*
X0025544Y009995D01*
X0025375Y0099098D01*
X0025544Y0098247D01*
X0026026Y0097526D01*
X0026747Y0097044D01*
X0027144Y0096965D01*
X0027263Y0096765D01*
X0027014Y0096206D01*
X0026747Y0096153D01*
X0026026Y0095671D01*
X0025544Y009495D01*
X0025375Y0094098D01*
X0025544Y0093247D01*
X0026026Y0092526D01*
X0026747Y0092044D01*
X0027483Y0091898D01*
X0027522Y0091881D01*
X002905Y0090354D01*
Y0085582D01*
X0028609Y0085346D01*
X0028449Y0085453D01*
X0027598Y0085622D01*
X0026747Y0085453D01*
X0026026Y0084971D01*
X0025544Y008425D01*
X0025398Y0083514D01*
X0025381Y0083475D01*
X0007854Y0065947D01*
X0007502Y0065421D01*
X0007379Y00648D01*
Y0051016D01*
X0007372Y005054D01*
X0006881Y005049D01*
X0005523D01*
Y0066662D01*
X0014296Y0075434D01*
X0014351Y0075445D01*
X0015073Y0075928D01*
X0015555Y0076649D01*
X0015724Y00775D01*
X0015555Y0078351D01*
X0015523Y0078398D01*
Y0099102D01*
X0015555Y0099149D01*
X0015724Y01D01*
X0015555Y0100851D01*
X0015523Y0100898D01*
Y0121602D01*
X0015555Y0121649D01*
X0015724Y01225D01*
X0015555Y0123351D01*
X0015073Y0124073D01*
X0014351Y0124555D01*
X00135Y0124724D01*
X0012649Y0124555D01*
X0011928Y0124073D01*
X0011445Y0123351D01*
X0011276Y01225D01*
X0011445Y0121649D01*
X0011477Y0121602D01*
Y0100898D01*
X0011445Y0100851D01*
X0011276Y01D01*
X0011445Y0099149D01*
X0011477Y0099102D01*
Y0078398D01*
X0011445Y0078351D01*
X0011434Y0078295D01*
X0002069Y0068931D01*
X0001921Y0068708D01*
X0001421Y006886D01*
Y0139579D01*
X010711D01*
Y0138404D01*
D02*
G37*
G36*
X002905Y0081215D02*
Y0080343D01*
X0020353Y0071647D01*
X0020002Y0071121D01*
X0019878Y00705D01*
Y0066537D01*
X0018925D01*
Y00575D01*
X0017D01*
Y00555D01*
X0026304D01*
X0026629Y0055D01*
X0026491Y0054667D01*
X0026403Y0053994D01*
Y0050618D01*
X0026391Y0050138D01*
X0025903Y0049994D01*
X0025291D01*
Y0046154D01*
X0025164Y0046102D01*
X0024526Y0046018D01*
X00225D01*
Y005049D01*
X00155D01*
Y0049563D01*
X00125D01*
Y005049D01*
X001112D01*
X0010629Y005054D01*
X0010622Y0051016D01*
Y0064129D01*
X0027675Y0081181D01*
X0027714Y0081198D01*
X0028449Y0081344D01*
X0028609Y008145D01*
X002905Y0081215D01*
D02*
G37*
G36*
X0054649Y0051946D02*
X0055125Y0051851D01*
X0057285Y0049691D01*
X005712Y0049148D01*
X0056649Y0049055D01*
X0055927Y0048572D01*
X0055445Y0047851D01*
X0055276Y0047D01*
X0055445Y0046149D01*
X0055862Y0045526D01*
X0055878Y0045486D01*
Y0027465D01*
X0052035Y0023622D01*
X005153D01*
X0051468Y0024096D01*
X0051468D01*
Y0029616D01*
X0051494Y0029811D01*
X0051468Y0030006D01*
Y0036726D01*
X0045531D01*
Y0032994D01*
X0038189D01*
X0037414Y0032892D01*
X0036692Y0032593D01*
X0036072Y0032117D01*
X0030809Y0026854D01*
X0030799Y0026864D01*
X0030706Y0026751D01*
X0029238Y0025284D01*
X0028865Y0025235D01*
X0027808Y0024797D01*
X00269Y00241D01*
X0026203Y0023192D01*
X0025765Y0022135D01*
X0025616Y0021D01*
X0025765Y0019865D01*
X0026203Y0018808D01*
X00269Y00179D01*
X0027808Y0017203D01*
X0028865Y0016765D01*
X003Y0016616D01*
X0031135Y0016765D01*
X0032192Y0017203D01*
X00331Y00179D01*
X0033797Y0018808D01*
X0034235Y0019865D01*
X0034384Y0021D01*
X0034371Y0021096D01*
X0034528Y0021884D01*
X0034763Y0022236D01*
X0035043Y002262D01*
X0035383Y0022959D01*
X0039429Y0027006D01*
X0045531D01*
Y0024785D01*
X0045233Y0024647D01*
X0045031Y00246D01*
X0044351Y0025055D01*
X00435Y0025224D01*
X0042649Y0025055D01*
X0041927Y0024573D01*
X0041445Y0023851D01*
X0041276Y0023D01*
X0041445Y0022149D01*
X0041927Y0021428D01*
X0042649Y0020945D01*
X0043482Y002078D01*
X0043484Y0020774D01*
X00435Y0020767D01*
X0043859Y0020427D01*
X0045315Y0018972D01*
X0045086Y0018493D01*
X0044522Y0018419D01*
X0043853Y0018142D01*
X0043416Y0017806D01*
X0043075Y0017665D01*
X0042455Y001719D01*
X0039383Y0014117D01*
X0038907Y0013497D01*
X0038608Y0012775D01*
X0038506Y0012D01*
Y000924D01*
X003616Y0006894D01*
X0008194D01*
Y0010506D01*
X00102D01*
X0010975Y0010608D01*
X0011697Y0010907D01*
X0012317Y0011383D01*
X0012793Y0012003D01*
X0013092Y0012725D01*
X0013194Y00135D01*
X0013092Y0014275D01*
X0012793Y0014997D01*
X0012317Y0015617D01*
X0011697Y0016093D01*
X0010975Y0016392D01*
X00102Y0016494D01*
X0005866D01*
Y0036573D01*
X0006804Y003751D01*
X00125D01*
Y0041971D01*
X0024526D01*
X0025164Y0041887D01*
X0025291Y0041835D01*
Y0037994D01*
X0033291D01*
Y0049994D01*
X0031618D01*
X0031597Y00501D01*
Y0051397D01*
X0048903D01*
Y0050484D01*
X0047499D01*
Y0044984D01*
X0054499D01*
Y0050484D01*
X0054097D01*
Y0051784D01*
X0054538Y005202D01*
X0054649Y0051946D01*
D02*
G37*
G36*
X0088946Y0059982D02*
Y0057831D01*
X0088932Y0057352D01*
X0088481Y0057143D01*
X0086999D01*
Y0048057D01*
X0088548D01*
Y0033922D01*
X008865Y0033147D01*
X008895Y0032425D01*
X0089425Y0031805D01*
X0089637Y0031593D01*
X0091209Y0029801D01*
X0092699Y0027571D01*
X0093885Y0025165D01*
X0094748Y0022625D01*
X0095271Y0019994D01*
X0095285Y0019774D01*
Y00015D01*
X0094818Y0001421D01*
X0039851D01*
X0039655Y0001921D01*
X0043617Y0005883D01*
X0044093Y0006503D01*
X0044392Y0007225D01*
X0044494Y0008D01*
Y001076D01*
X004669Y0012955D01*
X0046698Y0012966D01*
X00685D01*
X006868Y001299D01*
X0072D01*
Y0015317D01*
X0074219Y0017537D01*
X0075099Y0018212D01*
X007622Y0018676D01*
X0077409Y0018833D01*
X0077423Y0018821D01*
Y0018821D01*
X0077603Y0018845D01*
X0086423D01*
Y0026845D01*
X0078995D01*
X0078945Y0027345D01*
X0079451Y0027445D01*
X0080172Y0027928D01*
X0080655Y0028649D01*
X0080816Y0029461D01*
X0080824Y00295D01*
X0081265Y0029843D01*
X00816Y0029776D01*
X0082451Y0029945D01*
X0083173Y0030428D01*
X0083654Y0031149D01*
X0083824Y0032D01*
X0083654Y0032851D01*
X0083238Y0033474D01*
X0083222Y0033514D01*
Y0059486D01*
X0083238Y0059526D01*
X0083654Y0060149D01*
X0083824Y0061D01*
X0083654Y0061851D01*
X008358Y0061962D01*
X0083816Y0062403D01*
X0086524D01*
X0088946Y0059982D01*
D02*
G37*
%LPC*%
G36*
X00845Y0126224D02*
X0083649Y0126055D01*
X0082928Y0125573D01*
X0082446Y0124851D01*
X0082299Y0124116D01*
X0082283Y0124076D01*
X0074924Y0116717D01*
X0074884Y0116701D01*
X0074149Y0116554D01*
X0073427Y0116072D01*
X0072945Y0115351D01*
X0072776Y01145D01*
X0072945Y0113649D01*
X0073427Y0112927D01*
X0074149Y0112445D01*
X0075Y0112276D01*
X0075851Y0112445D01*
X0076573Y0112927D01*
X0077055Y0113649D01*
X0077201Y0114384D01*
X0077217Y0114424D01*
X0084576Y0121783D01*
X0084616Y0121799D01*
X0085351Y0121946D01*
X0086072Y0122427D01*
X0086554Y0123149D01*
X0086724Y0124D01*
X0086554Y0124851D01*
X0086072Y0125573D01*
X0085351Y0126055D01*
X00845Y0126224D01*
D02*
G37*
G36*
X00675Y0086185D02*
X0066417Y0086043D01*
X0065407Y0085625D01*
X006454Y008496D01*
X0063875Y0084093D01*
X0063457Y0083083D01*
X0063331Y0082124D01*
X0062619Y0081412D01*
X0062602Y0081398D01*
X0062603Y0081397D01*
X0060702Y0079495D01*
X0060575Y0079391D01*
X0060587Y007938D01*
X0059124Y0077917D01*
X0059084Y0077901D01*
X0058349Y0077754D01*
X0057627Y0077272D01*
X0057146Y0076551D01*
X0056976Y00757D01*
X0057146Y0074849D01*
X0057627Y0074128D01*
X0058349Y0073646D01*
X00592Y0073476D01*
X0060051Y0073646D01*
X0060773Y0074128D01*
X0061255Y0074849D01*
X006138Y007525D01*
X0061507Y0075437D01*
X0061482Y0075475D01*
X0061754Y0075656D01*
X0062019Y0076053D01*
X0062271Y007626D01*
X0063898Y0077129D01*
X0065664Y0077665D01*
X0067365Y0077832D01*
X00675Y0077815D01*
X0068583Y0077957D01*
X0069593Y0078375D01*
X007046Y007904D01*
X0071125Y0079907D01*
X0071543Y0080917D01*
X0071685Y0082D01*
X0071543Y0083083D01*
X0071125Y0084093D01*
X007046Y008496D01*
X0069593Y0085625D01*
X0068583Y0086043D01*
X00675Y0086185D01*
D02*
G37*
%LPD*%
D16*
X0073018Y0043682D02*
G03*
X00726Y0042674I0001008J-0001008D01*
G01*
D02*
G03*
X0072182Y0043682I-0001426J0D01*
G01*
X00402Y0101909D02*
G03*
X0039192Y0101492I0J-0001426D01*
G01*
D02*
G03*
X0039609Y01025I-0001008J0001008D01*
G01*
X0027598Y0082808D02*
G03*
X002659Y008239I0J-0001426D01*
G01*
D02*
G03*
X0027008Y0083398I-0001008J0001008D01*
G01*
X00557Y0080791D02*
G03*
X0056708Y0081208I0J0001426D01*
G01*
D02*
G03*
X0056291Y00802I0001008J-0001008D01*
G01*
X00434Y0098709D02*
G03*
X0042392Y0098292I0J-0001426D01*
G01*
D02*
G03*
X0042809Y00993I-0001008J0001008D01*
G01*
X0041418Y0092382D02*
G03*
X0041Y0091374I0001008J-0001008D01*
G01*
D02*
G03*
X0040582Y0092382I-0001426J0D01*
G01*
X0060269Y0022591D02*
G03*
X0061277Y0023008I0J0001426D01*
G01*
D02*
G03*
X006086Y0022I0001008J-0001008D01*
G01*
X0057918Y0046582D02*
G03*
X00575Y0045574I0001008J-0001008D01*
G01*
D02*
G03*
X0057082Y0046582I-0001426J0D01*
G01*
X005609Y0054D02*
G03*
X0056671Y0052598I0001983J0D01*
G01*
X0095Y0120591D02*
G03*
X0096008Y0121008I0J0001426D01*
G01*
D02*
G03*
X0095591Y012I0001008J-0001008D01*
G01*
X01045Y0120591D02*
G03*
X0105508Y0121008I0J0001426D01*
G01*
D02*
G03*
X0105091Y012I0001008J-0001008D01*
G01*
X0103006Y01095D02*
G03*
X0103364Y0108636I0001222J0D01*
G01*
X0103568Y0108432D02*
G03*
X0102416Y0108909I-0001152J-0001152D01*
G01*
X0062718Y0055682D02*
G03*
X00623Y0054674I0001008J-0001008D01*
G01*
D02*
G03*
X0061882Y0055682I-0001426J0D01*
G01*
X0079018Y0057082D02*
G03*
X00786Y0056074I0001008J-0001008D01*
G01*
D02*
G03*
X0078182Y0057082I-0001426J0D01*
G01*
X0028189Y0094098D02*
G03*
X0028607Y009309I0001426J0D01*
G01*
D02*
G03*
X0027598Y0093508I-0001008J-0001008D01*
G01*
X0028189Y0099098D02*
G03*
X0028607Y009809I0001426J0D01*
G01*
D02*
G03*
X0027598Y0098508I-0001008J-0001008D01*
G01*
X0075Y0115091D02*
G03*
X0076008Y0115508I0J0001426D01*
G01*
D02*
G03*
X007559Y01145I0001008J-0001008D01*
G01*
X00845Y0123409D02*
G03*
X0083492Y0122992I0J-0001426D01*
G01*
D02*
G03*
X0083909Y0124I-0001008J0001008D01*
G01*
X00592Y0076291D02*
G03*
X0060208Y0076708I0J0001426D01*
G01*
D02*
G03*
X005979Y00757I0001008J-0001008D01*
G01*
X0060608Y0076803D02*
G03*
X0059778Y0075581I0001061J-0001612D01*
G01*
X0044091Y0023D02*
G03*
X0044451Y0022129I0001232J0D01*
G01*
X0044645Y0021935D02*
G03*
X00435Y002241I-0001145J-0001145D01*
G01*
X0048918Y0022418D02*
G03*
X0049926Y0022I0001008J0001008D01*
G01*
D02*
G03*
X0048918Y0021582I0J-0001426D01*
G01*
X0059567Y0058282D02*
G03*
X005915Y0057274I0001008J-0001008D01*
G01*
D02*
G03*
X0058732Y0058282I-0001426J0D01*
G01*
X0101918Y0115418D02*
G03*
X0102926Y0115I0001008J0001008D01*
G01*
D02*
G03*
X0101918Y0114582I0J-0001426D01*
G01*
X0082018Y0060582D02*
G03*
X00816Y0059574I0001008J-0001008D01*
G01*
D02*
G03*
X0081182Y0060582I-0001426J0D01*
G01*
X0075182Y0032418D02*
G03*
X00756Y0033426I-0001008J0001008D01*
G01*
D02*
G03*
X0076018Y0032418I0001426J0D01*
G01*
X0081182D02*
G03*
X00816Y0033426I-0001008J0001008D01*
G01*
D02*
G03*
X0082018Y0032418I0001426J0D01*
G01*
X0078182Y0029918D02*
G03*
X00786Y0030926I-0001008J0001008D01*
G01*
D02*
G03*
X0079018Y0029918I0001426J0D01*
G01*
X0072182D02*
G03*
X00726Y0030926I-0001008J0001008D01*
G01*
D02*
G03*
X0073018Y0029918I0001426J0D01*
G01*
X0045804Y0064658D02*
G03*
X00465Y0066338I-000168J000168D01*
G01*
D02*
G03*
X0047196Y0064658I0002376J0D01*
G01*
X0040804D02*
G03*
X00415Y0066338I-000168J000168D01*
G01*
D02*
G03*
X0042196Y0064658I0002376J0D01*
G01*
X0030804D02*
G03*
X00315Y0066338I-000168J000168D01*
G01*
D02*
G03*
X0032196Y0064658I0002376J0D01*
G01*
X0025804D02*
G03*
X00265Y0066338I-000168J000168D01*
G01*
D02*
G03*
X0027196Y0064658I0002376J0D01*
G01*
X0020804D02*
G03*
X00215Y0066338I-000168J000168D01*
G01*
D02*
G03*
X0022196Y0064658I0002376J0D01*
G01*
X0110118Y0137264D02*
G03*
X0106953Y0135953I0J-0004477D01*
G01*
X0110118Y0136083D02*
G03*
X0104936Y0133936I0J-0007328D01*
G01*
X010905Y0121568D02*
G03*
X0107Y01225I-000205J-0001789D01*
G01*
D02*
G03*
X010905Y0123432I0J0002721D01*
G01*
X0109116Y0113998D02*
G03*
X0106696Y0115I-000242J-000242D01*
G01*
D02*
G03*
X0109116Y0116002I0J0003422D01*
G01*
X0107904Y0101096D02*
G03*
X0110108Y0100236I0002083J0002083D01*
G01*
X0106Y0103D02*
G03*
X0110059Y0101416I0003835J0003835D01*
G01*
X000818Y004856D02*
G03*
X0009Y005054I-0001979J0001979D01*
G01*
D02*
G03*
X000982Y004856I0002799J0D01*
G01*
X00675Y0081803D02*
G03*
X006375Y008025I0J-0005304D01*
G01*
X00675Y0080622D02*
G03*
X0061734Y0078233I0J-0008155D01*
G01*
X00675Y0079441D02*
G03*
X0059717Y0076217I0J-0011006D01*
G01*
X00675Y0090622D02*
G03*
X0065148Y0089648I0J-0003327D01*
G01*
X00675Y0089441D02*
G03*
X0063131Y0087631I0J-0006178D01*
G01*
X0065148Y0089648D02*
G03*
X0066122Y0092I-0002352J0002352D01*
G01*
X0063131Y0087631D02*
G03*
X0064941Y0092I-0004369J0004369D01*
G01*
X00726Y00295D02*
Y00441D01*
X0106Y0103D02*
Y0106D01*
X01025Y01095D02*
X0106Y0106D01*
Y0103D02*
X0109Y01D01*
X0075Y01145D02*
X00845Y0124D01*
X0009Y0047741D02*
Y00648D01*
X00315Y00616D02*
Y0072916D01*
X0018999Y0047741D02*
X0019Y004774D01*
X01025Y01275D02*
Y01315D01*
X01085Y01375D01*
X0095Y012D02*
X01025Y01275D01*
X0109Y01D02*
X0115D01*
X010145Y0115D02*
X0115D01*
X01085Y01375D02*
X0115D01*
X00816Y0032D02*
Y0061D01*
X00623Y00535D02*
Y00561D01*
X005915Y0053204D02*
Y00587D01*
X00485Y0022D02*
X0052706D01*
X00435Y002308D02*
X0047352Y0019228D01*
X0053019D01*
X00215Y00616D02*
Y00705D01*
X00265Y00616D02*
Y0071D01*
X00381Y0079015D02*
Y0094D01*
X00435Y00994D01*
X0041Y00792D02*
Y00928D01*
X00415Y00616D02*
Y00665D01*
X0009Y00648D02*
X0027598Y0083398D01*
X00215Y00705D02*
X0030672Y0079672D01*
Y0091025D01*
X0027598Y0094098D02*
X0030672Y0091025D01*
X0027598Y0099098D02*
X0032853Y0093844D01*
Y0077353D02*
Y0093844D01*
X00265Y0071D02*
X0032853Y0077353D01*
X00315Y0072916D02*
X0035034Y0076449D01*
Y0087051D01*
Y0097334D01*
X00402Y01025D01*
X00415Y00665D02*
X00439Y00689D01*
Y0073216D01*
X00381Y0079015D02*
X00439Y0073216D01*
X00465Y00616D02*
Y00737D01*
X0041Y00792D02*
X00465Y00737D01*
X00655Y0082D02*
X00675D01*
X00592Y00757D02*
X00655Y0082D01*
X00557Y00802D02*
X00675Y0092D01*
X00786Y00295D02*
Y00575D01*
X00739Y0047D02*
X00756Y00453D01*
Y0032D02*
Y00453D01*
X00623Y00535D02*
X00688Y0047D01*
X00739D01*
X0052706Y0022D02*
X00575Y0026794D01*
Y0047D01*
X0060269Y0022D02*
X00625Y0024231D01*
Y0049854D01*
X005915Y0053204D02*
X00625Y0049854D01*
X0053019Y0019228D02*
X0060319Y0026528D01*
Y004895D01*
X00555Y0053769D02*
X0060319Y004895D01*
X01045Y012D02*
X0107Y01225D01*
X0115D01*
X0004244Y0014456D02*
X00052Y00135D01*
X0004244Y0014456D02*
Y0037244D01*
X000726Y004026D01*
X0009D01*
D17*
X008776Y0077D02*
D03*
X009524D02*
D03*
D19*
X0115Y01D02*
D03*
Y01075D02*
D03*
Y0115D02*
D03*
Y01225D02*
D03*
Y013D02*
D03*
Y01375D02*
D03*
D34*
X0027866Y0042569D02*
G03*
X0024425Y0043994I-0003441J-0003441D01*
G01*
D02*
G03*
X0027866Y004542I0J0004866D01*
G01*
X00035Y00447D02*
Y00475D01*
Y00447D02*
X0004206Y0043994D01*
X0026494D01*
X00035Y00475D02*
Y00675D01*
X00135Y00775D01*
X012Y00475D02*
Y007D01*
X00135Y00775D02*
Y01D01*
Y01225D01*
D35*
X0035943Y0064519D02*
G03*
X00365Y0065863I-0001344J0001344D01*
G01*
D02*
G03*
X0037057Y0064519I0001901J0D01*
G01*
X0010431Y0048421D02*
G03*
X0012074Y0047741I0001643J0001643D01*
G01*
D02*
G03*
X0010431Y004706I0J-0002324D01*
G01*
X0017569Y0047059D02*
G03*
X0015924Y0047741I-0001645J-0001645D01*
G01*
X0015927D02*
G03*
X0017569Y0048421I0J0002322D01*
G01*
X0009Y0047741D02*
X0018999D01*
X00365Y00616D02*
Y0067D01*
X0041Y00715D01*
D36*
X00675Y0102D02*
D03*
Y0092D02*
D03*
Y0082D02*
D03*
Y0072D02*
D03*
D37*
X0102219Y0014562D02*
G03*
X0097411Y0028054I-0016622J0001679D01*
G01*
X0098302Y0014958D02*
G03*
X0091544Y0033921I-0023362J0002359D01*
G01*
X0097795Y002767D02*
G03*
X0107785Y0023531I0009991J0009991D01*
G01*
X0092656Y0051486D02*
G03*
X0091543Y0048798I0002688J-0002688D01*
G01*
D02*
G03*
X0090429Y0051486I-0003802J0D01*
G01*
X0032926Y0024737D02*
G03*
X0031378Y0021I0003737J-0003737D01*
G01*
X003D02*
Y0021811D01*
X0038189Y003D01*
X0048311D01*
X00485Y0029811D01*
X0091543Y0033922D02*
Y00526D01*
Y0033922D02*
X0108535Y0016929D01*
Y0014D02*
Y0016929D01*
X00052Y00039D02*
X00374D01*
X00415Y0008D01*
Y0012D01*
X0044572Y0015072D01*
X0075605Y0022845D02*
X0079923D01*
X00052Y00039D02*
Y00135D01*
X00102D01*
D38*
X003Y0011D02*
D03*
D39*
Y0021D02*
D03*
D40*
X0091543Y00526D02*
D03*
D41*
X0071858D02*
D03*
D42*
X00675Y0101D02*
D03*
X00985Y0133D02*
D03*
X00935Y0128D02*
D03*
X00835Y0113D02*
D03*
X00785Y0108D02*
D03*
X00585Y0098D02*
D03*
Y0088D02*
D03*
X00935Y0068D02*
D03*
X00985D02*
D03*
Y0058D02*
D03*
X0091Y0023D02*
D03*
X00985Y00355D02*
D03*
X01185Y0028D02*
D03*
X0066Y0003D02*
D03*
X00535Y00305D02*
D03*
X00185Y0028D02*
D03*
X00285Y0033D02*
D03*
X00235Y0053D02*
D03*
X0035Y00495D02*
D03*
X00215Y00155D02*
D03*
X00405Y00355D02*
D03*
X0005Y009D02*
D03*
Y0095D02*
D03*
X00185Y0115D02*
D03*
X00735Y0123D02*
D03*
X0038Y01155D02*
D03*
X00345Y0119D02*
D03*
X0103Y00985D02*
D03*
X0104Y00855D02*
D03*
Y0074D02*
D03*
X0086Y00345D02*
D03*
X00365Y00165D02*
D03*
X0024Y00475D02*
D03*
X00235Y01355D02*
D03*
X0025Y01305D02*
D03*
X00785Y0123D02*
D03*
X01075Y01275D02*
D03*
X0114Y0095D02*
D03*
Y00845D02*
D03*
X00985Y00945D02*
D03*
X0106Y0028D02*
D03*
X00895Y00275D02*
D03*
X0062Y0008D02*
D03*
X0103Y01035D02*
D03*
X01058Y0111D02*
D03*
X00726Y00295D02*
D03*
X00786D02*
D03*
X00816Y0032D02*
D03*
X00756D02*
D03*
X00816Y0061D02*
D03*
X01015Y0115D02*
D03*
X0062Y0124D02*
D03*
X005915Y00587D02*
D03*
X00485Y0022D02*
D03*
X00435Y0023D02*
D03*
X00592Y00757D02*
D03*
X00443Y0088D02*
D03*
X00845Y0124D02*
D03*
X0075Y01145D02*
D03*
X012Y00475D02*
D03*
Y007D02*
D03*
X0027598Y0099098D02*
D03*
Y0094098D02*
D03*
X00786Y00575D02*
D03*
X00623Y00561D02*
D03*
X00102Y00135D02*
D03*
X00052D02*
D03*
X00035Y00475D02*
D03*
X0102416Y01095D02*
D03*
X00135Y00775D02*
D03*
Y01D02*
D03*
Y01225D02*
D03*
X01045Y012D02*
D03*
X0095D02*
D03*
X00555Y0054D02*
D03*
X00575Y0047D02*
D03*
X0060269Y0022D02*
D03*
X0041Y00928D02*
D03*
X00434Y00993D02*
D03*
X0041Y00715D02*
D03*
X00557Y00802D02*
D03*
X0027598Y0083398D02*
D03*
X00402Y01025D02*
D03*
X00726Y00441D02*
D03*
D43*
X0054005Y0065D02*
G03*
X00515Y0063962I0J-0003543D01*
G01*
X0092508Y0087284D02*
G03*
X00915Y0084851I0002433J-0002433D01*
G01*
D02*
G03*
X0090492Y0087284I-0003441J0D01*
G01*
X0089127Y0080627D02*
G03*
X0087935Y007775I0002878J-0002878D01*
G01*
X0068613Y0070886D02*
G03*
X00675Y0068198I0002688J-0002688D01*
G01*
D02*
G03*
X0066386Y0070886I-0003802J0D01*
G01*
X0029Y0050138D02*
G03*
X0030299Y0047002I0004435J0D01*
G01*
X0090151Y0053992D02*
G03*
X0091543Y0057352I-000336J000336D01*
G01*
D02*
G03*
X0092935Y0053992I0004752J0D01*
G01*
X0091543Y00526D02*
Y0061058D01*
X0050999Y0047734D02*
X00515Y0048235D01*
Y0053994D01*
Y00616D01*
X0029Y0053994D02*
X00515D01*
X0029Y0044286D02*
Y0053994D01*
Y0044286D02*
X0029291Y0043994D01*
X00876Y0065D02*
X0091543Y0061058D01*
X00876Y0065D02*
X008776Y006516D01*
Y007926D02*
X00915Y0083D01*
Y0085291D01*
X00515Y00616D02*
Y0065D01*
Y0088D01*
X00675Y0065D02*
X00876D01*
X00675D02*
Y0072D01*
X00515Y0065D02*
X00675D01*
X008776Y006516D02*
Y0077D01*
Y007926D01*
X00515Y01135D02*
X0062Y0124D01*
X00515Y0088D02*
Y01135D01*
X00443Y0088D02*
X00515D01*
D44*
X0077423Y0021595D02*
G03*
X0072185Y0019425I0J-0007407D01*
G01*
X00685Y001574D02*
X0075605Y0022845D01*
X004524Y001574D02*
X00685D01*
X0044572Y0015072D02*
X004524Y001574D01*
D45*
X0062512Y0112758D02*
D03*
X0005425D02*
D03*
D46*
X00515Y00616D02*
D03*
X00465D02*
D03*
X00415D02*
D03*
X00365D02*
D03*
X00315D02*
D03*
X00265D02*
D03*
X00215D02*
D03*
X00165D02*
D03*
D47*
X0053469Y0135616D02*
D03*
X0014098D02*
D03*
D48*
X00685Y001574D02*
D03*
Y0008259D02*
D03*
X0050999Y0047734D02*
D03*
Y0040254D02*
D03*
X0019Y004774D02*
D03*
Y004026D02*
D03*
X0009Y004026D02*
D03*
Y0047741D02*
D03*
D49*
X0029291Y0043994D02*
D03*
X0040708D02*
D03*
D50*
X0080023Y0005045D02*
D03*
X0079923Y0022845D02*
D03*
D51*
X0108535Y0014D02*
D03*
D52*
X00915Y0088291D02*
D03*
Y0099709D02*
D03*
D53*
X00485Y0006789D02*
D03*
D54*
Y0030411D02*
D03*
M02*
