G04*
G04 #@! TF.GenerationSoftware,Altium Limited,Altium Designer,22.2.1 (43)*
G04*
G04 Layer_Color=8421504*
%FSTAX25Y25*%
%MOIN*%
G70*
G04*
G04 #@! TF.SameCoordinates,2F0A99F2-06B0-42B4-AD1F-80CD01153156*
G04*
G04*
G04 #@! TF.FilePolarity,Positive*
G04*
G01*
G75*
%ADD17R,0.03500X0.05000*%
%ADD18R,0.04724X0.05118*%
%ADD19R,0.13780X0.04016*%
%ADD20R,0.04016X0.13780*%
%ADD21O,0.07480X0.01772*%
%ADD22O,0.01772X0.07480*%
D17*
X010996Y00898D02*
D03*
X011744D02*
D03*
X010986Y00796D02*
D03*
X0117341D02*
D03*
D18*
X0096846Y0074791D02*
D03*
Y0086209D02*
D03*
X0090153D02*
D03*
Y0074791D02*
D03*
D19*
X0115Y007D02*
D03*
Y00625D02*
D03*
Y0055D02*
D03*
X00085D02*
D03*
Y00625D02*
D03*
Y007D02*
D03*
X0115Y00475D02*
D03*
Y004D02*
D03*
Y00325D02*
D03*
X00085D02*
D03*
Y004D02*
D03*
Y00475D02*
D03*
Y0021D02*
D03*
Y00135D02*
D03*
Y00775D02*
D03*
Y0085D02*
D03*
Y00925D02*
D03*
Y01D02*
D03*
Y01075D02*
D03*
Y0115D02*
D03*
Y01225D02*
D03*
Y013D02*
D03*
Y01375D02*
D03*
X0115Y013D02*
D03*
Y01375D02*
D03*
Y0115D02*
D03*
Y01225D02*
D03*
Y01D02*
D03*
Y01075D02*
D03*
D20*
X0071Y00085D02*
D03*
X00785D02*
D03*
X0101D02*
D03*
X00935D02*
D03*
X0086D02*
D03*
X0041D02*
D03*
X00485D02*
D03*
X0056D02*
D03*
X00635D02*
D03*
X00845Y01325D02*
D03*
X0077D02*
D03*
X0062D02*
D03*
X00695D02*
D03*
X00545D02*
D03*
X0047D02*
D03*
X00395D02*
D03*
X0032D02*
D03*
D21*
X0034053Y0070752D02*
D03*
Y0073902D02*
D03*
Y0077051D02*
D03*
Y0080201D02*
D03*
Y008335D02*
D03*
Y00865D02*
D03*
Y008965D02*
D03*
Y0092799D02*
D03*
Y0095949D02*
D03*
Y0099098D02*
D03*
Y0102248D02*
D03*
X0077947Y0102248D02*
D03*
Y0099098D02*
D03*
Y0095949D02*
D03*
Y0092799D02*
D03*
Y008965D02*
D03*
Y00865D02*
D03*
Y008335D02*
D03*
Y0080201D02*
D03*
Y0077051D02*
D03*
Y0073902D02*
D03*
Y0070752D02*
D03*
D22*
X0040252Y0108447D02*
D03*
X0043402D02*
D03*
X0046551D02*
D03*
X0049701D02*
D03*
X005285D02*
D03*
X0056D02*
D03*
X005915D02*
D03*
X0062299D02*
D03*
X0065449D02*
D03*
X0068598D02*
D03*
X0071748D02*
D03*
Y0064553D02*
D03*
X0068598D02*
D03*
X0065449D02*
D03*
X0062299D02*
D03*
X005915D02*
D03*
X0056D02*
D03*
X005285D02*
D03*
X0049701D02*
D03*
X0046551D02*
D03*
X0043402D02*
D03*
X0040252D02*
D03*
M02*
