M48
;Layer_Color=9474304
;FILE_FORMAT=2:4
INCH,TZ
;TYPE=PLATED
T1F00S00C0.0118
T2F00S00C0.0157
T3F00S00C0.0256
T4F00S00C0.0354
%
T01
X12210Y3410
Y3870
Y5122
X12200Y5800
X12611Y5783
X12300Y6190
X13257Y5650
X14757
X15100Y6000
X15507Y5998
X15280Y7500
X13941Y7622
X13507Y7779
X13520Y7286
X12619Y8518
X12257
X12210Y12210
Y12670
Y13922
X12200Y14600
X12611Y14583
X12300Y14990
X13257Y14450
X14757
X15100Y14800
X15507Y14798
X15667Y12720
X15335Y12274
X15100Y11927
X15236Y10901
X16260
X16690Y9411
X16012Y9200
X16500Y8300
X16507Y7900
Y4150
X17007Y4400
X15667Y3920
X15335Y3474
X15100Y3127
X15236Y2101
X16260
X16690Y611
X16012Y400
X14595Y1695
X20374Y1222
X20757Y400
X21257
X20999Y2101
X21007Y2400
X20550Y3074
Y4354
X21890Y4510
Y4098
X22210Y3870
Y3410
Y5122
X22200Y5800
X21800
X22611Y5783
X22300Y6190
X23257Y5650
X24757
X25100Y6000
X25507Y5998
X25280Y7500
X23941Y7622
X23507Y7779
X23521Y7286
X22619Y8518
X22257
X21257Y9200
X20757
X20374Y10022
X20999Y10901
X21007Y11200
X20550Y11874
Y13154
X21890Y13310
Y12898
X22210Y12670
Y12210
Y13922
X22200Y14600
X21800
X22611Y14583
X22300Y14990
X23257Y14450
X24757
X25100Y14800
X25507Y14798
X25667Y12720
X25335Y12274
X25100Y11927
X25236Y10901
X26260
X26690Y9411
X26012Y9200
X26500Y8300
X26507Y7900
Y4150
X27007Y4400
X25667Y3920
X25335Y3474
X25100Y3127
X25236Y2101
X26260
X26690Y611
X26012Y400
X24595Y1695
Y10495
X26507Y12950
X27007Y13200
X17007
X16507Y12950
X14595Y10495
X20335Y7482
X10335
X10757Y9200
X11257
X10374Y10022
X10999Y10901
X11007Y11200
X10550Y11874
Y13154
X11890Y13310
Y12898
X11800Y14600
X7007Y13200
X6507Y12950
X5667Y12720
X5335Y12274
X5100Y11927
X5236Y10901
X6260
X6690Y9411
X6012Y9200
X6500Y8300
X6507Y7900
X5280Y7500
X3941Y7622
X3507Y7779
X3521Y7286
X3257Y5650
X2611Y5783
X2200Y5800
X1800
X2300Y6190
X2210Y5122
X1890Y4510
Y4098
X2210Y3870
Y3410
X550Y3074
X1007Y2400
X999Y2101
X374Y1222
X757Y400
X1257
X4595Y1695
X5236Y2101
X6260
X6690Y611
X6012Y400
X5100Y3127
X5335Y3474
X5667Y3920
X6507Y4150
X7007Y4400
X5507Y5998
X5100Y6000
X4757Y5650
X2619Y8518
X2257
X1257Y9200
X757
X374Y10022
X999Y10901
X1007Y11200
X550Y11874
Y13154
X1890Y13310
Y12898
X2210Y12670
Y12210
Y13922
X2200Y14600
X1800
X2611Y14583
X2300Y14990
X3257Y14450
X4757
X5100Y14800
X5507Y14798
X4595Y10495
X335Y7482
X550Y4354
X10550
Y3074
X11007Y2400
X10999Y2101
X10374Y1222
X10757Y400
X11257
X11890Y4098
Y4510
X11800Y5800
X10335Y16282
X10757Y18000
X11257
X10374Y18822
X10999Y19701
X11007Y20000
X10550Y20674
Y21954
X11890Y22110
Y21698
X11800Y23400
X10335Y25082
X6507Y25500
X6500Y25900
X5280Y25100
X3941Y25222
X3507Y25379
X3521Y24886
X3257Y23250
X2611Y23383
X2200Y23400
X1800
X2300Y23790
X2210Y22722
X1890Y22110
Y21698
X2210Y21470
Y21010
X550Y20674
X1007Y20000
X999Y19701
X374Y18822
X757Y18000
X1257
X2257Y17318
X2619
X3507Y16579
X3521Y16086
X3941Y16422
X5280Y16300
X6507Y16700
X6500Y17100
X6690Y18211
X6012Y18000
X6260Y19701
X5236
X4595Y19295
X5100Y20727
X5335Y21074
X5667Y21520
X6507Y21750
X7007Y22000
X5507Y23598
X5100Y23600
X4757Y23250
X2619Y26118
X2257
X335Y25082
X550Y21954
X335Y16282
X12257Y17318
X12619
X13507Y16579
X13520Y16086
X13941Y16422
X15280Y16300
X16507Y16700
X16500Y17100
X16690Y18211
X16012Y18000
X16260Y19701
X15236
X14595Y19295
X15100Y20727
X15335Y21074
X15667Y21520
X16507Y21750
X17007Y22000
X15507Y23598
X15100Y23600
X14757Y23250
X13257
X12611Y23383
X12200Y23400
X12300Y23790
X12210Y22722
Y21470
Y21010
X12257Y26118
X12619
X13507Y25379
X13520Y24886
X13941Y25222
X15280Y25100
X16507Y25500
X16500Y25900
X20335Y25082
X22257Y26118
X22619
X23507Y25379
X23521Y24886
X23941Y25222
X25280Y25100
X26507Y25500
X26500Y25900
X25507Y23598
X25100Y23600
X24757Y23250
X23257
X22611Y23383
X22200Y23400
X21800
X22300Y23790
X22210Y22722
X21890Y22110
Y21698
X22210Y21470
Y21010
X20550Y20674
X21007Y20000
X20999Y19701
X20374Y18822
X20757Y18000
X21257
X22257Y17318
X22619
X23507Y16579
X23521Y16086
X23941Y16422
X25280Y16300
X26507Y16700
X26500Y17100
X26690Y18211
X26012Y18000
X26260Y19701
X25236
X24595Y19295
X25100Y20727
X25335Y21074
X25667Y21520
X26507Y21750
X27007Y22000
X20550Y21954
X20335Y16282
T02
X15220Y420
X15260Y1610
X15660
X15220Y9220
X15260Y10410
X15660
X25260
X25660
X25220Y9220
X25260Y1610
X25660
X25220Y420
X5220
X5260Y1610
X5660
X5220Y9220
X5260Y10410
X5660
X5220Y18020
X5260Y19210
X5660
X15260
X15660
X15220Y18020
X25220
X25260Y19210
X25660
T03
X14275Y8173
X14945
X24275
X24945
X4945
X4275
Y16973
X4945
Y25773
X4275
X14275
X14945
Y16973
X14275
X24275
X24945
Y25773
X24275
T04
X28500Y900
Y1900
Y2900
Y3900
Y4900
Y5900
Y6900
Y7900
X29500
Y6900
Y5900
Y4900
Y3900
Y2900
Y1900
Y900
Y9700
X28500
Y10700
Y11700
Y12700
Y13700
Y14700
X29500
Y13700
Y12700
Y11700
Y10700
X27500
Y9700
Y7900
Y6900
Y5900
Y4900
Y3900
Y2900
Y1900
Y900
X19500
X18500
X17500
Y1900
Y2900
Y3900
Y4900
Y5900
Y6900
Y7900
X18500
Y6900
Y5900
Y4900
Y3900
Y2900
Y1900
X19500
Y2900
Y3900
Y4900
Y5900
Y6900
Y7900
Y9700
X18500
X17500
Y10700
Y11700
Y12700
Y13700
Y14700
X18500
Y13700
Y12700
Y11700
Y10700
X19500
Y11700
Y12700
Y13700
Y14700
X27500
Y13700
Y12700
Y11700
X9500
X8500
X7500
Y10700
Y9700
X8500
Y10700
X9500
Y9700
Y7900
X8500
X7500
Y6900
Y5900
Y4900
Y3900
Y2900
Y1900
Y900
X8500
Y1900
Y2900
Y3900
Y4900
Y5900
Y6900
X9500
Y5900
Y4900
Y3900
Y2900
Y1900
Y900
Y12700
X8500
X7500
Y13700
Y14700
X8500
Y13700
X9500
Y14700
Y15700
X8500
X7500
Y16700
X8500
X9500
Y18500
X8500
X7500
Y19500
Y20500
Y21500
Y22500
Y23500
Y24500
Y25500
X8500
Y24500
Y23500
Y22500
Y21500
Y20500
Y19500
X9500
Y20500
Y21500
Y22500
Y23500
Y24500
Y25500
X17500
Y24500
Y23500
Y22500
Y21500
Y20500
Y19500
Y18500
X18500
Y19500
Y20500
Y21500
Y22500
Y23500
Y24500
Y25500
X19500
Y24500
Y23500
Y22500
Y21500
Y20500
Y19500
Y18500
Y16700
X18500
X17500
Y15700
X18500
X19500
X27500
Y16700
Y18500
Y19500
Y20500
Y21500
Y22500
Y23500
Y24500
Y25500
X28500
Y24500
Y23500
Y22500
Y21500
Y20500
Y19500
Y18500
X29500
Y19500
Y20500
Y21500
Y22500
Y23500
Y24500
Y25500
Y16700
X28500
Y15700
X29500
M30
