G04*
G04 #@! TF.GenerationSoftware,Altium Limited,Altium Designer,20.2.6 (244)*
G04*
G04 Layer_Color=16711935*
%FSLAX24Y24*%
%MOIN*%
G70*
G04*
G04 #@! TF.SameCoordinates,F166DB8F-6D7D-4CC1-83E2-008E4038BE53*
G04*
G04*
G04 #@! TF.FilePolarity,Negative*
G04*
G01*
G75*
%ADD60C,0.0336*%
%ADD61C,0.0749*%
%ADD62R,0.0749X0.0749*%
%ADD63C,0.0020*%
%ADD64R,0.0867X0.0867*%
%ADD65R,0.0867X0.0671*%
%ADD66C,0.0867*%
%ADD67R,0.0434X0.0867*%
%ADD68C,0.0395*%
D60*
X4275Y8173D02*
D03*
X4945D02*
D03*
X14275D02*
D03*
X14945D02*
D03*
X24275D02*
D03*
X24945D02*
D03*
X4275Y16973D02*
D03*
X4945D02*
D03*
X14275D02*
D03*
X14945D02*
D03*
X24275D02*
D03*
X24945D02*
D03*
X4275Y25773D02*
D03*
X4945D02*
D03*
X14275D02*
D03*
X14945D02*
D03*
X24275D02*
D03*
X24945D02*
D03*
D61*
X7500Y900D02*
D03*
Y1900D02*
D03*
Y6900D02*
D03*
Y5900D02*
D03*
Y4900D02*
D03*
Y3900D02*
D03*
Y2900D02*
D03*
X8500Y900D02*
D03*
Y1900D02*
D03*
Y6900D02*
D03*
Y5900D02*
D03*
Y4900D02*
D03*
Y3900D02*
D03*
Y2900D02*
D03*
X9500Y900D02*
D03*
Y1900D02*
D03*
Y6900D02*
D03*
Y5900D02*
D03*
Y4900D02*
D03*
Y3900D02*
D03*
Y2900D02*
D03*
X17500Y900D02*
D03*
Y1900D02*
D03*
Y6900D02*
D03*
Y5900D02*
D03*
Y4900D02*
D03*
Y3900D02*
D03*
Y2900D02*
D03*
X18500Y900D02*
D03*
Y1900D02*
D03*
Y6900D02*
D03*
Y5900D02*
D03*
Y4900D02*
D03*
Y3900D02*
D03*
Y2900D02*
D03*
X19500Y900D02*
D03*
Y1900D02*
D03*
Y6900D02*
D03*
Y5900D02*
D03*
Y4900D02*
D03*
Y3900D02*
D03*
Y2900D02*
D03*
X27500Y900D02*
D03*
Y1900D02*
D03*
Y6900D02*
D03*
Y5900D02*
D03*
Y4900D02*
D03*
Y3900D02*
D03*
Y2900D02*
D03*
X28500Y900D02*
D03*
Y1900D02*
D03*
Y6900D02*
D03*
Y5900D02*
D03*
Y4900D02*
D03*
Y3900D02*
D03*
Y2900D02*
D03*
X29500Y900D02*
D03*
Y1900D02*
D03*
Y6900D02*
D03*
Y5900D02*
D03*
Y4900D02*
D03*
Y3900D02*
D03*
Y2900D02*
D03*
X7500Y9700D02*
D03*
Y10700D02*
D03*
Y15700D02*
D03*
Y14700D02*
D03*
Y13700D02*
D03*
Y12700D02*
D03*
Y11700D02*
D03*
X8500Y9700D02*
D03*
Y10700D02*
D03*
Y15700D02*
D03*
Y14700D02*
D03*
Y13700D02*
D03*
Y12700D02*
D03*
Y11700D02*
D03*
X9500Y9700D02*
D03*
Y10700D02*
D03*
Y15700D02*
D03*
Y14700D02*
D03*
Y13700D02*
D03*
Y12700D02*
D03*
Y11700D02*
D03*
X17500Y9700D02*
D03*
Y10700D02*
D03*
Y15700D02*
D03*
Y14700D02*
D03*
Y13700D02*
D03*
Y12700D02*
D03*
Y11700D02*
D03*
X18500Y9700D02*
D03*
Y10700D02*
D03*
Y15700D02*
D03*
Y14700D02*
D03*
Y13700D02*
D03*
Y12700D02*
D03*
Y11700D02*
D03*
X19500Y9700D02*
D03*
Y10700D02*
D03*
Y15700D02*
D03*
Y14700D02*
D03*
Y13700D02*
D03*
Y12700D02*
D03*
Y11700D02*
D03*
X27500Y9700D02*
D03*
Y10700D02*
D03*
Y15700D02*
D03*
Y14700D02*
D03*
Y13700D02*
D03*
Y12700D02*
D03*
Y11700D02*
D03*
X28500Y9700D02*
D03*
Y10700D02*
D03*
Y15700D02*
D03*
Y14700D02*
D03*
Y13700D02*
D03*
Y12700D02*
D03*
Y11700D02*
D03*
X29500Y9700D02*
D03*
Y10700D02*
D03*
Y15700D02*
D03*
Y14700D02*
D03*
Y13700D02*
D03*
Y12700D02*
D03*
Y11700D02*
D03*
X7500Y18500D02*
D03*
Y19500D02*
D03*
Y24500D02*
D03*
Y23500D02*
D03*
Y22500D02*
D03*
Y21500D02*
D03*
Y20500D02*
D03*
X8500Y18500D02*
D03*
Y19500D02*
D03*
Y24500D02*
D03*
Y23500D02*
D03*
Y22500D02*
D03*
Y21500D02*
D03*
Y20500D02*
D03*
X9500Y18500D02*
D03*
Y19500D02*
D03*
Y24500D02*
D03*
Y23500D02*
D03*
Y22500D02*
D03*
Y21500D02*
D03*
Y20500D02*
D03*
X17500Y18500D02*
D03*
Y19500D02*
D03*
Y24500D02*
D03*
Y23500D02*
D03*
Y22500D02*
D03*
Y21500D02*
D03*
Y20500D02*
D03*
X18500Y18500D02*
D03*
Y19500D02*
D03*
Y24500D02*
D03*
Y23500D02*
D03*
Y22500D02*
D03*
Y21500D02*
D03*
Y20500D02*
D03*
X19500Y18500D02*
D03*
Y19500D02*
D03*
Y24500D02*
D03*
Y23500D02*
D03*
Y22500D02*
D03*
Y21500D02*
D03*
Y20500D02*
D03*
X27500Y18500D02*
D03*
Y19500D02*
D03*
Y24500D02*
D03*
Y23500D02*
D03*
Y22500D02*
D03*
Y21500D02*
D03*
Y20500D02*
D03*
X28500Y18500D02*
D03*
Y19500D02*
D03*
Y24500D02*
D03*
Y23500D02*
D03*
Y22500D02*
D03*
Y21500D02*
D03*
Y20500D02*
D03*
X29500Y18500D02*
D03*
Y19500D02*
D03*
Y24500D02*
D03*
Y23500D02*
D03*
Y22500D02*
D03*
Y21500D02*
D03*
Y20500D02*
D03*
D62*
X7500Y7900D02*
D03*
X8500D02*
D03*
X9500D02*
D03*
X17500D02*
D03*
X18500D02*
D03*
X19500D02*
D03*
X27500D02*
D03*
X28500D02*
D03*
X29500D02*
D03*
X7500Y16700D02*
D03*
X8500D02*
D03*
X9500D02*
D03*
X17500D02*
D03*
X18500D02*
D03*
X19500D02*
D03*
X27500D02*
D03*
X28500D02*
D03*
X29500D02*
D03*
X7500Y25500D02*
D03*
X8500D02*
D03*
X9500D02*
D03*
X17500D02*
D03*
X18500D02*
D03*
X19500D02*
D03*
X27500D02*
D03*
X28500D02*
D03*
X29500D02*
D03*
D63*
X4600Y3340D02*
Y4180D01*
X3720Y2940D02*
Y4260D01*
X3740Y4620D02*
Y4700D01*
Y2940D02*
Y4280D01*
X3760Y4620D02*
Y4820D01*
Y2940D02*
Y4280D01*
X3780Y4620D02*
Y4920D01*
Y2960D02*
Y4300D01*
X3800Y4620D02*
Y5040D01*
Y2960D02*
Y4320D01*
X3820Y4620D02*
Y5140D01*
Y2980D02*
Y4320D01*
X3840Y4620D02*
Y5260D01*
Y2980D02*
Y4340D01*
X3860Y4620D02*
Y5360D01*
Y3000D02*
Y4360D01*
X3880Y4620D02*
Y5480D01*
Y3020D02*
Y3220D01*
X3900Y4620D02*
Y5580D01*
Y3020D02*
Y3220D01*
X3920Y4700D02*
Y5700D01*
Y3040D02*
Y3220D01*
X3940Y4820D02*
Y5800D01*
Y3040D02*
Y3220D01*
X3960Y4920D02*
Y5880D01*
Y3340D02*
Y4160D01*
Y3040D02*
Y3220D01*
X3980Y5040D02*
Y5880D01*
Y3340D02*
Y4180D01*
Y3040D02*
Y3220D01*
X4000Y5140D02*
Y5880D01*
Y3340D02*
Y4200D01*
Y3040D02*
Y3220D01*
X4020Y5260D02*
Y5880D01*
Y3340D02*
Y4220D01*
Y3040D02*
Y3220D01*
X4040Y5380D02*
Y5880D01*
Y5140D02*
Y5240D01*
Y4640D02*
Y4680D01*
Y3340D02*
Y4240D01*
Y3040D02*
Y3220D01*
X4060Y5480D02*
Y5880D01*
Y5140D02*
Y5340D01*
Y4640D02*
Y4740D01*
Y3340D02*
Y4260D01*
Y3040D02*
Y3220D01*
X4080Y5600D02*
Y5880D01*
Y5140D02*
Y5340D01*
Y4640D02*
Y4780D01*
Y3340D02*
Y4280D01*
Y3040D02*
Y3220D01*
X4100Y5700D02*
Y5880D01*
Y5140D02*
Y5340D01*
Y4640D02*
Y4840D01*
Y3340D02*
Y4300D01*
Y3040D02*
Y3220D01*
X4120Y5700D02*
Y5880D01*
Y5140D02*
Y5340D01*
Y4640D02*
Y4840D01*
Y4120D02*
Y4300D01*
Y3340D02*
Y3520D01*
Y3040D02*
Y3220D01*
X4140Y5700D02*
Y5880D01*
Y5140D02*
Y5340D01*
Y4640D02*
Y4840D01*
Y4120D02*
Y4300D01*
Y3340D02*
Y3520D01*
Y3040D02*
Y3220D01*
X4160Y5700D02*
Y5880D01*
Y5140D02*
Y5340D01*
Y4640D02*
Y4840D01*
Y4120D02*
Y4300D01*
Y3340D02*
Y3520D01*
Y3040D02*
Y3220D01*
X4180Y5700D02*
Y5880D01*
Y5140D02*
Y5340D01*
Y4640D02*
Y4840D01*
Y4120D02*
Y4300D01*
Y3340D02*
Y3520D01*
Y3040D02*
Y3220D01*
X4200Y5700D02*
Y5880D01*
Y4640D02*
Y4840D01*
Y4120D02*
Y4300D01*
Y3340D02*
Y3520D01*
Y3040D02*
Y3220D01*
X4220Y4640D02*
Y5880D01*
Y4120D02*
Y4300D01*
Y3340D02*
Y3520D01*
Y3040D02*
Y3220D01*
X4240Y4640D02*
Y5880D01*
Y4120D02*
Y4300D01*
Y3340D02*
Y3520D01*
Y3040D02*
Y3220D01*
X4260Y4640D02*
Y5880D01*
Y4120D02*
Y4300D01*
Y3340D02*
Y3520D01*
Y3040D02*
Y3220D01*
X4280Y4640D02*
Y5880D01*
Y3340D02*
Y4300D01*
Y3040D02*
Y3220D01*
X4300Y4640D02*
Y5880D01*
Y3340D02*
Y4300D01*
Y3040D02*
Y3220D01*
X4320Y4640D02*
Y5880D01*
Y3340D02*
Y4300D01*
Y3040D02*
Y3220D01*
X4340Y4640D02*
Y5880D01*
Y3340D02*
Y4300D01*
Y3040D02*
Y3220D01*
X4360Y4640D02*
Y5880D01*
Y3340D02*
Y4300D01*
Y3040D02*
Y3220D01*
X4380Y4640D02*
Y4840D01*
Y3340D02*
Y4300D01*
Y3040D02*
Y3220D01*
X4400Y4640D02*
Y4840D01*
Y3340D02*
Y4300D01*
Y3040D02*
Y3220D01*
X4420Y4640D02*
Y4840D01*
Y3340D02*
Y4300D01*
Y3040D02*
Y3220D01*
X4440Y5740D02*
Y5760D01*
Y5280D02*
Y5300D01*
Y5040D02*
Y5060D01*
Y4580D02*
Y4600D01*
Y3340D02*
Y3520D01*
Y3040D02*
Y3220D01*
X4460Y5740D02*
Y5780D01*
Y5500D02*
Y5680D01*
Y5280D02*
Y5320D01*
Y5040D02*
Y5100D01*
Y4820D02*
Y5000D01*
Y4580D02*
Y4640D01*
Y3340D02*
Y3520D01*
Y3040D02*
Y3220D01*
X4480Y5740D02*
Y5820D01*
Y5500D02*
Y5680D01*
Y5280D02*
Y5360D01*
Y5040D02*
Y5120D01*
Y4820D02*
Y5000D01*
Y4580D02*
Y4660D01*
Y3340D02*
Y3520D01*
Y3040D02*
Y3220D01*
X4500Y5740D02*
Y5840D01*
Y5500D02*
Y5680D01*
Y5280D02*
Y5380D01*
Y5040D02*
Y5160D01*
Y4820D02*
Y5000D01*
Y4580D02*
Y4700D01*
Y3340D02*
Y3520D01*
Y3040D02*
Y3220D01*
X4520Y5740D02*
Y5880D01*
Y5500D02*
Y5680D01*
Y5280D02*
Y5420D01*
Y5040D02*
Y5180D01*
Y4820D02*
Y5000D01*
Y4580D02*
Y4720D01*
Y3340D02*
Y3520D01*
Y2900D02*
Y3220D01*
X4540Y5740D02*
Y5900D01*
Y5500D02*
Y5680D01*
Y5280D02*
Y5440D01*
Y5040D02*
Y5220D01*
Y4820D02*
Y5000D01*
Y4580D02*
Y4760D01*
Y3340D02*
Y3520D01*
Y2900D02*
Y3220D01*
X4560Y5740D02*
Y5920D01*
Y5500D02*
Y5680D01*
Y5280D02*
Y5460D01*
Y5040D02*
Y5220D01*
Y4820D02*
Y5000D01*
Y4580D02*
Y4760D01*
Y3340D02*
Y4140D01*
Y2900D02*
Y3220D01*
X4580Y5740D02*
Y5920D01*
Y5500D02*
Y5680D01*
Y5280D02*
Y5460D01*
Y5040D02*
Y5220D01*
Y4820D02*
Y5000D01*
Y4580D02*
Y4760D01*
Y3340D02*
Y4160D01*
Y2920D02*
Y3220D01*
X4600Y5740D02*
Y5920D01*
Y5500D02*
Y5680D01*
Y5280D02*
Y5460D01*
Y5040D02*
Y5220D01*
Y4820D02*
Y5000D01*
Y4580D02*
Y4760D01*
Y2940D02*
Y3220D01*
X4620Y5740D02*
Y5920D01*
Y5500D02*
Y5680D01*
Y5280D02*
Y5460D01*
Y5040D02*
Y5220D01*
Y4820D02*
Y5000D01*
Y4580D02*
Y4760D01*
Y3340D02*
Y4200D01*
Y2940D02*
Y3220D01*
X4640Y5740D02*
Y5920D01*
Y5500D02*
Y5680D01*
Y5280D02*
Y5460D01*
Y5040D02*
Y5220D01*
Y4820D02*
Y5000D01*
Y4580D02*
Y4760D01*
Y3340D02*
Y4220D01*
Y2960D02*
Y3220D01*
X4660Y5740D02*
Y5920D01*
Y5500D02*
Y5680D01*
Y5280D02*
Y5460D01*
Y5040D02*
Y5220D01*
Y4820D02*
Y5000D01*
Y4580D02*
Y4760D01*
Y3340D02*
Y4240D01*
Y2960D02*
Y3220D01*
X4680Y5740D02*
Y5920D01*
Y5500D02*
Y5680D01*
Y5280D02*
Y5460D01*
Y5040D02*
Y5220D01*
Y4820D02*
Y5000D01*
Y4580D02*
Y4760D01*
Y3340D02*
Y4260D01*
Y2980D02*
Y3220D01*
X4700Y5740D02*
Y5920D01*
Y5500D02*
Y5680D01*
Y5280D02*
Y5460D01*
Y5040D02*
Y5220D01*
Y4820D02*
Y5000D01*
Y4580D02*
Y4760D01*
Y3340D02*
Y4260D01*
X4720Y5740D02*
Y5920D01*
Y5500D02*
Y5680D01*
Y5280D02*
Y5460D01*
Y5040D02*
Y5220D01*
Y4820D02*
Y5000D01*
Y4580D02*
Y4760D01*
Y4080D02*
Y4260D01*
Y3340D02*
Y3520D01*
X4740Y5740D02*
Y5920D01*
Y5500D02*
Y5680D01*
Y5280D02*
Y5460D01*
Y5040D02*
Y5220D01*
Y4820D02*
Y5000D01*
Y4580D02*
Y4760D01*
Y4080D02*
Y4260D01*
Y3340D02*
Y3520D01*
X4760Y5740D02*
Y5920D01*
Y5500D02*
Y5680D01*
Y5280D02*
Y5460D01*
Y5040D02*
Y5220D01*
Y4820D02*
Y5000D01*
Y4580D02*
Y4760D01*
Y4080D02*
Y4260D01*
Y3340D02*
Y3520D01*
Y3040D02*
Y3220D01*
X4780Y5740D02*
Y5920D01*
Y5500D02*
Y5680D01*
Y5280D02*
Y5460D01*
Y5040D02*
Y5220D01*
Y4820D02*
Y5000D01*
Y4580D02*
Y4760D01*
Y4080D02*
Y4260D01*
Y3340D02*
Y3520D01*
Y3040D02*
Y3220D01*
X4800Y5740D02*
Y5920D01*
Y5500D02*
Y5680D01*
Y5280D02*
Y5460D01*
Y5040D02*
Y5220D01*
Y4820D02*
Y5000D01*
Y4580D02*
Y4760D01*
Y4080D02*
Y4260D01*
Y3340D02*
Y3520D01*
Y3040D02*
Y3220D01*
X4820Y5500D02*
Y5680D01*
Y4820D02*
Y5000D01*
Y4080D02*
Y4260D01*
Y3340D02*
Y3520D01*
Y3040D02*
Y3220D01*
X4840Y5500D02*
Y5680D01*
Y4820D02*
Y5000D01*
Y4080D02*
Y4260D01*
Y3340D02*
Y3520D01*
Y3040D02*
Y3220D01*
X4860Y5240D02*
Y5920D01*
Y4560D02*
Y5220D01*
Y4080D02*
Y4260D01*
Y3340D02*
Y3520D01*
Y3040D02*
Y3220D01*
X4880Y5260D02*
Y5920D01*
Y4560D02*
Y5220D01*
Y3340D02*
Y4260D01*
Y3040D02*
Y3220D01*
X4900Y5280D02*
Y5920D01*
Y4580D02*
Y5220D01*
Y3340D02*
Y4260D01*
Y3040D02*
Y3220D01*
X4920Y5280D02*
Y5920D01*
Y4600D02*
Y5220D01*
Y3340D02*
Y4260D01*
Y3040D02*
Y3220D01*
X4940Y5300D02*
Y5920D01*
Y4600D02*
Y5220D01*
Y3340D02*
Y4260D01*
Y3040D02*
Y3220D01*
X4960Y5300D02*
Y5920D01*
Y4620D02*
Y5220D01*
Y3340D02*
Y4260D01*
Y3040D02*
Y3220D01*
X4980Y5320D02*
Y5920D01*
Y4620D02*
Y5220D01*
Y3340D02*
Y4260D01*
Y3080D02*
Y3220D01*
X5000Y5340D02*
Y5920D01*
Y4640D02*
Y5220D01*
Y3340D02*
Y4260D01*
Y3100D02*
Y3220D01*
X5020Y5500D02*
Y5680D01*
Y4820D02*
Y5000D01*
Y3340D02*
Y4260D01*
Y3120D02*
Y3220D01*
X5040Y5500D02*
Y5680D01*
Y4820D02*
Y5000D01*
Y3700D02*
Y3860D01*
Y3140D02*
Y3220D01*
X5060Y5500D02*
Y5680D01*
Y4820D02*
Y5000D01*
Y3720D02*
Y3860D01*
Y3160D02*
Y3220D01*
X5080Y5500D02*
Y5680D01*
Y4820D02*
Y5000D01*
Y3760D02*
Y3860D01*
Y3180D02*
Y3220D01*
X5100Y3800D02*
Y3860D01*
Y3200D02*
Y3220D01*
X5120Y3840D02*
Y3860D01*
X14600Y3340D02*
Y4180D01*
X13720Y2940D02*
Y4260D01*
X13740Y4620D02*
Y4700D01*
Y2940D02*
Y4280D01*
X13760Y4620D02*
Y4820D01*
Y2940D02*
Y4280D01*
X13780Y4620D02*
Y4920D01*
Y2960D02*
Y4300D01*
X13800Y4620D02*
Y5040D01*
Y2960D02*
Y4320D01*
X13820Y4620D02*
Y5140D01*
Y2980D02*
Y4320D01*
X13840Y4620D02*
Y5260D01*
Y2980D02*
Y4340D01*
X13860Y4620D02*
Y5360D01*
Y3000D02*
Y4360D01*
X13880Y4620D02*
Y5480D01*
Y3020D02*
Y3220D01*
X13900Y4620D02*
Y5580D01*
Y3020D02*
Y3220D01*
X13920Y4700D02*
Y5700D01*
Y3040D02*
Y3220D01*
X13940Y4820D02*
Y5800D01*
Y3040D02*
Y3220D01*
X13960Y4920D02*
Y5880D01*
Y3340D02*
Y4160D01*
Y3040D02*
Y3220D01*
X13980Y5040D02*
Y5880D01*
Y3340D02*
Y4180D01*
Y3040D02*
Y3220D01*
X14000Y5140D02*
Y5880D01*
Y3340D02*
Y4200D01*
Y3040D02*
Y3220D01*
X14020Y5260D02*
Y5880D01*
Y3340D02*
Y4220D01*
Y3040D02*
Y3220D01*
X14040Y5380D02*
Y5880D01*
Y5140D02*
Y5240D01*
Y4640D02*
Y4680D01*
Y3340D02*
Y4240D01*
Y3040D02*
Y3220D01*
X14060Y5480D02*
Y5880D01*
Y5140D02*
Y5340D01*
Y4640D02*
Y4740D01*
Y3340D02*
Y4260D01*
Y3040D02*
Y3220D01*
X14080Y5600D02*
Y5880D01*
Y5140D02*
Y5340D01*
Y4640D02*
Y4780D01*
Y3340D02*
Y4280D01*
Y3040D02*
Y3220D01*
X14100Y5700D02*
Y5880D01*
Y5140D02*
Y5340D01*
Y4640D02*
Y4840D01*
Y3340D02*
Y4300D01*
Y3040D02*
Y3220D01*
X14120Y5700D02*
Y5880D01*
Y5140D02*
Y5340D01*
Y4640D02*
Y4840D01*
Y4120D02*
Y4300D01*
Y3340D02*
Y3520D01*
Y3040D02*
Y3220D01*
X14140Y5700D02*
Y5880D01*
Y5140D02*
Y5340D01*
Y4640D02*
Y4840D01*
Y4120D02*
Y4300D01*
Y3340D02*
Y3520D01*
Y3040D02*
Y3220D01*
X14160Y5700D02*
Y5880D01*
Y5140D02*
Y5340D01*
Y4640D02*
Y4840D01*
Y4120D02*
Y4300D01*
Y3340D02*
Y3520D01*
Y3040D02*
Y3220D01*
X14180Y5700D02*
Y5880D01*
Y5140D02*
Y5340D01*
Y4640D02*
Y4840D01*
Y4120D02*
Y4300D01*
Y3340D02*
Y3520D01*
Y3040D02*
Y3220D01*
X14200Y5700D02*
Y5880D01*
Y4640D02*
Y4840D01*
Y4120D02*
Y4300D01*
Y3340D02*
Y3520D01*
Y3040D02*
Y3220D01*
X14220Y4640D02*
Y5880D01*
Y4120D02*
Y4300D01*
Y3340D02*
Y3520D01*
Y3040D02*
Y3220D01*
X14240Y4640D02*
Y5880D01*
Y4120D02*
Y4300D01*
Y3340D02*
Y3520D01*
Y3040D02*
Y3220D01*
X14260Y4640D02*
Y5880D01*
Y4120D02*
Y4300D01*
Y3340D02*
Y3520D01*
Y3040D02*
Y3220D01*
X14280Y4640D02*
Y5880D01*
Y3340D02*
Y4300D01*
Y3040D02*
Y3220D01*
X14300Y4640D02*
Y5880D01*
Y3340D02*
Y4300D01*
Y3040D02*
Y3220D01*
X14320Y4640D02*
Y5880D01*
Y3340D02*
Y4300D01*
Y3040D02*
Y3220D01*
X14340Y4640D02*
Y5880D01*
Y3340D02*
Y4300D01*
Y3040D02*
Y3220D01*
X14360Y4640D02*
Y5880D01*
Y3340D02*
Y4300D01*
Y3040D02*
Y3220D01*
X14380Y4640D02*
Y4840D01*
Y3340D02*
Y4300D01*
Y3040D02*
Y3220D01*
X14400Y4640D02*
Y4840D01*
Y3340D02*
Y4300D01*
Y3040D02*
Y3220D01*
X14420Y4640D02*
Y4840D01*
Y3340D02*
Y4300D01*
Y3040D02*
Y3220D01*
X14440Y5740D02*
Y5760D01*
Y5280D02*
Y5300D01*
Y5040D02*
Y5060D01*
Y4580D02*
Y4600D01*
Y3340D02*
Y3520D01*
Y3040D02*
Y3220D01*
X14460Y5740D02*
Y5780D01*
Y5500D02*
Y5680D01*
Y5280D02*
Y5320D01*
Y5040D02*
Y5100D01*
Y4820D02*
Y5000D01*
Y4580D02*
Y4640D01*
Y3340D02*
Y3520D01*
Y3040D02*
Y3220D01*
X14480Y5740D02*
Y5820D01*
Y5500D02*
Y5680D01*
Y5280D02*
Y5360D01*
Y5040D02*
Y5120D01*
Y4820D02*
Y5000D01*
Y4580D02*
Y4660D01*
Y3340D02*
Y3520D01*
Y3040D02*
Y3220D01*
X14500Y5740D02*
Y5840D01*
Y5500D02*
Y5680D01*
Y5280D02*
Y5380D01*
Y5040D02*
Y5160D01*
Y4820D02*
Y5000D01*
Y4580D02*
Y4700D01*
Y3340D02*
Y3520D01*
Y3040D02*
Y3220D01*
X14520Y5740D02*
Y5880D01*
Y5500D02*
Y5680D01*
Y5280D02*
Y5420D01*
Y5040D02*
Y5180D01*
Y4820D02*
Y5000D01*
Y4580D02*
Y4720D01*
Y3340D02*
Y3520D01*
Y2900D02*
Y3220D01*
X14540Y5740D02*
Y5900D01*
Y5500D02*
Y5680D01*
Y5280D02*
Y5440D01*
Y5040D02*
Y5220D01*
Y4820D02*
Y5000D01*
Y4580D02*
Y4760D01*
Y3340D02*
Y3520D01*
Y2900D02*
Y3220D01*
X14560Y5740D02*
Y5920D01*
Y5500D02*
Y5680D01*
Y5280D02*
Y5460D01*
Y5040D02*
Y5220D01*
Y4820D02*
Y5000D01*
Y4580D02*
Y4760D01*
Y3340D02*
Y4140D01*
Y2900D02*
Y3220D01*
X14580Y5740D02*
Y5920D01*
Y5500D02*
Y5680D01*
Y5280D02*
Y5460D01*
Y5040D02*
Y5220D01*
Y4820D02*
Y5000D01*
Y4580D02*
Y4760D01*
Y3340D02*
Y4160D01*
Y2920D02*
Y3220D01*
X14600Y5740D02*
Y5920D01*
Y5500D02*
Y5680D01*
Y5280D02*
Y5460D01*
Y5040D02*
Y5220D01*
Y4820D02*
Y5000D01*
Y4580D02*
Y4760D01*
Y2940D02*
Y3220D01*
X14620Y5740D02*
Y5920D01*
Y5500D02*
Y5680D01*
Y5280D02*
Y5460D01*
Y5040D02*
Y5220D01*
Y4820D02*
Y5000D01*
Y4580D02*
Y4760D01*
Y3340D02*
Y4200D01*
Y2940D02*
Y3220D01*
X14640Y5740D02*
Y5920D01*
Y5500D02*
Y5680D01*
Y5280D02*
Y5460D01*
Y5040D02*
Y5220D01*
Y4820D02*
Y5000D01*
Y4580D02*
Y4760D01*
Y3340D02*
Y4220D01*
Y2960D02*
Y3220D01*
X14660Y5740D02*
Y5920D01*
Y5500D02*
Y5680D01*
Y5280D02*
Y5460D01*
Y5040D02*
Y5220D01*
Y4820D02*
Y5000D01*
Y4580D02*
Y4760D01*
Y3340D02*
Y4240D01*
Y2960D02*
Y3220D01*
X14680Y5740D02*
Y5920D01*
Y5500D02*
Y5680D01*
Y5280D02*
Y5460D01*
Y5040D02*
Y5220D01*
Y4820D02*
Y5000D01*
Y4580D02*
Y4760D01*
Y3340D02*
Y4260D01*
Y2980D02*
Y3220D01*
X14700Y5740D02*
Y5920D01*
Y5500D02*
Y5680D01*
Y5280D02*
Y5460D01*
Y5040D02*
Y5220D01*
Y4820D02*
Y5000D01*
Y4580D02*
Y4760D01*
Y3340D02*
Y4260D01*
X14720Y5740D02*
Y5920D01*
Y5500D02*
Y5680D01*
Y5280D02*
Y5460D01*
Y5040D02*
Y5220D01*
Y4820D02*
Y5000D01*
Y4580D02*
Y4760D01*
Y4080D02*
Y4260D01*
Y3340D02*
Y3520D01*
X14740Y5740D02*
Y5920D01*
Y5500D02*
Y5680D01*
Y5280D02*
Y5460D01*
Y5040D02*
Y5220D01*
Y4820D02*
Y5000D01*
Y4580D02*
Y4760D01*
Y4080D02*
Y4260D01*
Y3340D02*
Y3520D01*
X14760Y5740D02*
Y5920D01*
Y5500D02*
Y5680D01*
Y5280D02*
Y5460D01*
Y5040D02*
Y5220D01*
Y4820D02*
Y5000D01*
Y4580D02*
Y4760D01*
Y4080D02*
Y4260D01*
Y3340D02*
Y3520D01*
Y3040D02*
Y3220D01*
X14780Y5740D02*
Y5920D01*
Y5500D02*
Y5680D01*
Y5280D02*
Y5460D01*
Y5040D02*
Y5220D01*
Y4820D02*
Y5000D01*
Y4580D02*
Y4760D01*
Y4080D02*
Y4260D01*
Y3340D02*
Y3520D01*
Y3040D02*
Y3220D01*
X14800Y5740D02*
Y5920D01*
Y5500D02*
Y5680D01*
Y5280D02*
Y5460D01*
Y5040D02*
Y5220D01*
Y4820D02*
Y5000D01*
Y4580D02*
Y4760D01*
Y4080D02*
Y4260D01*
Y3340D02*
Y3520D01*
Y3040D02*
Y3220D01*
X14820Y5500D02*
Y5680D01*
Y4820D02*
Y5000D01*
Y4080D02*
Y4260D01*
Y3340D02*
Y3520D01*
Y3040D02*
Y3220D01*
X14840Y5500D02*
Y5680D01*
Y4820D02*
Y5000D01*
Y4080D02*
Y4260D01*
Y3340D02*
Y3520D01*
Y3040D02*
Y3220D01*
X14860Y5240D02*
Y5920D01*
Y4560D02*
Y5220D01*
Y4080D02*
Y4260D01*
Y3340D02*
Y3520D01*
Y3040D02*
Y3220D01*
X14880Y5260D02*
Y5920D01*
Y4560D02*
Y5220D01*
Y3340D02*
Y4260D01*
Y3040D02*
Y3220D01*
X14900Y5280D02*
Y5920D01*
Y4580D02*
Y5220D01*
Y3340D02*
Y4260D01*
Y3040D02*
Y3220D01*
X14920Y5280D02*
Y5920D01*
Y4600D02*
Y5220D01*
Y3340D02*
Y4260D01*
Y3040D02*
Y3220D01*
X14940Y5300D02*
Y5920D01*
Y4600D02*
Y5220D01*
Y3340D02*
Y4260D01*
Y3040D02*
Y3220D01*
X14960Y5300D02*
Y5920D01*
Y4620D02*
Y5220D01*
Y3340D02*
Y4260D01*
Y3040D02*
Y3220D01*
X14980Y5320D02*
Y5920D01*
Y4620D02*
Y5220D01*
Y3340D02*
Y4260D01*
Y3080D02*
Y3220D01*
X15000Y5340D02*
Y5920D01*
Y4640D02*
Y5220D01*
Y3340D02*
Y4260D01*
Y3100D02*
Y3220D01*
X15020Y5500D02*
Y5680D01*
Y4820D02*
Y5000D01*
Y3340D02*
Y4260D01*
Y3120D02*
Y3220D01*
X15040Y5500D02*
Y5680D01*
Y4820D02*
Y5000D01*
Y3700D02*
Y3860D01*
Y3140D02*
Y3220D01*
X15060Y5500D02*
Y5680D01*
Y4820D02*
Y5000D01*
Y3720D02*
Y3860D01*
Y3160D02*
Y3220D01*
X15080Y5500D02*
Y5680D01*
Y4820D02*
Y5000D01*
Y3760D02*
Y3860D01*
Y3180D02*
Y3220D01*
X15100Y3800D02*
Y3860D01*
Y3200D02*
Y3220D01*
X15120Y3840D02*
Y3860D01*
X24600Y3340D02*
Y4180D01*
X23720Y2940D02*
Y4260D01*
X23740Y4620D02*
Y4700D01*
Y2940D02*
Y4280D01*
X23760Y4620D02*
Y4820D01*
Y2940D02*
Y4280D01*
X23780Y4620D02*
Y4920D01*
Y2960D02*
Y4300D01*
X23800Y4620D02*
Y5040D01*
Y2960D02*
Y4320D01*
X23820Y4620D02*
Y5140D01*
Y2980D02*
Y4320D01*
X23840Y4620D02*
Y5260D01*
Y2980D02*
Y4340D01*
X23860Y4620D02*
Y5360D01*
Y3000D02*
Y4360D01*
X23880Y4620D02*
Y5480D01*
Y3020D02*
Y3220D01*
X23900Y4620D02*
Y5580D01*
Y3020D02*
Y3220D01*
X23920Y4700D02*
Y5700D01*
Y3040D02*
Y3220D01*
X23940Y4820D02*
Y5800D01*
Y3040D02*
Y3220D01*
X23960Y4920D02*
Y5880D01*
Y3340D02*
Y4160D01*
Y3040D02*
Y3220D01*
X23980Y5040D02*
Y5880D01*
Y3340D02*
Y4180D01*
Y3040D02*
Y3220D01*
X24000Y5140D02*
Y5880D01*
Y3340D02*
Y4200D01*
Y3040D02*
Y3220D01*
X24020Y5260D02*
Y5880D01*
Y3340D02*
Y4220D01*
Y3040D02*
Y3220D01*
X24040Y5380D02*
Y5880D01*
Y5140D02*
Y5240D01*
Y4640D02*
Y4680D01*
Y3340D02*
Y4240D01*
Y3040D02*
Y3220D01*
X24060Y5480D02*
Y5880D01*
Y5140D02*
Y5340D01*
Y4640D02*
Y4740D01*
Y3340D02*
Y4260D01*
Y3040D02*
Y3220D01*
X24080Y5600D02*
Y5880D01*
Y5140D02*
Y5340D01*
Y4640D02*
Y4780D01*
Y3340D02*
Y4280D01*
Y3040D02*
Y3220D01*
X24100Y5700D02*
Y5880D01*
Y5140D02*
Y5340D01*
Y4640D02*
Y4840D01*
Y3340D02*
Y4300D01*
Y3040D02*
Y3220D01*
X24120Y5700D02*
Y5880D01*
Y5140D02*
Y5340D01*
Y4640D02*
Y4840D01*
Y4120D02*
Y4300D01*
Y3340D02*
Y3520D01*
Y3040D02*
Y3220D01*
X24140Y5700D02*
Y5880D01*
Y5140D02*
Y5340D01*
Y4640D02*
Y4840D01*
Y4120D02*
Y4300D01*
Y3340D02*
Y3520D01*
Y3040D02*
Y3220D01*
X24160Y5700D02*
Y5880D01*
Y5140D02*
Y5340D01*
Y4640D02*
Y4840D01*
Y4120D02*
Y4300D01*
Y3340D02*
Y3520D01*
Y3040D02*
Y3220D01*
X24180Y5700D02*
Y5880D01*
Y5140D02*
Y5340D01*
Y4640D02*
Y4840D01*
Y4120D02*
Y4300D01*
Y3340D02*
Y3520D01*
Y3040D02*
Y3220D01*
X24200Y5700D02*
Y5880D01*
Y4640D02*
Y4840D01*
Y4120D02*
Y4300D01*
Y3340D02*
Y3520D01*
Y3040D02*
Y3220D01*
X24220Y4640D02*
Y5880D01*
Y4120D02*
Y4300D01*
Y3340D02*
Y3520D01*
Y3040D02*
Y3220D01*
X24240Y4640D02*
Y5880D01*
Y4120D02*
Y4300D01*
Y3340D02*
Y3520D01*
Y3040D02*
Y3220D01*
X24260Y4640D02*
Y5880D01*
Y4120D02*
Y4300D01*
Y3340D02*
Y3520D01*
Y3040D02*
Y3220D01*
X24280Y4640D02*
Y5880D01*
Y3340D02*
Y4300D01*
Y3040D02*
Y3220D01*
X24300Y4640D02*
Y5880D01*
Y3340D02*
Y4300D01*
Y3040D02*
Y3220D01*
X24320Y4640D02*
Y5880D01*
Y3340D02*
Y4300D01*
Y3040D02*
Y3220D01*
X24340Y4640D02*
Y5880D01*
Y3340D02*
Y4300D01*
Y3040D02*
Y3220D01*
X24360Y4640D02*
Y5880D01*
Y3340D02*
Y4300D01*
Y3040D02*
Y3220D01*
X24380Y4640D02*
Y4840D01*
Y3340D02*
Y4300D01*
Y3040D02*
Y3220D01*
X24400Y4640D02*
Y4840D01*
Y3340D02*
Y4300D01*
Y3040D02*
Y3220D01*
X24420Y4640D02*
Y4840D01*
Y3340D02*
Y4300D01*
Y3040D02*
Y3220D01*
X24440Y5740D02*
Y5760D01*
Y5280D02*
Y5300D01*
Y5040D02*
Y5060D01*
Y4580D02*
Y4600D01*
Y3340D02*
Y3520D01*
Y3040D02*
Y3220D01*
X24460Y5740D02*
Y5780D01*
Y5500D02*
Y5680D01*
Y5280D02*
Y5320D01*
Y5040D02*
Y5100D01*
Y4820D02*
Y5000D01*
Y4580D02*
Y4640D01*
Y3340D02*
Y3520D01*
Y3040D02*
Y3220D01*
X24480Y5740D02*
Y5820D01*
Y5500D02*
Y5680D01*
Y5280D02*
Y5360D01*
Y5040D02*
Y5120D01*
Y4820D02*
Y5000D01*
Y4580D02*
Y4660D01*
Y3340D02*
Y3520D01*
Y3040D02*
Y3220D01*
X24500Y5740D02*
Y5840D01*
Y5500D02*
Y5680D01*
Y5280D02*
Y5380D01*
Y5040D02*
Y5160D01*
Y4820D02*
Y5000D01*
Y4580D02*
Y4700D01*
Y3340D02*
Y3520D01*
Y3040D02*
Y3220D01*
X24520Y5740D02*
Y5880D01*
Y5500D02*
Y5680D01*
Y5280D02*
Y5420D01*
Y5040D02*
Y5180D01*
Y4820D02*
Y5000D01*
Y4580D02*
Y4720D01*
Y3340D02*
Y3520D01*
Y2900D02*
Y3220D01*
X24540Y5740D02*
Y5900D01*
Y5500D02*
Y5680D01*
Y5280D02*
Y5440D01*
Y5040D02*
Y5220D01*
Y4820D02*
Y5000D01*
Y4580D02*
Y4760D01*
Y3340D02*
Y3520D01*
Y2900D02*
Y3220D01*
X24560Y5740D02*
Y5920D01*
Y5500D02*
Y5680D01*
Y5280D02*
Y5460D01*
Y5040D02*
Y5220D01*
Y4820D02*
Y5000D01*
Y4580D02*
Y4760D01*
Y3340D02*
Y4140D01*
Y2900D02*
Y3220D01*
X24580Y5740D02*
Y5920D01*
Y5500D02*
Y5680D01*
Y5280D02*
Y5460D01*
Y5040D02*
Y5220D01*
Y4820D02*
Y5000D01*
Y4580D02*
Y4760D01*
Y3340D02*
Y4160D01*
Y2920D02*
Y3220D01*
X24600Y5740D02*
Y5920D01*
Y5500D02*
Y5680D01*
Y5280D02*
Y5460D01*
Y5040D02*
Y5220D01*
Y4820D02*
Y5000D01*
Y4580D02*
Y4760D01*
Y2940D02*
Y3220D01*
X24620Y5740D02*
Y5920D01*
Y5500D02*
Y5680D01*
Y5280D02*
Y5460D01*
Y5040D02*
Y5220D01*
Y4820D02*
Y5000D01*
Y4580D02*
Y4760D01*
Y3340D02*
Y4200D01*
Y2940D02*
Y3220D01*
X24640Y5740D02*
Y5920D01*
Y5500D02*
Y5680D01*
Y5280D02*
Y5460D01*
Y5040D02*
Y5220D01*
Y4820D02*
Y5000D01*
Y4580D02*
Y4760D01*
Y3340D02*
Y4220D01*
Y2960D02*
Y3220D01*
X24660Y5740D02*
Y5920D01*
Y5500D02*
Y5680D01*
Y5280D02*
Y5460D01*
Y5040D02*
Y5220D01*
Y4820D02*
Y5000D01*
Y4580D02*
Y4760D01*
Y3340D02*
Y4240D01*
Y2960D02*
Y3220D01*
X24680Y5740D02*
Y5920D01*
Y5500D02*
Y5680D01*
Y5280D02*
Y5460D01*
Y5040D02*
Y5220D01*
Y4820D02*
Y5000D01*
Y4580D02*
Y4760D01*
Y3340D02*
Y4260D01*
Y2980D02*
Y3220D01*
X24700Y5740D02*
Y5920D01*
Y5500D02*
Y5680D01*
Y5280D02*
Y5460D01*
Y5040D02*
Y5220D01*
Y4820D02*
Y5000D01*
Y4580D02*
Y4760D01*
Y3340D02*
Y4260D01*
X24720Y5740D02*
Y5920D01*
Y5500D02*
Y5680D01*
Y5280D02*
Y5460D01*
Y5040D02*
Y5220D01*
Y4820D02*
Y5000D01*
Y4580D02*
Y4760D01*
Y4080D02*
Y4260D01*
Y3340D02*
Y3520D01*
X24740Y5740D02*
Y5920D01*
Y5500D02*
Y5680D01*
Y5280D02*
Y5460D01*
Y5040D02*
Y5220D01*
Y4820D02*
Y5000D01*
Y4580D02*
Y4760D01*
Y4080D02*
Y4260D01*
Y3340D02*
Y3520D01*
X24760Y5740D02*
Y5920D01*
Y5500D02*
Y5680D01*
Y5280D02*
Y5460D01*
Y5040D02*
Y5220D01*
Y4820D02*
Y5000D01*
Y4580D02*
Y4760D01*
Y4080D02*
Y4260D01*
Y3340D02*
Y3520D01*
Y3040D02*
Y3220D01*
X24780Y5740D02*
Y5920D01*
Y5500D02*
Y5680D01*
Y5280D02*
Y5460D01*
Y5040D02*
Y5220D01*
Y4820D02*
Y5000D01*
Y4580D02*
Y4760D01*
Y4080D02*
Y4260D01*
Y3340D02*
Y3520D01*
Y3040D02*
Y3220D01*
X24800Y5740D02*
Y5920D01*
Y5500D02*
Y5680D01*
Y5280D02*
Y5460D01*
Y5040D02*
Y5220D01*
Y4820D02*
Y5000D01*
Y4580D02*
Y4760D01*
Y4080D02*
Y4260D01*
Y3340D02*
Y3520D01*
Y3040D02*
Y3220D01*
X24820Y5500D02*
Y5680D01*
Y4820D02*
Y5000D01*
Y4080D02*
Y4260D01*
Y3340D02*
Y3520D01*
Y3040D02*
Y3220D01*
X24840Y5500D02*
Y5680D01*
Y4820D02*
Y5000D01*
Y4080D02*
Y4260D01*
Y3340D02*
Y3520D01*
Y3040D02*
Y3220D01*
X24860Y5240D02*
Y5920D01*
Y4560D02*
Y5220D01*
Y4080D02*
Y4260D01*
Y3340D02*
Y3520D01*
Y3040D02*
Y3220D01*
X24880Y5260D02*
Y5920D01*
Y4560D02*
Y5220D01*
Y3340D02*
Y4260D01*
Y3040D02*
Y3220D01*
X24900Y5280D02*
Y5920D01*
Y4580D02*
Y5220D01*
Y3340D02*
Y4260D01*
Y3040D02*
Y3220D01*
X24920Y5280D02*
Y5920D01*
Y4600D02*
Y5220D01*
Y3340D02*
Y4260D01*
Y3040D02*
Y3220D01*
X24940Y5300D02*
Y5920D01*
Y4600D02*
Y5220D01*
Y3340D02*
Y4260D01*
Y3040D02*
Y3220D01*
X24960Y5300D02*
Y5920D01*
Y4620D02*
Y5220D01*
Y3340D02*
Y4260D01*
Y3040D02*
Y3220D01*
X24980Y5320D02*
Y5920D01*
Y4620D02*
Y5220D01*
Y3340D02*
Y4260D01*
Y3080D02*
Y3220D01*
X25000Y5340D02*
Y5920D01*
Y4640D02*
Y5220D01*
Y3340D02*
Y4260D01*
Y3100D02*
Y3220D01*
X25020Y5500D02*
Y5680D01*
Y4820D02*
Y5000D01*
Y3340D02*
Y4260D01*
Y3120D02*
Y3220D01*
X25040Y5500D02*
Y5680D01*
Y4820D02*
Y5000D01*
Y3700D02*
Y3860D01*
Y3140D02*
Y3220D01*
X25060Y5500D02*
Y5680D01*
Y4820D02*
Y5000D01*
Y3720D02*
Y3860D01*
Y3160D02*
Y3220D01*
X25080Y5500D02*
Y5680D01*
Y4820D02*
Y5000D01*
Y3760D02*
Y3860D01*
Y3180D02*
Y3220D01*
X25100Y3800D02*
Y3860D01*
Y3200D02*
Y3220D01*
X25120Y3840D02*
Y3860D01*
X4600Y12140D02*
Y12980D01*
X3720Y11740D02*
Y13060D01*
X3740Y13420D02*
Y13500D01*
Y11740D02*
Y13080D01*
X3760Y13420D02*
Y13620D01*
Y11740D02*
Y13080D01*
X3780Y13420D02*
Y13720D01*
Y11760D02*
Y13100D01*
X3800Y13420D02*
Y13840D01*
Y11760D02*
Y13120D01*
X3820Y13420D02*
Y13940D01*
Y11780D02*
Y13120D01*
X3840Y13420D02*
Y14060D01*
Y11780D02*
Y13140D01*
X3860Y13420D02*
Y14160D01*
Y11800D02*
Y13160D01*
X3880Y13420D02*
Y14280D01*
Y11820D02*
Y12020D01*
X3900Y13420D02*
Y14380D01*
Y11820D02*
Y12020D01*
X3920Y13500D02*
Y14500D01*
Y11840D02*
Y12020D01*
X3940Y13620D02*
Y14600D01*
Y11840D02*
Y12020D01*
X3960Y13720D02*
Y14680D01*
Y12140D02*
Y12960D01*
Y11840D02*
Y12020D01*
X3980Y13840D02*
Y14680D01*
Y12140D02*
Y12980D01*
Y11840D02*
Y12020D01*
X4000Y13940D02*
Y14680D01*
Y12140D02*
Y13000D01*
Y11840D02*
Y12020D01*
X4020Y14060D02*
Y14680D01*
Y12140D02*
Y13020D01*
Y11840D02*
Y12020D01*
X4040Y14180D02*
Y14680D01*
Y13940D02*
Y14040D01*
Y13440D02*
Y13480D01*
Y12140D02*
Y13040D01*
Y11840D02*
Y12020D01*
X4060Y14280D02*
Y14680D01*
Y13940D02*
Y14140D01*
Y13440D02*
Y13540D01*
Y12140D02*
Y13060D01*
Y11840D02*
Y12020D01*
X4080Y14400D02*
Y14680D01*
Y13940D02*
Y14140D01*
Y13440D02*
Y13580D01*
Y12140D02*
Y13080D01*
Y11840D02*
Y12020D01*
X4100Y14500D02*
Y14680D01*
Y13940D02*
Y14140D01*
Y13440D02*
Y13640D01*
Y12140D02*
Y13100D01*
Y11840D02*
Y12020D01*
X4120Y14500D02*
Y14680D01*
Y13940D02*
Y14140D01*
Y13440D02*
Y13640D01*
Y12920D02*
Y13100D01*
Y12140D02*
Y12320D01*
Y11840D02*
Y12020D01*
X4140Y14500D02*
Y14680D01*
Y13940D02*
Y14140D01*
Y13440D02*
Y13640D01*
Y12920D02*
Y13100D01*
Y12140D02*
Y12320D01*
Y11840D02*
Y12020D01*
X4160Y14500D02*
Y14680D01*
Y13940D02*
Y14140D01*
Y13440D02*
Y13640D01*
Y12920D02*
Y13100D01*
Y12140D02*
Y12320D01*
Y11840D02*
Y12020D01*
X4180Y14500D02*
Y14680D01*
Y13940D02*
Y14140D01*
Y13440D02*
Y13640D01*
Y12920D02*
Y13100D01*
Y12140D02*
Y12320D01*
Y11840D02*
Y12020D01*
X4200Y14500D02*
Y14680D01*
Y13440D02*
Y13640D01*
Y12920D02*
Y13100D01*
Y12140D02*
Y12320D01*
Y11840D02*
Y12020D01*
X4220Y13440D02*
Y14680D01*
Y12920D02*
Y13100D01*
Y12140D02*
Y12320D01*
Y11840D02*
Y12020D01*
X4240Y13440D02*
Y14680D01*
Y12920D02*
Y13100D01*
Y12140D02*
Y12320D01*
Y11840D02*
Y12020D01*
X4260Y13440D02*
Y14680D01*
Y12920D02*
Y13100D01*
Y12140D02*
Y12320D01*
Y11840D02*
Y12020D01*
X4280Y13440D02*
Y14680D01*
Y12140D02*
Y13100D01*
Y11840D02*
Y12020D01*
X4300Y13440D02*
Y14680D01*
Y12140D02*
Y13100D01*
Y11840D02*
Y12020D01*
X4320Y13440D02*
Y14680D01*
Y12140D02*
Y13100D01*
Y11840D02*
Y12020D01*
X4340Y13440D02*
Y14680D01*
Y12140D02*
Y13100D01*
Y11840D02*
Y12020D01*
X4360Y13440D02*
Y14680D01*
Y12140D02*
Y13100D01*
Y11840D02*
Y12020D01*
X4380Y13440D02*
Y13640D01*
Y12140D02*
Y13100D01*
Y11840D02*
Y12020D01*
X4400Y13440D02*
Y13640D01*
Y12140D02*
Y13100D01*
Y11840D02*
Y12020D01*
X4420Y13440D02*
Y13640D01*
Y12140D02*
Y13100D01*
Y11840D02*
Y12020D01*
X4440Y14540D02*
Y14560D01*
Y14080D02*
Y14100D01*
Y13840D02*
Y13860D01*
Y13380D02*
Y13400D01*
Y12140D02*
Y12320D01*
Y11840D02*
Y12020D01*
X4460Y14540D02*
Y14580D01*
Y14300D02*
Y14480D01*
Y14080D02*
Y14120D01*
Y13840D02*
Y13900D01*
Y13620D02*
Y13800D01*
Y13380D02*
Y13440D01*
Y12140D02*
Y12320D01*
Y11840D02*
Y12020D01*
X4480Y14540D02*
Y14620D01*
Y14300D02*
Y14480D01*
Y14080D02*
Y14160D01*
Y13840D02*
Y13920D01*
Y13620D02*
Y13800D01*
Y13380D02*
Y13460D01*
Y12140D02*
Y12320D01*
Y11840D02*
Y12020D01*
X4500Y14540D02*
Y14640D01*
Y14300D02*
Y14480D01*
Y14080D02*
Y14180D01*
Y13840D02*
Y13960D01*
Y13620D02*
Y13800D01*
Y13380D02*
Y13500D01*
Y12140D02*
Y12320D01*
Y11840D02*
Y12020D01*
X4520Y14540D02*
Y14680D01*
Y14300D02*
Y14480D01*
Y14080D02*
Y14220D01*
Y13840D02*
Y13980D01*
Y13620D02*
Y13800D01*
Y13380D02*
Y13520D01*
Y12140D02*
Y12320D01*
Y11700D02*
Y12020D01*
X4540Y14540D02*
Y14700D01*
Y14300D02*
Y14480D01*
Y14080D02*
Y14240D01*
Y13840D02*
Y14020D01*
Y13620D02*
Y13800D01*
Y13380D02*
Y13560D01*
Y12140D02*
Y12320D01*
Y11700D02*
Y12020D01*
X4560Y14540D02*
Y14720D01*
Y14300D02*
Y14480D01*
Y14080D02*
Y14260D01*
Y13840D02*
Y14020D01*
Y13620D02*
Y13800D01*
Y13380D02*
Y13560D01*
Y12140D02*
Y12940D01*
Y11700D02*
Y12020D01*
X4580Y14540D02*
Y14720D01*
Y14300D02*
Y14480D01*
Y14080D02*
Y14260D01*
Y13840D02*
Y14020D01*
Y13620D02*
Y13800D01*
Y13380D02*
Y13560D01*
Y12140D02*
Y12960D01*
Y11720D02*
Y12020D01*
X4600Y14540D02*
Y14720D01*
Y14300D02*
Y14480D01*
Y14080D02*
Y14260D01*
Y13840D02*
Y14020D01*
Y13620D02*
Y13800D01*
Y13380D02*
Y13560D01*
Y11740D02*
Y12020D01*
X4620Y14540D02*
Y14720D01*
Y14300D02*
Y14480D01*
Y14080D02*
Y14260D01*
Y13840D02*
Y14020D01*
Y13620D02*
Y13800D01*
Y13380D02*
Y13560D01*
Y12140D02*
Y13000D01*
Y11740D02*
Y12020D01*
X4640Y14540D02*
Y14720D01*
Y14300D02*
Y14480D01*
Y14080D02*
Y14260D01*
Y13840D02*
Y14020D01*
Y13620D02*
Y13800D01*
Y13380D02*
Y13560D01*
Y12140D02*
Y13020D01*
Y11760D02*
Y12020D01*
X4660Y14540D02*
Y14720D01*
Y14300D02*
Y14480D01*
Y14080D02*
Y14260D01*
Y13840D02*
Y14020D01*
Y13620D02*
Y13800D01*
Y13380D02*
Y13560D01*
Y12140D02*
Y13040D01*
Y11760D02*
Y12020D01*
X4680Y14540D02*
Y14720D01*
Y14300D02*
Y14480D01*
Y14080D02*
Y14260D01*
Y13840D02*
Y14020D01*
Y13620D02*
Y13800D01*
Y13380D02*
Y13560D01*
Y12140D02*
Y13060D01*
Y11780D02*
Y12020D01*
X4700Y14540D02*
Y14720D01*
Y14300D02*
Y14480D01*
Y14080D02*
Y14260D01*
Y13840D02*
Y14020D01*
Y13620D02*
Y13800D01*
Y13380D02*
Y13560D01*
Y12140D02*
Y13060D01*
X4720Y14540D02*
Y14720D01*
Y14300D02*
Y14480D01*
Y14080D02*
Y14260D01*
Y13840D02*
Y14020D01*
Y13620D02*
Y13800D01*
Y13380D02*
Y13560D01*
Y12880D02*
Y13060D01*
Y12140D02*
Y12320D01*
X4740Y14540D02*
Y14720D01*
Y14300D02*
Y14480D01*
Y14080D02*
Y14260D01*
Y13840D02*
Y14020D01*
Y13620D02*
Y13800D01*
Y13380D02*
Y13560D01*
Y12880D02*
Y13060D01*
Y12140D02*
Y12320D01*
X4760Y14540D02*
Y14720D01*
Y14300D02*
Y14480D01*
Y14080D02*
Y14260D01*
Y13840D02*
Y14020D01*
Y13620D02*
Y13800D01*
Y13380D02*
Y13560D01*
Y12880D02*
Y13060D01*
Y12140D02*
Y12320D01*
Y11840D02*
Y12020D01*
X4780Y14540D02*
Y14720D01*
Y14300D02*
Y14480D01*
Y14080D02*
Y14260D01*
Y13840D02*
Y14020D01*
Y13620D02*
Y13800D01*
Y13380D02*
Y13560D01*
Y12880D02*
Y13060D01*
Y12140D02*
Y12320D01*
Y11840D02*
Y12020D01*
X4800Y14540D02*
Y14720D01*
Y14300D02*
Y14480D01*
Y14080D02*
Y14260D01*
Y13840D02*
Y14020D01*
Y13620D02*
Y13800D01*
Y13380D02*
Y13560D01*
Y12880D02*
Y13060D01*
Y12140D02*
Y12320D01*
Y11840D02*
Y12020D01*
X4820Y14300D02*
Y14480D01*
Y13620D02*
Y13800D01*
Y12880D02*
Y13060D01*
Y12140D02*
Y12320D01*
Y11840D02*
Y12020D01*
X4840Y14300D02*
Y14480D01*
Y13620D02*
Y13800D01*
Y12880D02*
Y13060D01*
Y12140D02*
Y12320D01*
Y11840D02*
Y12020D01*
X4860Y14040D02*
Y14720D01*
Y13360D02*
Y14020D01*
Y12880D02*
Y13060D01*
Y12140D02*
Y12320D01*
Y11840D02*
Y12020D01*
X4880Y14060D02*
Y14720D01*
Y13360D02*
Y14020D01*
Y12140D02*
Y13060D01*
Y11840D02*
Y12020D01*
X4900Y14080D02*
Y14720D01*
Y13380D02*
Y14020D01*
Y12140D02*
Y13060D01*
Y11840D02*
Y12020D01*
X4920Y14080D02*
Y14720D01*
Y13400D02*
Y14020D01*
Y12140D02*
Y13060D01*
Y11840D02*
Y12020D01*
X4940Y14100D02*
Y14720D01*
Y13400D02*
Y14020D01*
Y12140D02*
Y13060D01*
Y11840D02*
Y12020D01*
X4960Y14100D02*
Y14720D01*
Y13420D02*
Y14020D01*
Y12140D02*
Y13060D01*
Y11840D02*
Y12020D01*
X4980Y14120D02*
Y14720D01*
Y13420D02*
Y14020D01*
Y12140D02*
Y13060D01*
Y11880D02*
Y12020D01*
X5000Y14140D02*
Y14720D01*
Y13440D02*
Y14020D01*
Y12140D02*
Y13060D01*
Y11900D02*
Y12020D01*
X5020Y14300D02*
Y14480D01*
Y13620D02*
Y13800D01*
Y12140D02*
Y13060D01*
Y11920D02*
Y12020D01*
X5040Y14300D02*
Y14480D01*
Y13620D02*
Y13800D01*
Y12500D02*
Y12660D01*
Y11940D02*
Y12020D01*
X5060Y14300D02*
Y14480D01*
Y13620D02*
Y13800D01*
Y12520D02*
Y12660D01*
Y11960D02*
Y12020D01*
X5080Y14300D02*
Y14480D01*
Y13620D02*
Y13800D01*
Y12560D02*
Y12660D01*
Y11980D02*
Y12020D01*
X5100Y12600D02*
Y12660D01*
Y12000D02*
Y12020D01*
X5120Y12640D02*
Y12660D01*
X14600Y12140D02*
Y12980D01*
X13720Y11740D02*
Y13060D01*
X13740Y13420D02*
Y13500D01*
Y11740D02*
Y13080D01*
X13760Y13420D02*
Y13620D01*
Y11740D02*
Y13080D01*
X13780Y13420D02*
Y13720D01*
Y11760D02*
Y13100D01*
X13800Y13420D02*
Y13840D01*
Y11760D02*
Y13120D01*
X13820Y13420D02*
Y13940D01*
Y11780D02*
Y13120D01*
X13840Y13420D02*
Y14060D01*
Y11780D02*
Y13140D01*
X13860Y13420D02*
Y14160D01*
Y11800D02*
Y13160D01*
X13880Y13420D02*
Y14280D01*
Y11820D02*
Y12020D01*
X13900Y13420D02*
Y14380D01*
Y11820D02*
Y12020D01*
X13920Y13500D02*
Y14500D01*
Y11840D02*
Y12020D01*
X13940Y13620D02*
Y14600D01*
Y11840D02*
Y12020D01*
X13960Y13720D02*
Y14680D01*
Y12140D02*
Y12960D01*
Y11840D02*
Y12020D01*
X13980Y13840D02*
Y14680D01*
Y12140D02*
Y12980D01*
Y11840D02*
Y12020D01*
X14000Y13940D02*
Y14680D01*
Y12140D02*
Y13000D01*
Y11840D02*
Y12020D01*
X14020Y14060D02*
Y14680D01*
Y12140D02*
Y13020D01*
Y11840D02*
Y12020D01*
X14040Y14180D02*
Y14680D01*
Y13940D02*
Y14040D01*
Y13440D02*
Y13480D01*
Y12140D02*
Y13040D01*
Y11840D02*
Y12020D01*
X14060Y14280D02*
Y14680D01*
Y13940D02*
Y14140D01*
Y13440D02*
Y13540D01*
Y12140D02*
Y13060D01*
Y11840D02*
Y12020D01*
X14080Y14400D02*
Y14680D01*
Y13940D02*
Y14140D01*
Y13440D02*
Y13580D01*
Y12140D02*
Y13080D01*
Y11840D02*
Y12020D01*
X14100Y14500D02*
Y14680D01*
Y13940D02*
Y14140D01*
Y13440D02*
Y13640D01*
Y12140D02*
Y13100D01*
Y11840D02*
Y12020D01*
X14120Y14500D02*
Y14680D01*
Y13940D02*
Y14140D01*
Y13440D02*
Y13640D01*
Y12920D02*
Y13100D01*
Y12140D02*
Y12320D01*
Y11840D02*
Y12020D01*
X14140Y14500D02*
Y14680D01*
Y13940D02*
Y14140D01*
Y13440D02*
Y13640D01*
Y12920D02*
Y13100D01*
Y12140D02*
Y12320D01*
Y11840D02*
Y12020D01*
X14160Y14500D02*
Y14680D01*
Y13940D02*
Y14140D01*
Y13440D02*
Y13640D01*
Y12920D02*
Y13100D01*
Y12140D02*
Y12320D01*
Y11840D02*
Y12020D01*
X14180Y14500D02*
Y14680D01*
Y13940D02*
Y14140D01*
Y13440D02*
Y13640D01*
Y12920D02*
Y13100D01*
Y12140D02*
Y12320D01*
Y11840D02*
Y12020D01*
X14200Y14500D02*
Y14680D01*
Y13440D02*
Y13640D01*
Y12920D02*
Y13100D01*
Y12140D02*
Y12320D01*
Y11840D02*
Y12020D01*
X14220Y13440D02*
Y14680D01*
Y12920D02*
Y13100D01*
Y12140D02*
Y12320D01*
Y11840D02*
Y12020D01*
X14240Y13440D02*
Y14680D01*
Y12920D02*
Y13100D01*
Y12140D02*
Y12320D01*
Y11840D02*
Y12020D01*
X14260Y13440D02*
Y14680D01*
Y12920D02*
Y13100D01*
Y12140D02*
Y12320D01*
Y11840D02*
Y12020D01*
X14280Y13440D02*
Y14680D01*
Y12140D02*
Y13100D01*
Y11840D02*
Y12020D01*
X14300Y13440D02*
Y14680D01*
Y12140D02*
Y13100D01*
Y11840D02*
Y12020D01*
X14320Y13440D02*
Y14680D01*
Y12140D02*
Y13100D01*
Y11840D02*
Y12020D01*
X14340Y13440D02*
Y14680D01*
Y12140D02*
Y13100D01*
Y11840D02*
Y12020D01*
X14360Y13440D02*
Y14680D01*
Y12140D02*
Y13100D01*
Y11840D02*
Y12020D01*
X14380Y13440D02*
Y13640D01*
Y12140D02*
Y13100D01*
Y11840D02*
Y12020D01*
X14400Y13440D02*
Y13640D01*
Y12140D02*
Y13100D01*
Y11840D02*
Y12020D01*
X14420Y13440D02*
Y13640D01*
Y12140D02*
Y13100D01*
Y11840D02*
Y12020D01*
X14440Y14540D02*
Y14560D01*
Y14080D02*
Y14100D01*
Y13840D02*
Y13860D01*
Y13380D02*
Y13400D01*
Y12140D02*
Y12320D01*
Y11840D02*
Y12020D01*
X14460Y14540D02*
Y14580D01*
Y14300D02*
Y14480D01*
Y14080D02*
Y14120D01*
Y13840D02*
Y13900D01*
Y13620D02*
Y13800D01*
Y13380D02*
Y13440D01*
Y12140D02*
Y12320D01*
Y11840D02*
Y12020D01*
X14480Y14540D02*
Y14620D01*
Y14300D02*
Y14480D01*
Y14080D02*
Y14160D01*
Y13840D02*
Y13920D01*
Y13620D02*
Y13800D01*
Y13380D02*
Y13460D01*
Y12140D02*
Y12320D01*
Y11840D02*
Y12020D01*
X14500Y14540D02*
Y14640D01*
Y14300D02*
Y14480D01*
Y14080D02*
Y14180D01*
Y13840D02*
Y13960D01*
Y13620D02*
Y13800D01*
Y13380D02*
Y13500D01*
Y12140D02*
Y12320D01*
Y11840D02*
Y12020D01*
X14520Y14540D02*
Y14680D01*
Y14300D02*
Y14480D01*
Y14080D02*
Y14220D01*
Y13840D02*
Y13980D01*
Y13620D02*
Y13800D01*
Y13380D02*
Y13520D01*
Y12140D02*
Y12320D01*
Y11700D02*
Y12020D01*
X14540Y14540D02*
Y14700D01*
Y14300D02*
Y14480D01*
Y14080D02*
Y14240D01*
Y13840D02*
Y14020D01*
Y13620D02*
Y13800D01*
Y13380D02*
Y13560D01*
Y12140D02*
Y12320D01*
Y11700D02*
Y12020D01*
X14560Y14540D02*
Y14720D01*
Y14300D02*
Y14480D01*
Y14080D02*
Y14260D01*
Y13840D02*
Y14020D01*
Y13620D02*
Y13800D01*
Y13380D02*
Y13560D01*
Y12140D02*
Y12940D01*
Y11700D02*
Y12020D01*
X14580Y14540D02*
Y14720D01*
Y14300D02*
Y14480D01*
Y14080D02*
Y14260D01*
Y13840D02*
Y14020D01*
Y13620D02*
Y13800D01*
Y13380D02*
Y13560D01*
Y12140D02*
Y12960D01*
Y11720D02*
Y12020D01*
X14600Y14540D02*
Y14720D01*
Y14300D02*
Y14480D01*
Y14080D02*
Y14260D01*
Y13840D02*
Y14020D01*
Y13620D02*
Y13800D01*
Y13380D02*
Y13560D01*
Y11740D02*
Y12020D01*
X14620Y14540D02*
Y14720D01*
Y14300D02*
Y14480D01*
Y14080D02*
Y14260D01*
Y13840D02*
Y14020D01*
Y13620D02*
Y13800D01*
Y13380D02*
Y13560D01*
Y12140D02*
Y13000D01*
Y11740D02*
Y12020D01*
X14640Y14540D02*
Y14720D01*
Y14300D02*
Y14480D01*
Y14080D02*
Y14260D01*
Y13840D02*
Y14020D01*
Y13620D02*
Y13800D01*
Y13380D02*
Y13560D01*
Y12140D02*
Y13020D01*
Y11760D02*
Y12020D01*
X14660Y14540D02*
Y14720D01*
Y14300D02*
Y14480D01*
Y14080D02*
Y14260D01*
Y13840D02*
Y14020D01*
Y13620D02*
Y13800D01*
Y13380D02*
Y13560D01*
Y12140D02*
Y13040D01*
Y11760D02*
Y12020D01*
X14680Y14540D02*
Y14720D01*
Y14300D02*
Y14480D01*
Y14080D02*
Y14260D01*
Y13840D02*
Y14020D01*
Y13620D02*
Y13800D01*
Y13380D02*
Y13560D01*
Y12140D02*
Y13060D01*
Y11780D02*
Y12020D01*
X14700Y14540D02*
Y14720D01*
Y14300D02*
Y14480D01*
Y14080D02*
Y14260D01*
Y13840D02*
Y14020D01*
Y13620D02*
Y13800D01*
Y13380D02*
Y13560D01*
Y12140D02*
Y13060D01*
X14720Y14540D02*
Y14720D01*
Y14300D02*
Y14480D01*
Y14080D02*
Y14260D01*
Y13840D02*
Y14020D01*
Y13620D02*
Y13800D01*
Y13380D02*
Y13560D01*
Y12880D02*
Y13060D01*
Y12140D02*
Y12320D01*
X14740Y14540D02*
Y14720D01*
Y14300D02*
Y14480D01*
Y14080D02*
Y14260D01*
Y13840D02*
Y14020D01*
Y13620D02*
Y13800D01*
Y13380D02*
Y13560D01*
Y12880D02*
Y13060D01*
Y12140D02*
Y12320D01*
X14760Y14540D02*
Y14720D01*
Y14300D02*
Y14480D01*
Y14080D02*
Y14260D01*
Y13840D02*
Y14020D01*
Y13620D02*
Y13800D01*
Y13380D02*
Y13560D01*
Y12880D02*
Y13060D01*
Y12140D02*
Y12320D01*
Y11840D02*
Y12020D01*
X14780Y14540D02*
Y14720D01*
Y14300D02*
Y14480D01*
Y14080D02*
Y14260D01*
Y13840D02*
Y14020D01*
Y13620D02*
Y13800D01*
Y13380D02*
Y13560D01*
Y12880D02*
Y13060D01*
Y12140D02*
Y12320D01*
Y11840D02*
Y12020D01*
X14800Y14540D02*
Y14720D01*
Y14300D02*
Y14480D01*
Y14080D02*
Y14260D01*
Y13840D02*
Y14020D01*
Y13620D02*
Y13800D01*
Y13380D02*
Y13560D01*
Y12880D02*
Y13060D01*
Y12140D02*
Y12320D01*
Y11840D02*
Y12020D01*
X14820Y14300D02*
Y14480D01*
Y13620D02*
Y13800D01*
Y12880D02*
Y13060D01*
Y12140D02*
Y12320D01*
Y11840D02*
Y12020D01*
X14840Y14300D02*
Y14480D01*
Y13620D02*
Y13800D01*
Y12880D02*
Y13060D01*
Y12140D02*
Y12320D01*
Y11840D02*
Y12020D01*
X14860Y14040D02*
Y14720D01*
Y13360D02*
Y14020D01*
Y12880D02*
Y13060D01*
Y12140D02*
Y12320D01*
Y11840D02*
Y12020D01*
X14880Y14060D02*
Y14720D01*
Y13360D02*
Y14020D01*
Y12140D02*
Y13060D01*
Y11840D02*
Y12020D01*
X14900Y14080D02*
Y14720D01*
Y13380D02*
Y14020D01*
Y12140D02*
Y13060D01*
Y11840D02*
Y12020D01*
X14920Y14080D02*
Y14720D01*
Y13400D02*
Y14020D01*
Y12140D02*
Y13060D01*
Y11840D02*
Y12020D01*
X14940Y14100D02*
Y14720D01*
Y13400D02*
Y14020D01*
Y12140D02*
Y13060D01*
Y11840D02*
Y12020D01*
X14960Y14100D02*
Y14720D01*
Y13420D02*
Y14020D01*
Y12140D02*
Y13060D01*
Y11840D02*
Y12020D01*
X14980Y14120D02*
Y14720D01*
Y13420D02*
Y14020D01*
Y12140D02*
Y13060D01*
Y11880D02*
Y12020D01*
X15000Y14140D02*
Y14720D01*
Y13440D02*
Y14020D01*
Y12140D02*
Y13060D01*
Y11900D02*
Y12020D01*
X15020Y14300D02*
Y14480D01*
Y13620D02*
Y13800D01*
Y12140D02*
Y13060D01*
Y11920D02*
Y12020D01*
X15040Y14300D02*
Y14480D01*
Y13620D02*
Y13800D01*
Y12500D02*
Y12660D01*
Y11940D02*
Y12020D01*
X15060Y14300D02*
Y14480D01*
Y13620D02*
Y13800D01*
Y12520D02*
Y12660D01*
Y11960D02*
Y12020D01*
X15080Y14300D02*
Y14480D01*
Y13620D02*
Y13800D01*
Y12560D02*
Y12660D01*
Y11980D02*
Y12020D01*
X15100Y12600D02*
Y12660D01*
Y12000D02*
Y12020D01*
X15120Y12640D02*
Y12660D01*
X24600Y12140D02*
Y12980D01*
X23720Y11740D02*
Y13060D01*
X23740Y13420D02*
Y13500D01*
Y11740D02*
Y13080D01*
X23760Y13420D02*
Y13620D01*
Y11740D02*
Y13080D01*
X23780Y13420D02*
Y13720D01*
Y11760D02*
Y13100D01*
X23800Y13420D02*
Y13840D01*
Y11760D02*
Y13120D01*
X23820Y13420D02*
Y13940D01*
Y11780D02*
Y13120D01*
X23840Y13420D02*
Y14060D01*
Y11780D02*
Y13140D01*
X23860Y13420D02*
Y14160D01*
Y11800D02*
Y13160D01*
X23880Y13420D02*
Y14280D01*
Y11820D02*
Y12020D01*
X23900Y13420D02*
Y14380D01*
Y11820D02*
Y12020D01*
X23920Y13500D02*
Y14500D01*
Y11840D02*
Y12020D01*
X23940Y13620D02*
Y14600D01*
Y11840D02*
Y12020D01*
X23960Y13720D02*
Y14680D01*
Y12140D02*
Y12960D01*
Y11840D02*
Y12020D01*
X23980Y13840D02*
Y14680D01*
Y12140D02*
Y12980D01*
Y11840D02*
Y12020D01*
X24000Y13940D02*
Y14680D01*
Y12140D02*
Y13000D01*
Y11840D02*
Y12020D01*
X24020Y14060D02*
Y14680D01*
Y12140D02*
Y13020D01*
Y11840D02*
Y12020D01*
X24040Y14180D02*
Y14680D01*
Y13940D02*
Y14040D01*
Y13440D02*
Y13480D01*
Y12140D02*
Y13040D01*
Y11840D02*
Y12020D01*
X24060Y14280D02*
Y14680D01*
Y13940D02*
Y14140D01*
Y13440D02*
Y13540D01*
Y12140D02*
Y13060D01*
Y11840D02*
Y12020D01*
X24080Y14400D02*
Y14680D01*
Y13940D02*
Y14140D01*
Y13440D02*
Y13580D01*
Y12140D02*
Y13080D01*
Y11840D02*
Y12020D01*
X24100Y14500D02*
Y14680D01*
Y13940D02*
Y14140D01*
Y13440D02*
Y13640D01*
Y12140D02*
Y13100D01*
Y11840D02*
Y12020D01*
X24120Y14500D02*
Y14680D01*
Y13940D02*
Y14140D01*
Y13440D02*
Y13640D01*
Y12920D02*
Y13100D01*
Y12140D02*
Y12320D01*
Y11840D02*
Y12020D01*
X24140Y14500D02*
Y14680D01*
Y13940D02*
Y14140D01*
Y13440D02*
Y13640D01*
Y12920D02*
Y13100D01*
Y12140D02*
Y12320D01*
Y11840D02*
Y12020D01*
X24160Y14500D02*
Y14680D01*
Y13940D02*
Y14140D01*
Y13440D02*
Y13640D01*
Y12920D02*
Y13100D01*
Y12140D02*
Y12320D01*
Y11840D02*
Y12020D01*
X24180Y14500D02*
Y14680D01*
Y13940D02*
Y14140D01*
Y13440D02*
Y13640D01*
Y12920D02*
Y13100D01*
Y12140D02*
Y12320D01*
Y11840D02*
Y12020D01*
X24200Y14500D02*
Y14680D01*
Y13440D02*
Y13640D01*
Y12920D02*
Y13100D01*
Y12140D02*
Y12320D01*
Y11840D02*
Y12020D01*
X24220Y13440D02*
Y14680D01*
Y12920D02*
Y13100D01*
Y12140D02*
Y12320D01*
Y11840D02*
Y12020D01*
X24240Y13440D02*
Y14680D01*
Y12920D02*
Y13100D01*
Y12140D02*
Y12320D01*
Y11840D02*
Y12020D01*
X24260Y13440D02*
Y14680D01*
Y12920D02*
Y13100D01*
Y12140D02*
Y12320D01*
Y11840D02*
Y12020D01*
X24280Y13440D02*
Y14680D01*
Y12140D02*
Y13100D01*
Y11840D02*
Y12020D01*
X24300Y13440D02*
Y14680D01*
Y12140D02*
Y13100D01*
Y11840D02*
Y12020D01*
X24320Y13440D02*
Y14680D01*
Y12140D02*
Y13100D01*
Y11840D02*
Y12020D01*
X24340Y13440D02*
Y14680D01*
Y12140D02*
Y13100D01*
Y11840D02*
Y12020D01*
X24360Y13440D02*
Y14680D01*
Y12140D02*
Y13100D01*
Y11840D02*
Y12020D01*
X24380Y13440D02*
Y13640D01*
Y12140D02*
Y13100D01*
Y11840D02*
Y12020D01*
X24400Y13440D02*
Y13640D01*
Y12140D02*
Y13100D01*
Y11840D02*
Y12020D01*
X24420Y13440D02*
Y13640D01*
Y12140D02*
Y13100D01*
Y11840D02*
Y12020D01*
X24440Y14540D02*
Y14560D01*
Y14080D02*
Y14100D01*
Y13840D02*
Y13860D01*
Y13380D02*
Y13400D01*
Y12140D02*
Y12320D01*
Y11840D02*
Y12020D01*
X24460Y14540D02*
Y14580D01*
Y14300D02*
Y14480D01*
Y14080D02*
Y14120D01*
Y13840D02*
Y13900D01*
Y13620D02*
Y13800D01*
Y13380D02*
Y13440D01*
Y12140D02*
Y12320D01*
Y11840D02*
Y12020D01*
X24480Y14540D02*
Y14620D01*
Y14300D02*
Y14480D01*
Y14080D02*
Y14160D01*
Y13840D02*
Y13920D01*
Y13620D02*
Y13800D01*
Y13380D02*
Y13460D01*
Y12140D02*
Y12320D01*
Y11840D02*
Y12020D01*
X24500Y14540D02*
Y14640D01*
Y14300D02*
Y14480D01*
Y14080D02*
Y14180D01*
Y13840D02*
Y13960D01*
Y13620D02*
Y13800D01*
Y13380D02*
Y13500D01*
Y12140D02*
Y12320D01*
Y11840D02*
Y12020D01*
X24520Y14540D02*
Y14680D01*
Y14300D02*
Y14480D01*
Y14080D02*
Y14220D01*
Y13840D02*
Y13980D01*
Y13620D02*
Y13800D01*
Y13380D02*
Y13520D01*
Y12140D02*
Y12320D01*
Y11700D02*
Y12020D01*
X24540Y14540D02*
Y14700D01*
Y14300D02*
Y14480D01*
Y14080D02*
Y14240D01*
Y13840D02*
Y14020D01*
Y13620D02*
Y13800D01*
Y13380D02*
Y13560D01*
Y12140D02*
Y12320D01*
Y11700D02*
Y12020D01*
X24560Y14540D02*
Y14720D01*
Y14300D02*
Y14480D01*
Y14080D02*
Y14260D01*
Y13840D02*
Y14020D01*
Y13620D02*
Y13800D01*
Y13380D02*
Y13560D01*
Y12140D02*
Y12940D01*
Y11700D02*
Y12020D01*
X24580Y14540D02*
Y14720D01*
Y14300D02*
Y14480D01*
Y14080D02*
Y14260D01*
Y13840D02*
Y14020D01*
Y13620D02*
Y13800D01*
Y13380D02*
Y13560D01*
Y12140D02*
Y12960D01*
Y11720D02*
Y12020D01*
X24600Y14540D02*
Y14720D01*
Y14300D02*
Y14480D01*
Y14080D02*
Y14260D01*
Y13840D02*
Y14020D01*
Y13620D02*
Y13800D01*
Y13380D02*
Y13560D01*
Y11740D02*
Y12020D01*
X24620Y14540D02*
Y14720D01*
Y14300D02*
Y14480D01*
Y14080D02*
Y14260D01*
Y13840D02*
Y14020D01*
Y13620D02*
Y13800D01*
Y13380D02*
Y13560D01*
Y12140D02*
Y13000D01*
Y11740D02*
Y12020D01*
X24640Y14540D02*
Y14720D01*
Y14300D02*
Y14480D01*
Y14080D02*
Y14260D01*
Y13840D02*
Y14020D01*
Y13620D02*
Y13800D01*
Y13380D02*
Y13560D01*
Y12140D02*
Y13020D01*
Y11760D02*
Y12020D01*
X24660Y14540D02*
Y14720D01*
Y14300D02*
Y14480D01*
Y14080D02*
Y14260D01*
Y13840D02*
Y14020D01*
Y13620D02*
Y13800D01*
Y13380D02*
Y13560D01*
Y12140D02*
Y13040D01*
Y11760D02*
Y12020D01*
X24680Y14540D02*
Y14720D01*
Y14300D02*
Y14480D01*
Y14080D02*
Y14260D01*
Y13840D02*
Y14020D01*
Y13620D02*
Y13800D01*
Y13380D02*
Y13560D01*
Y12140D02*
Y13060D01*
Y11780D02*
Y12020D01*
X24700Y14540D02*
Y14720D01*
Y14300D02*
Y14480D01*
Y14080D02*
Y14260D01*
Y13840D02*
Y14020D01*
Y13620D02*
Y13800D01*
Y13380D02*
Y13560D01*
Y12140D02*
Y13060D01*
X24720Y14540D02*
Y14720D01*
Y14300D02*
Y14480D01*
Y14080D02*
Y14260D01*
Y13840D02*
Y14020D01*
Y13620D02*
Y13800D01*
Y13380D02*
Y13560D01*
Y12880D02*
Y13060D01*
Y12140D02*
Y12320D01*
X24740Y14540D02*
Y14720D01*
Y14300D02*
Y14480D01*
Y14080D02*
Y14260D01*
Y13840D02*
Y14020D01*
Y13620D02*
Y13800D01*
Y13380D02*
Y13560D01*
Y12880D02*
Y13060D01*
Y12140D02*
Y12320D01*
X24760Y14540D02*
Y14720D01*
Y14300D02*
Y14480D01*
Y14080D02*
Y14260D01*
Y13840D02*
Y14020D01*
Y13620D02*
Y13800D01*
Y13380D02*
Y13560D01*
Y12880D02*
Y13060D01*
Y12140D02*
Y12320D01*
Y11840D02*
Y12020D01*
X24780Y14540D02*
Y14720D01*
Y14300D02*
Y14480D01*
Y14080D02*
Y14260D01*
Y13840D02*
Y14020D01*
Y13620D02*
Y13800D01*
Y13380D02*
Y13560D01*
Y12880D02*
Y13060D01*
Y12140D02*
Y12320D01*
Y11840D02*
Y12020D01*
X24800Y14540D02*
Y14720D01*
Y14300D02*
Y14480D01*
Y14080D02*
Y14260D01*
Y13840D02*
Y14020D01*
Y13620D02*
Y13800D01*
Y13380D02*
Y13560D01*
Y12880D02*
Y13060D01*
Y12140D02*
Y12320D01*
Y11840D02*
Y12020D01*
X24820Y14300D02*
Y14480D01*
Y13620D02*
Y13800D01*
Y12880D02*
Y13060D01*
Y12140D02*
Y12320D01*
Y11840D02*
Y12020D01*
X24840Y14300D02*
Y14480D01*
Y13620D02*
Y13800D01*
Y12880D02*
Y13060D01*
Y12140D02*
Y12320D01*
Y11840D02*
Y12020D01*
X24860Y14040D02*
Y14720D01*
Y13360D02*
Y14020D01*
Y12880D02*
Y13060D01*
Y12140D02*
Y12320D01*
Y11840D02*
Y12020D01*
X24880Y14060D02*
Y14720D01*
Y13360D02*
Y14020D01*
Y12140D02*
Y13060D01*
Y11840D02*
Y12020D01*
X24900Y14080D02*
Y14720D01*
Y13380D02*
Y14020D01*
Y12140D02*
Y13060D01*
Y11840D02*
Y12020D01*
X24920Y14080D02*
Y14720D01*
Y13400D02*
Y14020D01*
Y12140D02*
Y13060D01*
Y11840D02*
Y12020D01*
X24940Y14100D02*
Y14720D01*
Y13400D02*
Y14020D01*
Y12140D02*
Y13060D01*
Y11840D02*
Y12020D01*
X24960Y14100D02*
Y14720D01*
Y13420D02*
Y14020D01*
Y12140D02*
Y13060D01*
Y11840D02*
Y12020D01*
X24980Y14120D02*
Y14720D01*
Y13420D02*
Y14020D01*
Y12140D02*
Y13060D01*
Y11880D02*
Y12020D01*
X25000Y14140D02*
Y14720D01*
Y13440D02*
Y14020D01*
Y12140D02*
Y13060D01*
Y11900D02*
Y12020D01*
X25020Y14300D02*
Y14480D01*
Y13620D02*
Y13800D01*
Y12140D02*
Y13060D01*
Y11920D02*
Y12020D01*
X25040Y14300D02*
Y14480D01*
Y13620D02*
Y13800D01*
Y12500D02*
Y12660D01*
Y11940D02*
Y12020D01*
X25060Y14300D02*
Y14480D01*
Y13620D02*
Y13800D01*
Y12520D02*
Y12660D01*
Y11960D02*
Y12020D01*
X25080Y14300D02*
Y14480D01*
Y13620D02*
Y13800D01*
Y12560D02*
Y12660D01*
Y11980D02*
Y12020D01*
X25100Y12600D02*
Y12660D01*
Y12000D02*
Y12020D01*
X25120Y12640D02*
Y12660D01*
X4600Y20940D02*
Y21780D01*
X3720Y20540D02*
Y21860D01*
X3740Y22220D02*
Y22300D01*
Y20540D02*
Y21880D01*
X3760Y22220D02*
Y22420D01*
Y20540D02*
Y21880D01*
X3780Y22220D02*
Y22520D01*
Y20560D02*
Y21900D01*
X3800Y22220D02*
Y22640D01*
Y20560D02*
Y21920D01*
X3820Y22220D02*
Y22740D01*
Y20580D02*
Y21920D01*
X3840Y22220D02*
Y22860D01*
Y20580D02*
Y21940D01*
X3860Y22220D02*
Y22960D01*
Y20600D02*
Y21960D01*
X3880Y22220D02*
Y23080D01*
Y20620D02*
Y20820D01*
X3900Y22220D02*
Y23180D01*
Y20620D02*
Y20820D01*
X3920Y22300D02*
Y23300D01*
Y20640D02*
Y20820D01*
X3940Y22420D02*
Y23400D01*
Y20640D02*
Y20820D01*
X3960Y22520D02*
Y23480D01*
Y20940D02*
Y21760D01*
Y20640D02*
Y20820D01*
X3980Y22640D02*
Y23480D01*
Y20940D02*
Y21780D01*
Y20640D02*
Y20820D01*
X4000Y22740D02*
Y23480D01*
Y20940D02*
Y21800D01*
Y20640D02*
Y20820D01*
X4020Y22860D02*
Y23480D01*
Y20940D02*
Y21820D01*
Y20640D02*
Y20820D01*
X4040Y22980D02*
Y23480D01*
Y22740D02*
Y22840D01*
Y22240D02*
Y22280D01*
Y20940D02*
Y21840D01*
Y20640D02*
Y20820D01*
X4060Y23080D02*
Y23480D01*
Y22740D02*
Y22940D01*
Y22240D02*
Y22340D01*
Y20940D02*
Y21860D01*
Y20640D02*
Y20820D01*
X4080Y23200D02*
Y23480D01*
Y22740D02*
Y22940D01*
Y22240D02*
Y22380D01*
Y20940D02*
Y21880D01*
Y20640D02*
Y20820D01*
X4100Y23300D02*
Y23480D01*
Y22740D02*
Y22940D01*
Y22240D02*
Y22440D01*
Y20940D02*
Y21900D01*
Y20640D02*
Y20820D01*
X4120Y23300D02*
Y23480D01*
Y22740D02*
Y22940D01*
Y22240D02*
Y22440D01*
Y21720D02*
Y21900D01*
Y20940D02*
Y21120D01*
Y20640D02*
Y20820D01*
X4140Y23300D02*
Y23480D01*
Y22740D02*
Y22940D01*
Y22240D02*
Y22440D01*
Y21720D02*
Y21900D01*
Y20940D02*
Y21120D01*
Y20640D02*
Y20820D01*
X4160Y23300D02*
Y23480D01*
Y22740D02*
Y22940D01*
Y22240D02*
Y22440D01*
Y21720D02*
Y21900D01*
Y20940D02*
Y21120D01*
Y20640D02*
Y20820D01*
X4180Y23300D02*
Y23480D01*
Y22740D02*
Y22940D01*
Y22240D02*
Y22440D01*
Y21720D02*
Y21900D01*
Y20940D02*
Y21120D01*
Y20640D02*
Y20820D01*
X4200Y23300D02*
Y23480D01*
Y22240D02*
Y22440D01*
Y21720D02*
Y21900D01*
Y20940D02*
Y21120D01*
Y20640D02*
Y20820D01*
X4220Y22240D02*
Y23480D01*
Y21720D02*
Y21900D01*
Y20940D02*
Y21120D01*
Y20640D02*
Y20820D01*
X4240Y22240D02*
Y23480D01*
Y21720D02*
Y21900D01*
Y20940D02*
Y21120D01*
Y20640D02*
Y20820D01*
X4260Y22240D02*
Y23480D01*
Y21720D02*
Y21900D01*
Y20940D02*
Y21120D01*
Y20640D02*
Y20820D01*
X4280Y22240D02*
Y23480D01*
Y20940D02*
Y21900D01*
Y20640D02*
Y20820D01*
X4300Y22240D02*
Y23480D01*
Y20940D02*
Y21900D01*
Y20640D02*
Y20820D01*
X4320Y22240D02*
Y23480D01*
Y20940D02*
Y21900D01*
Y20640D02*
Y20820D01*
X4340Y22240D02*
Y23480D01*
Y20940D02*
Y21900D01*
Y20640D02*
Y20820D01*
X4360Y22240D02*
Y23480D01*
Y20940D02*
Y21900D01*
Y20640D02*
Y20820D01*
X4380Y22240D02*
Y22440D01*
Y20940D02*
Y21900D01*
Y20640D02*
Y20820D01*
X4400Y22240D02*
Y22440D01*
Y20940D02*
Y21900D01*
Y20640D02*
Y20820D01*
X4420Y22240D02*
Y22440D01*
Y20940D02*
Y21900D01*
Y20640D02*
Y20820D01*
X4440Y23340D02*
Y23360D01*
Y22880D02*
Y22900D01*
Y22640D02*
Y22660D01*
Y22180D02*
Y22200D01*
Y20940D02*
Y21120D01*
Y20640D02*
Y20820D01*
X4460Y23340D02*
Y23380D01*
Y23100D02*
Y23280D01*
Y22880D02*
Y22920D01*
Y22640D02*
Y22700D01*
Y22420D02*
Y22600D01*
Y22180D02*
Y22240D01*
Y20940D02*
Y21120D01*
Y20640D02*
Y20820D01*
X4480Y23340D02*
Y23420D01*
Y23100D02*
Y23280D01*
Y22880D02*
Y22960D01*
Y22640D02*
Y22720D01*
Y22420D02*
Y22600D01*
Y22180D02*
Y22260D01*
Y20940D02*
Y21120D01*
Y20640D02*
Y20820D01*
X4500Y23340D02*
Y23440D01*
Y23100D02*
Y23280D01*
Y22880D02*
Y22980D01*
Y22640D02*
Y22760D01*
Y22420D02*
Y22600D01*
Y22180D02*
Y22300D01*
Y20940D02*
Y21120D01*
Y20640D02*
Y20820D01*
X4520Y23340D02*
Y23480D01*
Y23100D02*
Y23280D01*
Y22880D02*
Y23020D01*
Y22640D02*
Y22780D01*
Y22420D02*
Y22600D01*
Y22180D02*
Y22320D01*
Y20940D02*
Y21120D01*
Y20500D02*
Y20820D01*
X4540Y23340D02*
Y23500D01*
Y23100D02*
Y23280D01*
Y22880D02*
Y23040D01*
Y22640D02*
Y22820D01*
Y22420D02*
Y22600D01*
Y22180D02*
Y22360D01*
Y20940D02*
Y21120D01*
Y20500D02*
Y20820D01*
X4560Y23340D02*
Y23520D01*
Y23100D02*
Y23280D01*
Y22880D02*
Y23060D01*
Y22640D02*
Y22820D01*
Y22420D02*
Y22600D01*
Y22180D02*
Y22360D01*
Y20940D02*
Y21740D01*
Y20500D02*
Y20820D01*
X4580Y23340D02*
Y23520D01*
Y23100D02*
Y23280D01*
Y22880D02*
Y23060D01*
Y22640D02*
Y22820D01*
Y22420D02*
Y22600D01*
Y22180D02*
Y22360D01*
Y20940D02*
Y21760D01*
Y20520D02*
Y20820D01*
X4600Y23340D02*
Y23520D01*
Y23100D02*
Y23280D01*
Y22880D02*
Y23060D01*
Y22640D02*
Y22820D01*
Y22420D02*
Y22600D01*
Y22180D02*
Y22360D01*
Y20540D02*
Y20820D01*
X4620Y23340D02*
Y23520D01*
Y23100D02*
Y23280D01*
Y22880D02*
Y23060D01*
Y22640D02*
Y22820D01*
Y22420D02*
Y22600D01*
Y22180D02*
Y22360D01*
Y20940D02*
Y21800D01*
Y20540D02*
Y20820D01*
X4640Y23340D02*
Y23520D01*
Y23100D02*
Y23280D01*
Y22880D02*
Y23060D01*
Y22640D02*
Y22820D01*
Y22420D02*
Y22600D01*
Y22180D02*
Y22360D01*
Y20940D02*
Y21820D01*
Y20560D02*
Y20820D01*
X4660Y23340D02*
Y23520D01*
Y23100D02*
Y23280D01*
Y22880D02*
Y23060D01*
Y22640D02*
Y22820D01*
Y22420D02*
Y22600D01*
Y22180D02*
Y22360D01*
Y20940D02*
Y21840D01*
Y20560D02*
Y20820D01*
X4680Y23340D02*
Y23520D01*
Y23100D02*
Y23280D01*
Y22880D02*
Y23060D01*
Y22640D02*
Y22820D01*
Y22420D02*
Y22600D01*
Y22180D02*
Y22360D01*
Y20940D02*
Y21860D01*
Y20580D02*
Y20820D01*
X4700Y23340D02*
Y23520D01*
Y23100D02*
Y23280D01*
Y22880D02*
Y23060D01*
Y22640D02*
Y22820D01*
Y22420D02*
Y22600D01*
Y22180D02*
Y22360D01*
Y20940D02*
Y21860D01*
X4720Y23340D02*
Y23520D01*
Y23100D02*
Y23280D01*
Y22880D02*
Y23060D01*
Y22640D02*
Y22820D01*
Y22420D02*
Y22600D01*
Y22180D02*
Y22360D01*
Y21680D02*
Y21860D01*
Y20940D02*
Y21120D01*
X4740Y23340D02*
Y23520D01*
Y23100D02*
Y23280D01*
Y22880D02*
Y23060D01*
Y22640D02*
Y22820D01*
Y22420D02*
Y22600D01*
Y22180D02*
Y22360D01*
Y21680D02*
Y21860D01*
Y20940D02*
Y21120D01*
X4760Y23340D02*
Y23520D01*
Y23100D02*
Y23280D01*
Y22880D02*
Y23060D01*
Y22640D02*
Y22820D01*
Y22420D02*
Y22600D01*
Y22180D02*
Y22360D01*
Y21680D02*
Y21860D01*
Y20940D02*
Y21120D01*
Y20640D02*
Y20820D01*
X4780Y23340D02*
Y23520D01*
Y23100D02*
Y23280D01*
Y22880D02*
Y23060D01*
Y22640D02*
Y22820D01*
Y22420D02*
Y22600D01*
Y22180D02*
Y22360D01*
Y21680D02*
Y21860D01*
Y20940D02*
Y21120D01*
Y20640D02*
Y20820D01*
X4800Y23340D02*
Y23520D01*
Y23100D02*
Y23280D01*
Y22880D02*
Y23060D01*
Y22640D02*
Y22820D01*
Y22420D02*
Y22600D01*
Y22180D02*
Y22360D01*
Y21680D02*
Y21860D01*
Y20940D02*
Y21120D01*
Y20640D02*
Y20820D01*
X4820Y23100D02*
Y23280D01*
Y22420D02*
Y22600D01*
Y21680D02*
Y21860D01*
Y20940D02*
Y21120D01*
Y20640D02*
Y20820D01*
X4840Y23100D02*
Y23280D01*
Y22420D02*
Y22600D01*
Y21680D02*
Y21860D01*
Y20940D02*
Y21120D01*
Y20640D02*
Y20820D01*
X4860Y22840D02*
Y23520D01*
Y22160D02*
Y22820D01*
Y21680D02*
Y21860D01*
Y20940D02*
Y21120D01*
Y20640D02*
Y20820D01*
X4880Y22860D02*
Y23520D01*
Y22160D02*
Y22820D01*
Y20940D02*
Y21860D01*
Y20640D02*
Y20820D01*
X4900Y22880D02*
Y23520D01*
Y22180D02*
Y22820D01*
Y20940D02*
Y21860D01*
Y20640D02*
Y20820D01*
X4920Y22880D02*
Y23520D01*
Y22200D02*
Y22820D01*
Y20940D02*
Y21860D01*
Y20640D02*
Y20820D01*
X4940Y22900D02*
Y23520D01*
Y22200D02*
Y22820D01*
Y20940D02*
Y21860D01*
Y20640D02*
Y20820D01*
X4960Y22900D02*
Y23520D01*
Y22220D02*
Y22820D01*
Y20940D02*
Y21860D01*
Y20640D02*
Y20820D01*
X4980Y22920D02*
Y23520D01*
Y22220D02*
Y22820D01*
Y20940D02*
Y21860D01*
Y20680D02*
Y20820D01*
X5000Y22940D02*
Y23520D01*
Y22240D02*
Y22820D01*
Y20940D02*
Y21860D01*
Y20700D02*
Y20820D01*
X5020Y23100D02*
Y23280D01*
Y22420D02*
Y22600D01*
Y20940D02*
Y21860D01*
Y20720D02*
Y20820D01*
X5040Y23100D02*
Y23280D01*
Y22420D02*
Y22600D01*
Y21300D02*
Y21460D01*
Y20740D02*
Y20820D01*
X5060Y23100D02*
Y23280D01*
Y22420D02*
Y22600D01*
Y21320D02*
Y21460D01*
Y20760D02*
Y20820D01*
X5080Y23100D02*
Y23280D01*
Y22420D02*
Y22600D01*
Y21360D02*
Y21460D01*
Y20780D02*
Y20820D01*
X5100Y21400D02*
Y21460D01*
Y20800D02*
Y20820D01*
X5120Y21440D02*
Y21460D01*
X14600Y20940D02*
Y21780D01*
X13720Y20540D02*
Y21860D01*
X13740Y22220D02*
Y22300D01*
Y20540D02*
Y21880D01*
X13760Y22220D02*
Y22420D01*
Y20540D02*
Y21880D01*
X13780Y22220D02*
Y22520D01*
Y20560D02*
Y21900D01*
X13800Y22220D02*
Y22640D01*
Y20560D02*
Y21920D01*
X13820Y22220D02*
Y22740D01*
Y20580D02*
Y21920D01*
X13840Y22220D02*
Y22860D01*
Y20580D02*
Y21940D01*
X13860Y22220D02*
Y22960D01*
Y20600D02*
Y21960D01*
X13880Y22220D02*
Y23080D01*
Y20620D02*
Y20820D01*
X13900Y22220D02*
Y23180D01*
Y20620D02*
Y20820D01*
X13920Y22300D02*
Y23300D01*
Y20640D02*
Y20820D01*
X13940Y22420D02*
Y23400D01*
Y20640D02*
Y20820D01*
X13960Y22520D02*
Y23480D01*
Y20940D02*
Y21760D01*
Y20640D02*
Y20820D01*
X13980Y22640D02*
Y23480D01*
Y20940D02*
Y21780D01*
Y20640D02*
Y20820D01*
X14000Y22740D02*
Y23480D01*
Y20940D02*
Y21800D01*
Y20640D02*
Y20820D01*
X14020Y22860D02*
Y23480D01*
Y20940D02*
Y21820D01*
Y20640D02*
Y20820D01*
X14040Y22980D02*
Y23480D01*
Y22740D02*
Y22840D01*
Y22240D02*
Y22280D01*
Y20940D02*
Y21840D01*
Y20640D02*
Y20820D01*
X14060Y23080D02*
Y23480D01*
Y22740D02*
Y22940D01*
Y22240D02*
Y22340D01*
Y20940D02*
Y21860D01*
Y20640D02*
Y20820D01*
X14080Y23200D02*
Y23480D01*
Y22740D02*
Y22940D01*
Y22240D02*
Y22380D01*
Y20940D02*
Y21880D01*
Y20640D02*
Y20820D01*
X14100Y23300D02*
Y23480D01*
Y22740D02*
Y22940D01*
Y22240D02*
Y22440D01*
Y20940D02*
Y21900D01*
Y20640D02*
Y20820D01*
X14120Y23300D02*
Y23480D01*
Y22740D02*
Y22940D01*
Y22240D02*
Y22440D01*
Y21720D02*
Y21900D01*
Y20940D02*
Y21120D01*
Y20640D02*
Y20820D01*
X14140Y23300D02*
Y23480D01*
Y22740D02*
Y22940D01*
Y22240D02*
Y22440D01*
Y21720D02*
Y21900D01*
Y20940D02*
Y21120D01*
Y20640D02*
Y20820D01*
X14160Y23300D02*
Y23480D01*
Y22740D02*
Y22940D01*
Y22240D02*
Y22440D01*
Y21720D02*
Y21900D01*
Y20940D02*
Y21120D01*
Y20640D02*
Y20820D01*
X14180Y23300D02*
Y23480D01*
Y22740D02*
Y22940D01*
Y22240D02*
Y22440D01*
Y21720D02*
Y21900D01*
Y20940D02*
Y21120D01*
Y20640D02*
Y20820D01*
X14200Y23300D02*
Y23480D01*
Y22240D02*
Y22440D01*
Y21720D02*
Y21900D01*
Y20940D02*
Y21120D01*
Y20640D02*
Y20820D01*
X14220Y22240D02*
Y23480D01*
Y21720D02*
Y21900D01*
Y20940D02*
Y21120D01*
Y20640D02*
Y20820D01*
X14240Y22240D02*
Y23480D01*
Y21720D02*
Y21900D01*
Y20940D02*
Y21120D01*
Y20640D02*
Y20820D01*
X14260Y22240D02*
Y23480D01*
Y21720D02*
Y21900D01*
Y20940D02*
Y21120D01*
Y20640D02*
Y20820D01*
X14280Y22240D02*
Y23480D01*
Y20940D02*
Y21900D01*
Y20640D02*
Y20820D01*
X14300Y22240D02*
Y23480D01*
Y20940D02*
Y21900D01*
Y20640D02*
Y20820D01*
X14320Y22240D02*
Y23480D01*
Y20940D02*
Y21900D01*
Y20640D02*
Y20820D01*
X14340Y22240D02*
Y23480D01*
Y20940D02*
Y21900D01*
Y20640D02*
Y20820D01*
X14360Y22240D02*
Y23480D01*
Y20940D02*
Y21900D01*
Y20640D02*
Y20820D01*
X14380Y22240D02*
Y22440D01*
Y20940D02*
Y21900D01*
Y20640D02*
Y20820D01*
X14400Y22240D02*
Y22440D01*
Y20940D02*
Y21900D01*
Y20640D02*
Y20820D01*
X14420Y22240D02*
Y22440D01*
Y20940D02*
Y21900D01*
Y20640D02*
Y20820D01*
X14440Y23340D02*
Y23360D01*
Y22880D02*
Y22900D01*
Y22640D02*
Y22660D01*
Y22180D02*
Y22200D01*
Y20940D02*
Y21120D01*
Y20640D02*
Y20820D01*
X14460Y23340D02*
Y23380D01*
Y23100D02*
Y23280D01*
Y22880D02*
Y22920D01*
Y22640D02*
Y22700D01*
Y22420D02*
Y22600D01*
Y22180D02*
Y22240D01*
Y20940D02*
Y21120D01*
Y20640D02*
Y20820D01*
X14480Y23340D02*
Y23420D01*
Y23100D02*
Y23280D01*
Y22880D02*
Y22960D01*
Y22640D02*
Y22720D01*
Y22420D02*
Y22600D01*
Y22180D02*
Y22260D01*
Y20940D02*
Y21120D01*
Y20640D02*
Y20820D01*
X14500Y23340D02*
Y23440D01*
Y23100D02*
Y23280D01*
Y22880D02*
Y22980D01*
Y22640D02*
Y22760D01*
Y22420D02*
Y22600D01*
Y22180D02*
Y22300D01*
Y20940D02*
Y21120D01*
Y20640D02*
Y20820D01*
X14520Y23340D02*
Y23480D01*
Y23100D02*
Y23280D01*
Y22880D02*
Y23020D01*
Y22640D02*
Y22780D01*
Y22420D02*
Y22600D01*
Y22180D02*
Y22320D01*
Y20940D02*
Y21120D01*
Y20500D02*
Y20820D01*
X14540Y23340D02*
Y23500D01*
Y23100D02*
Y23280D01*
Y22880D02*
Y23040D01*
Y22640D02*
Y22820D01*
Y22420D02*
Y22600D01*
Y22180D02*
Y22360D01*
Y20940D02*
Y21120D01*
Y20500D02*
Y20820D01*
X14560Y23340D02*
Y23520D01*
Y23100D02*
Y23280D01*
Y22880D02*
Y23060D01*
Y22640D02*
Y22820D01*
Y22420D02*
Y22600D01*
Y22180D02*
Y22360D01*
Y20940D02*
Y21740D01*
Y20500D02*
Y20820D01*
X14580Y23340D02*
Y23520D01*
Y23100D02*
Y23280D01*
Y22880D02*
Y23060D01*
Y22640D02*
Y22820D01*
Y22420D02*
Y22600D01*
Y22180D02*
Y22360D01*
Y20940D02*
Y21760D01*
Y20520D02*
Y20820D01*
X14600Y23340D02*
Y23520D01*
Y23100D02*
Y23280D01*
Y22880D02*
Y23060D01*
Y22640D02*
Y22820D01*
Y22420D02*
Y22600D01*
Y22180D02*
Y22360D01*
Y20540D02*
Y20820D01*
X14620Y23340D02*
Y23520D01*
Y23100D02*
Y23280D01*
Y22880D02*
Y23060D01*
Y22640D02*
Y22820D01*
Y22420D02*
Y22600D01*
Y22180D02*
Y22360D01*
Y20940D02*
Y21800D01*
Y20540D02*
Y20820D01*
X14640Y23340D02*
Y23520D01*
Y23100D02*
Y23280D01*
Y22880D02*
Y23060D01*
Y22640D02*
Y22820D01*
Y22420D02*
Y22600D01*
Y22180D02*
Y22360D01*
Y20940D02*
Y21820D01*
Y20560D02*
Y20820D01*
X14660Y23340D02*
Y23520D01*
Y23100D02*
Y23280D01*
Y22880D02*
Y23060D01*
Y22640D02*
Y22820D01*
Y22420D02*
Y22600D01*
Y22180D02*
Y22360D01*
Y20940D02*
Y21840D01*
Y20560D02*
Y20820D01*
X14680Y23340D02*
Y23520D01*
Y23100D02*
Y23280D01*
Y22880D02*
Y23060D01*
Y22640D02*
Y22820D01*
Y22420D02*
Y22600D01*
Y22180D02*
Y22360D01*
Y20940D02*
Y21860D01*
Y20580D02*
Y20820D01*
X14700Y23340D02*
Y23520D01*
Y23100D02*
Y23280D01*
Y22880D02*
Y23060D01*
Y22640D02*
Y22820D01*
Y22420D02*
Y22600D01*
Y22180D02*
Y22360D01*
Y20940D02*
Y21860D01*
X14720Y23340D02*
Y23520D01*
Y23100D02*
Y23280D01*
Y22880D02*
Y23060D01*
Y22640D02*
Y22820D01*
Y22420D02*
Y22600D01*
Y22180D02*
Y22360D01*
Y21680D02*
Y21860D01*
Y20940D02*
Y21120D01*
X14740Y23340D02*
Y23520D01*
Y23100D02*
Y23280D01*
Y22880D02*
Y23060D01*
Y22640D02*
Y22820D01*
Y22420D02*
Y22600D01*
Y22180D02*
Y22360D01*
Y21680D02*
Y21860D01*
Y20940D02*
Y21120D01*
X14760Y23340D02*
Y23520D01*
Y23100D02*
Y23280D01*
Y22880D02*
Y23060D01*
Y22640D02*
Y22820D01*
Y22420D02*
Y22600D01*
Y22180D02*
Y22360D01*
Y21680D02*
Y21860D01*
Y20940D02*
Y21120D01*
Y20640D02*
Y20820D01*
X14780Y23340D02*
Y23520D01*
Y23100D02*
Y23280D01*
Y22880D02*
Y23060D01*
Y22640D02*
Y22820D01*
Y22420D02*
Y22600D01*
Y22180D02*
Y22360D01*
Y21680D02*
Y21860D01*
Y20940D02*
Y21120D01*
Y20640D02*
Y20820D01*
X14800Y23340D02*
Y23520D01*
Y23100D02*
Y23280D01*
Y22880D02*
Y23060D01*
Y22640D02*
Y22820D01*
Y22420D02*
Y22600D01*
Y22180D02*
Y22360D01*
Y21680D02*
Y21860D01*
Y20940D02*
Y21120D01*
Y20640D02*
Y20820D01*
X14820Y23100D02*
Y23280D01*
Y22420D02*
Y22600D01*
Y21680D02*
Y21860D01*
Y20940D02*
Y21120D01*
Y20640D02*
Y20820D01*
X14840Y23100D02*
Y23280D01*
Y22420D02*
Y22600D01*
Y21680D02*
Y21860D01*
Y20940D02*
Y21120D01*
Y20640D02*
Y20820D01*
X14860Y22840D02*
Y23520D01*
Y22160D02*
Y22820D01*
Y21680D02*
Y21860D01*
Y20940D02*
Y21120D01*
Y20640D02*
Y20820D01*
X14880Y22860D02*
Y23520D01*
Y22160D02*
Y22820D01*
Y20940D02*
Y21860D01*
Y20640D02*
Y20820D01*
X14900Y22880D02*
Y23520D01*
Y22180D02*
Y22820D01*
Y20940D02*
Y21860D01*
Y20640D02*
Y20820D01*
X14920Y22880D02*
Y23520D01*
Y22200D02*
Y22820D01*
Y20940D02*
Y21860D01*
Y20640D02*
Y20820D01*
X14940Y22900D02*
Y23520D01*
Y22200D02*
Y22820D01*
Y20940D02*
Y21860D01*
Y20640D02*
Y20820D01*
X14960Y22900D02*
Y23520D01*
Y22220D02*
Y22820D01*
Y20940D02*
Y21860D01*
Y20640D02*
Y20820D01*
X14980Y22920D02*
Y23520D01*
Y22220D02*
Y22820D01*
Y20940D02*
Y21860D01*
Y20680D02*
Y20820D01*
X15000Y22940D02*
Y23520D01*
Y22240D02*
Y22820D01*
Y20940D02*
Y21860D01*
Y20700D02*
Y20820D01*
X15020Y23100D02*
Y23280D01*
Y22420D02*
Y22600D01*
Y20940D02*
Y21860D01*
Y20720D02*
Y20820D01*
X15040Y23100D02*
Y23280D01*
Y22420D02*
Y22600D01*
Y21300D02*
Y21460D01*
Y20740D02*
Y20820D01*
X15060Y23100D02*
Y23280D01*
Y22420D02*
Y22600D01*
Y21320D02*
Y21460D01*
Y20760D02*
Y20820D01*
X15080Y23100D02*
Y23280D01*
Y22420D02*
Y22600D01*
Y21360D02*
Y21460D01*
Y20780D02*
Y20820D01*
X15100Y21400D02*
Y21460D01*
Y20800D02*
Y20820D01*
X15120Y21440D02*
Y21460D01*
X24600Y20940D02*
Y21780D01*
X23720Y20540D02*
Y21860D01*
X23740Y22220D02*
Y22300D01*
Y20540D02*
Y21880D01*
X23760Y22220D02*
Y22420D01*
Y20540D02*
Y21880D01*
X23780Y22220D02*
Y22520D01*
Y20560D02*
Y21900D01*
X23800Y22220D02*
Y22640D01*
Y20560D02*
Y21920D01*
X23820Y22220D02*
Y22740D01*
Y20580D02*
Y21920D01*
X23840Y22220D02*
Y22860D01*
Y20580D02*
Y21940D01*
X23860Y22220D02*
Y22960D01*
Y20600D02*
Y21960D01*
X23880Y22220D02*
Y23080D01*
Y20620D02*
Y20820D01*
X23900Y22220D02*
Y23180D01*
Y20620D02*
Y20820D01*
X23920Y22300D02*
Y23300D01*
Y20640D02*
Y20820D01*
X23940Y22420D02*
Y23400D01*
Y20640D02*
Y20820D01*
X23960Y22520D02*
Y23480D01*
Y20940D02*
Y21760D01*
Y20640D02*
Y20820D01*
X23980Y22640D02*
Y23480D01*
Y20940D02*
Y21780D01*
Y20640D02*
Y20820D01*
X24000Y22740D02*
Y23480D01*
Y20940D02*
Y21800D01*
Y20640D02*
Y20820D01*
X24020Y22860D02*
Y23480D01*
Y20940D02*
Y21820D01*
Y20640D02*
Y20820D01*
X24040Y22980D02*
Y23480D01*
Y22740D02*
Y22840D01*
Y22240D02*
Y22280D01*
Y20940D02*
Y21840D01*
Y20640D02*
Y20820D01*
X24060Y23080D02*
Y23480D01*
Y22740D02*
Y22940D01*
Y22240D02*
Y22340D01*
Y20940D02*
Y21860D01*
Y20640D02*
Y20820D01*
X24080Y23200D02*
Y23480D01*
Y22740D02*
Y22940D01*
Y22240D02*
Y22380D01*
Y20940D02*
Y21880D01*
Y20640D02*
Y20820D01*
X24100Y23300D02*
Y23480D01*
Y22740D02*
Y22940D01*
Y22240D02*
Y22440D01*
Y20940D02*
Y21900D01*
Y20640D02*
Y20820D01*
X24120Y23300D02*
Y23480D01*
Y22740D02*
Y22940D01*
Y22240D02*
Y22440D01*
Y21720D02*
Y21900D01*
Y20940D02*
Y21120D01*
Y20640D02*
Y20820D01*
X24140Y23300D02*
Y23480D01*
Y22740D02*
Y22940D01*
Y22240D02*
Y22440D01*
Y21720D02*
Y21900D01*
Y20940D02*
Y21120D01*
Y20640D02*
Y20820D01*
X24160Y23300D02*
Y23480D01*
Y22740D02*
Y22940D01*
Y22240D02*
Y22440D01*
Y21720D02*
Y21900D01*
Y20940D02*
Y21120D01*
Y20640D02*
Y20820D01*
X24180Y23300D02*
Y23480D01*
Y22740D02*
Y22940D01*
Y22240D02*
Y22440D01*
Y21720D02*
Y21900D01*
Y20940D02*
Y21120D01*
Y20640D02*
Y20820D01*
X24200Y23300D02*
Y23480D01*
Y22240D02*
Y22440D01*
Y21720D02*
Y21900D01*
Y20940D02*
Y21120D01*
Y20640D02*
Y20820D01*
X24220Y22240D02*
Y23480D01*
Y21720D02*
Y21900D01*
Y20940D02*
Y21120D01*
Y20640D02*
Y20820D01*
X24240Y22240D02*
Y23480D01*
Y21720D02*
Y21900D01*
Y20940D02*
Y21120D01*
Y20640D02*
Y20820D01*
X24260Y22240D02*
Y23480D01*
Y21720D02*
Y21900D01*
Y20940D02*
Y21120D01*
Y20640D02*
Y20820D01*
X24280Y22240D02*
Y23480D01*
Y20940D02*
Y21900D01*
Y20640D02*
Y20820D01*
X24300Y22240D02*
Y23480D01*
Y20940D02*
Y21900D01*
Y20640D02*
Y20820D01*
X24320Y22240D02*
Y23480D01*
Y20940D02*
Y21900D01*
Y20640D02*
Y20820D01*
X24340Y22240D02*
Y23480D01*
Y20940D02*
Y21900D01*
Y20640D02*
Y20820D01*
X24360Y22240D02*
Y23480D01*
Y20940D02*
Y21900D01*
Y20640D02*
Y20820D01*
X24380Y22240D02*
Y22440D01*
Y20940D02*
Y21900D01*
Y20640D02*
Y20820D01*
X24400Y22240D02*
Y22440D01*
Y20940D02*
Y21900D01*
Y20640D02*
Y20820D01*
X24420Y22240D02*
Y22440D01*
Y20940D02*
Y21900D01*
Y20640D02*
Y20820D01*
X24440Y23340D02*
Y23360D01*
Y22880D02*
Y22900D01*
Y22640D02*
Y22660D01*
Y22180D02*
Y22200D01*
Y20940D02*
Y21120D01*
Y20640D02*
Y20820D01*
X24460Y23340D02*
Y23380D01*
Y23100D02*
Y23280D01*
Y22880D02*
Y22920D01*
Y22640D02*
Y22700D01*
Y22420D02*
Y22600D01*
Y22180D02*
Y22240D01*
Y20940D02*
Y21120D01*
Y20640D02*
Y20820D01*
X24480Y23340D02*
Y23420D01*
Y23100D02*
Y23280D01*
Y22880D02*
Y22960D01*
Y22640D02*
Y22720D01*
Y22420D02*
Y22600D01*
Y22180D02*
Y22260D01*
Y20940D02*
Y21120D01*
Y20640D02*
Y20820D01*
X24500Y23340D02*
Y23440D01*
Y23100D02*
Y23280D01*
Y22880D02*
Y22980D01*
Y22640D02*
Y22760D01*
Y22420D02*
Y22600D01*
Y22180D02*
Y22300D01*
Y20940D02*
Y21120D01*
Y20640D02*
Y20820D01*
X24520Y23340D02*
Y23480D01*
Y23100D02*
Y23280D01*
Y22880D02*
Y23020D01*
Y22640D02*
Y22780D01*
Y22420D02*
Y22600D01*
Y22180D02*
Y22320D01*
Y20940D02*
Y21120D01*
Y20500D02*
Y20820D01*
X24540Y23340D02*
Y23500D01*
Y23100D02*
Y23280D01*
Y22880D02*
Y23040D01*
Y22640D02*
Y22820D01*
Y22420D02*
Y22600D01*
Y22180D02*
Y22360D01*
Y20940D02*
Y21120D01*
Y20500D02*
Y20820D01*
X24560Y23340D02*
Y23520D01*
Y23100D02*
Y23280D01*
Y22880D02*
Y23060D01*
Y22640D02*
Y22820D01*
Y22420D02*
Y22600D01*
Y22180D02*
Y22360D01*
Y20940D02*
Y21740D01*
Y20500D02*
Y20820D01*
X24580Y23340D02*
Y23520D01*
Y23100D02*
Y23280D01*
Y22880D02*
Y23060D01*
Y22640D02*
Y22820D01*
Y22420D02*
Y22600D01*
Y22180D02*
Y22360D01*
Y20940D02*
Y21760D01*
Y20520D02*
Y20820D01*
X24600Y23340D02*
Y23520D01*
Y23100D02*
Y23280D01*
Y22880D02*
Y23060D01*
Y22640D02*
Y22820D01*
Y22420D02*
Y22600D01*
Y22180D02*
Y22360D01*
Y20540D02*
Y20820D01*
X24620Y23340D02*
Y23520D01*
Y23100D02*
Y23280D01*
Y22880D02*
Y23060D01*
Y22640D02*
Y22820D01*
Y22420D02*
Y22600D01*
Y22180D02*
Y22360D01*
Y20940D02*
Y21800D01*
Y20540D02*
Y20820D01*
X24640Y23340D02*
Y23520D01*
Y23100D02*
Y23280D01*
Y22880D02*
Y23060D01*
Y22640D02*
Y22820D01*
Y22420D02*
Y22600D01*
Y22180D02*
Y22360D01*
Y20940D02*
Y21820D01*
Y20560D02*
Y20820D01*
X24660Y23340D02*
Y23520D01*
Y23100D02*
Y23280D01*
Y22880D02*
Y23060D01*
Y22640D02*
Y22820D01*
Y22420D02*
Y22600D01*
Y22180D02*
Y22360D01*
Y20940D02*
Y21840D01*
Y20560D02*
Y20820D01*
X24680Y23340D02*
Y23520D01*
Y23100D02*
Y23280D01*
Y22880D02*
Y23060D01*
Y22640D02*
Y22820D01*
Y22420D02*
Y22600D01*
Y22180D02*
Y22360D01*
Y20940D02*
Y21860D01*
Y20580D02*
Y20820D01*
X24700Y23340D02*
Y23520D01*
Y23100D02*
Y23280D01*
Y22880D02*
Y23060D01*
Y22640D02*
Y22820D01*
Y22420D02*
Y22600D01*
Y22180D02*
Y22360D01*
Y20940D02*
Y21860D01*
X24720Y23340D02*
Y23520D01*
Y23100D02*
Y23280D01*
Y22880D02*
Y23060D01*
Y22640D02*
Y22820D01*
Y22420D02*
Y22600D01*
Y22180D02*
Y22360D01*
Y21680D02*
Y21860D01*
Y20940D02*
Y21120D01*
X24740Y23340D02*
Y23520D01*
Y23100D02*
Y23280D01*
Y22880D02*
Y23060D01*
Y22640D02*
Y22820D01*
Y22420D02*
Y22600D01*
Y22180D02*
Y22360D01*
Y21680D02*
Y21860D01*
Y20940D02*
Y21120D01*
X24760Y23340D02*
Y23520D01*
Y23100D02*
Y23280D01*
Y22880D02*
Y23060D01*
Y22640D02*
Y22820D01*
Y22420D02*
Y22600D01*
Y22180D02*
Y22360D01*
Y21680D02*
Y21860D01*
Y20940D02*
Y21120D01*
Y20640D02*
Y20820D01*
X24780Y23340D02*
Y23520D01*
Y23100D02*
Y23280D01*
Y22880D02*
Y23060D01*
Y22640D02*
Y22820D01*
Y22420D02*
Y22600D01*
Y22180D02*
Y22360D01*
Y21680D02*
Y21860D01*
Y20940D02*
Y21120D01*
Y20640D02*
Y20820D01*
X24800Y23340D02*
Y23520D01*
Y23100D02*
Y23280D01*
Y22880D02*
Y23060D01*
Y22640D02*
Y22820D01*
Y22420D02*
Y22600D01*
Y22180D02*
Y22360D01*
Y21680D02*
Y21860D01*
Y20940D02*
Y21120D01*
Y20640D02*
Y20820D01*
X24820Y23100D02*
Y23280D01*
Y22420D02*
Y22600D01*
Y21680D02*
Y21860D01*
Y20940D02*
Y21120D01*
Y20640D02*
Y20820D01*
X24840Y23100D02*
Y23280D01*
Y22420D02*
Y22600D01*
Y21680D02*
Y21860D01*
Y20940D02*
Y21120D01*
Y20640D02*
Y20820D01*
X24860Y22840D02*
Y23520D01*
Y22160D02*
Y22820D01*
Y21680D02*
Y21860D01*
Y20940D02*
Y21120D01*
Y20640D02*
Y20820D01*
X24880Y22860D02*
Y23520D01*
Y22160D02*
Y22820D01*
Y20940D02*
Y21860D01*
Y20640D02*
Y20820D01*
X24900Y22880D02*
Y23520D01*
Y22180D02*
Y22820D01*
Y20940D02*
Y21860D01*
Y20640D02*
Y20820D01*
X24920Y22880D02*
Y23520D01*
Y22200D02*
Y22820D01*
Y20940D02*
Y21860D01*
Y20640D02*
Y20820D01*
X24940Y22900D02*
Y23520D01*
Y22200D02*
Y22820D01*
Y20940D02*
Y21860D01*
Y20640D02*
Y20820D01*
X24960Y22900D02*
Y23520D01*
Y22220D02*
Y22820D01*
Y20940D02*
Y21860D01*
Y20640D02*
Y20820D01*
X24980Y22920D02*
Y23520D01*
Y22220D02*
Y22820D01*
Y20940D02*
Y21860D01*
Y20680D02*
Y20820D01*
X25000Y22940D02*
Y23520D01*
Y22240D02*
Y22820D01*
Y20940D02*
Y21860D01*
Y20700D02*
Y20820D01*
X25020Y23100D02*
Y23280D01*
Y22420D02*
Y22600D01*
Y20940D02*
Y21860D01*
Y20720D02*
Y20820D01*
X25040Y23100D02*
Y23280D01*
Y22420D02*
Y22600D01*
Y21300D02*
Y21460D01*
Y20740D02*
Y20820D01*
X25060Y23100D02*
Y23280D01*
Y22420D02*
Y22600D01*
Y21320D02*
Y21460D01*
Y20760D02*
Y20820D01*
X25080Y23100D02*
Y23280D01*
Y22420D02*
Y22600D01*
Y21360D02*
Y21460D01*
Y20780D02*
Y20820D01*
X25100Y21400D02*
Y21460D01*
Y20800D02*
Y20820D01*
X25120Y21440D02*
Y21460D01*
D64*
X5475Y8145D02*
D03*
X1538D02*
D03*
X15475D02*
D03*
X11538D02*
D03*
X25475D02*
D03*
X21538D02*
D03*
X5475Y16945D02*
D03*
X1538D02*
D03*
X15475D02*
D03*
X11538D02*
D03*
X25475D02*
D03*
X21538D02*
D03*
X5475Y25745D02*
D03*
X1538D02*
D03*
X15475D02*
D03*
X11538D02*
D03*
X25475D02*
D03*
X21538D02*
D03*
D65*
X6354Y5771D02*
D03*
X646D02*
D03*
X16354D02*
D03*
X10646D02*
D03*
X26354D02*
D03*
X20646D02*
D03*
X6354Y14571D02*
D03*
X646D02*
D03*
X16354D02*
D03*
X10646D02*
D03*
X26354D02*
D03*
X20646D02*
D03*
X6354Y23371D02*
D03*
X646D02*
D03*
X16354D02*
D03*
X10646D02*
D03*
X26354D02*
D03*
X20646D02*
D03*
D66*
X1017Y5548D02*
D03*
X6040Y6957D02*
D03*
X11017Y5548D02*
D03*
X16040Y6957D02*
D03*
X21017Y5548D02*
D03*
X26040Y6957D02*
D03*
X1017Y14348D02*
D03*
X6040Y15757D02*
D03*
X11017Y14348D02*
D03*
X16040Y15757D02*
D03*
X21017Y14348D02*
D03*
X26040Y15757D02*
D03*
X1017Y23148D02*
D03*
X6040Y24557D02*
D03*
X11017Y23148D02*
D03*
X16040Y24557D02*
D03*
X21017Y23148D02*
D03*
X26040Y24557D02*
D03*
D67*
X5253Y655D02*
D03*
X4753D02*
D03*
X3753D02*
D03*
X2253D02*
D03*
X4253D02*
D03*
X3253D02*
D03*
X2753D02*
D03*
X1753D02*
D03*
X15253D02*
D03*
X14753D02*
D03*
X13753D02*
D03*
X12253D02*
D03*
X14253D02*
D03*
X13253D02*
D03*
X12753D02*
D03*
X11753D02*
D03*
X25253D02*
D03*
X24753D02*
D03*
X23753D02*
D03*
X22253D02*
D03*
X24253D02*
D03*
X23253D02*
D03*
X22753D02*
D03*
X21753D02*
D03*
X5253Y9455D02*
D03*
X4753D02*
D03*
X3753D02*
D03*
X2253D02*
D03*
X4253D02*
D03*
X3253D02*
D03*
X2753D02*
D03*
X1753D02*
D03*
X15253D02*
D03*
X14753D02*
D03*
X13753D02*
D03*
X12253D02*
D03*
X14253D02*
D03*
X13253D02*
D03*
X12753D02*
D03*
X11753D02*
D03*
X25253D02*
D03*
X24753D02*
D03*
X23753D02*
D03*
X22253D02*
D03*
X24253D02*
D03*
X23253D02*
D03*
X22753D02*
D03*
X21753D02*
D03*
X5253Y18255D02*
D03*
X4753D02*
D03*
X3753D02*
D03*
X2253D02*
D03*
X4253D02*
D03*
X3253D02*
D03*
X2753D02*
D03*
X1753D02*
D03*
X15253D02*
D03*
X14753D02*
D03*
X13753D02*
D03*
X12253D02*
D03*
X14253D02*
D03*
X13253D02*
D03*
X12753D02*
D03*
X11753D02*
D03*
X25253D02*
D03*
X24753D02*
D03*
X23753D02*
D03*
X22253D02*
D03*
X24253D02*
D03*
X23253D02*
D03*
X22753D02*
D03*
X21753D02*
D03*
D68*
X5220Y420D02*
D03*
X15220D02*
D03*
X25220D02*
D03*
X5220Y9220D02*
D03*
X15220D02*
D03*
X25220D02*
D03*
X5220Y18020D02*
D03*
X15220D02*
D03*
X25220D02*
D03*
M02*
