G04*
G04 #@! TF.GenerationSoftware,Altium Limited,Altium Designer,20.2.6 (244)*
G04*
G04 Layer_Color=65535*
%FSLAX24Y24*%
%MOIN*%
G70*
G04*
G04 #@! TF.SameCoordinates,F166DB8F-6D7D-4CC1-83E2-008E4038BE53*
G04*
G04*
G04 #@! TF.FilePolarity,Positive*
G04*
G01*
G75*
%ADD28C,0.0100*%
%ADD41C,0.0098*%
%ADD42C,0.0079*%
%ADD43C,0.0080*%
%ADD44C,0.0060*%
G36*
X22634Y26179D02*
X22639D01*
X22644Y26178D01*
X22650Y26177D01*
X22657Y26176D01*
X22671Y26174D01*
X22686Y26170D01*
X22700Y26164D01*
X22707Y26161D01*
X22713Y26157D01*
X22714D01*
X22714Y26156D01*
X22718Y26153D01*
X22723Y26147D01*
X22729Y26140D01*
X22733Y26136D01*
X22735Y26131D01*
X22739Y26125D01*
X22741Y26119D01*
X22744Y26112D01*
X22746Y26105D01*
X22748Y26096D01*
X22750Y26088D01*
X22661Y26083D01*
Y26084D01*
X22660Y26086D01*
X22659Y26090D01*
X22658Y26095D01*
X22655Y26099D01*
X22653Y26104D01*
X22650Y26109D01*
X22646Y26113D01*
X22645Y26114D01*
X22644Y26115D01*
X22641Y26116D01*
X22638Y26118D01*
X22634Y26120D01*
X22628Y26121D01*
X22622Y26122D01*
X22615Y26123D01*
X22612D01*
X22609Y26122D01*
X22605Y26121D01*
X22597Y26120D01*
X22593Y26118D01*
X22590Y26115D01*
X22589Y26115D01*
X22589Y26114D01*
X22586Y26111D01*
X22583Y26105D01*
X22583Y26102D01*
X22582Y26099D01*
Y26098D01*
Y26098D01*
X22583Y26094D01*
X22585Y26090D01*
X22587Y26088D01*
X22589Y26085D01*
X22589D01*
X22590Y26084D01*
X22592Y26083D01*
X22595Y26081D01*
X22599Y26080D01*
X22605Y26078D01*
X22612Y26076D01*
X22620Y26074D01*
X22620D01*
X22623Y26074D01*
X22626Y26073D01*
X22630Y26072D01*
X22635Y26071D01*
X22641Y26069D01*
X22648Y26068D01*
X22654Y26066D01*
X22669Y26062D01*
X22684Y26057D01*
X22697Y26052D01*
X22703Y26050D01*
X22709Y26047D01*
X22709D01*
X22710Y26046D01*
X22713Y26045D01*
X22718Y26042D01*
X22724Y26038D01*
X22730Y26033D01*
X22736Y26028D01*
X22742Y26021D01*
X22747Y26014D01*
X22748Y26013D01*
X22749Y26010D01*
X22751Y26006D01*
X22754Y26000D01*
X22756Y25994D01*
X22758Y25987D01*
X22759Y25978D01*
X22760Y25969D01*
Y25968D01*
Y25968D01*
Y25966D01*
Y25964D01*
X22759Y25958D01*
X22757Y25951D01*
X22756Y25943D01*
X22752Y25933D01*
X22749Y25924D01*
X22743Y25914D01*
X22742Y25913D01*
X22740Y25911D01*
X22736Y25906D01*
X22731Y25901D01*
X22725Y25894D01*
X22717Y25888D01*
X22708Y25883D01*
X22698Y25877D01*
X22697D01*
X22696Y25877D01*
X22695Y25876D01*
X22693Y25876D01*
X22690Y25874D01*
X22686Y25873D01*
X22682Y25872D01*
X22678Y25871D01*
X22667Y25869D01*
X22654Y25867D01*
X22640Y25866D01*
X22624Y25865D01*
X22617D01*
X22612Y25866D01*
X22605Y25866D01*
X22598Y25867D01*
X22590Y25867D01*
X22582Y25869D01*
X22564Y25872D01*
X22546Y25877D01*
X22538Y25881D01*
X22530Y25885D01*
X22523Y25889D01*
X22517Y25894D01*
X22516Y25895D01*
X22515Y25896D01*
X22514Y25898D01*
X22512Y25900D01*
X22510Y25903D01*
X22507Y25906D01*
X22504Y25911D01*
X22502Y25915D01*
X22496Y25926D01*
X22490Y25939D01*
X22486Y25954D01*
X22484Y25962D01*
X22483Y25970D01*
X22573Y25977D01*
Y25975D01*
X22573Y25973D01*
X22574Y25969D01*
X22575Y25964D01*
X22579Y25953D01*
X22582Y25948D01*
X22584Y25943D01*
X22585Y25943D01*
X22587Y25940D01*
X22590Y25938D01*
X22595Y25934D01*
X22601Y25931D01*
X22608Y25928D01*
X22617Y25926D01*
X22626Y25925D01*
X22629D01*
X22633Y25926D01*
X22638Y25926D01*
X22643Y25927D01*
X22648Y25929D01*
X22653Y25931D01*
X22657Y25934D01*
X22658Y25934D01*
X22659Y25935D01*
X22660Y25938D01*
X22663Y25940D01*
X22665Y25943D01*
X22666Y25947D01*
X22668Y25952D01*
X22668Y25956D01*
Y25957D01*
Y25958D01*
X22668Y25960D01*
X22667Y25963D01*
X22665Y25967D01*
X22664Y25970D01*
X22661Y25974D01*
X22658Y25977D01*
X22657Y25978D01*
X22655Y25979D01*
X22652Y25980D01*
X22648Y25983D01*
X22641Y25985D01*
X22633Y25989D01*
X22628Y25990D01*
X22622Y25992D01*
X22616Y25993D01*
X22609Y25995D01*
X22609D01*
X22607Y25995D01*
X22603Y25997D01*
X22599Y25997D01*
X22594Y25999D01*
X22588Y26000D01*
X22582Y26002D01*
X22575Y26004D01*
X22560Y26010D01*
X22546Y26016D01*
X22533Y26023D01*
X22527Y26027D01*
X22521Y26032D01*
Y26032D01*
X22520Y26033D01*
X22517Y26035D01*
X22513Y26040D01*
X22508Y26048D01*
X22503Y26056D01*
X22499Y26066D01*
X22496Y26077D01*
X22496Y26083D01*
X22495Y26090D01*
Y26090D01*
Y26091D01*
Y26094D01*
X22496Y26099D01*
X22497Y26104D01*
X22498Y26111D01*
X22501Y26119D01*
X22504Y26126D01*
X22508Y26134D01*
X22509Y26135D01*
X22511Y26138D01*
X22514Y26141D01*
X22519Y26146D01*
X22524Y26151D01*
X22532Y26157D01*
X22540Y26162D01*
X22549Y26167D01*
X22550D01*
X22550Y26167D01*
X22552Y26168D01*
X22554Y26169D01*
X22557Y26170D01*
X22560Y26171D01*
X22564Y26172D01*
X22569Y26173D01*
X22574Y26174D01*
X22580Y26175D01*
X22593Y26177D01*
X22608Y26179D01*
X22624Y26179D01*
X22630D01*
X22634Y26179D01*
D02*
G37*
G36*
X21500D02*
X21505D01*
X21511Y26178D01*
X21517Y26177D01*
X21524Y26176D01*
X21538Y26174D01*
X21553Y26170D01*
X21567Y26164D01*
X21574Y26161D01*
X21580Y26157D01*
X21580D01*
X21581Y26156D01*
X21585Y26153D01*
X21590Y26147D01*
X21596Y26140D01*
X21599Y26136D01*
X21602Y26131D01*
X21605Y26125D01*
X21608Y26119D01*
X21611Y26112D01*
X21613Y26105D01*
X21615Y26096D01*
X21616Y26088D01*
X21528Y26083D01*
Y26084D01*
X21527Y26086D01*
X21526Y26090D01*
X21524Y26095D01*
X21522Y26099D01*
X21520Y26104D01*
X21516Y26109D01*
X21513Y26113D01*
X21512Y26114D01*
X21510Y26115D01*
X21508Y26116D01*
X21505Y26118D01*
X21500Y26120D01*
X21495Y26121D01*
X21489Y26122D01*
X21482Y26123D01*
X21479D01*
X21476Y26122D01*
X21472Y26121D01*
X21464Y26120D01*
X21460Y26118D01*
X21457Y26115D01*
X21456Y26115D01*
X21455Y26114D01*
X21453Y26111D01*
X21450Y26105D01*
X21449Y26102D01*
X21449Y26099D01*
Y26098D01*
Y26098D01*
X21450Y26094D01*
X21452Y26090D01*
X21453Y26088D01*
X21455Y26085D01*
X21456D01*
X21457Y26084D01*
X21459Y26083D01*
X21462Y26081D01*
X21466Y26080D01*
X21472Y26078D01*
X21478Y26076D01*
X21487Y26074D01*
X21487D01*
X21489Y26074D01*
X21493Y26073D01*
X21497Y26072D01*
X21502Y26071D01*
X21508Y26069D01*
X21514Y26068D01*
X21521Y26066D01*
X21535Y26062D01*
X21550Y26057D01*
X21564Y26052D01*
X21570Y26050D01*
X21575Y26047D01*
X21576D01*
X21576Y26046D01*
X21580Y26045D01*
X21584Y26042D01*
X21590Y26038D01*
X21596Y26033D01*
X21603Y26028D01*
X21609Y26021D01*
X21614Y26014D01*
X21615Y26013D01*
X21616Y26010D01*
X21618Y26006D01*
X21620Y26000D01*
X21623Y25994D01*
X21625Y25987D01*
X21626Y25978D01*
X21626Y25969D01*
Y25968D01*
Y25968D01*
Y25966D01*
Y25964D01*
X21625Y25958D01*
X21624Y25951D01*
X21623Y25943D01*
X21619Y25933D01*
X21615Y25924D01*
X21610Y25914D01*
X21609Y25913D01*
X21607Y25911D01*
X21603Y25906D01*
X21598Y25901D01*
X21591Y25894D01*
X21584Y25888D01*
X21575Y25883D01*
X21564Y25877D01*
X21564D01*
X21563Y25877D01*
X21561Y25876D01*
X21559Y25876D01*
X21556Y25874D01*
X21553Y25873D01*
X21549Y25872D01*
X21544Y25871D01*
X21534Y25869D01*
X21521Y25867D01*
X21507Y25866D01*
X21491Y25865D01*
X21484D01*
X21478Y25866D01*
X21472Y25866D01*
X21465Y25867D01*
X21457Y25867D01*
X21448Y25869D01*
X21430Y25872D01*
X21413Y25877D01*
X21404Y25881D01*
X21397Y25885D01*
X21389Y25889D01*
X21383Y25894D01*
X21383Y25895D01*
X21382Y25896D01*
X21381Y25898D01*
X21379Y25900D01*
X21377Y25903D01*
X21374Y25906D01*
X21371Y25911D01*
X21368Y25915D01*
X21362Y25926D01*
X21357Y25939D01*
X21353Y25954D01*
X21351Y25962D01*
X21350Y25970D01*
X21439Y25977D01*
Y25975D01*
X21440Y25973D01*
X21440Y25969D01*
X21442Y25964D01*
X21445Y25953D01*
X21448Y25948D01*
X21451Y25943D01*
X21452Y25943D01*
X21454Y25940D01*
X21457Y25938D01*
X21462Y25934D01*
X21468Y25931D01*
X21475Y25928D01*
X21483Y25926D01*
X21493Y25925D01*
X21496D01*
X21499Y25926D01*
X21504Y25926D01*
X21509Y25927D01*
X21514Y25929D01*
X21519Y25931D01*
X21524Y25934D01*
X21524Y25934D01*
X21525Y25935D01*
X21527Y25938D01*
X21529Y25940D01*
X21531Y25943D01*
X21533Y25947D01*
X21534Y25952D01*
X21535Y25956D01*
Y25957D01*
Y25958D01*
X21534Y25960D01*
X21534Y25963D01*
X21532Y25967D01*
X21530Y25970D01*
X21528Y25974D01*
X21524Y25977D01*
X21524Y25978D01*
X21522Y25979D01*
X21519Y25980D01*
X21514Y25983D01*
X21508Y25985D01*
X21499Y25989D01*
X21494Y25990D01*
X21489Y25992D01*
X21483Y25993D01*
X21476Y25995D01*
X21475D01*
X21473Y25995D01*
X21470Y25997D01*
X21466Y25997D01*
X21461Y25999D01*
X21455Y26000D01*
X21449Y26002D01*
X21442Y26004D01*
X21427Y26010D01*
X21413Y26016D01*
X21399Y26023D01*
X21393Y26027D01*
X21388Y26032D01*
Y26032D01*
X21387Y26033D01*
X21384Y26035D01*
X21379Y26040D01*
X21375Y26048D01*
X21370Y26056D01*
X21366Y26066D01*
X21363Y26077D01*
X21362Y26083D01*
X21362Y26090D01*
Y26090D01*
Y26091D01*
Y26094D01*
X21362Y26099D01*
X21363Y26104D01*
X21365Y26111D01*
X21367Y26119D01*
X21371Y26126D01*
X21375Y26134D01*
X21376Y26135D01*
X21378Y26138D01*
X21381Y26141D01*
X21386Y26146D01*
X21391Y26151D01*
X21398Y26157D01*
X21407Y26162D01*
X21416Y26167D01*
X21417D01*
X21417Y26167D01*
X21419Y26168D01*
X21421Y26169D01*
X21424Y26170D01*
X21427Y26171D01*
X21431Y26172D01*
X21435Y26173D01*
X21440Y26174D01*
X21447Y26175D01*
X21459Y26177D01*
X21474Y26179D01*
X21491Y26179D01*
X21497D01*
X21500Y26179D01*
D02*
G37*
G36*
X12634D02*
X12639D01*
X12644Y26178D01*
X12650Y26177D01*
X12657Y26176D01*
X12671Y26174D01*
X12686Y26170D01*
X12700Y26164D01*
X12707Y26161D01*
X12713Y26157D01*
X12714D01*
X12714Y26156D01*
X12718Y26153D01*
X12723Y26147D01*
X12729Y26140D01*
X12733Y26136D01*
X12735Y26131D01*
X12739Y26125D01*
X12741Y26119D01*
X12744Y26112D01*
X12746Y26105D01*
X12748Y26096D01*
X12750Y26088D01*
X12661Y26083D01*
Y26084D01*
X12660Y26086D01*
X12659Y26090D01*
X12658Y26095D01*
X12655Y26099D01*
X12653Y26104D01*
X12650Y26109D01*
X12646Y26113D01*
X12645Y26114D01*
X12644Y26115D01*
X12641Y26116D01*
X12638Y26118D01*
X12634Y26120D01*
X12628Y26121D01*
X12622Y26122D01*
X12615Y26123D01*
X12612D01*
X12609Y26122D01*
X12605Y26121D01*
X12597Y26120D01*
X12593Y26118D01*
X12590Y26115D01*
X12589Y26115D01*
X12589Y26114D01*
X12586Y26111D01*
X12583Y26105D01*
X12583Y26102D01*
X12582Y26099D01*
Y26098D01*
Y26098D01*
X12583Y26094D01*
X12585Y26090D01*
X12587Y26088D01*
X12589Y26085D01*
X12589D01*
X12590Y26084D01*
X12592Y26083D01*
X12595Y26081D01*
X12599Y26080D01*
X12605Y26078D01*
X12612Y26076D01*
X12620Y26074D01*
X12620D01*
X12623Y26074D01*
X12626Y26073D01*
X12630Y26072D01*
X12635Y26071D01*
X12641Y26069D01*
X12648Y26068D01*
X12654Y26066D01*
X12669Y26062D01*
X12684Y26057D01*
X12697Y26052D01*
X12703Y26050D01*
X12709Y26047D01*
X12709D01*
X12710Y26046D01*
X12713Y26045D01*
X12718Y26042D01*
X12724Y26038D01*
X12730Y26033D01*
X12736Y26028D01*
X12742Y26021D01*
X12747Y26014D01*
X12748Y26013D01*
X12749Y26010D01*
X12751Y26006D01*
X12754Y26000D01*
X12756Y25994D01*
X12758Y25987D01*
X12759Y25978D01*
X12760Y25969D01*
Y25968D01*
Y25968D01*
Y25966D01*
Y25964D01*
X12759Y25958D01*
X12757Y25951D01*
X12756Y25943D01*
X12752Y25933D01*
X12749Y25924D01*
X12743Y25914D01*
X12742Y25913D01*
X12740Y25911D01*
X12736Y25906D01*
X12731Y25901D01*
X12725Y25894D01*
X12717Y25888D01*
X12708Y25883D01*
X12698Y25877D01*
X12697D01*
X12696Y25877D01*
X12695Y25876D01*
X12693Y25876D01*
X12690Y25874D01*
X12686Y25873D01*
X12682Y25872D01*
X12678Y25871D01*
X12667Y25869D01*
X12654Y25867D01*
X12640Y25866D01*
X12624Y25865D01*
X12617D01*
X12612Y25866D01*
X12605Y25866D01*
X12598Y25867D01*
X12590Y25867D01*
X12582Y25869D01*
X12564Y25872D01*
X12546Y25877D01*
X12538Y25881D01*
X12530Y25885D01*
X12523Y25889D01*
X12517Y25894D01*
X12516Y25895D01*
X12515Y25896D01*
X12514Y25898D01*
X12512Y25900D01*
X12510Y25903D01*
X12507Y25906D01*
X12504Y25911D01*
X12502Y25915D01*
X12496Y25926D01*
X12490Y25939D01*
X12486Y25954D01*
X12484Y25962D01*
X12483Y25970D01*
X12573Y25977D01*
Y25975D01*
X12573Y25973D01*
X12574Y25969D01*
X12575Y25964D01*
X12579Y25953D01*
X12582Y25948D01*
X12584Y25943D01*
X12585Y25943D01*
X12587Y25940D01*
X12590Y25938D01*
X12595Y25934D01*
X12601Y25931D01*
X12608Y25928D01*
X12617Y25926D01*
X12626Y25925D01*
X12629D01*
X12633Y25926D01*
X12638Y25926D01*
X12643Y25927D01*
X12648Y25929D01*
X12653Y25931D01*
X12657Y25934D01*
X12658Y25934D01*
X12659Y25935D01*
X12660Y25938D01*
X12663Y25940D01*
X12665Y25943D01*
X12666Y25947D01*
X12668Y25952D01*
X12668Y25956D01*
Y25957D01*
Y25958D01*
X12668Y25960D01*
X12667Y25963D01*
X12665Y25967D01*
X12664Y25970D01*
X12661Y25974D01*
X12658Y25977D01*
X12657Y25978D01*
X12655Y25979D01*
X12652Y25980D01*
X12648Y25983D01*
X12641Y25985D01*
X12633Y25989D01*
X12628Y25990D01*
X12622Y25992D01*
X12616Y25993D01*
X12609Y25995D01*
X12609D01*
X12607Y25995D01*
X12603Y25997D01*
X12599Y25997D01*
X12594Y25999D01*
X12588Y26000D01*
X12582Y26002D01*
X12575Y26004D01*
X12560Y26010D01*
X12546Y26016D01*
X12533Y26023D01*
X12527Y26027D01*
X12521Y26032D01*
Y26032D01*
X12520Y26033D01*
X12517Y26035D01*
X12513Y26040D01*
X12508Y26048D01*
X12503Y26056D01*
X12499Y26066D01*
X12496Y26077D01*
X12496Y26083D01*
X12495Y26090D01*
Y26090D01*
Y26091D01*
Y26094D01*
X12496Y26099D01*
X12497Y26104D01*
X12498Y26111D01*
X12501Y26119D01*
X12504Y26126D01*
X12508Y26134D01*
X12509Y26135D01*
X12511Y26138D01*
X12514Y26141D01*
X12519Y26146D01*
X12524Y26151D01*
X12532Y26157D01*
X12540Y26162D01*
X12549Y26167D01*
X12550D01*
X12550Y26167D01*
X12552Y26168D01*
X12554Y26169D01*
X12557Y26170D01*
X12560Y26171D01*
X12564Y26172D01*
X12569Y26173D01*
X12574Y26174D01*
X12580Y26175D01*
X12593Y26177D01*
X12608Y26179D01*
X12624Y26179D01*
X12630D01*
X12634Y26179D01*
D02*
G37*
G36*
X11500D02*
X11505D01*
X11511Y26178D01*
X11517Y26177D01*
X11524Y26176D01*
X11538Y26174D01*
X11553Y26170D01*
X11567Y26164D01*
X11574Y26161D01*
X11580Y26157D01*
X11580D01*
X11581Y26156D01*
X11585Y26153D01*
X11590Y26147D01*
X11596Y26140D01*
X11599Y26136D01*
X11602Y26131D01*
X11605Y26125D01*
X11608Y26119D01*
X11611Y26112D01*
X11613Y26105D01*
X11615Y26096D01*
X11616Y26088D01*
X11528Y26083D01*
Y26084D01*
X11527Y26086D01*
X11526Y26090D01*
X11524Y26095D01*
X11522Y26099D01*
X11520Y26104D01*
X11516Y26109D01*
X11513Y26113D01*
X11512Y26114D01*
X11510Y26115D01*
X11508Y26116D01*
X11505Y26118D01*
X11500Y26120D01*
X11495Y26121D01*
X11489Y26122D01*
X11482Y26123D01*
X11479D01*
X11476Y26122D01*
X11472Y26121D01*
X11464Y26120D01*
X11460Y26118D01*
X11457Y26115D01*
X11456Y26115D01*
X11455Y26114D01*
X11453Y26111D01*
X11450Y26105D01*
X11449Y26102D01*
X11449Y26099D01*
Y26098D01*
Y26098D01*
X11450Y26094D01*
X11452Y26090D01*
X11453Y26088D01*
X11455Y26085D01*
X11456D01*
X11457Y26084D01*
X11459Y26083D01*
X11462Y26081D01*
X11466Y26080D01*
X11472Y26078D01*
X11478Y26076D01*
X11487Y26074D01*
X11487D01*
X11489Y26074D01*
X11493Y26073D01*
X11497Y26072D01*
X11502Y26071D01*
X11508Y26069D01*
X11514Y26068D01*
X11521Y26066D01*
X11535Y26062D01*
X11550Y26057D01*
X11564Y26052D01*
X11570Y26050D01*
X11575Y26047D01*
X11576D01*
X11576Y26046D01*
X11580Y26045D01*
X11584Y26042D01*
X11590Y26038D01*
X11596Y26033D01*
X11603Y26028D01*
X11609Y26021D01*
X11614Y26014D01*
X11615Y26013D01*
X11616Y26010D01*
X11618Y26006D01*
X11620Y26000D01*
X11623Y25994D01*
X11625Y25987D01*
X11626Y25978D01*
X11626Y25969D01*
Y25968D01*
Y25968D01*
Y25966D01*
Y25964D01*
X11625Y25958D01*
X11624Y25951D01*
X11623Y25943D01*
X11619Y25933D01*
X11615Y25924D01*
X11610Y25914D01*
X11609Y25913D01*
X11607Y25911D01*
X11603Y25906D01*
X11598Y25901D01*
X11591Y25894D01*
X11584Y25888D01*
X11575Y25883D01*
X11564Y25877D01*
X11564D01*
X11563Y25877D01*
X11561Y25876D01*
X11559Y25876D01*
X11556Y25874D01*
X11553Y25873D01*
X11549Y25872D01*
X11544Y25871D01*
X11534Y25869D01*
X11521Y25867D01*
X11507Y25866D01*
X11491Y25865D01*
X11484D01*
X11478Y25866D01*
X11472Y25866D01*
X11465Y25867D01*
X11457Y25867D01*
X11448Y25869D01*
X11430Y25872D01*
X11413Y25877D01*
X11404Y25881D01*
X11397Y25885D01*
X11389Y25889D01*
X11383Y25894D01*
X11383Y25895D01*
X11382Y25896D01*
X11381Y25898D01*
X11379Y25900D01*
X11377Y25903D01*
X11374Y25906D01*
X11371Y25911D01*
X11368Y25915D01*
X11362Y25926D01*
X11357Y25939D01*
X11353Y25954D01*
X11351Y25962D01*
X11350Y25970D01*
X11439Y25977D01*
Y25975D01*
X11440Y25973D01*
X11440Y25969D01*
X11442Y25964D01*
X11445Y25953D01*
X11448Y25948D01*
X11451Y25943D01*
X11452Y25943D01*
X11454Y25940D01*
X11457Y25938D01*
X11462Y25934D01*
X11468Y25931D01*
X11475Y25928D01*
X11483Y25926D01*
X11493Y25925D01*
X11496D01*
X11499Y25926D01*
X11504Y25926D01*
X11509Y25927D01*
X11514Y25929D01*
X11519Y25931D01*
X11524Y25934D01*
X11524Y25934D01*
X11525Y25935D01*
X11527Y25938D01*
X11529Y25940D01*
X11531Y25943D01*
X11533Y25947D01*
X11534Y25952D01*
X11535Y25956D01*
Y25957D01*
Y25958D01*
X11534Y25960D01*
X11534Y25963D01*
X11532Y25967D01*
X11530Y25970D01*
X11528Y25974D01*
X11524Y25977D01*
X11524Y25978D01*
X11522Y25979D01*
X11519Y25980D01*
X11514Y25983D01*
X11508Y25985D01*
X11499Y25989D01*
X11494Y25990D01*
X11489Y25992D01*
X11483Y25993D01*
X11476Y25995D01*
X11475D01*
X11473Y25995D01*
X11470Y25997D01*
X11466Y25997D01*
X11461Y25999D01*
X11455Y26000D01*
X11449Y26002D01*
X11442Y26004D01*
X11427Y26010D01*
X11413Y26016D01*
X11399Y26023D01*
X11393Y26027D01*
X11388Y26032D01*
Y26032D01*
X11387Y26033D01*
X11384Y26035D01*
X11379Y26040D01*
X11375Y26048D01*
X11370Y26056D01*
X11366Y26066D01*
X11363Y26077D01*
X11362Y26083D01*
X11362Y26090D01*
Y26090D01*
Y26091D01*
Y26094D01*
X11362Y26099D01*
X11363Y26104D01*
X11365Y26111D01*
X11367Y26119D01*
X11371Y26126D01*
X11375Y26134D01*
X11376Y26135D01*
X11378Y26138D01*
X11381Y26141D01*
X11386Y26146D01*
X11391Y26151D01*
X11398Y26157D01*
X11407Y26162D01*
X11416Y26167D01*
X11417D01*
X11417Y26167D01*
X11419Y26168D01*
X11421Y26169D01*
X11424Y26170D01*
X11427Y26171D01*
X11431Y26172D01*
X11435Y26173D01*
X11440Y26174D01*
X11447Y26175D01*
X11459Y26177D01*
X11474Y26179D01*
X11491Y26179D01*
X11497D01*
X11500Y26179D01*
D02*
G37*
G36*
X2634D02*
X2639D01*
X2644Y26178D01*
X2650Y26177D01*
X2657Y26176D01*
X2671Y26174D01*
X2686Y26170D01*
X2700Y26164D01*
X2707Y26161D01*
X2713Y26157D01*
X2714D01*
X2714Y26156D01*
X2718Y26153D01*
X2723Y26147D01*
X2729Y26140D01*
X2733Y26136D01*
X2735Y26131D01*
X2739Y26125D01*
X2741Y26119D01*
X2744Y26112D01*
X2746Y26105D01*
X2748Y26096D01*
X2750Y26088D01*
X2661Y26083D01*
Y26084D01*
X2660Y26086D01*
X2659Y26090D01*
X2658Y26095D01*
X2655Y26099D01*
X2653Y26104D01*
X2650Y26109D01*
X2646Y26113D01*
X2645Y26114D01*
X2644Y26115D01*
X2641Y26116D01*
X2638Y26118D01*
X2634Y26120D01*
X2628Y26121D01*
X2622Y26122D01*
X2615Y26123D01*
X2612D01*
X2609Y26122D01*
X2605Y26121D01*
X2597Y26120D01*
X2593Y26118D01*
X2590Y26115D01*
X2589Y26115D01*
X2589Y26114D01*
X2586Y26111D01*
X2583Y26105D01*
X2583Y26102D01*
X2582Y26099D01*
Y26098D01*
Y26098D01*
X2583Y26094D01*
X2585Y26090D01*
X2587Y26088D01*
X2589Y26085D01*
X2589D01*
X2590Y26084D01*
X2592Y26083D01*
X2595Y26081D01*
X2599Y26080D01*
X2605Y26078D01*
X2612Y26076D01*
X2620Y26074D01*
X2620D01*
X2623Y26074D01*
X2626Y26073D01*
X2630Y26072D01*
X2635Y26071D01*
X2641Y26069D01*
X2648Y26068D01*
X2654Y26066D01*
X2669Y26062D01*
X2684Y26057D01*
X2697Y26052D01*
X2703Y26050D01*
X2709Y26047D01*
X2709D01*
X2710Y26046D01*
X2713Y26045D01*
X2718Y26042D01*
X2724Y26038D01*
X2730Y26033D01*
X2736Y26028D01*
X2743Y26021D01*
X2747Y26014D01*
X2748Y26013D01*
X2749Y26010D01*
X2751Y26006D01*
X2754Y26000D01*
X2756Y25994D01*
X2758Y25987D01*
X2759Y25978D01*
X2760Y25969D01*
Y25968D01*
Y25968D01*
Y25966D01*
Y25964D01*
X2759Y25958D01*
X2757Y25951D01*
X2756Y25943D01*
X2752Y25933D01*
X2749Y25924D01*
X2743Y25914D01*
X2743Y25913D01*
X2740Y25911D01*
X2736Y25906D01*
X2731Y25901D01*
X2725Y25894D01*
X2717Y25888D01*
X2708Y25883D01*
X2698Y25877D01*
X2697D01*
X2696Y25877D01*
X2695Y25876D01*
X2693Y25876D01*
X2690Y25874D01*
X2686Y25873D01*
X2682Y25872D01*
X2678Y25871D01*
X2667Y25869D01*
X2654Y25867D01*
X2640Y25866D01*
X2624Y25865D01*
X2617D01*
X2612Y25866D01*
X2605Y25866D01*
X2598Y25867D01*
X2590Y25867D01*
X2582Y25869D01*
X2564Y25872D01*
X2546Y25877D01*
X2538Y25881D01*
X2530Y25885D01*
X2523Y25889D01*
X2517Y25894D01*
X2516Y25895D01*
X2515Y25896D01*
X2514Y25898D01*
X2512Y25900D01*
X2510Y25903D01*
X2507Y25906D01*
X2504Y25911D01*
X2502Y25915D01*
X2496Y25926D01*
X2490Y25939D01*
X2486Y25954D01*
X2484Y25962D01*
X2483Y25970D01*
X2573Y25977D01*
Y25975D01*
X2573Y25973D01*
X2574Y25969D01*
X2575Y25964D01*
X2579Y25953D01*
X2582Y25948D01*
X2584Y25943D01*
X2585Y25943D01*
X2587Y25940D01*
X2590Y25938D01*
X2595Y25934D01*
X2601Y25931D01*
X2608Y25928D01*
X2617Y25926D01*
X2626Y25925D01*
X2629D01*
X2633Y25926D01*
X2638Y25926D01*
X2643Y25927D01*
X2648Y25929D01*
X2653Y25931D01*
X2657Y25934D01*
X2658Y25934D01*
X2659Y25935D01*
X2660Y25938D01*
X2663Y25940D01*
X2665Y25943D01*
X2666Y25947D01*
X2668Y25952D01*
X2668Y25956D01*
Y25957D01*
Y25958D01*
X2668Y25960D01*
X2667Y25963D01*
X2665Y25967D01*
X2664Y25970D01*
X2661Y25974D01*
X2658Y25977D01*
X2657Y25978D01*
X2655Y25979D01*
X2652Y25980D01*
X2648Y25983D01*
X2641Y25985D01*
X2633Y25989D01*
X2628Y25990D01*
X2622Y25992D01*
X2616Y25993D01*
X2609Y25995D01*
X2609D01*
X2607Y25995D01*
X2603Y25997D01*
X2599Y25997D01*
X2594Y25999D01*
X2588Y26000D01*
X2582Y26002D01*
X2575Y26004D01*
X2560Y26010D01*
X2546Y26016D01*
X2533Y26023D01*
X2527Y26027D01*
X2521Y26032D01*
Y26032D01*
X2520Y26033D01*
X2517Y26035D01*
X2513Y26040D01*
X2508Y26048D01*
X2503Y26056D01*
X2499Y26066D01*
X2496Y26077D01*
X2496Y26083D01*
X2495Y26090D01*
Y26090D01*
Y26091D01*
Y26094D01*
X2496Y26099D01*
X2497Y26104D01*
X2498Y26111D01*
X2501Y26119D01*
X2504Y26126D01*
X2508Y26134D01*
X2509Y26135D01*
X2511Y26138D01*
X2514Y26141D01*
X2519Y26146D01*
X2524Y26151D01*
X2532Y26157D01*
X2540Y26162D01*
X2549Y26167D01*
X2550D01*
X2550Y26167D01*
X2552Y26168D01*
X2554Y26169D01*
X2557Y26170D01*
X2560Y26171D01*
X2564Y26172D01*
X2569Y26173D01*
X2574Y26174D01*
X2580Y26175D01*
X2593Y26177D01*
X2608Y26179D01*
X2624Y26179D01*
X2630D01*
X2634Y26179D01*
D02*
G37*
G36*
X1500D02*
X1505D01*
X1511Y26178D01*
X1517Y26177D01*
X1524Y26176D01*
X1538Y26174D01*
X1553Y26170D01*
X1567Y26164D01*
X1574Y26161D01*
X1580Y26157D01*
X1580D01*
X1581Y26156D01*
X1585Y26153D01*
X1590Y26147D01*
X1596Y26140D01*
X1599Y26136D01*
X1602Y26131D01*
X1605Y26125D01*
X1608Y26119D01*
X1611Y26112D01*
X1613Y26105D01*
X1615Y26096D01*
X1616Y26088D01*
X1528Y26083D01*
Y26084D01*
X1527Y26086D01*
X1526Y26090D01*
X1524Y26095D01*
X1522Y26099D01*
X1520Y26104D01*
X1516Y26109D01*
X1513Y26113D01*
X1512Y26114D01*
X1510Y26115D01*
X1508Y26116D01*
X1505Y26118D01*
X1500Y26120D01*
X1495Y26121D01*
X1489Y26122D01*
X1482Y26123D01*
X1479D01*
X1476Y26122D01*
X1472Y26121D01*
X1464Y26120D01*
X1460Y26118D01*
X1457Y26115D01*
X1456Y26115D01*
X1455Y26114D01*
X1453Y26111D01*
X1450Y26105D01*
X1449Y26102D01*
X1449Y26099D01*
Y26098D01*
Y26098D01*
X1450Y26094D01*
X1452Y26090D01*
X1453Y26088D01*
X1455Y26085D01*
X1456D01*
X1457Y26084D01*
X1459Y26083D01*
X1462Y26081D01*
X1466Y26080D01*
X1472Y26078D01*
X1478Y26076D01*
X1487Y26074D01*
X1487D01*
X1489Y26074D01*
X1493Y26073D01*
X1497Y26072D01*
X1502Y26071D01*
X1508Y26069D01*
X1514Y26068D01*
X1521Y26066D01*
X1535Y26062D01*
X1550Y26057D01*
X1564Y26052D01*
X1570Y26050D01*
X1575Y26047D01*
X1576D01*
X1576Y26046D01*
X1580Y26045D01*
X1584Y26042D01*
X1590Y26038D01*
X1596Y26033D01*
X1603Y26028D01*
X1609Y26021D01*
X1614Y26014D01*
X1615Y26013D01*
X1616Y26010D01*
X1618Y26006D01*
X1620Y26000D01*
X1622Y25994D01*
X1625Y25987D01*
X1626Y25978D01*
X1626Y25969D01*
Y25968D01*
Y25968D01*
Y25966D01*
Y25964D01*
X1625Y25958D01*
X1624Y25951D01*
X1622Y25943D01*
X1619Y25933D01*
X1615Y25924D01*
X1610Y25914D01*
X1609Y25913D01*
X1607Y25911D01*
X1603Y25906D01*
X1598Y25901D01*
X1591Y25894D01*
X1584Y25888D01*
X1575Y25883D01*
X1564Y25877D01*
X1564D01*
X1563Y25877D01*
X1561Y25876D01*
X1559Y25876D01*
X1556Y25874D01*
X1553Y25873D01*
X1549Y25872D01*
X1544Y25871D01*
X1534Y25869D01*
X1521Y25867D01*
X1507Y25866D01*
X1491Y25865D01*
X1484D01*
X1478Y25866D01*
X1472Y25866D01*
X1465Y25867D01*
X1457Y25867D01*
X1448Y25869D01*
X1430Y25872D01*
X1413Y25877D01*
X1404Y25881D01*
X1397Y25885D01*
X1389Y25889D01*
X1383Y25894D01*
X1383Y25895D01*
X1382Y25896D01*
X1381Y25898D01*
X1379Y25900D01*
X1377Y25903D01*
X1374Y25906D01*
X1371Y25911D01*
X1368Y25915D01*
X1362Y25926D01*
X1357Y25939D01*
X1353Y25954D01*
X1351Y25962D01*
X1350Y25970D01*
X1439Y25977D01*
Y25975D01*
X1440Y25973D01*
X1440Y25969D01*
X1442Y25964D01*
X1445Y25953D01*
X1448Y25948D01*
X1451Y25943D01*
X1452Y25943D01*
X1454Y25940D01*
X1457Y25938D01*
X1462Y25934D01*
X1468Y25931D01*
X1475Y25928D01*
X1483Y25926D01*
X1493Y25925D01*
X1496D01*
X1499Y25926D01*
X1504Y25926D01*
X1509Y25927D01*
X1514Y25929D01*
X1519Y25931D01*
X1524Y25934D01*
X1524Y25934D01*
X1525Y25935D01*
X1527Y25938D01*
X1529Y25940D01*
X1531Y25943D01*
X1533Y25947D01*
X1534Y25952D01*
X1535Y25956D01*
Y25957D01*
Y25958D01*
X1534Y25960D01*
X1534Y25963D01*
X1532Y25967D01*
X1530Y25970D01*
X1528Y25974D01*
X1524Y25977D01*
X1524Y25978D01*
X1522Y25979D01*
X1519Y25980D01*
X1514Y25983D01*
X1508Y25985D01*
X1499Y25989D01*
X1494Y25990D01*
X1489Y25992D01*
X1483Y25993D01*
X1476Y25995D01*
X1475D01*
X1473Y25995D01*
X1470Y25997D01*
X1466Y25997D01*
X1461Y25999D01*
X1455Y26000D01*
X1449Y26002D01*
X1442Y26004D01*
X1427Y26010D01*
X1413Y26016D01*
X1399Y26023D01*
X1393Y26027D01*
X1388Y26032D01*
Y26032D01*
X1387Y26033D01*
X1384Y26035D01*
X1379Y26040D01*
X1375Y26048D01*
X1370Y26056D01*
X1366Y26066D01*
X1363Y26077D01*
X1362Y26083D01*
X1362Y26090D01*
Y26090D01*
Y26091D01*
Y26094D01*
X1362Y26099D01*
X1363Y26104D01*
X1365Y26111D01*
X1367Y26119D01*
X1371Y26126D01*
X1375Y26134D01*
X1376Y26135D01*
X1378Y26138D01*
X1381Y26141D01*
X1386Y26146D01*
X1391Y26151D01*
X1398Y26157D01*
X1407Y26162D01*
X1416Y26167D01*
X1417D01*
X1417Y26167D01*
X1419Y26168D01*
X1421Y26169D01*
X1424Y26170D01*
X1427Y26171D01*
X1431Y26172D01*
X1435Y26173D01*
X1440Y26174D01*
X1447Y26175D01*
X1459Y26177D01*
X1474Y26179D01*
X1491Y26179D01*
X1497D01*
X1500Y26179D01*
D02*
G37*
G36*
X22438Y25993D02*
Y25992D01*
Y25992D01*
Y25988D01*
X22437Y25983D01*
X22437Y25977D01*
X22436Y25968D01*
X22434Y25960D01*
X22432Y25951D01*
X22429Y25942D01*
X22428Y25940D01*
X22427Y25938D01*
X22426Y25933D01*
X22422Y25928D01*
X22419Y25921D01*
X22414Y25914D01*
X22409Y25907D01*
X22402Y25900D01*
X22402Y25899D01*
X22399Y25897D01*
X22396Y25894D01*
X22391Y25890D01*
X22386Y25886D01*
X22379Y25882D01*
X22372Y25878D01*
X22365Y25875D01*
X22365D01*
X22364Y25874D01*
X22362Y25874D01*
X22360Y25873D01*
X22355Y25872D01*
X22346Y25870D01*
X22337Y25868D01*
X22326Y25867D01*
X22313Y25866D01*
X22299Y25865D01*
X22291D01*
X22285Y25866D01*
X22277D01*
X22269Y25867D01*
X22260Y25867D01*
X22250Y25868D01*
X22249D01*
X22246Y25869D01*
X22241Y25869D01*
X22235Y25871D01*
X22228Y25872D01*
X22221Y25874D01*
X22214Y25877D01*
X22206Y25880D01*
X22206Y25881D01*
X22204Y25882D01*
X22200Y25884D01*
X22196Y25887D01*
X22191Y25891D01*
X22185Y25895D01*
X22180Y25900D01*
X22174Y25906D01*
X22174Y25907D01*
X22172Y25909D01*
X22169Y25913D01*
X22166Y25917D01*
X22163Y25922D01*
X22160Y25928D01*
X22156Y25935D01*
X22154Y25942D01*
Y25942D01*
X22154Y25943D01*
Y25944D01*
X22153Y25947D01*
X22151Y25952D01*
X22150Y25959D01*
X22149Y25967D01*
X22147Y25975D01*
X22146Y25984D01*
X22146Y25993D01*
Y26174D01*
X22240D01*
Y25989D01*
Y25988D01*
Y25985D01*
X22240Y25980D01*
X22241Y25974D01*
X22243Y25968D01*
X22245Y25962D01*
X22249Y25955D01*
X22253Y25950D01*
X22254Y25949D01*
X22256Y25948D01*
X22259Y25945D01*
X22263Y25943D01*
X22269Y25940D01*
X22275Y25938D01*
X22283Y25937D01*
X22292Y25936D01*
X22296D01*
X22300Y25937D01*
X22306Y25938D01*
X22312Y25939D01*
X22318Y25942D01*
X22325Y25945D01*
X22330Y25949D01*
X22331Y25950D01*
X22332Y25952D01*
X22335Y25955D01*
X22337Y25959D01*
X22340Y25965D01*
X22342Y25972D01*
X22343Y25980D01*
X22344Y25989D01*
Y26174D01*
X22438D01*
Y25993D01*
D02*
G37*
G36*
X12438D02*
Y25992D01*
Y25992D01*
Y25988D01*
X12437Y25983D01*
X12437Y25977D01*
X12436Y25968D01*
X12434Y25960D01*
X12432Y25951D01*
X12429Y25942D01*
X12428Y25940D01*
X12427Y25938D01*
X12426Y25933D01*
X12422Y25928D01*
X12419Y25921D01*
X12414Y25914D01*
X12409Y25907D01*
X12402Y25900D01*
X12402Y25899D01*
X12399Y25897D01*
X12396Y25894D01*
X12391Y25890D01*
X12386Y25886D01*
X12379Y25882D01*
X12372Y25878D01*
X12365Y25875D01*
X12365D01*
X12364Y25874D01*
X12362Y25874D01*
X12360Y25873D01*
X12355Y25872D01*
X12346Y25870D01*
X12337Y25868D01*
X12326Y25867D01*
X12313Y25866D01*
X12299Y25865D01*
X12291D01*
X12285Y25866D01*
X12277D01*
X12269Y25867D01*
X12260Y25867D01*
X12250Y25868D01*
X12249D01*
X12246Y25869D01*
X12241Y25869D01*
X12235Y25871D01*
X12228Y25872D01*
X12221Y25874D01*
X12214Y25877D01*
X12206Y25880D01*
X12206Y25881D01*
X12204Y25882D01*
X12200Y25884D01*
X12196Y25887D01*
X12191Y25891D01*
X12185Y25895D01*
X12180Y25900D01*
X12174Y25906D01*
X12174Y25907D01*
X12172Y25909D01*
X12169Y25913D01*
X12166Y25917D01*
X12163Y25922D01*
X12160Y25928D01*
X12156Y25935D01*
X12154Y25942D01*
Y25942D01*
X12154Y25943D01*
Y25944D01*
X12153Y25947D01*
X12151Y25952D01*
X12150Y25959D01*
X12149Y25967D01*
X12147Y25975D01*
X12146Y25984D01*
X12146Y25993D01*
Y26174D01*
X12240D01*
Y25989D01*
Y25988D01*
Y25985D01*
X12240Y25980D01*
X12241Y25974D01*
X12243Y25968D01*
X12245Y25962D01*
X12249Y25955D01*
X12253Y25950D01*
X12254Y25949D01*
X12256Y25948D01*
X12259Y25945D01*
X12263Y25943D01*
X12269Y25940D01*
X12275Y25938D01*
X12283Y25937D01*
X12292Y25936D01*
X12296D01*
X12300Y25937D01*
X12306Y25938D01*
X12312Y25939D01*
X12318Y25942D01*
X12325Y25945D01*
X12330Y25949D01*
X12331Y25950D01*
X12332Y25952D01*
X12335Y25955D01*
X12337Y25959D01*
X12340Y25965D01*
X12342Y25972D01*
X12343Y25980D01*
X12344Y25989D01*
Y26174D01*
X12438D01*
Y25993D01*
D02*
G37*
G36*
X2438D02*
Y25992D01*
Y25992D01*
Y25988D01*
X2437Y25983D01*
X2437Y25977D01*
X2436Y25968D01*
X2434Y25960D01*
X2432Y25951D01*
X2429Y25942D01*
X2428Y25940D01*
X2427Y25938D01*
X2426Y25933D01*
X2422Y25928D01*
X2419Y25921D01*
X2414Y25914D01*
X2409Y25907D01*
X2402Y25900D01*
X2402Y25899D01*
X2399Y25897D01*
X2396Y25894D01*
X2391Y25890D01*
X2386Y25886D01*
X2379Y25882D01*
X2372Y25878D01*
X2365Y25875D01*
X2365D01*
X2364Y25874D01*
X2362Y25874D01*
X2360Y25873D01*
X2355Y25872D01*
X2346Y25870D01*
X2337Y25868D01*
X2326Y25867D01*
X2313Y25866D01*
X2299Y25865D01*
X2291D01*
X2285Y25866D01*
X2277D01*
X2269Y25867D01*
X2260Y25867D01*
X2250Y25868D01*
X2249D01*
X2246Y25869D01*
X2241Y25869D01*
X2235Y25871D01*
X2228Y25872D01*
X2221Y25874D01*
X2214Y25877D01*
X2206Y25880D01*
X2206Y25881D01*
X2204Y25882D01*
X2200Y25884D01*
X2196Y25887D01*
X2191Y25891D01*
X2185Y25895D01*
X2180Y25900D01*
X2174Y25906D01*
X2174Y25907D01*
X2172Y25909D01*
X2169Y25913D01*
X2166Y25917D01*
X2163Y25922D01*
X2160Y25928D01*
X2156Y25935D01*
X2154Y25942D01*
Y25942D01*
X2154Y25943D01*
Y25944D01*
X2153Y25947D01*
X2151Y25952D01*
X2150Y25959D01*
X2149Y25967D01*
X2147Y25975D01*
X2146Y25984D01*
X2146Y25993D01*
Y26174D01*
X2240D01*
Y25989D01*
Y25988D01*
Y25985D01*
X2240Y25980D01*
X2241Y25974D01*
X2243Y25968D01*
X2245Y25962D01*
X2249Y25955D01*
X2253Y25950D01*
X2254Y25949D01*
X2256Y25948D01*
X2259Y25945D01*
X2263Y25943D01*
X2269Y25940D01*
X2275Y25938D01*
X2283Y25937D01*
X2292Y25936D01*
X2296D01*
X2300Y25937D01*
X2306Y25938D01*
X2312Y25939D01*
X2318Y25942D01*
X2325Y25945D01*
X2330Y25949D01*
X2331Y25950D01*
X2332Y25952D01*
X2335Y25955D01*
X2337Y25959D01*
X2340Y25965D01*
X2342Y25972D01*
X2343Y25980D01*
X2344Y25989D01*
Y26174D01*
X2438D01*
Y25993D01*
D02*
G37*
G36*
X21998Y26174D02*
X22002D01*
X22006Y26173D01*
X22016Y26171D01*
X22027Y26169D01*
X22038Y26165D01*
X22049Y26159D01*
X22059Y26152D01*
X22059D01*
X22060Y26151D01*
X22063Y26148D01*
X22067Y26144D01*
X22071Y26137D01*
X22075Y26129D01*
X22079Y26120D01*
X22081Y26110D01*
X22083Y26104D01*
Y26098D01*
Y26098D01*
Y26097D01*
Y26094D01*
X22081Y26089D01*
X22080Y26083D01*
X22078Y26075D01*
X22075Y26068D01*
X22071Y26060D01*
X22065Y26052D01*
X22065Y26051D01*
X22063Y26050D01*
X22061Y26048D01*
X22057Y26045D01*
X22053Y26041D01*
X22047Y26038D01*
X22040Y26035D01*
X22033Y26032D01*
X22033D01*
X22034Y26031D01*
X22036D01*
X22038Y26030D01*
X22044Y26028D01*
X22051Y26025D01*
X22059Y26022D01*
X22067Y26017D01*
X22074Y26011D01*
X22081Y26004D01*
X22081Y26003D01*
X22083Y26001D01*
X22086Y25997D01*
X22089Y25991D01*
X22091Y25984D01*
X22094Y25976D01*
X22096Y25967D01*
X22096Y25956D01*
Y25955D01*
Y25952D01*
X22096Y25948D01*
X22095Y25942D01*
X22094Y25935D01*
X22092Y25928D01*
X22089Y25921D01*
X22085Y25914D01*
X22085Y25913D01*
X22083Y25911D01*
X22081Y25907D01*
X22078Y25903D01*
X22073Y25898D01*
X22068Y25893D01*
X22062Y25888D01*
X22055Y25884D01*
X22054D01*
X22053Y25883D01*
X22050Y25882D01*
X22046Y25880D01*
X22041Y25878D01*
X22035Y25877D01*
X22028Y25876D01*
X22019Y25874D01*
X22018D01*
X22017Y25873D01*
X22014D01*
X22009Y25873D01*
X22002Y25872D01*
X21995Y25871D01*
X21988Y25871D01*
X21982Y25870D01*
X21815D01*
Y26174D01*
X21995D01*
X21998Y26174D01*
D02*
G37*
G36*
X21758Y25870D02*
X21668D01*
Y25955D01*
X21758D01*
Y25870D01*
D02*
G37*
G36*
X11998Y26174D02*
X12002D01*
X12006Y26173D01*
X12016Y26171D01*
X12027Y26169D01*
X12038Y26165D01*
X12049Y26159D01*
X12059Y26152D01*
X12059D01*
X12060Y26151D01*
X12063Y26148D01*
X12067Y26144D01*
X12071Y26137D01*
X12075Y26129D01*
X12079Y26120D01*
X12081Y26110D01*
X12083Y26104D01*
Y26098D01*
Y26098D01*
Y26097D01*
Y26094D01*
X12081Y26089D01*
X12080Y26083D01*
X12078Y26075D01*
X12075Y26068D01*
X12071Y26060D01*
X12065Y26052D01*
X12065Y26051D01*
X12063Y26050D01*
X12061Y26048D01*
X12057Y26045D01*
X12053Y26041D01*
X12047Y26038D01*
X12040Y26035D01*
X12033Y26032D01*
X12033D01*
X12034Y26031D01*
X12036D01*
X12038Y26030D01*
X12044Y26028D01*
X12051Y26025D01*
X12059Y26022D01*
X12067Y26017D01*
X12074Y26011D01*
X12081Y26004D01*
X12081Y26003D01*
X12083Y26001D01*
X12086Y25997D01*
X12089Y25991D01*
X12091Y25984D01*
X12094Y25976D01*
X12096Y25967D01*
X12096Y25956D01*
Y25955D01*
Y25952D01*
X12096Y25948D01*
X12095Y25942D01*
X12094Y25935D01*
X12092Y25928D01*
X12089Y25921D01*
X12085Y25914D01*
X12085Y25913D01*
X12083Y25911D01*
X12081Y25907D01*
X12078Y25903D01*
X12073Y25898D01*
X12068Y25893D01*
X12062Y25888D01*
X12055Y25884D01*
X12054D01*
X12053Y25883D01*
X12050Y25882D01*
X12046Y25880D01*
X12041Y25878D01*
X12035Y25877D01*
X12028Y25876D01*
X12019Y25874D01*
X12018D01*
X12017Y25873D01*
X12014D01*
X12009Y25873D01*
X12002Y25872D01*
X11995Y25871D01*
X11988Y25871D01*
X11982Y25870D01*
X11815D01*
Y26174D01*
X11995D01*
X11998Y26174D01*
D02*
G37*
G36*
X11758Y25870D02*
X11668D01*
Y25955D01*
X11758D01*
Y25870D01*
D02*
G37*
G36*
X1998Y26174D02*
X2002D01*
X2006Y26173D01*
X2016Y26171D01*
X2027Y26169D01*
X2038Y26165D01*
X2049Y26159D01*
X2059Y26152D01*
X2059D01*
X2060Y26151D01*
X2063Y26148D01*
X2067Y26144D01*
X2071Y26137D01*
X2075Y26129D01*
X2079Y26120D01*
X2081Y26110D01*
X2083Y26104D01*
Y26098D01*
Y26098D01*
Y26097D01*
Y26094D01*
X2081Y26089D01*
X2080Y26083D01*
X2078Y26075D01*
X2075Y26068D01*
X2071Y26060D01*
X2065Y26052D01*
X2065Y26051D01*
X2063Y26050D01*
X2061Y26048D01*
X2057Y26045D01*
X2053Y26041D01*
X2047Y26038D01*
X2040Y26035D01*
X2033Y26032D01*
X2033D01*
X2034Y26031D01*
X2036D01*
X2038Y26030D01*
X2044Y26028D01*
X2051Y26025D01*
X2059Y26022D01*
X2067Y26017D01*
X2074Y26011D01*
X2081Y26004D01*
X2081Y26003D01*
X2083Y26001D01*
X2086Y25997D01*
X2089Y25991D01*
X2091Y25984D01*
X2094Y25976D01*
X2096Y25967D01*
X2096Y25956D01*
Y25955D01*
Y25952D01*
X2096Y25948D01*
X2095Y25942D01*
X2094Y25935D01*
X2092Y25928D01*
X2089Y25921D01*
X2085Y25914D01*
X2085Y25913D01*
X2083Y25911D01*
X2081Y25907D01*
X2078Y25903D01*
X2073Y25898D01*
X2068Y25893D01*
X2062Y25888D01*
X2055Y25884D01*
X2054D01*
X2053Y25883D01*
X2050Y25882D01*
X2046Y25880D01*
X2041Y25878D01*
X2035Y25877D01*
X2028Y25876D01*
X2019Y25874D01*
X2018D01*
X2017Y25873D01*
X2014D01*
X2009Y25873D01*
X2002Y25872D01*
X1995Y25871D01*
X1988Y25871D01*
X1982Y25870D01*
X1815D01*
Y26174D01*
X1995D01*
X1998Y26174D01*
D02*
G37*
G36*
X1758Y25870D02*
X1668D01*
Y25955D01*
X1758D01*
Y25870D01*
D02*
G37*
G36*
X22634Y17379D02*
X22639D01*
X22644Y17378D01*
X22650Y17377D01*
X22657Y17376D01*
X22671Y17374D01*
X22686Y17370D01*
X22700Y17364D01*
X22707Y17361D01*
X22713Y17357D01*
X22714D01*
X22714Y17356D01*
X22718Y17353D01*
X22723Y17348D01*
X22729Y17340D01*
X22733Y17336D01*
X22735Y17331D01*
X22739Y17325D01*
X22741Y17319D01*
X22744Y17312D01*
X22746Y17305D01*
X22748Y17296D01*
X22750Y17288D01*
X22661Y17283D01*
Y17284D01*
X22660Y17286D01*
X22659Y17290D01*
X22658Y17295D01*
X22655Y17299D01*
X22653Y17304D01*
X22650Y17309D01*
X22646Y17313D01*
X22645Y17314D01*
X22644Y17315D01*
X22641Y17316D01*
X22638Y17318D01*
X22634Y17320D01*
X22628Y17321D01*
X22622Y17322D01*
X22615Y17323D01*
X22612D01*
X22609Y17322D01*
X22605Y17321D01*
X22597Y17320D01*
X22593Y17318D01*
X22590Y17315D01*
X22589Y17315D01*
X22589Y17314D01*
X22586Y17311D01*
X22583Y17305D01*
X22583Y17302D01*
X22582Y17299D01*
Y17298D01*
Y17298D01*
X22583Y17294D01*
X22585Y17290D01*
X22587Y17288D01*
X22589Y17285D01*
X22589D01*
X22590Y17284D01*
X22592Y17283D01*
X22595Y17281D01*
X22599Y17280D01*
X22605Y17278D01*
X22612Y17276D01*
X22620Y17274D01*
X22620D01*
X22623Y17274D01*
X22626Y17273D01*
X22630Y17272D01*
X22635Y17271D01*
X22641Y17269D01*
X22648Y17268D01*
X22654Y17266D01*
X22669Y17262D01*
X22684Y17257D01*
X22697Y17252D01*
X22703Y17250D01*
X22709Y17247D01*
X22709D01*
X22710Y17246D01*
X22713Y17245D01*
X22718Y17242D01*
X22724Y17238D01*
X22730Y17233D01*
X22736Y17228D01*
X22742Y17221D01*
X22747Y17214D01*
X22748Y17213D01*
X22749Y17210D01*
X22751Y17206D01*
X22754Y17200D01*
X22756Y17194D01*
X22758Y17187D01*
X22759Y17178D01*
X22760Y17169D01*
Y17168D01*
Y17168D01*
Y17166D01*
Y17164D01*
X22759Y17158D01*
X22757Y17151D01*
X22756Y17143D01*
X22752Y17133D01*
X22749Y17124D01*
X22743Y17114D01*
X22742Y17113D01*
X22740Y17111D01*
X22736Y17106D01*
X22731Y17101D01*
X22725Y17094D01*
X22717Y17088D01*
X22708Y17083D01*
X22698Y17077D01*
X22697D01*
X22696Y17077D01*
X22695Y17076D01*
X22693Y17076D01*
X22690Y17074D01*
X22686Y17073D01*
X22682Y17072D01*
X22678Y17071D01*
X22667Y17069D01*
X22654Y17067D01*
X22640Y17066D01*
X22624Y17065D01*
X22617D01*
X22612Y17066D01*
X22605Y17066D01*
X22598Y17067D01*
X22590Y17067D01*
X22582Y17069D01*
X22564Y17072D01*
X22546Y17077D01*
X22538Y17081D01*
X22530Y17085D01*
X22523Y17089D01*
X22517Y17094D01*
X22516Y17095D01*
X22515Y17096D01*
X22514Y17098D01*
X22512Y17100D01*
X22510Y17103D01*
X22507Y17106D01*
X22504Y17111D01*
X22502Y17115D01*
X22496Y17126D01*
X22490Y17139D01*
X22486Y17154D01*
X22484Y17162D01*
X22483Y17170D01*
X22573Y17177D01*
Y17175D01*
X22573Y17173D01*
X22574Y17169D01*
X22575Y17164D01*
X22579Y17153D01*
X22582Y17148D01*
X22584Y17143D01*
X22585Y17143D01*
X22587Y17140D01*
X22590Y17138D01*
X22595Y17134D01*
X22601Y17131D01*
X22608Y17128D01*
X22617Y17126D01*
X22626Y17125D01*
X22629D01*
X22633Y17126D01*
X22638Y17126D01*
X22643Y17127D01*
X22648Y17129D01*
X22653Y17131D01*
X22657Y17134D01*
X22658Y17134D01*
X22659Y17135D01*
X22660Y17138D01*
X22663Y17140D01*
X22665Y17143D01*
X22666Y17147D01*
X22668Y17152D01*
X22668Y17156D01*
Y17157D01*
Y17158D01*
X22668Y17160D01*
X22667Y17163D01*
X22665Y17167D01*
X22664Y17170D01*
X22661Y17174D01*
X22658Y17177D01*
X22657Y17178D01*
X22655Y17179D01*
X22652Y17180D01*
X22648Y17183D01*
X22641Y17185D01*
X22633Y17189D01*
X22628Y17190D01*
X22622Y17192D01*
X22616Y17193D01*
X22609Y17195D01*
X22609D01*
X22607Y17195D01*
X22603Y17197D01*
X22599Y17197D01*
X22594Y17199D01*
X22588Y17200D01*
X22582Y17202D01*
X22575Y17204D01*
X22560Y17210D01*
X22546Y17216D01*
X22533Y17223D01*
X22527Y17227D01*
X22521Y17232D01*
Y17232D01*
X22520Y17233D01*
X22517Y17235D01*
X22513Y17240D01*
X22508Y17248D01*
X22503Y17256D01*
X22499Y17266D01*
X22496Y17277D01*
X22496Y17283D01*
X22495Y17290D01*
Y17290D01*
Y17291D01*
Y17294D01*
X22496Y17299D01*
X22497Y17304D01*
X22498Y17311D01*
X22501Y17319D01*
X22504Y17326D01*
X22508Y17334D01*
X22509Y17335D01*
X22511Y17338D01*
X22514Y17341D01*
X22519Y17346D01*
X22524Y17351D01*
X22532Y17357D01*
X22540Y17362D01*
X22549Y17367D01*
X22550D01*
X22550Y17367D01*
X22552Y17368D01*
X22554Y17369D01*
X22557Y17370D01*
X22560Y17371D01*
X22564Y17372D01*
X22569Y17373D01*
X22574Y17374D01*
X22580Y17375D01*
X22593Y17377D01*
X22608Y17379D01*
X22624Y17379D01*
X22630D01*
X22634Y17379D01*
D02*
G37*
G36*
X21500D02*
X21505D01*
X21511Y17378D01*
X21517Y17377D01*
X21524Y17376D01*
X21538Y17374D01*
X21553Y17370D01*
X21567Y17364D01*
X21574Y17361D01*
X21580Y17357D01*
X21580D01*
X21581Y17356D01*
X21585Y17353D01*
X21590Y17348D01*
X21596Y17340D01*
X21599Y17336D01*
X21602Y17331D01*
X21605Y17325D01*
X21608Y17319D01*
X21611Y17312D01*
X21613Y17305D01*
X21615Y17296D01*
X21616Y17288D01*
X21528Y17283D01*
Y17284D01*
X21527Y17286D01*
X21526Y17290D01*
X21524Y17295D01*
X21522Y17299D01*
X21520Y17304D01*
X21516Y17309D01*
X21513Y17313D01*
X21512Y17314D01*
X21510Y17315D01*
X21508Y17316D01*
X21505Y17318D01*
X21500Y17320D01*
X21495Y17321D01*
X21489Y17322D01*
X21482Y17323D01*
X21479D01*
X21476Y17322D01*
X21472Y17321D01*
X21464Y17320D01*
X21460Y17318D01*
X21457Y17315D01*
X21456Y17315D01*
X21455Y17314D01*
X21453Y17311D01*
X21450Y17305D01*
X21449Y17302D01*
X21449Y17299D01*
Y17298D01*
Y17298D01*
X21450Y17294D01*
X21452Y17290D01*
X21453Y17288D01*
X21455Y17285D01*
X21456D01*
X21457Y17284D01*
X21459Y17283D01*
X21462Y17281D01*
X21466Y17280D01*
X21472Y17278D01*
X21478Y17276D01*
X21487Y17274D01*
X21487D01*
X21489Y17274D01*
X21493Y17273D01*
X21497Y17272D01*
X21502Y17271D01*
X21508Y17269D01*
X21514Y17268D01*
X21521Y17266D01*
X21535Y17262D01*
X21550Y17257D01*
X21564Y17252D01*
X21570Y17250D01*
X21575Y17247D01*
X21576D01*
X21576Y17246D01*
X21580Y17245D01*
X21584Y17242D01*
X21590Y17238D01*
X21596Y17233D01*
X21603Y17228D01*
X21609Y17221D01*
X21614Y17214D01*
X21615Y17213D01*
X21616Y17210D01*
X21618Y17206D01*
X21620Y17200D01*
X21623Y17194D01*
X21625Y17187D01*
X21626Y17178D01*
X21626Y17169D01*
Y17168D01*
Y17168D01*
Y17166D01*
Y17164D01*
X21625Y17158D01*
X21624Y17151D01*
X21623Y17143D01*
X21619Y17133D01*
X21615Y17124D01*
X21610Y17114D01*
X21609Y17113D01*
X21607Y17111D01*
X21603Y17106D01*
X21598Y17101D01*
X21591Y17094D01*
X21584Y17088D01*
X21575Y17083D01*
X21564Y17077D01*
X21564D01*
X21563Y17077D01*
X21561Y17076D01*
X21559Y17076D01*
X21556Y17074D01*
X21553Y17073D01*
X21549Y17072D01*
X21544Y17071D01*
X21534Y17069D01*
X21521Y17067D01*
X21507Y17066D01*
X21491Y17065D01*
X21484D01*
X21478Y17066D01*
X21472Y17066D01*
X21465Y17067D01*
X21457Y17067D01*
X21448Y17069D01*
X21430Y17072D01*
X21413Y17077D01*
X21404Y17081D01*
X21397Y17085D01*
X21389Y17089D01*
X21383Y17094D01*
X21383Y17095D01*
X21382Y17096D01*
X21381Y17098D01*
X21379Y17100D01*
X21377Y17103D01*
X21374Y17106D01*
X21371Y17111D01*
X21368Y17115D01*
X21362Y17126D01*
X21357Y17139D01*
X21353Y17154D01*
X21351Y17162D01*
X21350Y17170D01*
X21439Y17177D01*
Y17175D01*
X21440Y17173D01*
X21440Y17169D01*
X21442Y17164D01*
X21445Y17153D01*
X21448Y17148D01*
X21451Y17143D01*
X21452Y17143D01*
X21454Y17140D01*
X21457Y17138D01*
X21462Y17134D01*
X21468Y17131D01*
X21475Y17128D01*
X21483Y17126D01*
X21493Y17125D01*
X21496D01*
X21499Y17126D01*
X21504Y17126D01*
X21509Y17127D01*
X21514Y17129D01*
X21519Y17131D01*
X21524Y17134D01*
X21524Y17134D01*
X21525Y17135D01*
X21527Y17138D01*
X21529Y17140D01*
X21531Y17143D01*
X21533Y17147D01*
X21534Y17152D01*
X21535Y17156D01*
Y17157D01*
Y17158D01*
X21534Y17160D01*
X21534Y17163D01*
X21532Y17167D01*
X21530Y17170D01*
X21528Y17174D01*
X21524Y17177D01*
X21524Y17178D01*
X21522Y17179D01*
X21519Y17180D01*
X21514Y17183D01*
X21508Y17185D01*
X21499Y17189D01*
X21494Y17190D01*
X21489Y17192D01*
X21483Y17193D01*
X21476Y17195D01*
X21475D01*
X21473Y17195D01*
X21470Y17197D01*
X21466Y17197D01*
X21461Y17199D01*
X21455Y17200D01*
X21449Y17202D01*
X21442Y17204D01*
X21427Y17210D01*
X21413Y17216D01*
X21399Y17223D01*
X21393Y17227D01*
X21388Y17232D01*
Y17232D01*
X21387Y17233D01*
X21384Y17235D01*
X21379Y17240D01*
X21375Y17248D01*
X21370Y17256D01*
X21366Y17266D01*
X21363Y17277D01*
X21362Y17283D01*
X21362Y17290D01*
Y17290D01*
Y17291D01*
Y17294D01*
X21362Y17299D01*
X21363Y17304D01*
X21365Y17311D01*
X21367Y17319D01*
X21371Y17326D01*
X21375Y17334D01*
X21376Y17335D01*
X21378Y17338D01*
X21381Y17341D01*
X21386Y17346D01*
X21391Y17351D01*
X21398Y17357D01*
X21407Y17362D01*
X21416Y17367D01*
X21417D01*
X21417Y17367D01*
X21419Y17368D01*
X21421Y17369D01*
X21424Y17370D01*
X21427Y17371D01*
X21431Y17372D01*
X21435Y17373D01*
X21440Y17374D01*
X21447Y17375D01*
X21459Y17377D01*
X21474Y17379D01*
X21491Y17379D01*
X21497D01*
X21500Y17379D01*
D02*
G37*
G36*
X12634D02*
X12639D01*
X12644Y17378D01*
X12650Y17377D01*
X12657Y17376D01*
X12671Y17374D01*
X12686Y17370D01*
X12700Y17364D01*
X12707Y17361D01*
X12713Y17357D01*
X12714D01*
X12714Y17356D01*
X12718Y17353D01*
X12723Y17348D01*
X12729Y17340D01*
X12733Y17336D01*
X12735Y17331D01*
X12739Y17325D01*
X12741Y17319D01*
X12744Y17312D01*
X12746Y17305D01*
X12748Y17296D01*
X12750Y17288D01*
X12661Y17283D01*
Y17284D01*
X12660Y17286D01*
X12659Y17290D01*
X12658Y17295D01*
X12655Y17299D01*
X12653Y17304D01*
X12650Y17309D01*
X12646Y17313D01*
X12645Y17314D01*
X12644Y17315D01*
X12641Y17316D01*
X12638Y17318D01*
X12634Y17320D01*
X12628Y17321D01*
X12622Y17322D01*
X12615Y17323D01*
X12612D01*
X12609Y17322D01*
X12605Y17321D01*
X12597Y17320D01*
X12593Y17318D01*
X12590Y17315D01*
X12589Y17315D01*
X12589Y17314D01*
X12586Y17311D01*
X12583Y17305D01*
X12583Y17302D01*
X12582Y17299D01*
Y17298D01*
Y17298D01*
X12583Y17294D01*
X12585Y17290D01*
X12587Y17288D01*
X12589Y17285D01*
X12589D01*
X12590Y17284D01*
X12592Y17283D01*
X12595Y17281D01*
X12599Y17280D01*
X12605Y17278D01*
X12612Y17276D01*
X12620Y17274D01*
X12620D01*
X12623Y17274D01*
X12626Y17273D01*
X12630Y17272D01*
X12635Y17271D01*
X12641Y17269D01*
X12648Y17268D01*
X12654Y17266D01*
X12669Y17262D01*
X12684Y17257D01*
X12697Y17252D01*
X12703Y17250D01*
X12709Y17247D01*
X12709D01*
X12710Y17246D01*
X12713Y17245D01*
X12718Y17242D01*
X12724Y17238D01*
X12730Y17233D01*
X12736Y17228D01*
X12742Y17221D01*
X12747Y17214D01*
X12748Y17213D01*
X12749Y17210D01*
X12751Y17206D01*
X12754Y17200D01*
X12756Y17194D01*
X12758Y17187D01*
X12759Y17178D01*
X12760Y17169D01*
Y17168D01*
Y17168D01*
Y17166D01*
Y17164D01*
X12759Y17158D01*
X12757Y17151D01*
X12756Y17143D01*
X12752Y17133D01*
X12749Y17124D01*
X12743Y17114D01*
X12742Y17113D01*
X12740Y17111D01*
X12736Y17106D01*
X12731Y17101D01*
X12725Y17094D01*
X12717Y17088D01*
X12708Y17083D01*
X12698Y17077D01*
X12697D01*
X12696Y17077D01*
X12695Y17076D01*
X12693Y17076D01*
X12690Y17074D01*
X12686Y17073D01*
X12682Y17072D01*
X12678Y17071D01*
X12667Y17069D01*
X12654Y17067D01*
X12640Y17066D01*
X12624Y17065D01*
X12617D01*
X12612Y17066D01*
X12605Y17066D01*
X12598Y17067D01*
X12590Y17067D01*
X12582Y17069D01*
X12564Y17072D01*
X12546Y17077D01*
X12538Y17081D01*
X12530Y17085D01*
X12523Y17089D01*
X12517Y17094D01*
X12516Y17095D01*
X12515Y17096D01*
X12514Y17098D01*
X12512Y17100D01*
X12510Y17103D01*
X12507Y17106D01*
X12504Y17111D01*
X12502Y17115D01*
X12496Y17126D01*
X12490Y17139D01*
X12486Y17154D01*
X12484Y17162D01*
X12483Y17170D01*
X12573Y17177D01*
Y17175D01*
X12573Y17173D01*
X12574Y17169D01*
X12575Y17164D01*
X12579Y17153D01*
X12582Y17148D01*
X12584Y17143D01*
X12585Y17143D01*
X12587Y17140D01*
X12590Y17138D01*
X12595Y17134D01*
X12601Y17131D01*
X12608Y17128D01*
X12617Y17126D01*
X12626Y17125D01*
X12629D01*
X12633Y17126D01*
X12638Y17126D01*
X12643Y17127D01*
X12648Y17129D01*
X12653Y17131D01*
X12657Y17134D01*
X12658Y17134D01*
X12659Y17135D01*
X12660Y17138D01*
X12663Y17140D01*
X12665Y17143D01*
X12666Y17147D01*
X12668Y17152D01*
X12668Y17156D01*
Y17157D01*
Y17158D01*
X12668Y17160D01*
X12667Y17163D01*
X12665Y17167D01*
X12664Y17170D01*
X12661Y17174D01*
X12658Y17177D01*
X12657Y17178D01*
X12655Y17179D01*
X12652Y17180D01*
X12648Y17183D01*
X12641Y17185D01*
X12633Y17189D01*
X12628Y17190D01*
X12622Y17192D01*
X12616Y17193D01*
X12609Y17195D01*
X12609D01*
X12607Y17195D01*
X12603Y17197D01*
X12599Y17197D01*
X12594Y17199D01*
X12588Y17200D01*
X12582Y17202D01*
X12575Y17204D01*
X12560Y17210D01*
X12546Y17216D01*
X12533Y17223D01*
X12527Y17227D01*
X12521Y17232D01*
Y17232D01*
X12520Y17233D01*
X12517Y17235D01*
X12513Y17240D01*
X12508Y17248D01*
X12503Y17256D01*
X12499Y17266D01*
X12496Y17277D01*
X12496Y17283D01*
X12495Y17290D01*
Y17290D01*
Y17291D01*
Y17294D01*
X12496Y17299D01*
X12497Y17304D01*
X12498Y17311D01*
X12501Y17319D01*
X12504Y17326D01*
X12508Y17334D01*
X12509Y17335D01*
X12511Y17338D01*
X12514Y17341D01*
X12519Y17346D01*
X12524Y17351D01*
X12532Y17357D01*
X12540Y17362D01*
X12549Y17367D01*
X12550D01*
X12550Y17367D01*
X12552Y17368D01*
X12554Y17369D01*
X12557Y17370D01*
X12560Y17371D01*
X12564Y17372D01*
X12569Y17373D01*
X12574Y17374D01*
X12580Y17375D01*
X12593Y17377D01*
X12608Y17379D01*
X12624Y17379D01*
X12630D01*
X12634Y17379D01*
D02*
G37*
G36*
X11500D02*
X11505D01*
X11511Y17378D01*
X11517Y17377D01*
X11524Y17376D01*
X11538Y17374D01*
X11553Y17370D01*
X11567Y17364D01*
X11574Y17361D01*
X11580Y17357D01*
X11580D01*
X11581Y17356D01*
X11585Y17353D01*
X11590Y17348D01*
X11596Y17340D01*
X11599Y17336D01*
X11602Y17331D01*
X11605Y17325D01*
X11608Y17319D01*
X11611Y17312D01*
X11613Y17305D01*
X11615Y17296D01*
X11616Y17288D01*
X11528Y17283D01*
Y17284D01*
X11527Y17286D01*
X11526Y17290D01*
X11524Y17295D01*
X11522Y17299D01*
X11520Y17304D01*
X11516Y17309D01*
X11513Y17313D01*
X11512Y17314D01*
X11510Y17315D01*
X11508Y17316D01*
X11505Y17318D01*
X11500Y17320D01*
X11495Y17321D01*
X11489Y17322D01*
X11482Y17323D01*
X11479D01*
X11476Y17322D01*
X11472Y17321D01*
X11464Y17320D01*
X11460Y17318D01*
X11457Y17315D01*
X11456Y17315D01*
X11455Y17314D01*
X11453Y17311D01*
X11450Y17305D01*
X11449Y17302D01*
X11449Y17299D01*
Y17298D01*
Y17298D01*
X11450Y17294D01*
X11452Y17290D01*
X11453Y17288D01*
X11455Y17285D01*
X11456D01*
X11457Y17284D01*
X11459Y17283D01*
X11462Y17281D01*
X11466Y17280D01*
X11472Y17278D01*
X11478Y17276D01*
X11487Y17274D01*
X11487D01*
X11489Y17274D01*
X11493Y17273D01*
X11497Y17272D01*
X11502Y17271D01*
X11508Y17269D01*
X11514Y17268D01*
X11521Y17266D01*
X11535Y17262D01*
X11550Y17257D01*
X11564Y17252D01*
X11570Y17250D01*
X11575Y17247D01*
X11576D01*
X11576Y17246D01*
X11580Y17245D01*
X11584Y17242D01*
X11590Y17238D01*
X11596Y17233D01*
X11603Y17228D01*
X11609Y17221D01*
X11614Y17214D01*
X11615Y17213D01*
X11616Y17210D01*
X11618Y17206D01*
X11620Y17200D01*
X11623Y17194D01*
X11625Y17187D01*
X11626Y17178D01*
X11626Y17169D01*
Y17168D01*
Y17168D01*
Y17166D01*
Y17164D01*
X11625Y17158D01*
X11624Y17151D01*
X11623Y17143D01*
X11619Y17133D01*
X11615Y17124D01*
X11610Y17114D01*
X11609Y17113D01*
X11607Y17111D01*
X11603Y17106D01*
X11598Y17101D01*
X11591Y17094D01*
X11584Y17088D01*
X11575Y17083D01*
X11564Y17077D01*
X11564D01*
X11563Y17077D01*
X11561Y17076D01*
X11559Y17076D01*
X11556Y17074D01*
X11553Y17073D01*
X11549Y17072D01*
X11544Y17071D01*
X11534Y17069D01*
X11521Y17067D01*
X11507Y17066D01*
X11491Y17065D01*
X11484D01*
X11478Y17066D01*
X11472Y17066D01*
X11465Y17067D01*
X11457Y17067D01*
X11448Y17069D01*
X11430Y17072D01*
X11413Y17077D01*
X11404Y17081D01*
X11397Y17085D01*
X11389Y17089D01*
X11383Y17094D01*
X11383Y17095D01*
X11382Y17096D01*
X11381Y17098D01*
X11379Y17100D01*
X11377Y17103D01*
X11374Y17106D01*
X11371Y17111D01*
X11368Y17115D01*
X11362Y17126D01*
X11357Y17139D01*
X11353Y17154D01*
X11351Y17162D01*
X11350Y17170D01*
X11439Y17177D01*
Y17175D01*
X11440Y17173D01*
X11440Y17169D01*
X11442Y17164D01*
X11445Y17153D01*
X11448Y17148D01*
X11451Y17143D01*
X11452Y17143D01*
X11454Y17140D01*
X11457Y17138D01*
X11462Y17134D01*
X11468Y17131D01*
X11475Y17128D01*
X11483Y17126D01*
X11493Y17125D01*
X11496D01*
X11499Y17126D01*
X11504Y17126D01*
X11509Y17127D01*
X11514Y17129D01*
X11519Y17131D01*
X11524Y17134D01*
X11524Y17134D01*
X11525Y17135D01*
X11527Y17138D01*
X11529Y17140D01*
X11531Y17143D01*
X11533Y17147D01*
X11534Y17152D01*
X11535Y17156D01*
Y17157D01*
Y17158D01*
X11534Y17160D01*
X11534Y17163D01*
X11532Y17167D01*
X11530Y17170D01*
X11528Y17174D01*
X11524Y17177D01*
X11524Y17178D01*
X11522Y17179D01*
X11519Y17180D01*
X11514Y17183D01*
X11508Y17185D01*
X11499Y17189D01*
X11494Y17190D01*
X11489Y17192D01*
X11483Y17193D01*
X11476Y17195D01*
X11475D01*
X11473Y17195D01*
X11470Y17197D01*
X11466Y17197D01*
X11461Y17199D01*
X11455Y17200D01*
X11449Y17202D01*
X11442Y17204D01*
X11427Y17210D01*
X11413Y17216D01*
X11399Y17223D01*
X11393Y17227D01*
X11388Y17232D01*
Y17232D01*
X11387Y17233D01*
X11384Y17235D01*
X11379Y17240D01*
X11375Y17248D01*
X11370Y17256D01*
X11366Y17266D01*
X11363Y17277D01*
X11362Y17283D01*
X11362Y17290D01*
Y17290D01*
Y17291D01*
Y17294D01*
X11362Y17299D01*
X11363Y17304D01*
X11365Y17311D01*
X11367Y17319D01*
X11371Y17326D01*
X11375Y17334D01*
X11376Y17335D01*
X11378Y17338D01*
X11381Y17341D01*
X11386Y17346D01*
X11391Y17351D01*
X11398Y17357D01*
X11407Y17362D01*
X11416Y17367D01*
X11417D01*
X11417Y17367D01*
X11419Y17368D01*
X11421Y17369D01*
X11424Y17370D01*
X11427Y17371D01*
X11431Y17372D01*
X11435Y17373D01*
X11440Y17374D01*
X11447Y17375D01*
X11459Y17377D01*
X11474Y17379D01*
X11491Y17379D01*
X11497D01*
X11500Y17379D01*
D02*
G37*
G36*
X2634D02*
X2639D01*
X2644Y17378D01*
X2650Y17377D01*
X2657Y17376D01*
X2671Y17374D01*
X2686Y17370D01*
X2700Y17364D01*
X2707Y17361D01*
X2713Y17357D01*
X2714D01*
X2714Y17356D01*
X2718Y17353D01*
X2723Y17348D01*
X2729Y17340D01*
X2733Y17336D01*
X2735Y17331D01*
X2739Y17325D01*
X2741Y17319D01*
X2744Y17312D01*
X2746Y17305D01*
X2748Y17296D01*
X2750Y17288D01*
X2661Y17283D01*
Y17284D01*
X2660Y17286D01*
X2659Y17290D01*
X2658Y17295D01*
X2655Y17299D01*
X2653Y17304D01*
X2650Y17309D01*
X2646Y17313D01*
X2645Y17314D01*
X2644Y17315D01*
X2641Y17316D01*
X2638Y17318D01*
X2634Y17320D01*
X2628Y17321D01*
X2622Y17322D01*
X2615Y17323D01*
X2612D01*
X2609Y17322D01*
X2605Y17321D01*
X2597Y17320D01*
X2593Y17318D01*
X2590Y17315D01*
X2589Y17315D01*
X2589Y17314D01*
X2586Y17311D01*
X2583Y17305D01*
X2583Y17302D01*
X2582Y17299D01*
Y17298D01*
Y17298D01*
X2583Y17294D01*
X2585Y17290D01*
X2587Y17288D01*
X2589Y17285D01*
X2589D01*
X2590Y17284D01*
X2592Y17283D01*
X2595Y17281D01*
X2599Y17280D01*
X2605Y17278D01*
X2612Y17276D01*
X2620Y17274D01*
X2620D01*
X2623Y17274D01*
X2626Y17273D01*
X2630Y17272D01*
X2635Y17271D01*
X2641Y17269D01*
X2648Y17268D01*
X2654Y17266D01*
X2669Y17262D01*
X2684Y17257D01*
X2697Y17252D01*
X2703Y17250D01*
X2709Y17247D01*
X2709D01*
X2710Y17246D01*
X2713Y17245D01*
X2718Y17242D01*
X2724Y17238D01*
X2730Y17233D01*
X2736Y17228D01*
X2743Y17221D01*
X2747Y17214D01*
X2748Y17213D01*
X2749Y17210D01*
X2751Y17206D01*
X2754Y17200D01*
X2756Y17194D01*
X2758Y17187D01*
X2759Y17178D01*
X2760Y17169D01*
Y17168D01*
Y17168D01*
Y17166D01*
Y17164D01*
X2759Y17158D01*
X2757Y17151D01*
X2756Y17143D01*
X2752Y17133D01*
X2749Y17124D01*
X2743Y17114D01*
X2743Y17113D01*
X2740Y17111D01*
X2736Y17106D01*
X2731Y17101D01*
X2725Y17094D01*
X2717Y17088D01*
X2708Y17083D01*
X2698Y17077D01*
X2697D01*
X2696Y17077D01*
X2695Y17076D01*
X2693Y17076D01*
X2690Y17074D01*
X2686Y17073D01*
X2682Y17072D01*
X2678Y17071D01*
X2667Y17069D01*
X2654Y17067D01*
X2640Y17066D01*
X2624Y17065D01*
X2617D01*
X2612Y17066D01*
X2605Y17066D01*
X2598Y17067D01*
X2590Y17067D01*
X2582Y17069D01*
X2564Y17072D01*
X2546Y17077D01*
X2538Y17081D01*
X2530Y17085D01*
X2523Y17089D01*
X2517Y17094D01*
X2516Y17095D01*
X2515Y17096D01*
X2514Y17098D01*
X2512Y17100D01*
X2510Y17103D01*
X2507Y17106D01*
X2504Y17111D01*
X2502Y17115D01*
X2496Y17126D01*
X2490Y17139D01*
X2486Y17154D01*
X2484Y17162D01*
X2483Y17170D01*
X2573Y17177D01*
Y17175D01*
X2573Y17173D01*
X2574Y17169D01*
X2575Y17164D01*
X2579Y17153D01*
X2582Y17148D01*
X2584Y17143D01*
X2585Y17143D01*
X2587Y17140D01*
X2590Y17138D01*
X2595Y17134D01*
X2601Y17131D01*
X2608Y17128D01*
X2617Y17126D01*
X2626Y17125D01*
X2629D01*
X2633Y17126D01*
X2638Y17126D01*
X2643Y17127D01*
X2648Y17129D01*
X2653Y17131D01*
X2657Y17134D01*
X2658Y17134D01*
X2659Y17135D01*
X2660Y17138D01*
X2663Y17140D01*
X2665Y17143D01*
X2666Y17147D01*
X2668Y17152D01*
X2668Y17156D01*
Y17157D01*
Y17158D01*
X2668Y17160D01*
X2667Y17163D01*
X2665Y17167D01*
X2664Y17170D01*
X2661Y17174D01*
X2658Y17177D01*
X2657Y17178D01*
X2655Y17179D01*
X2652Y17180D01*
X2648Y17183D01*
X2641Y17185D01*
X2633Y17189D01*
X2628Y17190D01*
X2622Y17192D01*
X2616Y17193D01*
X2609Y17195D01*
X2609D01*
X2607Y17195D01*
X2603Y17197D01*
X2599Y17197D01*
X2594Y17199D01*
X2588Y17200D01*
X2582Y17202D01*
X2575Y17204D01*
X2560Y17210D01*
X2546Y17216D01*
X2533Y17223D01*
X2527Y17227D01*
X2521Y17232D01*
Y17232D01*
X2520Y17233D01*
X2517Y17235D01*
X2513Y17240D01*
X2508Y17248D01*
X2503Y17256D01*
X2499Y17266D01*
X2496Y17277D01*
X2496Y17283D01*
X2495Y17290D01*
Y17290D01*
Y17291D01*
Y17294D01*
X2496Y17299D01*
X2497Y17304D01*
X2498Y17311D01*
X2501Y17319D01*
X2504Y17326D01*
X2508Y17334D01*
X2509Y17335D01*
X2511Y17338D01*
X2514Y17341D01*
X2519Y17346D01*
X2524Y17351D01*
X2532Y17357D01*
X2540Y17362D01*
X2549Y17367D01*
X2550D01*
X2550Y17367D01*
X2552Y17368D01*
X2554Y17369D01*
X2557Y17370D01*
X2560Y17371D01*
X2564Y17372D01*
X2569Y17373D01*
X2574Y17374D01*
X2580Y17375D01*
X2593Y17377D01*
X2608Y17379D01*
X2624Y17379D01*
X2630D01*
X2634Y17379D01*
D02*
G37*
G36*
X1500D02*
X1505D01*
X1511Y17378D01*
X1517Y17377D01*
X1524Y17376D01*
X1538Y17374D01*
X1553Y17370D01*
X1567Y17364D01*
X1574Y17361D01*
X1580Y17357D01*
X1580D01*
X1581Y17356D01*
X1585Y17353D01*
X1590Y17348D01*
X1596Y17340D01*
X1599Y17336D01*
X1602Y17331D01*
X1605Y17325D01*
X1608Y17319D01*
X1611Y17312D01*
X1613Y17305D01*
X1615Y17296D01*
X1616Y17288D01*
X1528Y17283D01*
Y17284D01*
X1527Y17286D01*
X1526Y17290D01*
X1524Y17295D01*
X1522Y17299D01*
X1520Y17304D01*
X1516Y17309D01*
X1513Y17313D01*
X1512Y17314D01*
X1510Y17315D01*
X1508Y17316D01*
X1505Y17318D01*
X1500Y17320D01*
X1495Y17321D01*
X1489Y17322D01*
X1482Y17323D01*
X1479D01*
X1476Y17322D01*
X1472Y17321D01*
X1464Y17320D01*
X1460Y17318D01*
X1457Y17315D01*
X1456Y17315D01*
X1455Y17314D01*
X1453Y17311D01*
X1450Y17305D01*
X1449Y17302D01*
X1449Y17299D01*
Y17298D01*
Y17298D01*
X1450Y17294D01*
X1452Y17290D01*
X1453Y17288D01*
X1455Y17285D01*
X1456D01*
X1457Y17284D01*
X1459Y17283D01*
X1462Y17281D01*
X1466Y17280D01*
X1472Y17278D01*
X1478Y17276D01*
X1487Y17274D01*
X1487D01*
X1489Y17274D01*
X1493Y17273D01*
X1497Y17272D01*
X1502Y17271D01*
X1508Y17269D01*
X1514Y17268D01*
X1521Y17266D01*
X1535Y17262D01*
X1550Y17257D01*
X1564Y17252D01*
X1570Y17250D01*
X1575Y17247D01*
X1576D01*
X1576Y17246D01*
X1580Y17245D01*
X1584Y17242D01*
X1590Y17238D01*
X1596Y17233D01*
X1603Y17228D01*
X1609Y17221D01*
X1614Y17214D01*
X1615Y17213D01*
X1616Y17210D01*
X1618Y17206D01*
X1620Y17200D01*
X1622Y17194D01*
X1625Y17187D01*
X1626Y17178D01*
X1626Y17169D01*
Y17168D01*
Y17168D01*
Y17166D01*
Y17164D01*
X1625Y17158D01*
X1624Y17151D01*
X1622Y17143D01*
X1619Y17133D01*
X1615Y17124D01*
X1610Y17114D01*
X1609Y17113D01*
X1607Y17111D01*
X1603Y17106D01*
X1598Y17101D01*
X1591Y17094D01*
X1584Y17088D01*
X1575Y17083D01*
X1564Y17077D01*
X1564D01*
X1563Y17077D01*
X1561Y17076D01*
X1559Y17076D01*
X1556Y17074D01*
X1553Y17073D01*
X1549Y17072D01*
X1544Y17071D01*
X1534Y17069D01*
X1521Y17067D01*
X1507Y17066D01*
X1491Y17065D01*
X1484D01*
X1478Y17066D01*
X1472Y17066D01*
X1465Y17067D01*
X1457Y17067D01*
X1448Y17069D01*
X1430Y17072D01*
X1413Y17077D01*
X1404Y17081D01*
X1397Y17085D01*
X1389Y17089D01*
X1383Y17094D01*
X1383Y17095D01*
X1382Y17096D01*
X1381Y17098D01*
X1379Y17100D01*
X1377Y17103D01*
X1374Y17106D01*
X1371Y17111D01*
X1368Y17115D01*
X1362Y17126D01*
X1357Y17139D01*
X1353Y17154D01*
X1351Y17162D01*
X1350Y17170D01*
X1439Y17177D01*
Y17175D01*
X1440Y17173D01*
X1440Y17169D01*
X1442Y17164D01*
X1445Y17153D01*
X1448Y17148D01*
X1451Y17143D01*
X1452Y17143D01*
X1454Y17140D01*
X1457Y17138D01*
X1462Y17134D01*
X1468Y17131D01*
X1475Y17128D01*
X1483Y17126D01*
X1493Y17125D01*
X1496D01*
X1499Y17126D01*
X1504Y17126D01*
X1509Y17127D01*
X1514Y17129D01*
X1519Y17131D01*
X1524Y17134D01*
X1524Y17134D01*
X1525Y17135D01*
X1527Y17138D01*
X1529Y17140D01*
X1531Y17143D01*
X1533Y17147D01*
X1534Y17152D01*
X1535Y17156D01*
Y17157D01*
Y17158D01*
X1534Y17160D01*
X1534Y17163D01*
X1532Y17167D01*
X1530Y17170D01*
X1528Y17174D01*
X1524Y17177D01*
X1524Y17178D01*
X1522Y17179D01*
X1519Y17180D01*
X1514Y17183D01*
X1508Y17185D01*
X1499Y17189D01*
X1494Y17190D01*
X1489Y17192D01*
X1483Y17193D01*
X1476Y17195D01*
X1475D01*
X1473Y17195D01*
X1470Y17197D01*
X1466Y17197D01*
X1461Y17199D01*
X1455Y17200D01*
X1449Y17202D01*
X1442Y17204D01*
X1427Y17210D01*
X1413Y17216D01*
X1399Y17223D01*
X1393Y17227D01*
X1388Y17232D01*
Y17232D01*
X1387Y17233D01*
X1384Y17235D01*
X1379Y17240D01*
X1375Y17248D01*
X1370Y17256D01*
X1366Y17266D01*
X1363Y17277D01*
X1362Y17283D01*
X1362Y17290D01*
Y17290D01*
Y17291D01*
Y17294D01*
X1362Y17299D01*
X1363Y17304D01*
X1365Y17311D01*
X1367Y17319D01*
X1371Y17326D01*
X1375Y17334D01*
X1376Y17335D01*
X1378Y17338D01*
X1381Y17341D01*
X1386Y17346D01*
X1391Y17351D01*
X1398Y17357D01*
X1407Y17362D01*
X1416Y17367D01*
X1417D01*
X1417Y17367D01*
X1419Y17368D01*
X1421Y17369D01*
X1424Y17370D01*
X1427Y17371D01*
X1431Y17372D01*
X1435Y17373D01*
X1440Y17374D01*
X1447Y17375D01*
X1459Y17377D01*
X1474Y17379D01*
X1491Y17379D01*
X1497D01*
X1500Y17379D01*
D02*
G37*
G36*
X22438Y17193D02*
Y17192D01*
Y17192D01*
Y17188D01*
X22437Y17183D01*
X22437Y17177D01*
X22436Y17168D01*
X22434Y17160D01*
X22432Y17151D01*
X22429Y17142D01*
X22428Y17140D01*
X22427Y17138D01*
X22426Y17133D01*
X22422Y17128D01*
X22419Y17121D01*
X22414Y17114D01*
X22409Y17107D01*
X22402Y17100D01*
X22402Y17099D01*
X22399Y17097D01*
X22396Y17094D01*
X22391Y17090D01*
X22386Y17086D01*
X22379Y17082D01*
X22372Y17078D01*
X22365Y17075D01*
X22365D01*
X22364Y17074D01*
X22362Y17074D01*
X22360Y17073D01*
X22355Y17072D01*
X22346Y17070D01*
X22337Y17068D01*
X22326Y17067D01*
X22313Y17066D01*
X22299Y17065D01*
X22291D01*
X22285Y17066D01*
X22277D01*
X22269Y17067D01*
X22260Y17067D01*
X22250Y17068D01*
X22249D01*
X22246Y17069D01*
X22241Y17069D01*
X22235Y17071D01*
X22228Y17072D01*
X22221Y17074D01*
X22214Y17077D01*
X22206Y17080D01*
X22206Y17081D01*
X22204Y17082D01*
X22200Y17084D01*
X22196Y17087D01*
X22191Y17091D01*
X22185Y17095D01*
X22180Y17100D01*
X22174Y17106D01*
X22174Y17107D01*
X22172Y17109D01*
X22169Y17113D01*
X22166Y17117D01*
X22163Y17122D01*
X22160Y17128D01*
X22156Y17135D01*
X22154Y17142D01*
Y17142D01*
X22154Y17143D01*
Y17144D01*
X22153Y17147D01*
X22151Y17152D01*
X22150Y17159D01*
X22149Y17167D01*
X22147Y17175D01*
X22146Y17184D01*
X22146Y17193D01*
Y17374D01*
X22240D01*
Y17189D01*
Y17188D01*
Y17185D01*
X22240Y17180D01*
X22241Y17174D01*
X22243Y17168D01*
X22245Y17162D01*
X22249Y17155D01*
X22253Y17150D01*
X22254Y17149D01*
X22256Y17148D01*
X22259Y17145D01*
X22263Y17143D01*
X22269Y17140D01*
X22275Y17138D01*
X22283Y17137D01*
X22292Y17136D01*
X22296D01*
X22300Y17137D01*
X22306Y17138D01*
X22312Y17139D01*
X22318Y17142D01*
X22325Y17145D01*
X22330Y17149D01*
X22331Y17150D01*
X22332Y17152D01*
X22335Y17155D01*
X22337Y17159D01*
X22340Y17165D01*
X22342Y17172D01*
X22343Y17180D01*
X22344Y17189D01*
Y17374D01*
X22438D01*
Y17193D01*
D02*
G37*
G36*
X12438D02*
Y17192D01*
Y17192D01*
Y17188D01*
X12437Y17183D01*
X12437Y17177D01*
X12436Y17168D01*
X12434Y17160D01*
X12432Y17151D01*
X12429Y17142D01*
X12428Y17140D01*
X12427Y17138D01*
X12426Y17133D01*
X12422Y17128D01*
X12419Y17121D01*
X12414Y17114D01*
X12409Y17107D01*
X12402Y17100D01*
X12402Y17099D01*
X12399Y17097D01*
X12396Y17094D01*
X12391Y17090D01*
X12386Y17086D01*
X12379Y17082D01*
X12372Y17078D01*
X12365Y17075D01*
X12365D01*
X12364Y17074D01*
X12362Y17074D01*
X12360Y17073D01*
X12355Y17072D01*
X12346Y17070D01*
X12337Y17068D01*
X12326Y17067D01*
X12313Y17066D01*
X12299Y17065D01*
X12291D01*
X12285Y17066D01*
X12277D01*
X12269Y17067D01*
X12260Y17067D01*
X12250Y17068D01*
X12249D01*
X12246Y17069D01*
X12241Y17069D01*
X12235Y17071D01*
X12228Y17072D01*
X12221Y17074D01*
X12214Y17077D01*
X12206Y17080D01*
X12206Y17081D01*
X12204Y17082D01*
X12200Y17084D01*
X12196Y17087D01*
X12191Y17091D01*
X12185Y17095D01*
X12180Y17100D01*
X12174Y17106D01*
X12174Y17107D01*
X12172Y17109D01*
X12169Y17113D01*
X12166Y17117D01*
X12163Y17122D01*
X12160Y17128D01*
X12156Y17135D01*
X12154Y17142D01*
Y17142D01*
X12154Y17143D01*
Y17144D01*
X12153Y17147D01*
X12151Y17152D01*
X12150Y17159D01*
X12149Y17167D01*
X12147Y17175D01*
X12146Y17184D01*
X12146Y17193D01*
Y17374D01*
X12240D01*
Y17189D01*
Y17188D01*
Y17185D01*
X12240Y17180D01*
X12241Y17174D01*
X12243Y17168D01*
X12245Y17162D01*
X12249Y17155D01*
X12253Y17150D01*
X12254Y17149D01*
X12256Y17148D01*
X12259Y17145D01*
X12263Y17143D01*
X12269Y17140D01*
X12275Y17138D01*
X12283Y17137D01*
X12292Y17136D01*
X12296D01*
X12300Y17137D01*
X12306Y17138D01*
X12312Y17139D01*
X12318Y17142D01*
X12325Y17145D01*
X12330Y17149D01*
X12331Y17150D01*
X12332Y17152D01*
X12335Y17155D01*
X12337Y17159D01*
X12340Y17165D01*
X12342Y17172D01*
X12343Y17180D01*
X12344Y17189D01*
Y17374D01*
X12438D01*
Y17193D01*
D02*
G37*
G36*
X2438D02*
Y17192D01*
Y17192D01*
Y17188D01*
X2437Y17183D01*
X2437Y17177D01*
X2436Y17168D01*
X2434Y17160D01*
X2432Y17151D01*
X2429Y17142D01*
X2428Y17140D01*
X2427Y17138D01*
X2426Y17133D01*
X2422Y17128D01*
X2419Y17121D01*
X2414Y17114D01*
X2409Y17107D01*
X2402Y17100D01*
X2402Y17099D01*
X2399Y17097D01*
X2396Y17094D01*
X2391Y17090D01*
X2386Y17086D01*
X2379Y17082D01*
X2372Y17078D01*
X2365Y17075D01*
X2365D01*
X2364Y17074D01*
X2362Y17074D01*
X2360Y17073D01*
X2355Y17072D01*
X2346Y17070D01*
X2337Y17068D01*
X2326Y17067D01*
X2313Y17066D01*
X2299Y17065D01*
X2291D01*
X2285Y17066D01*
X2277D01*
X2269Y17067D01*
X2260Y17067D01*
X2250Y17068D01*
X2249D01*
X2246Y17069D01*
X2241Y17069D01*
X2235Y17071D01*
X2228Y17072D01*
X2221Y17074D01*
X2214Y17077D01*
X2206Y17080D01*
X2206Y17081D01*
X2204Y17082D01*
X2200Y17084D01*
X2196Y17087D01*
X2191Y17091D01*
X2185Y17095D01*
X2180Y17100D01*
X2174Y17106D01*
X2174Y17107D01*
X2172Y17109D01*
X2169Y17113D01*
X2166Y17117D01*
X2163Y17122D01*
X2160Y17128D01*
X2156Y17135D01*
X2154Y17142D01*
Y17142D01*
X2154Y17143D01*
Y17144D01*
X2153Y17147D01*
X2151Y17152D01*
X2150Y17159D01*
X2149Y17167D01*
X2147Y17175D01*
X2146Y17184D01*
X2146Y17193D01*
Y17374D01*
X2240D01*
Y17189D01*
Y17188D01*
Y17185D01*
X2240Y17180D01*
X2241Y17174D01*
X2243Y17168D01*
X2245Y17162D01*
X2249Y17155D01*
X2253Y17150D01*
X2254Y17149D01*
X2256Y17148D01*
X2259Y17145D01*
X2263Y17143D01*
X2269Y17140D01*
X2275Y17138D01*
X2283Y17137D01*
X2292Y17136D01*
X2296D01*
X2300Y17137D01*
X2306Y17138D01*
X2312Y17139D01*
X2318Y17142D01*
X2325Y17145D01*
X2330Y17149D01*
X2331Y17150D01*
X2332Y17152D01*
X2335Y17155D01*
X2337Y17159D01*
X2340Y17165D01*
X2342Y17172D01*
X2343Y17180D01*
X2344Y17189D01*
Y17374D01*
X2438D01*
Y17193D01*
D02*
G37*
G36*
X21998Y17374D02*
X22002D01*
X22006Y17373D01*
X22016Y17371D01*
X22027Y17369D01*
X22038Y17365D01*
X22049Y17359D01*
X22059Y17352D01*
X22059D01*
X22060Y17351D01*
X22063Y17348D01*
X22067Y17344D01*
X22071Y17337D01*
X22075Y17329D01*
X22079Y17320D01*
X22081Y17310D01*
X22083Y17304D01*
Y17298D01*
Y17298D01*
Y17297D01*
Y17294D01*
X22081Y17289D01*
X22080Y17283D01*
X22078Y17275D01*
X22075Y17268D01*
X22071Y17260D01*
X22065Y17252D01*
X22065Y17251D01*
X22063Y17250D01*
X22061Y17248D01*
X22057Y17245D01*
X22053Y17241D01*
X22047Y17238D01*
X22040Y17235D01*
X22033Y17232D01*
X22033D01*
X22034Y17231D01*
X22036D01*
X22038Y17230D01*
X22044Y17228D01*
X22051Y17225D01*
X22059Y17222D01*
X22067Y17217D01*
X22074Y17211D01*
X22081Y17204D01*
X22081Y17203D01*
X22083Y17201D01*
X22086Y17197D01*
X22089Y17191D01*
X22091Y17184D01*
X22094Y17176D01*
X22096Y17167D01*
X22096Y17156D01*
Y17155D01*
Y17152D01*
X22096Y17148D01*
X22095Y17142D01*
X22094Y17135D01*
X22092Y17128D01*
X22089Y17121D01*
X22085Y17114D01*
X22085Y17113D01*
X22083Y17111D01*
X22081Y17107D01*
X22078Y17103D01*
X22073Y17098D01*
X22068Y17093D01*
X22062Y17088D01*
X22055Y17084D01*
X22054D01*
X22053Y17083D01*
X22050Y17082D01*
X22046Y17080D01*
X22041Y17078D01*
X22035Y17077D01*
X22028Y17076D01*
X22019Y17074D01*
X22018D01*
X22017Y17073D01*
X22014D01*
X22009Y17073D01*
X22002Y17072D01*
X21995Y17071D01*
X21988Y17071D01*
X21982Y17070D01*
X21815D01*
Y17374D01*
X21995D01*
X21998Y17374D01*
D02*
G37*
G36*
X21758Y17070D02*
X21668D01*
Y17155D01*
X21758D01*
Y17070D01*
D02*
G37*
G36*
X11998Y17374D02*
X12002D01*
X12006Y17373D01*
X12016Y17371D01*
X12027Y17369D01*
X12038Y17365D01*
X12049Y17359D01*
X12059Y17352D01*
X12059D01*
X12060Y17351D01*
X12063Y17348D01*
X12067Y17344D01*
X12071Y17337D01*
X12075Y17329D01*
X12079Y17320D01*
X12081Y17310D01*
X12083Y17304D01*
Y17298D01*
Y17298D01*
Y17297D01*
Y17294D01*
X12081Y17289D01*
X12080Y17283D01*
X12078Y17275D01*
X12075Y17268D01*
X12071Y17260D01*
X12065Y17252D01*
X12065Y17251D01*
X12063Y17250D01*
X12061Y17248D01*
X12057Y17245D01*
X12053Y17241D01*
X12047Y17238D01*
X12040Y17235D01*
X12033Y17232D01*
X12033D01*
X12034Y17231D01*
X12036D01*
X12038Y17230D01*
X12044Y17228D01*
X12051Y17225D01*
X12059Y17222D01*
X12067Y17217D01*
X12074Y17211D01*
X12081Y17204D01*
X12081Y17203D01*
X12083Y17201D01*
X12086Y17197D01*
X12089Y17191D01*
X12091Y17184D01*
X12094Y17176D01*
X12096Y17167D01*
X12096Y17156D01*
Y17155D01*
Y17152D01*
X12096Y17148D01*
X12095Y17142D01*
X12094Y17135D01*
X12092Y17128D01*
X12089Y17121D01*
X12085Y17114D01*
X12085Y17113D01*
X12083Y17111D01*
X12081Y17107D01*
X12078Y17103D01*
X12073Y17098D01*
X12068Y17093D01*
X12062Y17088D01*
X12055Y17084D01*
X12054D01*
X12053Y17083D01*
X12050Y17082D01*
X12046Y17080D01*
X12041Y17078D01*
X12035Y17077D01*
X12028Y17076D01*
X12019Y17074D01*
X12018D01*
X12017Y17073D01*
X12014D01*
X12009Y17073D01*
X12002Y17072D01*
X11995Y17071D01*
X11988Y17071D01*
X11982Y17070D01*
X11815D01*
Y17374D01*
X11995D01*
X11998Y17374D01*
D02*
G37*
G36*
X11758Y17070D02*
X11668D01*
Y17155D01*
X11758D01*
Y17070D01*
D02*
G37*
G36*
X1998Y17374D02*
X2002D01*
X2006Y17373D01*
X2016Y17371D01*
X2027Y17369D01*
X2038Y17365D01*
X2049Y17359D01*
X2059Y17352D01*
X2059D01*
X2060Y17351D01*
X2063Y17348D01*
X2067Y17344D01*
X2071Y17337D01*
X2075Y17329D01*
X2079Y17320D01*
X2081Y17310D01*
X2083Y17304D01*
Y17298D01*
Y17298D01*
Y17297D01*
Y17294D01*
X2081Y17289D01*
X2080Y17283D01*
X2078Y17275D01*
X2075Y17268D01*
X2071Y17260D01*
X2065Y17252D01*
X2065Y17251D01*
X2063Y17250D01*
X2061Y17248D01*
X2057Y17245D01*
X2053Y17241D01*
X2047Y17238D01*
X2040Y17235D01*
X2033Y17232D01*
X2033D01*
X2034Y17231D01*
X2036D01*
X2038Y17230D01*
X2044Y17228D01*
X2051Y17225D01*
X2059Y17222D01*
X2067Y17217D01*
X2074Y17211D01*
X2081Y17204D01*
X2081Y17203D01*
X2083Y17201D01*
X2086Y17197D01*
X2089Y17191D01*
X2091Y17184D01*
X2094Y17176D01*
X2096Y17167D01*
X2096Y17156D01*
Y17155D01*
Y17152D01*
X2096Y17148D01*
X2095Y17142D01*
X2094Y17135D01*
X2092Y17128D01*
X2089Y17121D01*
X2085Y17114D01*
X2085Y17113D01*
X2083Y17111D01*
X2081Y17107D01*
X2078Y17103D01*
X2073Y17098D01*
X2068Y17093D01*
X2062Y17088D01*
X2055Y17084D01*
X2054D01*
X2053Y17083D01*
X2050Y17082D01*
X2046Y17080D01*
X2041Y17078D01*
X2035Y17077D01*
X2028Y17076D01*
X2019Y17074D01*
X2018D01*
X2017Y17073D01*
X2014D01*
X2009Y17073D01*
X2002Y17072D01*
X1995Y17071D01*
X1988Y17071D01*
X1982Y17070D01*
X1815D01*
Y17374D01*
X1995D01*
X1998Y17374D01*
D02*
G37*
G36*
X1758Y17070D02*
X1668D01*
Y17155D01*
X1758D01*
Y17070D01*
D02*
G37*
G36*
X22634Y8579D02*
X22639D01*
X22644Y8578D01*
X22650Y8577D01*
X22657Y8576D01*
X22671Y8574D01*
X22686Y8570D01*
X22700Y8564D01*
X22707Y8561D01*
X22713Y8557D01*
X22714D01*
X22714Y8556D01*
X22718Y8553D01*
X22723Y8547D01*
X22729Y8540D01*
X22733Y8536D01*
X22735Y8531D01*
X22739Y8525D01*
X22741Y8519D01*
X22744Y8512D01*
X22746Y8505D01*
X22748Y8496D01*
X22750Y8488D01*
X22661Y8483D01*
Y8484D01*
X22660Y8486D01*
X22659Y8490D01*
X22658Y8495D01*
X22655Y8499D01*
X22653Y8504D01*
X22650Y8509D01*
X22646Y8513D01*
X22645Y8514D01*
X22644Y8515D01*
X22641Y8516D01*
X22638Y8518D01*
X22634Y8520D01*
X22628Y8521D01*
X22622Y8522D01*
X22615Y8523D01*
X22612D01*
X22609Y8522D01*
X22605Y8521D01*
X22597Y8520D01*
X22593Y8518D01*
X22590Y8515D01*
X22589Y8515D01*
X22589Y8514D01*
X22586Y8511D01*
X22583Y8505D01*
X22583Y8502D01*
X22582Y8499D01*
Y8498D01*
Y8498D01*
X22583Y8494D01*
X22585Y8490D01*
X22587Y8488D01*
X22589Y8485D01*
X22589D01*
X22590Y8484D01*
X22592Y8483D01*
X22595Y8481D01*
X22599Y8480D01*
X22605Y8478D01*
X22612Y8476D01*
X22620Y8474D01*
X22620D01*
X22623Y8474D01*
X22626Y8473D01*
X22630Y8472D01*
X22635Y8471D01*
X22641Y8469D01*
X22648Y8468D01*
X22654Y8466D01*
X22669Y8462D01*
X22684Y8457D01*
X22697Y8452D01*
X22703Y8450D01*
X22709Y8447D01*
X22709D01*
X22710Y8446D01*
X22713Y8445D01*
X22718Y8442D01*
X22724Y8438D01*
X22730Y8433D01*
X22736Y8428D01*
X22742Y8421D01*
X22747Y8414D01*
X22748Y8413D01*
X22749Y8410D01*
X22751Y8406D01*
X22754Y8400D01*
X22756Y8394D01*
X22758Y8387D01*
X22759Y8378D01*
X22760Y8369D01*
Y8368D01*
Y8368D01*
Y8366D01*
Y8364D01*
X22759Y8358D01*
X22757Y8351D01*
X22756Y8343D01*
X22752Y8333D01*
X22749Y8324D01*
X22743Y8314D01*
X22742Y8313D01*
X22740Y8311D01*
X22736Y8306D01*
X22731Y8301D01*
X22725Y8294D01*
X22717Y8288D01*
X22708Y8283D01*
X22698Y8277D01*
X22697D01*
X22696Y8277D01*
X22695Y8276D01*
X22693Y8276D01*
X22690Y8274D01*
X22686Y8273D01*
X22682Y8272D01*
X22678Y8271D01*
X22667Y8269D01*
X22654Y8267D01*
X22640Y8266D01*
X22624Y8265D01*
X22617D01*
X22612Y8266D01*
X22605Y8266D01*
X22598Y8267D01*
X22590Y8267D01*
X22582Y8269D01*
X22564Y8272D01*
X22546Y8277D01*
X22538Y8281D01*
X22530Y8285D01*
X22523Y8289D01*
X22517Y8294D01*
X22516Y8295D01*
X22515Y8296D01*
X22514Y8298D01*
X22512Y8300D01*
X22510Y8303D01*
X22507Y8306D01*
X22504Y8311D01*
X22502Y8315D01*
X22496Y8326D01*
X22490Y8339D01*
X22486Y8354D01*
X22484Y8362D01*
X22483Y8370D01*
X22573Y8377D01*
Y8375D01*
X22573Y8373D01*
X22574Y8369D01*
X22575Y8364D01*
X22579Y8353D01*
X22582Y8348D01*
X22584Y8343D01*
X22585Y8343D01*
X22587Y8340D01*
X22590Y8338D01*
X22595Y8334D01*
X22601Y8330D01*
X22608Y8328D01*
X22617Y8325D01*
X22626Y8325D01*
X22629D01*
X22633Y8325D01*
X22638Y8326D01*
X22643Y8327D01*
X22648Y8329D01*
X22653Y8331D01*
X22657Y8334D01*
X22658Y8334D01*
X22659Y8335D01*
X22660Y8338D01*
X22663Y8340D01*
X22665Y8343D01*
X22666Y8347D01*
X22668Y8352D01*
X22668Y8356D01*
Y8357D01*
Y8358D01*
X22668Y8360D01*
X22667Y8363D01*
X22665Y8367D01*
X22664Y8370D01*
X22661Y8374D01*
X22658Y8377D01*
X22657Y8378D01*
X22655Y8379D01*
X22652Y8380D01*
X22648Y8383D01*
X22641Y8385D01*
X22633Y8389D01*
X22628Y8390D01*
X22622Y8392D01*
X22616Y8393D01*
X22609Y8395D01*
X22609D01*
X22607Y8395D01*
X22603Y8397D01*
X22599Y8397D01*
X22594Y8399D01*
X22588Y8400D01*
X22582Y8402D01*
X22575Y8404D01*
X22560Y8410D01*
X22546Y8416D01*
X22533Y8423D01*
X22527Y8427D01*
X22521Y8432D01*
Y8432D01*
X22520Y8433D01*
X22517Y8435D01*
X22513Y8440D01*
X22508Y8448D01*
X22503Y8456D01*
X22499Y8466D01*
X22496Y8477D01*
X22496Y8483D01*
X22495Y8490D01*
Y8490D01*
Y8491D01*
Y8494D01*
X22496Y8499D01*
X22497Y8504D01*
X22498Y8511D01*
X22501Y8519D01*
X22504Y8526D01*
X22508Y8534D01*
X22509Y8535D01*
X22511Y8538D01*
X22514Y8541D01*
X22519Y8546D01*
X22524Y8551D01*
X22532Y8557D01*
X22540Y8562D01*
X22549Y8567D01*
X22550D01*
X22550Y8567D01*
X22552Y8568D01*
X22554Y8569D01*
X22557Y8570D01*
X22560Y8571D01*
X22564Y8572D01*
X22569Y8573D01*
X22574Y8574D01*
X22580Y8575D01*
X22593Y8577D01*
X22608Y8579D01*
X22624Y8579D01*
X22630D01*
X22634Y8579D01*
D02*
G37*
G36*
X21500D02*
X21505D01*
X21511Y8578D01*
X21517Y8577D01*
X21524Y8576D01*
X21538Y8574D01*
X21553Y8570D01*
X21567Y8564D01*
X21574Y8561D01*
X21580Y8557D01*
X21580D01*
X21581Y8556D01*
X21585Y8553D01*
X21590Y8547D01*
X21596Y8540D01*
X21599Y8536D01*
X21602Y8531D01*
X21605Y8525D01*
X21608Y8519D01*
X21611Y8512D01*
X21613Y8505D01*
X21615Y8496D01*
X21616Y8488D01*
X21528Y8483D01*
Y8484D01*
X21527Y8486D01*
X21526Y8490D01*
X21524Y8495D01*
X21522Y8499D01*
X21520Y8504D01*
X21516Y8509D01*
X21513Y8513D01*
X21512Y8514D01*
X21510Y8515D01*
X21508Y8516D01*
X21505Y8518D01*
X21500Y8520D01*
X21495Y8521D01*
X21489Y8522D01*
X21482Y8523D01*
X21479D01*
X21476Y8522D01*
X21472Y8521D01*
X21464Y8520D01*
X21460Y8518D01*
X21457Y8515D01*
X21456Y8515D01*
X21455Y8514D01*
X21453Y8511D01*
X21450Y8505D01*
X21449Y8502D01*
X21449Y8499D01*
Y8498D01*
Y8498D01*
X21450Y8494D01*
X21452Y8490D01*
X21453Y8488D01*
X21455Y8485D01*
X21456D01*
X21457Y8484D01*
X21459Y8483D01*
X21462Y8481D01*
X21466Y8480D01*
X21472Y8478D01*
X21478Y8476D01*
X21487Y8474D01*
X21487D01*
X21489Y8474D01*
X21493Y8473D01*
X21497Y8472D01*
X21502Y8471D01*
X21508Y8469D01*
X21514Y8468D01*
X21521Y8466D01*
X21535Y8462D01*
X21550Y8457D01*
X21564Y8452D01*
X21570Y8450D01*
X21575Y8447D01*
X21576D01*
X21576Y8446D01*
X21580Y8445D01*
X21584Y8442D01*
X21590Y8438D01*
X21596Y8433D01*
X21603Y8428D01*
X21609Y8421D01*
X21614Y8414D01*
X21615Y8413D01*
X21616Y8410D01*
X21618Y8406D01*
X21620Y8400D01*
X21623Y8394D01*
X21625Y8387D01*
X21626Y8378D01*
X21626Y8369D01*
Y8368D01*
Y8368D01*
Y8366D01*
Y8364D01*
X21625Y8358D01*
X21624Y8351D01*
X21623Y8343D01*
X21619Y8333D01*
X21615Y8324D01*
X21610Y8314D01*
X21609Y8313D01*
X21607Y8311D01*
X21603Y8306D01*
X21598Y8301D01*
X21591Y8294D01*
X21584Y8288D01*
X21575Y8283D01*
X21564Y8277D01*
X21564D01*
X21563Y8277D01*
X21561Y8276D01*
X21559Y8276D01*
X21556Y8274D01*
X21553Y8273D01*
X21549Y8272D01*
X21544Y8271D01*
X21534Y8269D01*
X21521Y8267D01*
X21507Y8266D01*
X21491Y8265D01*
X21484D01*
X21478Y8266D01*
X21472Y8266D01*
X21465Y8267D01*
X21457Y8267D01*
X21448Y8269D01*
X21430Y8272D01*
X21413Y8277D01*
X21404Y8281D01*
X21397Y8285D01*
X21389Y8289D01*
X21383Y8294D01*
X21383Y8295D01*
X21382Y8296D01*
X21381Y8298D01*
X21379Y8300D01*
X21377Y8303D01*
X21374Y8306D01*
X21371Y8311D01*
X21368Y8315D01*
X21362Y8326D01*
X21357Y8339D01*
X21353Y8354D01*
X21351Y8362D01*
X21350Y8370D01*
X21439Y8377D01*
Y8375D01*
X21440Y8373D01*
X21440Y8369D01*
X21442Y8364D01*
X21445Y8353D01*
X21448Y8348D01*
X21451Y8343D01*
X21452Y8343D01*
X21454Y8340D01*
X21457Y8338D01*
X21462Y8334D01*
X21468Y8330D01*
X21475Y8328D01*
X21483Y8325D01*
X21493Y8325D01*
X21496D01*
X21499Y8325D01*
X21504Y8326D01*
X21509Y8327D01*
X21514Y8329D01*
X21519Y8331D01*
X21524Y8334D01*
X21524Y8334D01*
X21525Y8335D01*
X21527Y8338D01*
X21529Y8340D01*
X21531Y8343D01*
X21533Y8347D01*
X21534Y8352D01*
X21535Y8356D01*
Y8357D01*
Y8358D01*
X21534Y8360D01*
X21534Y8363D01*
X21532Y8367D01*
X21530Y8370D01*
X21528Y8374D01*
X21524Y8377D01*
X21524Y8378D01*
X21522Y8379D01*
X21519Y8380D01*
X21514Y8383D01*
X21508Y8385D01*
X21499Y8389D01*
X21494Y8390D01*
X21489Y8392D01*
X21483Y8393D01*
X21476Y8395D01*
X21475D01*
X21473Y8395D01*
X21470Y8397D01*
X21466Y8397D01*
X21461Y8399D01*
X21455Y8400D01*
X21449Y8402D01*
X21442Y8404D01*
X21427Y8410D01*
X21413Y8416D01*
X21399Y8423D01*
X21393Y8427D01*
X21388Y8432D01*
Y8432D01*
X21387Y8433D01*
X21384Y8435D01*
X21379Y8440D01*
X21375Y8448D01*
X21370Y8456D01*
X21366Y8466D01*
X21363Y8477D01*
X21362Y8483D01*
X21362Y8490D01*
Y8490D01*
Y8491D01*
Y8494D01*
X21362Y8499D01*
X21363Y8504D01*
X21365Y8511D01*
X21367Y8519D01*
X21371Y8526D01*
X21375Y8534D01*
X21376Y8535D01*
X21378Y8538D01*
X21381Y8541D01*
X21386Y8546D01*
X21391Y8551D01*
X21398Y8557D01*
X21407Y8562D01*
X21416Y8567D01*
X21417D01*
X21417Y8567D01*
X21419Y8568D01*
X21421Y8569D01*
X21424Y8570D01*
X21427Y8571D01*
X21431Y8572D01*
X21435Y8573D01*
X21440Y8574D01*
X21447Y8575D01*
X21459Y8577D01*
X21474Y8579D01*
X21491Y8579D01*
X21497D01*
X21500Y8579D01*
D02*
G37*
G36*
X12634D02*
X12639D01*
X12644Y8578D01*
X12650Y8577D01*
X12657Y8576D01*
X12671Y8574D01*
X12686Y8570D01*
X12700Y8564D01*
X12707Y8561D01*
X12713Y8557D01*
X12714D01*
X12714Y8556D01*
X12718Y8553D01*
X12723Y8547D01*
X12729Y8540D01*
X12733Y8536D01*
X12735Y8531D01*
X12739Y8525D01*
X12741Y8519D01*
X12744Y8512D01*
X12746Y8505D01*
X12748Y8496D01*
X12750Y8488D01*
X12661Y8483D01*
Y8484D01*
X12660Y8486D01*
X12659Y8490D01*
X12658Y8495D01*
X12655Y8499D01*
X12653Y8504D01*
X12650Y8509D01*
X12646Y8513D01*
X12645Y8514D01*
X12644Y8515D01*
X12641Y8516D01*
X12638Y8518D01*
X12634Y8520D01*
X12628Y8521D01*
X12622Y8522D01*
X12615Y8523D01*
X12612D01*
X12609Y8522D01*
X12605Y8521D01*
X12597Y8520D01*
X12593Y8518D01*
X12590Y8515D01*
X12589Y8515D01*
X12589Y8514D01*
X12586Y8511D01*
X12583Y8505D01*
X12583Y8502D01*
X12582Y8499D01*
Y8498D01*
Y8498D01*
X12583Y8494D01*
X12585Y8490D01*
X12587Y8488D01*
X12589Y8485D01*
X12589D01*
X12590Y8484D01*
X12592Y8483D01*
X12595Y8481D01*
X12599Y8480D01*
X12605Y8478D01*
X12612Y8476D01*
X12620Y8474D01*
X12620D01*
X12623Y8474D01*
X12626Y8473D01*
X12630Y8472D01*
X12635Y8471D01*
X12641Y8469D01*
X12648Y8468D01*
X12654Y8466D01*
X12669Y8462D01*
X12684Y8457D01*
X12697Y8452D01*
X12703Y8450D01*
X12709Y8447D01*
X12709D01*
X12710Y8446D01*
X12713Y8445D01*
X12718Y8442D01*
X12724Y8438D01*
X12730Y8433D01*
X12736Y8428D01*
X12742Y8421D01*
X12747Y8414D01*
X12748Y8413D01*
X12749Y8410D01*
X12751Y8406D01*
X12754Y8400D01*
X12756Y8394D01*
X12758Y8387D01*
X12759Y8378D01*
X12760Y8369D01*
Y8368D01*
Y8368D01*
Y8366D01*
Y8364D01*
X12759Y8358D01*
X12757Y8351D01*
X12756Y8343D01*
X12752Y8333D01*
X12749Y8324D01*
X12743Y8314D01*
X12742Y8313D01*
X12740Y8311D01*
X12736Y8306D01*
X12731Y8301D01*
X12725Y8294D01*
X12717Y8288D01*
X12708Y8283D01*
X12698Y8277D01*
X12697D01*
X12696Y8277D01*
X12695Y8276D01*
X12693Y8276D01*
X12690Y8274D01*
X12686Y8273D01*
X12682Y8272D01*
X12678Y8271D01*
X12667Y8269D01*
X12654Y8267D01*
X12640Y8266D01*
X12624Y8265D01*
X12617D01*
X12612Y8266D01*
X12605Y8266D01*
X12598Y8267D01*
X12590Y8267D01*
X12582Y8269D01*
X12564Y8272D01*
X12546Y8277D01*
X12538Y8281D01*
X12530Y8285D01*
X12523Y8289D01*
X12517Y8294D01*
X12516Y8295D01*
X12515Y8296D01*
X12514Y8298D01*
X12512Y8300D01*
X12510Y8303D01*
X12507Y8306D01*
X12504Y8311D01*
X12502Y8315D01*
X12496Y8326D01*
X12490Y8339D01*
X12486Y8354D01*
X12484Y8362D01*
X12483Y8370D01*
X12573Y8377D01*
Y8375D01*
X12573Y8373D01*
X12574Y8369D01*
X12575Y8364D01*
X12579Y8353D01*
X12582Y8348D01*
X12584Y8343D01*
X12585Y8343D01*
X12587Y8340D01*
X12590Y8338D01*
X12595Y8334D01*
X12601Y8330D01*
X12608Y8328D01*
X12617Y8325D01*
X12626Y8325D01*
X12629D01*
X12633Y8325D01*
X12638Y8326D01*
X12643Y8327D01*
X12648Y8329D01*
X12653Y8331D01*
X12657Y8334D01*
X12658Y8334D01*
X12659Y8335D01*
X12660Y8338D01*
X12663Y8340D01*
X12665Y8343D01*
X12666Y8347D01*
X12668Y8352D01*
X12668Y8356D01*
Y8357D01*
Y8358D01*
X12668Y8360D01*
X12667Y8363D01*
X12665Y8367D01*
X12664Y8370D01*
X12661Y8374D01*
X12658Y8377D01*
X12657Y8378D01*
X12655Y8379D01*
X12652Y8380D01*
X12648Y8383D01*
X12641Y8385D01*
X12633Y8389D01*
X12628Y8390D01*
X12622Y8392D01*
X12616Y8393D01*
X12609Y8395D01*
X12609D01*
X12607Y8395D01*
X12603Y8397D01*
X12599Y8397D01*
X12594Y8399D01*
X12588Y8400D01*
X12582Y8402D01*
X12575Y8404D01*
X12560Y8410D01*
X12546Y8416D01*
X12533Y8423D01*
X12527Y8427D01*
X12521Y8432D01*
Y8432D01*
X12520Y8433D01*
X12517Y8435D01*
X12513Y8440D01*
X12508Y8448D01*
X12503Y8456D01*
X12499Y8466D01*
X12496Y8477D01*
X12496Y8483D01*
X12495Y8490D01*
Y8490D01*
Y8491D01*
Y8494D01*
X12496Y8499D01*
X12497Y8504D01*
X12498Y8511D01*
X12501Y8519D01*
X12504Y8526D01*
X12508Y8534D01*
X12509Y8535D01*
X12511Y8538D01*
X12514Y8541D01*
X12519Y8546D01*
X12524Y8551D01*
X12532Y8557D01*
X12540Y8562D01*
X12549Y8567D01*
X12550D01*
X12550Y8567D01*
X12552Y8568D01*
X12554Y8569D01*
X12557Y8570D01*
X12560Y8571D01*
X12564Y8572D01*
X12569Y8573D01*
X12574Y8574D01*
X12580Y8575D01*
X12593Y8577D01*
X12608Y8579D01*
X12624Y8579D01*
X12630D01*
X12634Y8579D01*
D02*
G37*
G36*
X11500D02*
X11505D01*
X11511Y8578D01*
X11517Y8577D01*
X11524Y8576D01*
X11538Y8574D01*
X11553Y8570D01*
X11567Y8564D01*
X11574Y8561D01*
X11580Y8557D01*
X11580D01*
X11581Y8556D01*
X11585Y8553D01*
X11590Y8547D01*
X11596Y8540D01*
X11599Y8536D01*
X11602Y8531D01*
X11605Y8525D01*
X11608Y8519D01*
X11611Y8512D01*
X11613Y8505D01*
X11615Y8496D01*
X11616Y8488D01*
X11528Y8483D01*
Y8484D01*
X11527Y8486D01*
X11526Y8490D01*
X11524Y8495D01*
X11522Y8499D01*
X11520Y8504D01*
X11516Y8509D01*
X11513Y8513D01*
X11512Y8514D01*
X11510Y8515D01*
X11508Y8516D01*
X11505Y8518D01*
X11500Y8520D01*
X11495Y8521D01*
X11489Y8522D01*
X11482Y8523D01*
X11479D01*
X11476Y8522D01*
X11472Y8521D01*
X11464Y8520D01*
X11460Y8518D01*
X11457Y8515D01*
X11456Y8515D01*
X11455Y8514D01*
X11453Y8511D01*
X11450Y8505D01*
X11449Y8502D01*
X11449Y8499D01*
Y8498D01*
Y8498D01*
X11450Y8494D01*
X11452Y8490D01*
X11453Y8488D01*
X11455Y8485D01*
X11456D01*
X11457Y8484D01*
X11459Y8483D01*
X11462Y8481D01*
X11466Y8480D01*
X11472Y8478D01*
X11478Y8476D01*
X11487Y8474D01*
X11487D01*
X11489Y8474D01*
X11493Y8473D01*
X11497Y8472D01*
X11502Y8471D01*
X11508Y8469D01*
X11514Y8468D01*
X11521Y8466D01*
X11535Y8462D01*
X11550Y8457D01*
X11564Y8452D01*
X11570Y8450D01*
X11575Y8447D01*
X11576D01*
X11576Y8446D01*
X11580Y8445D01*
X11584Y8442D01*
X11590Y8438D01*
X11596Y8433D01*
X11603Y8428D01*
X11609Y8421D01*
X11614Y8414D01*
X11615Y8413D01*
X11616Y8410D01*
X11618Y8406D01*
X11620Y8400D01*
X11623Y8394D01*
X11625Y8387D01*
X11626Y8378D01*
X11626Y8369D01*
Y8368D01*
Y8368D01*
Y8366D01*
Y8364D01*
X11625Y8358D01*
X11624Y8351D01*
X11623Y8343D01*
X11619Y8333D01*
X11615Y8324D01*
X11610Y8314D01*
X11609Y8313D01*
X11607Y8311D01*
X11603Y8306D01*
X11598Y8301D01*
X11591Y8294D01*
X11584Y8288D01*
X11575Y8283D01*
X11564Y8277D01*
X11564D01*
X11563Y8277D01*
X11561Y8276D01*
X11559Y8276D01*
X11556Y8274D01*
X11553Y8273D01*
X11549Y8272D01*
X11544Y8271D01*
X11534Y8269D01*
X11521Y8267D01*
X11507Y8266D01*
X11491Y8265D01*
X11484D01*
X11478Y8266D01*
X11472Y8266D01*
X11465Y8267D01*
X11457Y8267D01*
X11448Y8269D01*
X11430Y8272D01*
X11413Y8277D01*
X11404Y8281D01*
X11397Y8285D01*
X11389Y8289D01*
X11383Y8294D01*
X11383Y8295D01*
X11382Y8296D01*
X11381Y8298D01*
X11379Y8300D01*
X11377Y8303D01*
X11374Y8306D01*
X11371Y8311D01*
X11368Y8315D01*
X11362Y8326D01*
X11357Y8339D01*
X11353Y8354D01*
X11351Y8362D01*
X11350Y8370D01*
X11439Y8377D01*
Y8375D01*
X11440Y8373D01*
X11440Y8369D01*
X11442Y8364D01*
X11445Y8353D01*
X11448Y8348D01*
X11451Y8343D01*
X11452Y8343D01*
X11454Y8340D01*
X11457Y8338D01*
X11462Y8334D01*
X11468Y8330D01*
X11475Y8328D01*
X11483Y8325D01*
X11493Y8325D01*
X11496D01*
X11499Y8325D01*
X11504Y8326D01*
X11509Y8327D01*
X11514Y8329D01*
X11519Y8331D01*
X11524Y8334D01*
X11524Y8334D01*
X11525Y8335D01*
X11527Y8338D01*
X11529Y8340D01*
X11531Y8343D01*
X11533Y8347D01*
X11534Y8352D01*
X11535Y8356D01*
Y8357D01*
Y8358D01*
X11534Y8360D01*
X11534Y8363D01*
X11532Y8367D01*
X11530Y8370D01*
X11528Y8374D01*
X11524Y8377D01*
X11524Y8378D01*
X11522Y8379D01*
X11519Y8380D01*
X11514Y8383D01*
X11508Y8385D01*
X11499Y8389D01*
X11494Y8390D01*
X11489Y8392D01*
X11483Y8393D01*
X11476Y8395D01*
X11475D01*
X11473Y8395D01*
X11470Y8397D01*
X11466Y8397D01*
X11461Y8399D01*
X11455Y8400D01*
X11449Y8402D01*
X11442Y8404D01*
X11427Y8410D01*
X11413Y8416D01*
X11399Y8423D01*
X11393Y8427D01*
X11388Y8432D01*
Y8432D01*
X11387Y8433D01*
X11384Y8435D01*
X11379Y8440D01*
X11375Y8448D01*
X11370Y8456D01*
X11366Y8466D01*
X11363Y8477D01*
X11362Y8483D01*
X11362Y8490D01*
Y8490D01*
Y8491D01*
Y8494D01*
X11362Y8499D01*
X11363Y8504D01*
X11365Y8511D01*
X11367Y8519D01*
X11371Y8526D01*
X11375Y8534D01*
X11376Y8535D01*
X11378Y8538D01*
X11381Y8541D01*
X11386Y8546D01*
X11391Y8551D01*
X11398Y8557D01*
X11407Y8562D01*
X11416Y8567D01*
X11417D01*
X11417Y8567D01*
X11419Y8568D01*
X11421Y8569D01*
X11424Y8570D01*
X11427Y8571D01*
X11431Y8572D01*
X11435Y8573D01*
X11440Y8574D01*
X11447Y8575D01*
X11459Y8577D01*
X11474Y8579D01*
X11491Y8579D01*
X11497D01*
X11500Y8579D01*
D02*
G37*
G36*
X2634D02*
X2639D01*
X2644Y8578D01*
X2650Y8577D01*
X2657Y8576D01*
X2671Y8574D01*
X2686Y8570D01*
X2700Y8564D01*
X2707Y8561D01*
X2713Y8557D01*
X2714D01*
X2714Y8556D01*
X2718Y8553D01*
X2723Y8547D01*
X2729Y8540D01*
X2733Y8536D01*
X2735Y8531D01*
X2739Y8525D01*
X2741Y8519D01*
X2744Y8512D01*
X2746Y8505D01*
X2748Y8496D01*
X2750Y8488D01*
X2661Y8483D01*
Y8484D01*
X2660Y8486D01*
X2659Y8490D01*
X2658Y8495D01*
X2655Y8499D01*
X2653Y8504D01*
X2650Y8509D01*
X2646Y8513D01*
X2645Y8514D01*
X2644Y8515D01*
X2641Y8516D01*
X2638Y8518D01*
X2634Y8520D01*
X2628Y8521D01*
X2622Y8522D01*
X2615Y8523D01*
X2612D01*
X2609Y8522D01*
X2605Y8521D01*
X2597Y8520D01*
X2593Y8518D01*
X2590Y8515D01*
X2589Y8515D01*
X2589Y8514D01*
X2586Y8511D01*
X2583Y8505D01*
X2583Y8502D01*
X2582Y8499D01*
Y8498D01*
Y8498D01*
X2583Y8494D01*
X2585Y8490D01*
X2587Y8488D01*
X2589Y8485D01*
X2589D01*
X2590Y8484D01*
X2592Y8483D01*
X2595Y8481D01*
X2599Y8480D01*
X2605Y8478D01*
X2612Y8476D01*
X2620Y8474D01*
X2620D01*
X2623Y8474D01*
X2626Y8473D01*
X2630Y8472D01*
X2635Y8471D01*
X2641Y8469D01*
X2648Y8468D01*
X2654Y8466D01*
X2669Y8462D01*
X2684Y8457D01*
X2697Y8452D01*
X2703Y8450D01*
X2709Y8447D01*
X2709D01*
X2710Y8446D01*
X2713Y8445D01*
X2718Y8442D01*
X2724Y8438D01*
X2730Y8433D01*
X2736Y8428D01*
X2743Y8421D01*
X2747Y8414D01*
X2748Y8413D01*
X2749Y8410D01*
X2751Y8406D01*
X2754Y8400D01*
X2756Y8394D01*
X2758Y8387D01*
X2759Y8378D01*
X2760Y8369D01*
Y8368D01*
Y8368D01*
Y8366D01*
Y8364D01*
X2759Y8358D01*
X2757Y8351D01*
X2756Y8343D01*
X2752Y8333D01*
X2749Y8324D01*
X2743Y8314D01*
X2743Y8313D01*
X2740Y8311D01*
X2736Y8306D01*
X2731Y8301D01*
X2725Y8294D01*
X2717Y8288D01*
X2708Y8283D01*
X2698Y8277D01*
X2697D01*
X2696Y8277D01*
X2695Y8276D01*
X2693Y8276D01*
X2690Y8274D01*
X2686Y8273D01*
X2682Y8272D01*
X2678Y8271D01*
X2667Y8269D01*
X2654Y8267D01*
X2640Y8266D01*
X2624Y8265D01*
X2617D01*
X2612Y8266D01*
X2605Y8266D01*
X2598Y8267D01*
X2590Y8267D01*
X2582Y8269D01*
X2564Y8272D01*
X2546Y8277D01*
X2538Y8281D01*
X2530Y8285D01*
X2523Y8289D01*
X2517Y8294D01*
X2516Y8295D01*
X2515Y8296D01*
X2514Y8298D01*
X2512Y8300D01*
X2510Y8303D01*
X2507Y8306D01*
X2504Y8311D01*
X2502Y8315D01*
X2496Y8326D01*
X2490Y8339D01*
X2486Y8354D01*
X2484Y8362D01*
X2483Y8370D01*
X2573Y8377D01*
Y8375D01*
X2573Y8373D01*
X2574Y8369D01*
X2575Y8364D01*
X2579Y8353D01*
X2582Y8348D01*
X2584Y8343D01*
X2585Y8343D01*
X2587Y8340D01*
X2590Y8338D01*
X2595Y8334D01*
X2601Y8330D01*
X2608Y8328D01*
X2617Y8325D01*
X2626Y8325D01*
X2629D01*
X2633Y8325D01*
X2638Y8326D01*
X2643Y8327D01*
X2648Y8329D01*
X2653Y8331D01*
X2657Y8334D01*
X2658Y8334D01*
X2659Y8335D01*
X2660Y8338D01*
X2663Y8340D01*
X2665Y8343D01*
X2666Y8347D01*
X2668Y8352D01*
X2668Y8356D01*
Y8357D01*
Y8358D01*
X2668Y8360D01*
X2667Y8363D01*
X2665Y8367D01*
X2664Y8370D01*
X2661Y8374D01*
X2658Y8377D01*
X2657Y8378D01*
X2655Y8379D01*
X2652Y8380D01*
X2648Y8383D01*
X2641Y8385D01*
X2633Y8389D01*
X2628Y8390D01*
X2622Y8392D01*
X2616Y8393D01*
X2609Y8395D01*
X2609D01*
X2607Y8395D01*
X2603Y8397D01*
X2599Y8397D01*
X2594Y8399D01*
X2588Y8400D01*
X2582Y8402D01*
X2575Y8404D01*
X2560Y8410D01*
X2546Y8416D01*
X2533Y8423D01*
X2527Y8427D01*
X2521Y8432D01*
Y8432D01*
X2520Y8433D01*
X2517Y8435D01*
X2513Y8440D01*
X2508Y8448D01*
X2503Y8456D01*
X2499Y8466D01*
X2496Y8477D01*
X2496Y8483D01*
X2495Y8490D01*
Y8490D01*
Y8491D01*
Y8494D01*
X2496Y8499D01*
X2497Y8504D01*
X2498Y8511D01*
X2501Y8519D01*
X2504Y8526D01*
X2508Y8534D01*
X2509Y8535D01*
X2511Y8538D01*
X2514Y8541D01*
X2519Y8546D01*
X2524Y8551D01*
X2532Y8557D01*
X2540Y8562D01*
X2549Y8567D01*
X2550D01*
X2550Y8567D01*
X2552Y8568D01*
X2554Y8569D01*
X2557Y8570D01*
X2560Y8571D01*
X2564Y8572D01*
X2569Y8573D01*
X2574Y8574D01*
X2580Y8575D01*
X2593Y8577D01*
X2608Y8579D01*
X2624Y8579D01*
X2630D01*
X2634Y8579D01*
D02*
G37*
G36*
X1500D02*
X1505D01*
X1511Y8578D01*
X1517Y8577D01*
X1524Y8576D01*
X1538Y8574D01*
X1553Y8570D01*
X1567Y8564D01*
X1574Y8561D01*
X1580Y8557D01*
X1580D01*
X1581Y8556D01*
X1585Y8553D01*
X1590Y8547D01*
X1596Y8540D01*
X1599Y8536D01*
X1602Y8531D01*
X1605Y8525D01*
X1608Y8519D01*
X1611Y8512D01*
X1613Y8505D01*
X1615Y8496D01*
X1616Y8488D01*
X1528Y8483D01*
Y8484D01*
X1527Y8486D01*
X1526Y8490D01*
X1524Y8495D01*
X1522Y8499D01*
X1520Y8504D01*
X1516Y8509D01*
X1513Y8513D01*
X1512Y8514D01*
X1510Y8515D01*
X1508Y8516D01*
X1505Y8518D01*
X1500Y8520D01*
X1495Y8521D01*
X1489Y8522D01*
X1482Y8523D01*
X1479D01*
X1476Y8522D01*
X1472Y8521D01*
X1464Y8520D01*
X1460Y8518D01*
X1457Y8515D01*
X1456Y8515D01*
X1455Y8514D01*
X1453Y8511D01*
X1450Y8505D01*
X1449Y8502D01*
X1449Y8499D01*
Y8498D01*
Y8498D01*
X1450Y8494D01*
X1452Y8490D01*
X1453Y8488D01*
X1455Y8485D01*
X1456D01*
X1457Y8484D01*
X1459Y8483D01*
X1462Y8481D01*
X1466Y8480D01*
X1472Y8478D01*
X1478Y8476D01*
X1487Y8474D01*
X1487D01*
X1489Y8474D01*
X1493Y8473D01*
X1497Y8472D01*
X1502Y8471D01*
X1508Y8469D01*
X1514Y8468D01*
X1521Y8466D01*
X1535Y8462D01*
X1550Y8457D01*
X1564Y8452D01*
X1570Y8450D01*
X1575Y8447D01*
X1576D01*
X1576Y8446D01*
X1580Y8445D01*
X1584Y8442D01*
X1590Y8438D01*
X1596Y8433D01*
X1603Y8428D01*
X1609Y8421D01*
X1614Y8414D01*
X1615Y8413D01*
X1616Y8410D01*
X1618Y8406D01*
X1620Y8400D01*
X1622Y8394D01*
X1625Y8387D01*
X1626Y8378D01*
X1626Y8369D01*
Y8368D01*
Y8368D01*
Y8366D01*
Y8364D01*
X1625Y8358D01*
X1624Y8351D01*
X1622Y8343D01*
X1619Y8333D01*
X1615Y8324D01*
X1610Y8314D01*
X1609Y8313D01*
X1607Y8311D01*
X1603Y8306D01*
X1598Y8301D01*
X1591Y8294D01*
X1584Y8288D01*
X1575Y8283D01*
X1564Y8277D01*
X1564D01*
X1563Y8277D01*
X1561Y8276D01*
X1559Y8276D01*
X1556Y8274D01*
X1553Y8273D01*
X1549Y8272D01*
X1544Y8271D01*
X1534Y8269D01*
X1521Y8267D01*
X1507Y8266D01*
X1491Y8265D01*
X1484D01*
X1478Y8266D01*
X1472Y8266D01*
X1465Y8267D01*
X1457Y8267D01*
X1448Y8269D01*
X1430Y8272D01*
X1413Y8277D01*
X1404Y8281D01*
X1397Y8285D01*
X1389Y8289D01*
X1383Y8294D01*
X1383Y8295D01*
X1382Y8296D01*
X1381Y8298D01*
X1379Y8300D01*
X1377Y8303D01*
X1374Y8306D01*
X1371Y8311D01*
X1368Y8315D01*
X1362Y8326D01*
X1357Y8339D01*
X1353Y8354D01*
X1351Y8362D01*
X1350Y8370D01*
X1439Y8377D01*
Y8375D01*
X1440Y8373D01*
X1440Y8369D01*
X1442Y8364D01*
X1445Y8353D01*
X1448Y8348D01*
X1451Y8343D01*
X1452Y8343D01*
X1454Y8340D01*
X1457Y8338D01*
X1462Y8334D01*
X1468Y8330D01*
X1475Y8328D01*
X1483Y8325D01*
X1493Y8325D01*
X1496D01*
X1499Y8325D01*
X1504Y8326D01*
X1509Y8327D01*
X1514Y8329D01*
X1519Y8331D01*
X1524Y8334D01*
X1524Y8334D01*
X1525Y8335D01*
X1527Y8338D01*
X1529Y8340D01*
X1531Y8343D01*
X1533Y8347D01*
X1534Y8352D01*
X1535Y8356D01*
Y8357D01*
Y8358D01*
X1534Y8360D01*
X1534Y8363D01*
X1532Y8367D01*
X1530Y8370D01*
X1528Y8374D01*
X1524Y8377D01*
X1524Y8378D01*
X1522Y8379D01*
X1519Y8380D01*
X1514Y8383D01*
X1508Y8385D01*
X1499Y8389D01*
X1494Y8390D01*
X1489Y8392D01*
X1483Y8393D01*
X1476Y8395D01*
X1475D01*
X1473Y8395D01*
X1470Y8397D01*
X1466Y8397D01*
X1461Y8399D01*
X1455Y8400D01*
X1449Y8402D01*
X1442Y8404D01*
X1427Y8410D01*
X1413Y8416D01*
X1399Y8423D01*
X1393Y8427D01*
X1388Y8432D01*
Y8432D01*
X1387Y8433D01*
X1384Y8435D01*
X1379Y8440D01*
X1375Y8448D01*
X1370Y8456D01*
X1366Y8466D01*
X1363Y8477D01*
X1362Y8483D01*
X1362Y8490D01*
Y8490D01*
Y8491D01*
Y8494D01*
X1362Y8499D01*
X1363Y8504D01*
X1365Y8511D01*
X1367Y8519D01*
X1371Y8526D01*
X1375Y8534D01*
X1376Y8535D01*
X1378Y8538D01*
X1381Y8541D01*
X1386Y8546D01*
X1391Y8551D01*
X1398Y8557D01*
X1407Y8562D01*
X1416Y8567D01*
X1417D01*
X1417Y8567D01*
X1419Y8568D01*
X1421Y8569D01*
X1424Y8570D01*
X1427Y8571D01*
X1431Y8572D01*
X1435Y8573D01*
X1440Y8574D01*
X1447Y8575D01*
X1459Y8577D01*
X1474Y8579D01*
X1491Y8579D01*
X1497D01*
X1500Y8579D01*
D02*
G37*
G36*
X22438Y8393D02*
Y8392D01*
Y8392D01*
Y8388D01*
X22437Y8383D01*
X22437Y8377D01*
X22436Y8368D01*
X22434Y8360D01*
X22432Y8351D01*
X22429Y8342D01*
X22428Y8340D01*
X22427Y8338D01*
X22426Y8333D01*
X22422Y8328D01*
X22419Y8321D01*
X22414Y8314D01*
X22409Y8307D01*
X22402Y8300D01*
X22402Y8299D01*
X22399Y8297D01*
X22396Y8294D01*
X22391Y8290D01*
X22386Y8286D01*
X22379Y8282D01*
X22372Y8278D01*
X22365Y8275D01*
X22365D01*
X22364Y8274D01*
X22362Y8274D01*
X22360Y8273D01*
X22355Y8272D01*
X22346Y8270D01*
X22337Y8268D01*
X22326Y8267D01*
X22313Y8266D01*
X22299Y8265D01*
X22291D01*
X22285Y8266D01*
X22277D01*
X22269Y8267D01*
X22260Y8267D01*
X22250Y8268D01*
X22249D01*
X22246Y8269D01*
X22241Y8269D01*
X22235Y8271D01*
X22228Y8272D01*
X22221Y8274D01*
X22214Y8277D01*
X22206Y8280D01*
X22206Y8281D01*
X22204Y8282D01*
X22200Y8284D01*
X22196Y8287D01*
X22191Y8291D01*
X22185Y8295D01*
X22180Y8300D01*
X22174Y8306D01*
X22174Y8307D01*
X22172Y8309D01*
X22169Y8313D01*
X22166Y8317D01*
X22163Y8322D01*
X22160Y8328D01*
X22156Y8335D01*
X22154Y8342D01*
Y8342D01*
X22154Y8343D01*
Y8344D01*
X22153Y8347D01*
X22151Y8352D01*
X22150Y8359D01*
X22149Y8367D01*
X22147Y8375D01*
X22146Y8384D01*
X22146Y8393D01*
Y8574D01*
X22240D01*
Y8389D01*
Y8388D01*
Y8385D01*
X22240Y8380D01*
X22241Y8374D01*
X22243Y8368D01*
X22245Y8362D01*
X22249Y8355D01*
X22253Y8350D01*
X22254Y8349D01*
X22256Y8348D01*
X22259Y8345D01*
X22263Y8343D01*
X22269Y8340D01*
X22275Y8338D01*
X22283Y8337D01*
X22292Y8336D01*
X22296D01*
X22300Y8337D01*
X22306Y8338D01*
X22312Y8339D01*
X22318Y8342D01*
X22325Y8345D01*
X22330Y8349D01*
X22331Y8350D01*
X22332Y8352D01*
X22335Y8355D01*
X22337Y8359D01*
X22340Y8365D01*
X22342Y8372D01*
X22343Y8380D01*
X22344Y8389D01*
Y8574D01*
X22438D01*
Y8393D01*
D02*
G37*
G36*
X12438D02*
Y8392D01*
Y8392D01*
Y8388D01*
X12437Y8383D01*
X12437Y8377D01*
X12436Y8368D01*
X12434Y8360D01*
X12432Y8351D01*
X12429Y8342D01*
X12428Y8340D01*
X12427Y8338D01*
X12426Y8333D01*
X12422Y8328D01*
X12419Y8321D01*
X12414Y8314D01*
X12409Y8307D01*
X12402Y8300D01*
X12402Y8299D01*
X12399Y8297D01*
X12396Y8294D01*
X12391Y8290D01*
X12386Y8286D01*
X12379Y8282D01*
X12372Y8278D01*
X12365Y8275D01*
X12365D01*
X12364Y8274D01*
X12362Y8274D01*
X12360Y8273D01*
X12355Y8272D01*
X12346Y8270D01*
X12337Y8268D01*
X12326Y8267D01*
X12313Y8266D01*
X12299Y8265D01*
X12291D01*
X12285Y8266D01*
X12277D01*
X12269Y8267D01*
X12260Y8267D01*
X12250Y8268D01*
X12249D01*
X12246Y8269D01*
X12241Y8269D01*
X12235Y8271D01*
X12228Y8272D01*
X12221Y8274D01*
X12214Y8277D01*
X12206Y8280D01*
X12206Y8281D01*
X12204Y8282D01*
X12200Y8284D01*
X12196Y8287D01*
X12191Y8291D01*
X12185Y8295D01*
X12180Y8300D01*
X12174Y8306D01*
X12174Y8307D01*
X12172Y8309D01*
X12169Y8313D01*
X12166Y8317D01*
X12163Y8322D01*
X12160Y8328D01*
X12156Y8335D01*
X12154Y8342D01*
Y8342D01*
X12154Y8343D01*
Y8344D01*
X12153Y8347D01*
X12151Y8352D01*
X12150Y8359D01*
X12149Y8367D01*
X12147Y8375D01*
X12146Y8384D01*
X12146Y8393D01*
Y8574D01*
X12240D01*
Y8389D01*
Y8388D01*
Y8385D01*
X12240Y8380D01*
X12241Y8374D01*
X12243Y8368D01*
X12245Y8362D01*
X12249Y8355D01*
X12253Y8350D01*
X12254Y8349D01*
X12256Y8348D01*
X12259Y8345D01*
X12263Y8343D01*
X12269Y8340D01*
X12275Y8338D01*
X12283Y8337D01*
X12292Y8336D01*
X12296D01*
X12300Y8337D01*
X12306Y8338D01*
X12312Y8339D01*
X12318Y8342D01*
X12325Y8345D01*
X12330Y8349D01*
X12331Y8350D01*
X12332Y8352D01*
X12335Y8355D01*
X12337Y8359D01*
X12340Y8365D01*
X12342Y8372D01*
X12343Y8380D01*
X12344Y8389D01*
Y8574D01*
X12438D01*
Y8393D01*
D02*
G37*
G36*
X2438D02*
Y8392D01*
Y8392D01*
Y8388D01*
X2437Y8383D01*
X2437Y8377D01*
X2436Y8368D01*
X2434Y8360D01*
X2432Y8351D01*
X2429Y8342D01*
X2428Y8340D01*
X2427Y8338D01*
X2426Y8333D01*
X2422Y8328D01*
X2419Y8321D01*
X2414Y8314D01*
X2409Y8307D01*
X2402Y8300D01*
X2402Y8299D01*
X2399Y8297D01*
X2396Y8294D01*
X2391Y8290D01*
X2386Y8286D01*
X2379Y8282D01*
X2372Y8278D01*
X2365Y8275D01*
X2365D01*
X2364Y8274D01*
X2362Y8274D01*
X2360Y8273D01*
X2355Y8272D01*
X2346Y8270D01*
X2337Y8268D01*
X2326Y8267D01*
X2313Y8266D01*
X2299Y8265D01*
X2291D01*
X2285Y8266D01*
X2277D01*
X2269Y8267D01*
X2260Y8267D01*
X2250Y8268D01*
X2249D01*
X2246Y8269D01*
X2241Y8269D01*
X2235Y8271D01*
X2228Y8272D01*
X2221Y8274D01*
X2214Y8277D01*
X2206Y8280D01*
X2206Y8281D01*
X2204Y8282D01*
X2200Y8284D01*
X2196Y8287D01*
X2191Y8291D01*
X2185Y8295D01*
X2180Y8300D01*
X2174Y8306D01*
X2174Y8307D01*
X2172Y8309D01*
X2169Y8313D01*
X2166Y8317D01*
X2163Y8322D01*
X2160Y8328D01*
X2156Y8335D01*
X2154Y8342D01*
Y8342D01*
X2154Y8343D01*
Y8344D01*
X2153Y8347D01*
X2151Y8352D01*
X2150Y8359D01*
X2149Y8367D01*
X2147Y8375D01*
X2146Y8384D01*
X2146Y8393D01*
Y8574D01*
X2240D01*
Y8389D01*
Y8388D01*
Y8385D01*
X2240Y8380D01*
X2241Y8374D01*
X2243Y8368D01*
X2245Y8362D01*
X2249Y8355D01*
X2253Y8350D01*
X2254Y8349D01*
X2256Y8348D01*
X2259Y8345D01*
X2263Y8343D01*
X2269Y8340D01*
X2275Y8338D01*
X2283Y8337D01*
X2292Y8336D01*
X2296D01*
X2300Y8337D01*
X2306Y8338D01*
X2312Y8339D01*
X2318Y8342D01*
X2325Y8345D01*
X2330Y8349D01*
X2331Y8350D01*
X2332Y8352D01*
X2335Y8355D01*
X2337Y8359D01*
X2340Y8365D01*
X2342Y8372D01*
X2343Y8380D01*
X2344Y8389D01*
Y8574D01*
X2438D01*
Y8393D01*
D02*
G37*
G36*
X21998Y8574D02*
X22002D01*
X22006Y8573D01*
X22016Y8571D01*
X22027Y8569D01*
X22038Y8565D01*
X22049Y8559D01*
X22059Y8552D01*
X22059D01*
X22060Y8551D01*
X22063Y8548D01*
X22067Y8544D01*
X22071Y8537D01*
X22075Y8529D01*
X22079Y8520D01*
X22081Y8510D01*
X22083Y8504D01*
Y8498D01*
Y8498D01*
Y8497D01*
Y8494D01*
X22081Y8489D01*
X22080Y8483D01*
X22078Y8475D01*
X22075Y8468D01*
X22071Y8460D01*
X22065Y8452D01*
X22065Y8451D01*
X22063Y8450D01*
X22061Y8448D01*
X22057Y8445D01*
X22053Y8441D01*
X22047Y8438D01*
X22040Y8435D01*
X22033Y8432D01*
X22033D01*
X22034Y8431D01*
X22036D01*
X22038Y8430D01*
X22044Y8428D01*
X22051Y8425D01*
X22059Y8422D01*
X22067Y8417D01*
X22074Y8411D01*
X22081Y8404D01*
X22081Y8403D01*
X22083Y8401D01*
X22086Y8397D01*
X22089Y8391D01*
X22091Y8384D01*
X22094Y8376D01*
X22096Y8367D01*
X22096Y8356D01*
Y8355D01*
Y8352D01*
X22096Y8348D01*
X22095Y8342D01*
X22094Y8335D01*
X22092Y8328D01*
X22089Y8321D01*
X22085Y8314D01*
X22085Y8313D01*
X22083Y8311D01*
X22081Y8307D01*
X22078Y8303D01*
X22073Y8298D01*
X22068Y8293D01*
X22062Y8288D01*
X22055Y8284D01*
X22054D01*
X22053Y8283D01*
X22050Y8282D01*
X22046Y8280D01*
X22041Y8278D01*
X22035Y8277D01*
X22028Y8276D01*
X22019Y8274D01*
X22018D01*
X22017Y8273D01*
X22014D01*
X22009Y8273D01*
X22002Y8272D01*
X21995Y8271D01*
X21988Y8271D01*
X21982Y8270D01*
X21815D01*
Y8574D01*
X21995D01*
X21998Y8574D01*
D02*
G37*
G36*
X21758Y8270D02*
X21668D01*
Y8355D01*
X21758D01*
Y8270D01*
D02*
G37*
G36*
X11998Y8574D02*
X12002D01*
X12006Y8573D01*
X12016Y8571D01*
X12027Y8569D01*
X12038Y8565D01*
X12049Y8559D01*
X12059Y8552D01*
X12059D01*
X12060Y8551D01*
X12063Y8548D01*
X12067Y8544D01*
X12071Y8537D01*
X12075Y8529D01*
X12079Y8520D01*
X12081Y8510D01*
X12083Y8504D01*
Y8498D01*
Y8498D01*
Y8497D01*
Y8494D01*
X12081Y8489D01*
X12080Y8483D01*
X12078Y8475D01*
X12075Y8468D01*
X12071Y8460D01*
X12065Y8452D01*
X12065Y8451D01*
X12063Y8450D01*
X12061Y8448D01*
X12057Y8445D01*
X12053Y8441D01*
X12047Y8438D01*
X12040Y8435D01*
X12033Y8432D01*
X12033D01*
X12034Y8431D01*
X12036D01*
X12038Y8430D01*
X12044Y8428D01*
X12051Y8425D01*
X12059Y8422D01*
X12067Y8417D01*
X12074Y8411D01*
X12081Y8404D01*
X12081Y8403D01*
X12083Y8401D01*
X12086Y8397D01*
X12089Y8391D01*
X12091Y8384D01*
X12094Y8376D01*
X12096Y8367D01*
X12096Y8356D01*
Y8355D01*
Y8352D01*
X12096Y8348D01*
X12095Y8342D01*
X12094Y8335D01*
X12092Y8328D01*
X12089Y8321D01*
X12085Y8314D01*
X12085Y8313D01*
X12083Y8311D01*
X12081Y8307D01*
X12078Y8303D01*
X12073Y8298D01*
X12068Y8293D01*
X12062Y8288D01*
X12055Y8284D01*
X12054D01*
X12053Y8283D01*
X12050Y8282D01*
X12046Y8280D01*
X12041Y8278D01*
X12035Y8277D01*
X12028Y8276D01*
X12019Y8274D01*
X12018D01*
X12017Y8273D01*
X12014D01*
X12009Y8273D01*
X12002Y8272D01*
X11995Y8271D01*
X11988Y8271D01*
X11982Y8270D01*
X11815D01*
Y8574D01*
X11995D01*
X11998Y8574D01*
D02*
G37*
G36*
X11758Y8270D02*
X11668D01*
Y8355D01*
X11758D01*
Y8270D01*
D02*
G37*
G36*
X1998Y8574D02*
X2002D01*
X2006Y8573D01*
X2016Y8571D01*
X2027Y8569D01*
X2038Y8565D01*
X2049Y8559D01*
X2059Y8552D01*
X2059D01*
X2060Y8551D01*
X2063Y8548D01*
X2067Y8544D01*
X2071Y8537D01*
X2075Y8529D01*
X2079Y8520D01*
X2081Y8510D01*
X2083Y8504D01*
Y8498D01*
Y8498D01*
Y8497D01*
Y8494D01*
X2081Y8489D01*
X2080Y8483D01*
X2078Y8475D01*
X2075Y8468D01*
X2071Y8460D01*
X2065Y8452D01*
X2065Y8451D01*
X2063Y8450D01*
X2061Y8448D01*
X2057Y8445D01*
X2053Y8441D01*
X2047Y8438D01*
X2040Y8435D01*
X2033Y8432D01*
X2033D01*
X2034Y8431D01*
X2036D01*
X2038Y8430D01*
X2044Y8428D01*
X2051Y8425D01*
X2059Y8422D01*
X2067Y8417D01*
X2074Y8411D01*
X2081Y8404D01*
X2081Y8403D01*
X2083Y8401D01*
X2086Y8397D01*
X2089Y8391D01*
X2091Y8384D01*
X2094Y8376D01*
X2096Y8367D01*
X2096Y8356D01*
Y8355D01*
Y8352D01*
X2096Y8348D01*
X2095Y8342D01*
X2094Y8335D01*
X2092Y8328D01*
X2089Y8321D01*
X2085Y8314D01*
X2085Y8313D01*
X2083Y8311D01*
X2081Y8307D01*
X2078Y8303D01*
X2073Y8298D01*
X2068Y8293D01*
X2062Y8288D01*
X2055Y8284D01*
X2054D01*
X2053Y8283D01*
X2050Y8282D01*
X2046Y8280D01*
X2041Y8278D01*
X2035Y8277D01*
X2028Y8276D01*
X2019Y8274D01*
X2018D01*
X2017Y8273D01*
X2014D01*
X2009Y8273D01*
X2002Y8272D01*
X1995Y8271D01*
X1988Y8271D01*
X1982Y8270D01*
X1815D01*
Y8574D01*
X1995D01*
X1998Y8574D01*
D02*
G37*
G36*
X1758Y8270D02*
X1668D01*
Y8355D01*
X1758D01*
Y8270D01*
D02*
G37*
%LPC*%
G36*
X21952Y26113D02*
X21910D01*
Y26055D01*
X21954D01*
X21958Y26055D01*
X21963Y26056D01*
X21973Y26058D01*
X21978Y26060D01*
X21982Y26062D01*
X21982Y26063D01*
X21983Y26064D01*
X21984Y26065D01*
X21986Y26068D01*
X21988Y26071D01*
X21989Y26075D01*
X21990Y26079D01*
X21990Y26084D01*
Y26085D01*
Y26086D01*
X21990Y26089D01*
X21989Y26092D01*
X21988Y26095D01*
X21987Y26099D01*
X21984Y26102D01*
X21982Y26105D01*
X21981Y26105D01*
X21980Y26106D01*
X21978Y26107D01*
X21974Y26109D01*
X21970Y26110D01*
X21965Y26111D01*
X21959Y26112D01*
X21952Y26113D01*
D02*
G37*
G36*
X21957Y25997D02*
X21910D01*
Y25935D01*
X21962D01*
X21966Y25936D01*
X21971Y25937D01*
X21977Y25938D01*
X21983Y25939D01*
X21988Y25941D01*
X21992Y25944D01*
X21993Y25944D01*
X21994Y25945D01*
X21995Y25947D01*
X21997Y25950D01*
X21999Y25953D01*
X22000Y25958D01*
X22002Y25962D01*
X22002Y25967D01*
Y25968D01*
Y25969D01*
X22002Y25972D01*
X22001Y25975D01*
X22000Y25978D01*
X21998Y25982D01*
X21995Y25985D01*
X21992Y25989D01*
X21992Y25989D01*
X21990Y25990D01*
X21988Y25992D01*
X21984Y25993D01*
X21979Y25994D01*
X21973Y25996D01*
X21966Y25997D01*
X21957Y25997D01*
D02*
G37*
G36*
X11952Y26113D02*
X11910D01*
Y26055D01*
X11954D01*
X11958Y26055D01*
X11963Y26056D01*
X11973Y26058D01*
X11978Y26060D01*
X11982Y26062D01*
X11982Y26063D01*
X11983Y26064D01*
X11984Y26065D01*
X11986Y26068D01*
X11988Y26071D01*
X11989Y26075D01*
X11990Y26079D01*
X11990Y26084D01*
Y26085D01*
Y26086D01*
X11990Y26089D01*
X11989Y26092D01*
X11988Y26095D01*
X11987Y26099D01*
X11984Y26102D01*
X11982Y26105D01*
X11981Y26105D01*
X11980Y26106D01*
X11978Y26107D01*
X11974Y26109D01*
X11970Y26110D01*
X11966Y26111D01*
X11959Y26112D01*
X11952Y26113D01*
D02*
G37*
G36*
X11957Y25997D02*
X11910D01*
Y25935D01*
X11962D01*
X11966Y25936D01*
X11971Y25937D01*
X11977Y25938D01*
X11983Y25939D01*
X11988Y25941D01*
X11992Y25944D01*
X11993Y25944D01*
X11994Y25945D01*
X11995Y25947D01*
X11997Y25950D01*
X11999Y25953D01*
X12000Y25958D01*
X12002Y25962D01*
X12002Y25967D01*
Y25968D01*
Y25969D01*
X12002Y25972D01*
X12001Y25975D01*
X12000Y25978D01*
X11998Y25982D01*
X11995Y25985D01*
X11992Y25989D01*
X11992Y25989D01*
X11990Y25990D01*
X11988Y25992D01*
X11984Y25993D01*
X11979Y25994D01*
X11973Y25996D01*
X11966Y25997D01*
X11957Y25997D01*
D02*
G37*
G36*
X1952Y26113D02*
X1910D01*
Y26055D01*
X1954D01*
X1958Y26055D01*
X1963Y26056D01*
X1973Y26058D01*
X1978Y26060D01*
X1982Y26062D01*
X1982Y26063D01*
X1983Y26064D01*
X1984Y26065D01*
X1986Y26068D01*
X1988Y26071D01*
X1989Y26075D01*
X1990Y26079D01*
X1990Y26084D01*
Y26085D01*
Y26086D01*
X1990Y26089D01*
X1989Y26092D01*
X1988Y26095D01*
X1987Y26099D01*
X1984Y26102D01*
X1982Y26105D01*
X1981Y26105D01*
X1980Y26106D01*
X1978Y26107D01*
X1974Y26109D01*
X1970Y26110D01*
X1965Y26111D01*
X1959Y26112D01*
X1952Y26113D01*
D02*
G37*
G36*
X1957Y25997D02*
X1910D01*
Y25935D01*
X1962D01*
X1966Y25936D01*
X1971Y25937D01*
X1977Y25938D01*
X1983Y25939D01*
X1988Y25941D01*
X1992Y25944D01*
X1993Y25944D01*
X1994Y25945D01*
X1995Y25947D01*
X1997Y25950D01*
X1999Y25953D01*
X2000Y25958D01*
X2002Y25962D01*
X2002Y25967D01*
Y25968D01*
Y25969D01*
X2002Y25972D01*
X2001Y25975D01*
X2000Y25978D01*
X1998Y25982D01*
X1995Y25985D01*
X1992Y25989D01*
X1992Y25989D01*
X1990Y25990D01*
X1988Y25992D01*
X1984Y25993D01*
X1979Y25994D01*
X1973Y25996D01*
X1966Y25997D01*
X1957Y25997D01*
D02*
G37*
G36*
X21952Y17313D02*
X21910D01*
Y17255D01*
X21954D01*
X21958Y17255D01*
X21963Y17256D01*
X21973Y17258D01*
X21978Y17260D01*
X21982Y17262D01*
X21982Y17263D01*
X21983Y17264D01*
X21984Y17265D01*
X21986Y17268D01*
X21988Y17271D01*
X21989Y17275D01*
X21990Y17279D01*
X21990Y17284D01*
Y17285D01*
Y17286D01*
X21990Y17289D01*
X21989Y17292D01*
X21988Y17295D01*
X21987Y17299D01*
X21984Y17302D01*
X21982Y17305D01*
X21981Y17305D01*
X21980Y17306D01*
X21978Y17307D01*
X21974Y17309D01*
X21970Y17310D01*
X21965Y17311D01*
X21959Y17312D01*
X21952Y17313D01*
D02*
G37*
G36*
X21957Y17197D02*
X21910D01*
Y17135D01*
X21962D01*
X21966Y17136D01*
X21971Y17137D01*
X21977Y17138D01*
X21983Y17139D01*
X21988Y17141D01*
X21992Y17144D01*
X21993Y17144D01*
X21994Y17145D01*
X21995Y17147D01*
X21997Y17150D01*
X21999Y17153D01*
X22000Y17158D01*
X22002Y17162D01*
X22002Y17167D01*
Y17168D01*
Y17169D01*
X22002Y17172D01*
X22001Y17175D01*
X22000Y17178D01*
X21998Y17182D01*
X21995Y17185D01*
X21992Y17189D01*
X21992Y17189D01*
X21990Y17190D01*
X21988Y17192D01*
X21984Y17193D01*
X21979Y17194D01*
X21973Y17196D01*
X21966Y17197D01*
X21957Y17197D01*
D02*
G37*
G36*
X11952Y17313D02*
X11910D01*
Y17255D01*
X11954D01*
X11958Y17255D01*
X11963Y17256D01*
X11973Y17258D01*
X11978Y17260D01*
X11982Y17262D01*
X11982Y17263D01*
X11983Y17264D01*
X11984Y17265D01*
X11986Y17268D01*
X11988Y17271D01*
X11989Y17275D01*
X11990Y17279D01*
X11990Y17284D01*
Y17285D01*
Y17286D01*
X11990Y17289D01*
X11989Y17292D01*
X11988Y17295D01*
X11987Y17299D01*
X11984Y17302D01*
X11982Y17305D01*
X11981Y17305D01*
X11980Y17306D01*
X11978Y17307D01*
X11974Y17309D01*
X11970Y17310D01*
X11966Y17311D01*
X11959Y17312D01*
X11952Y17313D01*
D02*
G37*
G36*
X11957Y17197D02*
X11910D01*
Y17135D01*
X11962D01*
X11966Y17136D01*
X11971Y17137D01*
X11977Y17138D01*
X11983Y17139D01*
X11988Y17141D01*
X11992Y17144D01*
X11993Y17144D01*
X11994Y17145D01*
X11995Y17147D01*
X11997Y17150D01*
X11999Y17153D01*
X12000Y17158D01*
X12002Y17162D01*
X12002Y17167D01*
Y17168D01*
Y17169D01*
X12002Y17172D01*
X12001Y17175D01*
X12000Y17178D01*
X11998Y17182D01*
X11995Y17185D01*
X11992Y17189D01*
X11992Y17189D01*
X11990Y17190D01*
X11988Y17192D01*
X11984Y17193D01*
X11979Y17194D01*
X11973Y17196D01*
X11966Y17197D01*
X11957Y17197D01*
D02*
G37*
G36*
X1952Y17313D02*
X1910D01*
Y17255D01*
X1954D01*
X1958Y17255D01*
X1963Y17256D01*
X1973Y17258D01*
X1978Y17260D01*
X1982Y17262D01*
X1982Y17263D01*
X1983Y17264D01*
X1984Y17265D01*
X1986Y17268D01*
X1988Y17271D01*
X1989Y17275D01*
X1990Y17279D01*
X1990Y17284D01*
Y17285D01*
Y17286D01*
X1990Y17289D01*
X1989Y17292D01*
X1988Y17295D01*
X1987Y17299D01*
X1984Y17302D01*
X1982Y17305D01*
X1981Y17305D01*
X1980Y17306D01*
X1978Y17307D01*
X1974Y17309D01*
X1970Y17310D01*
X1965Y17311D01*
X1959Y17312D01*
X1952Y17313D01*
D02*
G37*
G36*
X1957Y17197D02*
X1910D01*
Y17135D01*
X1962D01*
X1966Y17136D01*
X1971Y17137D01*
X1977Y17138D01*
X1983Y17139D01*
X1988Y17141D01*
X1992Y17144D01*
X1993Y17144D01*
X1994Y17145D01*
X1995Y17147D01*
X1997Y17150D01*
X1999Y17153D01*
X2000Y17158D01*
X2002Y17162D01*
X2002Y17167D01*
Y17168D01*
Y17169D01*
X2002Y17172D01*
X2001Y17175D01*
X2000Y17178D01*
X1998Y17182D01*
X1995Y17185D01*
X1992Y17189D01*
X1992Y17189D01*
X1990Y17190D01*
X1988Y17192D01*
X1984Y17193D01*
X1979Y17194D01*
X1973Y17196D01*
X1966Y17197D01*
X1957Y17197D01*
D02*
G37*
G36*
X21952Y8513D02*
X21910D01*
Y8455D01*
X21954D01*
X21958Y8455D01*
X21963Y8456D01*
X21973Y8458D01*
X21978Y8460D01*
X21982Y8462D01*
X21982Y8463D01*
X21983Y8464D01*
X21984Y8465D01*
X21986Y8468D01*
X21988Y8471D01*
X21989Y8475D01*
X21990Y8479D01*
X21990Y8484D01*
Y8485D01*
Y8486D01*
X21990Y8489D01*
X21989Y8492D01*
X21988Y8495D01*
X21987Y8499D01*
X21984Y8502D01*
X21982Y8505D01*
X21981Y8505D01*
X21980Y8506D01*
X21978Y8507D01*
X21974Y8509D01*
X21970Y8510D01*
X21965Y8511D01*
X21959Y8512D01*
X21952Y8513D01*
D02*
G37*
G36*
X21957Y8397D02*
X21910D01*
Y8335D01*
X21962D01*
X21966Y8336D01*
X21971Y8337D01*
X21977Y8338D01*
X21983Y8339D01*
X21988Y8341D01*
X21992Y8344D01*
X21993Y8344D01*
X21994Y8345D01*
X21995Y8347D01*
X21997Y8350D01*
X21999Y8353D01*
X22000Y8358D01*
X22002Y8362D01*
X22002Y8367D01*
Y8368D01*
Y8369D01*
X22002Y8372D01*
X22001Y8375D01*
X22000Y8378D01*
X21998Y8382D01*
X21995Y8385D01*
X21992Y8389D01*
X21992Y8389D01*
X21990Y8390D01*
X21988Y8392D01*
X21984Y8393D01*
X21979Y8394D01*
X21973Y8396D01*
X21966Y8397D01*
X21957Y8397D01*
D02*
G37*
G36*
X11952Y8513D02*
X11910D01*
Y8455D01*
X11954D01*
X11958Y8455D01*
X11963Y8456D01*
X11973Y8458D01*
X11978Y8460D01*
X11982Y8462D01*
X11982Y8463D01*
X11983Y8464D01*
X11984Y8465D01*
X11986Y8468D01*
X11988Y8471D01*
X11989Y8475D01*
X11990Y8479D01*
X11990Y8484D01*
Y8485D01*
Y8486D01*
X11990Y8489D01*
X11989Y8492D01*
X11988Y8495D01*
X11987Y8499D01*
X11984Y8502D01*
X11982Y8505D01*
X11981Y8505D01*
X11980Y8506D01*
X11978Y8507D01*
X11974Y8509D01*
X11970Y8510D01*
X11966Y8511D01*
X11959Y8512D01*
X11952Y8513D01*
D02*
G37*
G36*
X11957Y8397D02*
X11910D01*
Y8335D01*
X11962D01*
X11966Y8336D01*
X11971Y8337D01*
X11977Y8338D01*
X11983Y8339D01*
X11988Y8341D01*
X11992Y8344D01*
X11993Y8344D01*
X11994Y8345D01*
X11995Y8347D01*
X11997Y8350D01*
X11999Y8353D01*
X12000Y8358D01*
X12002Y8362D01*
X12002Y8367D01*
Y8368D01*
Y8369D01*
X12002Y8372D01*
X12001Y8375D01*
X12000Y8378D01*
X11998Y8382D01*
X11995Y8385D01*
X11992Y8389D01*
X11992Y8389D01*
X11990Y8390D01*
X11988Y8392D01*
X11984Y8393D01*
X11979Y8394D01*
X11973Y8396D01*
X11966Y8397D01*
X11957Y8397D01*
D02*
G37*
G36*
X1952Y8513D02*
X1910D01*
Y8455D01*
X1954D01*
X1958Y8455D01*
X1963Y8456D01*
X1973Y8458D01*
X1978Y8460D01*
X1982Y8462D01*
X1982Y8463D01*
X1983Y8464D01*
X1984Y8465D01*
X1986Y8468D01*
X1988Y8471D01*
X1989Y8475D01*
X1990Y8479D01*
X1990Y8484D01*
Y8485D01*
Y8486D01*
X1990Y8489D01*
X1989Y8492D01*
X1988Y8495D01*
X1987Y8499D01*
X1984Y8502D01*
X1982Y8505D01*
X1981Y8505D01*
X1980Y8506D01*
X1978Y8507D01*
X1974Y8509D01*
X1970Y8510D01*
X1965Y8511D01*
X1959Y8512D01*
X1952Y8513D01*
D02*
G37*
G36*
X1957Y8397D02*
X1910D01*
Y8335D01*
X1962D01*
X1966Y8336D01*
X1971Y8337D01*
X1977Y8338D01*
X1983Y8339D01*
X1988Y8341D01*
X1992Y8344D01*
X1993Y8344D01*
X1994Y8345D01*
X1995Y8347D01*
X1997Y8350D01*
X1999Y8353D01*
X2000Y8358D01*
X2002Y8362D01*
X2002Y8367D01*
Y8368D01*
Y8369D01*
X2002Y8372D01*
X2001Y8375D01*
X2000Y8378D01*
X1998Y8382D01*
X1995Y8385D01*
X1992Y8389D01*
X1992Y8389D01*
X1990Y8390D01*
X1988Y8392D01*
X1984Y8393D01*
X1979Y8394D01*
X1973Y8396D01*
X1966Y8397D01*
X1957Y8397D01*
D02*
G37*
%LPD*%
D28*
X1271Y5370D02*
G03*
X1271Y5370I-51J0D01*
G01*
X11271D02*
G03*
X11271Y5370I-51J0D01*
G01*
X21271D02*
G03*
X21271Y5370I-51J0D01*
G01*
X1271Y14170D02*
G03*
X1271Y14170I-51J0D01*
G01*
X11271D02*
G03*
X11271Y14170I-51J0D01*
G01*
X21271D02*
G03*
X21271Y14170I-51J0D01*
G01*
X1271Y22970D02*
G03*
X1271Y22970I-51J0D01*
G01*
X11271D02*
G03*
X11271Y22970I-51J0D01*
G01*
X21271D02*
G03*
X21271Y22970I-51J0D01*
G01*
D41*
X1413Y6670D02*
G03*
X1413Y6670I-49J0D01*
G01*
X3709Y1860D02*
G03*
X3709Y1860I-49J0D01*
G01*
X11413Y6670D02*
G03*
X11413Y6670I-49J0D01*
G01*
X13709Y1860D02*
G03*
X13709Y1860I-49J0D01*
G01*
X21413Y6670D02*
G03*
X21413Y6670I-49J0D01*
G01*
X23709Y1860D02*
G03*
X23709Y1860I-49J0D01*
G01*
X1413Y15470D02*
G03*
X1413Y15470I-49J0D01*
G01*
X3709Y10660D02*
G03*
X3709Y10660I-49J0D01*
G01*
X11413Y15470D02*
G03*
X11413Y15470I-49J0D01*
G01*
X13709Y10660D02*
G03*
X13709Y10660I-49J0D01*
G01*
X21413Y15470D02*
G03*
X21413Y15470I-49J0D01*
G01*
X23709Y10660D02*
G03*
X23709Y10660I-49J0D01*
G01*
X1413Y24270D02*
G03*
X1413Y24270I-49J0D01*
G01*
X3709Y19460D02*
G03*
X3709Y19460I-49J0D01*
G01*
X11413Y24270D02*
G03*
X11413Y24270I-49J0D01*
G01*
X13709Y19460D02*
G03*
X13709Y19460I-49J0D01*
G01*
X21413Y24270D02*
G03*
X21413Y24270I-49J0D01*
G01*
X23709Y19460D02*
G03*
X23709Y19460I-49J0D01*
G01*
D42*
X2320Y5270D02*
G03*
X2720Y5269I200J-1D01*
G01*
X250Y5519D02*
Y8520D01*
Y5519D02*
X1250D01*
Y8520D01*
X250D02*
X1250D01*
X4049Y8675D02*
X4216D01*
Y8951D01*
X5004Y8675D02*
X5181D01*
X5004D02*
Y8951D01*
X4216D02*
X5004D01*
X1403Y7241D02*
Y7596D01*
X1717D01*
X2584Y7241D02*
Y7596D01*
X2269D02*
X2584D01*
X4536Y639D02*
Y954D01*
X4142Y639D02*
X4536D01*
Y1506D02*
Y1821D01*
X4142D02*
X4536D01*
X8000Y400D02*
Y8400D01*
X7000Y400D02*
X8000D01*
X7000D02*
Y8400D01*
X8000D01*
X9000Y400D02*
Y8400D01*
X8000Y400D02*
X9000D01*
X8000D02*
Y8400D01*
X9000D01*
X10000Y400D02*
Y8400D01*
X9000Y400D02*
X10000D01*
X9000D02*
Y8400D01*
X10000D01*
X1770Y2671D02*
X3270D01*
Y5269D01*
X1770Y2671D02*
Y5269D01*
X2320Y5270D01*
X2720Y5269D02*
X3270D01*
X12320Y5270D02*
G03*
X12720Y5269I200J-1D01*
G01*
X10250Y5519D02*
Y8520D01*
Y5519D02*
X11250D01*
Y8520D01*
X10250D02*
X11250D01*
X14049Y8675D02*
X14216D01*
Y8951D01*
X15004Y8675D02*
X15181D01*
X15004D02*
Y8951D01*
X14216D02*
X15004D01*
X11403Y7241D02*
Y7596D01*
X11717D01*
X12584Y7241D02*
Y7596D01*
X12269D02*
X12584D01*
X14536Y639D02*
Y954D01*
X14142Y639D02*
X14536D01*
Y1506D02*
Y1821D01*
X14142D02*
X14536D01*
X18000Y400D02*
Y8400D01*
X17000Y400D02*
X18000D01*
X17000D02*
Y8400D01*
X18000D01*
X19000Y400D02*
Y8400D01*
X18000Y400D02*
X19000D01*
X18000D02*
Y8400D01*
X19000D01*
X20000Y400D02*
Y8400D01*
X19000Y400D02*
X20000D01*
X19000D02*
Y8400D01*
X20000D01*
X11770Y2671D02*
X13270D01*
Y5269D01*
X11770Y2671D02*
Y5269D01*
X12320Y5270D01*
X12720Y5269D02*
X13270D01*
X22320Y5270D02*
G03*
X22720Y5269I200J-1D01*
G01*
X20250Y5519D02*
Y8520D01*
Y5519D02*
X21250D01*
Y8520D01*
X20250D02*
X21250D01*
X24049Y8675D02*
X24216D01*
Y8951D01*
X25004Y8675D02*
X25181D01*
X25004D02*
Y8951D01*
X24216D02*
X25004D01*
X21403Y7241D02*
Y7596D01*
X21717D01*
X22584Y7241D02*
Y7596D01*
X22269D02*
X22584D01*
X24536Y639D02*
Y954D01*
X24142Y639D02*
X24536D01*
Y1506D02*
Y1821D01*
X24142D02*
X24536D01*
X28000Y400D02*
Y8400D01*
X27000Y400D02*
X28000D01*
X27000D02*
Y8400D01*
X28000D01*
X29000Y400D02*
Y8400D01*
X28000Y400D02*
X29000D01*
X28000D02*
Y8400D01*
X29000D01*
X30000Y400D02*
Y8400D01*
X29000Y400D02*
X30000D01*
X29000D02*
Y8400D01*
X30000D01*
X21770Y2671D02*
X23270D01*
Y5269D01*
X21770Y2671D02*
Y5269D01*
X22320Y5270D01*
X22720Y5269D02*
X23270D01*
X2320Y14070D02*
G03*
X2720Y14069I200J-1D01*
G01*
X250Y14319D02*
Y17320D01*
Y14319D02*
X1250D01*
Y17320D01*
X250D02*
X1250D01*
X4049Y17475D02*
X4216D01*
Y17751D01*
X5004Y17475D02*
X5181D01*
X5004D02*
Y17751D01*
X4216D02*
X5004D01*
X1403Y16041D02*
Y16396D01*
X1717D01*
X2584Y16041D02*
Y16396D01*
X2269D02*
X2584D01*
X4536Y9439D02*
Y9754D01*
X4142Y9439D02*
X4536D01*
Y10306D02*
Y10621D01*
X4142D02*
X4536D01*
X8000Y9200D02*
Y17200D01*
X7000Y9200D02*
X8000D01*
X7000D02*
Y17200D01*
X8000D01*
X9000Y9200D02*
Y17200D01*
X8000Y9200D02*
X9000D01*
X8000D02*
Y17200D01*
X9000D01*
X10000Y9200D02*
Y17200D01*
X9000Y9200D02*
X10000D01*
X9000D02*
Y17200D01*
X10000D01*
X1770Y11471D02*
X3270D01*
Y14069D01*
X1770Y11471D02*
Y14069D01*
X2320Y14070D01*
X2720Y14069D02*
X3270D01*
X12320Y14070D02*
G03*
X12720Y14069I200J-1D01*
G01*
X10250Y14319D02*
Y17320D01*
Y14319D02*
X11250D01*
Y17320D01*
X10250D02*
X11250D01*
X14049Y17475D02*
X14216D01*
Y17751D01*
X15004Y17475D02*
X15181D01*
X15004D02*
Y17751D01*
X14216D02*
X15004D01*
X11403Y16041D02*
Y16396D01*
X11717D01*
X12584Y16041D02*
Y16396D01*
X12269D02*
X12584D01*
X14536Y9439D02*
Y9754D01*
X14142Y9439D02*
X14536D01*
Y10306D02*
Y10621D01*
X14142D02*
X14536D01*
X18000Y9200D02*
Y17200D01*
X17000Y9200D02*
X18000D01*
X17000D02*
Y17200D01*
X18000D01*
X19000Y9200D02*
Y17200D01*
X18000Y9200D02*
X19000D01*
X18000D02*
Y17200D01*
X19000D01*
X20000Y9200D02*
Y17200D01*
X19000Y9200D02*
X20000D01*
X19000D02*
Y17200D01*
X20000D01*
X11770Y11471D02*
X13270D01*
Y14069D01*
X11770Y11471D02*
Y14069D01*
X12320Y14070D01*
X12720Y14069D02*
X13270D01*
X22320Y14070D02*
G03*
X22720Y14069I200J-1D01*
G01*
X20250Y14319D02*
Y17320D01*
Y14319D02*
X21250D01*
Y17320D01*
X20250D02*
X21250D01*
X24049Y17475D02*
X24216D01*
Y17751D01*
X25004Y17475D02*
X25181D01*
X25004D02*
Y17751D01*
X24216D02*
X25004D01*
X21403Y16041D02*
Y16396D01*
X21717D01*
X22584Y16041D02*
Y16396D01*
X22269D02*
X22584D01*
X24536Y9439D02*
Y9754D01*
X24142Y9439D02*
X24536D01*
Y10306D02*
Y10621D01*
X24142D02*
X24536D01*
X28000Y9200D02*
Y17200D01*
X27000Y9200D02*
X28000D01*
X27000D02*
Y17200D01*
X28000D01*
X29000Y9200D02*
Y17200D01*
X28000Y9200D02*
X29000D01*
X28000D02*
Y17200D01*
X29000D01*
X30000Y9200D02*
Y17200D01*
X29000Y9200D02*
X30000D01*
X29000D02*
Y17200D01*
X30000D01*
X21770Y11471D02*
X23270D01*
Y14069D01*
X21770Y11471D02*
Y14069D01*
X22320Y14070D01*
X22720Y14069D02*
X23270D01*
X2320Y22870D02*
G03*
X2720Y22869I200J-1D01*
G01*
X250Y23119D02*
Y26120D01*
Y23119D02*
X1250D01*
Y26120D01*
X250D02*
X1250D01*
X4049Y26275D02*
X4216D01*
Y26551D01*
X5004Y26275D02*
X5181D01*
X5004D02*
Y26551D01*
X4216D02*
X5004D01*
X1403Y24841D02*
Y25196D01*
X1717D01*
X2584Y24841D02*
Y25196D01*
X2269D02*
X2584D01*
X4536Y18239D02*
Y18554D01*
X4142Y18239D02*
X4536D01*
Y19106D02*
Y19421D01*
X4142D02*
X4536D01*
X8000Y18000D02*
Y26000D01*
X7000Y18000D02*
X8000D01*
X7000D02*
Y26000D01*
X8000D01*
X9000Y18000D02*
Y26000D01*
X8000Y18000D02*
X9000D01*
X8000D02*
Y26000D01*
X9000D01*
X10000Y18000D02*
Y26000D01*
X9000Y18000D02*
X10000D01*
X9000D02*
Y26000D01*
X10000D01*
X1770Y20271D02*
X3270D01*
Y22869D01*
X1770Y20271D02*
Y22869D01*
X2320Y22870D01*
X2720Y22869D02*
X3270D01*
X12320Y22870D02*
G03*
X12720Y22869I200J-1D01*
G01*
X10250Y23119D02*
Y26120D01*
Y23119D02*
X11250D01*
Y26120D01*
X10250D02*
X11250D01*
X14049Y26275D02*
X14216D01*
Y26551D01*
X15004Y26275D02*
X15181D01*
X15004D02*
Y26551D01*
X14216D02*
X15004D01*
X11403Y24841D02*
Y25196D01*
X11717D01*
X12584Y24841D02*
Y25196D01*
X12269D02*
X12584D01*
X14536Y18239D02*
Y18554D01*
X14142Y18239D02*
X14536D01*
Y19106D02*
Y19421D01*
X14142D02*
X14536D01*
X18000Y18000D02*
Y26000D01*
X17000Y18000D02*
X18000D01*
X17000D02*
Y26000D01*
X18000D01*
X19000Y18000D02*
Y26000D01*
X18000Y18000D02*
X19000D01*
X18000D02*
Y26000D01*
X19000D01*
X20000Y18000D02*
Y26000D01*
X19000Y18000D02*
X20000D01*
X19000D02*
Y26000D01*
X20000D01*
X11770Y20271D02*
X13270D01*
Y22869D01*
X11770Y20271D02*
Y22869D01*
X12320Y22870D01*
X12720Y22869D02*
X13270D01*
X22320Y22870D02*
G03*
X22720Y22869I200J-1D01*
G01*
X20250Y23119D02*
Y26120D01*
Y23119D02*
X21250D01*
Y26120D01*
X20250D02*
X21250D01*
X24049Y26275D02*
X24216D01*
Y26551D01*
X25004Y26275D02*
X25181D01*
X25004D02*
Y26551D01*
X24216D02*
X25004D01*
X21403Y24841D02*
Y25196D01*
X21717D01*
X22584Y24841D02*
Y25196D01*
X22269D02*
X22584D01*
X24536Y18239D02*
Y18554D01*
X24142Y18239D02*
X24536D01*
Y19106D02*
Y19421D01*
X24142D02*
X24536D01*
X28000Y18000D02*
Y26000D01*
X27000Y18000D02*
X28000D01*
X27000D02*
Y26000D01*
X28000D01*
X29000Y18000D02*
Y26000D01*
X28000Y18000D02*
X29000D01*
X28000D02*
Y26000D01*
X29000D01*
X30000Y18000D02*
Y26000D01*
X29000Y18000D02*
X30000D01*
X29000D02*
Y26000D01*
X30000D01*
X21770Y20271D02*
X23270D01*
Y22869D01*
X21770Y20271D02*
Y22869D01*
X22320Y22870D01*
X22720Y22869D02*
X23270D01*
D43*
X2840Y8398D02*
X3320D01*
X2840Y8000D02*
Y8398D01*
X3320Y8000D02*
Y8398D01*
X2840Y7302D02*
Y8000D01*
X3320Y7302D02*
Y8010D01*
X2840Y7302D02*
X3320D01*
X2542Y5950D02*
Y6430D01*
X2144D02*
X2542D01*
X2144Y5950D02*
X2542D01*
X1445Y6430D02*
X2144D01*
X1445Y5950D02*
X2154D01*
X1445D02*
Y6430D01*
X604Y600D02*
Y1100D01*
X1076Y600D02*
Y1100D01*
X604Y600D02*
X1076D01*
X604Y1791D02*
X1076D01*
X604Y1400D02*
Y1791D01*
X1076Y1400D02*
Y1791D01*
X604Y709D02*
X1076D01*
X1270Y1778D02*
X1750D01*
X1270Y1380D02*
Y1778D01*
X1750Y1380D02*
Y1778D01*
X1270Y682D02*
Y1380D01*
X1750Y682D02*
Y1390D01*
X1270Y682D02*
X1750D01*
X3540Y7054D02*
X4020D01*
X3540Y6656D02*
Y7054D01*
X4020Y6656D02*
Y7054D01*
X3540Y5958D02*
Y6656D01*
X4020Y5958D02*
Y6666D01*
X3540Y5958D02*
X4020D01*
X4220Y7054D02*
X4700D01*
X4220Y6656D02*
Y7054D01*
X4700Y6656D02*
Y7054D01*
X4220Y5958D02*
Y6656D01*
X4700Y5958D02*
Y6666D01*
X4220Y5958D02*
X4700D01*
X2920Y1778D02*
X3400D01*
X2920Y1380D02*
Y1778D01*
X3400Y1380D02*
Y1778D01*
X2920Y682D02*
Y1080D01*
X3400Y682D02*
Y1080D01*
X2920Y682D02*
X3400D01*
X2840Y5958D02*
X3320D01*
Y6356D01*
X2840Y5958D02*
Y6356D01*
X3320Y6656D02*
Y7054D01*
X2840Y6656D02*
Y7054D01*
X3320D01*
X2000Y1380D02*
Y1899D01*
Y561D02*
Y1080D01*
X2720Y561D02*
Y1080D01*
Y1380D02*
Y1899D01*
X2000D02*
X2720D01*
X2000Y561D02*
X2720D01*
X5820D02*
Y1080D01*
Y1380D02*
Y1899D01*
X5100Y1380D02*
Y1899D01*
Y561D02*
Y1080D01*
Y561D02*
X5820D01*
X5100Y1899D02*
X5820D01*
X6040Y1758D02*
X6520D01*
X6040Y1360D02*
Y1758D01*
X6520Y1360D02*
Y1758D01*
X6040Y662D02*
Y1060D01*
X6520Y662D02*
Y1060D01*
X6040Y662D02*
X6520D01*
X12840Y8398D02*
X13320D01*
X12840Y8000D02*
Y8398D01*
X13320Y8000D02*
Y8398D01*
X12840Y7302D02*
Y8000D01*
X13320Y7302D02*
Y8010D01*
X12840Y7302D02*
X13320D01*
X12542Y5950D02*
Y6430D01*
X12144D02*
X12542D01*
X12144Y5950D02*
X12542D01*
X11445Y6430D02*
X12144D01*
X11445Y5950D02*
X12154D01*
X11445D02*
Y6430D01*
X10604Y600D02*
Y1100D01*
X11076Y600D02*
Y1100D01*
X10604Y600D02*
X11076D01*
X10604Y1791D02*
X11076D01*
X10604Y1400D02*
Y1791D01*
X11076Y1400D02*
Y1791D01*
X10604Y709D02*
X11076D01*
X11270Y1778D02*
X11750D01*
X11270Y1380D02*
Y1778D01*
X11750Y1380D02*
Y1778D01*
X11270Y682D02*
Y1380D01*
X11750Y682D02*
Y1390D01*
X11270Y682D02*
X11750D01*
X13540Y7054D02*
X14020D01*
X13540Y6656D02*
Y7054D01*
X14020Y6656D02*
Y7054D01*
X13540Y5958D02*
Y6656D01*
X14020Y5958D02*
Y6666D01*
X13540Y5958D02*
X14020D01*
X14220Y7054D02*
X14700D01*
X14220Y6656D02*
Y7054D01*
X14700Y6656D02*
Y7054D01*
X14220Y5958D02*
Y6656D01*
X14700Y5958D02*
Y6666D01*
X14220Y5958D02*
X14700D01*
X12920Y1778D02*
X13400D01*
X12920Y1380D02*
Y1778D01*
X13400Y1380D02*
Y1778D01*
X12920Y682D02*
Y1080D01*
X13400Y682D02*
Y1080D01*
X12920Y682D02*
X13400D01*
X12840Y5958D02*
X13320D01*
Y6356D01*
X12840Y5958D02*
Y6356D01*
X13320Y6656D02*
Y7054D01*
X12840Y6656D02*
Y7054D01*
X13320D01*
X12000Y1380D02*
Y1899D01*
Y561D02*
Y1080D01*
X12720Y561D02*
Y1080D01*
Y1380D02*
Y1899D01*
X12000D02*
X12720D01*
X12000Y561D02*
X12720D01*
X15820D02*
Y1080D01*
Y1380D02*
Y1899D01*
X15100Y1380D02*
Y1899D01*
Y561D02*
Y1080D01*
Y561D02*
X15820D01*
X15100Y1899D02*
X15820D01*
X16040Y1758D02*
X16520D01*
X16040Y1360D02*
Y1758D01*
X16520Y1360D02*
Y1758D01*
X16040Y662D02*
Y1060D01*
X16520Y662D02*
Y1060D01*
X16040Y662D02*
X16520D01*
X22840Y8398D02*
X23320D01*
X22840Y8000D02*
Y8398D01*
X23320Y8000D02*
Y8398D01*
X22840Y7302D02*
Y8000D01*
X23320Y7302D02*
Y8010D01*
X22840Y7302D02*
X23320D01*
X22542Y5950D02*
Y6430D01*
X22144D02*
X22542D01*
X22144Y5950D02*
X22542D01*
X21445Y6430D02*
X22144D01*
X21445Y5950D02*
X22154D01*
X21445D02*
Y6430D01*
X20604Y600D02*
Y1100D01*
X21076Y600D02*
Y1100D01*
X20604Y600D02*
X21076D01*
X20604Y1791D02*
X21076D01*
X20604Y1400D02*
Y1791D01*
X21076Y1400D02*
Y1791D01*
X20604Y709D02*
X21076D01*
X21270Y1778D02*
X21750D01*
X21270Y1380D02*
Y1778D01*
X21750Y1380D02*
Y1778D01*
X21270Y682D02*
Y1380D01*
X21750Y682D02*
Y1390D01*
X21270Y682D02*
X21750D01*
X23540Y7054D02*
X24020D01*
X23540Y6656D02*
Y7054D01*
X24020Y6656D02*
Y7054D01*
X23540Y5958D02*
Y6656D01*
X24020Y5958D02*
Y6666D01*
X23540Y5958D02*
X24020D01*
X24220Y7054D02*
X24700D01*
X24220Y6656D02*
Y7054D01*
X24700Y6656D02*
Y7054D01*
X24220Y5958D02*
Y6656D01*
X24700Y5958D02*
Y6666D01*
X24220Y5958D02*
X24700D01*
X22920Y1778D02*
X23400D01*
X22920Y1380D02*
Y1778D01*
X23400Y1380D02*
Y1778D01*
X22920Y682D02*
Y1080D01*
X23400Y682D02*
Y1080D01*
X22920Y682D02*
X23400D01*
X22840Y5958D02*
X23320D01*
Y6356D01*
X22840Y5958D02*
Y6356D01*
X23320Y6656D02*
Y7054D01*
X22840Y6656D02*
Y7054D01*
X23320D01*
X22000Y1380D02*
Y1899D01*
Y561D02*
Y1080D01*
X22720Y561D02*
Y1080D01*
Y1380D02*
Y1899D01*
X22000D02*
X22720D01*
X22000Y561D02*
X22720D01*
X25820D02*
Y1080D01*
Y1380D02*
Y1899D01*
X25100Y1380D02*
Y1899D01*
Y561D02*
Y1080D01*
Y561D02*
X25820D01*
X25100Y1899D02*
X25820D01*
X26040Y1758D02*
X26520D01*
X26040Y1360D02*
Y1758D01*
X26520Y1360D02*
Y1758D01*
X26040Y662D02*
Y1060D01*
X26520Y662D02*
Y1060D01*
X26040Y662D02*
X26520D01*
X2840Y17198D02*
X3320D01*
X2840Y16800D02*
Y17198D01*
X3320Y16800D02*
Y17198D01*
X2840Y16102D02*
Y16800D01*
X3320Y16102D02*
Y16810D01*
X2840Y16102D02*
X3320D01*
X2542Y14750D02*
Y15230D01*
X2144D02*
X2542D01*
X2144Y14750D02*
X2542D01*
X1445Y15230D02*
X2144D01*
X1445Y14750D02*
X2154D01*
X1445D02*
Y15230D01*
X604Y9400D02*
Y9900D01*
X1076Y9400D02*
Y9900D01*
X604Y9400D02*
X1076D01*
X604Y10591D02*
X1076D01*
X604Y10200D02*
Y10591D01*
X1076Y10200D02*
Y10591D01*
X604Y9509D02*
X1076D01*
X1270Y10578D02*
X1750D01*
X1270Y10180D02*
Y10578D01*
X1750Y10180D02*
Y10578D01*
X1270Y9482D02*
Y10180D01*
X1750Y9482D02*
Y10190D01*
X1270Y9482D02*
X1750D01*
X3540Y15854D02*
X4020D01*
X3540Y15456D02*
Y15854D01*
X4020Y15456D02*
Y15854D01*
X3540Y14758D02*
Y15456D01*
X4020Y14758D02*
Y15466D01*
X3540Y14758D02*
X4020D01*
X4220Y15854D02*
X4700D01*
X4220Y15456D02*
Y15854D01*
X4700Y15456D02*
Y15854D01*
X4220Y14758D02*
Y15456D01*
X4700Y14758D02*
Y15466D01*
X4220Y14758D02*
X4700D01*
X2920Y10578D02*
X3400D01*
X2920Y10180D02*
Y10578D01*
X3400Y10180D02*
Y10578D01*
X2920Y9482D02*
Y9880D01*
X3400Y9482D02*
Y9880D01*
X2920Y9482D02*
X3400D01*
X2840Y14758D02*
X3320D01*
Y15156D01*
X2840Y14758D02*
Y15156D01*
X3320Y15456D02*
Y15854D01*
X2840Y15456D02*
Y15854D01*
X3320D01*
X2000Y10180D02*
Y10699D01*
Y9361D02*
Y9880D01*
X2720Y9361D02*
Y9880D01*
Y10180D02*
Y10699D01*
X2000D02*
X2720D01*
X2000Y9361D02*
X2720D01*
X5820D02*
Y9880D01*
Y10180D02*
Y10699D01*
X5100Y10180D02*
Y10699D01*
Y9361D02*
Y9880D01*
Y9361D02*
X5820D01*
X5100Y10699D02*
X5820D01*
X6040Y10558D02*
X6520D01*
X6040Y10160D02*
Y10558D01*
X6520Y10160D02*
Y10558D01*
X6040Y9462D02*
Y9860D01*
X6520Y9462D02*
Y9860D01*
X6040Y9462D02*
X6520D01*
X12840Y17198D02*
X13320D01*
X12840Y16800D02*
Y17198D01*
X13320Y16800D02*
Y17198D01*
X12840Y16102D02*
Y16800D01*
X13320Y16102D02*
Y16810D01*
X12840Y16102D02*
X13320D01*
X12542Y14750D02*
Y15230D01*
X12144D02*
X12542D01*
X12144Y14750D02*
X12542D01*
X11445Y15230D02*
X12144D01*
X11445Y14750D02*
X12154D01*
X11445D02*
Y15230D01*
X10604Y9400D02*
Y9900D01*
X11076Y9400D02*
Y9900D01*
X10604Y9400D02*
X11076D01*
X10604Y10591D02*
X11076D01*
X10604Y10200D02*
Y10591D01*
X11076Y10200D02*
Y10591D01*
X10604Y9509D02*
X11076D01*
X11270Y10578D02*
X11750D01*
X11270Y10180D02*
Y10578D01*
X11750Y10180D02*
Y10578D01*
X11270Y9482D02*
Y10180D01*
X11750Y9482D02*
Y10190D01*
X11270Y9482D02*
X11750D01*
X13540Y15854D02*
X14020D01*
X13540Y15456D02*
Y15854D01*
X14020Y15456D02*
Y15854D01*
X13540Y14758D02*
Y15456D01*
X14020Y14758D02*
Y15466D01*
X13540Y14758D02*
X14020D01*
X14220Y15854D02*
X14700D01*
X14220Y15456D02*
Y15854D01*
X14700Y15456D02*
Y15854D01*
X14220Y14758D02*
Y15456D01*
X14700Y14758D02*
Y15466D01*
X14220Y14758D02*
X14700D01*
X12920Y10578D02*
X13400D01*
X12920Y10180D02*
Y10578D01*
X13400Y10180D02*
Y10578D01*
X12920Y9482D02*
Y9880D01*
X13400Y9482D02*
Y9880D01*
X12920Y9482D02*
X13400D01*
X12840Y14758D02*
X13320D01*
Y15156D01*
X12840Y14758D02*
Y15156D01*
X13320Y15456D02*
Y15854D01*
X12840Y15456D02*
Y15854D01*
X13320D01*
X12000Y10180D02*
Y10699D01*
Y9361D02*
Y9880D01*
X12720Y9361D02*
Y9880D01*
Y10180D02*
Y10699D01*
X12000D02*
X12720D01*
X12000Y9361D02*
X12720D01*
X15820D02*
Y9880D01*
Y10180D02*
Y10699D01*
X15100Y10180D02*
Y10699D01*
Y9361D02*
Y9880D01*
Y9361D02*
X15820D01*
X15100Y10699D02*
X15820D01*
X16040Y10558D02*
X16520D01*
X16040Y10160D02*
Y10558D01*
X16520Y10160D02*
Y10558D01*
X16040Y9462D02*
Y9860D01*
X16520Y9462D02*
Y9860D01*
X16040Y9462D02*
X16520D01*
X22840Y17198D02*
X23320D01*
X22840Y16800D02*
Y17198D01*
X23320Y16800D02*
Y17198D01*
X22840Y16102D02*
Y16800D01*
X23320Y16102D02*
Y16810D01*
X22840Y16102D02*
X23320D01*
X22542Y14750D02*
Y15230D01*
X22144D02*
X22542D01*
X22144Y14750D02*
X22542D01*
X21445Y15230D02*
X22144D01*
X21445Y14750D02*
X22154D01*
X21445D02*
Y15230D01*
X20604Y9400D02*
Y9900D01*
X21076Y9400D02*
Y9900D01*
X20604Y9400D02*
X21076D01*
X20604Y10591D02*
X21076D01*
X20604Y10200D02*
Y10591D01*
X21076Y10200D02*
Y10591D01*
X20604Y9509D02*
X21076D01*
X21270Y10578D02*
X21750D01*
X21270Y10180D02*
Y10578D01*
X21750Y10180D02*
Y10578D01*
X21270Y9482D02*
Y10180D01*
X21750Y9482D02*
Y10190D01*
X21270Y9482D02*
X21750D01*
X23540Y15854D02*
X24020D01*
X23540Y15456D02*
Y15854D01*
X24020Y15456D02*
Y15854D01*
X23540Y14758D02*
Y15456D01*
X24020Y14758D02*
Y15466D01*
X23540Y14758D02*
X24020D01*
X24220Y15854D02*
X24700D01*
X24220Y15456D02*
Y15854D01*
X24700Y15456D02*
Y15854D01*
X24220Y14758D02*
Y15456D01*
X24700Y14758D02*
Y15466D01*
X24220Y14758D02*
X24700D01*
X22920Y10578D02*
X23400D01*
X22920Y10180D02*
Y10578D01*
X23400Y10180D02*
Y10578D01*
X22920Y9482D02*
Y9880D01*
X23400Y9482D02*
Y9880D01*
X22920Y9482D02*
X23400D01*
X22840Y14758D02*
X23320D01*
Y15156D01*
X22840Y14758D02*
Y15156D01*
X23320Y15456D02*
Y15854D01*
X22840Y15456D02*
Y15854D01*
X23320D01*
X22000Y10180D02*
Y10699D01*
Y9361D02*
Y9880D01*
X22720Y9361D02*
Y9880D01*
Y10180D02*
Y10699D01*
X22000D02*
X22720D01*
X22000Y9361D02*
X22720D01*
X25820D02*
Y9880D01*
Y10180D02*
Y10699D01*
X25100Y10180D02*
Y10699D01*
Y9361D02*
Y9880D01*
Y9361D02*
X25820D01*
X25100Y10699D02*
X25820D01*
X26040Y10558D02*
X26520D01*
X26040Y10160D02*
Y10558D01*
X26520Y10160D02*
Y10558D01*
X26040Y9462D02*
Y9860D01*
X26520Y9462D02*
Y9860D01*
X26040Y9462D02*
X26520D01*
X2840Y25998D02*
X3320D01*
X2840Y25600D02*
Y25998D01*
X3320Y25600D02*
Y25998D01*
X2840Y24902D02*
Y25600D01*
X3320Y24902D02*
Y25610D01*
X2840Y24902D02*
X3320D01*
X2542Y23550D02*
Y24030D01*
X2144D02*
X2542D01*
X2144Y23550D02*
X2542D01*
X1445Y24030D02*
X2144D01*
X1445Y23550D02*
X2154D01*
X1445D02*
Y24030D01*
X604Y18200D02*
Y18700D01*
X1076Y18200D02*
Y18700D01*
X604Y18200D02*
X1076D01*
X604Y19391D02*
X1076D01*
X604Y19000D02*
Y19391D01*
X1076Y19000D02*
Y19391D01*
X604Y18309D02*
X1076D01*
X1270Y19378D02*
X1750D01*
X1270Y18980D02*
Y19378D01*
X1750Y18980D02*
Y19378D01*
X1270Y18282D02*
Y18980D01*
X1750Y18282D02*
Y18990D01*
X1270Y18282D02*
X1750D01*
X3540Y24654D02*
X4020D01*
X3540Y24256D02*
Y24654D01*
X4020Y24256D02*
Y24654D01*
X3540Y23558D02*
Y24256D01*
X4020Y23558D02*
Y24266D01*
X3540Y23558D02*
X4020D01*
X4220Y24654D02*
X4700D01*
X4220Y24256D02*
Y24654D01*
X4700Y24256D02*
Y24654D01*
X4220Y23558D02*
Y24256D01*
X4700Y23558D02*
Y24266D01*
X4220Y23558D02*
X4700D01*
X2920Y19378D02*
X3400D01*
X2920Y18980D02*
Y19378D01*
X3400Y18980D02*
Y19378D01*
X2920Y18282D02*
Y18680D01*
X3400Y18282D02*
Y18680D01*
X2920Y18282D02*
X3400D01*
X2840Y23558D02*
X3320D01*
Y23956D01*
X2840Y23558D02*
Y23956D01*
X3320Y24256D02*
Y24654D01*
X2840Y24256D02*
Y24654D01*
X3320D01*
X2000Y18980D02*
Y19499D01*
Y18161D02*
Y18680D01*
X2720Y18161D02*
Y18680D01*
Y18980D02*
Y19499D01*
X2000D02*
X2720D01*
X2000Y18161D02*
X2720D01*
X5820D02*
Y18680D01*
Y18980D02*
Y19499D01*
X5100Y18980D02*
Y19499D01*
Y18161D02*
Y18680D01*
Y18161D02*
X5820D01*
X5100Y19499D02*
X5820D01*
X6040Y19358D02*
X6520D01*
X6040Y18960D02*
Y19358D01*
X6520Y18960D02*
Y19358D01*
X6040Y18262D02*
Y18660D01*
X6520Y18262D02*
Y18660D01*
X6040Y18262D02*
X6520D01*
X12840Y25998D02*
X13320D01*
X12840Y25600D02*
Y25998D01*
X13320Y25600D02*
Y25998D01*
X12840Y24902D02*
Y25600D01*
X13320Y24902D02*
Y25610D01*
X12840Y24902D02*
X13320D01*
X12542Y23550D02*
Y24030D01*
X12144D02*
X12542D01*
X12144Y23550D02*
X12542D01*
X11445Y24030D02*
X12144D01*
X11445Y23550D02*
X12154D01*
X11445D02*
Y24030D01*
X10604Y18200D02*
Y18700D01*
X11076Y18200D02*
Y18700D01*
X10604Y18200D02*
X11076D01*
X10604Y19391D02*
X11076D01*
X10604Y19000D02*
Y19391D01*
X11076Y19000D02*
Y19391D01*
X10604Y18309D02*
X11076D01*
X11270Y19378D02*
X11750D01*
X11270Y18980D02*
Y19378D01*
X11750Y18980D02*
Y19378D01*
X11270Y18282D02*
Y18980D01*
X11750Y18282D02*
Y18990D01*
X11270Y18282D02*
X11750D01*
X13540Y24654D02*
X14020D01*
X13540Y24256D02*
Y24654D01*
X14020Y24256D02*
Y24654D01*
X13540Y23558D02*
Y24256D01*
X14020Y23558D02*
Y24266D01*
X13540Y23558D02*
X14020D01*
X14220Y24654D02*
X14700D01*
X14220Y24256D02*
Y24654D01*
X14700Y24256D02*
Y24654D01*
X14220Y23558D02*
Y24256D01*
X14700Y23558D02*
Y24266D01*
X14220Y23558D02*
X14700D01*
X12920Y19378D02*
X13400D01*
X12920Y18980D02*
Y19378D01*
X13400Y18980D02*
Y19378D01*
X12920Y18282D02*
Y18680D01*
X13400Y18282D02*
Y18680D01*
X12920Y18282D02*
X13400D01*
X12840Y23558D02*
X13320D01*
Y23956D01*
X12840Y23558D02*
Y23956D01*
X13320Y24256D02*
Y24654D01*
X12840Y24256D02*
Y24654D01*
X13320D01*
X12000Y18980D02*
Y19499D01*
Y18161D02*
Y18680D01*
X12720Y18161D02*
Y18680D01*
Y18980D02*
Y19499D01*
X12000D02*
X12720D01*
X12000Y18161D02*
X12720D01*
X15820D02*
Y18680D01*
Y18980D02*
Y19499D01*
X15100Y18980D02*
Y19499D01*
Y18161D02*
Y18680D01*
Y18161D02*
X15820D01*
X15100Y19499D02*
X15820D01*
X16040Y19358D02*
X16520D01*
X16040Y18960D02*
Y19358D01*
X16520Y18960D02*
Y19358D01*
X16040Y18262D02*
Y18660D01*
X16520Y18262D02*
Y18660D01*
X16040Y18262D02*
X16520D01*
X22840Y25998D02*
X23320D01*
X22840Y25600D02*
Y25998D01*
X23320Y25600D02*
Y25998D01*
X22840Y24902D02*
Y25600D01*
X23320Y24902D02*
Y25610D01*
X22840Y24902D02*
X23320D01*
X22542Y23550D02*
Y24030D01*
X22144D02*
X22542D01*
X22144Y23550D02*
X22542D01*
X21445Y24030D02*
X22144D01*
X21445Y23550D02*
X22154D01*
X21445D02*
Y24030D01*
X20604Y18200D02*
Y18700D01*
X21076Y18200D02*
Y18700D01*
X20604Y18200D02*
X21076D01*
X20604Y19391D02*
X21076D01*
X20604Y19000D02*
Y19391D01*
X21076Y19000D02*
Y19391D01*
X20604Y18309D02*
X21076D01*
X21270Y19378D02*
X21750D01*
X21270Y18980D02*
Y19378D01*
X21750Y18980D02*
Y19378D01*
X21270Y18282D02*
Y18980D01*
X21750Y18282D02*
Y18990D01*
X21270Y18282D02*
X21750D01*
X23540Y24654D02*
X24020D01*
X23540Y24256D02*
Y24654D01*
X24020Y24256D02*
Y24654D01*
X23540Y23558D02*
Y24256D01*
X24020Y23558D02*
Y24266D01*
X23540Y23558D02*
X24020D01*
X24220Y24654D02*
X24700D01*
X24220Y24256D02*
Y24654D01*
X24700Y24256D02*
Y24654D01*
X24220Y23558D02*
Y24256D01*
X24700Y23558D02*
Y24266D01*
X24220Y23558D02*
X24700D01*
X22920Y19378D02*
X23400D01*
X22920Y18980D02*
Y19378D01*
X23400Y18980D02*
Y19378D01*
X22920Y18282D02*
Y18680D01*
X23400Y18282D02*
Y18680D01*
X22920Y18282D02*
X23400D01*
X22840Y23558D02*
X23320D01*
Y23956D01*
X22840Y23558D02*
Y23956D01*
X23320Y24256D02*
Y24654D01*
X22840Y24256D02*
Y24654D01*
X23320D01*
X22000Y18980D02*
Y19499D01*
Y18161D02*
Y18680D01*
X22720Y18161D02*
Y18680D01*
Y18980D02*
Y19499D01*
X22000D02*
X22720D01*
X22000Y18161D02*
X22720D01*
X25820D02*
Y18680D01*
Y18980D02*
Y19499D01*
X25100Y18980D02*
Y19499D01*
Y18161D02*
Y18680D01*
Y18161D02*
X25820D01*
X25100Y19499D02*
X25820D01*
X26040Y19358D02*
X26520D01*
X26040Y18960D02*
Y19358D01*
X26520Y18960D02*
Y19358D01*
X26040Y18262D02*
Y18660D01*
X26520Y18262D02*
Y18660D01*
X26040Y18262D02*
X26520D01*
D44*
X3160Y1200D02*
Y1230D01*
Y1260D01*
X3070Y1230D02*
X3250D01*
X3080Y6506D02*
Y6536D01*
Y6476D02*
Y6506D01*
X2990D02*
X3170D01*
X2360Y1280D02*
Y1330D01*
Y1130D02*
Y1180D01*
X2210D02*
X2510D01*
X2210Y1280D02*
X2510D01*
X5460Y1130D02*
Y1180D01*
Y1280D02*
Y1330D01*
X5310Y1280D02*
X5610D01*
X5310Y1180D02*
X5610D01*
X5100Y4270D02*
Y5670D01*
Y4270D02*
X6200D01*
Y5670D01*
X5100D02*
X6200D01*
X5100Y2270D02*
Y3670D01*
Y2270D02*
X6200D01*
Y3670D01*
X5100D02*
X6200D01*
X6190Y1210D02*
X6370D01*
X6280Y1180D02*
Y1210D01*
Y1240D01*
X13160Y1200D02*
Y1230D01*
Y1260D01*
X13070Y1230D02*
X13250D01*
X13080Y6506D02*
Y6536D01*
Y6476D02*
Y6506D01*
X12990D02*
X13170D01*
X12360Y1280D02*
Y1330D01*
Y1130D02*
Y1180D01*
X12210D02*
X12510D01*
X12210Y1280D02*
X12510D01*
X15460Y1130D02*
Y1180D01*
Y1280D02*
Y1330D01*
X15310Y1280D02*
X15610D01*
X15310Y1180D02*
X15610D01*
X15100Y4270D02*
Y5670D01*
Y4270D02*
X16200D01*
Y5670D01*
X15100D02*
X16200D01*
X15100Y2270D02*
Y3670D01*
Y2270D02*
X16200D01*
Y3670D01*
X15100D02*
X16200D01*
X16190Y1210D02*
X16370D01*
X16280Y1180D02*
Y1210D01*
Y1240D01*
X23160Y1200D02*
Y1230D01*
Y1260D01*
X23070Y1230D02*
X23250D01*
X23080Y6506D02*
Y6536D01*
Y6476D02*
Y6506D01*
X22990D02*
X23170D01*
X22360Y1280D02*
Y1330D01*
Y1130D02*
Y1180D01*
X22210D02*
X22510D01*
X22210Y1280D02*
X22510D01*
X25460Y1130D02*
Y1180D01*
Y1280D02*
Y1330D01*
X25310Y1280D02*
X25610D01*
X25310Y1180D02*
X25610D01*
X25100Y4270D02*
Y5670D01*
Y4270D02*
X26200D01*
Y5670D01*
X25100D02*
X26200D01*
X25100Y2270D02*
Y3670D01*
Y2270D02*
X26200D01*
Y3670D01*
X25100D02*
X26200D01*
X26190Y1210D02*
X26370D01*
X26280Y1180D02*
Y1210D01*
Y1240D01*
X3160Y10000D02*
Y10030D01*
Y10060D01*
X3070Y10030D02*
X3250D01*
X3080Y15306D02*
Y15336D01*
Y15276D02*
Y15306D01*
X2990D02*
X3170D01*
X2360Y10080D02*
Y10130D01*
Y9930D02*
Y9980D01*
X2210D02*
X2510D01*
X2210Y10080D02*
X2510D01*
X5460Y9930D02*
Y9980D01*
Y10080D02*
Y10130D01*
X5310Y10080D02*
X5610D01*
X5310Y9980D02*
X5610D01*
X5100Y13070D02*
Y14470D01*
Y13070D02*
X6200D01*
Y14470D01*
X5100D02*
X6200D01*
X5100Y11070D02*
Y12470D01*
Y11070D02*
X6200D01*
Y12470D01*
X5100D02*
X6200D01*
X6190Y10010D02*
X6370D01*
X6280Y9980D02*
Y10010D01*
Y10040D01*
X13160Y10000D02*
Y10030D01*
Y10060D01*
X13070Y10030D02*
X13250D01*
X13080Y15306D02*
Y15336D01*
Y15276D02*
Y15306D01*
X12990D02*
X13170D01*
X12360Y10080D02*
Y10130D01*
Y9930D02*
Y9980D01*
X12210D02*
X12510D01*
X12210Y10080D02*
X12510D01*
X15460Y9930D02*
Y9980D01*
Y10080D02*
Y10130D01*
X15310Y10080D02*
X15610D01*
X15310Y9980D02*
X15610D01*
X15100Y13070D02*
Y14470D01*
Y13070D02*
X16200D01*
Y14470D01*
X15100D02*
X16200D01*
X15100Y11070D02*
Y12470D01*
Y11070D02*
X16200D01*
Y12470D01*
X15100D02*
X16200D01*
X16190Y10010D02*
X16370D01*
X16280Y9980D02*
Y10010D01*
Y10040D01*
X23160Y10000D02*
Y10030D01*
Y10060D01*
X23070Y10030D02*
X23250D01*
X23080Y15306D02*
Y15336D01*
Y15276D02*
Y15306D01*
X22990D02*
X23170D01*
X22360Y10080D02*
Y10130D01*
Y9930D02*
Y9980D01*
X22210D02*
X22510D01*
X22210Y10080D02*
X22510D01*
X25460Y9930D02*
Y9980D01*
Y10080D02*
Y10130D01*
X25310Y10080D02*
X25610D01*
X25310Y9980D02*
X25610D01*
X25100Y13070D02*
Y14470D01*
Y13070D02*
X26200D01*
Y14470D01*
X25100D02*
X26200D01*
X25100Y11070D02*
Y12470D01*
Y11070D02*
X26200D01*
Y12470D01*
X25100D02*
X26200D01*
X26190Y10010D02*
X26370D01*
X26280Y9980D02*
Y10010D01*
Y10040D01*
X3160Y18800D02*
Y18830D01*
Y18860D01*
X3070Y18830D02*
X3250D01*
X3080Y24106D02*
Y24136D01*
Y24076D02*
Y24106D01*
X2990D02*
X3170D01*
X2360Y18880D02*
Y18930D01*
Y18730D02*
Y18780D01*
X2210D02*
X2510D01*
X2210Y18880D02*
X2510D01*
X5460Y18730D02*
Y18780D01*
Y18880D02*
Y18930D01*
X5310Y18880D02*
X5610D01*
X5310Y18780D02*
X5610D01*
X5100Y21870D02*
Y23270D01*
Y21870D02*
X6200D01*
Y23270D01*
X5100D02*
X6200D01*
X5100Y19870D02*
Y21270D01*
Y19870D02*
X6200D01*
Y21270D01*
X5100D02*
X6200D01*
X6190Y18810D02*
X6370D01*
X6280Y18780D02*
Y18810D01*
Y18840D01*
X13160Y18800D02*
Y18830D01*
Y18860D01*
X13070Y18830D02*
X13250D01*
X13080Y24106D02*
Y24136D01*
Y24076D02*
Y24106D01*
X12990D02*
X13170D01*
X12360Y18880D02*
Y18930D01*
Y18730D02*
Y18780D01*
X12210D02*
X12510D01*
X12210Y18880D02*
X12510D01*
X15460Y18730D02*
Y18780D01*
Y18880D02*
Y18930D01*
X15310Y18880D02*
X15610D01*
X15310Y18780D02*
X15610D01*
X15100Y21870D02*
Y23270D01*
Y21870D02*
X16200D01*
Y23270D01*
X15100D02*
X16200D01*
X15100Y19870D02*
Y21270D01*
Y19870D02*
X16200D01*
Y21270D01*
X15100D02*
X16200D01*
X16190Y18810D02*
X16370D01*
X16280Y18780D02*
Y18810D01*
Y18840D01*
X23160Y18800D02*
Y18830D01*
Y18860D01*
X23070Y18830D02*
X23250D01*
X23080Y24106D02*
Y24136D01*
Y24076D02*
Y24106D01*
X22990D02*
X23170D01*
X22360Y18880D02*
Y18930D01*
Y18730D02*
Y18780D01*
X22210D02*
X22510D01*
X22210Y18880D02*
X22510D01*
X25460Y18730D02*
Y18780D01*
Y18880D02*
Y18930D01*
X25310Y18880D02*
X25610D01*
X25310Y18780D02*
X25610D01*
X25100Y21870D02*
Y23270D01*
Y21870D02*
X26200D01*
Y23270D01*
X25100D02*
X26200D01*
X25100Y19870D02*
Y21270D01*
Y19870D02*
X26200D01*
Y21270D01*
X25100D02*
X26200D01*
X26190Y18810D02*
X26370D01*
X26280Y18780D02*
Y18810D01*
Y18840D01*
M02*
