G04*
G04 #@! TF.GenerationSoftware,Altium Limited,Altium Designer,20.2.6 (244)*
G04*
G04 Layer_Physical_Order=2*
G04 Layer_Color=16711680*
%FSLAX24Y24*%
%MOIN*%
G70*
G04*
G04 #@! TF.SameCoordinates,F166DB8F-6D7D-4CC1-83E2-008E4038BE53*
G04*
G04*
G04 #@! TF.FilePolarity,Positive*
G04*
G01*
G75*
%ADD25C,0.0130*%
%ADD26C,0.0157*%
%ADD27C,0.0472*%
%ADD28C,0.0100*%
%ADD29C,0.0118*%
%ADD31C,0.0591*%
%ADD32C,0.0256*%
%ADD33C,0.0669*%
%ADD34R,0.0669X0.0669*%
%ADD35C,0.0236*%
%ADD36C,0.0315*%
%ADD37R,0.0787X0.0787*%
%ADD38R,0.0787X0.0591*%
%ADD39C,0.0787*%
%ADD40R,0.0354X0.0787*%
G36*
X26886Y25886D02*
X26886Y25886D01*
X26939Y25852D01*
X27000Y25839D01*
X27047D01*
Y25047D01*
X27283D01*
X27315Y25009D01*
X27313Y25000D01*
X27328Y24928D01*
X27324Y24917D01*
X27272Y24895D01*
X27177Y24823D01*
X27105Y24728D01*
X27059Y24618D01*
X27043Y24500D01*
X27059Y24382D01*
X27105Y24272D01*
X27177Y24177D01*
X27272Y24105D01*
X27324Y24083D01*
X27328Y24072D01*
X27313Y24000D01*
X27328Y23929D01*
X27324Y23917D01*
X27272Y23895D01*
X27177Y23823D01*
X27105Y23728D01*
X27059Y23618D01*
X27043Y23500D01*
X27059Y23382D01*
X27105Y23272D01*
X27157Y23204D01*
X27150Y23139D01*
X27140Y23132D01*
X27099Y23071D01*
X27085Y23000D01*
X27099Y22929D01*
X27140Y22868D01*
X27150Y22861D01*
X27157Y22796D01*
X27105Y22728D01*
X27059Y22618D01*
X27043Y22500D01*
X27059Y22382D01*
X27105Y22272D01*
X27177Y22177D01*
X27272Y22105D01*
X27382Y22059D01*
X27500Y22043D01*
Y21957D01*
X27382Y21941D01*
X27272Y21895D01*
X27177Y21823D01*
X27105Y21728D01*
X27059Y21618D01*
X27043Y21500D01*
X27059Y21382D01*
X27105Y21272D01*
X27177Y21177D01*
X27272Y21105D01*
X27382Y21059D01*
X27500Y21043D01*
Y20957D01*
X27382Y20941D01*
X27272Y20895D01*
X27177Y20823D01*
X27105Y20728D01*
X27059Y20618D01*
X27043Y20500D01*
X27059Y20382D01*
X27105Y20272D01*
X27135Y20231D01*
X27113Y20187D01*
X27050D01*
X26979Y20172D01*
X26918Y20132D01*
X26353Y19567D01*
X25870D01*
X25799Y19552D01*
X25783Y19542D01*
X25752Y19555D01*
X25660Y19567D01*
X25260D01*
X25168Y19555D01*
X25081Y19520D01*
X25007Y19463D01*
X24950Y19389D01*
X24916Y19305D01*
X24900Y19298D01*
X24865Y19287D01*
X24833Y19309D01*
X24818Y19387D01*
X24765Y19465D01*
X24687Y19518D01*
X24595Y19536D01*
X24503Y19518D01*
X24425Y19465D01*
X24372Y19387D01*
X24354Y19295D01*
X24372Y19203D01*
X24425Y19125D01*
X24503Y19072D01*
X24582Y19057D01*
Y18767D01*
X24425D01*
Y18777D01*
X24412Y18842D01*
X24374Y18898D01*
X22661Y20611D01*
Y22480D01*
X22648Y22546D01*
X22611Y22601D01*
X22543Y22670D01*
X22459Y22756D01*
X22439Y22779D01*
X22433Y22814D01*
X22380Y22892D01*
X22302Y22944D01*
X22210Y22962D01*
X22118Y22944D01*
X22040Y22892D01*
X21987Y22814D01*
X21969Y22722D01*
X21987Y22629D01*
X22040Y22551D01*
X22118Y22499D01*
X22210Y22481D01*
X22220Y22483D01*
X22221Y22482D01*
X22231Y22477D01*
X22245Y22469D01*
X22260Y22458D01*
X22319Y22408D01*
Y21737D01*
X22269Y21699D01*
X22210Y21711D01*
X22179Y21705D01*
X22122Y21744D01*
X22113Y21790D01*
X22060Y21868D01*
X22044Y21879D01*
Y21929D01*
X22060Y21940D01*
X22113Y22018D01*
X22131Y22110D01*
X22113Y22202D01*
X22060Y22280D01*
X21982Y22333D01*
X21890Y22351D01*
X21798Y22333D01*
X21720Y22280D01*
X21667Y22202D01*
X21654Y22133D01*
X21653Y22132D01*
X21650Y22126D01*
X21560Y22022D01*
X21359Y21821D01*
X21322Y21766D01*
X21309Y21700D01*
Y19471D01*
X21322Y19406D01*
X21359Y19350D01*
X21910Y18799D01*
X21889Y18749D01*
X21812D01*
Y18255D01*
X21753D01*
Y18196D01*
X21476D01*
Y17761D01*
X21426Y17761D01*
X20467D01*
X20161Y18067D01*
Y22957D01*
X20541D01*
X20569Y22890D01*
X20652Y22783D01*
X20758Y22701D01*
X20883Y22649D01*
X21017Y22632D01*
X21150Y22649D01*
X21275Y22701D01*
X21382Y22783D01*
X21464Y22890D01*
X21515Y23014D01*
X21533Y23148D01*
X21515Y23281D01*
X21464Y23406D01*
X21382Y23513D01*
X21275Y23595D01*
X21157Y23643D01*
Y23784D01*
X20161D01*
Y25933D01*
X20467Y26239D01*
X21026D01*
Y25233D01*
X22049D01*
Y26239D01*
X24963D01*
Y26039D01*
X24945Y26024D01*
X24849Y26005D01*
X24767Y25951D01*
X24713Y25869D01*
X24694Y25773D01*
X24713Y25677D01*
X24767Y25596D01*
X24849Y25542D01*
X24945Y25522D01*
X24963Y25508D01*
Y25301D01*
X24550D01*
X24473Y25285D01*
X24408Y25242D01*
X24208Y25042D01*
X24191Y25017D01*
X24141Y25032D01*
Y25075D01*
X24142Y25095D01*
X24142Y25098D01*
X24163Y25130D01*
X24182Y25222D01*
X24163Y25314D01*
X24111Y25392D01*
X24033Y25445D01*
X23941Y25463D01*
X23849Y25445D01*
X23770Y25392D01*
X23718Y25314D01*
X23700Y25222D01*
X23718Y25130D01*
X23737Y25101D01*
X23740Y24974D01*
Y23991D01*
X22447D01*
X22427Y23991D01*
X22424Y23991D01*
X22392Y24013D01*
X22300Y24031D01*
X22207Y24013D01*
X22129Y23960D01*
X22077Y23882D01*
X22059Y23790D01*
X22077Y23698D01*
X22129Y23620D01*
X22207Y23567D01*
X22300Y23549D01*
X22392Y23567D01*
X22421Y23587D01*
X22548Y23589D01*
X23740D01*
Y21279D01*
X23755Y21202D01*
X23799Y21137D01*
X24648Y20288D01*
X24713Y20245D01*
X24790Y20229D01*
X25380D01*
X25457Y20245D01*
X25522Y20288D01*
X25622Y20388D01*
X25665Y20453D01*
X25681Y20530D01*
Y20929D01*
X25665Y21006D01*
X25622Y21071D01*
X25565Y21128D01*
X25558Y21166D01*
X25505Y21244D01*
X25427Y21296D01*
X25335Y21315D01*
X25243Y21296D01*
X25165Y21244D01*
X25113Y21166D01*
X25096Y21086D01*
X25063Y21069D01*
X25045Y21066D01*
X24551Y21561D01*
Y24817D01*
X24633Y24899D01*
X25133D01*
X25152Y24899D01*
X25156Y24899D01*
X25188Y24877D01*
X25280Y24859D01*
X25372Y24877D01*
X25450Y24930D01*
X25503Y25008D01*
X25521Y25100D01*
X25504Y25183D01*
X25531Y25233D01*
X25986D01*
Y26239D01*
X26533D01*
X26886Y25886D01*
D02*
G37*
G36*
X16886D02*
X16886Y25886D01*
X16939Y25852D01*
X17000Y25839D01*
X17047D01*
Y25047D01*
X17283D01*
X17315Y25009D01*
X17313Y25000D01*
X17328Y24928D01*
X17324Y24917D01*
X17272Y24895D01*
X17177Y24823D01*
X17105Y24728D01*
X17059Y24618D01*
X17043Y24500D01*
X17059Y24382D01*
X17105Y24272D01*
X17177Y24177D01*
X17272Y24105D01*
X17324Y24083D01*
X17328Y24072D01*
X17313Y24000D01*
X17328Y23929D01*
X17324Y23917D01*
X17272Y23895D01*
X17177Y23823D01*
X17105Y23728D01*
X17059Y23618D01*
X17043Y23500D01*
X17059Y23382D01*
X17105Y23272D01*
X17157Y23204D01*
X17150Y23139D01*
X17140Y23132D01*
X17099Y23071D01*
X17085Y23000D01*
X17099Y22929D01*
X17140Y22868D01*
X17150Y22861D01*
X17157Y22796D01*
X17105Y22728D01*
X17059Y22618D01*
X17043Y22500D01*
X17059Y22382D01*
X17105Y22272D01*
X17177Y22177D01*
X17272Y22105D01*
X17382Y22059D01*
X17500Y22043D01*
Y21957D01*
X17382Y21941D01*
X17272Y21895D01*
X17177Y21823D01*
X17105Y21728D01*
X17059Y21618D01*
X17043Y21500D01*
X17059Y21382D01*
X17105Y21272D01*
X17177Y21177D01*
X17272Y21105D01*
X17382Y21059D01*
X17500Y21043D01*
Y20957D01*
X17382Y20941D01*
X17272Y20895D01*
X17177Y20823D01*
X17105Y20728D01*
X17059Y20618D01*
X17043Y20500D01*
X17059Y20382D01*
X17105Y20272D01*
X17135Y20231D01*
X17113Y20187D01*
X17050D01*
X16979Y20172D01*
X16918Y20132D01*
X16353Y19567D01*
X15870D01*
X15799Y19552D01*
X15783Y19542D01*
X15753Y19555D01*
X15660Y19567D01*
X15260D01*
X15167Y19555D01*
X15081Y19520D01*
X15007Y19463D01*
X14950Y19389D01*
X14916Y19305D01*
X14900Y19298D01*
X14865Y19287D01*
X14833Y19309D01*
X14818Y19387D01*
X14765Y19465D01*
X14687Y19518D01*
X14595Y19536D01*
X14503Y19518D01*
X14425Y19465D01*
X14372Y19387D01*
X14354Y19295D01*
X14372Y19203D01*
X14425Y19125D01*
X14503Y19072D01*
X14582Y19057D01*
Y18767D01*
X14425D01*
Y18777D01*
X14412Y18842D01*
X14374Y18898D01*
X12661Y20611D01*
Y22480D01*
X12648Y22546D01*
X12611Y22601D01*
X12543Y22670D01*
X12459Y22756D01*
X12439Y22779D01*
X12433Y22814D01*
X12380Y22892D01*
X12302Y22944D01*
X12210Y22962D01*
X12118Y22944D01*
X12040Y22892D01*
X11987Y22814D01*
X11969Y22722D01*
X11987Y22629D01*
X12040Y22551D01*
X12118Y22499D01*
X12210Y22481D01*
X12220Y22483D01*
X12221Y22482D01*
X12231Y22477D01*
X12245Y22469D01*
X12260Y22458D01*
X12319Y22408D01*
Y21737D01*
X12269Y21699D01*
X12210Y21711D01*
X12179Y21705D01*
X12122Y21744D01*
X12113Y21790D01*
X12060Y21868D01*
X12044Y21879D01*
Y21929D01*
X12060Y21940D01*
X12113Y22018D01*
X12131Y22110D01*
X12113Y22202D01*
X12060Y22280D01*
X11982Y22333D01*
X11890Y22351D01*
X11798Y22333D01*
X11720Y22280D01*
X11667Y22202D01*
X11654Y22133D01*
X11653Y22132D01*
X11650Y22126D01*
X11560Y22022D01*
X11359Y21821D01*
X11322Y21766D01*
X11309Y21700D01*
Y19471D01*
X11322Y19406D01*
X11359Y19350D01*
X11910Y18799D01*
X11889Y18749D01*
X11812D01*
Y18255D01*
X11753D01*
Y18196D01*
X11476D01*
Y17761D01*
X11426Y17761D01*
X10467D01*
X10161Y18067D01*
Y22957D01*
X10541D01*
X10569Y22890D01*
X10652Y22783D01*
X10758Y22701D01*
X10883Y22649D01*
X11017Y22632D01*
X11150Y22649D01*
X11275Y22701D01*
X11382Y22783D01*
X11464Y22890D01*
X11515Y23014D01*
X11533Y23148D01*
X11515Y23281D01*
X11464Y23406D01*
X11382Y23513D01*
X11275Y23595D01*
X11157Y23643D01*
Y23784D01*
X10161D01*
Y25933D01*
X10467Y26239D01*
X11026D01*
Y25233D01*
X12049D01*
Y26239D01*
X14963D01*
Y26039D01*
X14945Y26024D01*
X14849Y26005D01*
X14767Y25951D01*
X14713Y25869D01*
X14694Y25773D01*
X14713Y25677D01*
X14767Y25596D01*
X14849Y25542D01*
X14945Y25522D01*
X14963Y25508D01*
Y25301D01*
X14550D01*
X14473Y25285D01*
X14408Y25242D01*
X14208Y25042D01*
X14191Y25017D01*
X14141Y25032D01*
Y25075D01*
X14142Y25095D01*
X14142Y25098D01*
X14163Y25130D01*
X14182Y25222D01*
X14163Y25314D01*
X14111Y25392D01*
X14033Y25445D01*
X13941Y25463D01*
X13849Y25445D01*
X13770Y25392D01*
X13718Y25314D01*
X13700Y25222D01*
X13718Y25130D01*
X13737Y25101D01*
X13740Y24974D01*
Y23991D01*
X12447D01*
X12427Y23991D01*
X12424Y23991D01*
X12392Y24013D01*
X12300Y24031D01*
X12207Y24013D01*
X12129Y23960D01*
X12077Y23882D01*
X12059Y23790D01*
X12077Y23698D01*
X12129Y23620D01*
X12207Y23567D01*
X12300Y23549D01*
X12392Y23567D01*
X12421Y23587D01*
X12548Y23589D01*
X13740D01*
Y21279D01*
X13755Y21202D01*
X13799Y21137D01*
X14648Y20288D01*
X14713Y20245D01*
X14790Y20229D01*
X15380D01*
X15457Y20245D01*
X15522Y20288D01*
X15622Y20388D01*
X15665Y20453D01*
X15681Y20530D01*
Y20929D01*
X15665Y21006D01*
X15622Y21071D01*
X15565Y21128D01*
X15558Y21166D01*
X15505Y21244D01*
X15427Y21296D01*
X15335Y21315D01*
X15243Y21296D01*
X15165Y21244D01*
X15113Y21166D01*
X15096Y21086D01*
X15063Y21069D01*
X15045Y21066D01*
X14551Y21561D01*
Y24817D01*
X14633Y24899D01*
X15133D01*
X15152Y24899D01*
X15156Y24899D01*
X15188Y24877D01*
X15280Y24859D01*
X15372Y24877D01*
X15450Y24930D01*
X15503Y25008D01*
X15521Y25100D01*
X15504Y25183D01*
X15531Y25233D01*
X15986D01*
Y26239D01*
X16533D01*
X16886Y25886D01*
D02*
G37*
G36*
X6886D02*
X6886Y25886D01*
X6939Y25852D01*
X7000Y25839D01*
X7047D01*
Y25047D01*
X7283D01*
X7315Y25009D01*
X7313Y25000D01*
X7328Y24928D01*
X7324Y24917D01*
X7272Y24895D01*
X7177Y24823D01*
X7105Y24728D01*
X7059Y24618D01*
X7043Y24500D01*
X7059Y24382D01*
X7105Y24272D01*
X7177Y24177D01*
X7272Y24105D01*
X7324Y24083D01*
X7328Y24072D01*
X7313Y24000D01*
X7328Y23929D01*
X7324Y23917D01*
X7272Y23895D01*
X7177Y23823D01*
X7105Y23728D01*
X7059Y23618D01*
X7043Y23500D01*
X7059Y23382D01*
X7105Y23272D01*
X7157Y23204D01*
X7150Y23139D01*
X7140Y23132D01*
X7099Y23071D01*
X7085Y23000D01*
X7099Y22929D01*
X7140Y22868D01*
X7150Y22861D01*
X7157Y22796D01*
X7105Y22728D01*
X7059Y22618D01*
X7043Y22500D01*
X7059Y22382D01*
X7105Y22272D01*
X7177Y22177D01*
X7272Y22105D01*
X7382Y22059D01*
X7500Y22043D01*
Y21957D01*
X7382Y21941D01*
X7272Y21895D01*
X7177Y21823D01*
X7105Y21728D01*
X7059Y21618D01*
X7043Y21500D01*
X7059Y21382D01*
X7105Y21272D01*
X7177Y21177D01*
X7272Y21105D01*
X7382Y21059D01*
X7500Y21043D01*
Y20957D01*
X7382Y20941D01*
X7272Y20895D01*
X7177Y20823D01*
X7105Y20728D01*
X7059Y20618D01*
X7043Y20500D01*
X7059Y20382D01*
X7105Y20272D01*
X7135Y20231D01*
X7113Y20187D01*
X7050D01*
X6979Y20172D01*
X6918Y20132D01*
X6353Y19567D01*
X5870D01*
X5799Y19552D01*
X5783Y19542D01*
X5753Y19555D01*
X5660Y19567D01*
X5260D01*
X5167Y19555D01*
X5081Y19520D01*
X5007Y19463D01*
X4950Y19389D01*
X4916Y19305D01*
X4900Y19298D01*
X4865Y19287D01*
X4833Y19309D01*
X4818Y19387D01*
X4765Y19465D01*
X4687Y19518D01*
X4595Y19536D01*
X4503Y19518D01*
X4425Y19465D01*
X4372Y19387D01*
X4354Y19295D01*
X4372Y19203D01*
X4425Y19125D01*
X4503Y19072D01*
X4582Y19057D01*
Y18767D01*
X4425D01*
Y18777D01*
X4412Y18842D01*
X4374Y18898D01*
X2661Y20611D01*
Y22480D01*
X2648Y22546D01*
X2611Y22601D01*
X2543Y22670D01*
X2459Y22756D01*
X2439Y22779D01*
X2433Y22814D01*
X2380Y22892D01*
X2302Y22944D01*
X2210Y22962D01*
X2118Y22944D01*
X2040Y22892D01*
X1987Y22814D01*
X1969Y22722D01*
X1987Y22629D01*
X2040Y22551D01*
X2118Y22499D01*
X2210Y22481D01*
X2220Y22483D01*
X2221Y22482D01*
X2231Y22477D01*
X2245Y22469D01*
X2260Y22458D01*
X2319Y22408D01*
Y21737D01*
X2269Y21699D01*
X2210Y21711D01*
X2179Y21705D01*
X2122Y21744D01*
X2113Y21790D01*
X2060Y21868D01*
X2044Y21879D01*
Y21929D01*
X2060Y21940D01*
X2113Y22018D01*
X2131Y22110D01*
X2113Y22202D01*
X2060Y22280D01*
X1982Y22333D01*
X1890Y22351D01*
X1798Y22333D01*
X1720Y22280D01*
X1667Y22202D01*
X1654Y22133D01*
X1653Y22132D01*
X1650Y22126D01*
X1560Y22022D01*
X1359Y21821D01*
X1322Y21766D01*
X1309Y21700D01*
Y19471D01*
X1322Y19406D01*
X1359Y19350D01*
X1910Y18799D01*
X1889Y18749D01*
X1812D01*
Y18255D01*
X1753D01*
Y18196D01*
X1476D01*
Y17761D01*
X1426Y17761D01*
X467D01*
X161Y18067D01*
Y22957D01*
X541D01*
X569Y22890D01*
X652Y22783D01*
X758Y22701D01*
X883Y22649D01*
X1017Y22632D01*
X1150Y22649D01*
X1275Y22701D01*
X1382Y22783D01*
X1464Y22890D01*
X1515Y23014D01*
X1533Y23148D01*
X1515Y23281D01*
X1464Y23406D01*
X1382Y23513D01*
X1275Y23595D01*
X1157Y23643D01*
Y23784D01*
X161D01*
Y25933D01*
X467Y26239D01*
X1026D01*
Y25233D01*
X2049D01*
Y26239D01*
X4963D01*
Y26039D01*
X4945Y26024D01*
X4849Y26005D01*
X4767Y25951D01*
X4713Y25869D01*
X4694Y25773D01*
X4713Y25677D01*
X4767Y25596D01*
X4849Y25542D01*
X4945Y25522D01*
X4963Y25508D01*
Y25301D01*
X4550D01*
X4473Y25285D01*
X4408Y25242D01*
X4208Y25042D01*
X4191Y25017D01*
X4141Y25032D01*
Y25075D01*
X4142Y25095D01*
X4142Y25098D01*
X4163Y25130D01*
X4182Y25222D01*
X4163Y25314D01*
X4111Y25392D01*
X4033Y25445D01*
X3941Y25463D01*
X3849Y25445D01*
X3770Y25392D01*
X3718Y25314D01*
X3700Y25222D01*
X3718Y25130D01*
X3737Y25101D01*
X3740Y24974D01*
Y23991D01*
X2447D01*
X2427Y23991D01*
X2424Y23991D01*
X2392Y24013D01*
X2300Y24031D01*
X2207Y24013D01*
X2129Y23960D01*
X2077Y23882D01*
X2059Y23790D01*
X2077Y23698D01*
X2129Y23620D01*
X2207Y23567D01*
X2300Y23549D01*
X2392Y23567D01*
X2421Y23587D01*
X2548Y23589D01*
X3740D01*
Y21279D01*
X3755Y21202D01*
X3799Y21137D01*
X4648Y20288D01*
X4713Y20245D01*
X4790Y20229D01*
X5380D01*
X5457Y20245D01*
X5522Y20288D01*
X5622Y20388D01*
X5665Y20453D01*
X5681Y20530D01*
Y20929D01*
X5665Y21006D01*
X5622Y21071D01*
X5565Y21128D01*
X5558Y21166D01*
X5505Y21244D01*
X5427Y21296D01*
X5335Y21315D01*
X5243Y21296D01*
X5165Y21244D01*
X5113Y21166D01*
X5096Y21086D01*
X5063Y21069D01*
X5045Y21066D01*
X4551Y21561D01*
Y24817D01*
X4633Y24899D01*
X5133D01*
X5152Y24899D01*
X5156Y24899D01*
X5188Y24877D01*
X5280Y24859D01*
X5372Y24877D01*
X5450Y24930D01*
X5503Y25008D01*
X5521Y25100D01*
X5504Y25183D01*
X5531Y25233D01*
X5986D01*
Y26239D01*
X6533D01*
X6886Y25886D01*
D02*
G37*
G36*
X25197Y25016D02*
X25193Y25017D01*
X25185Y25018D01*
X25156Y25020D01*
X24956Y25021D01*
Y25179D01*
X25197Y25184D01*
Y25016D01*
D02*
G37*
G36*
X15197D02*
X15193Y25017D01*
X15185Y25018D01*
X15156Y25020D01*
X14956Y25021D01*
Y25179D01*
X15197Y25184D01*
Y25016D01*
D02*
G37*
G36*
X5197D02*
X5193Y25017D01*
X5185Y25018D01*
X5156Y25020D01*
X4956Y25021D01*
Y25179D01*
X5197Y25184D01*
Y25016D01*
D02*
G37*
G36*
X24023Y25135D02*
X24023Y25128D01*
X24021Y25098D01*
X24019Y24898D01*
X23862D01*
X23857Y25139D01*
X24024D01*
X24023Y25135D01*
D02*
G37*
G36*
X14023D02*
X14023Y25128D01*
X14021Y25098D01*
X14019Y24898D01*
X13862D01*
X13857Y25139D01*
X14024D01*
X14023Y25135D01*
D02*
G37*
G36*
X4023D02*
X4023Y25128D01*
X4021Y25098D01*
X4019Y24898D01*
X3862D01*
X3857Y25139D01*
X4024D01*
X4023Y25135D01*
D02*
G37*
G36*
X22386Y23873D02*
X22394Y23872D01*
X22424Y23870D01*
X22624Y23869D01*
Y23711D01*
X22383Y23706D01*
Y23874D01*
X22386Y23873D01*
D02*
G37*
G36*
X12386D02*
X12394Y23872D01*
X12424Y23870D01*
X12624Y23869D01*
Y23711D01*
X12383Y23706D01*
Y23874D01*
X12386Y23873D01*
D02*
G37*
G36*
X2386D02*
X2394Y23872D01*
X2424Y23870D01*
X2624Y23869D01*
Y23711D01*
X2383Y23706D01*
Y23874D01*
X2386Y23873D01*
D02*
G37*
G36*
X22330Y22726D02*
X22335Y22717D01*
X22343Y22706D01*
X22370Y22675D01*
X22495Y22546D01*
X22443Y22456D01*
X22413Y22485D01*
X22334Y22553D01*
X22311Y22570D01*
X22289Y22583D01*
X22269Y22593D01*
X22251Y22600D01*
X22234Y22603D01*
X22219Y22604D01*
X22328Y22731D01*
X22330Y22726D01*
D02*
G37*
G36*
X12330D02*
X12335Y22717D01*
X12343Y22706D01*
X12370Y22675D01*
X12495Y22546D01*
X12443Y22456D01*
X12413Y22485D01*
X12334Y22553D01*
X12311Y22570D01*
X12289Y22583D01*
X12269Y22593D01*
X12251Y22600D01*
X12234Y22603D01*
X12219Y22604D01*
X12328Y22731D01*
X12330Y22726D01*
D02*
G37*
G36*
X2330D02*
X2335Y22717D01*
X2343Y22706D01*
X2370Y22675D01*
X2495Y22546D01*
X2443Y22456D01*
X2413Y22485D01*
X2334Y22553D01*
X2310Y22570D01*
X2289Y22583D01*
X2269Y22593D01*
X2251Y22600D01*
X2234Y22603D01*
X2219Y22604D01*
X2328Y22731D01*
X2330Y22726D01*
D02*
G37*
G36*
X21890Y21992D02*
X21879Y21990D01*
X21867Y21985D01*
X21851Y21977D01*
X21834Y21966D01*
X21814Y21952D01*
X21768Y21914D01*
X21714Y21862D01*
X21683Y21832D01*
X21612Y21903D01*
X21642Y21934D01*
X21746Y22054D01*
X21757Y22071D01*
X21765Y22087D01*
X21770Y22099D01*
X21772Y22110D01*
X21890Y21992D01*
D02*
G37*
G36*
X11890D02*
X11879Y21990D01*
X11867Y21985D01*
X11851Y21977D01*
X11834Y21966D01*
X11814Y21952D01*
X11768Y21914D01*
X11714Y21862D01*
X11683Y21832D01*
X11612Y21903D01*
X11642Y21934D01*
X11746Y22054D01*
X11757Y22071D01*
X11765Y22087D01*
X11770Y22099D01*
X11772Y22110D01*
X11890Y21992D01*
D02*
G37*
G36*
X1890D02*
X1879Y21990D01*
X1867Y21985D01*
X1851Y21977D01*
X1834Y21966D01*
X1814Y21952D01*
X1768Y21914D01*
X1714Y21862D01*
X1683Y21832D01*
X1612Y21903D01*
X1642Y21934D01*
X1746Y22054D01*
X1757Y22071D01*
X1765Y22087D01*
X1770Y22099D01*
X1772Y22110D01*
X1890Y21992D01*
D02*
G37*
G36*
X21899Y21580D02*
X21886Y21578D01*
X21872Y21574D01*
X21857Y21567D01*
X21840Y21558D01*
X21823Y21546D01*
X21804Y21532D01*
X21762Y21497D01*
X21715Y21453D01*
X21645Y21523D01*
X21668Y21547D01*
X21724Y21612D01*
X21738Y21631D01*
X21750Y21648D01*
X21759Y21665D01*
X21766Y21680D01*
X21770Y21694D01*
X21772Y21707D01*
X21899Y21580D01*
D02*
G37*
G36*
X11899D02*
X11886Y21578D01*
X11872Y21574D01*
X11857Y21567D01*
X11840Y21558D01*
X11823Y21546D01*
X11804Y21532D01*
X11762Y21497D01*
X11715Y21453D01*
X11645Y21523D01*
X11668Y21547D01*
X11724Y21612D01*
X11738Y21631D01*
X11750Y21648D01*
X11759Y21665D01*
X11766Y21680D01*
X11770Y21694D01*
X11772Y21707D01*
X11899Y21580D01*
D02*
G37*
G36*
X1899D02*
X1886Y21578D01*
X1872Y21574D01*
X1857Y21567D01*
X1840Y21558D01*
X1823Y21546D01*
X1804Y21532D01*
X1762Y21497D01*
X1715Y21453D01*
X1645Y21523D01*
X1668Y21547D01*
X1724Y21612D01*
X1738Y21631D01*
X1750Y21648D01*
X1759Y21665D01*
X1766Y21680D01*
X1770Y21694D01*
X1772Y21707D01*
X1899Y21580D01*
D02*
G37*
G36*
X22210Y21352D02*
X22199Y21350D01*
X22187Y21345D01*
X22171Y21337D01*
X22154Y21326D01*
X22134Y21312D01*
X22088Y21274D01*
X22034Y21222D01*
X22003Y21192D01*
X21932Y21263D01*
X21962Y21294D01*
X22066Y21414D01*
X22077Y21431D01*
X22085Y21447D01*
X22090Y21459D01*
X22092Y21470D01*
X22210Y21352D01*
D02*
G37*
G36*
X12210D02*
X12199Y21350D01*
X12187Y21345D01*
X12171Y21337D01*
X12154Y21326D01*
X12134Y21312D01*
X12088Y21274D01*
X12034Y21222D01*
X12003Y21192D01*
X11932Y21263D01*
X11962Y21294D01*
X12066Y21414D01*
X12077Y21431D01*
X12085Y21447D01*
X12090Y21459D01*
X12092Y21470D01*
X12210Y21352D01*
D02*
G37*
G36*
X2210D02*
X2199Y21350D01*
X2187Y21345D01*
X2171Y21337D01*
X2154Y21326D01*
X2134Y21312D01*
X2088Y21274D01*
X2034Y21222D01*
X2003Y21192D01*
X1932Y21263D01*
X1962Y21294D01*
X2066Y21414D01*
X2077Y21431D01*
X2085Y21447D01*
X2090Y21459D01*
X2092Y21470D01*
X2210Y21352D01*
D02*
G37*
G36*
X25100Y20846D02*
X24982Y20727D01*
X24980Y20730D01*
X24975Y20737D01*
X24955Y20758D01*
X24815Y20901D01*
X24926Y21012D01*
X25100Y20846D01*
D02*
G37*
G36*
X15100D02*
X14982Y20727D01*
X14980Y20730D01*
X14975Y20737D01*
X14955Y20758D01*
X14815Y20901D01*
X14926Y21012D01*
X15100Y20846D01*
D02*
G37*
G36*
X5100D02*
X4982Y20727D01*
X4980Y20730D01*
X4975Y20737D01*
X4955Y20758D01*
X4815Y20901D01*
X4926Y21012D01*
X5100Y20846D01*
D02*
G37*
G36*
X22289Y20920D02*
X22285Y20908D01*
X22281Y20893D01*
X22278Y20874D01*
X22273Y20823D01*
X22269Y20716D01*
X22269Y20671D01*
X22151D01*
X22151Y20716D01*
X22139Y20893D01*
X22135Y20908D01*
X22131Y20920D01*
X22126Y20927D01*
X22294D01*
X22289Y20920D01*
D02*
G37*
G36*
X12289D02*
X12285Y20908D01*
X12281Y20893D01*
X12278Y20874D01*
X12273Y20823D01*
X12269Y20716D01*
X12269Y20671D01*
X12151D01*
X12151Y20716D01*
X12139Y20893D01*
X12135Y20908D01*
X12131Y20920D01*
X12126Y20927D01*
X12294D01*
X12289Y20920D01*
D02*
G37*
G36*
X2289D02*
X2285Y20908D01*
X2281Y20893D01*
X2278Y20874D01*
X2273Y20823D01*
X2269Y20716D01*
X2269Y20671D01*
X2151D01*
X2151Y20716D01*
X2139Y20893D01*
X2135Y20908D01*
X2131Y20920D01*
X2126Y20927D01*
X2294D01*
X2289Y20920D01*
D02*
G37*
G36*
X28291Y19791D02*
X28259Y19818D01*
X28218Y19843D01*
X28171Y19864D01*
X28115Y19883D01*
X28052Y19899D01*
X27981Y19912D01*
X27903Y19922D01*
X27723Y19934D01*
X27621Y19935D01*
Y20065D01*
X27723Y20066D01*
X27981Y20088D01*
X28052Y20101D01*
X28115Y20117D01*
X28171Y20136D01*
X28218Y20157D01*
X28259Y20182D01*
X28291Y20209D01*
Y19791D01*
D02*
G37*
G36*
X18291D02*
X18259Y19818D01*
X18218Y19843D01*
X18171Y19864D01*
X18115Y19883D01*
X18052Y19899D01*
X17981Y19912D01*
X17903Y19922D01*
X17723Y19934D01*
X17621Y19935D01*
Y20065D01*
X17723Y20066D01*
X17981Y20088D01*
X18052Y20101D01*
X18115Y20117D01*
X18171Y20136D01*
X18218Y20157D01*
X18259Y20182D01*
X18291Y20209D01*
Y19791D01*
D02*
G37*
G36*
X8291D02*
X8259Y19818D01*
X8218Y19843D01*
X8171Y19864D01*
X8115Y19883D01*
X8052Y19899D01*
X7981Y19912D01*
X7903Y19922D01*
X7723Y19934D01*
X7621Y19935D01*
Y20065D01*
X7723Y20066D01*
X7981Y20088D01*
X8052Y20101D01*
X8115Y20117D01*
X8171Y20136D01*
X8218Y20157D01*
X8259Y20182D01*
X8291Y20209D01*
Y19791D01*
D02*
G37*
G36*
X24708Y19256D02*
X24710Y19253D01*
X24714Y19249D01*
X24773Y19188D01*
X24789Y19172D01*
X24718Y19101D01*
X24632Y19183D01*
X24707Y19258D01*
X24708Y19256D01*
D02*
G37*
G36*
X14708D02*
X14710Y19253D01*
X14714Y19249D01*
X14773Y19188D01*
X14789Y19172D01*
X14718Y19101D01*
X14632Y19183D01*
X14707Y19258D01*
X14708Y19256D01*
D02*
G37*
G36*
X4708D02*
X4710Y19253D01*
X4714Y19249D01*
X4773Y19188D01*
X4789Y19172D01*
X4718Y19101D01*
X4632Y19183D01*
X4707Y19258D01*
X4708Y19256D01*
D02*
G37*
G36*
X25819Y19200D02*
X25823Y19192D01*
X25830Y19182D01*
X25839Y19170D01*
X25885Y19119D01*
X25956Y19046D01*
X25864Y18954D01*
X25841Y18977D01*
X25755Y19052D01*
X25743Y19059D01*
X25734Y19063D01*
X25726Y19065D01*
X25721Y19065D01*
X25817Y19205D01*
X25819Y19200D01*
D02*
G37*
G36*
X15819D02*
X15823Y19192D01*
X15830Y19182D01*
X15839Y19170D01*
X15885Y19119D01*
X15956Y19046D01*
X15864Y18954D01*
X15841Y18977D01*
X15755Y19052D01*
X15743Y19059D01*
X15734Y19063D01*
X15726Y19065D01*
X15721Y19065D01*
X15817Y19205D01*
X15819Y19200D01*
D02*
G37*
G36*
X5819D02*
X5823Y19192D01*
X5830Y19182D01*
X5839Y19170D01*
X5885Y19119D01*
X5956Y19046D01*
X5864Y18954D01*
X5841Y18977D01*
X5755Y19052D01*
X5743Y19059D01*
X5734Y19063D01*
X5726Y19065D01*
X5721Y19065D01*
X5817Y19205D01*
X5819Y19200D01*
D02*
G37*
G36*
X28291Y18791D02*
X28259Y18818D01*
X28218Y18843D01*
X28171Y18865D01*
X28115Y18883D01*
X28052Y18899D01*
X27981Y18912D01*
X27903Y18922D01*
X27723Y18934D01*
X27621Y18935D01*
Y19065D01*
X27723Y19066D01*
X27981Y19088D01*
X28052Y19101D01*
X28115Y19117D01*
X28171Y19136D01*
X28218Y19157D01*
X28259Y19182D01*
X28291Y19209D01*
Y18791D01*
D02*
G37*
G36*
X18291D02*
X18259Y18818D01*
X18218Y18843D01*
X18171Y18865D01*
X18115Y18883D01*
X18052Y18899D01*
X17981Y18912D01*
X17903Y18922D01*
X17723Y18934D01*
X17621Y18935D01*
Y19065D01*
X17723Y19066D01*
X17981Y19088D01*
X18052Y19101D01*
X18115Y19117D01*
X18171Y19136D01*
X18218Y19157D01*
X18259Y19182D01*
X18291Y19209D01*
Y18791D01*
D02*
G37*
G36*
X8291D02*
X8259Y18818D01*
X8218Y18843D01*
X8171Y18865D01*
X8115Y18883D01*
X8052Y18899D01*
X7981Y18912D01*
X7903Y18922D01*
X7723Y18934D01*
X7621Y18935D01*
Y19065D01*
X7723Y19066D01*
X7981Y19088D01*
X8052Y19101D01*
X8115Y19117D01*
X8171Y19136D01*
X8218Y19157D01*
X8259Y19182D01*
X8291Y19209D01*
Y18791D01*
D02*
G37*
G36*
X24804Y18728D02*
X24805Y18711D01*
X24808Y18696D01*
X24811Y18683D01*
X24816Y18672D01*
X24821Y18663D01*
X24828Y18655D01*
X24835Y18650D01*
X24844Y18647D01*
X24853Y18646D01*
X24653D01*
X24663Y18647D01*
X24671Y18650D01*
X24679Y18655D01*
X24685Y18663D01*
X24691Y18672D01*
X24695Y18683D01*
X24699Y18696D01*
X24701Y18711D01*
X24703Y18728D01*
X24703Y18748D01*
X24803D01*
X24804Y18728D01*
D02*
G37*
G36*
X24304D02*
X24305Y18711D01*
X24308Y18696D01*
X24311Y18683D01*
X24316Y18672D01*
X24321Y18663D01*
X24328Y18655D01*
X24335Y18650D01*
X24344Y18647D01*
X24353Y18646D01*
X24153D01*
X24163Y18647D01*
X24171Y18650D01*
X24179Y18655D01*
X24185Y18663D01*
X24191Y18672D01*
X24195Y18683D01*
X24199Y18696D01*
X24201Y18711D01*
X24203Y18728D01*
X24203Y18748D01*
X24303D01*
X24304Y18728D01*
D02*
G37*
G36*
X23695Y18749D02*
X23742Y18708D01*
X23765Y18692D01*
X23786Y18678D01*
X23806Y18667D01*
X23826Y18658D01*
X23845Y18651D01*
X23863Y18648D01*
X23879Y18646D01*
X23577Y18648D01*
X23586Y18648D01*
X23592Y18651D01*
X23596Y18655D01*
X23597Y18661D01*
X23595Y18668D01*
X23591Y18678D01*
X23583Y18688D01*
X23573Y18701D01*
X23561Y18715D01*
X23545Y18731D01*
X23671Y18773D01*
X23695Y18749D01*
D02*
G37*
G36*
X23210Y18733D02*
X23250Y18699D01*
X23269Y18685D01*
X23287Y18673D01*
X23304Y18664D01*
X23321Y18656D01*
X23337Y18651D01*
X23352Y18647D01*
X23366Y18646D01*
X23083D01*
X23096Y18647D01*
X23106Y18649D01*
X23113Y18653D01*
X23118Y18658D01*
X23119Y18664D01*
X23118Y18672D01*
X23113Y18682D01*
X23106Y18692D01*
X23096Y18705D01*
X23083Y18718D01*
X23189Y18754D01*
X23210Y18733D01*
D02*
G37*
G36*
X22738D02*
X22778Y18699D01*
X22797Y18685D01*
X22815Y18673D01*
X22832Y18664D01*
X22849Y18656D01*
X22865Y18651D01*
X22880Y18647D01*
X22894Y18646D01*
X22611D01*
X22624Y18647D01*
X22634Y18649D01*
X22641Y18653D01*
X22646Y18658D01*
X22647Y18664D01*
X22646Y18672D01*
X22641Y18682D01*
X22634Y18692D01*
X22624Y18705D01*
X22611Y18718D01*
X22717Y18754D01*
X22738Y18733D01*
D02*
G37*
G36*
X22304Y18646D02*
X22203D01*
X22203Y18647D01*
X22203Y18648D01*
X22203Y18698D01*
X22303D01*
X22304Y18646D01*
D02*
G37*
G36*
X14804Y18728D02*
X14805Y18711D01*
X14808Y18696D01*
X14811Y18683D01*
X14816Y18672D01*
X14821Y18663D01*
X14828Y18655D01*
X14835Y18650D01*
X14844Y18647D01*
X14853Y18646D01*
X14653D01*
X14663Y18647D01*
X14671Y18650D01*
X14679Y18655D01*
X14685Y18663D01*
X14691Y18672D01*
X14695Y18683D01*
X14699Y18696D01*
X14701Y18711D01*
X14703Y18728D01*
X14703Y18748D01*
X14803D01*
X14804Y18728D01*
D02*
G37*
G36*
X14304D02*
X14305Y18711D01*
X14308Y18696D01*
X14311Y18683D01*
X14316Y18672D01*
X14321Y18663D01*
X14328Y18655D01*
X14335Y18650D01*
X14344Y18647D01*
X14353Y18646D01*
X14153D01*
X14163Y18647D01*
X14171Y18650D01*
X14179Y18655D01*
X14185Y18663D01*
X14191Y18672D01*
X14195Y18683D01*
X14199Y18696D01*
X14201Y18711D01*
X14203Y18728D01*
X14203Y18748D01*
X14303D01*
X14304Y18728D01*
D02*
G37*
G36*
X13695Y18749D02*
X13742Y18708D01*
X13765Y18692D01*
X13786Y18678D01*
X13806Y18667D01*
X13826Y18658D01*
X13845Y18651D01*
X13863Y18648D01*
X13879Y18646D01*
X13577Y18648D01*
X13586Y18648D01*
X13592Y18651D01*
X13596Y18655D01*
X13597Y18661D01*
X13595Y18668D01*
X13591Y18678D01*
X13583Y18688D01*
X13573Y18701D01*
X13561Y18715D01*
X13545Y18731D01*
X13671Y18773D01*
X13695Y18749D01*
D02*
G37*
G36*
X13210Y18733D02*
X13250Y18699D01*
X13269Y18685D01*
X13287Y18673D01*
X13304Y18664D01*
X13321Y18656D01*
X13337Y18651D01*
X13352Y18647D01*
X13366Y18646D01*
X13083D01*
X13096Y18647D01*
X13106Y18649D01*
X13113Y18653D01*
X13118Y18658D01*
X13119Y18664D01*
X13118Y18672D01*
X13113Y18682D01*
X13106Y18692D01*
X13096Y18705D01*
X13083Y18718D01*
X13189Y18754D01*
X13210Y18733D01*
D02*
G37*
G36*
X12738D02*
X12778Y18699D01*
X12797Y18685D01*
X12815Y18673D01*
X12832Y18664D01*
X12849Y18656D01*
X12865Y18651D01*
X12880Y18647D01*
X12894Y18646D01*
X12611D01*
X12624Y18647D01*
X12634Y18649D01*
X12641Y18653D01*
X12646Y18658D01*
X12647Y18664D01*
X12646Y18672D01*
X12641Y18682D01*
X12634Y18692D01*
X12624Y18705D01*
X12611Y18718D01*
X12717Y18754D01*
X12738Y18733D01*
D02*
G37*
G36*
X12304Y18646D02*
X12203D01*
X12203Y18647D01*
X12203Y18648D01*
X12203Y18698D01*
X12303D01*
X12304Y18646D01*
D02*
G37*
G36*
X4804Y18728D02*
X4805Y18711D01*
X4808Y18696D01*
X4811Y18683D01*
X4816Y18672D01*
X4821Y18663D01*
X4828Y18655D01*
X4835Y18650D01*
X4844Y18647D01*
X4853Y18646D01*
X4653D01*
X4663Y18647D01*
X4671Y18650D01*
X4679Y18655D01*
X4685Y18663D01*
X4691Y18672D01*
X4695Y18683D01*
X4699Y18696D01*
X4701Y18711D01*
X4703Y18728D01*
X4703Y18748D01*
X4803D01*
X4804Y18728D01*
D02*
G37*
G36*
X4304D02*
X4305Y18711D01*
X4308Y18696D01*
X4311Y18683D01*
X4316Y18672D01*
X4321Y18663D01*
X4328Y18655D01*
X4335Y18650D01*
X4344Y18647D01*
X4353Y18646D01*
X4153D01*
X4163Y18647D01*
X4171Y18650D01*
X4179Y18655D01*
X4185Y18663D01*
X4191Y18672D01*
X4195Y18683D01*
X4199Y18696D01*
X4201Y18711D01*
X4203Y18728D01*
X4203Y18748D01*
X4303D01*
X4304Y18728D01*
D02*
G37*
G36*
X3695Y18749D02*
X3742Y18708D01*
X3765Y18692D01*
X3786Y18678D01*
X3806Y18667D01*
X3826Y18658D01*
X3845Y18651D01*
X3863Y18648D01*
X3879Y18646D01*
X3577Y18648D01*
X3586Y18648D01*
X3592Y18651D01*
X3596Y18655D01*
X3597Y18661D01*
X3595Y18668D01*
X3591Y18678D01*
X3583Y18688D01*
X3573Y18701D01*
X3561Y18715D01*
X3545Y18731D01*
X3671Y18773D01*
X3695Y18749D01*
D02*
G37*
G36*
X3210Y18733D02*
X3250Y18699D01*
X3269Y18685D01*
X3287Y18673D01*
X3304Y18664D01*
X3321Y18656D01*
X3337Y18651D01*
X3352Y18647D01*
X3366Y18646D01*
X3083D01*
X3096Y18647D01*
X3106Y18649D01*
X3113Y18653D01*
X3118Y18658D01*
X3119Y18664D01*
X3118Y18672D01*
X3113Y18682D01*
X3106Y18692D01*
X3096Y18705D01*
X3083Y18718D01*
X3189Y18754D01*
X3210Y18733D01*
D02*
G37*
G36*
X2738D02*
X2778Y18699D01*
X2797Y18685D01*
X2815Y18673D01*
X2832Y18664D01*
X2849Y18656D01*
X2865Y18651D01*
X2880Y18647D01*
X2894Y18646D01*
X2611D01*
X2624Y18647D01*
X2634Y18649D01*
X2641Y18653D01*
X2646Y18658D01*
X2647Y18664D01*
X2646Y18672D01*
X2641Y18682D01*
X2634Y18692D01*
X2624Y18705D01*
X2611Y18718D01*
X2717Y18754D01*
X2738Y18733D01*
D02*
G37*
G36*
X2304Y18646D02*
X2203D01*
X2203Y18647D01*
X2203Y18648D01*
X2203Y18698D01*
X2303D01*
X2304Y18646D01*
D02*
G37*
G36*
X25007Y18957D02*
X25081Y18900D01*
X25168Y18865D01*
X25260Y18853D01*
X25660D01*
X25752Y18865D01*
X25773Y18873D01*
X25778Y18868D01*
X25839Y18828D01*
X25910Y18813D01*
X27113D01*
X27135Y18769D01*
X27105Y18728D01*
X27059Y18618D01*
X27043Y18500D01*
X27059Y18382D01*
X27105Y18272D01*
X27151Y18211D01*
X27127Y18161D01*
X27000D01*
X26939Y18148D01*
X26886Y18114D01*
X26886Y18114D01*
X26533Y17761D01*
X25548D01*
Y18767D01*
X24925D01*
Y18983D01*
X24975Y19000D01*
X25007Y18957D01*
D02*
G37*
G36*
X15007D02*
X15081Y18900D01*
X15167Y18865D01*
X15260Y18853D01*
X15660D01*
X15753Y18865D01*
X15773Y18873D01*
X15778Y18868D01*
X15839Y18828D01*
X15910Y18813D01*
X17113D01*
X17135Y18769D01*
X17105Y18728D01*
X17059Y18618D01*
X17043Y18500D01*
X17059Y18382D01*
X17105Y18272D01*
X17151Y18211D01*
X17127Y18161D01*
X17000D01*
X16939Y18148D01*
X16886Y18114D01*
X16886Y18114D01*
X16533Y17761D01*
X15548D01*
Y18767D01*
X14925D01*
Y18983D01*
X14975Y19000D01*
X15007Y18957D01*
D02*
G37*
G36*
X5007D02*
X5081Y18900D01*
X5167Y18865D01*
X5260Y18853D01*
X5660D01*
X5753Y18865D01*
X5773Y18873D01*
X5778Y18868D01*
X5839Y18828D01*
X5910Y18813D01*
X7113D01*
X7135Y18769D01*
X7105Y18728D01*
X7059Y18618D01*
X7043Y18500D01*
X7059Y18382D01*
X7105Y18272D01*
X7151Y18211D01*
X7127Y18161D01*
X7000D01*
X6939Y18148D01*
X6886Y18114D01*
X6886Y18114D01*
X6533Y17761D01*
X5548D01*
Y18767D01*
X4925D01*
Y18983D01*
X4975Y19000D01*
X5007Y18957D01*
D02*
G37*
G36*
X26886Y17086D02*
X26886Y17086D01*
X26939Y17052D01*
X27000Y17039D01*
X27047D01*
Y16247D01*
X27283D01*
X27315Y16209D01*
X27313Y16200D01*
X27328Y16128D01*
X27324Y16117D01*
X27272Y16095D01*
X27177Y16023D01*
X27105Y15928D01*
X27059Y15818D01*
X27043Y15700D01*
X27059Y15582D01*
X27105Y15472D01*
X27177Y15377D01*
X27272Y15305D01*
X27324Y15283D01*
X27328Y15272D01*
X27313Y15200D01*
X27328Y15129D01*
X27324Y15117D01*
X27272Y15095D01*
X27177Y15023D01*
X27105Y14928D01*
X27059Y14818D01*
X27043Y14700D01*
X27059Y14582D01*
X27105Y14472D01*
X27157Y14404D01*
X27150Y14339D01*
X27140Y14332D01*
X27099Y14271D01*
X27085Y14200D01*
X27099Y14129D01*
X27140Y14068D01*
X27150Y14061D01*
X27157Y13996D01*
X27105Y13928D01*
X27059Y13818D01*
X27043Y13700D01*
X27059Y13582D01*
X27105Y13472D01*
X27177Y13377D01*
X27272Y13305D01*
X27382Y13259D01*
X27500Y13243D01*
Y13157D01*
X27382Y13141D01*
X27272Y13095D01*
X27177Y13023D01*
X27105Y12928D01*
X27059Y12818D01*
X27043Y12700D01*
X27059Y12582D01*
X27105Y12472D01*
X27177Y12377D01*
X27272Y12305D01*
X27382Y12259D01*
X27500Y12243D01*
Y12157D01*
X27382Y12141D01*
X27272Y12095D01*
X27177Y12023D01*
X27105Y11928D01*
X27059Y11818D01*
X27043Y11700D01*
X27059Y11582D01*
X27105Y11472D01*
X27135Y11431D01*
X27113Y11387D01*
X27050D01*
X26979Y11372D01*
X26918Y11332D01*
X26353Y10767D01*
X25870D01*
X25799Y10752D01*
X25783Y10742D01*
X25752Y10755D01*
X25660Y10767D01*
X25260D01*
X25168Y10755D01*
X25081Y10720D01*
X25007Y10663D01*
X24950Y10589D01*
X24916Y10505D01*
X24900Y10498D01*
X24865Y10487D01*
X24833Y10509D01*
X24818Y10587D01*
X24765Y10665D01*
X24687Y10718D01*
X24595Y10736D01*
X24503Y10718D01*
X24425Y10665D01*
X24372Y10587D01*
X24354Y10495D01*
X24372Y10403D01*
X24425Y10325D01*
X24503Y10272D01*
X24582Y10257D01*
Y9967D01*
X24425D01*
Y9977D01*
X24412Y10042D01*
X24374Y10098D01*
X22661Y11811D01*
Y13680D01*
X22648Y13746D01*
X22611Y13801D01*
X22543Y13870D01*
X22459Y13956D01*
X22439Y13979D01*
X22433Y14014D01*
X22380Y14092D01*
X22302Y14144D01*
X22210Y14162D01*
X22118Y14144D01*
X22040Y14092D01*
X21987Y14014D01*
X21969Y13922D01*
X21987Y13829D01*
X22040Y13751D01*
X22118Y13699D01*
X22210Y13681D01*
X22220Y13683D01*
X22221Y13682D01*
X22231Y13677D01*
X22245Y13669D01*
X22260Y13658D01*
X22319Y13608D01*
Y12937D01*
X22269Y12899D01*
X22210Y12911D01*
X22179Y12905D01*
X22122Y12944D01*
X22113Y12990D01*
X22060Y13068D01*
X22044Y13079D01*
Y13129D01*
X22060Y13140D01*
X22113Y13218D01*
X22131Y13310D01*
X22113Y13402D01*
X22060Y13480D01*
X21982Y13533D01*
X21890Y13551D01*
X21798Y13533D01*
X21720Y13480D01*
X21667Y13402D01*
X21654Y13333D01*
X21653Y13332D01*
X21650Y13326D01*
X21560Y13222D01*
X21359Y13021D01*
X21322Y12966D01*
X21309Y12900D01*
Y10671D01*
X21322Y10606D01*
X21359Y10550D01*
X21910Y9999D01*
X21889Y9949D01*
X21812D01*
Y9455D01*
X21753D01*
Y9396D01*
X21476D01*
Y8961D01*
X21426Y8961D01*
X20467D01*
X20161Y9267D01*
Y14157D01*
X20541D01*
X20569Y14090D01*
X20652Y13983D01*
X20758Y13901D01*
X20883Y13849D01*
X21017Y13832D01*
X21150Y13849D01*
X21275Y13901D01*
X21382Y13983D01*
X21464Y14090D01*
X21515Y14214D01*
X21533Y14348D01*
X21515Y14481D01*
X21464Y14606D01*
X21382Y14713D01*
X21275Y14795D01*
X21157Y14843D01*
Y14984D01*
X20161D01*
Y17133D01*
X20467Y17439D01*
X21026D01*
Y16433D01*
X22049D01*
Y17439D01*
X24963D01*
Y17239D01*
X24945Y17224D01*
X24849Y17205D01*
X24767Y17151D01*
X24713Y17069D01*
X24694Y16973D01*
X24713Y16877D01*
X24767Y16796D01*
X24849Y16742D01*
X24945Y16722D01*
X24963Y16708D01*
Y16501D01*
X24550D01*
X24473Y16485D01*
X24408Y16442D01*
X24208Y16242D01*
X24191Y16217D01*
X24141Y16232D01*
Y16275D01*
X24142Y16295D01*
X24142Y16298D01*
X24163Y16330D01*
X24182Y16422D01*
X24163Y16514D01*
X24111Y16592D01*
X24033Y16645D01*
X23941Y16663D01*
X23849Y16645D01*
X23770Y16592D01*
X23718Y16514D01*
X23700Y16422D01*
X23718Y16330D01*
X23737Y16301D01*
X23740Y16174D01*
Y15191D01*
X22447D01*
X22427Y15191D01*
X22424Y15191D01*
X22392Y15213D01*
X22300Y15231D01*
X22207Y15213D01*
X22129Y15160D01*
X22077Y15082D01*
X22059Y14990D01*
X22077Y14898D01*
X22129Y14820D01*
X22207Y14767D01*
X22300Y14749D01*
X22392Y14767D01*
X22421Y14787D01*
X22548Y14789D01*
X23740D01*
Y12479D01*
X23755Y12402D01*
X23799Y12337D01*
X24648Y11488D01*
X24713Y11445D01*
X24790Y11429D01*
X25380D01*
X25457Y11445D01*
X25522Y11488D01*
X25622Y11588D01*
X25665Y11653D01*
X25681Y11730D01*
Y12129D01*
X25665Y12206D01*
X25622Y12271D01*
X25565Y12328D01*
X25558Y12366D01*
X25505Y12444D01*
X25427Y12496D01*
X25335Y12515D01*
X25243Y12496D01*
X25165Y12444D01*
X25113Y12366D01*
X25096Y12286D01*
X25063Y12269D01*
X25045Y12266D01*
X24551Y12761D01*
Y16017D01*
X24633Y16099D01*
X25133D01*
X25152Y16099D01*
X25156Y16099D01*
X25188Y16077D01*
X25280Y16059D01*
X25372Y16077D01*
X25450Y16130D01*
X25503Y16208D01*
X25521Y16300D01*
X25504Y16383D01*
X25531Y16433D01*
X25986D01*
Y17439D01*
X26533D01*
X26886Y17086D01*
D02*
G37*
G36*
X16886D02*
X16886Y17086D01*
X16939Y17052D01*
X17000Y17039D01*
X17047D01*
Y16247D01*
X17283D01*
X17315Y16209D01*
X17313Y16200D01*
X17328Y16128D01*
X17324Y16117D01*
X17272Y16095D01*
X17177Y16023D01*
X17105Y15928D01*
X17059Y15818D01*
X17043Y15700D01*
X17059Y15582D01*
X17105Y15472D01*
X17177Y15377D01*
X17272Y15305D01*
X17324Y15283D01*
X17328Y15272D01*
X17313Y15200D01*
X17328Y15129D01*
X17324Y15117D01*
X17272Y15095D01*
X17177Y15023D01*
X17105Y14928D01*
X17059Y14818D01*
X17043Y14700D01*
X17059Y14582D01*
X17105Y14472D01*
X17157Y14404D01*
X17150Y14339D01*
X17140Y14332D01*
X17099Y14271D01*
X17085Y14200D01*
X17099Y14129D01*
X17140Y14068D01*
X17150Y14061D01*
X17157Y13996D01*
X17105Y13928D01*
X17059Y13818D01*
X17043Y13700D01*
X17059Y13582D01*
X17105Y13472D01*
X17177Y13377D01*
X17272Y13305D01*
X17382Y13259D01*
X17500Y13243D01*
Y13157D01*
X17382Y13141D01*
X17272Y13095D01*
X17177Y13023D01*
X17105Y12928D01*
X17059Y12818D01*
X17043Y12700D01*
X17059Y12582D01*
X17105Y12472D01*
X17177Y12377D01*
X17272Y12305D01*
X17382Y12259D01*
X17500Y12243D01*
Y12157D01*
X17382Y12141D01*
X17272Y12095D01*
X17177Y12023D01*
X17105Y11928D01*
X17059Y11818D01*
X17043Y11700D01*
X17059Y11582D01*
X17105Y11472D01*
X17135Y11431D01*
X17113Y11387D01*
X17050D01*
X16979Y11372D01*
X16918Y11332D01*
X16353Y10767D01*
X15870D01*
X15799Y10752D01*
X15783Y10742D01*
X15753Y10755D01*
X15660Y10767D01*
X15260D01*
X15167Y10755D01*
X15081Y10720D01*
X15007Y10663D01*
X14950Y10589D01*
X14916Y10505D01*
X14900Y10498D01*
X14865Y10487D01*
X14833Y10509D01*
X14818Y10587D01*
X14765Y10665D01*
X14687Y10718D01*
X14595Y10736D01*
X14503Y10718D01*
X14425Y10665D01*
X14372Y10587D01*
X14354Y10495D01*
X14372Y10403D01*
X14425Y10325D01*
X14503Y10272D01*
X14582Y10257D01*
Y9967D01*
X14425D01*
Y9977D01*
X14412Y10042D01*
X14374Y10098D01*
X12661Y11811D01*
Y13680D01*
X12648Y13746D01*
X12611Y13801D01*
X12543Y13870D01*
X12459Y13956D01*
X12439Y13979D01*
X12433Y14014D01*
X12380Y14092D01*
X12302Y14144D01*
X12210Y14162D01*
X12118Y14144D01*
X12040Y14092D01*
X11987Y14014D01*
X11969Y13922D01*
X11987Y13829D01*
X12040Y13751D01*
X12118Y13699D01*
X12210Y13681D01*
X12220Y13683D01*
X12221Y13682D01*
X12231Y13677D01*
X12245Y13669D01*
X12260Y13658D01*
X12319Y13608D01*
Y12937D01*
X12269Y12899D01*
X12210Y12911D01*
X12179Y12905D01*
X12122Y12944D01*
X12113Y12990D01*
X12060Y13068D01*
X12044Y13079D01*
Y13129D01*
X12060Y13140D01*
X12113Y13218D01*
X12131Y13310D01*
X12113Y13402D01*
X12060Y13480D01*
X11982Y13533D01*
X11890Y13551D01*
X11798Y13533D01*
X11720Y13480D01*
X11667Y13402D01*
X11654Y13333D01*
X11653Y13332D01*
X11650Y13326D01*
X11560Y13222D01*
X11359Y13021D01*
X11322Y12966D01*
X11309Y12900D01*
Y10671D01*
X11322Y10606D01*
X11359Y10550D01*
X11910Y9999D01*
X11889Y9949D01*
X11812D01*
Y9455D01*
X11753D01*
Y9396D01*
X11476D01*
Y8961D01*
X11426Y8961D01*
X10467D01*
X10161Y9267D01*
Y14157D01*
X10541D01*
X10569Y14090D01*
X10652Y13983D01*
X10758Y13901D01*
X10883Y13849D01*
X11017Y13832D01*
X11150Y13849D01*
X11275Y13901D01*
X11382Y13983D01*
X11464Y14090D01*
X11515Y14214D01*
X11533Y14348D01*
X11515Y14481D01*
X11464Y14606D01*
X11382Y14713D01*
X11275Y14795D01*
X11157Y14843D01*
Y14984D01*
X10161D01*
Y17133D01*
X10467Y17439D01*
X11026D01*
Y16433D01*
X12049D01*
Y17439D01*
X14963D01*
Y17239D01*
X14945Y17224D01*
X14849Y17205D01*
X14767Y17151D01*
X14713Y17069D01*
X14694Y16973D01*
X14713Y16877D01*
X14767Y16796D01*
X14849Y16742D01*
X14945Y16722D01*
X14963Y16708D01*
Y16501D01*
X14550D01*
X14473Y16485D01*
X14408Y16442D01*
X14208Y16242D01*
X14191Y16217D01*
X14141Y16232D01*
Y16275D01*
X14142Y16295D01*
X14142Y16298D01*
X14163Y16330D01*
X14182Y16422D01*
X14163Y16514D01*
X14111Y16592D01*
X14033Y16645D01*
X13941Y16663D01*
X13849Y16645D01*
X13770Y16592D01*
X13718Y16514D01*
X13700Y16422D01*
X13718Y16330D01*
X13737Y16301D01*
X13740Y16174D01*
Y15191D01*
X12447D01*
X12427Y15191D01*
X12424Y15191D01*
X12392Y15213D01*
X12300Y15231D01*
X12207Y15213D01*
X12129Y15160D01*
X12077Y15082D01*
X12059Y14990D01*
X12077Y14898D01*
X12129Y14820D01*
X12207Y14767D01*
X12300Y14749D01*
X12392Y14767D01*
X12421Y14787D01*
X12548Y14789D01*
X13740D01*
Y12479D01*
X13755Y12402D01*
X13799Y12337D01*
X14648Y11488D01*
X14713Y11445D01*
X14790Y11429D01*
X15380D01*
X15457Y11445D01*
X15522Y11488D01*
X15622Y11588D01*
X15665Y11653D01*
X15681Y11730D01*
Y12129D01*
X15665Y12206D01*
X15622Y12271D01*
X15565Y12328D01*
X15558Y12366D01*
X15505Y12444D01*
X15427Y12496D01*
X15335Y12515D01*
X15243Y12496D01*
X15165Y12444D01*
X15113Y12366D01*
X15096Y12286D01*
X15063Y12269D01*
X15045Y12266D01*
X14551Y12761D01*
Y16017D01*
X14633Y16099D01*
X15133D01*
X15152Y16099D01*
X15156Y16099D01*
X15188Y16077D01*
X15280Y16059D01*
X15372Y16077D01*
X15450Y16130D01*
X15503Y16208D01*
X15521Y16300D01*
X15504Y16383D01*
X15531Y16433D01*
X15986D01*
Y17439D01*
X16533D01*
X16886Y17086D01*
D02*
G37*
G36*
X6886D02*
X6886Y17086D01*
X6939Y17052D01*
X7000Y17039D01*
X7047D01*
Y16247D01*
X7283D01*
X7315Y16209D01*
X7313Y16200D01*
X7328Y16128D01*
X7324Y16117D01*
X7272Y16095D01*
X7177Y16023D01*
X7105Y15928D01*
X7059Y15818D01*
X7043Y15700D01*
X7059Y15582D01*
X7105Y15472D01*
X7177Y15377D01*
X7272Y15305D01*
X7324Y15283D01*
X7328Y15272D01*
X7313Y15200D01*
X7328Y15129D01*
X7324Y15117D01*
X7272Y15095D01*
X7177Y15023D01*
X7105Y14928D01*
X7059Y14818D01*
X7043Y14700D01*
X7059Y14582D01*
X7105Y14472D01*
X7157Y14404D01*
X7150Y14339D01*
X7140Y14332D01*
X7099Y14271D01*
X7085Y14200D01*
X7099Y14129D01*
X7140Y14068D01*
X7150Y14061D01*
X7157Y13996D01*
X7105Y13928D01*
X7059Y13818D01*
X7043Y13700D01*
X7059Y13582D01*
X7105Y13472D01*
X7177Y13377D01*
X7272Y13305D01*
X7382Y13259D01*
X7500Y13243D01*
Y13157D01*
X7382Y13141D01*
X7272Y13095D01*
X7177Y13023D01*
X7105Y12928D01*
X7059Y12818D01*
X7043Y12700D01*
X7059Y12582D01*
X7105Y12472D01*
X7177Y12377D01*
X7272Y12305D01*
X7382Y12259D01*
X7500Y12243D01*
Y12157D01*
X7382Y12141D01*
X7272Y12095D01*
X7177Y12023D01*
X7105Y11928D01*
X7059Y11818D01*
X7043Y11700D01*
X7059Y11582D01*
X7105Y11472D01*
X7135Y11431D01*
X7113Y11387D01*
X7050D01*
X6979Y11372D01*
X6918Y11332D01*
X6353Y10767D01*
X5870D01*
X5799Y10752D01*
X5783Y10742D01*
X5753Y10755D01*
X5660Y10767D01*
X5260D01*
X5167Y10755D01*
X5081Y10720D01*
X5007Y10663D01*
X4950Y10589D01*
X4916Y10505D01*
X4900Y10498D01*
X4865Y10487D01*
X4833Y10509D01*
X4818Y10587D01*
X4765Y10665D01*
X4687Y10718D01*
X4595Y10736D01*
X4503Y10718D01*
X4425Y10665D01*
X4372Y10587D01*
X4354Y10495D01*
X4372Y10403D01*
X4425Y10325D01*
X4503Y10272D01*
X4582Y10257D01*
Y9967D01*
X4425D01*
Y9977D01*
X4412Y10042D01*
X4374Y10098D01*
X2661Y11811D01*
Y13680D01*
X2648Y13746D01*
X2611Y13801D01*
X2543Y13870D01*
X2459Y13956D01*
X2439Y13979D01*
X2433Y14014D01*
X2380Y14092D01*
X2302Y14144D01*
X2210Y14162D01*
X2118Y14144D01*
X2040Y14092D01*
X1987Y14014D01*
X1969Y13922D01*
X1987Y13829D01*
X2040Y13751D01*
X2118Y13699D01*
X2210Y13681D01*
X2220Y13683D01*
X2221Y13682D01*
X2231Y13677D01*
X2245Y13669D01*
X2260Y13658D01*
X2319Y13608D01*
Y12937D01*
X2269Y12899D01*
X2210Y12911D01*
X2179Y12905D01*
X2122Y12944D01*
X2113Y12990D01*
X2060Y13068D01*
X2044Y13079D01*
Y13129D01*
X2060Y13140D01*
X2113Y13218D01*
X2131Y13310D01*
X2113Y13402D01*
X2060Y13480D01*
X1982Y13533D01*
X1890Y13551D01*
X1798Y13533D01*
X1720Y13480D01*
X1667Y13402D01*
X1654Y13333D01*
X1653Y13332D01*
X1650Y13326D01*
X1560Y13222D01*
X1359Y13021D01*
X1322Y12966D01*
X1309Y12900D01*
Y10671D01*
X1322Y10606D01*
X1359Y10550D01*
X1910Y9999D01*
X1889Y9949D01*
X1812D01*
Y9455D01*
X1753D01*
Y9396D01*
X1476D01*
Y8961D01*
X1426Y8961D01*
X467D01*
X161Y9267D01*
Y14157D01*
X541D01*
X569Y14090D01*
X652Y13983D01*
X758Y13901D01*
X883Y13849D01*
X1017Y13832D01*
X1150Y13849D01*
X1275Y13901D01*
X1382Y13983D01*
X1464Y14090D01*
X1515Y14214D01*
X1533Y14348D01*
X1515Y14481D01*
X1464Y14606D01*
X1382Y14713D01*
X1275Y14795D01*
X1157Y14843D01*
Y14984D01*
X161D01*
Y17133D01*
X467Y17439D01*
X1026D01*
Y16433D01*
X2049D01*
Y17439D01*
X4963D01*
Y17239D01*
X4945Y17224D01*
X4849Y17205D01*
X4767Y17151D01*
X4713Y17069D01*
X4694Y16973D01*
X4713Y16877D01*
X4767Y16796D01*
X4849Y16742D01*
X4945Y16722D01*
X4963Y16708D01*
Y16501D01*
X4550D01*
X4473Y16485D01*
X4408Y16442D01*
X4208Y16242D01*
X4191Y16217D01*
X4141Y16232D01*
Y16275D01*
X4142Y16295D01*
X4142Y16298D01*
X4163Y16330D01*
X4182Y16422D01*
X4163Y16514D01*
X4111Y16592D01*
X4033Y16645D01*
X3941Y16663D01*
X3849Y16645D01*
X3770Y16592D01*
X3718Y16514D01*
X3700Y16422D01*
X3718Y16330D01*
X3737Y16301D01*
X3740Y16174D01*
Y15191D01*
X2447D01*
X2427Y15191D01*
X2424Y15191D01*
X2392Y15213D01*
X2300Y15231D01*
X2207Y15213D01*
X2129Y15160D01*
X2077Y15082D01*
X2059Y14990D01*
X2077Y14898D01*
X2129Y14820D01*
X2207Y14767D01*
X2300Y14749D01*
X2392Y14767D01*
X2421Y14787D01*
X2548Y14789D01*
X3740D01*
Y12479D01*
X3755Y12402D01*
X3799Y12337D01*
X4648Y11488D01*
X4713Y11445D01*
X4790Y11429D01*
X5380D01*
X5457Y11445D01*
X5522Y11488D01*
X5622Y11588D01*
X5665Y11653D01*
X5681Y11730D01*
Y12129D01*
X5665Y12206D01*
X5622Y12271D01*
X5565Y12328D01*
X5558Y12366D01*
X5505Y12444D01*
X5427Y12496D01*
X5335Y12515D01*
X5243Y12496D01*
X5165Y12444D01*
X5113Y12366D01*
X5096Y12286D01*
X5063Y12269D01*
X5045Y12266D01*
X4551Y12761D01*
Y16017D01*
X4633Y16099D01*
X5133D01*
X5152Y16099D01*
X5156Y16099D01*
X5188Y16077D01*
X5280Y16059D01*
X5372Y16077D01*
X5450Y16130D01*
X5503Y16208D01*
X5521Y16300D01*
X5504Y16383D01*
X5531Y16433D01*
X5986D01*
Y17439D01*
X6533D01*
X6886Y17086D01*
D02*
G37*
G36*
X25197Y16216D02*
X25193Y16217D01*
X25185Y16218D01*
X25156Y16220D01*
X24956Y16221D01*
Y16379D01*
X25197Y16384D01*
Y16216D01*
D02*
G37*
G36*
X15197D02*
X15193Y16217D01*
X15185Y16218D01*
X15156Y16220D01*
X14956Y16221D01*
Y16379D01*
X15197Y16384D01*
Y16216D01*
D02*
G37*
G36*
X5197D02*
X5193Y16217D01*
X5185Y16218D01*
X5156Y16220D01*
X4956Y16221D01*
Y16379D01*
X5197Y16384D01*
Y16216D01*
D02*
G37*
G36*
X24023Y16335D02*
X24023Y16328D01*
X24021Y16298D01*
X24019Y16098D01*
X23862D01*
X23857Y16339D01*
X24024D01*
X24023Y16335D01*
D02*
G37*
G36*
X14023D02*
X14023Y16328D01*
X14021Y16298D01*
X14019Y16098D01*
X13862D01*
X13857Y16339D01*
X14024D01*
X14023Y16335D01*
D02*
G37*
G36*
X4023D02*
X4023Y16328D01*
X4021Y16298D01*
X4019Y16098D01*
X3862D01*
X3857Y16339D01*
X4024D01*
X4023Y16335D01*
D02*
G37*
G36*
X22386Y15073D02*
X22394Y15072D01*
X22424Y15070D01*
X22624Y15069D01*
Y14911D01*
X22383Y14906D01*
Y15074D01*
X22386Y15073D01*
D02*
G37*
G36*
X12386D02*
X12394Y15072D01*
X12424Y15070D01*
X12624Y15069D01*
Y14911D01*
X12383Y14906D01*
Y15074D01*
X12386Y15073D01*
D02*
G37*
G36*
X2386D02*
X2394Y15072D01*
X2424Y15070D01*
X2624Y15069D01*
Y14911D01*
X2383Y14906D01*
Y15074D01*
X2386Y15073D01*
D02*
G37*
G36*
X22330Y13926D02*
X22335Y13917D01*
X22343Y13906D01*
X22370Y13875D01*
X22495Y13746D01*
X22443Y13656D01*
X22413Y13685D01*
X22334Y13753D01*
X22311Y13770D01*
X22289Y13783D01*
X22269Y13793D01*
X22251Y13800D01*
X22234Y13803D01*
X22219Y13804D01*
X22328Y13931D01*
X22330Y13926D01*
D02*
G37*
G36*
X12330D02*
X12335Y13917D01*
X12343Y13906D01*
X12370Y13875D01*
X12495Y13746D01*
X12443Y13656D01*
X12413Y13685D01*
X12334Y13753D01*
X12311Y13770D01*
X12289Y13783D01*
X12269Y13793D01*
X12251Y13800D01*
X12234Y13803D01*
X12219Y13804D01*
X12328Y13931D01*
X12330Y13926D01*
D02*
G37*
G36*
X2330D02*
X2335Y13917D01*
X2343Y13906D01*
X2370Y13875D01*
X2495Y13746D01*
X2443Y13656D01*
X2413Y13685D01*
X2334Y13753D01*
X2310Y13770D01*
X2289Y13783D01*
X2269Y13793D01*
X2251Y13800D01*
X2234Y13803D01*
X2219Y13804D01*
X2328Y13931D01*
X2330Y13926D01*
D02*
G37*
G36*
X21890Y13192D02*
X21879Y13190D01*
X21867Y13185D01*
X21851Y13177D01*
X21834Y13166D01*
X21814Y13152D01*
X21768Y13114D01*
X21714Y13062D01*
X21683Y13032D01*
X21612Y13103D01*
X21642Y13134D01*
X21746Y13254D01*
X21757Y13271D01*
X21765Y13287D01*
X21770Y13299D01*
X21772Y13310D01*
X21890Y13192D01*
D02*
G37*
G36*
X11890D02*
X11879Y13190D01*
X11867Y13185D01*
X11851Y13177D01*
X11834Y13166D01*
X11814Y13152D01*
X11768Y13114D01*
X11714Y13062D01*
X11683Y13032D01*
X11612Y13103D01*
X11642Y13134D01*
X11746Y13254D01*
X11757Y13271D01*
X11765Y13287D01*
X11770Y13299D01*
X11772Y13310D01*
X11890Y13192D01*
D02*
G37*
G36*
X1890D02*
X1879Y13190D01*
X1867Y13185D01*
X1851Y13177D01*
X1834Y13166D01*
X1814Y13152D01*
X1768Y13114D01*
X1714Y13062D01*
X1683Y13032D01*
X1612Y13103D01*
X1642Y13134D01*
X1746Y13254D01*
X1757Y13271D01*
X1765Y13287D01*
X1770Y13299D01*
X1772Y13310D01*
X1890Y13192D01*
D02*
G37*
G36*
X21899Y12780D02*
X21886Y12778D01*
X21872Y12774D01*
X21857Y12767D01*
X21840Y12758D01*
X21823Y12746D01*
X21804Y12732D01*
X21762Y12697D01*
X21715Y12653D01*
X21645Y12723D01*
X21668Y12747D01*
X21724Y12812D01*
X21738Y12831D01*
X21750Y12848D01*
X21759Y12865D01*
X21766Y12880D01*
X21770Y12894D01*
X21772Y12907D01*
X21899Y12780D01*
D02*
G37*
G36*
X11899D02*
X11886Y12778D01*
X11872Y12774D01*
X11857Y12767D01*
X11840Y12758D01*
X11823Y12746D01*
X11804Y12732D01*
X11762Y12697D01*
X11715Y12653D01*
X11645Y12723D01*
X11668Y12747D01*
X11724Y12812D01*
X11738Y12831D01*
X11750Y12848D01*
X11759Y12865D01*
X11766Y12880D01*
X11770Y12894D01*
X11772Y12907D01*
X11899Y12780D01*
D02*
G37*
G36*
X1899D02*
X1886Y12778D01*
X1872Y12774D01*
X1857Y12767D01*
X1840Y12758D01*
X1823Y12746D01*
X1804Y12732D01*
X1762Y12697D01*
X1715Y12653D01*
X1645Y12723D01*
X1668Y12747D01*
X1724Y12812D01*
X1738Y12831D01*
X1750Y12848D01*
X1759Y12865D01*
X1766Y12880D01*
X1770Y12894D01*
X1772Y12907D01*
X1899Y12780D01*
D02*
G37*
G36*
X22210Y12552D02*
X22199Y12550D01*
X22187Y12545D01*
X22171Y12537D01*
X22154Y12526D01*
X22134Y12512D01*
X22088Y12474D01*
X22034Y12422D01*
X22003Y12392D01*
X21932Y12463D01*
X21962Y12494D01*
X22066Y12614D01*
X22077Y12631D01*
X22085Y12647D01*
X22090Y12659D01*
X22092Y12670D01*
X22210Y12552D01*
D02*
G37*
G36*
X12210D02*
X12199Y12550D01*
X12187Y12545D01*
X12171Y12537D01*
X12154Y12526D01*
X12134Y12512D01*
X12088Y12474D01*
X12034Y12422D01*
X12003Y12392D01*
X11932Y12463D01*
X11962Y12494D01*
X12066Y12614D01*
X12077Y12631D01*
X12085Y12647D01*
X12090Y12659D01*
X12092Y12670D01*
X12210Y12552D01*
D02*
G37*
G36*
X2210D02*
X2199Y12550D01*
X2187Y12545D01*
X2171Y12537D01*
X2154Y12526D01*
X2134Y12512D01*
X2088Y12474D01*
X2034Y12422D01*
X2003Y12392D01*
X1932Y12463D01*
X1962Y12494D01*
X2066Y12614D01*
X2077Y12631D01*
X2085Y12647D01*
X2090Y12659D01*
X2092Y12670D01*
X2210Y12552D01*
D02*
G37*
G36*
X25100Y12046D02*
X24982Y11927D01*
X24980Y11930D01*
X24975Y11937D01*
X24955Y11958D01*
X24815Y12101D01*
X24926Y12212D01*
X25100Y12046D01*
D02*
G37*
G36*
X15100D02*
X14982Y11927D01*
X14980Y11930D01*
X14975Y11937D01*
X14955Y11958D01*
X14815Y12101D01*
X14926Y12212D01*
X15100Y12046D01*
D02*
G37*
G36*
X5100D02*
X4982Y11927D01*
X4980Y11930D01*
X4975Y11937D01*
X4955Y11958D01*
X4815Y12101D01*
X4926Y12212D01*
X5100Y12046D01*
D02*
G37*
G36*
X22289Y12120D02*
X22285Y12108D01*
X22281Y12093D01*
X22278Y12074D01*
X22273Y12023D01*
X22269Y11916D01*
X22269Y11871D01*
X22151D01*
X22151Y11916D01*
X22139Y12093D01*
X22135Y12108D01*
X22131Y12120D01*
X22126Y12127D01*
X22294D01*
X22289Y12120D01*
D02*
G37*
G36*
X12289D02*
X12285Y12108D01*
X12281Y12093D01*
X12278Y12074D01*
X12273Y12023D01*
X12269Y11916D01*
X12269Y11871D01*
X12151D01*
X12151Y11916D01*
X12139Y12093D01*
X12135Y12108D01*
X12131Y12120D01*
X12126Y12127D01*
X12294D01*
X12289Y12120D01*
D02*
G37*
G36*
X2289D02*
X2285Y12108D01*
X2281Y12093D01*
X2278Y12074D01*
X2273Y12023D01*
X2269Y11916D01*
X2269Y11871D01*
X2151D01*
X2151Y11916D01*
X2139Y12093D01*
X2135Y12108D01*
X2131Y12120D01*
X2126Y12127D01*
X2294D01*
X2289Y12120D01*
D02*
G37*
G36*
X28291Y10991D02*
X28259Y11018D01*
X28218Y11043D01*
X28171Y11064D01*
X28115Y11083D01*
X28052Y11099D01*
X27981Y11112D01*
X27903Y11122D01*
X27723Y11134D01*
X27621Y11135D01*
Y11265D01*
X27723Y11266D01*
X27981Y11288D01*
X28052Y11301D01*
X28115Y11317D01*
X28171Y11336D01*
X28218Y11357D01*
X28259Y11382D01*
X28291Y11409D01*
Y10991D01*
D02*
G37*
G36*
X18291D02*
X18259Y11018D01*
X18218Y11043D01*
X18171Y11064D01*
X18115Y11083D01*
X18052Y11099D01*
X17981Y11112D01*
X17903Y11122D01*
X17723Y11134D01*
X17621Y11135D01*
Y11265D01*
X17723Y11266D01*
X17981Y11288D01*
X18052Y11301D01*
X18115Y11317D01*
X18171Y11336D01*
X18218Y11357D01*
X18259Y11382D01*
X18291Y11409D01*
Y10991D01*
D02*
G37*
G36*
X8291D02*
X8259Y11018D01*
X8218Y11043D01*
X8171Y11064D01*
X8115Y11083D01*
X8052Y11099D01*
X7981Y11112D01*
X7903Y11122D01*
X7723Y11134D01*
X7621Y11135D01*
Y11265D01*
X7723Y11266D01*
X7981Y11288D01*
X8052Y11301D01*
X8115Y11317D01*
X8171Y11336D01*
X8218Y11357D01*
X8259Y11382D01*
X8291Y11409D01*
Y10991D01*
D02*
G37*
G36*
X24708Y10456D02*
X24710Y10453D01*
X24714Y10449D01*
X24773Y10388D01*
X24789Y10372D01*
X24718Y10301D01*
X24632Y10383D01*
X24707Y10458D01*
X24708Y10456D01*
D02*
G37*
G36*
X14708D02*
X14710Y10453D01*
X14714Y10449D01*
X14773Y10388D01*
X14789Y10372D01*
X14718Y10301D01*
X14632Y10383D01*
X14707Y10458D01*
X14708Y10456D01*
D02*
G37*
G36*
X4708D02*
X4710Y10453D01*
X4714Y10449D01*
X4773Y10388D01*
X4789Y10372D01*
X4718Y10301D01*
X4632Y10383D01*
X4707Y10458D01*
X4708Y10456D01*
D02*
G37*
G36*
X25819Y10400D02*
X25823Y10392D01*
X25830Y10382D01*
X25839Y10370D01*
X25885Y10319D01*
X25956Y10246D01*
X25864Y10154D01*
X25841Y10177D01*
X25755Y10252D01*
X25743Y10259D01*
X25734Y10263D01*
X25726Y10265D01*
X25721Y10265D01*
X25817Y10405D01*
X25819Y10400D01*
D02*
G37*
G36*
X15819D02*
X15823Y10392D01*
X15830Y10382D01*
X15839Y10370D01*
X15885Y10319D01*
X15956Y10246D01*
X15864Y10154D01*
X15841Y10177D01*
X15755Y10252D01*
X15743Y10259D01*
X15734Y10263D01*
X15726Y10265D01*
X15721Y10265D01*
X15817Y10405D01*
X15819Y10400D01*
D02*
G37*
G36*
X5819D02*
X5823Y10392D01*
X5830Y10382D01*
X5839Y10370D01*
X5885Y10319D01*
X5956Y10246D01*
X5864Y10154D01*
X5841Y10177D01*
X5755Y10252D01*
X5743Y10259D01*
X5734Y10263D01*
X5726Y10265D01*
X5721Y10265D01*
X5817Y10405D01*
X5819Y10400D01*
D02*
G37*
G36*
X28291Y9991D02*
X28259Y10018D01*
X28218Y10043D01*
X28171Y10065D01*
X28115Y10083D01*
X28052Y10099D01*
X27981Y10112D01*
X27903Y10122D01*
X27723Y10134D01*
X27621Y10135D01*
Y10265D01*
X27723Y10266D01*
X27981Y10288D01*
X28052Y10301D01*
X28115Y10317D01*
X28171Y10336D01*
X28218Y10357D01*
X28259Y10382D01*
X28291Y10409D01*
Y9991D01*
D02*
G37*
G36*
X18291D02*
X18259Y10018D01*
X18218Y10043D01*
X18171Y10065D01*
X18115Y10083D01*
X18052Y10099D01*
X17981Y10112D01*
X17903Y10122D01*
X17723Y10134D01*
X17621Y10135D01*
Y10265D01*
X17723Y10266D01*
X17981Y10288D01*
X18052Y10301D01*
X18115Y10317D01*
X18171Y10336D01*
X18218Y10357D01*
X18259Y10382D01*
X18291Y10409D01*
Y9991D01*
D02*
G37*
G36*
X8291D02*
X8259Y10018D01*
X8218Y10043D01*
X8171Y10065D01*
X8115Y10083D01*
X8052Y10099D01*
X7981Y10112D01*
X7903Y10122D01*
X7723Y10134D01*
X7621Y10135D01*
Y10265D01*
X7723Y10266D01*
X7981Y10288D01*
X8052Y10301D01*
X8115Y10317D01*
X8171Y10336D01*
X8218Y10357D01*
X8259Y10382D01*
X8291Y10409D01*
Y9991D01*
D02*
G37*
G36*
X24804Y9928D02*
X24805Y9911D01*
X24808Y9896D01*
X24811Y9883D01*
X24816Y9872D01*
X24821Y9863D01*
X24828Y9855D01*
X24835Y9850D01*
X24844Y9847D01*
X24853Y9846D01*
X24653D01*
X24663Y9847D01*
X24671Y9850D01*
X24679Y9855D01*
X24685Y9863D01*
X24691Y9872D01*
X24695Y9883D01*
X24699Y9896D01*
X24701Y9911D01*
X24703Y9928D01*
X24703Y9948D01*
X24803D01*
X24804Y9928D01*
D02*
G37*
G36*
X24304D02*
X24305Y9911D01*
X24308Y9896D01*
X24311Y9883D01*
X24316Y9872D01*
X24321Y9863D01*
X24328Y9855D01*
X24335Y9850D01*
X24344Y9847D01*
X24353Y9846D01*
X24153D01*
X24163Y9847D01*
X24171Y9850D01*
X24179Y9855D01*
X24185Y9863D01*
X24191Y9872D01*
X24195Y9883D01*
X24199Y9896D01*
X24201Y9911D01*
X24203Y9928D01*
X24203Y9948D01*
X24303D01*
X24304Y9928D01*
D02*
G37*
G36*
X23695Y9949D02*
X23742Y9908D01*
X23765Y9892D01*
X23786Y9878D01*
X23806Y9867D01*
X23826Y9858D01*
X23845Y9851D01*
X23863Y9848D01*
X23879Y9846D01*
X23577Y9848D01*
X23586Y9848D01*
X23592Y9851D01*
X23596Y9855D01*
X23597Y9861D01*
X23595Y9868D01*
X23591Y9878D01*
X23583Y9888D01*
X23573Y9901D01*
X23561Y9915D01*
X23545Y9931D01*
X23671Y9973D01*
X23695Y9949D01*
D02*
G37*
G36*
X23210Y9933D02*
X23250Y9899D01*
X23269Y9885D01*
X23287Y9873D01*
X23304Y9863D01*
X23321Y9856D01*
X23337Y9851D01*
X23352Y9847D01*
X23366Y9846D01*
X23083D01*
X23096Y9847D01*
X23106Y9849D01*
X23113Y9853D01*
X23118Y9858D01*
X23119Y9864D01*
X23118Y9872D01*
X23113Y9882D01*
X23106Y9892D01*
X23096Y9905D01*
X23083Y9918D01*
X23189Y9954D01*
X23210Y9933D01*
D02*
G37*
G36*
X22738D02*
X22778Y9899D01*
X22797Y9885D01*
X22815Y9873D01*
X22832Y9863D01*
X22849Y9856D01*
X22865Y9851D01*
X22880Y9847D01*
X22894Y9846D01*
X22611D01*
X22624Y9847D01*
X22634Y9849D01*
X22641Y9853D01*
X22646Y9858D01*
X22647Y9864D01*
X22646Y9872D01*
X22641Y9882D01*
X22634Y9892D01*
X22624Y9905D01*
X22611Y9918D01*
X22717Y9954D01*
X22738Y9933D01*
D02*
G37*
G36*
X22304Y9846D02*
X22203D01*
X22203Y9847D01*
X22203Y9848D01*
X22203Y9898D01*
X22303D01*
X22304Y9846D01*
D02*
G37*
G36*
X14804Y9928D02*
X14805Y9911D01*
X14808Y9896D01*
X14811Y9883D01*
X14816Y9872D01*
X14821Y9863D01*
X14828Y9855D01*
X14835Y9850D01*
X14844Y9847D01*
X14853Y9846D01*
X14653D01*
X14663Y9847D01*
X14671Y9850D01*
X14679Y9855D01*
X14685Y9863D01*
X14691Y9872D01*
X14695Y9883D01*
X14699Y9896D01*
X14701Y9911D01*
X14703Y9928D01*
X14703Y9948D01*
X14803D01*
X14804Y9928D01*
D02*
G37*
G36*
X14304D02*
X14305Y9911D01*
X14308Y9896D01*
X14311Y9883D01*
X14316Y9872D01*
X14321Y9863D01*
X14328Y9855D01*
X14335Y9850D01*
X14344Y9847D01*
X14353Y9846D01*
X14153D01*
X14163Y9847D01*
X14171Y9850D01*
X14179Y9855D01*
X14185Y9863D01*
X14191Y9872D01*
X14195Y9883D01*
X14199Y9896D01*
X14201Y9911D01*
X14203Y9928D01*
X14203Y9948D01*
X14303D01*
X14304Y9928D01*
D02*
G37*
G36*
X13695Y9949D02*
X13742Y9908D01*
X13765Y9892D01*
X13786Y9878D01*
X13806Y9867D01*
X13826Y9858D01*
X13845Y9851D01*
X13863Y9848D01*
X13879Y9846D01*
X13577Y9848D01*
X13586Y9848D01*
X13592Y9851D01*
X13596Y9855D01*
X13597Y9861D01*
X13595Y9868D01*
X13591Y9878D01*
X13583Y9888D01*
X13573Y9901D01*
X13561Y9915D01*
X13545Y9931D01*
X13671Y9973D01*
X13695Y9949D01*
D02*
G37*
G36*
X13210Y9933D02*
X13250Y9899D01*
X13269Y9885D01*
X13287Y9873D01*
X13304Y9863D01*
X13321Y9856D01*
X13337Y9851D01*
X13352Y9847D01*
X13366Y9846D01*
X13083D01*
X13096Y9847D01*
X13106Y9849D01*
X13113Y9853D01*
X13118Y9858D01*
X13119Y9864D01*
X13118Y9872D01*
X13113Y9882D01*
X13106Y9892D01*
X13096Y9905D01*
X13083Y9918D01*
X13189Y9954D01*
X13210Y9933D01*
D02*
G37*
G36*
X12738D02*
X12778Y9899D01*
X12797Y9885D01*
X12815Y9873D01*
X12832Y9863D01*
X12849Y9856D01*
X12865Y9851D01*
X12880Y9847D01*
X12894Y9846D01*
X12611D01*
X12624Y9847D01*
X12634Y9849D01*
X12641Y9853D01*
X12646Y9858D01*
X12647Y9864D01*
X12646Y9872D01*
X12641Y9882D01*
X12634Y9892D01*
X12624Y9905D01*
X12611Y9918D01*
X12717Y9954D01*
X12738Y9933D01*
D02*
G37*
G36*
X12304Y9846D02*
X12203D01*
X12203Y9847D01*
X12203Y9848D01*
X12203Y9898D01*
X12303D01*
X12304Y9846D01*
D02*
G37*
G36*
X4804Y9928D02*
X4805Y9911D01*
X4808Y9896D01*
X4811Y9883D01*
X4816Y9872D01*
X4821Y9863D01*
X4828Y9855D01*
X4835Y9850D01*
X4844Y9847D01*
X4853Y9846D01*
X4653D01*
X4663Y9847D01*
X4671Y9850D01*
X4679Y9855D01*
X4685Y9863D01*
X4691Y9872D01*
X4695Y9883D01*
X4699Y9896D01*
X4701Y9911D01*
X4703Y9928D01*
X4703Y9948D01*
X4803D01*
X4804Y9928D01*
D02*
G37*
G36*
X4304D02*
X4305Y9911D01*
X4308Y9896D01*
X4311Y9883D01*
X4316Y9872D01*
X4321Y9863D01*
X4328Y9855D01*
X4335Y9850D01*
X4344Y9847D01*
X4353Y9846D01*
X4153D01*
X4163Y9847D01*
X4171Y9850D01*
X4179Y9855D01*
X4185Y9863D01*
X4191Y9872D01*
X4195Y9883D01*
X4199Y9896D01*
X4201Y9911D01*
X4203Y9928D01*
X4203Y9948D01*
X4303D01*
X4304Y9928D01*
D02*
G37*
G36*
X3695Y9949D02*
X3742Y9908D01*
X3765Y9892D01*
X3786Y9878D01*
X3806Y9867D01*
X3826Y9858D01*
X3845Y9851D01*
X3863Y9848D01*
X3879Y9846D01*
X3577Y9848D01*
X3586Y9848D01*
X3592Y9851D01*
X3596Y9855D01*
X3597Y9861D01*
X3595Y9868D01*
X3591Y9878D01*
X3583Y9888D01*
X3573Y9901D01*
X3561Y9915D01*
X3545Y9931D01*
X3671Y9973D01*
X3695Y9949D01*
D02*
G37*
G36*
X3210Y9933D02*
X3250Y9899D01*
X3269Y9885D01*
X3287Y9873D01*
X3304Y9863D01*
X3321Y9856D01*
X3337Y9851D01*
X3352Y9847D01*
X3366Y9846D01*
X3083D01*
X3096Y9847D01*
X3106Y9849D01*
X3113Y9853D01*
X3118Y9858D01*
X3119Y9864D01*
X3118Y9872D01*
X3113Y9882D01*
X3106Y9892D01*
X3096Y9905D01*
X3083Y9918D01*
X3189Y9954D01*
X3210Y9933D01*
D02*
G37*
G36*
X2738D02*
X2778Y9899D01*
X2797Y9885D01*
X2815Y9873D01*
X2832Y9863D01*
X2849Y9856D01*
X2865Y9851D01*
X2880Y9847D01*
X2894Y9846D01*
X2611D01*
X2624Y9847D01*
X2634Y9849D01*
X2641Y9853D01*
X2646Y9858D01*
X2647Y9864D01*
X2646Y9872D01*
X2641Y9882D01*
X2634Y9892D01*
X2624Y9905D01*
X2611Y9918D01*
X2717Y9954D01*
X2738Y9933D01*
D02*
G37*
G36*
X2304Y9846D02*
X2203D01*
X2203Y9847D01*
X2203Y9848D01*
X2203Y9898D01*
X2303D01*
X2304Y9846D01*
D02*
G37*
G36*
X25007Y10157D02*
X25081Y10100D01*
X25168Y10065D01*
X25260Y10053D01*
X25660D01*
X25752Y10065D01*
X25773Y10073D01*
X25778Y10068D01*
X25839Y10028D01*
X25910Y10013D01*
X27113D01*
X27135Y9969D01*
X27105Y9928D01*
X27059Y9818D01*
X27043Y9700D01*
X27059Y9582D01*
X27105Y9472D01*
X27151Y9411D01*
X27127Y9361D01*
X27000D01*
X26939Y9348D01*
X26886Y9314D01*
X26886Y9314D01*
X26533Y8961D01*
X25548D01*
Y9967D01*
X24925D01*
Y10183D01*
X24975Y10200D01*
X25007Y10157D01*
D02*
G37*
G36*
X15007D02*
X15081Y10100D01*
X15167Y10065D01*
X15260Y10053D01*
X15660D01*
X15753Y10065D01*
X15773Y10073D01*
X15778Y10068D01*
X15839Y10028D01*
X15910Y10013D01*
X17113D01*
X17135Y9969D01*
X17105Y9928D01*
X17059Y9818D01*
X17043Y9700D01*
X17059Y9582D01*
X17105Y9472D01*
X17151Y9411D01*
X17127Y9361D01*
X17000D01*
X16939Y9348D01*
X16886Y9314D01*
X16886Y9314D01*
X16533Y8961D01*
X15548D01*
Y9967D01*
X14925D01*
Y10183D01*
X14975Y10200D01*
X15007Y10157D01*
D02*
G37*
G36*
X5007D02*
X5081Y10100D01*
X5167Y10065D01*
X5260Y10053D01*
X5660D01*
X5753Y10065D01*
X5773Y10073D01*
X5778Y10068D01*
X5839Y10028D01*
X5910Y10013D01*
X7113D01*
X7135Y9969D01*
X7105Y9928D01*
X7059Y9818D01*
X7043Y9700D01*
X7059Y9582D01*
X7105Y9472D01*
X7151Y9411D01*
X7127Y9361D01*
X7000D01*
X6939Y9348D01*
X6886Y9314D01*
X6886Y9314D01*
X6533Y8961D01*
X5548D01*
Y9967D01*
X4925D01*
Y10183D01*
X4975Y10200D01*
X5007Y10157D01*
D02*
G37*
G36*
X26886Y8286D02*
X26886Y8286D01*
X26939Y8252D01*
X27000Y8239D01*
X27047D01*
Y7447D01*
X27283D01*
X27315Y7409D01*
X27313Y7400D01*
X27328Y7328D01*
X27324Y7317D01*
X27272Y7295D01*
X27177Y7223D01*
X27105Y7128D01*
X27059Y7018D01*
X27043Y6900D01*
X27059Y6782D01*
X27105Y6672D01*
X27177Y6577D01*
X27272Y6505D01*
X27324Y6483D01*
X27328Y6472D01*
X27313Y6400D01*
X27328Y6329D01*
X27324Y6317D01*
X27272Y6295D01*
X27177Y6223D01*
X27105Y6128D01*
X27059Y6018D01*
X27043Y5900D01*
X27059Y5782D01*
X27105Y5672D01*
X27157Y5604D01*
X27150Y5539D01*
X27140Y5532D01*
X27099Y5471D01*
X27085Y5400D01*
X27099Y5329D01*
X27140Y5268D01*
X27150Y5261D01*
X27157Y5196D01*
X27105Y5128D01*
X27059Y5018D01*
X27043Y4900D01*
X27059Y4782D01*
X27105Y4672D01*
X27177Y4577D01*
X27272Y4505D01*
X27382Y4459D01*
X27500Y4443D01*
Y4357D01*
X27382Y4341D01*
X27272Y4295D01*
X27177Y4223D01*
X27105Y4128D01*
X27059Y4018D01*
X27043Y3900D01*
X27059Y3782D01*
X27105Y3672D01*
X27177Y3577D01*
X27272Y3505D01*
X27382Y3459D01*
X27500Y3443D01*
Y3357D01*
X27382Y3341D01*
X27272Y3295D01*
X27177Y3223D01*
X27105Y3128D01*
X27059Y3018D01*
X27043Y2900D01*
X27059Y2782D01*
X27105Y2672D01*
X27135Y2632D01*
X27113Y2587D01*
X27050D01*
X26979Y2572D01*
X26918Y2532D01*
X26353Y1967D01*
X25870D01*
X25799Y1952D01*
X25783Y1942D01*
X25752Y1955D01*
X25660Y1967D01*
X25260D01*
X25168Y1955D01*
X25081Y1920D01*
X25007Y1863D01*
X24950Y1789D01*
X24916Y1705D01*
X24900Y1698D01*
X24865Y1687D01*
X24833Y1709D01*
X24818Y1787D01*
X24765Y1865D01*
X24687Y1918D01*
X24595Y1936D01*
X24503Y1918D01*
X24425Y1865D01*
X24372Y1787D01*
X24354Y1695D01*
X24372Y1603D01*
X24425Y1525D01*
X24503Y1472D01*
X24582Y1457D01*
Y1167D01*
X24425D01*
Y1177D01*
X24412Y1242D01*
X24374Y1298D01*
X22661Y3011D01*
Y4880D01*
X22648Y4946D01*
X22611Y5001D01*
X22543Y5070D01*
X22459Y5156D01*
X22439Y5179D01*
X22433Y5214D01*
X22380Y5292D01*
X22302Y5344D01*
X22210Y5362D01*
X22118Y5344D01*
X22040Y5292D01*
X21987Y5214D01*
X21969Y5122D01*
X21987Y5029D01*
X22040Y4951D01*
X22118Y4899D01*
X22210Y4881D01*
X22220Y4883D01*
X22221Y4882D01*
X22231Y4877D01*
X22245Y4869D01*
X22260Y4858D01*
X22319Y4808D01*
Y4137D01*
X22269Y4099D01*
X22210Y4111D01*
X22179Y4105D01*
X22122Y4144D01*
X22113Y4190D01*
X22060Y4268D01*
X22044Y4279D01*
Y4329D01*
X22060Y4340D01*
X22113Y4418D01*
X22131Y4510D01*
X22113Y4602D01*
X22060Y4680D01*
X21982Y4733D01*
X21890Y4751D01*
X21798Y4733D01*
X21720Y4680D01*
X21667Y4602D01*
X21654Y4533D01*
X21653Y4532D01*
X21650Y4526D01*
X21560Y4422D01*
X21359Y4221D01*
X21322Y4166D01*
X21309Y4100D01*
Y1871D01*
X21322Y1806D01*
X21359Y1750D01*
X21910Y1199D01*
X21889Y1149D01*
X21812D01*
Y655D01*
X21753D01*
Y596D01*
X21476D01*
Y161D01*
X21426Y161D01*
X20467D01*
X20161Y467D01*
Y5357D01*
X20541D01*
X20569Y5290D01*
X20652Y5183D01*
X20758Y5101D01*
X20883Y5049D01*
X21017Y5032D01*
X21150Y5049D01*
X21275Y5101D01*
X21382Y5183D01*
X21464Y5290D01*
X21515Y5414D01*
X21533Y5548D01*
X21515Y5681D01*
X21464Y5806D01*
X21382Y5913D01*
X21275Y5995D01*
X21157Y6043D01*
Y6184D01*
X20161D01*
Y8333D01*
X20467Y8639D01*
X21026D01*
Y7633D01*
X22049D01*
Y8639D01*
X24963D01*
Y8439D01*
X24945Y8424D01*
X24849Y8405D01*
X24767Y8351D01*
X24713Y8269D01*
X24694Y8173D01*
X24713Y8077D01*
X24767Y7996D01*
X24849Y7942D01*
X24945Y7922D01*
X24963Y7908D01*
Y7701D01*
X24550D01*
X24473Y7685D01*
X24408Y7642D01*
X24208Y7442D01*
X24191Y7417D01*
X24141Y7432D01*
Y7475D01*
X24142Y7495D01*
X24142Y7498D01*
X24163Y7530D01*
X24182Y7622D01*
X24163Y7714D01*
X24111Y7792D01*
X24033Y7845D01*
X23941Y7863D01*
X23849Y7845D01*
X23770Y7792D01*
X23718Y7714D01*
X23700Y7622D01*
X23718Y7530D01*
X23737Y7501D01*
X23740Y7374D01*
Y6391D01*
X22447D01*
X22427Y6391D01*
X22424Y6391D01*
X22392Y6413D01*
X22300Y6431D01*
X22207Y6413D01*
X22129Y6360D01*
X22077Y6282D01*
X22059Y6190D01*
X22077Y6098D01*
X22129Y6020D01*
X22207Y5967D01*
X22300Y5949D01*
X22392Y5967D01*
X22421Y5987D01*
X22548Y5989D01*
X23740D01*
Y3679D01*
X23755Y3602D01*
X23799Y3537D01*
X24648Y2688D01*
X24713Y2645D01*
X24790Y2629D01*
X25380D01*
X25457Y2645D01*
X25522Y2688D01*
X25622Y2788D01*
X25665Y2853D01*
X25681Y2930D01*
Y3329D01*
X25665Y3406D01*
X25622Y3471D01*
X25565Y3528D01*
X25558Y3566D01*
X25505Y3644D01*
X25427Y3696D01*
X25335Y3715D01*
X25243Y3696D01*
X25165Y3644D01*
X25113Y3566D01*
X25096Y3486D01*
X25063Y3469D01*
X25045Y3466D01*
X24551Y3961D01*
Y7217D01*
X24633Y7299D01*
X25133D01*
X25152Y7299D01*
X25156Y7299D01*
X25188Y7277D01*
X25280Y7259D01*
X25372Y7277D01*
X25450Y7330D01*
X25503Y7408D01*
X25521Y7500D01*
X25504Y7583D01*
X25531Y7633D01*
X25986D01*
Y8639D01*
X26533D01*
X26886Y8286D01*
D02*
G37*
G36*
X16886D02*
X16886Y8286D01*
X16939Y8252D01*
X17000Y8239D01*
X17047D01*
Y7447D01*
X17283D01*
X17315Y7409D01*
X17313Y7400D01*
X17328Y7328D01*
X17324Y7317D01*
X17272Y7295D01*
X17177Y7223D01*
X17105Y7128D01*
X17059Y7018D01*
X17043Y6900D01*
X17059Y6782D01*
X17105Y6672D01*
X17177Y6577D01*
X17272Y6505D01*
X17324Y6483D01*
X17328Y6472D01*
X17313Y6400D01*
X17328Y6329D01*
X17324Y6317D01*
X17272Y6295D01*
X17177Y6223D01*
X17105Y6128D01*
X17059Y6018D01*
X17043Y5900D01*
X17059Y5782D01*
X17105Y5672D01*
X17157Y5604D01*
X17150Y5539D01*
X17140Y5532D01*
X17099Y5471D01*
X17085Y5400D01*
X17099Y5329D01*
X17140Y5268D01*
X17150Y5261D01*
X17157Y5196D01*
X17105Y5128D01*
X17059Y5018D01*
X17043Y4900D01*
X17059Y4782D01*
X17105Y4672D01*
X17177Y4577D01*
X17272Y4505D01*
X17382Y4459D01*
X17500Y4443D01*
Y4357D01*
X17382Y4341D01*
X17272Y4295D01*
X17177Y4223D01*
X17105Y4128D01*
X17059Y4018D01*
X17043Y3900D01*
X17059Y3782D01*
X17105Y3672D01*
X17177Y3577D01*
X17272Y3505D01*
X17382Y3459D01*
X17500Y3443D01*
Y3357D01*
X17382Y3341D01*
X17272Y3295D01*
X17177Y3223D01*
X17105Y3128D01*
X17059Y3018D01*
X17043Y2900D01*
X17059Y2782D01*
X17105Y2672D01*
X17135Y2632D01*
X17113Y2587D01*
X17050D01*
X16979Y2572D01*
X16918Y2532D01*
X16353Y1967D01*
X15870D01*
X15799Y1952D01*
X15783Y1942D01*
X15753Y1955D01*
X15660Y1967D01*
X15260D01*
X15167Y1955D01*
X15081Y1920D01*
X15007Y1863D01*
X14950Y1789D01*
X14916Y1705D01*
X14900Y1698D01*
X14865Y1687D01*
X14833Y1709D01*
X14818Y1787D01*
X14765Y1865D01*
X14687Y1918D01*
X14595Y1936D01*
X14503Y1918D01*
X14425Y1865D01*
X14372Y1787D01*
X14354Y1695D01*
X14372Y1603D01*
X14425Y1525D01*
X14503Y1472D01*
X14582Y1457D01*
Y1167D01*
X14425D01*
Y1177D01*
X14412Y1242D01*
X14374Y1298D01*
X12661Y3011D01*
Y4880D01*
X12648Y4946D01*
X12611Y5001D01*
X12543Y5070D01*
X12459Y5156D01*
X12439Y5179D01*
X12433Y5214D01*
X12380Y5292D01*
X12302Y5344D01*
X12210Y5362D01*
X12118Y5344D01*
X12040Y5292D01*
X11987Y5214D01*
X11969Y5122D01*
X11987Y5029D01*
X12040Y4951D01*
X12118Y4899D01*
X12210Y4881D01*
X12220Y4883D01*
X12221Y4882D01*
X12231Y4877D01*
X12245Y4869D01*
X12260Y4858D01*
X12319Y4808D01*
Y4137D01*
X12269Y4099D01*
X12210Y4111D01*
X12179Y4105D01*
X12122Y4144D01*
X12113Y4190D01*
X12060Y4268D01*
X12044Y4279D01*
Y4329D01*
X12060Y4340D01*
X12113Y4418D01*
X12131Y4510D01*
X12113Y4602D01*
X12060Y4680D01*
X11982Y4733D01*
X11890Y4751D01*
X11798Y4733D01*
X11720Y4680D01*
X11667Y4602D01*
X11654Y4533D01*
X11653Y4532D01*
X11650Y4526D01*
X11560Y4422D01*
X11359Y4221D01*
X11322Y4166D01*
X11309Y4100D01*
Y1871D01*
X11322Y1806D01*
X11359Y1750D01*
X11910Y1199D01*
X11889Y1149D01*
X11812D01*
Y655D01*
X11753D01*
Y596D01*
X11476D01*
Y161D01*
X11426Y161D01*
X10467D01*
X10161Y467D01*
Y5357D01*
X10541D01*
X10569Y5290D01*
X10652Y5183D01*
X10758Y5101D01*
X10883Y5049D01*
X11017Y5032D01*
X11150Y5049D01*
X11275Y5101D01*
X11382Y5183D01*
X11464Y5290D01*
X11515Y5414D01*
X11533Y5548D01*
X11515Y5681D01*
X11464Y5806D01*
X11382Y5913D01*
X11275Y5995D01*
X11157Y6043D01*
Y6184D01*
X10161D01*
Y8333D01*
X10467Y8639D01*
X11026D01*
Y7633D01*
X12049D01*
Y8639D01*
X14963D01*
Y8439D01*
X14945Y8424D01*
X14849Y8405D01*
X14767Y8351D01*
X14713Y8269D01*
X14694Y8173D01*
X14713Y8077D01*
X14767Y7996D01*
X14849Y7942D01*
X14945Y7922D01*
X14963Y7908D01*
Y7701D01*
X14550D01*
X14473Y7685D01*
X14408Y7642D01*
X14208Y7442D01*
X14191Y7417D01*
X14141Y7432D01*
Y7475D01*
X14142Y7495D01*
X14142Y7498D01*
X14163Y7530D01*
X14182Y7622D01*
X14163Y7714D01*
X14111Y7792D01*
X14033Y7845D01*
X13941Y7863D01*
X13849Y7845D01*
X13770Y7792D01*
X13718Y7714D01*
X13700Y7622D01*
X13718Y7530D01*
X13737Y7501D01*
X13740Y7374D01*
Y6391D01*
X12447D01*
X12427Y6391D01*
X12424Y6391D01*
X12392Y6413D01*
X12300Y6431D01*
X12207Y6413D01*
X12129Y6360D01*
X12077Y6282D01*
X12059Y6190D01*
X12077Y6098D01*
X12129Y6020D01*
X12207Y5967D01*
X12300Y5949D01*
X12392Y5967D01*
X12421Y5987D01*
X12548Y5989D01*
X13740D01*
Y3679D01*
X13755Y3602D01*
X13799Y3537D01*
X14648Y2688D01*
X14713Y2645D01*
X14790Y2629D01*
X15380D01*
X15457Y2645D01*
X15522Y2688D01*
X15622Y2788D01*
X15665Y2853D01*
X15681Y2930D01*
Y3329D01*
X15665Y3406D01*
X15622Y3471D01*
X15565Y3528D01*
X15558Y3566D01*
X15505Y3644D01*
X15427Y3696D01*
X15335Y3715D01*
X15243Y3696D01*
X15165Y3644D01*
X15113Y3566D01*
X15096Y3486D01*
X15063Y3469D01*
X15045Y3466D01*
X14551Y3961D01*
Y7217D01*
X14633Y7299D01*
X15133D01*
X15152Y7299D01*
X15156Y7299D01*
X15188Y7277D01*
X15280Y7259D01*
X15372Y7277D01*
X15450Y7330D01*
X15503Y7408D01*
X15521Y7500D01*
X15504Y7583D01*
X15531Y7633D01*
X15986D01*
Y8639D01*
X16533D01*
X16886Y8286D01*
D02*
G37*
G36*
X6886D02*
X6886Y8286D01*
X6939Y8252D01*
X7000Y8239D01*
X7047D01*
Y7447D01*
X7283D01*
X7315Y7409D01*
X7313Y7400D01*
X7328Y7328D01*
X7324Y7317D01*
X7272Y7295D01*
X7177Y7223D01*
X7105Y7128D01*
X7059Y7018D01*
X7043Y6900D01*
X7059Y6782D01*
X7105Y6672D01*
X7177Y6577D01*
X7272Y6505D01*
X7324Y6483D01*
X7328Y6472D01*
X7313Y6400D01*
X7328Y6329D01*
X7324Y6317D01*
X7272Y6295D01*
X7177Y6223D01*
X7105Y6128D01*
X7059Y6018D01*
X7043Y5900D01*
X7059Y5782D01*
X7105Y5672D01*
X7157Y5604D01*
X7150Y5539D01*
X7140Y5532D01*
X7099Y5471D01*
X7085Y5400D01*
X7099Y5329D01*
X7140Y5268D01*
X7150Y5261D01*
X7157Y5196D01*
X7105Y5128D01*
X7059Y5018D01*
X7043Y4900D01*
X7059Y4782D01*
X7105Y4672D01*
X7177Y4577D01*
X7272Y4505D01*
X7382Y4459D01*
X7500Y4443D01*
Y4357D01*
X7382Y4341D01*
X7272Y4295D01*
X7177Y4223D01*
X7105Y4128D01*
X7059Y4018D01*
X7043Y3900D01*
X7059Y3782D01*
X7105Y3672D01*
X7177Y3577D01*
X7272Y3505D01*
X7382Y3459D01*
X7500Y3443D01*
Y3357D01*
X7382Y3341D01*
X7272Y3295D01*
X7177Y3223D01*
X7105Y3128D01*
X7059Y3018D01*
X7043Y2900D01*
X7059Y2782D01*
X7105Y2672D01*
X7135Y2632D01*
X7113Y2587D01*
X7050D01*
X6979Y2572D01*
X6918Y2532D01*
X6353Y1967D01*
X5870D01*
X5799Y1952D01*
X5783Y1942D01*
X5753Y1955D01*
X5660Y1967D01*
X5260D01*
X5167Y1955D01*
X5081Y1920D01*
X5007Y1863D01*
X4950Y1789D01*
X4916Y1705D01*
X4900Y1698D01*
X4865Y1687D01*
X4833Y1709D01*
X4818Y1787D01*
X4765Y1865D01*
X4687Y1918D01*
X4595Y1936D01*
X4503Y1918D01*
X4425Y1865D01*
X4372Y1787D01*
X4354Y1695D01*
X4372Y1603D01*
X4425Y1525D01*
X4503Y1472D01*
X4582Y1457D01*
Y1167D01*
X4425D01*
Y1177D01*
X4412Y1242D01*
X4374Y1298D01*
X2661Y3011D01*
Y4880D01*
X2648Y4946D01*
X2611Y5001D01*
X2543Y5070D01*
X2459Y5156D01*
X2439Y5179D01*
X2433Y5214D01*
X2380Y5292D01*
X2302Y5344D01*
X2210Y5362D01*
X2118Y5344D01*
X2040Y5292D01*
X1987Y5214D01*
X1969Y5122D01*
X1987Y5029D01*
X2040Y4951D01*
X2118Y4899D01*
X2210Y4881D01*
X2220Y4883D01*
X2221Y4882D01*
X2231Y4877D01*
X2245Y4869D01*
X2260Y4858D01*
X2319Y4808D01*
Y4137D01*
X2269Y4099D01*
X2210Y4111D01*
X2179Y4105D01*
X2122Y4144D01*
X2113Y4190D01*
X2060Y4268D01*
X2044Y4279D01*
Y4329D01*
X2060Y4340D01*
X2113Y4418D01*
X2131Y4510D01*
X2113Y4602D01*
X2060Y4680D01*
X1982Y4733D01*
X1890Y4751D01*
X1798Y4733D01*
X1720Y4680D01*
X1667Y4602D01*
X1654Y4533D01*
X1653Y4532D01*
X1650Y4526D01*
X1560Y4422D01*
X1359Y4221D01*
X1322Y4166D01*
X1309Y4100D01*
Y1871D01*
X1322Y1806D01*
X1359Y1750D01*
X1910Y1199D01*
X1889Y1149D01*
X1812D01*
Y655D01*
X1753D01*
Y596D01*
X1476D01*
Y161D01*
X1426Y161D01*
X467D01*
X161Y467D01*
Y5357D01*
X541D01*
X569Y5290D01*
X652Y5183D01*
X758Y5101D01*
X883Y5049D01*
X1017Y5032D01*
X1150Y5049D01*
X1275Y5101D01*
X1382Y5183D01*
X1464Y5290D01*
X1515Y5414D01*
X1533Y5548D01*
X1515Y5681D01*
X1464Y5806D01*
X1382Y5913D01*
X1275Y5995D01*
X1157Y6043D01*
Y6184D01*
X161D01*
Y8333D01*
X467Y8639D01*
X1026D01*
Y7633D01*
X2049D01*
Y8639D01*
X4963D01*
Y8439D01*
X4945Y8424D01*
X4849Y8405D01*
X4767Y8351D01*
X4713Y8269D01*
X4694Y8173D01*
X4713Y8077D01*
X4767Y7996D01*
X4849Y7942D01*
X4945Y7922D01*
X4963Y7908D01*
Y7701D01*
X4550D01*
X4473Y7685D01*
X4408Y7642D01*
X4208Y7442D01*
X4191Y7417D01*
X4141Y7432D01*
Y7475D01*
X4142Y7495D01*
X4142Y7498D01*
X4163Y7530D01*
X4182Y7622D01*
X4163Y7714D01*
X4111Y7792D01*
X4033Y7845D01*
X3941Y7863D01*
X3849Y7845D01*
X3770Y7792D01*
X3718Y7714D01*
X3700Y7622D01*
X3718Y7530D01*
X3737Y7501D01*
X3740Y7374D01*
Y6391D01*
X2447D01*
X2427Y6391D01*
X2424Y6391D01*
X2392Y6413D01*
X2300Y6431D01*
X2207Y6413D01*
X2129Y6360D01*
X2077Y6282D01*
X2059Y6190D01*
X2077Y6098D01*
X2129Y6020D01*
X2207Y5967D01*
X2300Y5949D01*
X2392Y5967D01*
X2421Y5987D01*
X2548Y5989D01*
X3740D01*
Y3679D01*
X3755Y3602D01*
X3799Y3537D01*
X4648Y2688D01*
X4713Y2645D01*
X4790Y2629D01*
X5380D01*
X5457Y2645D01*
X5522Y2688D01*
X5622Y2788D01*
X5665Y2853D01*
X5681Y2930D01*
Y3329D01*
X5665Y3406D01*
X5622Y3471D01*
X5565Y3528D01*
X5558Y3566D01*
X5505Y3644D01*
X5427Y3696D01*
X5335Y3715D01*
X5243Y3696D01*
X5165Y3644D01*
X5113Y3566D01*
X5096Y3486D01*
X5063Y3469D01*
X5045Y3466D01*
X4551Y3961D01*
Y7217D01*
X4633Y7299D01*
X5133D01*
X5152Y7299D01*
X5156Y7299D01*
X5188Y7277D01*
X5280Y7259D01*
X5372Y7277D01*
X5450Y7330D01*
X5503Y7408D01*
X5521Y7500D01*
X5504Y7583D01*
X5531Y7633D01*
X5986D01*
Y8639D01*
X6533D01*
X6886Y8286D01*
D02*
G37*
G36*
X25197Y7416D02*
X25193Y7417D01*
X25185Y7418D01*
X25156Y7420D01*
X24956Y7421D01*
Y7579D01*
X25197Y7584D01*
Y7416D01*
D02*
G37*
G36*
X15197D02*
X15193Y7417D01*
X15185Y7418D01*
X15156Y7420D01*
X14956Y7421D01*
Y7579D01*
X15197Y7584D01*
Y7416D01*
D02*
G37*
G36*
X5197D02*
X5193Y7417D01*
X5185Y7418D01*
X5156Y7420D01*
X4956Y7421D01*
Y7579D01*
X5197Y7584D01*
Y7416D01*
D02*
G37*
G36*
X24023Y7535D02*
X24023Y7528D01*
X24021Y7498D01*
X24019Y7298D01*
X23862D01*
X23857Y7539D01*
X24024D01*
X24023Y7535D01*
D02*
G37*
G36*
X14023D02*
X14023Y7528D01*
X14021Y7498D01*
X14019Y7298D01*
X13862D01*
X13857Y7539D01*
X14024D01*
X14023Y7535D01*
D02*
G37*
G36*
X4023D02*
X4023Y7528D01*
X4021Y7498D01*
X4019Y7298D01*
X3862D01*
X3857Y7539D01*
X4024D01*
X4023Y7535D01*
D02*
G37*
G36*
X22386Y6273D02*
X22394Y6272D01*
X22424Y6270D01*
X22624Y6269D01*
Y6111D01*
X22383Y6106D01*
Y6274D01*
X22386Y6273D01*
D02*
G37*
G36*
X12386D02*
X12394Y6272D01*
X12424Y6270D01*
X12624Y6269D01*
Y6111D01*
X12383Y6106D01*
Y6274D01*
X12386Y6273D01*
D02*
G37*
G36*
X2386D02*
X2394Y6272D01*
X2424Y6270D01*
X2624Y6269D01*
Y6111D01*
X2383Y6106D01*
Y6274D01*
X2386Y6273D01*
D02*
G37*
G36*
X22330Y5126D02*
X22335Y5117D01*
X22343Y5106D01*
X22370Y5075D01*
X22495Y4946D01*
X22443Y4856D01*
X22413Y4885D01*
X22334Y4953D01*
X22311Y4970D01*
X22289Y4983D01*
X22269Y4993D01*
X22251Y5000D01*
X22234Y5003D01*
X22219Y5004D01*
X22328Y5131D01*
X22330Y5126D01*
D02*
G37*
G36*
X12330D02*
X12335Y5117D01*
X12343Y5106D01*
X12370Y5075D01*
X12495Y4946D01*
X12443Y4856D01*
X12413Y4885D01*
X12334Y4953D01*
X12311Y4970D01*
X12289Y4983D01*
X12269Y4993D01*
X12251Y5000D01*
X12234Y5003D01*
X12219Y5004D01*
X12328Y5131D01*
X12330Y5126D01*
D02*
G37*
G36*
X2330D02*
X2335Y5117D01*
X2343Y5106D01*
X2370Y5075D01*
X2495Y4946D01*
X2443Y4856D01*
X2413Y4885D01*
X2334Y4953D01*
X2310Y4970D01*
X2289Y4983D01*
X2269Y4993D01*
X2251Y5000D01*
X2234Y5003D01*
X2219Y5004D01*
X2328Y5131D01*
X2330Y5126D01*
D02*
G37*
G36*
X21890Y4392D02*
X21879Y4390D01*
X21867Y4385D01*
X21851Y4377D01*
X21834Y4366D01*
X21814Y4352D01*
X21768Y4314D01*
X21714Y4262D01*
X21683Y4232D01*
X21612Y4303D01*
X21642Y4334D01*
X21746Y4454D01*
X21757Y4471D01*
X21765Y4487D01*
X21770Y4499D01*
X21772Y4510D01*
X21890Y4392D01*
D02*
G37*
G36*
X11890D02*
X11879Y4390D01*
X11867Y4385D01*
X11851Y4377D01*
X11834Y4366D01*
X11814Y4352D01*
X11768Y4314D01*
X11714Y4262D01*
X11683Y4232D01*
X11612Y4303D01*
X11642Y4334D01*
X11746Y4454D01*
X11757Y4471D01*
X11765Y4487D01*
X11770Y4499D01*
X11772Y4510D01*
X11890Y4392D01*
D02*
G37*
G36*
X1890D02*
X1879Y4390D01*
X1867Y4385D01*
X1851Y4377D01*
X1834Y4366D01*
X1814Y4352D01*
X1768Y4314D01*
X1714Y4262D01*
X1683Y4232D01*
X1612Y4303D01*
X1642Y4334D01*
X1746Y4454D01*
X1757Y4471D01*
X1765Y4487D01*
X1770Y4499D01*
X1772Y4510D01*
X1890Y4392D01*
D02*
G37*
G36*
X21899Y3980D02*
X21886Y3978D01*
X21872Y3974D01*
X21857Y3967D01*
X21840Y3958D01*
X21823Y3946D01*
X21804Y3932D01*
X21762Y3897D01*
X21715Y3853D01*
X21645Y3923D01*
X21668Y3947D01*
X21724Y4012D01*
X21738Y4031D01*
X21750Y4048D01*
X21759Y4065D01*
X21766Y4080D01*
X21770Y4094D01*
X21772Y4107D01*
X21899Y3980D01*
D02*
G37*
G36*
X11899D02*
X11886Y3978D01*
X11872Y3974D01*
X11857Y3967D01*
X11840Y3958D01*
X11823Y3946D01*
X11804Y3932D01*
X11762Y3897D01*
X11715Y3853D01*
X11645Y3923D01*
X11668Y3947D01*
X11724Y4012D01*
X11738Y4031D01*
X11750Y4048D01*
X11759Y4065D01*
X11766Y4080D01*
X11770Y4094D01*
X11772Y4107D01*
X11899Y3980D01*
D02*
G37*
G36*
X1899D02*
X1886Y3978D01*
X1872Y3974D01*
X1857Y3967D01*
X1840Y3958D01*
X1823Y3946D01*
X1804Y3932D01*
X1762Y3897D01*
X1715Y3853D01*
X1645Y3923D01*
X1668Y3947D01*
X1724Y4012D01*
X1738Y4031D01*
X1750Y4048D01*
X1759Y4065D01*
X1766Y4080D01*
X1770Y4094D01*
X1772Y4107D01*
X1899Y3980D01*
D02*
G37*
G36*
X22210Y3752D02*
X22199Y3750D01*
X22187Y3745D01*
X22171Y3737D01*
X22154Y3726D01*
X22134Y3712D01*
X22088Y3674D01*
X22034Y3622D01*
X22003Y3592D01*
X21932Y3663D01*
X21962Y3694D01*
X22066Y3814D01*
X22077Y3831D01*
X22085Y3847D01*
X22090Y3859D01*
X22092Y3870D01*
X22210Y3752D01*
D02*
G37*
G36*
X12210D02*
X12199Y3750D01*
X12187Y3745D01*
X12171Y3737D01*
X12154Y3726D01*
X12134Y3712D01*
X12088Y3674D01*
X12034Y3622D01*
X12003Y3592D01*
X11932Y3663D01*
X11962Y3694D01*
X12066Y3814D01*
X12077Y3831D01*
X12085Y3847D01*
X12090Y3859D01*
X12092Y3870D01*
X12210Y3752D01*
D02*
G37*
G36*
X2210D02*
X2199Y3750D01*
X2187Y3745D01*
X2171Y3737D01*
X2154Y3726D01*
X2134Y3712D01*
X2088Y3674D01*
X2034Y3622D01*
X2003Y3592D01*
X1932Y3663D01*
X1962Y3694D01*
X2066Y3814D01*
X2077Y3831D01*
X2085Y3847D01*
X2090Y3859D01*
X2092Y3870D01*
X2210Y3752D01*
D02*
G37*
G36*
X25100Y3246D02*
X24982Y3127D01*
X24980Y3130D01*
X24975Y3137D01*
X24955Y3158D01*
X24815Y3301D01*
X24926Y3412D01*
X25100Y3246D01*
D02*
G37*
G36*
X15100D02*
X14982Y3127D01*
X14980Y3130D01*
X14975Y3137D01*
X14955Y3158D01*
X14815Y3301D01*
X14926Y3412D01*
X15100Y3246D01*
D02*
G37*
G36*
X5100D02*
X4982Y3127D01*
X4980Y3130D01*
X4975Y3137D01*
X4955Y3158D01*
X4815Y3301D01*
X4926Y3412D01*
X5100Y3246D01*
D02*
G37*
G36*
X22289Y3320D02*
X22285Y3308D01*
X22281Y3293D01*
X22278Y3274D01*
X22273Y3223D01*
X22269Y3116D01*
X22269Y3071D01*
X22151D01*
X22151Y3116D01*
X22139Y3293D01*
X22135Y3308D01*
X22131Y3320D01*
X22126Y3327D01*
X22294D01*
X22289Y3320D01*
D02*
G37*
G36*
X12289D02*
X12285Y3308D01*
X12281Y3293D01*
X12278Y3274D01*
X12273Y3223D01*
X12269Y3116D01*
X12269Y3071D01*
X12151D01*
X12151Y3116D01*
X12139Y3293D01*
X12135Y3308D01*
X12131Y3320D01*
X12126Y3327D01*
X12294D01*
X12289Y3320D01*
D02*
G37*
G36*
X2289D02*
X2285Y3308D01*
X2281Y3293D01*
X2278Y3274D01*
X2273Y3223D01*
X2269Y3116D01*
X2269Y3071D01*
X2151D01*
X2151Y3116D01*
X2139Y3293D01*
X2135Y3308D01*
X2131Y3320D01*
X2126Y3327D01*
X2294D01*
X2289Y3320D01*
D02*
G37*
G36*
X28291Y2191D02*
X28259Y2218D01*
X28218Y2243D01*
X28171Y2264D01*
X28115Y2283D01*
X28052Y2299D01*
X27981Y2312D01*
X27903Y2322D01*
X27723Y2334D01*
X27621Y2335D01*
Y2465D01*
X27723Y2466D01*
X27981Y2488D01*
X28052Y2501D01*
X28115Y2517D01*
X28171Y2535D01*
X28218Y2557D01*
X28259Y2582D01*
X28291Y2609D01*
Y2191D01*
D02*
G37*
G36*
X18291D02*
X18259Y2218D01*
X18218Y2243D01*
X18171Y2264D01*
X18115Y2283D01*
X18052Y2299D01*
X17981Y2312D01*
X17903Y2322D01*
X17723Y2334D01*
X17621Y2335D01*
Y2465D01*
X17723Y2466D01*
X17981Y2488D01*
X18052Y2501D01*
X18115Y2517D01*
X18171Y2535D01*
X18218Y2557D01*
X18259Y2582D01*
X18291Y2609D01*
Y2191D01*
D02*
G37*
G36*
X8291D02*
X8259Y2218D01*
X8218Y2243D01*
X8171Y2264D01*
X8115Y2283D01*
X8052Y2299D01*
X7981Y2312D01*
X7903Y2322D01*
X7723Y2334D01*
X7621Y2335D01*
Y2465D01*
X7723Y2466D01*
X7981Y2488D01*
X8052Y2501D01*
X8115Y2517D01*
X8171Y2535D01*
X8218Y2557D01*
X8259Y2582D01*
X8291Y2609D01*
Y2191D01*
D02*
G37*
G36*
X24708Y1656D02*
X24710Y1653D01*
X24714Y1649D01*
X24773Y1588D01*
X24789Y1572D01*
X24718Y1501D01*
X24632Y1583D01*
X24707Y1658D01*
X24708Y1656D01*
D02*
G37*
G36*
X14708D02*
X14710Y1653D01*
X14714Y1649D01*
X14773Y1588D01*
X14789Y1572D01*
X14718Y1501D01*
X14632Y1583D01*
X14707Y1658D01*
X14708Y1656D01*
D02*
G37*
G36*
X4708D02*
X4710Y1653D01*
X4714Y1649D01*
X4773Y1588D01*
X4789Y1572D01*
X4718Y1501D01*
X4632Y1583D01*
X4707Y1658D01*
X4708Y1656D01*
D02*
G37*
G36*
X25819Y1600D02*
X25823Y1592D01*
X25830Y1582D01*
X25839Y1570D01*
X25885Y1519D01*
X25956Y1446D01*
X25864Y1354D01*
X25841Y1377D01*
X25755Y1452D01*
X25743Y1459D01*
X25734Y1463D01*
X25726Y1465D01*
X25721Y1465D01*
X25817Y1605D01*
X25819Y1600D01*
D02*
G37*
G36*
X15819D02*
X15823Y1592D01*
X15830Y1582D01*
X15839Y1570D01*
X15885Y1519D01*
X15956Y1446D01*
X15864Y1354D01*
X15841Y1377D01*
X15755Y1452D01*
X15743Y1459D01*
X15734Y1463D01*
X15726Y1465D01*
X15721Y1465D01*
X15817Y1605D01*
X15819Y1600D01*
D02*
G37*
G36*
X5819D02*
X5823Y1592D01*
X5830Y1582D01*
X5839Y1570D01*
X5885Y1519D01*
X5956Y1446D01*
X5864Y1354D01*
X5841Y1377D01*
X5755Y1452D01*
X5743Y1459D01*
X5734Y1463D01*
X5726Y1465D01*
X5721Y1465D01*
X5817Y1605D01*
X5819Y1600D01*
D02*
G37*
G36*
X28291Y1191D02*
X28259Y1218D01*
X28218Y1243D01*
X28171Y1265D01*
X28115Y1283D01*
X28052Y1299D01*
X27981Y1312D01*
X27903Y1322D01*
X27723Y1334D01*
X27621Y1335D01*
Y1465D01*
X27723Y1466D01*
X27981Y1488D01*
X28052Y1501D01*
X28115Y1517D01*
X28171Y1535D01*
X28218Y1557D01*
X28259Y1582D01*
X28291Y1609D01*
Y1191D01*
D02*
G37*
G36*
X18291D02*
X18259Y1218D01*
X18218Y1243D01*
X18171Y1265D01*
X18115Y1283D01*
X18052Y1299D01*
X17981Y1312D01*
X17903Y1322D01*
X17723Y1334D01*
X17621Y1335D01*
Y1465D01*
X17723Y1466D01*
X17981Y1488D01*
X18052Y1501D01*
X18115Y1517D01*
X18171Y1535D01*
X18218Y1557D01*
X18259Y1582D01*
X18291Y1609D01*
Y1191D01*
D02*
G37*
G36*
X8291D02*
X8259Y1218D01*
X8218Y1243D01*
X8171Y1265D01*
X8115Y1283D01*
X8052Y1299D01*
X7981Y1312D01*
X7903Y1322D01*
X7723Y1334D01*
X7621Y1335D01*
Y1465D01*
X7723Y1466D01*
X7981Y1488D01*
X8052Y1501D01*
X8115Y1517D01*
X8171Y1535D01*
X8218Y1557D01*
X8259Y1582D01*
X8291Y1609D01*
Y1191D01*
D02*
G37*
G36*
X24804Y1128D02*
X24805Y1111D01*
X24808Y1096D01*
X24811Y1083D01*
X24816Y1072D01*
X24821Y1063D01*
X24828Y1055D01*
X24835Y1050D01*
X24844Y1047D01*
X24853Y1046D01*
X24653D01*
X24663Y1047D01*
X24671Y1050D01*
X24679Y1055D01*
X24685Y1063D01*
X24691Y1072D01*
X24695Y1083D01*
X24699Y1096D01*
X24701Y1111D01*
X24703Y1128D01*
X24703Y1148D01*
X24803D01*
X24804Y1128D01*
D02*
G37*
G36*
X24304D02*
X24305Y1111D01*
X24308Y1096D01*
X24311Y1083D01*
X24316Y1072D01*
X24321Y1063D01*
X24328Y1055D01*
X24335Y1050D01*
X24344Y1047D01*
X24353Y1046D01*
X24153D01*
X24163Y1047D01*
X24171Y1050D01*
X24179Y1055D01*
X24185Y1063D01*
X24191Y1072D01*
X24195Y1083D01*
X24199Y1096D01*
X24201Y1111D01*
X24203Y1128D01*
X24203Y1148D01*
X24303D01*
X24304Y1128D01*
D02*
G37*
G36*
X23695Y1149D02*
X23742Y1108D01*
X23765Y1092D01*
X23786Y1078D01*
X23806Y1067D01*
X23826Y1058D01*
X23845Y1051D01*
X23863Y1048D01*
X23879Y1046D01*
X23577Y1048D01*
X23586Y1048D01*
X23592Y1051D01*
X23596Y1055D01*
X23597Y1061D01*
X23595Y1068D01*
X23591Y1078D01*
X23583Y1088D01*
X23573Y1101D01*
X23561Y1115D01*
X23545Y1131D01*
X23671Y1173D01*
X23695Y1149D01*
D02*
G37*
G36*
X23210Y1133D02*
X23250Y1099D01*
X23269Y1085D01*
X23287Y1073D01*
X23304Y1063D01*
X23321Y1056D01*
X23337Y1051D01*
X23352Y1047D01*
X23366Y1046D01*
X23083D01*
X23096Y1047D01*
X23106Y1049D01*
X23113Y1053D01*
X23118Y1058D01*
X23119Y1064D01*
X23118Y1072D01*
X23113Y1082D01*
X23106Y1092D01*
X23096Y1105D01*
X23083Y1118D01*
X23189Y1154D01*
X23210Y1133D01*
D02*
G37*
G36*
X22738D02*
X22778Y1099D01*
X22797Y1085D01*
X22815Y1073D01*
X22832Y1063D01*
X22849Y1056D01*
X22865Y1051D01*
X22880Y1047D01*
X22894Y1046D01*
X22611D01*
X22624Y1047D01*
X22634Y1049D01*
X22641Y1053D01*
X22646Y1058D01*
X22647Y1064D01*
X22646Y1072D01*
X22641Y1082D01*
X22634Y1092D01*
X22624Y1105D01*
X22611Y1118D01*
X22717Y1154D01*
X22738Y1133D01*
D02*
G37*
G36*
X22304Y1046D02*
X22203D01*
X22203Y1047D01*
X22203Y1048D01*
X22203Y1098D01*
X22303D01*
X22304Y1046D01*
D02*
G37*
G36*
X14804Y1128D02*
X14805Y1111D01*
X14808Y1096D01*
X14811Y1083D01*
X14816Y1072D01*
X14821Y1063D01*
X14828Y1055D01*
X14835Y1050D01*
X14844Y1047D01*
X14853Y1046D01*
X14653D01*
X14663Y1047D01*
X14671Y1050D01*
X14679Y1055D01*
X14685Y1063D01*
X14691Y1072D01*
X14695Y1083D01*
X14699Y1096D01*
X14701Y1111D01*
X14703Y1128D01*
X14703Y1148D01*
X14803D01*
X14804Y1128D01*
D02*
G37*
G36*
X14304D02*
X14305Y1111D01*
X14308Y1096D01*
X14311Y1083D01*
X14316Y1072D01*
X14321Y1063D01*
X14328Y1055D01*
X14335Y1050D01*
X14344Y1047D01*
X14353Y1046D01*
X14153D01*
X14163Y1047D01*
X14171Y1050D01*
X14179Y1055D01*
X14185Y1063D01*
X14191Y1072D01*
X14195Y1083D01*
X14199Y1096D01*
X14201Y1111D01*
X14203Y1128D01*
X14203Y1148D01*
X14303D01*
X14304Y1128D01*
D02*
G37*
G36*
X13695Y1149D02*
X13742Y1108D01*
X13765Y1092D01*
X13786Y1078D01*
X13806Y1067D01*
X13826Y1058D01*
X13845Y1051D01*
X13863Y1048D01*
X13879Y1046D01*
X13577Y1048D01*
X13586Y1048D01*
X13592Y1051D01*
X13596Y1055D01*
X13597Y1061D01*
X13595Y1068D01*
X13591Y1078D01*
X13583Y1088D01*
X13573Y1101D01*
X13561Y1115D01*
X13545Y1131D01*
X13671Y1173D01*
X13695Y1149D01*
D02*
G37*
G36*
X13210Y1133D02*
X13250Y1099D01*
X13269Y1085D01*
X13287Y1073D01*
X13304Y1063D01*
X13321Y1056D01*
X13337Y1051D01*
X13352Y1047D01*
X13366Y1046D01*
X13083D01*
X13096Y1047D01*
X13106Y1049D01*
X13113Y1053D01*
X13118Y1058D01*
X13119Y1064D01*
X13118Y1072D01*
X13113Y1082D01*
X13106Y1092D01*
X13096Y1105D01*
X13083Y1118D01*
X13189Y1154D01*
X13210Y1133D01*
D02*
G37*
G36*
X12738D02*
X12778Y1099D01*
X12797Y1085D01*
X12815Y1073D01*
X12832Y1063D01*
X12849Y1056D01*
X12865Y1051D01*
X12880Y1047D01*
X12894Y1046D01*
X12611D01*
X12624Y1047D01*
X12634Y1049D01*
X12641Y1053D01*
X12646Y1058D01*
X12647Y1064D01*
X12646Y1072D01*
X12641Y1082D01*
X12634Y1092D01*
X12624Y1105D01*
X12611Y1118D01*
X12717Y1154D01*
X12738Y1133D01*
D02*
G37*
G36*
X12304Y1046D02*
X12203D01*
X12203Y1047D01*
X12203Y1048D01*
X12203Y1098D01*
X12303D01*
X12304Y1046D01*
D02*
G37*
G36*
X4804Y1128D02*
X4805Y1111D01*
X4808Y1096D01*
X4811Y1083D01*
X4816Y1072D01*
X4821Y1063D01*
X4828Y1055D01*
X4835Y1050D01*
X4844Y1047D01*
X4853Y1046D01*
X4653D01*
X4663Y1047D01*
X4671Y1050D01*
X4679Y1055D01*
X4685Y1063D01*
X4691Y1072D01*
X4695Y1083D01*
X4699Y1096D01*
X4701Y1111D01*
X4703Y1128D01*
X4703Y1148D01*
X4803D01*
X4804Y1128D01*
D02*
G37*
G36*
X4304D02*
X4305Y1111D01*
X4308Y1096D01*
X4311Y1083D01*
X4316Y1072D01*
X4321Y1063D01*
X4328Y1055D01*
X4335Y1050D01*
X4344Y1047D01*
X4353Y1046D01*
X4153D01*
X4163Y1047D01*
X4171Y1050D01*
X4179Y1055D01*
X4185Y1063D01*
X4191Y1072D01*
X4195Y1083D01*
X4199Y1096D01*
X4201Y1111D01*
X4203Y1128D01*
X4203Y1148D01*
X4303D01*
X4304Y1128D01*
D02*
G37*
G36*
X3695Y1149D02*
X3742Y1108D01*
X3765Y1092D01*
X3786Y1078D01*
X3806Y1067D01*
X3826Y1058D01*
X3845Y1051D01*
X3863Y1048D01*
X3879Y1046D01*
X3577Y1048D01*
X3586Y1048D01*
X3592Y1051D01*
X3596Y1055D01*
X3597Y1061D01*
X3595Y1068D01*
X3591Y1078D01*
X3583Y1088D01*
X3573Y1101D01*
X3561Y1115D01*
X3545Y1131D01*
X3671Y1173D01*
X3695Y1149D01*
D02*
G37*
G36*
X3210Y1133D02*
X3250Y1099D01*
X3269Y1085D01*
X3287Y1073D01*
X3304Y1063D01*
X3321Y1056D01*
X3337Y1051D01*
X3352Y1047D01*
X3366Y1046D01*
X3083D01*
X3096Y1047D01*
X3106Y1049D01*
X3113Y1053D01*
X3118Y1058D01*
X3119Y1064D01*
X3118Y1072D01*
X3113Y1082D01*
X3106Y1092D01*
X3096Y1105D01*
X3083Y1118D01*
X3189Y1154D01*
X3210Y1133D01*
D02*
G37*
G36*
X2738D02*
X2778Y1099D01*
X2797Y1085D01*
X2815Y1073D01*
X2832Y1063D01*
X2849Y1056D01*
X2865Y1051D01*
X2880Y1047D01*
X2894Y1046D01*
X2611D01*
X2624Y1047D01*
X2634Y1049D01*
X2641Y1053D01*
X2646Y1058D01*
X2647Y1064D01*
X2646Y1072D01*
X2641Y1082D01*
X2634Y1092D01*
X2624Y1105D01*
X2611Y1118D01*
X2717Y1154D01*
X2738Y1133D01*
D02*
G37*
G36*
X2304Y1046D02*
X2203D01*
X2203Y1047D01*
X2203Y1048D01*
X2203Y1098D01*
X2303D01*
X2304Y1046D01*
D02*
G37*
G36*
X25007Y1357D02*
X25081Y1300D01*
X25168Y1265D01*
X25260Y1253D01*
X25660D01*
X25752Y1265D01*
X25773Y1273D01*
X25778Y1268D01*
X25839Y1228D01*
X25910Y1213D01*
X27113D01*
X27135Y1169D01*
X27105Y1128D01*
X27059Y1018D01*
X27043Y900D01*
X27059Y782D01*
X27105Y672D01*
X27151Y611D01*
X27127Y561D01*
X27000D01*
X26939Y548D01*
X26886Y514D01*
X26886Y514D01*
X26533Y161D01*
X25548D01*
Y1167D01*
X24925D01*
Y1383D01*
X24975Y1400D01*
X25007Y1357D01*
D02*
G37*
G36*
X15007D02*
X15081Y1300D01*
X15167Y1265D01*
X15260Y1253D01*
X15660D01*
X15753Y1265D01*
X15773Y1273D01*
X15778Y1268D01*
X15839Y1228D01*
X15910Y1213D01*
X17113D01*
X17135Y1169D01*
X17105Y1128D01*
X17059Y1018D01*
X17043Y900D01*
X17059Y782D01*
X17105Y672D01*
X17151Y611D01*
X17127Y561D01*
X17000D01*
X16939Y548D01*
X16886Y514D01*
X16886Y514D01*
X16533Y161D01*
X15548D01*
Y1167D01*
X14925D01*
Y1383D01*
X14975Y1400D01*
X15007Y1357D01*
D02*
G37*
G36*
X5007D02*
X5081Y1300D01*
X5167Y1265D01*
X5260Y1253D01*
X5660D01*
X5753Y1265D01*
X5773Y1273D01*
X5778Y1268D01*
X5839Y1228D01*
X5910Y1213D01*
X7113D01*
X7135Y1169D01*
X7105Y1128D01*
X7059Y1018D01*
X7043Y900D01*
X7059Y782D01*
X7105Y672D01*
X7151Y611D01*
X7127Y561D01*
X7000D01*
X6939Y548D01*
X6886Y514D01*
X6886Y514D01*
X6533Y161D01*
X5548D01*
Y1167D01*
X4925D01*
Y1383D01*
X4975Y1400D01*
X5007Y1357D01*
D02*
G37*
%LPC*%
G36*
X24275Y26024D02*
X24179Y26005D01*
X24098Y25951D01*
X24044Y25869D01*
X24024Y25773D01*
X24044Y25677D01*
X24098Y25596D01*
X24179Y25542D01*
X24275Y25522D01*
X24371Y25542D01*
X24453Y25596D01*
X24507Y25677D01*
X24526Y25773D01*
X24507Y25869D01*
X24453Y25951D01*
X24371Y26005D01*
X24275Y26024D01*
D02*
G37*
G36*
X26040Y25073D02*
X25907Y25056D01*
X25782Y25004D01*
X25675Y24922D01*
X25593Y24815D01*
X25542Y24691D01*
X25524Y24557D01*
X25542Y24424D01*
X25593Y24299D01*
X25675Y24192D01*
X25782Y24110D01*
X25907Y24059D01*
X26040Y24041D01*
X26174Y24059D01*
X26298Y24110D01*
X26405Y24192D01*
X26487Y24299D01*
X26539Y24424D01*
X26556Y24557D01*
X26539Y24691D01*
X26487Y24815D01*
X26405Y24922D01*
X26298Y25004D01*
X26174Y25056D01*
X26040Y25073D01*
D02*
G37*
G36*
X26866Y23784D02*
X25843D01*
Y22957D01*
X26866D01*
Y23784D01*
D02*
G37*
G36*
X20550Y22195D02*
X20458Y22176D01*
X20380Y22124D01*
X20327Y22046D01*
X20309Y21954D01*
X20327Y21862D01*
X20367Y21803D01*
X20367Y21802D01*
X20368Y21795D01*
X20379Y21658D01*
Y20958D01*
X20377Y20907D01*
X20372Y20854D01*
X20369Y20837D01*
X20367Y20826D01*
X20367Y20825D01*
X20327Y20766D01*
X20309Y20674D01*
X20327Y20582D01*
X20380Y20504D01*
X20458Y20452D01*
X20550Y20433D01*
X20642Y20452D01*
X20720Y20504D01*
X20773Y20582D01*
X20791Y20674D01*
X20773Y20766D01*
X20733Y20825D01*
X20733Y20826D01*
X20732Y20833D01*
X20721Y20970D01*
Y21670D01*
X20723Y21721D01*
X20728Y21774D01*
X20731Y21791D01*
X20733Y21802D01*
X20733Y21803D01*
X20773Y21862D01*
X20791Y21954D01*
X20773Y22046D01*
X20720Y22124D01*
X20642Y22176D01*
X20550Y22195D01*
D02*
G37*
G36*
X21694Y18749D02*
X21476D01*
Y18314D01*
X21694D01*
Y18749D01*
D02*
G37*
%LPD*%
G36*
X20627Y21862D02*
X20621Y21849D01*
X20616Y21833D01*
X20612Y21813D01*
X20608Y21789D01*
X20603Y21729D01*
X20600Y21654D01*
X20600Y21611D01*
X20500D01*
X20500Y21654D01*
X20488Y21813D01*
X20484Y21833D01*
X20479Y21849D01*
X20473Y21862D01*
X20466Y21870D01*
X20634D01*
X20627Y21862D01*
D02*
G37*
G36*
X20600Y20974D02*
X20612Y20815D01*
X20616Y20795D01*
X20621Y20779D01*
X20627Y20766D01*
X20634Y20758D01*
X20466D01*
X20473Y20766D01*
X20479Y20779D01*
X20484Y20795D01*
X20488Y20815D01*
X20492Y20840D01*
X20497Y20899D01*
X20500Y20974D01*
X20500Y21018D01*
X20600D01*
X20600Y20974D01*
D02*
G37*
%LPC*%
G36*
X14275Y26024D02*
X14179Y26005D01*
X14098Y25951D01*
X14044Y25869D01*
X14024Y25773D01*
X14044Y25677D01*
X14098Y25596D01*
X14179Y25542D01*
X14275Y25522D01*
X14371Y25542D01*
X14453Y25596D01*
X14507Y25677D01*
X14526Y25773D01*
X14507Y25869D01*
X14453Y25951D01*
X14371Y26005D01*
X14275Y26024D01*
D02*
G37*
G36*
X16040Y25073D02*
X15907Y25056D01*
X15782Y25004D01*
X15675Y24922D01*
X15593Y24815D01*
X15542Y24691D01*
X15524Y24557D01*
X15542Y24424D01*
X15593Y24299D01*
X15675Y24192D01*
X15782Y24110D01*
X15907Y24059D01*
X16040Y24041D01*
X16174Y24059D01*
X16298Y24110D01*
X16405Y24192D01*
X16487Y24299D01*
X16539Y24424D01*
X16556Y24557D01*
X16539Y24691D01*
X16487Y24815D01*
X16405Y24922D01*
X16298Y25004D01*
X16174Y25056D01*
X16040Y25073D01*
D02*
G37*
G36*
X16866Y23784D02*
X15843D01*
Y22957D01*
X16866D01*
Y23784D01*
D02*
G37*
G36*
X10550Y22195D02*
X10458Y22176D01*
X10380Y22124D01*
X10327Y22046D01*
X10309Y21954D01*
X10327Y21862D01*
X10367Y21803D01*
X10367Y21802D01*
X10368Y21795D01*
X10379Y21658D01*
Y20958D01*
X10377Y20907D01*
X10372Y20854D01*
X10369Y20837D01*
X10367Y20826D01*
X10367Y20825D01*
X10327Y20766D01*
X10309Y20674D01*
X10327Y20582D01*
X10380Y20504D01*
X10458Y20452D01*
X10550Y20433D01*
X10642Y20452D01*
X10720Y20504D01*
X10773Y20582D01*
X10791Y20674D01*
X10773Y20766D01*
X10733Y20825D01*
X10733Y20826D01*
X10732Y20833D01*
X10721Y20970D01*
Y21670D01*
X10723Y21721D01*
X10728Y21774D01*
X10731Y21791D01*
X10733Y21802D01*
X10733Y21803D01*
X10773Y21862D01*
X10791Y21954D01*
X10773Y22046D01*
X10720Y22124D01*
X10642Y22176D01*
X10550Y22195D01*
D02*
G37*
G36*
X11694Y18749D02*
X11476D01*
Y18314D01*
X11694D01*
Y18749D01*
D02*
G37*
%LPD*%
G36*
X10627Y21862D02*
X10621Y21849D01*
X10616Y21833D01*
X10612Y21813D01*
X10608Y21789D01*
X10603Y21729D01*
X10600Y21654D01*
X10600Y21611D01*
X10500D01*
X10500Y21654D01*
X10488Y21813D01*
X10484Y21833D01*
X10479Y21849D01*
X10473Y21862D01*
X10466Y21870D01*
X10634D01*
X10627Y21862D01*
D02*
G37*
G36*
X10600Y20974D02*
X10612Y20815D01*
X10616Y20795D01*
X10621Y20779D01*
X10627Y20766D01*
X10634Y20758D01*
X10466D01*
X10473Y20766D01*
X10479Y20779D01*
X10484Y20795D01*
X10488Y20815D01*
X10492Y20840D01*
X10497Y20899D01*
X10500Y20974D01*
X10500Y21018D01*
X10600D01*
X10600Y20974D01*
D02*
G37*
%LPC*%
G36*
X4275Y26024D02*
X4179Y26005D01*
X4098Y25951D01*
X4044Y25869D01*
X4024Y25773D01*
X4044Y25677D01*
X4098Y25596D01*
X4179Y25542D01*
X4275Y25522D01*
X4371Y25542D01*
X4453Y25596D01*
X4507Y25677D01*
X4526Y25773D01*
X4507Y25869D01*
X4453Y25951D01*
X4371Y26005D01*
X4275Y26024D01*
D02*
G37*
G36*
X6040Y25073D02*
X5907Y25056D01*
X5782Y25004D01*
X5675Y24922D01*
X5593Y24815D01*
X5542Y24691D01*
X5524Y24557D01*
X5542Y24424D01*
X5593Y24299D01*
X5675Y24192D01*
X5782Y24110D01*
X5907Y24059D01*
X6040Y24041D01*
X6174Y24059D01*
X6298Y24110D01*
X6405Y24192D01*
X6487Y24299D01*
X6539Y24424D01*
X6556Y24557D01*
X6539Y24691D01*
X6487Y24815D01*
X6405Y24922D01*
X6298Y25004D01*
X6174Y25056D01*
X6040Y25073D01*
D02*
G37*
G36*
X6866Y23784D02*
X5843D01*
Y22957D01*
X6866D01*
Y23784D01*
D02*
G37*
G36*
X550Y22195D02*
X458Y22176D01*
X380Y22124D01*
X327Y22046D01*
X309Y21954D01*
X327Y21862D01*
X367Y21803D01*
X367Y21802D01*
X368Y21795D01*
X379Y21658D01*
Y20958D01*
X377Y20907D01*
X372Y20854D01*
X369Y20837D01*
X367Y20826D01*
X367Y20825D01*
X327Y20766D01*
X309Y20674D01*
X327Y20582D01*
X380Y20504D01*
X458Y20452D01*
X550Y20433D01*
X642Y20452D01*
X720Y20504D01*
X773Y20582D01*
X791Y20674D01*
X773Y20766D01*
X733Y20825D01*
X733Y20826D01*
X732Y20833D01*
X721Y20970D01*
Y21670D01*
X723Y21721D01*
X728Y21774D01*
X731Y21791D01*
X733Y21802D01*
X733Y21803D01*
X773Y21862D01*
X791Y21954D01*
X773Y22046D01*
X720Y22124D01*
X642Y22176D01*
X550Y22195D01*
D02*
G37*
G36*
X1694Y18749D02*
X1476D01*
Y18314D01*
X1694D01*
Y18749D01*
D02*
G37*
%LPD*%
G36*
X627Y21862D02*
X621Y21849D01*
X616Y21833D01*
X612Y21813D01*
X608Y21789D01*
X603Y21729D01*
X600Y21654D01*
X600Y21611D01*
X500D01*
X500Y21654D01*
X488Y21813D01*
X484Y21833D01*
X479Y21849D01*
X473Y21862D01*
X466Y21870D01*
X634D01*
X627Y21862D01*
D02*
G37*
G36*
X600Y20974D02*
X612Y20815D01*
X616Y20795D01*
X621Y20779D01*
X627Y20766D01*
X634Y20758D01*
X466D01*
X473Y20766D01*
X479Y20779D01*
X484Y20795D01*
X488Y20815D01*
X492Y20840D01*
X497Y20899D01*
X500Y20974D01*
X500Y21018D01*
X600D01*
X600Y20974D01*
D02*
G37*
%LPC*%
G36*
X24275Y17224D02*
X24179Y17205D01*
X24098Y17151D01*
X24044Y17069D01*
X24024Y16973D01*
X24044Y16877D01*
X24098Y16796D01*
X24179Y16742D01*
X24275Y16722D01*
X24371Y16742D01*
X24453Y16796D01*
X24507Y16877D01*
X24526Y16973D01*
X24507Y17069D01*
X24453Y17151D01*
X24371Y17205D01*
X24275Y17224D01*
D02*
G37*
G36*
X26040Y16273D02*
X25907Y16256D01*
X25782Y16204D01*
X25675Y16122D01*
X25593Y16015D01*
X25542Y15891D01*
X25524Y15757D01*
X25542Y15624D01*
X25593Y15499D01*
X25675Y15392D01*
X25782Y15310D01*
X25907Y15259D01*
X26040Y15241D01*
X26174Y15259D01*
X26298Y15310D01*
X26405Y15392D01*
X26487Y15499D01*
X26539Y15624D01*
X26556Y15757D01*
X26539Y15891D01*
X26487Y16015D01*
X26405Y16122D01*
X26298Y16204D01*
X26174Y16256D01*
X26040Y16273D01*
D02*
G37*
G36*
X26866Y14984D02*
X25843D01*
Y14157D01*
X26866D01*
Y14984D01*
D02*
G37*
G36*
X20550Y13395D02*
X20458Y13376D01*
X20380Y13324D01*
X20327Y13246D01*
X20309Y13154D01*
X20327Y13062D01*
X20367Y13003D01*
X20367Y13002D01*
X20368Y12995D01*
X20379Y12858D01*
Y12158D01*
X20377Y12107D01*
X20372Y12054D01*
X20369Y12037D01*
X20367Y12026D01*
X20367Y12025D01*
X20327Y11967D01*
X20309Y11874D01*
X20327Y11782D01*
X20380Y11704D01*
X20458Y11652D01*
X20550Y11633D01*
X20642Y11652D01*
X20720Y11704D01*
X20773Y11782D01*
X20791Y11874D01*
X20773Y11967D01*
X20733Y12025D01*
X20733Y12026D01*
X20732Y12033D01*
X20721Y12170D01*
Y12870D01*
X20723Y12921D01*
X20728Y12974D01*
X20731Y12991D01*
X20733Y13002D01*
X20733Y13003D01*
X20773Y13062D01*
X20791Y13154D01*
X20773Y13246D01*
X20720Y13324D01*
X20642Y13376D01*
X20550Y13395D01*
D02*
G37*
G36*
X21694Y9949D02*
X21476D01*
Y9514D01*
X21694D01*
Y9949D01*
D02*
G37*
%LPD*%
G36*
X20627Y13062D02*
X20621Y13049D01*
X20616Y13033D01*
X20612Y13013D01*
X20608Y12989D01*
X20603Y12929D01*
X20600Y12854D01*
X20600Y12811D01*
X20500D01*
X20500Y12854D01*
X20488Y13013D01*
X20484Y13033D01*
X20479Y13049D01*
X20473Y13062D01*
X20466Y13070D01*
X20634D01*
X20627Y13062D01*
D02*
G37*
G36*
X20600Y12174D02*
X20612Y12015D01*
X20616Y11995D01*
X20621Y11979D01*
X20627Y11966D01*
X20634Y11958D01*
X20466D01*
X20473Y11966D01*
X20479Y11979D01*
X20484Y11995D01*
X20488Y12015D01*
X20492Y12040D01*
X20497Y12099D01*
X20500Y12174D01*
X20500Y12218D01*
X20600D01*
X20600Y12174D01*
D02*
G37*
%LPC*%
G36*
X14275Y17224D02*
X14179Y17205D01*
X14098Y17151D01*
X14044Y17069D01*
X14024Y16973D01*
X14044Y16877D01*
X14098Y16796D01*
X14179Y16742D01*
X14275Y16722D01*
X14371Y16742D01*
X14453Y16796D01*
X14507Y16877D01*
X14526Y16973D01*
X14507Y17069D01*
X14453Y17151D01*
X14371Y17205D01*
X14275Y17224D01*
D02*
G37*
G36*
X16040Y16273D02*
X15907Y16256D01*
X15782Y16204D01*
X15675Y16122D01*
X15593Y16015D01*
X15542Y15891D01*
X15524Y15757D01*
X15542Y15624D01*
X15593Y15499D01*
X15675Y15392D01*
X15782Y15310D01*
X15907Y15259D01*
X16040Y15241D01*
X16174Y15259D01*
X16298Y15310D01*
X16405Y15392D01*
X16487Y15499D01*
X16539Y15624D01*
X16556Y15757D01*
X16539Y15891D01*
X16487Y16015D01*
X16405Y16122D01*
X16298Y16204D01*
X16174Y16256D01*
X16040Y16273D01*
D02*
G37*
G36*
X16866Y14984D02*
X15843D01*
Y14157D01*
X16866D01*
Y14984D01*
D02*
G37*
G36*
X10550Y13395D02*
X10458Y13376D01*
X10380Y13324D01*
X10327Y13246D01*
X10309Y13154D01*
X10327Y13062D01*
X10367Y13003D01*
X10367Y13002D01*
X10368Y12995D01*
X10379Y12858D01*
Y12158D01*
X10377Y12107D01*
X10372Y12054D01*
X10369Y12037D01*
X10367Y12026D01*
X10367Y12025D01*
X10327Y11967D01*
X10309Y11874D01*
X10327Y11782D01*
X10380Y11704D01*
X10458Y11652D01*
X10550Y11633D01*
X10642Y11652D01*
X10720Y11704D01*
X10773Y11782D01*
X10791Y11874D01*
X10773Y11967D01*
X10733Y12025D01*
X10733Y12026D01*
X10732Y12033D01*
X10721Y12170D01*
Y12870D01*
X10723Y12921D01*
X10728Y12974D01*
X10731Y12991D01*
X10733Y13002D01*
X10733Y13003D01*
X10773Y13062D01*
X10791Y13154D01*
X10773Y13246D01*
X10720Y13324D01*
X10642Y13376D01*
X10550Y13395D01*
D02*
G37*
G36*
X11694Y9949D02*
X11476D01*
Y9514D01*
X11694D01*
Y9949D01*
D02*
G37*
%LPD*%
G36*
X10627Y13062D02*
X10621Y13049D01*
X10616Y13033D01*
X10612Y13013D01*
X10608Y12989D01*
X10603Y12929D01*
X10600Y12854D01*
X10600Y12811D01*
X10500D01*
X10500Y12854D01*
X10488Y13013D01*
X10484Y13033D01*
X10479Y13049D01*
X10473Y13062D01*
X10466Y13070D01*
X10634D01*
X10627Y13062D01*
D02*
G37*
G36*
X10600Y12174D02*
X10612Y12015D01*
X10616Y11995D01*
X10621Y11979D01*
X10627Y11966D01*
X10634Y11958D01*
X10466D01*
X10473Y11966D01*
X10479Y11979D01*
X10484Y11995D01*
X10488Y12015D01*
X10492Y12040D01*
X10497Y12099D01*
X10500Y12174D01*
X10500Y12218D01*
X10600D01*
X10600Y12174D01*
D02*
G37*
%LPC*%
G36*
X4275Y17224D02*
X4179Y17205D01*
X4098Y17151D01*
X4044Y17069D01*
X4024Y16973D01*
X4044Y16877D01*
X4098Y16796D01*
X4179Y16742D01*
X4275Y16722D01*
X4371Y16742D01*
X4453Y16796D01*
X4507Y16877D01*
X4526Y16973D01*
X4507Y17069D01*
X4453Y17151D01*
X4371Y17205D01*
X4275Y17224D01*
D02*
G37*
G36*
X6040Y16273D02*
X5907Y16256D01*
X5782Y16204D01*
X5675Y16122D01*
X5593Y16015D01*
X5542Y15891D01*
X5524Y15757D01*
X5542Y15624D01*
X5593Y15499D01*
X5675Y15392D01*
X5782Y15310D01*
X5907Y15259D01*
X6040Y15241D01*
X6174Y15259D01*
X6298Y15310D01*
X6405Y15392D01*
X6487Y15499D01*
X6539Y15624D01*
X6556Y15757D01*
X6539Y15891D01*
X6487Y16015D01*
X6405Y16122D01*
X6298Y16204D01*
X6174Y16256D01*
X6040Y16273D01*
D02*
G37*
G36*
X6866Y14984D02*
X5843D01*
Y14157D01*
X6866D01*
Y14984D01*
D02*
G37*
G36*
X550Y13395D02*
X458Y13376D01*
X380Y13324D01*
X327Y13246D01*
X309Y13154D01*
X327Y13062D01*
X367Y13003D01*
X367Y13002D01*
X368Y12995D01*
X379Y12858D01*
Y12158D01*
X377Y12107D01*
X372Y12054D01*
X369Y12037D01*
X367Y12026D01*
X367Y12025D01*
X327Y11967D01*
X309Y11874D01*
X327Y11782D01*
X380Y11704D01*
X458Y11652D01*
X550Y11633D01*
X642Y11652D01*
X720Y11704D01*
X773Y11782D01*
X791Y11874D01*
X773Y11967D01*
X733Y12025D01*
X733Y12026D01*
X732Y12033D01*
X721Y12170D01*
Y12870D01*
X723Y12921D01*
X728Y12974D01*
X731Y12991D01*
X733Y13002D01*
X733Y13003D01*
X773Y13062D01*
X791Y13154D01*
X773Y13246D01*
X720Y13324D01*
X642Y13376D01*
X550Y13395D01*
D02*
G37*
G36*
X1694Y9949D02*
X1476D01*
Y9514D01*
X1694D01*
Y9949D01*
D02*
G37*
%LPD*%
G36*
X627Y13062D02*
X621Y13049D01*
X616Y13033D01*
X612Y13013D01*
X608Y12989D01*
X603Y12929D01*
X600Y12854D01*
X600Y12811D01*
X500D01*
X500Y12854D01*
X488Y13013D01*
X484Y13033D01*
X479Y13049D01*
X473Y13062D01*
X466Y13070D01*
X634D01*
X627Y13062D01*
D02*
G37*
G36*
X600Y12174D02*
X612Y12015D01*
X616Y11995D01*
X621Y11979D01*
X627Y11966D01*
X634Y11958D01*
X466D01*
X473Y11966D01*
X479Y11979D01*
X484Y11995D01*
X488Y12015D01*
X492Y12040D01*
X497Y12099D01*
X500Y12174D01*
X500Y12218D01*
X600D01*
X600Y12174D01*
D02*
G37*
%LPC*%
G36*
X24275Y8424D02*
X24179Y8405D01*
X24098Y8351D01*
X24044Y8269D01*
X24024Y8173D01*
X24044Y8077D01*
X24098Y7996D01*
X24179Y7942D01*
X24275Y7922D01*
X24371Y7942D01*
X24453Y7996D01*
X24507Y8077D01*
X24526Y8173D01*
X24507Y8269D01*
X24453Y8351D01*
X24371Y8405D01*
X24275Y8424D01*
D02*
G37*
G36*
X26040Y7473D02*
X25907Y7456D01*
X25782Y7404D01*
X25675Y7322D01*
X25593Y7215D01*
X25542Y7091D01*
X25524Y6957D01*
X25542Y6824D01*
X25593Y6699D01*
X25675Y6592D01*
X25782Y6510D01*
X25907Y6459D01*
X26040Y6441D01*
X26174Y6459D01*
X26298Y6510D01*
X26405Y6592D01*
X26487Y6699D01*
X26539Y6824D01*
X26556Y6957D01*
X26539Y7091D01*
X26487Y7215D01*
X26405Y7322D01*
X26298Y7404D01*
X26174Y7456D01*
X26040Y7473D01*
D02*
G37*
G36*
X26866Y6184D02*
X25843D01*
Y5357D01*
X26866D01*
Y6184D01*
D02*
G37*
G36*
X20550Y4595D02*
X20458Y4576D01*
X20380Y4524D01*
X20327Y4446D01*
X20309Y4354D01*
X20327Y4262D01*
X20367Y4203D01*
X20367Y4202D01*
X20368Y4195D01*
X20379Y4058D01*
Y3358D01*
X20377Y3307D01*
X20372Y3254D01*
X20369Y3237D01*
X20367Y3226D01*
X20367Y3225D01*
X20327Y3167D01*
X20309Y3074D01*
X20327Y2982D01*
X20380Y2904D01*
X20458Y2852D01*
X20550Y2833D01*
X20642Y2852D01*
X20720Y2904D01*
X20773Y2982D01*
X20791Y3074D01*
X20773Y3167D01*
X20733Y3225D01*
X20733Y3226D01*
X20732Y3233D01*
X20721Y3370D01*
Y4070D01*
X20723Y4121D01*
X20728Y4174D01*
X20731Y4191D01*
X20733Y4202D01*
X20733Y4203D01*
X20773Y4262D01*
X20791Y4354D01*
X20773Y4446D01*
X20720Y4524D01*
X20642Y4576D01*
X20550Y4595D01*
D02*
G37*
G36*
X21694Y1149D02*
X21476D01*
Y714D01*
X21694D01*
Y1149D01*
D02*
G37*
%LPD*%
G36*
X20627Y4262D02*
X20621Y4249D01*
X20616Y4233D01*
X20612Y4213D01*
X20608Y4189D01*
X20603Y4129D01*
X20600Y4054D01*
X20600Y4011D01*
X20500D01*
X20500Y4054D01*
X20488Y4213D01*
X20484Y4233D01*
X20479Y4249D01*
X20473Y4262D01*
X20466Y4270D01*
X20634D01*
X20627Y4262D01*
D02*
G37*
G36*
X20600Y3374D02*
X20612Y3215D01*
X20616Y3195D01*
X20621Y3179D01*
X20627Y3166D01*
X20634Y3158D01*
X20466D01*
X20473Y3166D01*
X20479Y3179D01*
X20484Y3195D01*
X20488Y3215D01*
X20492Y3240D01*
X20497Y3299D01*
X20500Y3374D01*
X20500Y3418D01*
X20600D01*
X20600Y3374D01*
D02*
G37*
%LPC*%
G36*
X14275Y8424D02*
X14179Y8405D01*
X14098Y8351D01*
X14044Y8269D01*
X14024Y8173D01*
X14044Y8077D01*
X14098Y7996D01*
X14179Y7942D01*
X14275Y7922D01*
X14371Y7942D01*
X14453Y7996D01*
X14507Y8077D01*
X14526Y8173D01*
X14507Y8269D01*
X14453Y8351D01*
X14371Y8405D01*
X14275Y8424D01*
D02*
G37*
G36*
X16040Y7473D02*
X15907Y7456D01*
X15782Y7404D01*
X15675Y7322D01*
X15593Y7215D01*
X15542Y7091D01*
X15524Y6957D01*
X15542Y6824D01*
X15593Y6699D01*
X15675Y6592D01*
X15782Y6510D01*
X15907Y6459D01*
X16040Y6441D01*
X16174Y6459D01*
X16298Y6510D01*
X16405Y6592D01*
X16487Y6699D01*
X16539Y6824D01*
X16556Y6957D01*
X16539Y7091D01*
X16487Y7215D01*
X16405Y7322D01*
X16298Y7404D01*
X16174Y7456D01*
X16040Y7473D01*
D02*
G37*
G36*
X16866Y6184D02*
X15843D01*
Y5357D01*
X16866D01*
Y6184D01*
D02*
G37*
G36*
X10550Y4595D02*
X10458Y4576D01*
X10380Y4524D01*
X10327Y4446D01*
X10309Y4354D01*
X10327Y4262D01*
X10367Y4203D01*
X10367Y4202D01*
X10368Y4195D01*
X10379Y4058D01*
Y3358D01*
X10377Y3307D01*
X10372Y3254D01*
X10369Y3237D01*
X10367Y3226D01*
X10367Y3225D01*
X10327Y3167D01*
X10309Y3074D01*
X10327Y2982D01*
X10380Y2904D01*
X10458Y2852D01*
X10550Y2833D01*
X10642Y2852D01*
X10720Y2904D01*
X10773Y2982D01*
X10791Y3074D01*
X10773Y3167D01*
X10733Y3225D01*
X10733Y3226D01*
X10732Y3233D01*
X10721Y3370D01*
Y4070D01*
X10723Y4121D01*
X10728Y4174D01*
X10731Y4191D01*
X10733Y4202D01*
X10733Y4203D01*
X10773Y4262D01*
X10791Y4354D01*
X10773Y4446D01*
X10720Y4524D01*
X10642Y4576D01*
X10550Y4595D01*
D02*
G37*
G36*
X11694Y1149D02*
X11476D01*
Y714D01*
X11694D01*
Y1149D01*
D02*
G37*
%LPD*%
G36*
X10627Y4262D02*
X10621Y4249D01*
X10616Y4233D01*
X10612Y4213D01*
X10608Y4189D01*
X10603Y4129D01*
X10600Y4054D01*
X10600Y4011D01*
X10500D01*
X10500Y4054D01*
X10488Y4213D01*
X10484Y4233D01*
X10479Y4249D01*
X10473Y4262D01*
X10466Y4270D01*
X10634D01*
X10627Y4262D01*
D02*
G37*
G36*
X10600Y3374D02*
X10612Y3215D01*
X10616Y3195D01*
X10621Y3179D01*
X10627Y3166D01*
X10634Y3158D01*
X10466D01*
X10473Y3166D01*
X10479Y3179D01*
X10484Y3195D01*
X10488Y3215D01*
X10492Y3240D01*
X10497Y3299D01*
X10500Y3374D01*
X10500Y3418D01*
X10600D01*
X10600Y3374D01*
D02*
G37*
%LPC*%
G36*
X4275Y8424D02*
X4179Y8405D01*
X4098Y8351D01*
X4044Y8269D01*
X4024Y8173D01*
X4044Y8077D01*
X4098Y7996D01*
X4179Y7942D01*
X4275Y7922D01*
X4371Y7942D01*
X4453Y7996D01*
X4507Y8077D01*
X4526Y8173D01*
X4507Y8269D01*
X4453Y8351D01*
X4371Y8405D01*
X4275Y8424D01*
D02*
G37*
G36*
X6040Y7473D02*
X5907Y7456D01*
X5782Y7404D01*
X5675Y7322D01*
X5593Y7215D01*
X5542Y7091D01*
X5524Y6957D01*
X5542Y6824D01*
X5593Y6699D01*
X5675Y6592D01*
X5782Y6510D01*
X5907Y6459D01*
X6040Y6441D01*
X6174Y6459D01*
X6298Y6510D01*
X6405Y6592D01*
X6487Y6699D01*
X6539Y6824D01*
X6556Y6957D01*
X6539Y7091D01*
X6487Y7215D01*
X6405Y7322D01*
X6298Y7404D01*
X6174Y7456D01*
X6040Y7473D01*
D02*
G37*
G36*
X6866Y6184D02*
X5843D01*
Y5357D01*
X6866D01*
Y6184D01*
D02*
G37*
G36*
X550Y4595D02*
X458Y4576D01*
X380Y4524D01*
X327Y4446D01*
X309Y4354D01*
X327Y4262D01*
X367Y4203D01*
X367Y4202D01*
X368Y4195D01*
X379Y4058D01*
Y3358D01*
X377Y3307D01*
X372Y3254D01*
X369Y3237D01*
X367Y3226D01*
X367Y3225D01*
X327Y3167D01*
X309Y3074D01*
X327Y2982D01*
X380Y2904D01*
X458Y2852D01*
X550Y2833D01*
X642Y2852D01*
X720Y2904D01*
X773Y2982D01*
X791Y3074D01*
X773Y3167D01*
X733Y3225D01*
X733Y3226D01*
X732Y3233D01*
X721Y3370D01*
Y4070D01*
X723Y4121D01*
X728Y4174D01*
X731Y4191D01*
X733Y4202D01*
X733Y4203D01*
X773Y4262D01*
X791Y4354D01*
X773Y4446D01*
X720Y4524D01*
X642Y4576D01*
X550Y4595D01*
D02*
G37*
G36*
X1694Y1149D02*
X1476D01*
Y714D01*
X1694D01*
Y1149D01*
D02*
G37*
%LPD*%
G36*
X627Y4262D02*
X621Y4249D01*
X616Y4233D01*
X612Y4213D01*
X608Y4189D01*
X603Y4129D01*
X600Y4054D01*
X600Y4011D01*
X500D01*
X500Y4054D01*
X488Y4213D01*
X484Y4233D01*
X479Y4249D01*
X473Y4262D01*
X466Y4270D01*
X634D01*
X627Y4262D01*
D02*
G37*
G36*
X600Y3374D02*
X612Y3215D01*
X616Y3195D01*
X621Y3179D01*
X627Y3166D01*
X634Y3158D01*
X466D01*
X473Y3166D01*
X479Y3179D01*
X484Y3195D01*
X488Y3215D01*
X492Y3240D01*
X497Y3299D01*
X500Y3374D01*
X500Y3418D01*
X600D01*
X600Y3374D01*
D02*
G37*
D25*
X7236Y6400D02*
X9500D01*
X7085Y5400D02*
X9500D01*
X7313Y7400D02*
X9489D01*
X9500Y7388D01*
X5910Y1400D02*
X8500D01*
X7050Y2400D02*
X8500D01*
X5700Y1610D02*
X5910Y1400D01*
X5700Y1610D02*
X5870Y1780D01*
X6430D01*
X7050Y2400D01*
X17236Y6400D02*
X19500D01*
X17085Y5400D02*
X19500D01*
X17313Y7400D02*
X19489D01*
X19500Y7388D01*
X15910Y1400D02*
X18500D01*
X17050Y2400D02*
X18500D01*
X15700Y1610D02*
X15910Y1400D01*
X15700Y1610D02*
X15870Y1780D01*
X16430D01*
X17050Y2400D01*
X27236Y6400D02*
X29500D01*
X27085Y5400D02*
X29500D01*
X27313Y7400D02*
X29489D01*
X29500Y7388D01*
X25910Y1400D02*
X28500D01*
X27050Y2400D02*
X28500D01*
X25700Y1610D02*
X25910Y1400D01*
X25700Y1610D02*
X25870Y1780D01*
X26430D01*
X27050Y2400D01*
X7236Y15200D02*
X9500D01*
X7085Y14200D02*
X9500D01*
X7313Y16200D02*
X9489D01*
X9500Y16188D01*
X5910Y10200D02*
X8500D01*
X7050Y11200D02*
X8500D01*
X5700Y10410D02*
X5910Y10200D01*
X5700Y10410D02*
X5870Y10580D01*
X6430D01*
X7050Y11200D01*
X17236Y15200D02*
X19500D01*
X17085Y14200D02*
X19500D01*
X17313Y16200D02*
X19489D01*
X19500Y16188D01*
X15910Y10200D02*
X18500D01*
X17050Y11200D02*
X18500D01*
X15700Y10410D02*
X15910Y10200D01*
X15700Y10410D02*
X15870Y10580D01*
X16430D01*
X17050Y11200D01*
X27236Y15200D02*
X29500D01*
X27085Y14200D02*
X29500D01*
X27313Y16200D02*
X29489D01*
X29500Y16188D01*
X25910Y10200D02*
X28500D01*
X27050Y11200D02*
X28500D01*
X25700Y10410D02*
X25910Y10200D01*
X25700Y10410D02*
X25870Y10580D01*
X26430D01*
X27050Y11200D01*
X7236Y24000D02*
X9500D01*
X7085Y23000D02*
X9500D01*
X7313Y25000D02*
X9489D01*
X9500Y24988D01*
X5910Y19000D02*
X8500D01*
X7050Y20000D02*
X8500D01*
X5700Y19210D02*
X5910Y19000D01*
X5700Y19210D02*
X5870Y19380D01*
X6430D01*
X7050Y20000D01*
X17236Y24000D02*
X19500D01*
X17085Y23000D02*
X19500D01*
X17313Y25000D02*
X19489D01*
X19500Y24988D01*
X15910Y19000D02*
X18500D01*
X17050Y20000D02*
X18500D01*
X15700Y19210D02*
X15910Y19000D01*
X15700Y19210D02*
X15870Y19380D01*
X16430D01*
X17050Y20000D01*
X27236Y24000D02*
X29500D01*
X27085Y23000D02*
X29500D01*
X27313Y25000D02*
X29489D01*
X29500Y24988D01*
X25910Y19000D02*
X28500D01*
X27050Y20000D02*
X28500D01*
X25700Y19210D02*
X25910Y19000D01*
X25700Y19210D02*
X25870Y19380D01*
X26430D01*
X27050Y20000D01*
D26*
X2300Y6190D02*
X3931D01*
X3941Y6200D02*
Y7622D01*
Y3679D02*
Y6200D01*
X4350Y7300D02*
X4550Y7500D01*
X5280D01*
X3941Y3679D02*
X4790Y2830D01*
X4350Y3877D02*
X5100Y3127D01*
X4350Y3877D02*
Y7300D01*
X4790Y2830D02*
X5380D01*
X5480Y2930D01*
Y3329D01*
X5335Y3474D02*
X5480Y3329D01*
X12300Y6190D02*
X13931D01*
X13941Y6200D02*
Y7622D01*
Y3679D02*
Y6200D01*
X14350Y7300D02*
X14550Y7500D01*
X15280D01*
X13941Y3679D02*
X14790Y2830D01*
X14350Y3877D02*
X15100Y3127D01*
X14350Y3877D02*
Y7300D01*
X14790Y2830D02*
X15380D01*
X15480Y2930D01*
Y3329D01*
X15335Y3474D02*
X15480Y3329D01*
X22300Y6190D02*
X23931D01*
X23941Y6200D02*
Y7622D01*
Y3679D02*
Y6200D01*
X24350Y7300D02*
X24550Y7500D01*
X25280D01*
X23941Y3679D02*
X24790Y2830D01*
X24350Y3877D02*
X25100Y3127D01*
X24350Y3877D02*
Y7300D01*
X24790Y2830D02*
X25380D01*
X25480Y2930D01*
Y3329D01*
X25335Y3474D02*
X25480Y3329D01*
X2300Y14990D02*
X3931D01*
X3941Y15000D02*
Y16422D01*
Y12479D02*
Y15000D01*
X4350Y16100D02*
X4550Y16300D01*
X5280D01*
X3941Y12479D02*
X4790Y11630D01*
X4350Y12677D02*
X5100Y11927D01*
X4350Y12677D02*
Y16100D01*
X4790Y11630D02*
X5380D01*
X5480Y11730D01*
Y12129D01*
X5335Y12274D02*
X5480Y12129D01*
X12300Y14990D02*
X13931D01*
X13941Y15000D02*
Y16422D01*
Y12479D02*
Y15000D01*
X14350Y16100D02*
X14550Y16300D01*
X15280D01*
X13941Y12479D02*
X14790Y11630D01*
X14350Y12677D02*
X15100Y11927D01*
X14350Y12677D02*
Y16100D01*
X14790Y11630D02*
X15380D01*
X15480Y11730D01*
Y12129D01*
X15335Y12274D02*
X15480Y12129D01*
X22300Y14990D02*
X23931D01*
X23941Y15000D02*
Y16422D01*
Y12479D02*
Y15000D01*
X24350Y16100D02*
X24550Y16300D01*
X25280D01*
X23941Y12479D02*
X24790Y11630D01*
X24350Y12677D02*
X25100Y11927D01*
X24350Y12677D02*
Y16100D01*
X24790Y11630D02*
X25380D01*
X25480Y11730D01*
Y12129D01*
X25335Y12274D02*
X25480Y12129D01*
X2300Y23790D02*
X3931D01*
X3941Y23800D02*
Y25222D01*
Y21279D02*
Y23800D01*
X4350Y24900D02*
X4550Y25100D01*
X5280D01*
X3941Y21279D02*
X4790Y20430D01*
X4350Y21477D02*
X5100Y20727D01*
X4350Y21477D02*
Y24900D01*
X4790Y20430D02*
X5380D01*
X5480Y20530D01*
Y20929D01*
X5335Y21074D02*
X5480Y20929D01*
X12300Y23790D02*
X13931D01*
X13941Y23800D02*
Y25222D01*
Y21279D02*
Y23800D01*
X14350Y24900D02*
X14550Y25100D01*
X15280D01*
X13941Y21279D02*
X14790Y20430D01*
X14350Y21477D02*
X15100Y20727D01*
X14350Y21477D02*
Y24900D01*
X14790Y20430D02*
X15380D01*
X15480Y20530D01*
Y20929D01*
X15335Y21074D02*
X15480Y20929D01*
X22300Y23790D02*
X23931D01*
X23941Y23800D02*
Y25222D01*
Y21279D02*
Y23800D01*
X24350Y24900D02*
X24550Y25100D01*
X25280D01*
X23941Y21279D02*
X24790Y20430D01*
X24350Y21477D02*
X25100Y20727D01*
X24350Y21477D02*
Y24900D01*
X24790Y20430D02*
X25380D01*
X25480Y20530D01*
Y20929D01*
X25335Y21074D02*
X25480Y20929D01*
D27*
X5260Y1610D02*
X5660D01*
X15260D02*
X15660D01*
X25260D02*
X25660D01*
X5260Y10410D02*
X5660D01*
X15260D02*
X15660D01*
X25260D02*
X25660D01*
X5260Y19210D02*
X5660D01*
X15260D02*
X15660D01*
X25260D02*
X25660D01*
D28*
X550Y3074D02*
Y4354D01*
X3931Y6190D02*
X3941Y6200D01*
Y7622D02*
Y7630D01*
X2248Y5122D02*
X2490Y4880D01*
Y2940D02*
Y4880D01*
Y2940D02*
X4253Y1177D01*
X4753Y977D02*
Y1537D01*
X4595Y1695D02*
X4753Y1537D01*
X1930Y3590D02*
X2210Y3870D01*
X1930Y2342D02*
Y3590D01*
Y2342D02*
X3253Y1019D01*
X1480Y4100D02*
X1890Y4510D01*
X1480Y1871D02*
X2253Y1098D01*
X1480Y1871D02*
Y4100D01*
X1680Y3888D02*
X1890Y4098D01*
X1680Y2120D02*
Y3888D01*
Y2120D02*
X2753Y1047D01*
X2210Y5122D02*
X2248D01*
X3253Y655D02*
Y1019D01*
X2753Y655D02*
Y1047D01*
X2253Y655D02*
Y1098D01*
X4753Y655D02*
Y977D01*
X4253Y655D02*
Y1177D01*
X10550Y3074D02*
Y4354D01*
X13931Y6190D02*
X13941Y6200D01*
Y7622D02*
Y7630D01*
X12248Y5122D02*
X12490Y4880D01*
Y2940D02*
Y4880D01*
Y2940D02*
X14253Y1177D01*
X14753Y977D02*
Y1537D01*
X14595Y1695D02*
X14753Y1537D01*
X11930Y3590D02*
X12210Y3870D01*
X11930Y2342D02*
Y3590D01*
Y2342D02*
X13253Y1019D01*
X11480Y4100D02*
X11890Y4510D01*
X11480Y1871D02*
X12253Y1098D01*
X11480Y1871D02*
Y4100D01*
X11680Y3888D02*
X11890Y4098D01*
X11680Y2120D02*
Y3888D01*
Y2120D02*
X12753Y1047D01*
X12210Y5122D02*
X12248D01*
X13253Y655D02*
Y1019D01*
X12753Y655D02*
Y1047D01*
X12253Y655D02*
Y1098D01*
X14753Y655D02*
Y977D01*
X14253Y655D02*
Y1177D01*
X20550Y3074D02*
Y4354D01*
X23931Y6190D02*
X23941Y6200D01*
Y7622D02*
Y7630D01*
X22248Y5122D02*
X22490Y4880D01*
Y2940D02*
Y4880D01*
Y2940D02*
X24253Y1177D01*
X24753Y977D02*
Y1537D01*
X24595Y1695D02*
X24753Y1537D01*
X21930Y3590D02*
X22210Y3870D01*
X21930Y2342D02*
Y3590D01*
Y2342D02*
X23253Y1019D01*
X21480Y4100D02*
X21890Y4510D01*
X21480Y1871D02*
X22253Y1098D01*
X21480Y1871D02*
Y4100D01*
X21680Y3888D02*
X21890Y4098D01*
X21680Y2120D02*
Y3888D01*
Y2120D02*
X22753Y1047D01*
X22210Y5122D02*
X22248D01*
X23253Y655D02*
Y1019D01*
X22753Y655D02*
Y1047D01*
X22253Y655D02*
Y1098D01*
X24753Y655D02*
Y977D01*
X24253Y655D02*
Y1177D01*
X550Y11874D02*
Y13154D01*
X3931Y14990D02*
X3941Y15000D01*
Y16422D02*
Y16430D01*
X2248Y13922D02*
X2490Y13680D01*
Y11740D02*
Y13680D01*
Y11740D02*
X4253Y9977D01*
X4753Y9777D02*
Y10337D01*
X4595Y10495D02*
X4753Y10337D01*
X1930Y12390D02*
X2210Y12670D01*
X1930Y11142D02*
Y12390D01*
Y11142D02*
X3253Y9819D01*
X1480Y12900D02*
X1890Y13310D01*
X1480Y10671D02*
X2253Y9898D01*
X1480Y10671D02*
Y12900D01*
X1680Y12688D02*
X1890Y12898D01*
X1680Y10920D02*
Y12688D01*
Y10920D02*
X2753Y9847D01*
X2210Y13922D02*
X2248D01*
X3253Y9455D02*
Y9819D01*
X2753Y9455D02*
Y9847D01*
X2253Y9455D02*
Y9898D01*
X4753Y9455D02*
Y9777D01*
X4253Y9455D02*
Y9977D01*
X10550Y11874D02*
Y13154D01*
X13931Y14990D02*
X13941Y15000D01*
Y16422D02*
Y16430D01*
X12248Y13922D02*
X12490Y13680D01*
Y11740D02*
Y13680D01*
Y11740D02*
X14253Y9977D01*
X14753Y9777D02*
Y10337D01*
X14595Y10495D02*
X14753Y10337D01*
X11930Y12390D02*
X12210Y12670D01*
X11930Y11142D02*
Y12390D01*
Y11142D02*
X13253Y9819D01*
X11480Y12900D02*
X11890Y13310D01*
X11480Y10671D02*
X12253Y9898D01*
X11480Y10671D02*
Y12900D01*
X11680Y12688D02*
X11890Y12898D01*
X11680Y10920D02*
Y12688D01*
Y10920D02*
X12753Y9847D01*
X12210Y13922D02*
X12248D01*
X13253Y9455D02*
Y9819D01*
X12753Y9455D02*
Y9847D01*
X12253Y9455D02*
Y9898D01*
X14753Y9455D02*
Y9777D01*
X14253Y9455D02*
Y9977D01*
X20550Y11874D02*
Y13154D01*
X23931Y14990D02*
X23941Y15000D01*
Y16422D02*
Y16430D01*
X22248Y13922D02*
X22490Y13680D01*
Y11740D02*
Y13680D01*
Y11740D02*
X24253Y9977D01*
X24753Y9777D02*
Y10337D01*
X24595Y10495D02*
X24753Y10337D01*
X21930Y12390D02*
X22210Y12670D01*
X21930Y11142D02*
Y12390D01*
Y11142D02*
X23253Y9819D01*
X21480Y12900D02*
X21890Y13310D01*
X21480Y10671D02*
X22253Y9898D01*
X21480Y10671D02*
Y12900D01*
X21680Y12688D02*
X21890Y12898D01*
X21680Y10920D02*
Y12688D01*
Y10920D02*
X22753Y9847D01*
X22210Y13922D02*
X22248D01*
X23253Y9455D02*
Y9819D01*
X22753Y9455D02*
Y9847D01*
X22253Y9455D02*
Y9898D01*
X24753Y9455D02*
Y9777D01*
X24253Y9455D02*
Y9977D01*
X550Y20674D02*
Y21954D01*
X3931Y23790D02*
X3941Y23800D01*
Y25222D02*
Y25230D01*
X2248Y22722D02*
X2490Y22480D01*
Y20540D02*
Y22480D01*
Y20540D02*
X4253Y18777D01*
X4753Y18577D02*
Y19137D01*
X4595Y19295D02*
X4753Y19137D01*
X1930Y21190D02*
X2210Y21470D01*
X1930Y19942D02*
Y21190D01*
Y19942D02*
X3253Y18619D01*
X1480Y21700D02*
X1890Y22110D01*
X1480Y19471D02*
X2253Y18698D01*
X1480Y19471D02*
Y21700D01*
X1680Y21488D02*
X1890Y21698D01*
X1680Y19720D02*
Y21488D01*
Y19720D02*
X2753Y18647D01*
X2210Y22722D02*
X2248D01*
X3253Y18255D02*
Y18619D01*
X2753Y18255D02*
Y18647D01*
X2253Y18255D02*
Y18698D01*
X4753Y18255D02*
Y18577D01*
X4253Y18255D02*
Y18777D01*
X10550Y20674D02*
Y21954D01*
X13931Y23790D02*
X13941Y23800D01*
Y25222D02*
Y25230D01*
X12248Y22722D02*
X12490Y22480D01*
Y20540D02*
Y22480D01*
Y20540D02*
X14253Y18777D01*
X14753Y18577D02*
Y19137D01*
X14595Y19295D02*
X14753Y19137D01*
X11930Y21190D02*
X12210Y21470D01*
X11930Y19942D02*
Y21190D01*
Y19942D02*
X13253Y18619D01*
X11480Y21700D02*
X11890Y22110D01*
X11480Y19471D02*
X12253Y18698D01*
X11480Y19471D02*
Y21700D01*
X11680Y21488D02*
X11890Y21698D01*
X11680Y19720D02*
Y21488D01*
Y19720D02*
X12753Y18647D01*
X12210Y22722D02*
X12248D01*
X13253Y18255D02*
Y18619D01*
X12753Y18255D02*
Y18647D01*
X12253Y18255D02*
Y18698D01*
X14753Y18255D02*
Y18577D01*
X14253Y18255D02*
Y18777D01*
X20550Y20674D02*
Y21954D01*
X23931Y23790D02*
X23941Y23800D01*
Y25222D02*
Y25230D01*
X22248Y22722D02*
X22490Y22480D01*
Y20540D02*
Y22480D01*
Y20540D02*
X24253Y18777D01*
X24753Y18577D02*
Y19137D01*
X24595Y19295D02*
X24753Y19137D01*
X21930Y21190D02*
X22210Y21470D01*
X21930Y19942D02*
Y21190D01*
Y19942D02*
X23253Y18619D01*
X21480Y21700D02*
X21890Y22110D01*
X21480Y19471D02*
X22253Y18698D01*
X21480Y19471D02*
Y21700D01*
X21680Y21488D02*
X21890Y21698D01*
X21680Y19720D02*
Y21488D01*
Y19720D02*
X22753Y18647D01*
X22210Y22722D02*
X22248D01*
X23253Y18255D02*
Y18619D01*
X22753Y18255D02*
Y18647D01*
X22253Y18255D02*
Y18698D01*
X24753Y18255D02*
Y18577D01*
X24253Y18255D02*
Y18777D01*
D29*
X2210Y2550D02*
Y3410D01*
Y2550D02*
X3753Y1007D01*
Y655D02*
Y1007D01*
X12210Y2550D02*
Y3410D01*
Y2550D02*
X13753Y1007D01*
Y655D02*
Y1007D01*
X22210Y2550D02*
Y3410D01*
Y2550D02*
X23753Y1007D01*
Y655D02*
Y1007D01*
X2210Y11350D02*
Y12210D01*
Y11350D02*
X3753Y9807D01*
Y9455D02*
Y9807D01*
X12210Y11350D02*
Y12210D01*
Y11350D02*
X13753Y9807D01*
Y9455D02*
Y9807D01*
X22210Y11350D02*
Y12210D01*
Y11350D02*
X23753Y9807D01*
Y9455D02*
Y9807D01*
X2210Y20150D02*
Y21010D01*
Y20150D02*
X3753Y18607D01*
Y18255D02*
Y18607D01*
X12210Y20150D02*
Y21010D01*
Y20150D02*
X13753Y18607D01*
Y18255D02*
Y18607D01*
X22210Y20150D02*
Y21010D01*
Y20150D02*
X23753Y18607D01*
Y18255D02*
Y18607D01*
D31*
X9500Y7388D02*
Y7900D01*
Y6900D02*
Y7388D01*
Y5400D02*
Y5900D01*
Y4900D02*
Y5400D01*
X8500Y2900D02*
Y3900D01*
Y4900D01*
X9500Y900D02*
Y1900D01*
Y2900D01*
Y3900D01*
Y4900D01*
Y5900D02*
Y6400D01*
Y6900D01*
X8500Y1900D02*
Y2400D01*
Y2900D01*
Y900D02*
Y1400D01*
Y1900D01*
X19500Y7388D02*
Y7900D01*
Y6900D02*
Y7388D01*
Y5400D02*
Y5900D01*
Y4900D02*
Y5400D01*
X18500Y2900D02*
Y3900D01*
Y4900D01*
X19500Y900D02*
Y1900D01*
Y2900D01*
Y3900D01*
Y4900D01*
Y5900D02*
Y6400D01*
Y6900D01*
X18500Y1900D02*
Y2400D01*
Y2900D01*
Y900D02*
Y1400D01*
Y1900D01*
X29500Y7388D02*
Y7900D01*
Y6900D02*
Y7388D01*
Y5400D02*
Y5900D01*
Y4900D02*
Y5400D01*
X28500Y2900D02*
Y3900D01*
Y4900D01*
X29500Y900D02*
Y1900D01*
Y2900D01*
Y3900D01*
Y4900D01*
Y5900D02*
Y6400D01*
Y6900D01*
X28500Y1900D02*
Y2400D01*
Y2900D01*
Y900D02*
Y1400D01*
Y1900D01*
X9500Y16188D02*
Y16700D01*
Y15700D02*
Y16188D01*
Y14200D02*
Y14700D01*
Y13700D02*
Y14200D01*
X8500Y11700D02*
Y12700D01*
Y13700D01*
X9500Y9700D02*
Y10700D01*
Y11700D01*
Y12700D01*
Y13700D01*
Y14700D02*
Y15200D01*
Y15700D01*
X8500Y10700D02*
Y11200D01*
Y11700D01*
Y9700D02*
Y10200D01*
Y10700D01*
X19500Y16188D02*
Y16700D01*
Y15700D02*
Y16188D01*
Y14200D02*
Y14700D01*
Y13700D02*
Y14200D01*
X18500Y11700D02*
Y12700D01*
Y13700D01*
X19500Y9700D02*
Y10700D01*
Y11700D01*
Y12700D01*
Y13700D01*
Y14700D02*
Y15200D01*
Y15700D01*
X18500Y10700D02*
Y11200D01*
Y11700D01*
Y9700D02*
Y10200D01*
Y10700D01*
X29500Y16188D02*
Y16700D01*
Y15700D02*
Y16188D01*
Y14200D02*
Y14700D01*
Y13700D02*
Y14200D01*
X28500Y11700D02*
Y12700D01*
Y13700D01*
X29500Y9700D02*
Y10700D01*
Y11700D01*
Y12700D01*
Y13700D01*
Y14700D02*
Y15200D01*
Y15700D01*
X28500Y10700D02*
Y11200D01*
Y11700D01*
Y9700D02*
Y10200D01*
Y10700D01*
X9500Y24988D02*
Y25500D01*
Y24500D02*
Y24988D01*
Y23000D02*
Y23500D01*
Y22500D02*
Y23000D01*
X8500Y20500D02*
Y21500D01*
Y22500D01*
X9500Y18500D02*
Y19500D01*
Y20500D01*
Y21500D01*
Y22500D01*
Y23500D02*
Y24000D01*
Y24500D01*
X8500Y19500D02*
Y20000D01*
Y20500D01*
Y18500D02*
Y19000D01*
Y19500D01*
X19500Y24988D02*
Y25500D01*
Y24500D02*
Y24988D01*
Y23000D02*
Y23500D01*
Y22500D02*
Y23000D01*
X18500Y20500D02*
Y21500D01*
Y22500D01*
X19500Y18500D02*
Y19500D01*
Y20500D01*
Y21500D01*
Y22500D01*
Y23500D02*
Y24000D01*
Y24500D01*
X18500Y19500D02*
Y20000D01*
Y20500D01*
Y18500D02*
Y19000D01*
Y19500D01*
X29500Y24988D02*
Y25500D01*
Y24500D02*
Y24988D01*
Y23000D02*
Y23500D01*
Y22500D02*
Y23000D01*
X28500Y20500D02*
Y21500D01*
Y22500D01*
X29500Y18500D02*
Y19500D01*
Y20500D01*
Y21500D01*
Y22500D01*
Y23500D02*
Y24000D01*
Y24500D01*
X28500Y19500D02*
Y20000D01*
Y20500D01*
Y18500D02*
Y19000D01*
Y19500D01*
D32*
X4275Y8173D02*
D03*
X4945D02*
D03*
X14275D02*
D03*
X14945D02*
D03*
X24275D02*
D03*
X24945D02*
D03*
X4275Y16973D02*
D03*
X4945D02*
D03*
X14275D02*
D03*
X14945D02*
D03*
X24275D02*
D03*
X24945D02*
D03*
X4275Y25773D02*
D03*
X4945D02*
D03*
X14275D02*
D03*
X14945D02*
D03*
X24275D02*
D03*
X24945D02*
D03*
D33*
X7500Y900D02*
D03*
Y1900D02*
D03*
Y6900D02*
D03*
Y5900D02*
D03*
Y4900D02*
D03*
Y3900D02*
D03*
Y2900D02*
D03*
X8500Y900D02*
D03*
Y1900D02*
D03*
Y6900D02*
D03*
Y5900D02*
D03*
Y4900D02*
D03*
Y3900D02*
D03*
Y2900D02*
D03*
X9500Y900D02*
D03*
Y1900D02*
D03*
Y6900D02*
D03*
Y5900D02*
D03*
Y4900D02*
D03*
Y3900D02*
D03*
Y2900D02*
D03*
X17500Y900D02*
D03*
Y1900D02*
D03*
Y6900D02*
D03*
Y5900D02*
D03*
Y4900D02*
D03*
Y3900D02*
D03*
Y2900D02*
D03*
X18500Y900D02*
D03*
Y1900D02*
D03*
Y6900D02*
D03*
Y5900D02*
D03*
Y4900D02*
D03*
Y3900D02*
D03*
Y2900D02*
D03*
X19500Y900D02*
D03*
Y1900D02*
D03*
Y6900D02*
D03*
Y5900D02*
D03*
Y4900D02*
D03*
Y3900D02*
D03*
Y2900D02*
D03*
X27500Y900D02*
D03*
Y1900D02*
D03*
Y6900D02*
D03*
Y5900D02*
D03*
Y4900D02*
D03*
Y3900D02*
D03*
Y2900D02*
D03*
X28500Y900D02*
D03*
Y1900D02*
D03*
Y6900D02*
D03*
Y5900D02*
D03*
Y4900D02*
D03*
Y3900D02*
D03*
Y2900D02*
D03*
X29500Y900D02*
D03*
Y1900D02*
D03*
Y6900D02*
D03*
Y5900D02*
D03*
Y4900D02*
D03*
Y3900D02*
D03*
Y2900D02*
D03*
X7500Y9700D02*
D03*
Y10700D02*
D03*
Y15700D02*
D03*
Y14700D02*
D03*
Y13700D02*
D03*
Y12700D02*
D03*
Y11700D02*
D03*
X8500Y9700D02*
D03*
Y10700D02*
D03*
Y15700D02*
D03*
Y14700D02*
D03*
Y13700D02*
D03*
Y12700D02*
D03*
Y11700D02*
D03*
X9500Y9700D02*
D03*
Y10700D02*
D03*
Y15700D02*
D03*
Y14700D02*
D03*
Y13700D02*
D03*
Y12700D02*
D03*
Y11700D02*
D03*
X17500Y9700D02*
D03*
Y10700D02*
D03*
Y15700D02*
D03*
Y14700D02*
D03*
Y13700D02*
D03*
Y12700D02*
D03*
Y11700D02*
D03*
X18500Y9700D02*
D03*
Y10700D02*
D03*
Y15700D02*
D03*
Y14700D02*
D03*
Y13700D02*
D03*
Y12700D02*
D03*
Y11700D02*
D03*
X19500Y9700D02*
D03*
Y10700D02*
D03*
Y15700D02*
D03*
Y14700D02*
D03*
Y13700D02*
D03*
Y12700D02*
D03*
Y11700D02*
D03*
X27500Y9700D02*
D03*
Y10700D02*
D03*
Y15700D02*
D03*
Y14700D02*
D03*
Y13700D02*
D03*
Y12700D02*
D03*
Y11700D02*
D03*
X28500Y9700D02*
D03*
Y10700D02*
D03*
Y15700D02*
D03*
Y14700D02*
D03*
Y13700D02*
D03*
Y12700D02*
D03*
Y11700D02*
D03*
X29500Y9700D02*
D03*
Y10700D02*
D03*
Y15700D02*
D03*
Y14700D02*
D03*
Y13700D02*
D03*
Y12700D02*
D03*
Y11700D02*
D03*
X7500Y18500D02*
D03*
Y19500D02*
D03*
Y24500D02*
D03*
Y23500D02*
D03*
Y22500D02*
D03*
Y21500D02*
D03*
Y20500D02*
D03*
X8500Y18500D02*
D03*
Y19500D02*
D03*
Y24500D02*
D03*
Y23500D02*
D03*
Y22500D02*
D03*
Y21500D02*
D03*
Y20500D02*
D03*
X9500Y18500D02*
D03*
Y19500D02*
D03*
Y24500D02*
D03*
Y23500D02*
D03*
Y22500D02*
D03*
Y21500D02*
D03*
Y20500D02*
D03*
X17500Y18500D02*
D03*
Y19500D02*
D03*
Y24500D02*
D03*
Y23500D02*
D03*
Y22500D02*
D03*
Y21500D02*
D03*
Y20500D02*
D03*
X18500Y18500D02*
D03*
Y19500D02*
D03*
Y24500D02*
D03*
Y23500D02*
D03*
Y22500D02*
D03*
Y21500D02*
D03*
Y20500D02*
D03*
X19500Y18500D02*
D03*
Y19500D02*
D03*
Y24500D02*
D03*
Y23500D02*
D03*
Y22500D02*
D03*
Y21500D02*
D03*
Y20500D02*
D03*
X27500Y18500D02*
D03*
Y19500D02*
D03*
Y24500D02*
D03*
Y23500D02*
D03*
Y22500D02*
D03*
Y21500D02*
D03*
Y20500D02*
D03*
X28500Y18500D02*
D03*
Y19500D02*
D03*
Y24500D02*
D03*
Y23500D02*
D03*
Y22500D02*
D03*
Y21500D02*
D03*
Y20500D02*
D03*
X29500Y18500D02*
D03*
Y19500D02*
D03*
Y24500D02*
D03*
Y23500D02*
D03*
Y22500D02*
D03*
Y21500D02*
D03*
Y20500D02*
D03*
D34*
X7500Y7900D02*
D03*
X8500D02*
D03*
X9500D02*
D03*
X17500D02*
D03*
X18500D02*
D03*
X19500D02*
D03*
X27500D02*
D03*
X28500D02*
D03*
X29500D02*
D03*
X7500Y16700D02*
D03*
X8500D02*
D03*
X9500D02*
D03*
X17500D02*
D03*
X18500D02*
D03*
X19500D02*
D03*
X27500D02*
D03*
X28500D02*
D03*
X29500D02*
D03*
X7500Y25500D02*
D03*
X8500D02*
D03*
X9500D02*
D03*
X17500D02*
D03*
X18500D02*
D03*
X19500D02*
D03*
X27500D02*
D03*
X28500D02*
D03*
X29500D02*
D03*
D35*
X6260Y2101D02*
D03*
X5236D02*
D03*
X6690Y611D02*
D03*
X6012Y400D02*
D03*
X1800Y5800D02*
D03*
X2200D02*
D03*
X2611Y5783D02*
D03*
X6500Y8300D02*
D03*
X5100Y6000D02*
D03*
X2257Y8518D02*
D03*
X2619D02*
D03*
X3521Y7286D02*
D03*
X3507Y7779D02*
D03*
X5507Y5998D02*
D03*
X5667Y3920D02*
D03*
X374Y1222D02*
D03*
X999Y2101D02*
D03*
X335Y7482D02*
D03*
X3257Y5650D02*
D03*
X1007Y2400D02*
D03*
X757Y400D02*
D03*
X1257D02*
D03*
X6507Y4150D02*
D03*
X7007Y4400D02*
D03*
X4757Y5650D02*
D03*
X6507Y7900D02*
D03*
X550Y3074D02*
D03*
Y4354D02*
D03*
X2300Y6190D02*
D03*
X5280Y7500D02*
D03*
X3941Y7622D02*
D03*
X1890Y4510D02*
D03*
X2210Y3410D02*
D03*
X4595Y1695D02*
D03*
X1890Y4098D02*
D03*
X2210Y3870D02*
D03*
Y5122D02*
D03*
X5335Y3474D02*
D03*
X5100Y3127D02*
D03*
X16260Y2101D02*
D03*
X15236D02*
D03*
X16690Y611D02*
D03*
X16012Y400D02*
D03*
X11800Y5800D02*
D03*
X12200D02*
D03*
X12611Y5783D02*
D03*
X16500Y8300D02*
D03*
X15100Y6000D02*
D03*
X12257Y8518D02*
D03*
X12619D02*
D03*
X13520Y7286D02*
D03*
X13507Y7779D02*
D03*
X15507Y5998D02*
D03*
X15667Y3920D02*
D03*
X10374Y1222D02*
D03*
X10999Y2101D02*
D03*
X10335Y7482D02*
D03*
X13257Y5650D02*
D03*
X11007Y2400D02*
D03*
X10757Y400D02*
D03*
X11257D02*
D03*
X16507Y4150D02*
D03*
X17007Y4400D02*
D03*
X14757Y5650D02*
D03*
X16507Y7900D02*
D03*
X10550Y3074D02*
D03*
Y4354D02*
D03*
X12300Y6190D02*
D03*
X15280Y7500D02*
D03*
X13941Y7622D02*
D03*
X11890Y4510D02*
D03*
X12210Y3410D02*
D03*
X14595Y1695D02*
D03*
X11890Y4098D02*
D03*
X12210Y3870D02*
D03*
Y5122D02*
D03*
X15335Y3474D02*
D03*
X15100Y3127D02*
D03*
X26260Y2101D02*
D03*
X25236D02*
D03*
X26690Y611D02*
D03*
X26012Y400D02*
D03*
X21800Y5800D02*
D03*
X22200D02*
D03*
X22611Y5783D02*
D03*
X26500Y8300D02*
D03*
X25100Y6000D02*
D03*
X22257Y8518D02*
D03*
X22619D02*
D03*
X23521Y7286D02*
D03*
X23507Y7779D02*
D03*
X25507Y5998D02*
D03*
X25667Y3920D02*
D03*
X20374Y1222D02*
D03*
X20999Y2101D02*
D03*
X20335Y7482D02*
D03*
X23257Y5650D02*
D03*
X21007Y2400D02*
D03*
X20757Y400D02*
D03*
X21257D02*
D03*
X26507Y4150D02*
D03*
X27007Y4400D02*
D03*
X24757Y5650D02*
D03*
X26507Y7900D02*
D03*
X20550Y3074D02*
D03*
Y4354D02*
D03*
X22300Y6190D02*
D03*
X25280Y7500D02*
D03*
X23941Y7622D02*
D03*
X21890Y4510D02*
D03*
X22210Y3410D02*
D03*
X24595Y1695D02*
D03*
X21890Y4098D02*
D03*
X22210Y3870D02*
D03*
Y5122D02*
D03*
X25335Y3474D02*
D03*
X25100Y3127D02*
D03*
X6260Y10901D02*
D03*
X5236D02*
D03*
X6690Y9411D02*
D03*
X6012Y9200D02*
D03*
X1800Y14600D02*
D03*
X2200D02*
D03*
X2611Y14583D02*
D03*
X6500Y17100D02*
D03*
X5100Y14800D02*
D03*
X2257Y17318D02*
D03*
X2619D02*
D03*
X3521Y16086D02*
D03*
X3507Y16579D02*
D03*
X5507Y14798D02*
D03*
X5667Y12720D02*
D03*
X374Y10022D02*
D03*
X999Y10901D02*
D03*
X335Y16282D02*
D03*
X3257Y14450D02*
D03*
X1007Y11200D02*
D03*
X757Y9200D02*
D03*
X1257D02*
D03*
X6507Y12950D02*
D03*
X7007Y13200D02*
D03*
X4757Y14450D02*
D03*
X6507Y16700D02*
D03*
X550Y11874D02*
D03*
Y13154D02*
D03*
X2300Y14990D02*
D03*
X5280Y16300D02*
D03*
X3941Y16422D02*
D03*
X1890Y13310D02*
D03*
X2210Y12210D02*
D03*
X4595Y10495D02*
D03*
X1890Y12898D02*
D03*
X2210Y12670D02*
D03*
Y13922D02*
D03*
X5335Y12274D02*
D03*
X5100Y11927D02*
D03*
X16260Y10901D02*
D03*
X15236D02*
D03*
X16690Y9411D02*
D03*
X16012Y9200D02*
D03*
X11800Y14600D02*
D03*
X12200D02*
D03*
X12611Y14583D02*
D03*
X16500Y17100D02*
D03*
X15100Y14800D02*
D03*
X12257Y17318D02*
D03*
X12619D02*
D03*
X13520Y16086D02*
D03*
X13507Y16579D02*
D03*
X15507Y14798D02*
D03*
X15667Y12720D02*
D03*
X10374Y10022D02*
D03*
X10999Y10901D02*
D03*
X10335Y16282D02*
D03*
X13257Y14450D02*
D03*
X11007Y11200D02*
D03*
X10757Y9200D02*
D03*
X11257D02*
D03*
X16507Y12950D02*
D03*
X17007Y13200D02*
D03*
X14757Y14450D02*
D03*
X16507Y16700D02*
D03*
X10550Y11874D02*
D03*
Y13154D02*
D03*
X12300Y14990D02*
D03*
X15280Y16300D02*
D03*
X13941Y16422D02*
D03*
X11890Y13310D02*
D03*
X12210Y12210D02*
D03*
X14595Y10495D02*
D03*
X11890Y12898D02*
D03*
X12210Y12670D02*
D03*
Y13922D02*
D03*
X15335Y12274D02*
D03*
X15100Y11927D02*
D03*
X26260Y10901D02*
D03*
X25236D02*
D03*
X26690Y9411D02*
D03*
X26012Y9200D02*
D03*
X21800Y14600D02*
D03*
X22200D02*
D03*
X22611Y14583D02*
D03*
X26500Y17100D02*
D03*
X25100Y14800D02*
D03*
X22257Y17318D02*
D03*
X22619D02*
D03*
X23521Y16086D02*
D03*
X23507Y16579D02*
D03*
X25507Y14798D02*
D03*
X25667Y12720D02*
D03*
X20374Y10022D02*
D03*
X20999Y10901D02*
D03*
X20335Y16282D02*
D03*
X23257Y14450D02*
D03*
X21007Y11200D02*
D03*
X20757Y9200D02*
D03*
X21257D02*
D03*
X26507Y12950D02*
D03*
X27007Y13200D02*
D03*
X24757Y14450D02*
D03*
X26507Y16700D02*
D03*
X20550Y11874D02*
D03*
Y13154D02*
D03*
X22300Y14990D02*
D03*
X25280Y16300D02*
D03*
X23941Y16422D02*
D03*
X21890Y13310D02*
D03*
X22210Y12210D02*
D03*
X24595Y10495D02*
D03*
X21890Y12898D02*
D03*
X22210Y12670D02*
D03*
Y13922D02*
D03*
X25335Y12274D02*
D03*
X25100Y11927D02*
D03*
X6260Y19701D02*
D03*
X5236D02*
D03*
X6690Y18211D02*
D03*
X6012Y18000D02*
D03*
X1800Y23400D02*
D03*
X2200D02*
D03*
X2611Y23383D02*
D03*
X6500Y25900D02*
D03*
X5100Y23600D02*
D03*
X2257Y26118D02*
D03*
X2619D02*
D03*
X3521Y24886D02*
D03*
X3507Y25379D02*
D03*
X5507Y23598D02*
D03*
X5667Y21520D02*
D03*
X374Y18822D02*
D03*
X999Y19701D02*
D03*
X335Y25082D02*
D03*
X3257Y23250D02*
D03*
X1007Y20000D02*
D03*
X757Y18000D02*
D03*
X1257D02*
D03*
X6507Y21750D02*
D03*
X7007Y22000D02*
D03*
X4757Y23250D02*
D03*
X6507Y25500D02*
D03*
X550Y20674D02*
D03*
Y21954D02*
D03*
X2300Y23790D02*
D03*
X5280Y25100D02*
D03*
X3941Y25222D02*
D03*
X1890Y22110D02*
D03*
X2210Y21010D02*
D03*
X4595Y19295D02*
D03*
X1890Y21698D02*
D03*
X2210Y21470D02*
D03*
Y22722D02*
D03*
X5335Y21074D02*
D03*
X5100Y20727D02*
D03*
X16260Y19701D02*
D03*
X15236D02*
D03*
X16690Y18211D02*
D03*
X16012Y18000D02*
D03*
X11800Y23400D02*
D03*
X12200D02*
D03*
X12611Y23383D02*
D03*
X16500Y25900D02*
D03*
X15100Y23600D02*
D03*
X12257Y26118D02*
D03*
X12619D02*
D03*
X13520Y24886D02*
D03*
X13507Y25379D02*
D03*
X15507Y23598D02*
D03*
X15667Y21520D02*
D03*
X10374Y18822D02*
D03*
X10999Y19701D02*
D03*
X10335Y25082D02*
D03*
X13257Y23250D02*
D03*
X11007Y20000D02*
D03*
X10757Y18000D02*
D03*
X11257D02*
D03*
X16507Y21750D02*
D03*
X17007Y22000D02*
D03*
X14757Y23250D02*
D03*
X16507Y25500D02*
D03*
X10550Y20674D02*
D03*
Y21954D02*
D03*
X12300Y23790D02*
D03*
X15280Y25100D02*
D03*
X13941Y25222D02*
D03*
X11890Y22110D02*
D03*
X12210Y21010D02*
D03*
X14595Y19295D02*
D03*
X11890Y21698D02*
D03*
X12210Y21470D02*
D03*
Y22722D02*
D03*
X15335Y21074D02*
D03*
X15100Y20727D02*
D03*
X26260Y19701D02*
D03*
X25236D02*
D03*
X26690Y18211D02*
D03*
X26012Y18000D02*
D03*
X21800Y23400D02*
D03*
X22200D02*
D03*
X22611Y23383D02*
D03*
X26500Y25900D02*
D03*
X25100Y23600D02*
D03*
X22257Y26118D02*
D03*
X22619D02*
D03*
X23521Y24886D02*
D03*
X23507Y25379D02*
D03*
X25507Y23598D02*
D03*
X25667Y21520D02*
D03*
X20374Y18822D02*
D03*
X20999Y19701D02*
D03*
X20335Y25082D02*
D03*
X23257Y23250D02*
D03*
X21007Y20000D02*
D03*
X20757Y18000D02*
D03*
X21257D02*
D03*
X26507Y21750D02*
D03*
X27007Y22000D02*
D03*
X24757Y23250D02*
D03*
X26507Y25500D02*
D03*
X20550Y20674D02*
D03*
Y21954D02*
D03*
X22300Y23790D02*
D03*
X25280Y25100D02*
D03*
X23941Y25222D02*
D03*
X21890Y22110D02*
D03*
X22210Y21010D02*
D03*
X24595Y19295D02*
D03*
X21890Y21698D02*
D03*
X22210Y21470D02*
D03*
Y22722D02*
D03*
X25335Y21074D02*
D03*
X25100Y20727D02*
D03*
D36*
X5660Y1610D02*
D03*
X5220Y420D02*
D03*
X5260Y1610D02*
D03*
X15660D02*
D03*
X15220Y420D02*
D03*
X15260Y1610D02*
D03*
X25660D02*
D03*
X25220Y420D02*
D03*
X25260Y1610D02*
D03*
X5660Y10410D02*
D03*
X5220Y9220D02*
D03*
X5260Y10410D02*
D03*
X15660D02*
D03*
X15220Y9220D02*
D03*
X15260Y10410D02*
D03*
X25660D02*
D03*
X25220Y9220D02*
D03*
X25260Y10410D02*
D03*
X5660Y19210D02*
D03*
X5220Y18020D02*
D03*
X5260Y19210D02*
D03*
X15660D02*
D03*
X15220Y18020D02*
D03*
X15260Y19210D02*
D03*
X25660D02*
D03*
X25220Y18020D02*
D03*
X25260Y19210D02*
D03*
D37*
X5475Y8145D02*
D03*
X1538D02*
D03*
X15475D02*
D03*
X11538D02*
D03*
X25475D02*
D03*
X21538D02*
D03*
X5475Y16945D02*
D03*
X1538D02*
D03*
X15475D02*
D03*
X11538D02*
D03*
X25475D02*
D03*
X21538D02*
D03*
X5475Y25745D02*
D03*
X1538D02*
D03*
X15475D02*
D03*
X11538D02*
D03*
X25475D02*
D03*
X21538D02*
D03*
D38*
X6354Y5771D02*
D03*
X646D02*
D03*
X16354D02*
D03*
X10646D02*
D03*
X26354D02*
D03*
X20646D02*
D03*
X6354Y14571D02*
D03*
X646D02*
D03*
X16354D02*
D03*
X10646D02*
D03*
X26354D02*
D03*
X20646D02*
D03*
X6354Y23371D02*
D03*
X646D02*
D03*
X16354D02*
D03*
X10646D02*
D03*
X26354D02*
D03*
X20646D02*
D03*
D39*
X1017Y5548D02*
D03*
X6040Y6957D02*
D03*
X11017Y5548D02*
D03*
X16040Y6957D02*
D03*
X21017Y5548D02*
D03*
X26040Y6957D02*
D03*
X1017Y14348D02*
D03*
X6040Y15757D02*
D03*
X11017Y14348D02*
D03*
X16040Y15757D02*
D03*
X21017Y14348D02*
D03*
X26040Y15757D02*
D03*
X1017Y23148D02*
D03*
X6040Y24557D02*
D03*
X11017Y23148D02*
D03*
X16040Y24557D02*
D03*
X21017Y23148D02*
D03*
X26040Y24557D02*
D03*
D40*
X5253Y655D02*
D03*
X4753D02*
D03*
X3753D02*
D03*
X2253D02*
D03*
X4253D02*
D03*
X3253D02*
D03*
X2753D02*
D03*
X1753D02*
D03*
X15253D02*
D03*
X14753D02*
D03*
X13753D02*
D03*
X12253D02*
D03*
X14253D02*
D03*
X13253D02*
D03*
X12753D02*
D03*
X11753D02*
D03*
X25253D02*
D03*
X24753D02*
D03*
X23753D02*
D03*
X22253D02*
D03*
X24253D02*
D03*
X23253D02*
D03*
X22753D02*
D03*
X21753D02*
D03*
X5253Y9455D02*
D03*
X4753D02*
D03*
X3753D02*
D03*
X2253D02*
D03*
X4253D02*
D03*
X3253D02*
D03*
X2753D02*
D03*
X1753D02*
D03*
X15253D02*
D03*
X14753D02*
D03*
X13753D02*
D03*
X12253D02*
D03*
X14253D02*
D03*
X13253D02*
D03*
X12753D02*
D03*
X11753D02*
D03*
X25253D02*
D03*
X24753D02*
D03*
X23753D02*
D03*
X22253D02*
D03*
X24253D02*
D03*
X23253D02*
D03*
X22753D02*
D03*
X21753D02*
D03*
X5253Y18255D02*
D03*
X4753D02*
D03*
X3753D02*
D03*
X2253D02*
D03*
X4253D02*
D03*
X3253D02*
D03*
X2753D02*
D03*
X1753D02*
D03*
X15253D02*
D03*
X14753D02*
D03*
X13753D02*
D03*
X12253D02*
D03*
X14253D02*
D03*
X13253D02*
D03*
X12753D02*
D03*
X11753D02*
D03*
X25253D02*
D03*
X24753D02*
D03*
X23753D02*
D03*
X22253D02*
D03*
X24253D02*
D03*
X23253D02*
D03*
X22753D02*
D03*
X21753D02*
D03*
M02*
