G04*
G04 #@! TF.GenerationSoftware,Altium Limited,Altium Designer,21.9.1 (22)*
G04*
G04 Layer_Physical_Order=2*
G04 Layer_Color=5943554*
%FSLAX25Y25*%
%MOIN*%
G70*
G04*
G04 #@! TF.SameCoordinates,41BA0B49-DCAA-4547-B712-30F71D3BADEB*
G04*
G04*
G04 #@! TF.FilePolarity,Positive*
G04*
G01*
G75*
%ADD11C,0.01000*%
%ADD12C,0.00787*%
%ADD30C,0.00965*%
%ADD31C,0.01575*%
%ADD34R,0.03500X0.05000*%
%ADD35C,0.07480*%
%ADD37C,0.01181*%
%ADD38C,0.02362*%
%ADD40C,0.03150*%
%ADD42C,0.03937*%
%ADD43C,0.01968*%
%ADD44C,0.07087*%
%ADD45R,0.07087X0.07087*%
%ADD46C,0.20000*%
%ADD47C,0.06693*%
%ADD48R,0.06693X0.06693*%
%ADD49C,0.05118*%
%ADD50R,0.07480X0.07480*%
%ADD51O,0.04724X0.07874*%
%ADD52C,0.03150*%
%ADD53C,0.02362*%
%ADD54R,0.02165X0.07087*%
%ADD55O,0.02165X0.07087*%
%ADD56R,0.01968X0.04724*%
%ADD57R,0.08661X0.06890*%
%ADD58R,0.03937X0.01772*%
%ADD59R,0.05000X0.03500*%
%ADD60R,0.07874X0.05906*%
%ADD61R,0.03150X0.05906*%
%ADD62C,0.07874*%
%ADD63R,0.06299X0.06299*%
%ADD64R,0.04724X0.01968*%
%ADD65C,0.06299*%
%ADD66R,0.03876X0.28781*%
G36*
X400577Y148397D02*
X402829Y147856D01*
X404968Y146969D01*
X406943Y145759D01*
X408704Y144255D01*
X410208Y142494D01*
X411418Y140519D01*
X412305Y138380D01*
X412845Y136128D01*
X413021Y133900D01*
X413004Y133819D01*
Y5472D01*
X413021Y5391D01*
X412845Y3164D01*
X412305Y912D01*
X411418Y-1228D01*
X410208Y-3203D01*
X408704Y-4964D01*
X406943Y-6468D01*
X404968Y-7678D01*
X402829Y-8564D01*
X400577Y-9105D01*
X398348Y-9280D01*
X398268Y-9264D01*
X398268D01*
Y-9264D01*
X398267Y-9264D01*
X251007D01*
X250846Y-8791D01*
X251706Y-8131D01*
X252464Y-7144D01*
X252940Y-5995D01*
X253102Y-4761D01*
X252940Y-3528D01*
X252464Y-2379D01*
X251706Y-1392D01*
X250720Y-635D01*
X249570Y-158D01*
X248337Y4D01*
X247104Y-158D01*
X245954Y-635D01*
X244968Y-1392D01*
X244210Y-2379D01*
X243734Y-3528D01*
X243587Y-4646D01*
X243087D01*
X242940Y-3528D01*
X242464Y-2379D01*
X241706Y-1392D01*
X240720Y-635D01*
X239570Y-158D01*
X238337Y4D01*
X237104Y-158D01*
X235954Y-635D01*
X234967Y-1392D01*
X234210Y-2379D01*
X233734Y-3528D01*
X233572Y-4761D01*
X233734Y-5995D01*
X234210Y-7144D01*
X234967Y-8131D01*
X235828Y-8791D01*
X235667Y-9264D01*
X144472D01*
X144311Y-8791D01*
X145171Y-8131D01*
X145928Y-7144D01*
X146404Y-5995D01*
X146567Y-4761D01*
X146404Y-3528D01*
X145928Y-2379D01*
X145171Y-1392D01*
X144184Y-635D01*
X143035Y-158D01*
X141802Y4D01*
X140568Y-158D01*
X139419Y-635D01*
X138432Y-1392D01*
X137675Y-2379D01*
X137199Y-3528D01*
X137052Y-4646D01*
X136552D01*
X136404Y-3528D01*
X135928Y-2379D01*
X135171Y-1392D01*
X134184Y-635D01*
X133035Y-158D01*
X131802Y4D01*
X130568Y-158D01*
X129419Y-635D01*
X128432Y-1392D01*
X127675Y-2379D01*
X127199Y-3528D01*
X127036Y-4761D01*
X127199Y-5995D01*
X127675Y-7144D01*
X128432Y-8131D01*
X129292Y-8791D01*
X129132Y-9264D01*
X-18267D01*
X-18268Y-9264D01*
Y-9264D01*
X-18268D01*
X-18349Y-9280D01*
X-20577Y-9105D01*
X-22829Y-8564D01*
X-24968Y-7678D01*
X-26943Y-6468D01*
X-28704Y-4964D01*
X-30208Y-3203D01*
X-31418Y-1228D01*
X-32305Y912D01*
X-32845Y3164D01*
X-33021Y5391D01*
X-33004Y5472D01*
Y49803D01*
X-29787D01*
Y54331D01*
X-29000D01*
Y55118D01*
X-24472D01*
Y56726D01*
X-24011Y56917D01*
X-23212Y56119D01*
X-23092Y55999D01*
X-23092D01*
X-23092Y55999D01*
X-11942Y44849D01*
X-11386Y44477D01*
X-10730Y44347D01*
X41845D01*
X42081Y43906D01*
X42071Y43891D01*
X41934Y43200D01*
Y37216D01*
X41258Y36937D01*
X40230Y36148D01*
X39441Y35120D01*
X38946Y33923D01*
X38776Y32638D01*
X38946Y31353D01*
X39441Y30156D01*
X40230Y29128D01*
X41258Y28339D01*
X42456Y27843D01*
X43728Y27676D01*
Y27676D01*
X43696Y27177D01*
X22000D01*
X21178Y27068D01*
X20412Y26751D01*
X19754Y26246D01*
X19249Y25588D01*
X18932Y24822D01*
X18823Y24000D01*
X18932Y23178D01*
X19249Y22412D01*
X19754Y21754D01*
X20412Y21249D01*
X21178Y20932D01*
X22000Y20823D01*
X48684D01*
X71754Y-2246D01*
X72126Y-2532D01*
X72412Y-2751D01*
X72636Y-2844D01*
X73178Y-3069D01*
X74000Y-3177D01*
X113142D01*
X113964Y-3069D01*
X114730Y-2751D01*
X115388Y-2246D01*
X115388Y-2246D01*
X115388Y-2246D01*
X124316Y6681D01*
X175433D01*
Y5232D01*
X186457D01*
Y14484D01*
X175433D01*
Y13035D01*
X123000D01*
X122178Y12927D01*
X121412Y12609D01*
X120754Y12105D01*
X111826Y3177D01*
X75316D01*
X52246Y26246D01*
X51588Y26751D01*
X50822Y27068D01*
X50000Y27177D01*
X43785D01*
X43752Y27676D01*
X45025Y27843D01*
X46222Y28339D01*
X47250Y29128D01*
X48039Y30156D01*
X48535Y31353D01*
X48704Y32638D01*
X48535Y33923D01*
X48039Y35120D01*
X47250Y36148D01*
X46222Y36937D01*
X45547Y37216D01*
Y41394D01*
X139695D01*
X140386Y41531D01*
X140972Y41923D01*
X149334Y50284D01*
X149796Y50093D01*
Y26972D01*
X104838D01*
X102672Y29138D01*
Y33327D01*
X96809D01*
Y25964D01*
X100997D01*
X102710Y24252D01*
X100997Y22539D01*
X97689D01*
X97574Y23113D01*
X97183Y23699D01*
X95234Y25647D01*
X95119Y25725D01*
X95191Y25964D01*
X95191D01*
X95191Y25964D01*
Y33327D01*
X89329D01*
Y31359D01*
X82773D01*
X82537Y31929D01*
X81812Y32875D01*
X80866Y33601D01*
X79764Y34057D01*
X78583Y34212D01*
X77401Y34057D01*
X76299Y33601D01*
X75353Y32875D01*
X74628Y31929D01*
X74172Y30828D01*
X74016Y29646D01*
X74172Y28464D01*
X74628Y27362D01*
X75353Y26417D01*
X76299Y25691D01*
X77401Y25235D01*
X78583Y25079D01*
X79764Y25235D01*
X80866Y25691D01*
X81812Y26417D01*
X82537Y27362D01*
X82773Y27931D01*
X89329D01*
Y26177D01*
X83307D01*
X82616Y26039D01*
X82030Y25647D01*
X80242Y23859D01*
X79764Y24057D01*
X78583Y24212D01*
X77401Y24057D01*
X76299Y23600D01*
X75353Y22875D01*
X74628Y21929D01*
X74172Y20828D01*
X74016Y19646D01*
X74172Y18464D01*
X74628Y17362D01*
X75353Y16417D01*
X76299Y15691D01*
X77401Y15235D01*
X78583Y15079D01*
X79764Y15235D01*
X80866Y15691D01*
X81812Y16417D01*
X82537Y17362D01*
X82994Y18464D01*
X83149Y19646D01*
X82994Y20828D01*
X82796Y21305D01*
X84055Y22564D01*
X89329D01*
Y22539D01*
X89329D01*
Y20664D01*
X87795D01*
X87104Y20527D01*
X86518Y20135D01*
X80242Y13859D01*
X79764Y14057D01*
X78583Y14212D01*
X77401Y14057D01*
X76299Y13600D01*
X75353Y12875D01*
X74628Y11929D01*
X74172Y10828D01*
X74016Y9646D01*
X74172Y8464D01*
X74628Y7362D01*
X75353Y6417D01*
X76299Y5691D01*
X77401Y5235D01*
X78583Y5079D01*
X79764Y5235D01*
X80866Y5691D01*
X81812Y6417D01*
X82537Y7362D01*
X82994Y8464D01*
X83149Y9646D01*
X82994Y10828D01*
X82796Y11304D01*
X88543Y17052D01*
X89329D01*
Y15177D01*
X94144D01*
X94237Y14710D01*
X94628Y14124D01*
X95896Y12857D01*
X96482Y12465D01*
X97173Y12327D01*
X102205D01*
X102896Y12465D01*
X103482Y12857D01*
X109987Y19361D01*
X195986D01*
X196316Y18985D01*
X196275Y18681D01*
Y14484D01*
X193543D01*
Y5232D01*
X204567D01*
Y7079D01*
X226500D01*
X227220Y7173D01*
X227890Y7451D01*
X228466Y7893D01*
X228466Y7893D01*
X228466Y7893D01*
X238256Y17683D01*
X239085Y18237D01*
D01*
X239375Y18148D01*
Y18148D01*
X239571Y18017D01*
X239765Y17887D01*
X240073Y17826D01*
X240226Y17796D01*
X265568D01*
Y9803D01*
X265568Y9803D01*
X265568D01*
X265721Y9035D01*
X266156Y8384D01*
X266807Y7949D01*
X267575Y7796D01*
X296693D01*
Y5079D01*
X306142D01*
Y14528D01*
X296693D01*
Y11810D01*
X269582D01*
Y27955D01*
X270060Y28100D01*
X270081Y28069D01*
X270732Y27634D01*
X271500Y27481D01*
X297135D01*
X297291Y27106D01*
X298048Y26119D01*
X299035Y25361D01*
X300184Y24885D01*
X301417Y24723D01*
X302651Y24885D01*
X303800Y25361D01*
X304787Y26119D01*
X305544Y27106D01*
X306020Y28255D01*
X306183Y29488D01*
X306020Y30722D01*
X305544Y31871D01*
X304787Y32858D01*
X303800Y33615D01*
X302651Y34091D01*
X301417Y34253D01*
X300184Y34091D01*
X299035Y33615D01*
X298048Y32858D01*
X297291Y31871D01*
X297135Y31495D01*
X273507D01*
Y55949D01*
X273907Y56471D01*
X274185Y57141D01*
X274280Y57861D01*
X274185Y58580D01*
X273907Y59250D01*
X273465Y59826D01*
X272890Y60268D01*
X272219Y60546D01*
X271500Y60640D01*
X270781Y60546D01*
X270110Y60268D01*
X270030Y60207D01*
X269582Y60428D01*
Y115351D01*
X343532D01*
X344300Y115504D01*
X344951Y115939D01*
X345386Y116590D01*
X345539Y117358D01*
Y120343D01*
X348059D01*
Y122864D01*
X356137D01*
Y120343D01*
X365192D01*
Y129398D01*
X356137D01*
Y126878D01*
X348059D01*
Y129398D01*
X339004D01*
Y120343D01*
X341525D01*
Y119365D01*
X269582D01*
Y130962D01*
X271734Y133114D01*
X272169Y133765D01*
X272322Y134533D01*
Y142418D01*
X272169Y143186D01*
X271734Y143837D01*
X269152Y146419D01*
X268501Y146854D01*
X267733Y147007D01*
X253680D01*
X252912Y146854D01*
X252261Y146419D01*
X250149Y144307D01*
X249676Y144468D01*
X249593Y145094D01*
X249117Y146243D01*
X248360Y147230D01*
X247373Y147987D01*
X247185Y148065D01*
X247283Y148556D01*
X282487D01*
X282708Y148107D01*
X282045Y147244D01*
X281589Y146143D01*
X281537Y145748D01*
X290463D01*
X290411Y146143D01*
X289955Y147244D01*
X289292Y148107D01*
X289513Y148556D01*
X292487D01*
X292708Y148107D01*
X292045Y147244D01*
X291589Y146143D01*
X291537Y145748D01*
X300463D01*
X300411Y146143D01*
X299955Y147244D01*
X299292Y148107D01*
X299514Y148556D01*
X302616D01*
X302771Y148100D01*
X302045Y147154D01*
X301589Y146053D01*
X301433Y144871D01*
X301589Y143689D01*
X302045Y142588D01*
X302771Y141642D01*
X303717Y140916D01*
X304818Y140460D01*
X306000Y140304D01*
X307182Y140460D01*
X308283Y140916D01*
X309229Y141642D01*
X309955Y142588D01*
X310411Y143689D01*
X310567Y144871D01*
X310411Y146053D01*
X309955Y147154D01*
X309229Y148100D01*
X309384Y148556D01*
X312616D01*
X312771Y148100D01*
X312045Y147154D01*
X311589Y146053D01*
X311433Y144871D01*
X311589Y143689D01*
X312045Y142588D01*
X312771Y141642D01*
X313717Y140916D01*
X314818Y140460D01*
X316000Y140304D01*
X317182Y140460D01*
X318283Y140916D01*
X319229Y141642D01*
X319955Y142588D01*
X320411Y143689D01*
X320567Y144871D01*
X320411Y146053D01*
X319955Y147154D01*
X319229Y148100D01*
X319384Y148556D01*
X322486D01*
X322708Y148107D01*
X322045Y147244D01*
X321589Y146143D01*
X321537Y145748D01*
X330463D01*
X330411Y146143D01*
X329955Y147244D01*
X329292Y148107D01*
X329514Y148556D01*
X340148D01*
X340303Y148100D01*
X339577Y147154D01*
X339121Y146053D01*
X339069Y145658D01*
X347995D01*
X347943Y146053D01*
X347486Y147154D01*
X346761Y148100D01*
X346916Y148556D01*
X357280D01*
X357435Y148100D01*
X356709Y147154D01*
X356253Y146053D01*
X356201Y145658D01*
X365127D01*
X365075Y146053D01*
X364619Y147154D01*
X363893Y148100D01*
X364048Y148556D01*
X398268D01*
X398349Y148572D01*
X400577Y148397D01*
D02*
G37*
G36*
X-18268Y148556D02*
X-866D01*
Y145724D01*
X8189D01*
Y148556D01*
X15000D01*
Y145787D01*
X24055D01*
Y148556D01*
X32112D01*
X32267Y148100D01*
X31541Y147154D01*
X31085Y146053D01*
X31033Y145658D01*
X39959D01*
X39907Y146053D01*
X39451Y147154D01*
X38725Y148100D01*
X38880Y148556D01*
X42112D01*
X42267Y148100D01*
X41541Y147154D01*
X41085Y146053D01*
X41033Y145658D01*
X49959D01*
X49907Y146053D01*
X49451Y147154D01*
X48725Y148100D01*
X48880Y148556D01*
X52112D01*
X52267Y148100D01*
X51541Y147154D01*
X51085Y146053D01*
X51033Y145658D01*
X59959D01*
X59907Y146053D01*
X59451Y147154D01*
X58725Y148100D01*
X58880Y148556D01*
X74115D01*
Y142080D01*
X82776D01*
Y148556D01*
X113415D01*
Y142080D01*
X122076D01*
Y148556D01*
X132699D01*
X132796Y148065D01*
X132608Y147987D01*
X131621Y147230D01*
X130864Y146243D01*
X130388Y145094D01*
X130225Y143861D01*
X130388Y142627D01*
X130864Y141478D01*
X131621Y140491D01*
X132608Y139734D01*
X133757Y139258D01*
X134991Y139095D01*
X136224Y139258D01*
X137373Y139734D01*
X138360Y140491D01*
X139117Y141478D01*
X139593Y142627D01*
X139741Y143745D01*
X140241D01*
X140388Y142627D01*
X140864Y141478D01*
X141621Y140491D01*
X142608Y139734D01*
X143757Y139258D01*
X144991Y139095D01*
X146224Y139258D01*
X147373Y139734D01*
X148360Y140491D01*
X149117Y141478D01*
X149593Y142627D01*
X149741Y143745D01*
X150241D01*
X150388Y142627D01*
X150864Y141478D01*
X151621Y140491D01*
X152608Y139734D01*
X153757Y139258D01*
X154991Y139095D01*
X156224Y139258D01*
X157373Y139734D01*
X158360Y140491D01*
X159117Y141478D01*
X159593Y142627D01*
X159741Y143745D01*
X160241D01*
X160388Y142627D01*
X160864Y141478D01*
X161621Y140491D01*
X162608Y139734D01*
X163757Y139258D01*
X164991Y139095D01*
X166224Y139258D01*
X167373Y139734D01*
X168360Y140491D01*
X169117Y141478D01*
X169593Y142627D01*
X169741Y143745D01*
X170241D01*
X170388Y142627D01*
X170864Y141478D01*
X171621Y140491D01*
X172608Y139734D01*
X173757Y139258D01*
X174991Y139095D01*
X176224Y139258D01*
X176354Y139312D01*
X176632Y138896D01*
X158797Y121061D01*
X158275Y120280D01*
X158091Y119358D01*
Y118609D01*
X156181D01*
Y119132D01*
X148819D01*
Y118609D01*
X146180D01*
Y119131D01*
X138818D01*
Y113269D01*
X146180D01*
Y113792D01*
X148819D01*
Y113270D01*
X156181D01*
Y113792D01*
X160500D01*
X161422Y113976D01*
X161659Y114134D01*
X162293D01*
Y110787D01*
X161287D01*
Y108721D01*
Y106653D01*
X162293D01*
Y100768D01*
X157350D01*
Y100708D01*
X156180D01*
Y101632D01*
X148818D01*
Y100708D01*
X146180D01*
Y101632D01*
X138818D01*
Y100909D01*
X138208D01*
Y128000D01*
X138040Y128845D01*
X137561Y129561D01*
X136845Y130040D01*
X136000Y130208D01*
X126950D01*
X126789Y130681D01*
X127052Y130883D01*
X127872Y131952D01*
X128388Y133197D01*
X128564Y134533D01*
X128388Y135869D01*
X127872Y137114D01*
X127052Y138183D01*
X125983Y139004D01*
X124738Y139519D01*
X123402Y139695D01*
X122065Y139519D01*
X120820Y139004D01*
X119751Y138183D01*
X118931Y137114D01*
X118415Y135869D01*
X118239Y134533D01*
X118415Y133197D01*
X118931Y131952D01*
X119751Y130883D01*
X120014Y130681D01*
X119853Y130208D01*
X58625D01*
X57780Y130040D01*
X57064Y129561D01*
X56902Y129398D01*
X50969D01*
Y127144D01*
X50024D01*
Y129398D01*
X40969D01*
Y127144D01*
X40024D01*
Y129398D01*
X30969D01*
Y127144D01*
X23540D01*
X23483Y127283D01*
X22757Y128229D01*
X21811Y128955D01*
X20710Y129411D01*
X19528Y129567D01*
X18346Y129411D01*
X17244Y128955D01*
X16299Y128229D01*
X15573Y127283D01*
X15515Y127144D01*
X7648D01*
X7616Y127220D01*
X6891Y128165D01*
X5945Y128891D01*
X4843Y129347D01*
X3662Y129503D01*
X2480Y129347D01*
X1378Y128891D01*
X433Y128165D01*
X-293Y127220D01*
X-750Y126118D01*
X-905Y124936D01*
X-750Y123754D01*
X-536Y123240D01*
X-28240Y88797D01*
X-29000Y88897D01*
X-30182Y88742D01*
X-31283Y88285D01*
X-32229Y87560D01*
X-32531Y87166D01*
X-33004Y87327D01*
Y133819D01*
X-33021Y133900D01*
X-32845Y136128D01*
X-32305Y138380D01*
X-31418Y140519D01*
X-30208Y142494D01*
X-28704Y144255D01*
X-26943Y145759D01*
X-24968Y146969D01*
X-22829Y147856D01*
X-20577Y148397D01*
X-18349Y148572D01*
X-18268Y148556D01*
D02*
G37*
G36*
X133792Y98701D02*
X133960Y97856D01*
X134439Y97140D01*
X135155Y96661D01*
X136000Y96493D01*
X138818D01*
Y95770D01*
X146180D01*
Y96693D01*
X148818D01*
Y95770D01*
X156180D01*
Y96693D01*
X157350D01*
Y96634D01*
X163650D01*
Y96694D01*
X164300D01*
X165068Y96846D01*
X165719Y97282D01*
X166154Y97933D01*
X166307Y98701D01*
Y110394D01*
X167596D01*
X168039Y110053D01*
X168710Y109775D01*
X169429Y109681D01*
X170149Y109775D01*
X170819Y110053D01*
X171263Y110394D01*
X172579D01*
Y111679D01*
X174320Y113421D01*
X176318D01*
Y113269D01*
X183680D01*
Y113421D01*
X184220D01*
Y101480D01*
X183681D01*
Y101632D01*
X176319D01*
Y101480D01*
X173169D01*
X172450Y101385D01*
X171779Y101108D01*
X171203Y100666D01*
X167565Y97028D01*
X166279D01*
Y92894D01*
X167596D01*
X168039Y92553D01*
X168710Y92276D01*
X169429Y92181D01*
X170149Y92276D01*
X170819Y92553D01*
X171263Y92894D01*
X172579D01*
Y94179D01*
X174320Y95921D01*
X176319D01*
Y95769D01*
X183681D01*
Y95921D01*
X184220D01*
Y83980D01*
X183681D01*
Y84131D01*
X176319D01*
Y83980D01*
X173169D01*
X172450Y83885D01*
X171779Y83608D01*
X171203Y83166D01*
X167565Y79528D01*
X166507D01*
Y85961D01*
X166354Y86729D01*
X165919Y87380D01*
X165268Y87815D01*
X164500Y87968D01*
X156180D01*
Y88289D01*
X156180D01*
Y90433D01*
X152499D01*
Y91220D01*
X151712D01*
Y94151D01*
X148818D01*
Y93629D01*
X146180D01*
Y94151D01*
X143287D01*
Y91220D01*
Y88289D01*
X146180D01*
Y88812D01*
X148818D01*
Y88289D01*
X150248D01*
X150469Y87841D01*
X150093Y87350D01*
X149815Y86680D01*
X149720Y85961D01*
X149815Y85241D01*
X150093Y84571D01*
X149876Y84132D01*
X148818D01*
Y83409D01*
X146181D01*
Y84131D01*
X138819D01*
Y83408D01*
X115532D01*
X114687Y83240D01*
X113970Y82762D01*
X113492Y82045D01*
X113324Y81200D01*
Y75645D01*
X112539D01*
Y96949D01*
X112939Y97471D01*
X113217Y98141D01*
X113311Y98861D01*
X113217Y99580D01*
X112939Y100250D01*
X112497Y100826D01*
X111922Y101268D01*
X111251Y101546D01*
X110532Y101640D01*
X109812Y101546D01*
X109142Y101268D01*
X108566Y100826D01*
X108124Y100250D01*
X108029Y100021D01*
X107539Y100118D01*
Y115600D01*
X107939Y116121D01*
X108217Y116792D01*
X108311Y117511D01*
X108217Y118230D01*
X107939Y118901D01*
X107497Y119477D01*
X106922Y119918D01*
X106251Y120196D01*
X105532Y120291D01*
X104812Y120196D01*
X104142Y119918D01*
X103566Y119477D01*
X103124Y118901D01*
X102847Y118230D01*
X102752Y117511D01*
X102847Y116792D01*
X103124Y116121D01*
X103524Y115600D01*
Y103518D01*
X103034Y103420D01*
X102939Y103650D01*
X102497Y104226D01*
X101921Y104668D01*
X101251Y104946D01*
X100532Y105040D01*
X99812Y104946D01*
X99142Y104668D01*
X98566Y104226D01*
X98124Y103650D01*
X98029Y103420D01*
X97539Y103518D01*
Y111600D01*
X97939Y112121D01*
X98217Y112792D01*
X98311Y113511D01*
X98217Y114231D01*
X97939Y114901D01*
X97497Y115477D01*
X96921Y115918D01*
X96251Y116196D01*
X95532Y116291D01*
X94812Y116196D01*
X94142Y115918D01*
X93566Y115477D01*
X93124Y114901D01*
X92847Y114231D01*
X92752Y113511D01*
X92847Y112792D01*
X93124Y112121D01*
X93524Y111600D01*
Y106418D01*
X93034Y106321D01*
X92939Y106551D01*
X92497Y107126D01*
X91922Y107568D01*
X91251Y107846D01*
X90532Y107940D01*
X89812Y107846D01*
X89142Y107568D01*
X88566Y107126D01*
X88124Y106551D01*
X88029Y106321D01*
X87539Y106418D01*
Y108100D01*
X87939Y108621D01*
X88217Y109292D01*
X88311Y110011D01*
X88217Y110731D01*
X87939Y111401D01*
X87497Y111977D01*
X86922Y112418D01*
X86251Y112696D01*
X85532Y112791D01*
X84812Y112696D01*
X84142Y112418D01*
X83566Y111977D01*
X83124Y111401D01*
X82847Y110731D01*
X82752Y110011D01*
X82847Y109292D01*
X83124Y108621D01*
X83525Y108100D01*
Y75645D01*
X81319D01*
Y71511D01*
Y67377D01*
X118288D01*
Y75645D01*
X117739D01*
Y78993D01*
X120386D01*
X120622Y78552D01*
X120406Y78229D01*
X120253Y77461D01*
Y69142D01*
X119329D01*
Y61779D01*
X121382D01*
X124829Y58333D01*
Y52780D01*
X130691D01*
Y60142D01*
X128696D01*
X127521Y61317D01*
X127712Y61779D01*
X128953D01*
Y65460D01*
X130528D01*
Y61779D01*
X132671D01*
Y69142D01*
X132149D01*
Y71312D01*
X134373D01*
X134472Y70815D01*
X133821Y70380D01*
X133386Y69729D01*
X133233Y68961D01*
Y60142D01*
X132309D01*
Y52780D01*
X137342D01*
X137420Y52590D01*
X137143Y52175D01*
X78774D01*
X78613Y52648D01*
X78746Y52750D01*
X79535Y53778D01*
X80031Y54975D01*
X80096Y55472D01*
X70376D01*
X70442Y54975D01*
X70938Y53778D01*
X71726Y52750D01*
X71859Y52648D01*
X71698Y52175D01*
X69246D01*
Y70011D01*
X69115Y70667D01*
X68744Y71223D01*
X68187Y71595D01*
X67532Y71725D01*
X45454D01*
Y75265D01*
X46222Y75583D01*
X47250Y76372D01*
X48039Y77400D01*
X48535Y78597D01*
X48704Y79882D01*
X48535Y81167D01*
X48039Y82364D01*
X47250Y83392D01*
X46222Y84181D01*
X45025Y84676D01*
X43740Y84846D01*
X42456Y84676D01*
X41258Y84181D01*
X40230Y83392D01*
X39441Y82364D01*
X38946Y81167D01*
X38776Y79882D01*
X38946Y78597D01*
X39441Y77400D01*
X40230Y76372D01*
X41258Y75583D01*
X42026Y75265D01*
Y70011D01*
X42157Y69355D01*
X41513Y68925D01*
X-21170D01*
X-24825Y72579D01*
X-24589Y73149D01*
X-24433Y74331D01*
X-24589Y75513D01*
X-25045Y76614D01*
X-25771Y77560D01*
X-26717Y78285D01*
X-27818Y78742D01*
X-29000Y78897D01*
X-30182Y78742D01*
X-31283Y78285D01*
X-32229Y77560D01*
X-32531Y77166D01*
X-33004Y77327D01*
Y81334D01*
X-32531Y81495D01*
X-32229Y81102D01*
X-31283Y80376D01*
X-30182Y79920D01*
X-29000Y79764D01*
X-27818Y79920D01*
X-26717Y80376D01*
X-25771Y81102D01*
X-25045Y82047D01*
X-24589Y83149D01*
X-24433Y84331D01*
X-24589Y85513D01*
X-24802Y86027D01*
X2902Y120470D01*
X3662Y120370D01*
X4843Y120525D01*
X5945Y120982D01*
X6891Y121707D01*
X7616Y122653D01*
X7648Y122729D01*
X15568D01*
X15573Y122717D01*
X16299Y121771D01*
X17244Y121045D01*
X18346Y120589D01*
X19528Y120433D01*
X20710Y120589D01*
X21811Y121045D01*
X22757Y121771D01*
X23483Y122717D01*
X23487Y122729D01*
X30969D01*
Y120343D01*
X40024D01*
Y122729D01*
X40969D01*
Y120343D01*
X50024D01*
Y122729D01*
X50969D01*
Y120343D01*
X60024D01*
Y125792D01*
X64339D01*
Y118535D01*
X68414D01*
X68695Y117858D01*
X69515Y116788D01*
X70584Y115968D01*
X71829Y115452D01*
X73165Y115276D01*
X74502Y115452D01*
X75747Y115968D01*
X76816Y116788D01*
X77636Y117858D01*
X78152Y119103D01*
X78328Y120439D01*
X78152Y121775D01*
X77636Y123020D01*
X76816Y124089D01*
X75747Y124909D01*
X74799Y125302D01*
X74897Y125792D01*
X121425D01*
Y118535D01*
X131661D01*
Y125792D01*
X133792D01*
Y98701D01*
D02*
G37*
G36*
X262993Y62192D02*
X262134Y61333D01*
X261672Y61524D01*
Y61673D01*
X255809D01*
Y58779D01*
X256779D01*
X257057Y58363D01*
X256815Y57780D01*
X256720Y57061D01*
X256815Y56341D01*
X257093Y55671D01*
X257535Y55095D01*
X258110Y54653D01*
X258781Y54376D01*
X259500Y54281D01*
X260220Y54376D01*
X260890Y54653D01*
X261466Y55095D01*
X261638Y55320D01*
X262119Y55641D01*
X265106Y58628D01*
X265568Y58437D01*
Y19000D01*
X240432D01*
X240154Y19416D01*
X240271Y19698D01*
X253226Y32653D01*
X253668Y33229D01*
X253945Y33899D01*
X254040Y34618D01*
Y58779D01*
X254191D01*
Y66141D01*
X254040D01*
Y76280D01*
X254191D01*
Y83642D01*
X248694D01*
Y89417D01*
X249095D01*
Y89417D01*
X250472D01*
Y92961D01*
X251260D01*
Y93748D01*
X253425D01*
Y95371D01*
X256575D01*
Y89417D01*
X256733D01*
Y83642D01*
X255809D01*
Y76280D01*
X261671D01*
Y83642D01*
X260747D01*
Y89417D01*
X260906D01*
Y96504D01*
X260906D01*
X260594Y96610D01*
X260594D01*
X260747Y97378D01*
Y111280D01*
X261671D01*
Y118642D01*
X260948D01*
Y119445D01*
X260780Y120290D01*
X260301Y121006D01*
X259585Y121485D01*
X258740Y121653D01*
X241671D01*
Y123976D01*
X235809D01*
Y121653D01*
X234708D01*
Y124764D01*
X234540Y125608D01*
X234191Y126130D01*
Y128445D01*
X228329D01*
Y126971D01*
X225606D01*
X224801Y127077D01*
X223872Y127462D01*
X223136Y128027D01*
X223089Y128089D01*
X223092Y128092D01*
X223084Y128098D01*
Y128098D01*
X223084Y128098D01*
X223028Y128135D01*
X222184Y128783D01*
X221130Y129219D01*
X220000Y129368D01*
X218869Y129219D01*
X217816Y128783D01*
X216911Y128089D01*
X216217Y127184D01*
X215781Y126130D01*
X215632Y125000D01*
X215781Y123870D01*
X216217Y122816D01*
X216911Y121911D01*
X217816Y121217D01*
X218869Y120781D01*
X220000Y120632D01*
X221130Y120781D01*
X222184Y121217D01*
X223029Y121865D01*
X223092Y121908D01*
X223089Y121911D01*
X223146Y121985D01*
X223796Y122420D01*
X224478Y122556D01*
X228329D01*
Y121082D01*
X230292D01*
Y116974D01*
X229922Y116639D01*
X229764Y116654D01*
Y118520D01*
X225236D01*
Y109071D01*
X229764D01*
Y110936D01*
X230261Y110985D01*
X230368Y110451D01*
X230868Y109703D01*
X231617Y109202D01*
X232500Y109027D01*
X233383Y109202D01*
X234132Y109703D01*
X234632Y110451D01*
X234750Y111042D01*
X235250D01*
X235368Y110451D01*
X235868Y109703D01*
X236617Y109202D01*
X237500Y109027D01*
X238383Y109202D01*
X239132Y109703D01*
X239632Y110451D01*
X239750Y111042D01*
X240250D01*
X240368Y110451D01*
X240868Y109703D01*
X241617Y109202D01*
X241713Y109183D01*
Y113795D01*
X242500D01*
Y114583D01*
X244808D01*
Y116256D01*
X244690Y116851D01*
X245007Y117237D01*
X248328D01*
Y111280D01*
X249546D01*
Y103675D01*
X244214D01*
Y105661D01*
X244084Y106317D01*
X243712Y106873D01*
X243156Y107244D01*
X242500Y107375D01*
X222110D01*
X211714Y117771D01*
Y118603D01*
X211720D01*
X211714Y118666D01*
Y118779D01*
X211851Y119821D01*
X212321Y120956D01*
X213005Y121847D01*
X213089Y121911D01*
X213783Y122816D01*
X214219Y123870D01*
X214368Y125000D01*
X214219Y126130D01*
X213783Y127184D01*
X213089Y128089D01*
X212184Y128783D01*
X211130Y129219D01*
X210000Y129368D01*
X208870Y129219D01*
X207816Y128783D01*
X206911Y128089D01*
X206217Y127184D01*
X205781Y126130D01*
X205632Y125000D01*
X205781Y123870D01*
X206217Y122816D01*
X206911Y121911D01*
X206995Y121847D01*
X207679Y120956D01*
X208149Y119821D01*
X208246Y119082D01*
X207798Y118861D01*
X206163Y120496D01*
X205453Y121361D01*
X204848Y122493D01*
X204475Y123722D01*
X204357Y124918D01*
X204368Y125000D01*
X204219Y126130D01*
X203783Y127184D01*
X203089Y128089D01*
X202184Y128783D01*
X201131Y129219D01*
X200000Y129368D01*
X198870Y129219D01*
X197816Y128783D01*
X196911Y128089D01*
X196217Y127184D01*
X195781Y126130D01*
X195632Y125000D01*
X195781Y123870D01*
X196217Y122816D01*
X196520Y122421D01*
X196299Y121973D01*
X193701D01*
X193480Y122421D01*
X193783Y122816D01*
X194219Y123870D01*
X194264Y124213D01*
X190000D01*
Y125000D01*
X189213D01*
Y129264D01*
X189034Y129241D01*
X188658Y129571D01*
Y130980D01*
X189490Y131812D01*
X242499D01*
X243267Y131965D01*
X243919Y132400D01*
X245338Y133819D01*
X262993D01*
Y62192D01*
D02*
G37*
G36*
X240368Y64451D02*
X240868Y63702D01*
X241617Y63202D01*
X242500Y63026D01*
X243383Y63202D01*
X244132Y63702D01*
X244632Y64451D01*
X244745Y65016D01*
X248329D01*
Y58779D01*
X248481D01*
Y35770D01*
X231711Y19000D01*
X203958D01*
X203767Y19462D01*
X226801Y42496D01*
X227500Y42357D01*
X228383Y42533D01*
X229132Y43033D01*
X229632Y43782D01*
X229750Y44373D01*
X230250D01*
X230368Y43782D01*
X230493Y43595D01*
Y42790D01*
X229840Y42137D01*
X229405Y41486D01*
X229253Y40718D01*
Y38642D01*
X228328D01*
Y35748D01*
X234191D01*
Y38642D01*
X233267D01*
Y39887D01*
X233919Y40539D01*
X234354Y41190D01*
X234507Y41958D01*
Y43595D01*
X234632Y43782D01*
X234750Y44373D01*
X235250D01*
X235368Y43782D01*
X235493Y43595D01*
Y41661D01*
X235646Y40893D01*
X236081Y40241D01*
X236733Y39590D01*
Y38642D01*
X235809D01*
Y31280D01*
X241671D01*
Y38642D01*
X240747D01*
Y40421D01*
X240594Y41189D01*
X240159Y41840D01*
X240059Y41940D01*
X240251Y42402D01*
X241713D01*
Y47126D01*
Y51850D01*
X240236D01*
Y49985D01*
X239739Y49936D01*
X239632Y50470D01*
X239132Y51219D01*
X238383Y51719D01*
X237500Y51895D01*
X236617Y51719D01*
X235868Y51219D01*
X235368Y50470D01*
X235250Y49879D01*
X234750D01*
X234632Y50470D01*
X234132Y51219D01*
X233383Y51719D01*
X233287Y51738D01*
Y47126D01*
X231713D01*
Y51738D01*
X231617Y51719D01*
X230868Y51219D01*
X230368Y50470D01*
X230250Y49879D01*
X229750D01*
X229632Y50470D01*
X229132Y51219D01*
X228383Y51719D01*
X227500Y51895D01*
X226797Y51755D01*
X226562Y52196D01*
X237410Y63044D01*
X237500Y63026D01*
X238383Y63202D01*
X239132Y63702D01*
X239632Y64451D01*
X239750Y65042D01*
X240250D01*
X240368Y64451D01*
D02*
G37*
G36*
X230368D02*
X230488Y64271D01*
X219584Y53366D01*
X219212Y52810D01*
X219082Y52154D01*
Y49972D01*
X196082Y26972D01*
X182586D01*
X182425Y27446D01*
X182828Y27755D01*
X182828Y27755D01*
X182828Y27755D01*
X184213Y29140D01*
Y33071D01*
X180281D01*
X179711Y32500D01*
X172121D01*
Y39224D01*
X172029Y39685D01*
X171768Y40076D01*
X171377Y40337D01*
X171101Y40392D01*
Y42658D01*
X172025D01*
Y47265D01*
X174331Y51000D01*
X179089D01*
X186476Y58388D01*
X187000Y58319D01*
X190038D01*
Y32317D01*
X190129Y31857D01*
X190390Y31466D01*
X190781Y31205D01*
X191242Y31113D01*
X191400D01*
X191771Y30629D01*
X192717Y29903D01*
X193818Y29447D01*
X195000Y29292D01*
X196182Y29447D01*
X197283Y29903D01*
X198229Y30629D01*
X198600Y31113D01*
X198995D01*
X199455Y31205D01*
X199846Y31466D01*
X200107Y31857D01*
X200199Y32317D01*
Y58319D01*
X210819D01*
Y58167D01*
X218181D01*
Y58319D01*
X220803D01*
X221522Y58413D01*
X222193Y58691D01*
X222769Y59133D01*
X226801Y63165D01*
X227500Y63026D01*
X228383Y63202D01*
X229132Y63702D01*
X229632Y64451D01*
X229750Y65042D01*
X230250D01*
X230368Y64451D01*
D02*
G37*
G36*
X-32229Y71102D02*
X-31283Y70376D01*
X-30182Y69920D01*
X-29000Y69764D01*
X-27818Y69920D01*
X-27249Y70155D01*
X-23092Y65999D01*
X-22536Y65627D01*
X-22427Y65606D01*
X-21880Y65497D01*
X10530D01*
Y60877D01*
X9762Y60559D01*
X8734Y59770D01*
X7945Y58742D01*
X7449Y57545D01*
X7280Y56260D01*
X7449Y54975D01*
X7945Y53778D01*
X8734Y52750D01*
X9762Y51961D01*
X10959Y51465D01*
X12244Y51296D01*
X13529Y51465D01*
X14726Y51961D01*
X15754Y52750D01*
X16543Y53778D01*
X17039Y54975D01*
X17208Y56260D01*
X17039Y57545D01*
X16543Y58742D01*
X15754Y59770D01*
X14726Y60559D01*
X13958Y60877D01*
Y65497D01*
X63418D01*
Y48361D01*
X63457Y48161D01*
X63140Y47775D01*
X59234D01*
Y51339D01*
X62441D01*
Y61181D01*
X52598D01*
Y51339D01*
X55806D01*
Y47775D01*
X-10020D01*
X-20427Y58182D01*
X-20668Y58543D01*
X-21029Y58784D01*
X-24825Y62579D01*
X-24589Y63149D01*
X-24433Y64331D01*
X-24589Y65513D01*
X-25045Y66614D01*
X-25771Y67560D01*
X-26717Y68286D01*
X-27818Y68742D01*
X-29000Y68897D01*
X-30182Y68742D01*
X-31283Y68286D01*
X-32229Y67560D01*
X-32531Y67166D01*
X-33004Y67327D01*
Y71334D01*
X-32531Y71495D01*
X-32229Y71102D01*
D02*
G37*
G36*
X169344Y50563D02*
X169008Y50020D01*
X166163D01*
Y42658D01*
X167087D01*
Y40429D01*
X151000D01*
Y50093D01*
X151000Y50093D01*
X151000Y50093D01*
Y50093D01*
Y51000D01*
X169100D01*
X169344Y50563D01*
D02*
G37*
%LPC*%
G36*
X330463Y144173D02*
X326787D01*
Y140498D01*
X327182Y140550D01*
X328283Y141006D01*
X329229Y141732D01*
X329955Y142677D01*
X330411Y143779D01*
X330463Y144173D01*
D02*
G37*
G36*
X325213D02*
X321537D01*
X321589Y143779D01*
X322045Y142677D01*
X322771Y141732D01*
X323717Y141006D01*
X324818Y140550D01*
X325213Y140498D01*
Y144173D01*
D02*
G37*
G36*
X300463D02*
X296787D01*
Y140498D01*
X297182Y140550D01*
X298283Y141006D01*
X299229Y141732D01*
X299955Y142677D01*
X300411Y143779D01*
X300463Y144173D01*
D02*
G37*
G36*
X295213D02*
X291537D01*
X291589Y143779D01*
X292045Y142677D01*
X292771Y141732D01*
X293717Y141006D01*
X294818Y140550D01*
X295213Y140498D01*
Y144173D01*
D02*
G37*
G36*
X290463D02*
X286787D01*
Y140498D01*
X287182Y140550D01*
X288283Y141006D01*
X289229Y141732D01*
X289955Y142677D01*
X290411Y143779D01*
X290463Y144173D01*
D02*
G37*
G36*
X285213D02*
X281537D01*
X281589Y143779D01*
X282045Y142677D01*
X282771Y141732D01*
X283717Y141006D01*
X284818Y140550D01*
X285213Y140498D01*
Y144173D01*
D02*
G37*
G36*
X365127Y144083D02*
X361452D01*
Y140408D01*
X361846Y140460D01*
X362948Y140916D01*
X363893Y141642D01*
X364619Y142588D01*
X365075Y143689D01*
X365127Y144083D01*
D02*
G37*
G36*
X359877D02*
X356201D01*
X356253Y143689D01*
X356709Y142588D01*
X357435Y141642D01*
X358381Y140916D01*
X359482Y140460D01*
X359877Y140408D01*
Y144083D01*
D02*
G37*
G36*
X347995D02*
X344319D01*
Y140408D01*
X344714Y140460D01*
X345815Y140916D01*
X346761Y141642D01*
X347486Y142588D01*
X347943Y143689D01*
X347995Y144083D01*
D02*
G37*
G36*
X342744D02*
X339069D01*
X339121Y143689D01*
X339577Y142588D01*
X340303Y141642D01*
X341248Y140916D01*
X342350Y140460D01*
X342744Y140408D01*
Y144083D01*
D02*
G37*
G36*
X316787Y139334D02*
Y135658D01*
X320463D01*
X320411Y136053D01*
X319955Y137154D01*
X319229Y138100D01*
X318283Y138826D01*
X317182Y139282D01*
X316787Y139334D01*
D02*
G37*
G36*
X315213D02*
X314818Y139282D01*
X313717Y138826D01*
X312771Y138100D01*
X312045Y137154D01*
X311589Y136053D01*
X311537Y135658D01*
X315213D01*
Y139334D01*
D02*
G37*
G36*
X306787D02*
Y135658D01*
X310463D01*
X310411Y136053D01*
X309955Y137154D01*
X309229Y138100D01*
X308283Y138826D01*
X307182Y139282D01*
X306787Y139334D01*
D02*
G37*
G36*
X305213D02*
X304818Y139282D01*
X303717Y138826D01*
X302771Y138100D01*
X302045Y137154D01*
X301589Y136053D01*
X301537Y135658D01*
X305213D01*
Y139334D01*
D02*
G37*
G36*
X330528Y139488D02*
X321473D01*
Y130433D01*
X330528D01*
Y139488D01*
D02*
G37*
G36*
X300528D02*
X291473D01*
Y130433D01*
X300528D01*
Y139488D01*
D02*
G37*
G36*
X290528D02*
X281472D01*
Y130433D01*
X290528D01*
Y139488D01*
D02*
G37*
G36*
X320463Y134083D02*
X316787D01*
Y130408D01*
X317182Y130460D01*
X318283Y130916D01*
X319229Y131642D01*
X319955Y132588D01*
X320411Y133689D01*
X320463Y134083D01*
D02*
G37*
G36*
X315213D02*
X311537D01*
X311589Y133689D01*
X312045Y132588D01*
X312771Y131642D01*
X313717Y130916D01*
X314818Y130460D01*
X315213Y130408D01*
Y134083D01*
D02*
G37*
G36*
X310463D02*
X306787D01*
Y130408D01*
X307182Y130460D01*
X308283Y130916D01*
X309229Y131642D01*
X309955Y132588D01*
X310411Y133689D01*
X310463Y134083D01*
D02*
G37*
G36*
X305213D02*
X301537D01*
X301589Y133689D01*
X302045Y132588D01*
X302771Y131642D01*
X303717Y130916D01*
X304818Y130460D01*
X305213Y130408D01*
Y134083D01*
D02*
G37*
G36*
X360664Y139437D02*
X359482Y139282D01*
X358381Y138826D01*
X357435Y138100D01*
X356709Y137154D01*
X356253Y136053D01*
X356098Y134871D01*
X356253Y133689D01*
X356709Y132588D01*
X357435Y131642D01*
X358381Y130916D01*
X359482Y130460D01*
X360664Y130304D01*
X361846Y130460D01*
X362948Y130916D01*
X363893Y131642D01*
X364619Y132588D01*
X365075Y133689D01*
X365231Y134871D01*
X365075Y136053D01*
X364619Y137154D01*
X363893Y138100D01*
X362948Y138826D01*
X361846Y139282D01*
X360664Y139437D01*
D02*
G37*
G36*
X343532D02*
X342350Y139282D01*
X341248Y138826D01*
X340303Y138100D01*
X339577Y137154D01*
X339121Y136053D01*
X338965Y134871D01*
X339121Y133689D01*
X339577Y132588D01*
X340303Y131642D01*
X341248Y130916D01*
X342350Y130460D01*
X343532Y130304D01*
X344714Y130460D01*
X345815Y130916D01*
X346761Y131642D01*
X347486Y132588D01*
X347943Y133689D01*
X348098Y134871D01*
X347943Y136053D01*
X347486Y137154D01*
X346761Y138100D01*
X345815Y138826D01*
X344714Y139282D01*
X343532Y139437D01*
D02*
G37*
G36*
X398268Y145035D02*
X396513Y144896D01*
X394802Y144486D01*
X393176Y143812D01*
X391675Y142893D01*
X390337Y141750D01*
X389194Y140411D01*
X388275Y138911D01*
X387601Y137285D01*
X387190Y135573D01*
X387052Y133819D01*
X387190Y132064D01*
X387601Y130353D01*
X388275Y128727D01*
X389194Y127226D01*
X390337Y125888D01*
X391675Y124745D01*
X393176Y123826D01*
X394802Y123152D01*
X396513Y122741D01*
X398268Y122603D01*
X400022Y122741D01*
X401734Y123152D01*
X403360Y123826D01*
X404860Y124745D01*
X406199Y125888D01*
X407341Y127226D01*
X408261Y128727D01*
X408935Y130353D01*
X409345Y132064D01*
X409483Y133819D01*
X409345Y135573D01*
X408935Y137285D01*
X408261Y138911D01*
X407341Y140411D01*
X406199Y141750D01*
X404860Y142893D01*
X403360Y143812D01*
X401734Y144486D01*
X400022Y144896D01*
X398268Y145035D01*
D02*
G37*
G36*
X320528Y129398D02*
X311473D01*
Y120343D01*
X320528D01*
Y129398D01*
D02*
G37*
G36*
X310528D02*
X301472D01*
Y120343D01*
X310528D01*
Y129398D01*
D02*
G37*
G36*
X353976Y111617D02*
X352692Y111448D01*
X351495Y110952D01*
X350466Y110163D01*
X349678Y109135D01*
X349182Y107938D01*
X349013Y106654D01*
X349182Y105369D01*
X349678Y104172D01*
X350466Y103144D01*
X351495Y102355D01*
X352692Y101859D01*
X353976Y101690D01*
X355261Y101859D01*
X356458Y102355D01*
X357486Y103144D01*
X358275Y104172D01*
X358771Y105369D01*
X358940Y106654D01*
X358771Y107938D01*
X358275Y109135D01*
X357486Y110163D01*
X356458Y110952D01*
X355261Y111448D01*
X353976Y111617D01*
D02*
G37*
G36*
X336260D02*
X334975Y111448D01*
X333778Y110952D01*
X332750Y110163D01*
X331961Y109135D01*
X331465Y107938D01*
X331296Y106654D01*
X331465Y105369D01*
X331961Y104172D01*
X332750Y103144D01*
X333778Y102355D01*
X334975Y101859D01*
X336260Y101690D01*
X337544Y101859D01*
X338742Y102355D01*
X339770Y103144D01*
X340559Y104172D01*
X341054Y105369D01*
X341224Y106654D01*
X341054Y107938D01*
X340559Y109135D01*
X339770Y110163D01*
X338742Y110952D01*
X337544Y111448D01*
X336260Y111617D01*
D02*
G37*
G36*
X386260Y87892D02*
Y83819D01*
X390333D01*
X390267Y84316D01*
X389771Y85513D01*
X388982Y86541D01*
X387954Y87330D01*
X386757Y87826D01*
X386260Y87892D01*
D02*
G37*
G36*
X384685D02*
X384188Y87826D01*
X382991Y87330D01*
X381962Y86541D01*
X381174Y85513D01*
X380678Y84316D01*
X380612Y83819D01*
X384685D01*
Y87892D01*
D02*
G37*
G36*
X305551D02*
Y83819D01*
X309624D01*
X309558Y84316D01*
X309063Y85513D01*
X308274Y86541D01*
X307246Y87330D01*
X306048Y87826D01*
X305551Y87892D01*
D02*
G37*
G36*
X303976D02*
X303479Y87826D01*
X302282Y87330D01*
X301254Y86541D01*
X300465Y85513D01*
X299969Y84316D01*
X299904Y83819D01*
X303976D01*
Y87892D01*
D02*
G37*
G36*
X341181Y84803D02*
X337047D01*
Y80669D01*
X341181D01*
Y84803D01*
D02*
G37*
G36*
X335472D02*
X331339D01*
Y80669D01*
X335472D01*
Y84803D01*
D02*
G37*
G36*
X390333Y82244D02*
X386260D01*
Y78171D01*
X386757Y78237D01*
X387954Y78733D01*
X388982Y79522D01*
X389771Y80550D01*
X390267Y81747D01*
X390333Y82244D01*
D02*
G37*
G36*
X384685D02*
X380612D01*
X380678Y81747D01*
X381174Y80550D01*
X381962Y79522D01*
X382991Y78733D01*
X384188Y78237D01*
X384685Y78171D01*
Y82244D01*
D02*
G37*
G36*
X309624D02*
X305551D01*
Y78171D01*
X306048Y78237D01*
X307246Y78733D01*
X308274Y79522D01*
X309063Y80550D01*
X309558Y81747D01*
X309624Y82244D01*
D02*
G37*
G36*
X303976D02*
X299904D01*
X299969Y81747D01*
X300465Y80550D01*
X301254Y79522D01*
X302282Y78733D01*
X303479Y78237D01*
X303976Y78171D01*
Y82244D01*
D02*
G37*
G36*
X341181Y79094D02*
X331339D01*
Y74961D01*
X341181D01*
Y79094D01*
D02*
G37*
G36*
X367756Y87995D02*
X366471Y87826D01*
X365274Y87330D01*
X364246Y86541D01*
X363457Y85513D01*
X362961Y84316D01*
X362792Y83031D01*
X362961Y81747D01*
X363457Y80550D01*
X364246Y79522D01*
X365274Y78733D01*
X366060Y78407D01*
Y72242D01*
X357023D01*
X355672Y72511D01*
D01*
Y75258D01*
X356458Y75583D01*
X357486Y76372D01*
X358275Y77400D01*
X358771Y78597D01*
X358940Y79882D01*
X358771Y81167D01*
X358275Y82364D01*
X357486Y83392D01*
X356458Y84181D01*
X355261Y84676D01*
X353976Y84846D01*
X352692Y84676D01*
X351495Y84181D01*
X350466Y83392D01*
X349678Y82364D01*
X349182Y81167D01*
X349013Y79882D01*
X349182Y78597D01*
X349678Y77400D01*
X350466Y76372D01*
X351495Y75583D01*
X352280Y75258D01*
Y74207D01*
X342463D01*
X342463Y74207D01*
X324426D01*
X324176Y74511D01*
Y78407D01*
X324962Y78733D01*
X325990Y79522D01*
X326779Y80550D01*
X327275Y81747D01*
X327444Y83031D01*
X327275Y84316D01*
X326779Y85513D01*
X325990Y86541D01*
X324962Y87330D01*
X323765Y87826D01*
X322480Y87995D01*
X321196Y87826D01*
X319999Y87330D01*
X318970Y86541D01*
X318182Y85513D01*
X317686Y84316D01*
X317517Y83031D01*
X317686Y81747D01*
X318182Y80550D01*
X318970Y79522D01*
X319999Y78733D01*
X320784Y78407D01*
Y76207D01*
X287260D01*
X287185Y76780D01*
X286907Y77451D01*
X286466Y78026D01*
X285890Y78468D01*
X285220Y78746D01*
X284500Y78840D01*
X283781Y78746D01*
X283110Y78468D01*
X282535Y78026D01*
X282093Y77451D01*
X281815Y76780D01*
X281720Y76061D01*
X281815Y75341D01*
X282093Y74671D01*
X282104Y74655D01*
X281883Y74207D01*
X280450D01*
X279801Y74078D01*
X279251Y73710D01*
X275237Y69696D01*
X274900Y69740D01*
X274181Y69646D01*
X273510Y69368D01*
X272935Y68926D01*
X272493Y68350D01*
X272215Y67680D01*
X272120Y66961D01*
X272215Y66241D01*
X272493Y65571D01*
X272935Y64995D01*
X273510Y64553D01*
X274181Y64276D01*
X274900Y64181D01*
X275620Y64276D01*
X276290Y64553D01*
X276866Y64995D01*
X277307Y65571D01*
X277585Y66241D01*
X277680Y66961D01*
X277635Y67298D01*
X278040Y67702D01*
X278530Y67605D01*
X278793Y66971D01*
X279235Y66395D01*
X279281Y66360D01*
Y65860D01*
X279235Y65824D01*
X278793Y65248D01*
X278515Y64578D01*
X278420Y63858D01*
X278515Y63139D01*
X278793Y62468D01*
X279235Y61893D01*
X279810Y61451D01*
X280481Y61173D01*
X281200Y61079D01*
X281920Y61173D01*
X282590Y61451D01*
X283166Y61893D01*
X283607Y62468D01*
X283885Y63139D01*
X283980Y63858D01*
X283935Y64195D01*
X286626Y66886D01*
X352280D01*
Y64034D01*
X351495Y63708D01*
X350466Y62919D01*
X349678Y61891D01*
X349182Y60694D01*
X349013Y59409D01*
X349182Y58125D01*
X349678Y56928D01*
X350466Y55900D01*
X351495Y55111D01*
X352692Y54615D01*
X353976Y54446D01*
X355261Y54615D01*
X356458Y55111D01*
X357486Y55900D01*
X358275Y56928D01*
X358771Y58125D01*
X358940Y59409D01*
X358771Y60694D01*
X358275Y61891D01*
X357486Y62919D01*
X356458Y63708D01*
X355672Y64034D01*
Y68582D01*
X355893Y68850D01*
X367756D01*
X368405Y68980D01*
X368955Y69347D01*
X369323Y69898D01*
X369452Y70547D01*
X369452Y70547D01*
X369452Y70547D01*
Y70547D01*
Y78407D01*
X370238Y78733D01*
X371266Y79522D01*
X372055Y80550D01*
X372551Y81747D01*
X372720Y83031D01*
X372551Y84316D01*
X372055Y85513D01*
X371266Y86541D01*
X370238Y87330D01*
X369041Y87826D01*
X367756Y87995D01*
D02*
G37*
G36*
X337047Y64270D02*
Y60197D01*
X341120D01*
X341054Y60694D01*
X340559Y61891D01*
X339770Y62919D01*
X338742Y63708D01*
X337544Y64204D01*
X337047Y64270D01*
D02*
G37*
G36*
X335472D02*
X334975Y64204D01*
X333778Y63708D01*
X332750Y62919D01*
X331961Y61891D01*
X331465Y60694D01*
X331400Y60197D01*
X335472D01*
Y64270D01*
D02*
G37*
G36*
X341120Y58622D02*
X337047D01*
Y54549D01*
X337544Y54615D01*
X338742Y55111D01*
X339770Y55900D01*
X340559Y56928D01*
X341054Y58125D01*
X341120Y58622D01*
D02*
G37*
G36*
X335472D02*
X331400D01*
X331465Y58125D01*
X331961Y56928D01*
X332750Y55900D01*
X333778Y55111D01*
X334975Y54615D01*
X335472Y54549D01*
Y58622D01*
D02*
G37*
G36*
X372677Y61181D02*
X362835D01*
Y51339D01*
X372677D01*
Y61181D01*
D02*
G37*
G36*
X309685D02*
X299843D01*
Y51339D01*
X309685D01*
Y61181D01*
D02*
G37*
G36*
X385472Y61224D02*
X384188Y61054D01*
X382991Y60559D01*
X381962Y59770D01*
X381174Y58742D01*
X380678Y57545D01*
X380509Y56260D01*
X380678Y54975D01*
X381174Y53778D01*
X381962Y52750D01*
X382991Y51961D01*
X384188Y51465D01*
X385472Y51296D01*
X386757Y51465D01*
X387954Y51961D01*
X388982Y52750D01*
X389771Y53778D01*
X390267Y54975D01*
X390436Y56260D01*
X390267Y57545D01*
X389771Y58742D01*
X388982Y59770D01*
X387954Y60559D01*
X386757Y61054D01*
X385472Y61224D01*
D02*
G37*
G36*
X322480D02*
X321196Y61054D01*
X319999Y60559D01*
X318970Y59770D01*
X318182Y58742D01*
X317686Y57545D01*
X317517Y56260D01*
X317686Y54975D01*
X318182Y53778D01*
X318970Y52750D01*
X319999Y51961D01*
X321196Y51465D01*
X322480Y51296D01*
X323765Y51465D01*
X324962Y51961D01*
X325990Y52750D01*
X326779Y53778D01*
X327275Y54975D01*
X327444Y56260D01*
X327275Y57545D01*
X326779Y58742D01*
X325990Y59770D01*
X324962Y60559D01*
X323765Y61054D01*
X322480Y61224D01*
D02*
G37*
G36*
X-24472Y53543D02*
X-28213D01*
Y49803D01*
X-24472D01*
Y53543D01*
D02*
G37*
G36*
X341181Y37559D02*
X331339D01*
Y27717D01*
X341181D01*
Y37559D01*
D02*
G37*
G36*
X30945D02*
X21102D01*
Y27717D01*
X30945D01*
Y37559D01*
D02*
G37*
G36*
X353976Y37602D02*
X352692Y37433D01*
X351495Y36937D01*
X350466Y36148D01*
X349678Y35120D01*
X349182Y33923D01*
X349013Y32638D01*
X349182Y31353D01*
X349678Y30156D01*
X350466Y29128D01*
X351495Y28339D01*
X352692Y27843D01*
X353976Y27674D01*
X355261Y27843D01*
X356458Y28339D01*
X357486Y29128D01*
X358275Y30156D01*
X358771Y31353D01*
X358940Y32638D01*
X358771Y33923D01*
X358275Y35120D01*
X357486Y36148D01*
X356458Y36937D01*
X355261Y37433D01*
X353976Y37602D01*
D02*
G37*
G36*
X49055Y16409D02*
X48130Y16287D01*
X47268Y15930D01*
X46528Y15362D01*
X45960Y14622D01*
X45603Y13760D01*
X45481Y12835D01*
Y9685D01*
X45603Y8760D01*
X45960Y7898D01*
X46528Y7158D01*
X47268Y6590D01*
X48130Y6233D01*
X49055Y6111D01*
X49980Y6233D01*
X50842Y6590D01*
X51582Y7158D01*
X52150Y7898D01*
X52507Y8760D01*
X52629Y9685D01*
Y12835D01*
X52507Y13760D01*
X52150Y14622D01*
X51582Y15362D01*
X50842Y15930D01*
X49980Y16287D01*
X49055Y16409D01*
D02*
G37*
G36*
X20709D02*
X19784Y16287D01*
X18922Y15930D01*
X18182Y15362D01*
X17614Y14622D01*
X17257Y13760D01*
X17135Y12835D01*
Y9685D01*
X17257Y8760D01*
X17614Y7898D01*
X18182Y7158D01*
X18922Y6590D01*
X19784Y6233D01*
X20709Y6111D01*
X21634Y6233D01*
X22496Y6590D01*
X23236Y7158D01*
X23804Y7898D01*
X24161Y8760D01*
X24283Y9685D01*
Y12835D01*
X24161Y13760D01*
X23804Y14622D01*
X23236Y15362D01*
X22496Y15930D01*
X21634Y16287D01*
X20709Y16409D01*
D02*
G37*
G36*
X42756Y8450D02*
X41873Y8274D01*
X41124Y7774D01*
X40624Y7025D01*
X40448Y6142D01*
X40624Y5259D01*
X41124Y4510D01*
X41873Y4009D01*
X42756Y3834D01*
X43639Y4009D01*
X44388Y4510D01*
X44888Y5259D01*
X45064Y6142D01*
X44888Y7025D01*
X44388Y7774D01*
X43639Y8274D01*
X42756Y8450D01*
D02*
G37*
G36*
X27008D02*
X26125Y8274D01*
X25376Y7774D01*
X24876Y7025D01*
X24700Y6142D01*
X24876Y5259D01*
X25376Y4510D01*
X26125Y4009D01*
X27008Y3834D01*
X27891Y4009D01*
X28640Y4510D01*
X29140Y5259D01*
X29316Y6142D01*
X29140Y7025D01*
X28640Y7774D01*
X27891Y8274D01*
X27008Y8450D01*
D02*
G37*
G36*
X398268Y16688D02*
X396513Y16550D01*
X394802Y16139D01*
X393176Y15466D01*
X391675Y14546D01*
X390337Y13403D01*
X389194Y12065D01*
X388275Y10564D01*
X387601Y8938D01*
X387190Y7227D01*
X387052Y5472D01*
X387190Y3718D01*
X387601Y2007D01*
X388275Y381D01*
X389194Y-1120D01*
X390337Y-2458D01*
X391675Y-3601D01*
X393176Y-4521D01*
X394802Y-5194D01*
X396513Y-5605D01*
X398268Y-5743D01*
X400022Y-5605D01*
X401734Y-5194D01*
X403360Y-4521D01*
X404860Y-3601D01*
X406199Y-2458D01*
X407341Y-1120D01*
X408261Y381D01*
X408935Y2007D01*
X409345Y3718D01*
X409483Y5472D01*
X409345Y7227D01*
X408935Y8938D01*
X408261Y10564D01*
X407341Y12065D01*
X406199Y13403D01*
X404860Y14546D01*
X403360Y15466D01*
X401734Y16139D01*
X400022Y16550D01*
X398268Y16688D01*
D02*
G37*
G36*
X-18268D02*
X-20022Y16550D01*
X-21734Y16139D01*
X-23360Y15466D01*
X-24860Y14546D01*
X-26199Y13403D01*
X-27341Y12065D01*
X-28261Y10564D01*
X-28934Y8938D01*
X-29345Y7227D01*
X-29483Y5472D01*
X-29345Y3718D01*
X-28934Y2007D01*
X-28261Y381D01*
X-27341Y-1120D01*
X-26199Y-2458D01*
X-24860Y-3601D01*
X-23360Y-4521D01*
X-21734Y-5194D01*
X-20022Y-5605D01*
X-18268Y-5743D01*
X-16513Y-5605D01*
X-14802Y-5194D01*
X-13176Y-4521D01*
X-11675Y-3601D01*
X-10337Y-2458D01*
X-9194Y-1120D01*
X-8275Y381D01*
X-7601Y2007D01*
X-7190Y3718D01*
X-7052Y5472D01*
X-7190Y7227D01*
X-7601Y8938D01*
X-8275Y10564D01*
X-9194Y12065D01*
X-10337Y13403D01*
X-11675Y14546D01*
X-13176Y15466D01*
X-14802Y16139D01*
X-16513Y16550D01*
X-18268Y16688D01*
D02*
G37*
G36*
X49055Y2747D02*
X48130Y2625D01*
X47268Y2268D01*
X46528Y1700D01*
X45960Y960D01*
X45603Y98D01*
X45481Y-827D01*
Y-3976D01*
X45603Y-4901D01*
X45960Y-5763D01*
X46528Y-6504D01*
X47268Y-7071D01*
X48130Y-7428D01*
X49055Y-7550D01*
X49980Y-7428D01*
X50842Y-7071D01*
X51582Y-6504D01*
X52150Y-5763D01*
X52507Y-4901D01*
X52629Y-3976D01*
Y-827D01*
X52507Y98D01*
X52150Y960D01*
X51582Y1700D01*
X50842Y2268D01*
X49980Y2625D01*
X49055Y2747D01*
D02*
G37*
G36*
X20709D02*
X19784Y2625D01*
X18922Y2268D01*
X18182Y1700D01*
X17614Y960D01*
X17257Y98D01*
X17135Y-827D01*
Y-3976D01*
X17257Y-4901D01*
X17614Y-5763D01*
X18182Y-6504D01*
X18922Y-7071D01*
X19784Y-7428D01*
X20709Y-7550D01*
X21634Y-7428D01*
X22496Y-7071D01*
X23236Y-6504D01*
X23804Y-5763D01*
X24161Y-4901D01*
X24283Y-3976D01*
Y-827D01*
X24161Y98D01*
X23804Y960D01*
X23236Y1700D01*
X22496Y2268D01*
X21634Y2625D01*
X20709Y2747D01*
D02*
G37*
G36*
X24055Y144213D02*
X20315D01*
Y140472D01*
X24055D01*
Y144213D01*
D02*
G37*
G36*
X18740D02*
X15000D01*
Y140472D01*
X18740D01*
Y144213D01*
D02*
G37*
G36*
X8189Y144149D02*
X4449D01*
Y140409D01*
X8189D01*
Y144149D01*
D02*
G37*
G36*
X2874D02*
X-866D01*
Y140409D01*
X2874D01*
Y144149D01*
D02*
G37*
G36*
X59959Y144083D02*
X56284D01*
Y140408D01*
X56678Y140460D01*
X57780Y140916D01*
X58725Y141642D01*
X59451Y142588D01*
X59907Y143689D01*
X59959Y144083D01*
D02*
G37*
G36*
X54709D02*
X51033D01*
X51085Y143689D01*
X51541Y142588D01*
X52267Y141642D01*
X53213Y140916D01*
X54314Y140460D01*
X54709Y140408D01*
Y144083D01*
D02*
G37*
G36*
X49959D02*
X46284D01*
Y140408D01*
X46678Y140460D01*
X47780Y140916D01*
X48725Y141642D01*
X49451Y142588D01*
X49907Y143689D01*
X49959Y144083D01*
D02*
G37*
G36*
X44709D02*
X41033D01*
X41085Y143689D01*
X41541Y142588D01*
X42267Y141642D01*
X43213Y140916D01*
X44314Y140460D01*
X44709Y140408D01*
Y144083D01*
D02*
G37*
G36*
X39959D02*
X36284D01*
Y140408D01*
X36678Y140460D01*
X37780Y140916D01*
X38725Y141642D01*
X39451Y142588D01*
X39907Y143689D01*
X39959Y144083D01*
D02*
G37*
G36*
X34709D02*
X31033D01*
X31085Y143689D01*
X31541Y142588D01*
X32267Y141642D01*
X33213Y140916D01*
X34314Y140460D01*
X34709Y140408D01*
Y144083D01*
D02*
G37*
G36*
X19528Y139567D02*
X18346Y139411D01*
X17244Y138955D01*
X16299Y138229D01*
X15573Y137283D01*
X15117Y136182D01*
X14961Y135000D01*
X15117Y133818D01*
X15573Y132717D01*
X16299Y131771D01*
X17244Y131045D01*
X18346Y130589D01*
X19528Y130433D01*
X20710Y130589D01*
X21811Y131045D01*
X22757Y131771D01*
X23483Y132717D01*
X23939Y133818D01*
X24094Y135000D01*
X23939Y136182D01*
X23483Y137283D01*
X22757Y138229D01*
X21811Y138955D01*
X20710Y139411D01*
X19528Y139567D01*
D02*
G37*
G36*
X3662Y139503D02*
X2480Y139347D01*
X1378Y138891D01*
X433Y138165D01*
X-293Y137220D01*
X-750Y136118D01*
X-905Y134936D01*
X-750Y133754D01*
X-293Y132653D01*
X433Y131707D01*
X1378Y130982D01*
X2480Y130525D01*
X3662Y130370D01*
X4843Y130525D01*
X5945Y130982D01*
X6891Y131707D01*
X7616Y132653D01*
X8073Y133754D01*
X8228Y134936D01*
X8073Y136118D01*
X7616Y137220D01*
X6891Y138165D01*
X5945Y138891D01*
X4843Y139347D01*
X3662Y139503D01*
D02*
G37*
G36*
X55496Y139437D02*
X54314Y139282D01*
X53213Y138826D01*
X52267Y138100D01*
X51541Y137154D01*
X51085Y136053D01*
X50930Y134871D01*
X51085Y133689D01*
X51541Y132588D01*
X52267Y131642D01*
X53213Y130916D01*
X54314Y130460D01*
X55496Y130304D01*
X56678Y130460D01*
X57780Y130916D01*
X58725Y131642D01*
X59451Y132588D01*
X59907Y133689D01*
X60063Y134871D01*
X59907Y136053D01*
X59451Y137154D01*
X58725Y138100D01*
X57780Y138826D01*
X56678Y139282D01*
X55496Y139437D01*
D02*
G37*
G36*
X45496D02*
X44314Y139282D01*
X43213Y138826D01*
X42267Y138100D01*
X41541Y137154D01*
X41085Y136053D01*
X40930Y134871D01*
X41085Y133689D01*
X41541Y132588D01*
X42267Y131642D01*
X43213Y130916D01*
X44314Y130460D01*
X45496Y130304D01*
X46678Y130460D01*
X47780Y130916D01*
X48725Y131642D01*
X49451Y132588D01*
X49907Y133689D01*
X50063Y134871D01*
X49907Y136053D01*
X49451Y137154D01*
X48725Y138100D01*
X47780Y138826D01*
X46678Y139282D01*
X45496Y139437D01*
D02*
G37*
G36*
X35496D02*
X34314Y139282D01*
X33213Y138826D01*
X32267Y138100D01*
X31541Y137154D01*
X31085Y136053D01*
X30930Y134871D01*
X31085Y133689D01*
X31541Y132588D01*
X32267Y131642D01*
X33213Y130916D01*
X34314Y130460D01*
X35496Y130304D01*
X36678Y130460D01*
X37780Y130916D01*
X38725Y131642D01*
X39451Y132588D01*
X39907Y133689D01*
X40063Y134871D01*
X39907Y136053D01*
X39451Y137154D01*
X38725Y138100D01*
X37780Y138826D01*
X36678Y139282D01*
X35496Y139437D01*
D02*
G37*
G36*
X-18268Y145035D02*
X-20022Y144896D01*
X-21734Y144486D01*
X-23360Y143812D01*
X-24860Y142893D01*
X-26199Y141750D01*
X-27341Y140411D01*
X-28261Y138911D01*
X-28934Y137285D01*
X-29345Y135573D01*
X-29483Y133819D01*
X-29345Y132064D01*
X-28934Y130353D01*
X-28261Y128727D01*
X-27341Y127226D01*
X-26199Y125888D01*
X-24860Y124745D01*
X-23360Y123826D01*
X-21734Y123152D01*
X-20022Y122741D01*
X-18268Y122603D01*
X-16513Y122741D01*
X-14802Y123152D01*
X-13176Y123826D01*
X-11675Y124745D01*
X-10337Y125888D01*
X-9194Y127226D01*
X-8275Y128727D01*
X-7601Y130353D01*
X-7190Y132064D01*
X-7052Y133819D01*
X-7190Y135573D01*
X-7601Y137285D01*
X-8275Y138911D01*
X-9194Y140411D01*
X-10337Y141750D01*
X-11675Y142893D01*
X-13176Y143812D01*
X-14802Y144486D01*
X-16513Y144896D01*
X-18268Y145035D01*
D02*
G37*
G36*
X159713Y110787D02*
X157350D01*
Y109508D01*
X159713D01*
Y110787D01*
D02*
G37*
G36*
X156181Y111651D02*
X153287D01*
Y109508D01*
X156181D01*
Y111651D01*
D02*
G37*
G36*
X151712D02*
X148819D01*
Y109508D01*
X151712D01*
Y111651D01*
D02*
G37*
G36*
X146180Y111651D02*
X143286D01*
Y109507D01*
X146180D01*
Y111651D01*
D02*
G37*
G36*
X159713Y107933D02*
X157350D01*
Y106653D01*
X159713D01*
Y107933D01*
D02*
G37*
G36*
X156181Y107933D02*
X153287D01*
Y105789D01*
X156181D01*
Y107933D01*
D02*
G37*
G36*
X151712D02*
X148819D01*
Y105789D01*
X151712D01*
Y107933D01*
D02*
G37*
G36*
X146180Y107933D02*
X143286D01*
Y105789D01*
X146180D01*
Y107933D01*
D02*
G37*
G36*
X141711Y111651D02*
X138818D01*
Y105789D01*
X141711D01*
Y108720D01*
Y111651D01*
D02*
G37*
G36*
X179212Y111651D02*
X176318D01*
Y109508D01*
X179212D01*
Y111651D01*
D02*
G37*
G36*
X183680D02*
X180787D01*
Y108720D01*
Y105789D01*
X183680D01*
Y111651D01*
D02*
G37*
G36*
X179212Y107933D02*
X176318D01*
Y105789D01*
X179212D01*
Y107933D01*
D02*
G37*
G36*
X43740Y111617D02*
X42456Y111448D01*
X41258Y110952D01*
X40230Y110163D01*
X39441Y109135D01*
X38946Y107938D01*
X38776Y106654D01*
X38946Y105369D01*
X39441Y104172D01*
X40230Y103144D01*
X41258Y102355D01*
X42456Y101859D01*
X43740Y101690D01*
X45025Y101859D01*
X46222Y102355D01*
X47250Y103144D01*
X48039Y104172D01*
X48535Y105369D01*
X48704Y106654D01*
X48535Y107938D01*
X48039Y109135D01*
X47250Y110163D01*
X46222Y110952D01*
X45025Y111448D01*
X43740Y111617D01*
D02*
G37*
G36*
X26024D02*
X24739Y111448D01*
X23542Y110952D01*
X22514Y110163D01*
X21725Y109135D01*
X21229Y107938D01*
X21060Y106654D01*
X21229Y105369D01*
X21725Y104172D01*
X22514Y103144D01*
X23542Y102355D01*
X24739Y101859D01*
X26024Y101690D01*
X27308Y101859D01*
X28506Y102355D01*
X29533Y103144D01*
X30322Y104172D01*
X30818Y105369D01*
X30987Y106654D01*
X30818Y107938D01*
X30322Y109135D01*
X29533Y110163D01*
X28506Y110952D01*
X27308Y111448D01*
X26024Y111617D01*
D02*
G37*
G36*
X163650Y93287D02*
X161287D01*
Y92008D01*
X163650D01*
Y93287D01*
D02*
G37*
G36*
X159713D02*
X157350D01*
Y92008D01*
X159713D01*
Y93287D01*
D02*
G37*
G36*
X156180Y94151D02*
X153287D01*
Y92008D01*
X156180D01*
Y94151D01*
D02*
G37*
G36*
X141712D02*
X138818D01*
Y92008D01*
X141712D01*
Y94151D01*
D02*
G37*
G36*
X179212Y94151D02*
X176319D01*
Y92007D01*
X179212D01*
Y94151D01*
D02*
G37*
G36*
X163650Y90433D02*
X161287D01*
Y89154D01*
X163650D01*
Y90433D01*
D02*
G37*
G36*
X159713D02*
X157350D01*
Y89154D01*
X159713D01*
Y90433D01*
D02*
G37*
G36*
X141712Y90433D02*
X138818D01*
Y88289D01*
X141712D01*
Y90433D01*
D02*
G37*
G36*
X183681Y94151D02*
X180787D01*
Y91220D01*
Y88289D01*
X183681D01*
Y94151D01*
D02*
G37*
G36*
X179212Y90433D02*
X176319D01*
Y88289D01*
X179212D01*
Y90433D01*
D02*
G37*
G36*
X30945Y84803D02*
X26811D01*
Y80669D01*
X30945D01*
Y84803D01*
D02*
G37*
G36*
X25236D02*
X21102D01*
Y80669D01*
X25236D01*
Y84803D01*
D02*
G37*
G36*
X57520Y87995D02*
X56235Y87826D01*
X55038Y87330D01*
X54010Y86541D01*
X53221Y85513D01*
X52725Y84316D01*
X52556Y83031D01*
X52725Y81747D01*
X53221Y80550D01*
X54010Y79522D01*
X55038Y78733D01*
X56235Y78237D01*
X57520Y78068D01*
X58804Y78237D01*
X60001Y78733D01*
X61029Y79522D01*
X61818Y80550D01*
X62314Y81747D01*
X62483Y83031D01*
X62314Y84316D01*
X61818Y85513D01*
X61029Y86541D01*
X60001Y87330D01*
X58804Y87826D01*
X57520Y87995D01*
D02*
G37*
G36*
X12244D02*
X10959Y87826D01*
X9762Y87330D01*
X8734Y86541D01*
X7945Y85513D01*
X7449Y84316D01*
X7280Y83031D01*
X7449Y81747D01*
X7945Y80550D01*
X8734Y79522D01*
X9762Y78733D01*
X10959Y78237D01*
X12244Y78068D01*
X13529Y78237D01*
X14726Y78733D01*
X15754Y79522D01*
X16543Y80550D01*
X17039Y81747D01*
X17208Y83031D01*
X17039Y84316D01*
X16543Y85513D01*
X15754Y86541D01*
X14726Y87330D01*
X13529Y87826D01*
X12244Y87995D01*
D02*
G37*
G36*
X-5472D02*
X-6757Y87826D01*
X-7954Y87330D01*
X-8982Y86541D01*
X-9771Y85513D01*
X-10267Y84316D01*
X-10436Y83031D01*
X-10267Y81747D01*
X-9771Y80550D01*
X-8982Y79522D01*
X-7954Y78733D01*
X-6757Y78237D01*
X-5472Y78068D01*
X-4188Y78237D01*
X-2991Y78733D01*
X-1963Y79522D01*
X-1174Y80550D01*
X-678Y81747D01*
X-509Y83031D01*
X-678Y84316D01*
X-1174Y85513D01*
X-1963Y86541D01*
X-2991Y87330D01*
X-4188Y87826D01*
X-5472Y87995D01*
D02*
G37*
G36*
X30945Y79094D02*
X26811D01*
Y74961D01*
X30945D01*
Y79094D01*
D02*
G37*
G36*
X25236D02*
X21102D01*
Y74961D01*
X25236D01*
Y79094D01*
D02*
G37*
G36*
X79744Y75645D02*
X77776D01*
Y72299D01*
X79744D01*
Y75645D01*
D02*
G37*
G36*
Y70724D02*
X77776D01*
Y67377D01*
X79744D01*
Y70724D01*
D02*
G37*
G36*
X76024Y61120D02*
Y57047D01*
X80096D01*
X80031Y57545D01*
X79535Y58742D01*
X78746Y59770D01*
X77718Y60559D01*
X76521Y61054D01*
X76024Y61120D01*
D02*
G37*
G36*
X74449D02*
X73952Y61054D01*
X72754Y60559D01*
X71726Y59770D01*
X70938Y58742D01*
X70442Y57545D01*
X70376Y57047D01*
X74449D01*
Y61120D01*
D02*
G37*
G36*
X190787Y129264D02*
Y125787D01*
X194264D01*
X194219Y126130D01*
X193783Y127184D01*
X193089Y128089D01*
X192184Y128783D01*
X191130Y129219D01*
X190787Y129264D01*
D02*
G37*
G36*
X241671Y128445D02*
X239528D01*
Y125551D01*
X241671D01*
Y128445D01*
D02*
G37*
G36*
X237953D02*
X235809D01*
Y125551D01*
X237953D01*
Y128445D01*
D02*
G37*
G36*
X244808Y113008D02*
X243287D01*
Y109183D01*
X243383Y109202D01*
X244132Y109703D01*
X244632Y110451D01*
X244808Y111335D01*
Y113008D01*
D02*
G37*
G36*
X253425Y92173D02*
X252047D01*
Y89417D01*
X253425D01*
Y92173D01*
D02*
G37*
G36*
X261672Y66141D02*
X259528D01*
Y63248D01*
X261672D01*
Y66141D01*
D02*
G37*
G36*
X257953D02*
X255809D01*
Y63248D01*
X257953D01*
Y66141D01*
D02*
G37*
G36*
X244764Y51850D02*
X243287D01*
Y47913D01*
X244764D01*
Y51850D01*
D02*
G37*
G36*
Y46339D02*
X243287D01*
Y42402D01*
X244764D01*
Y46339D01*
D02*
G37*
G36*
X234191Y34174D02*
X232047D01*
Y31280D01*
X234191D01*
Y34174D01*
D02*
G37*
G36*
X230472D02*
X228328D01*
Y31280D01*
X230472D01*
Y34174D01*
D02*
G37*
G36*
X218181Y56549D02*
X215287D01*
Y54405D01*
X218181D01*
Y56549D01*
D02*
G37*
G36*
X213712D02*
X210819D01*
Y54405D01*
X213712D01*
Y56549D01*
D02*
G37*
G36*
X218181Y52830D02*
X215287D01*
Y50687D01*
X218181D01*
Y52830D01*
D02*
G37*
G36*
X213712D02*
X210819D01*
Y50687D01*
X213712D01*
Y52830D01*
D02*
G37*
G36*
X184213Y38386D02*
X180472D01*
Y34646D01*
X184213D01*
Y38386D01*
D02*
G37*
G36*
X189527D02*
X185787D01*
Y33858D01*
Y29331D01*
X189527D01*
Y38386D01*
D02*
G37*
G36*
X-551Y61181D02*
X-4685D01*
Y57047D01*
X-551D01*
Y61181D01*
D02*
G37*
G36*
X-6260D02*
X-10394D01*
Y57047D01*
X-6260D01*
Y61181D01*
D02*
G37*
G36*
X43740Y64373D02*
X42456Y64204D01*
X41258Y63708D01*
X40230Y62919D01*
X39441Y61891D01*
X38946Y60694D01*
X38776Y59409D01*
X38946Y58125D01*
X39441Y56928D01*
X40230Y55900D01*
X41258Y55111D01*
X42456Y54615D01*
X43740Y54446D01*
X45025Y54615D01*
X46222Y55111D01*
X47250Y55900D01*
X48039Y56928D01*
X48535Y58125D01*
X48704Y59409D01*
X48535Y60694D01*
X48039Y61891D01*
X47250Y62919D01*
X46222Y63708D01*
X45025Y64204D01*
X43740Y64373D01*
D02*
G37*
G36*
X26024D02*
X24739Y64204D01*
X23542Y63708D01*
X22514Y62919D01*
X21725Y61891D01*
X21229Y60694D01*
X21060Y59409D01*
X21229Y58125D01*
X21725Y56928D01*
X22514Y55900D01*
X23542Y55111D01*
X24739Y54615D01*
X26024Y54446D01*
X27308Y54615D01*
X28506Y55111D01*
X29533Y55900D01*
X30322Y56928D01*
X30818Y58125D01*
X30987Y59409D01*
X30818Y60694D01*
X30322Y61891D01*
X29533Y62919D01*
X28506Y63708D01*
X27308Y64204D01*
X26024Y64373D01*
D02*
G37*
G36*
X-551Y55472D02*
X-4685D01*
Y51339D01*
X-551D01*
Y55472D01*
D02*
G37*
G36*
X-6260D02*
X-10394D01*
Y51339D01*
X-6260D01*
Y55472D01*
D02*
G37*
G36*
X164545Y50020D02*
X162401D01*
Y47126D01*
X164545D01*
Y50020D01*
D02*
G37*
G36*
X160826D02*
X158683D01*
Y47126D01*
X160826D01*
Y50020D01*
D02*
G37*
G36*
X164545Y45551D02*
X162401D01*
Y42658D01*
X164545D01*
Y45551D01*
D02*
G37*
G36*
X160826D02*
X158683D01*
Y42658D01*
X160826D01*
Y45551D01*
D02*
G37*
%LPD*%
D11*
X210000Y118603D02*
G03*
X208126Y123126I-6397J0D01*
G01*
X210000Y121018D02*
G03*
X208834Y123834I-3982J0D01*
G01*
X211874Y123126D02*
G03*
X210000Y118603I4523J-4523D01*
G01*
X211166Y123834D02*
G03*
X210000Y121018I2816J-2816D01*
G01*
X156650Y63111D02*
Y63461D01*
X99740Y20599D02*
X101481D01*
X99740Y29645D02*
X104128Y25258D01*
X196792D01*
X101481Y20599D02*
X104141Y23258D01*
X197620D01*
X78583Y29645D02*
X92260D01*
X78583Y29646D02*
X78583Y29645D01*
X196792Y25258D02*
X220796Y49262D01*
X197620Y23258D02*
X223000Y48638D01*
X237500Y65558D02*
Y67795D01*
X223000Y48638D02*
Y51058D01*
X237500Y65558D01*
X220796Y49262D02*
Y52154D01*
X232500Y63858D01*
Y67795D01*
X67532Y50461D02*
X138100D01*
X65132Y48361D02*
X138943D01*
X139599Y46061D02*
X156650Y63111D01*
X151700Y61118D02*
Y65461D01*
X138943Y48361D02*
X151700Y61118D01*
X148000Y60361D02*
Y62261D01*
X138100Y50461D02*
X148000Y60361D01*
X210000Y117061D02*
Y125000D01*
Y117061D02*
X221400Y105661D01*
X251259Y102003D02*
Y114961D01*
X242500Y93126D02*
Y101961D01*
X255000D01*
X242500D02*
Y105661D01*
X221400D02*
X242500D01*
X12244Y56260D02*
Y67211D01*
X65132D01*
X-21880D02*
X12244D01*
X-29000Y74331D02*
X-21880Y67211D01*
X43740Y70011D02*
Y79882D01*
X57520Y46061D02*
X139599D01*
X57520D02*
Y56260D01*
X65132Y48361D02*
Y67211D01*
X43740Y70011D02*
X67532D01*
Y50461D02*
Y70011D01*
X-10730Y46061D02*
X57520D01*
X-29000Y64331D02*
X-10730Y46061D01*
D12*
X232500Y93126D02*
Y96208D01*
D30*
X285924Y68582D02*
X353976D01*
X274900Y66961D02*
X280450Y72511D01*
X342463D01*
X281200Y68361D02*
X283386Y70547D01*
X281200Y63858D02*
X285924Y68582D01*
X284500Y76061D02*
X286050Y74511D01*
X322480D01*
Y83031D01*
X353976Y72511D02*
Y79882D01*
X342463Y72511D02*
X353976D01*
X283386Y70547D02*
X367756D01*
Y83031D01*
X353976Y59409D02*
Y68582D01*
D31*
X231010Y74261D02*
G03*
X227500Y70751I0J-3510D01*
G01*
X242100Y74261D02*
G03*
X246687Y78848I0J4587D01*
G01*
X343532Y124871D02*
X360664D01*
X238740Y34961D02*
Y40421D01*
X237500Y41661D02*
X238740Y40421D01*
X237500Y41661D02*
Y47126D01*
X238740Y79960D02*
Y84960D01*
X237500Y86201D02*
X238740Y84960D01*
X237500Y86201D02*
Y92126D01*
X258740Y79961D02*
Y92961D01*
X258740Y79961D02*
X258740Y79961D01*
X110532Y71511D02*
Y98861D01*
X105532Y71511D02*
Y117511D01*
X100532Y71511D02*
Y102261D01*
X95532Y71511D02*
Y113511D01*
X90532Y71511D02*
Y105161D01*
X85532Y71511D02*
Y110011D01*
X231010Y74261D02*
X242100D01*
X227500Y67795D02*
Y70751D01*
X258740Y97378D02*
Y114961D01*
X232500Y41958D02*
Y47126D01*
X231260Y40718D02*
X232500Y41958D01*
X231260Y34961D02*
Y40718D01*
X271500Y29488D02*
X301417D01*
X253680Y145000D02*
X267733D01*
X265000Y61361D02*
Y138858D01*
X259500Y57061D02*
X260700D01*
X265000Y61361D01*
X271500Y29488D02*
Y57861D01*
X267575Y9803D02*
Y117251D01*
X267682Y117358D01*
X242499Y133819D02*
X253680Y145000D01*
X164300Y117658D02*
X169502Y122861D01*
X177700D01*
X188658Y133819D01*
X242499D01*
X267733Y145000D02*
X270315Y142418D01*
X267575Y117251D02*
Y131793D01*
X270315Y134533D01*
Y142418D01*
X142499Y98701D02*
X142500Y98701D01*
X135240Y68961D02*
X187000D01*
X164300Y98701D02*
Y117658D01*
X142499Y98701D02*
X152499D01*
X158878D01*
X246687Y78848D02*
Y97378D01*
X258740D01*
X202900Y65282D02*
X216582D01*
X231260Y79960D01*
X267575Y9803D02*
X301417D01*
X267682Y117358D02*
X343532D01*
Y124871D01*
X160500Y98701D02*
X164300D01*
X122260Y65460D02*
Y77461D01*
Y63740D02*
Y65460D01*
Y63740D02*
X127760Y58240D01*
Y56461D02*
Y58240D01*
X135240Y56461D02*
Y68961D01*
X167500Y37201D02*
X169094D01*
Y46339D02*
X180000Y64000D01*
X169094Y37201D02*
Y46339D01*
X152500Y85961D02*
X164500D01*
X122260Y77461D02*
X164500D01*
Y85961D01*
D34*
X92260Y18858D02*
D03*
X99740D02*
D03*
X258740Y114961D02*
D03*
X251259D02*
D03*
X231260Y34961D02*
D03*
X238740D02*
D03*
X92260Y29645D02*
D03*
X99740D02*
D03*
X258740Y79961D02*
D03*
X251259D02*
D03*
X238740Y124764D02*
D03*
X231260D02*
D03*
X258740Y62460D02*
D03*
X251260D02*
D03*
X129740Y65460D02*
D03*
X122260D02*
D03*
X127760Y56461D02*
D03*
X135240Y56461D02*
D03*
X231260Y79960D02*
D03*
X238740D02*
D03*
X161614Y46339D02*
D03*
X169094D02*
D03*
D35*
X12244Y56260D02*
D03*
Y83031D02*
D03*
X-5472D02*
D03*
X43740Y79882D02*
D03*
Y106654D02*
D03*
X26024D02*
D03*
X75236Y56260D02*
D03*
X57520Y83031D02*
D03*
X322480Y56260D02*
D03*
Y83031D02*
D03*
X304764D02*
D03*
X353976Y79882D02*
D03*
Y106654D02*
D03*
X336260D02*
D03*
X385472Y56260D02*
D03*
Y83031D02*
D03*
X367756D02*
D03*
X43740Y32638D02*
D03*
Y59409D02*
D03*
X26024D02*
D03*
X353976Y32638D02*
D03*
Y59409D02*
D03*
X336260D02*
D03*
D37*
X202839Y121265D02*
G03*
X200000Y122441I-2839J-2839D01*
G01*
X202559Y125000D02*
G03*
X205002Y119102I8341J0D01*
G01*
X201378Y125000D02*
G03*
X202986Y121118I5489J0D01*
G01*
X194500Y67400D02*
Y68500D01*
X109239Y21168D02*
X201542D01*
X102205Y14134D02*
X109239Y21168D01*
X97173Y14134D02*
X102205D01*
X95906Y15402D02*
X97173Y14134D01*
X95906Y15402D02*
Y22421D01*
X93957Y24370D02*
X95906Y22421D01*
X83307Y24370D02*
X93957D01*
X78583Y19646D02*
X83307Y24370D01*
X196000Y9858D02*
X199055D01*
X201542Y21168D02*
X201616Y21242D01*
X87795Y18858D02*
X92260D01*
X78583Y9646D02*
X87795Y18858D01*
X175000Y143858D02*
X176125Y142733D01*
X176414Y126472D02*
X186900Y136958D01*
X198100D01*
X205000Y143858D01*
X200000Y124104D02*
Y125000D01*
Y124104D02*
X221343Y102761D01*
X237500D01*
X232500Y88276D02*
Y92126D01*
X43740Y43200D02*
X139695D01*
X155455Y58960D01*
X158288D01*
X164428Y65100D01*
X175300D01*
X237500Y92126D02*
Y93126D01*
Y102761D01*
X43740Y32638D02*
Y43200D01*
X194500Y68500D02*
X212723D01*
X232500Y88276D01*
D38*
X142500Y73720D02*
X160500D01*
X160500Y119358D02*
X185000Y143858D01*
X160500Y116201D02*
Y119358D01*
X142499Y116200D02*
X142500Y116201D01*
X160500D01*
X179984Y108705D02*
X179999Y108720D01*
X179984Y91205D02*
X180000Y91220D01*
X179984Y73705D02*
X180000Y73720D01*
X160516Y73705D02*
X165000D01*
X179984D01*
X164985Y73720D02*
X165000Y73705D01*
X160500Y73720D02*
X164985D01*
X160500Y73720D02*
X160500Y73720D01*
X160516Y73705D01*
X142499Y91220D02*
X152499D01*
X129740Y65460D02*
Y73720D01*
X142500D01*
X149930Y33461D02*
X158500D01*
X149796Y33327D02*
X149930Y33461D01*
D40*
X195118Y61098D02*
G03*
X195000Y60980I0J-118D01*
G01*
X242500Y67795D02*
X251259D01*
X251260Y62460D02*
Y79960D01*
X251259Y79961D02*
X251260Y79960D01*
X199055Y9858D02*
Y18681D01*
X201616Y21242D01*
X227500Y47126D01*
X199055Y9858D02*
X226500D01*
X251260Y34618D01*
Y62460D01*
X169429Y112461D02*
X169429Y112460D01*
X173169Y116200D02*
X179999D01*
X169429Y112461D02*
X173169Y116200D01*
X195000Y33858D02*
Y60980D01*
X195118Y61098D02*
X214500D01*
X180000Y98700D02*
X186740D01*
X187000Y98961D01*
Y81461D02*
Y98961D01*
X180000Y81200D02*
X186740D01*
X187000Y81461D01*
X169429Y94961D02*
X173169Y98700D01*
X180000D01*
X169429Y77461D02*
X173169Y81200D01*
X180000D01*
X187000Y61098D02*
Y68961D01*
Y81461D01*
Y61098D02*
X195118D01*
X180862Y29720D02*
X185000Y33858D01*
X167500Y29720D02*
X180862D01*
X214500Y61098D02*
X220803D01*
X227500Y67795D01*
X179999Y116200D02*
X187000D01*
Y98961D02*
Y116200D01*
D42*
X123000Y9858D02*
X180945D01*
X113142Y0D02*
X123000Y9858D01*
X50000Y24000D02*
X74000Y0D01*
X113142D01*
X22000Y24000D02*
X50000D01*
D43*
X224657Y124764D02*
G03*
X221531Y123469I0J-4420D01*
G01*
X221531Y126531D02*
G03*
X225799Y124764I4267J4267D01*
G01*
X232500Y112795D02*
Y124764D01*
X55431Y124936D02*
X55496Y124871D01*
X251259Y62502D02*
Y67795D01*
X115532Y81200D02*
X142500D01*
X115532Y71511D02*
Y81200D01*
X220236Y124764D02*
X231260D01*
X220000Y125000D02*
X220236Y124764D01*
X142500Y81200D02*
X142500Y81201D01*
X160500D01*
X233787Y119445D02*
X258740D01*
Y114961D02*
Y119445D01*
X231260Y124764D02*
X232500D01*
X-29000Y84331D02*
X3662Y124936D01*
X55431D01*
X136000Y98701D02*
X142499D01*
X55496Y124871D02*
X58625Y128000D01*
X136000D01*
Y98701D02*
Y128000D01*
D44*
X238337Y-4761D02*
D03*
X248337D02*
D03*
X141802D02*
D03*
X131802D02*
D03*
X134991Y143861D02*
D03*
X144991D02*
D03*
X154991D02*
D03*
X164991D02*
D03*
X174991D02*
D03*
X184991D02*
D03*
X194991D02*
D03*
X204991D02*
D03*
X214991D02*
D03*
X224991D02*
D03*
X234991D02*
D03*
X244991D02*
D03*
X301417Y29488D02*
D03*
D45*
Y9803D02*
D03*
D46*
X-18268Y133819D02*
D03*
X398268Y5472D02*
D03*
X-18268D02*
D03*
X398268Y133819D02*
D03*
D47*
X326000Y144961D02*
D03*
X316000Y144871D02*
D03*
Y134871D02*
D03*
X306000Y144871D02*
D03*
Y134871D02*
D03*
X296000Y144961D02*
D03*
X286000D02*
D03*
X360664Y144871D02*
D03*
Y134871D02*
D03*
X343532Y144871D02*
D03*
Y134871D02*
D03*
X55496Y144871D02*
D03*
Y134871D02*
D03*
X45496Y144871D02*
D03*
Y134871D02*
D03*
X35496Y144871D02*
D03*
Y134871D02*
D03*
X19528Y125000D02*
D03*
Y135000D02*
D03*
X3662Y124936D02*
D03*
Y134936D02*
D03*
X78583Y19646D02*
D03*
Y9646D02*
D03*
Y29646D02*
D03*
X195000Y33858D02*
D03*
X-29000Y84331D02*
D03*
Y74331D02*
D03*
Y64331D02*
D03*
D48*
X326000Y134961D02*
D03*
X316000Y124871D02*
D03*
X306000D02*
D03*
X296000Y134961D02*
D03*
X286000D02*
D03*
X360664Y124871D02*
D03*
X343532D02*
D03*
X55496D02*
D03*
X45496D02*
D03*
X35496D02*
D03*
X19528Y145000D02*
D03*
X3662Y144936D02*
D03*
X185000Y33858D02*
D03*
X-29000Y54331D02*
D03*
D49*
X196332Y100460D02*
D03*
Y81562D02*
D03*
D50*
X-5472Y56260D02*
D03*
X26024Y79882D02*
D03*
X57520Y56260D02*
D03*
X304764D02*
D03*
X336260Y79882D02*
D03*
X367756Y56260D02*
D03*
X26024Y32638D02*
D03*
X336260D02*
D03*
D51*
X20709Y-2402D02*
D03*
X49055D02*
D03*
Y11260D02*
D03*
X20709D02*
D03*
D52*
X142499Y98701D02*
D03*
X281200Y63858D02*
D03*
X274900Y66961D02*
D03*
X284500Y76061D02*
D03*
X156600Y63261D02*
D03*
X151700Y65461D02*
D03*
X148000Y62261D02*
D03*
X110532Y98861D02*
D03*
X100532Y102261D02*
D03*
X90532Y105161D02*
D03*
X85532Y110011D02*
D03*
X95532Y113511D02*
D03*
X105532Y117511D02*
D03*
X176414Y126472D02*
D03*
X271500Y57861D02*
D03*
X259500Y57061D02*
D03*
X281200Y68361D02*
D03*
X152500Y85961D02*
D03*
X202900Y65282D02*
D03*
X180000Y64000D02*
D03*
X142499Y108720D02*
D03*
X152500Y108720D02*
D03*
X152499Y91220D02*
D03*
X129740Y65460D02*
D03*
X175300Y65100D02*
D03*
X194000Y68000D02*
D03*
X80000Y135000D02*
D03*
X85000D02*
D03*
X90000D02*
D03*
X95000D02*
D03*
X100000D02*
D03*
X275000Y105000D02*
D03*
Y100000D02*
D03*
Y95000D02*
D03*
X274900Y90000D02*
D03*
X275000Y84831D02*
D03*
Y80000D02*
D03*
X115000Y55000D02*
D03*
X110000D02*
D03*
X105000D02*
D03*
X100000D02*
D03*
X95000D02*
D03*
X90000D02*
D03*
X85000D02*
D03*
Y60000D02*
D03*
X90000D02*
D03*
X95000D02*
D03*
X100000D02*
D03*
X105000D02*
D03*
X110000D02*
D03*
X115000D02*
D03*
Y65000D02*
D03*
X110000D02*
D03*
X105000D02*
D03*
X100000D02*
D03*
X95000D02*
D03*
X90000D02*
D03*
X85000D02*
D03*
X100000Y120000D02*
D03*
X95000D02*
D03*
X90000D02*
D03*
X85000D02*
D03*
X80000D02*
D03*
Y140000D02*
D03*
X85000D02*
D03*
X90000D02*
D03*
X95000D02*
D03*
X100000D02*
D03*
X375000Y75000D02*
D03*
Y65000D02*
D03*
X345000Y100000D02*
D03*
Y90000D02*
D03*
Y50000D02*
D03*
Y40000D02*
D03*
X315000Y60000D02*
D03*
Y90000D02*
D03*
X165000Y0D02*
D03*
X175000D02*
D03*
X185000D02*
D03*
X195000D02*
D03*
X205000D02*
D03*
X215000D02*
D03*
X225000D02*
D03*
X110000Y40000D02*
D03*
X120000D02*
D03*
X130000D02*
D03*
X140000D02*
D03*
Y105000D02*
D03*
X145000D02*
D03*
X150000D02*
D03*
X155000D02*
D03*
X160000D02*
D03*
X-30000Y100000D02*
D03*
Y110000D02*
D03*
Y120000D02*
D03*
X-20000D02*
D03*
Y110000D02*
D03*
X-10000Y120000D02*
D03*
Y100000D02*
D03*
Y90000D02*
D03*
X0Y110000D02*
D03*
Y100000D02*
D03*
X10000D02*
D03*
Y110000D02*
D03*
Y90000D02*
D03*
X0D02*
D03*
X-30000Y40000D02*
D03*
Y30000D02*
D03*
Y20000D02*
D03*
X0Y40000D02*
D03*
X10000D02*
D03*
X-20000Y30000D02*
D03*
Y20000D02*
D03*
X-10000D02*
D03*
X0D02*
D03*
X10000D02*
D03*
X0Y10000D02*
D03*
Y0D02*
D03*
X10000D02*
D03*
Y10000D02*
D03*
X20000Y40000D02*
D03*
X235000Y10000D02*
D03*
X245000D02*
D03*
X255000D02*
D03*
Y0D02*
D03*
X265000D02*
D03*
X275000D02*
D03*
X285000D02*
D03*
X295000D02*
D03*
X305000D02*
D03*
X315000D02*
D03*
X325000D02*
D03*
X315000Y100000D02*
D03*
X365000D02*
D03*
X375000D02*
D03*
Y110000D02*
D03*
Y120000D02*
D03*
Y130000D02*
D03*
Y140000D02*
D03*
X385000Y120000D02*
D03*
Y110000D02*
D03*
X395000D02*
D03*
X405000D02*
D03*
Y100000D02*
D03*
X395000D02*
D03*
X385000D02*
D03*
X405000Y120000D02*
D03*
X395000D02*
D03*
X385000Y130000D02*
D03*
Y140000D02*
D03*
X365000Y110000D02*
D03*
X405000Y90000D02*
D03*
X395000D02*
D03*
X405000Y80000D02*
D03*
Y70000D02*
D03*
X395000D02*
D03*
Y80000D02*
D03*
Y60000D02*
D03*
X405000D02*
D03*
Y50000D02*
D03*
X395000D02*
D03*
Y40000D02*
D03*
X405000D02*
D03*
Y30000D02*
D03*
X395000D02*
D03*
X385000D02*
D03*
X375000D02*
D03*
X365000D02*
D03*
Y40000D02*
D03*
X375000D02*
D03*
X255000Y138858D02*
D03*
X7626Y23880D02*
D03*
X40000Y40000D02*
D03*
X65000Y30000D02*
D03*
Y20000D02*
D03*
X40000Y-5000D02*
D03*
X30000D02*
D03*
X95000Y10000D02*
D03*
X105000D02*
D03*
X174000Y35000D02*
D03*
Y40000D02*
D03*
X179000D02*
D03*
Y45000D02*
D03*
X174000D02*
D03*
X154000Y43000D02*
D03*
X202000Y40000D02*
D03*
Y45000D02*
D03*
X208000D02*
D03*
Y21000D02*
D03*
X213000Y26000D02*
D03*
X218000Y31000D02*
D03*
X223000Y36000D02*
D03*
X246000D02*
D03*
X253000Y30000D02*
D03*
X248000Y25000D02*
D03*
X253000D02*
D03*
X259000D02*
D03*
Y30000D02*
D03*
Y35000D02*
D03*
X161500Y43000D02*
D03*
D53*
X38000Y24000D02*
D03*
X34000D02*
D03*
X30000D02*
D03*
X26000D02*
D03*
X22000D02*
D03*
D54*
X227500Y113795D02*
D03*
X242500Y47126D02*
D03*
D55*
X232500Y113795D02*
D03*
X237500D02*
D03*
X242500D02*
D03*
X227500Y93126D02*
D03*
X232500D02*
D03*
X237500D02*
D03*
X242500D02*
D03*
X227500Y67795D02*
D03*
X232500D02*
D03*
X237500D02*
D03*
X242500D02*
D03*
X227500Y47126D02*
D03*
X232500D02*
D03*
X237500D02*
D03*
D56*
X255000Y101961D02*
D03*
X251260Y92961D02*
D03*
X258740D02*
D03*
D57*
X180945Y9858D02*
D03*
X199055D02*
D03*
D58*
X169429Y77461D02*
D03*
X160500Y81201D02*
D03*
Y73720D02*
D03*
X169429Y112461D02*
D03*
X160500Y116201D02*
D03*
Y108721D02*
D03*
Y91220D02*
D03*
Y98701D02*
D03*
X169429Y94961D02*
D03*
D59*
X142500Y81200D02*
D03*
Y73720D02*
D03*
X180000Y81200D02*
D03*
Y73720D02*
D03*
X180000Y91220D02*
D03*
Y98700D02*
D03*
X179999Y116200D02*
D03*
Y108720D02*
D03*
X152500D02*
D03*
Y116201D02*
D03*
X152499Y98701D02*
D03*
Y91220D02*
D03*
X142499Y98701D02*
D03*
Y91220D02*
D03*
X214500Y61098D02*
D03*
Y53618D02*
D03*
X142499Y108720D02*
D03*
Y116200D02*
D03*
X152499Y73720D02*
D03*
Y81200D02*
D03*
D60*
X126543Y122669D02*
D03*
X69457D02*
D03*
D61*
X115532Y71511D02*
D03*
X110532D02*
D03*
X105532D02*
D03*
X100532D02*
D03*
X90532D02*
D03*
X85532D02*
D03*
X80532D02*
D03*
X95532D02*
D03*
D62*
X73165Y120439D02*
D03*
X123402Y134533D02*
D03*
D63*
X78446Y146410D02*
D03*
X117746D02*
D03*
D64*
X158500Y33461D02*
D03*
X167500Y29720D02*
D03*
Y37201D02*
D03*
D65*
X265000Y138858D02*
D03*
X255000D02*
D03*
X210000Y125000D02*
D03*
X200000D02*
D03*
X220000D02*
D03*
X190000D02*
D03*
D66*
X197056Y46708D02*
D03*
X193180D02*
D03*
M02*
