G04*
G04 #@! TF.GenerationSoftware,Altium Limited,Altium Designer,21.9.1 (22)*
G04*
G04 Layer_Color=65535*
%FSLAX25Y25*%
%MOIN*%
G70*
G04*
G04 #@! TF.SameCoordinates,41BA0B49-DCAA-4547-B712-30F71D3BADEB*
G04*
G04*
G04 #@! TF.FilePolarity,Positive*
G04*
G01*
G75*
%ADD10C,0.02000*%
%ADD11C,0.01000*%
%ADD12C,0.00787*%
%ADD13C,0.00600*%
%ADD14C,0.00800*%
%ADD15C,0.00394*%
G36*
X239512Y52202D02*
X239620Y52192D01*
X239738Y52173D01*
X239866Y52153D01*
X240014Y52133D01*
X240319Y52045D01*
X240486Y51995D01*
X240644Y51927D01*
X240811Y51858D01*
X240968Y51759D01*
X241126Y51661D01*
X241273Y51543D01*
X241283Y51533D01*
X241303Y51513D01*
X241342Y51474D01*
X241392Y51425D01*
X241451Y51356D01*
X241519Y51267D01*
X241598Y51169D01*
X241677Y51061D01*
X241756Y50943D01*
X241834Y50795D01*
X241903Y50647D01*
X241982Y50480D01*
X242051Y50303D01*
X242100Y50116D01*
X242149Y49919D01*
X242189Y49703D01*
X240959Y49604D01*
Y49614D01*
X240949Y49634D01*
X240939Y49673D01*
X240929Y49722D01*
X240909Y49782D01*
X240890Y49850D01*
X240841Y50008D01*
X240772Y50185D01*
X240693Y50362D01*
X240595Y50529D01*
X240486Y50667D01*
X240476Y50677D01*
X240467Y50687D01*
X240437Y50716D01*
X240398Y50746D01*
X240349Y50795D01*
X240289Y50834D01*
X240142Y50933D01*
X239965Y51031D01*
X239748Y51120D01*
X239512Y51179D01*
X239384Y51189D01*
X239247Y51199D01*
X239148D01*
X239040Y51179D01*
X238892Y51159D01*
X238735Y51120D01*
X238558Y51061D01*
X238381Y50972D01*
X238203Y50864D01*
X238194D01*
X238174Y50844D01*
X238144Y50825D01*
X238105Y50785D01*
X238007Y50687D01*
X237869Y50549D01*
X237721Y50372D01*
X237564Y50156D01*
X237416Y49909D01*
X237279Y49614D01*
Y49604D01*
X237269Y49575D01*
X237249Y49526D01*
X237229Y49467D01*
X237200Y49378D01*
X237170Y49280D01*
X237141Y49152D01*
X237111Y49014D01*
X237082Y48857D01*
X237052Y48689D01*
X237023Y48493D01*
X236993Y48286D01*
X236973Y48059D01*
X236954Y47813D01*
X236944Y47558D01*
X236934Y47282D01*
X236944Y47292D01*
X236954Y47312D01*
X236983Y47351D01*
X237013Y47390D01*
X237052Y47449D01*
X237111Y47518D01*
X237239Y47666D01*
X237397Y47833D01*
X237583Y48000D01*
X237790Y48158D01*
X238026Y48296D01*
X238036D01*
X238056Y48305D01*
X238095Y48325D01*
X238135Y48345D01*
X238203Y48374D01*
X238272Y48404D01*
X238351Y48434D01*
X238440Y48463D01*
X238646Y48522D01*
X238873Y48581D01*
X239119Y48620D01*
X239384Y48630D01*
X239443D01*
X239502Y48620D01*
X239591D01*
X239699Y48601D01*
X239827Y48581D01*
X239965Y48551D01*
X240112Y48512D01*
X240270Y48463D01*
X240447Y48404D01*
X240614Y48335D01*
X240791Y48246D01*
X240978Y48138D01*
X241155Y48020D01*
X241323Y47873D01*
X241490Y47715D01*
X241500Y47705D01*
X241529Y47676D01*
X241569Y47617D01*
X241628Y47548D01*
X241697Y47459D01*
X241765Y47351D01*
X241844Y47223D01*
X241933Y47076D01*
X242011Y46918D01*
X242090Y46741D01*
X242159Y46544D01*
X242228Y46338D01*
X242287Y46111D01*
X242326Y45875D01*
X242356Y45629D01*
X242366Y45363D01*
Y45353D01*
Y45324D01*
Y45275D01*
X242356Y45206D01*
Y45117D01*
X242346Y45019D01*
X242336Y44911D01*
X242317Y44783D01*
X242267Y44507D01*
X242189Y44212D01*
X242090Y43907D01*
X241952Y43592D01*
Y43582D01*
X241933Y43553D01*
X241913Y43514D01*
X241874Y43464D01*
X241834Y43395D01*
X241785Y43317D01*
X241657Y43139D01*
X241490Y42933D01*
X241303Y42726D01*
X241077Y42529D01*
X240821Y42352D01*
X240811D01*
X240791Y42333D01*
X240752Y42313D01*
X240693Y42283D01*
X240624Y42254D01*
X240545Y42215D01*
X240457Y42175D01*
X240349Y42136D01*
X240240Y42096D01*
X240112Y42057D01*
X239837Y41988D01*
X239532Y41939D01*
X239365Y41929D01*
X239197Y41919D01*
X239128D01*
X239050Y41929D01*
X238941Y41939D01*
X238813Y41959D01*
X238656Y41978D01*
X238489Y42018D01*
X238302Y42057D01*
X238105Y42116D01*
X237908Y42195D01*
X237692Y42283D01*
X237485Y42401D01*
X237269Y42529D01*
X237062Y42677D01*
X236865Y42854D01*
X236678Y43051D01*
X236668Y43061D01*
X236639Y43110D01*
X236590Y43169D01*
X236531Y43268D01*
X236452Y43395D01*
X236373Y43553D01*
X236285Y43730D01*
X236196Y43946D01*
X236098Y44192D01*
X236009Y44468D01*
X235930Y44773D01*
X235861Y45117D01*
X235793Y45482D01*
X235743Y45895D01*
X235714Y46328D01*
X235704Y46800D01*
Y46810D01*
Y46830D01*
Y46869D01*
Y46928D01*
Y46997D01*
X235714Y47076D01*
Y47174D01*
X235724Y47282D01*
Y47390D01*
X235734Y47518D01*
X235763Y47794D01*
X235793Y48099D01*
X235842Y48424D01*
X235891Y48768D01*
X235970Y49122D01*
X236049Y49477D01*
X236157Y49831D01*
X236275Y50165D01*
X236422Y50490D01*
X236590Y50785D01*
X236777Y51051D01*
X236787Y51061D01*
X236816Y51100D01*
X236875Y51159D01*
X236954Y51228D01*
X237042Y51317D01*
X237160Y51415D01*
X237298Y51523D01*
X237446Y51631D01*
X237623Y51740D01*
X237810Y51848D01*
X238017Y51946D01*
X238243Y52035D01*
X238489Y52104D01*
X238745Y52163D01*
X239020Y52202D01*
X239315Y52212D01*
X239433D01*
X239512Y52202D01*
D02*
G37*
G36*
X192526Y52202D02*
X192634Y52192D01*
X192753Y52173D01*
X192880Y52153D01*
X193028Y52133D01*
X193333Y52045D01*
X193500Y51995D01*
X193658Y51927D01*
X193825Y51858D01*
X193983Y51759D01*
X194140Y51661D01*
X194288Y51543D01*
X194297Y51533D01*
X194317Y51513D01*
X194356Y51474D01*
X194406Y51425D01*
X194465Y51356D01*
X194534Y51267D01*
X194612Y51169D01*
X194691Y51061D01*
X194770Y50943D01*
X194848Y50795D01*
X194917Y50647D01*
X194996Y50480D01*
X195065Y50303D01*
X195114Y50116D01*
X195163Y49919D01*
X195203Y49703D01*
X193973Y49604D01*
Y49614D01*
X193963Y49634D01*
X193953Y49673D01*
X193943Y49722D01*
X193923Y49782D01*
X193904Y49850D01*
X193854Y50008D01*
X193786Y50185D01*
X193707Y50362D01*
X193608Y50529D01*
X193500Y50667D01*
X193491Y50677D01*
X193481Y50687D01*
X193451Y50716D01*
X193412Y50746D01*
X193362Y50795D01*
X193304Y50834D01*
X193156Y50933D01*
X192979Y51031D01*
X192762Y51120D01*
X192526Y51179D01*
X192398Y51189D01*
X192261Y51199D01*
X192162D01*
X192054Y51179D01*
X191906Y51159D01*
X191749Y51120D01*
X191572Y51061D01*
X191394Y50972D01*
X191217Y50864D01*
X191208D01*
X191188Y50844D01*
X191158Y50825D01*
X191119Y50785D01*
X191021Y50687D01*
X190883Y50549D01*
X190735Y50372D01*
X190578Y50156D01*
X190430Y49909D01*
X190293Y49614D01*
Y49604D01*
X190283Y49575D01*
X190263Y49526D01*
X190243Y49467D01*
X190214Y49378D01*
X190184Y49280D01*
X190155Y49152D01*
X190125Y49014D01*
X190096Y48857D01*
X190066Y48689D01*
X190037Y48493D01*
X190007Y48286D01*
X189987Y48059D01*
X189968Y47813D01*
X189958Y47558D01*
X189948Y47282D01*
X189958Y47292D01*
X189968Y47312D01*
X189997Y47351D01*
X190027Y47390D01*
X190066Y47449D01*
X190125Y47518D01*
X190253Y47666D01*
X190410Y47833D01*
X190597Y48000D01*
X190804Y48158D01*
X191040Y48296D01*
X191050D01*
X191070Y48305D01*
X191109Y48325D01*
X191148Y48345D01*
X191217Y48374D01*
X191286Y48404D01*
X191365Y48433D01*
X191454Y48463D01*
X191660Y48522D01*
X191886Y48581D01*
X192132Y48620D01*
X192398Y48630D01*
X192457D01*
X192516Y48620D01*
X192605D01*
X192713Y48601D01*
X192841Y48581D01*
X192979Y48551D01*
X193126Y48512D01*
X193284Y48463D01*
X193461Y48404D01*
X193628Y48335D01*
X193805Y48246D01*
X193992Y48138D01*
X194169Y48020D01*
X194337Y47873D01*
X194504Y47715D01*
X194514Y47705D01*
X194543Y47676D01*
X194583Y47617D01*
X194642Y47548D01*
X194711Y47459D01*
X194780Y47351D01*
X194858Y47223D01*
X194947Y47076D01*
X195026Y46918D01*
X195104Y46741D01*
X195173Y46544D01*
X195242Y46338D01*
X195301Y46111D01*
X195340Y45875D01*
X195370Y45629D01*
X195380Y45363D01*
Y45353D01*
Y45324D01*
Y45275D01*
X195370Y45206D01*
Y45117D01*
X195360Y45019D01*
X195350Y44911D01*
X195331Y44783D01*
X195281Y44507D01*
X195203Y44212D01*
X195104Y43907D01*
X194966Y43592D01*
Y43582D01*
X194947Y43553D01*
X194927Y43514D01*
X194888Y43464D01*
X194848Y43395D01*
X194799Y43317D01*
X194671Y43139D01*
X194504Y42933D01*
X194317Y42726D01*
X194091Y42529D01*
X193835Y42352D01*
X193825D01*
X193805Y42333D01*
X193766Y42313D01*
X193707Y42283D01*
X193638Y42254D01*
X193559Y42215D01*
X193471Y42175D01*
X193362Y42136D01*
X193254Y42096D01*
X193126Y42057D01*
X192851Y41988D01*
X192546Y41939D01*
X192378Y41929D01*
X192211Y41919D01*
X192142D01*
X192064Y41929D01*
X191955Y41939D01*
X191827Y41959D01*
X191670Y41978D01*
X191503Y42018D01*
X191316Y42057D01*
X191119Y42116D01*
X190922Y42195D01*
X190706Y42283D01*
X190499Y42401D01*
X190283Y42529D01*
X190076Y42677D01*
X189879Y42854D01*
X189692Y43051D01*
X189682Y43061D01*
X189653Y43110D01*
X189604Y43169D01*
X189545Y43268D01*
X189466Y43395D01*
X189387Y43553D01*
X189299Y43730D01*
X189210Y43946D01*
X189112Y44192D01*
X189023Y44468D01*
X188944Y44773D01*
X188875Y45117D01*
X188807Y45482D01*
X188757Y45895D01*
X188728Y46328D01*
X188718Y46800D01*
Y46810D01*
Y46830D01*
Y46869D01*
Y46928D01*
Y46997D01*
X188728Y47076D01*
Y47174D01*
X188738Y47282D01*
Y47390D01*
X188748Y47518D01*
X188777Y47794D01*
X188807Y48099D01*
X188856Y48424D01*
X188905Y48768D01*
X188984Y49122D01*
X189062Y49477D01*
X189171Y49831D01*
X189289Y50165D01*
X189436Y50490D01*
X189604Y50785D01*
X189791Y51051D01*
X189801Y51061D01*
X189830Y51100D01*
X189889Y51159D01*
X189968Y51228D01*
X190056Y51317D01*
X190174Y51415D01*
X190312Y51523D01*
X190460Y51631D01*
X190637Y51740D01*
X190824Y51848D01*
X191031Y51946D01*
X191257Y52035D01*
X191503Y52104D01*
X191759Y52163D01*
X192034Y52202D01*
X192329Y52212D01*
X192447D01*
X192526Y52202D01*
D02*
G37*
G36*
X209835Y52340D02*
X209923D01*
X210041Y52330D01*
X210169Y52320D01*
X210307Y52301D01*
X210455Y52281D01*
X210612Y52261D01*
X210937Y52192D01*
X211281Y52104D01*
X211616Y51986D01*
X211626D01*
X211655Y51966D01*
X211704Y51946D01*
X211763Y51917D01*
X211832Y51887D01*
X211921Y51838D01*
X212118Y51730D01*
X212344Y51592D01*
X212570Y51425D01*
X212796Y51228D01*
X213003Y51002D01*
X213013Y50992D01*
X213023Y50972D01*
X213052Y50933D01*
X213092Y50884D01*
X213131Y50825D01*
X213180Y50746D01*
X213229Y50657D01*
X213288Y50559D01*
X213357Y50451D01*
X213417Y50323D01*
X213475Y50185D01*
X213544Y50037D01*
X213603Y49880D01*
X213663Y49713D01*
X213721Y49536D01*
X213771Y49349D01*
X212570Y49024D01*
Y49034D01*
X212560Y49053D01*
X212550Y49103D01*
X212531Y49152D01*
X212511Y49211D01*
X212482Y49290D01*
X212413Y49467D01*
X212334Y49654D01*
X212236Y49860D01*
X212127Y50057D01*
X212000Y50234D01*
Y50244D01*
X211980Y50254D01*
X211941Y50303D01*
X211862Y50392D01*
X211754Y50490D01*
X211616Y50598D01*
X211449Y50716D01*
X211262Y50834D01*
X211035Y50943D01*
X211025D01*
X211006Y50953D01*
X210976Y50972D01*
X210927Y50982D01*
X210868Y51002D01*
X210799Y51031D01*
X210720Y51051D01*
X210632Y51080D01*
X210425Y51120D01*
X210189Y51169D01*
X209923Y51199D01*
X209648Y51208D01*
X209490D01*
X209412Y51199D01*
X209323D01*
X209225Y51189D01*
X209106Y51169D01*
X208860Y51139D01*
X208595Y51090D01*
X208319Y51021D01*
X208064Y50923D01*
X208054D01*
X208034Y50913D01*
X208004Y50893D01*
X207955Y50874D01*
X207896Y50844D01*
X207837Y50815D01*
X207680Y50726D01*
X207512Y50618D01*
X207335Y50500D01*
X207158Y50352D01*
X206991Y50185D01*
X206971Y50165D01*
X206922Y50106D01*
X206853Y50018D01*
X206765Y49890D01*
X206656Y49742D01*
X206558Y49575D01*
X206450Y49388D01*
X206361Y49191D01*
Y49181D01*
X206342Y49152D01*
X206322Y49103D01*
X206302Y49024D01*
X206273Y48945D01*
X206243Y48837D01*
X206204Y48719D01*
X206174Y48591D01*
X206135Y48443D01*
X206096Y48286D01*
X206066Y48119D01*
X206036Y47941D01*
X205997Y47567D01*
X205977Y47164D01*
Y47144D01*
Y47105D01*
Y47036D01*
X205987Y46938D01*
Y46820D01*
X206007Y46692D01*
X206017Y46544D01*
X206036Y46377D01*
X206056Y46200D01*
X206096Y46023D01*
X206174Y45639D01*
X206292Y45265D01*
X206361Y45078D01*
X206440Y44901D01*
X206450Y44891D01*
X206460Y44862D01*
X206489Y44812D01*
X206528Y44753D01*
X206578Y44675D01*
X206637Y44596D01*
X206706Y44497D01*
X206784Y44389D01*
X206873Y44281D01*
X206971Y44173D01*
X207080Y44065D01*
X207207Y43946D01*
X207335Y43838D01*
X207473Y43740D01*
X207630Y43641D01*
X207788Y43553D01*
X207798D01*
X207827Y43533D01*
X207876Y43514D01*
X207945Y43484D01*
X208024Y43454D01*
X208122Y43415D01*
X208231Y43376D01*
X208359Y43336D01*
X208487Y43297D01*
X208634Y43258D01*
X208959Y43189D01*
X209303Y43139D01*
X209481Y43130D01*
X209667Y43120D01*
X209756D01*
X209815Y43130D01*
X209894D01*
X209982Y43139D01*
X210090Y43149D01*
X210209Y43159D01*
X210465Y43199D01*
X210750Y43258D01*
X211055Y43336D01*
X211360Y43445D01*
X211370D01*
X211399Y43464D01*
X211439Y43474D01*
X211498Y43504D01*
X211566Y43533D01*
X211645Y43573D01*
X211832Y43661D01*
X212029Y43769D01*
X212236Y43887D01*
X212442Y44025D01*
X212619Y44163D01*
Y46042D01*
X209658D01*
Y47233D01*
X213928D01*
Y43484D01*
X213918Y43474D01*
X213889Y43454D01*
X213830Y43405D01*
X213761Y43356D01*
X213672Y43287D01*
X213564Y43218D01*
X213436Y43139D01*
X213308Y43051D01*
X213161Y42953D01*
X213003Y42854D01*
X212659Y42667D01*
X212285Y42480D01*
X211891Y42313D01*
X211881D01*
X211842Y42293D01*
X211793Y42274D01*
X211714Y42254D01*
X211616Y42224D01*
X211508Y42185D01*
X211380Y42156D01*
X211232Y42116D01*
X211074Y42077D01*
X210907Y42047D01*
X210730Y42008D01*
X210543Y41978D01*
X210159Y41939D01*
X209746Y41919D01*
X209598D01*
X209500Y41929D01*
X209362Y41939D01*
X209215Y41949D01*
X209038Y41969D01*
X208851Y41998D01*
X208644Y42028D01*
X208437Y42077D01*
X208211Y42126D01*
X207975Y42185D01*
X207739Y42254D01*
X207503Y42342D01*
X207276Y42441D01*
X207040Y42549D01*
X207030Y42559D01*
X206991Y42579D01*
X206922Y42618D01*
X206843Y42667D01*
X206745Y42736D01*
X206627Y42815D01*
X206499Y42913D01*
X206361Y43021D01*
X206214Y43139D01*
X206066Y43277D01*
X205908Y43435D01*
X205761Y43592D01*
X205613Y43769D01*
X205466Y43966D01*
X205338Y44173D01*
X205210Y44389D01*
X205200Y44399D01*
X205180Y44448D01*
X205151Y44507D01*
X205112Y44606D01*
X205072Y44714D01*
X205013Y44852D01*
X204964Y45009D01*
X204905Y45176D01*
X204846Y45373D01*
X204797Y45580D01*
X204738Y45806D01*
X204698Y46042D01*
X204659Y46288D01*
X204629Y46544D01*
X204610Y46810D01*
X204600Y47085D01*
Y47105D01*
Y47154D01*
Y47233D01*
X204610Y47331D01*
X204620Y47469D01*
X204629Y47617D01*
X204649Y47794D01*
X204679Y47981D01*
X204708Y48188D01*
X204747Y48404D01*
X204797Y48630D01*
X204856Y48866D01*
X204925Y49103D01*
X205013Y49349D01*
X205102Y49585D01*
X205210Y49831D01*
X205220Y49850D01*
X205239Y49890D01*
X205279Y49949D01*
X205328Y50037D01*
X205387Y50146D01*
X205466Y50264D01*
X205554Y50401D01*
X205662Y50549D01*
X205781Y50697D01*
X205918Y50854D01*
X206056Y51012D01*
X206223Y51169D01*
X206391Y51326D01*
X206578Y51474D01*
X206774Y51602D01*
X206981Y51730D01*
X206991Y51740D01*
X207030Y51759D01*
X207099Y51789D01*
X207188Y51828D01*
X207296Y51877D01*
X207424Y51927D01*
X207581Y51986D01*
X207749Y52045D01*
X207936Y52094D01*
X208142Y52153D01*
X208359Y52202D01*
X208595Y52251D01*
X208841Y52291D01*
X209097Y52320D01*
X209372Y52340D01*
X209648Y52350D01*
X209756D01*
X209835Y52340D01*
D02*
G37*
G36*
X160822Y47381D02*
X164600Y42087D01*
X162957D01*
X160408Y45678D01*
X160398Y45688D01*
X160369Y45727D01*
X160330Y45796D01*
X160271Y45875D01*
X160212Y45964D01*
X160143Y46072D01*
X159985Y46308D01*
Y46298D01*
X159975Y46288D01*
X159936Y46219D01*
X159877Y46131D01*
X159808Y46023D01*
X159729Y45905D01*
X159651Y45777D01*
X159572Y45668D01*
X159513Y45580D01*
X156955Y42087D01*
X155351D01*
X159247Y47312D01*
X155813Y52173D01*
X157407D01*
X159247Y49595D01*
X159257Y49585D01*
X159277Y49555D01*
X159306Y49516D01*
X159336Y49467D01*
X159385Y49398D01*
X159444Y49319D01*
X159562Y49142D01*
X159690Y48935D01*
X159828Y48729D01*
X159946Y48532D01*
X160044Y48355D01*
Y48365D01*
X160064Y48374D01*
X160084Y48404D01*
X160103Y48443D01*
X160182Y48551D01*
X160271Y48699D01*
X160389Y48866D01*
X160527Y49053D01*
X160674Y49270D01*
X160841Y49486D01*
X162868Y52173D01*
X164325D01*
X160822Y47381D01*
D02*
G37*
G36*
X219065Y45117D02*
X215257D01*
Y46367D01*
X219065D01*
Y45117D01*
D02*
G37*
G36*
X146367Y45294D02*
Y45285D01*
Y45235D01*
Y45176D01*
Y45088D01*
X146357Y44980D01*
X146347Y44862D01*
X146337Y44724D01*
X146327Y44576D01*
X146288Y44261D01*
X146239Y43937D01*
X146160Y43622D01*
X146111Y43474D01*
X146052Y43336D01*
Y43327D01*
X146042Y43307D01*
X146022Y43267D01*
X145993Y43228D01*
X145963Y43169D01*
X145924Y43100D01*
X145816Y42943D01*
X145678Y42775D01*
X145511Y42598D01*
X145314Y42431D01*
X145078Y42283D01*
X145068D01*
X145048Y42264D01*
X145009Y42254D01*
X144960Y42224D01*
X144901Y42195D01*
X144822Y42165D01*
X144733Y42136D01*
X144635Y42106D01*
X144527Y42067D01*
X144409Y42037D01*
X144143Y41978D01*
X143848Y41939D01*
X143523Y41919D01*
X143464D01*
X143395Y41929D01*
X143307D01*
X143198Y41939D01*
X143070Y41959D01*
X142923Y41978D01*
X142775Y42018D01*
X142608Y42057D01*
X142440Y42106D01*
X142273Y42165D01*
X142106Y42244D01*
X141939Y42323D01*
X141781Y42431D01*
X141624Y42539D01*
X141486Y42677D01*
X141476Y42687D01*
X141456Y42716D01*
X141417Y42756D01*
X141378Y42815D01*
X141329Y42903D01*
X141270Y42992D01*
X141201Y43110D01*
X141142Y43248D01*
X141073Y43395D01*
X141014Y43563D01*
X140955Y43750D01*
X140905Y43956D01*
X140866Y44173D01*
X140837Y44409D01*
X140817Y44665D01*
Y44940D01*
X142017Y45107D01*
Y45098D01*
Y45058D01*
X142027Y44999D01*
Y44921D01*
X142037Y44832D01*
X142047Y44724D01*
X142067Y44606D01*
X142086Y44478D01*
X142136Y44222D01*
X142214Y43956D01*
X142263Y43838D01*
X142313Y43720D01*
X142372Y43622D01*
X142440Y43533D01*
X142460Y43513D01*
X142509Y43464D01*
X142598Y43395D01*
X142726Y43327D01*
X142874Y43248D01*
X143061Y43179D01*
X143277Y43130D01*
X143385Y43120D01*
X143513Y43110D01*
X143602D01*
X143690Y43120D01*
X143808Y43139D01*
X143946Y43169D01*
X144094Y43208D01*
X144241Y43258D01*
X144379Y43336D01*
X144399Y43346D01*
X144438Y43376D01*
X144497Y43425D01*
X144576Y43504D01*
X144664Y43592D01*
X144743Y43691D01*
X144822Y43819D01*
X144881Y43956D01*
X144891Y43976D01*
X144901Y44035D01*
X144920Y44074D01*
X144930Y44133D01*
X144940Y44192D01*
X144960Y44271D01*
X144969Y44350D01*
X144979Y44448D01*
X144999Y44547D01*
X145009Y44665D01*
X145019Y44783D01*
Y44921D01*
X145028Y45068D01*
Y45226D01*
Y52173D01*
X146367D01*
Y45294D01*
D02*
G37*
G36*
X201815Y45629D02*
X203173D01*
Y44497D01*
X201815D01*
Y42087D01*
X200575D01*
Y44497D01*
X196196D01*
Y45629D01*
X200802Y52173D01*
X201815D01*
Y45629D01*
D02*
G37*
G36*
X176585Y52202D02*
X176694D01*
X176812Y52192D01*
X176949Y52173D01*
X177107Y52143D01*
X177284Y52114D01*
X177461Y52064D01*
X177648Y52015D01*
X177845Y51946D01*
X178032Y51868D01*
X178229Y51779D01*
X178406Y51671D01*
X178583Y51543D01*
X178750Y51405D01*
X178760Y51395D01*
X178789Y51366D01*
X178829Y51326D01*
X178878Y51257D01*
X178947Y51179D01*
X179016Y51090D01*
X179095Y50982D01*
X179173Y50854D01*
X179252Y50716D01*
X179331Y50559D01*
X179400Y50401D01*
X179469Y50224D01*
X179518Y50037D01*
X179557Y49831D01*
X179587Y49624D01*
X179596Y49408D01*
Y49398D01*
Y49378D01*
Y49349D01*
Y49309D01*
X179587Y49250D01*
Y49191D01*
X179567Y49034D01*
X179537Y48857D01*
X179488Y48650D01*
X179429Y48433D01*
X179341Y48217D01*
Y48207D01*
X179331Y48188D01*
X179311Y48158D01*
X179291Y48119D01*
X179262Y48059D01*
X179232Y48000D01*
X179144Y47843D01*
X179035Y47666D01*
X178888Y47449D01*
X178721Y47223D01*
X178514Y46987D01*
X178504Y46977D01*
X178484Y46957D01*
X178455Y46918D01*
X178406Y46869D01*
X178337Y46800D01*
X178268Y46721D01*
X178170Y46633D01*
X178061Y46525D01*
X177943Y46406D01*
X177796Y46269D01*
X177648Y46121D01*
X177471Y45964D01*
X177284Y45796D01*
X177077Y45609D01*
X176851Y45422D01*
X176615Y45216D01*
X176605Y45206D01*
X176566Y45176D01*
X176507Y45127D01*
X176438Y45068D01*
X176349Y44989D01*
X176251Y44901D01*
X176015Y44704D01*
X175778Y44497D01*
X175542Y44291D01*
X175434Y44192D01*
X175336Y44094D01*
X175247Y44015D01*
X175178Y43946D01*
X175168Y43937D01*
X175129Y43887D01*
X175070Y43819D01*
X174991Y43740D01*
X174913Y43632D01*
X174824Y43523D01*
X174735Y43405D01*
X174657Y43277D01*
X179606D01*
Y42087D01*
X172944D01*
Y42096D01*
Y42106D01*
Y42165D01*
Y42244D01*
X172954Y42362D01*
X172974Y42490D01*
X172994Y42638D01*
X173033Y42785D01*
X173082Y42943D01*
Y42953D01*
X173092Y42972D01*
X173112Y43012D01*
X173132Y43061D01*
X173161Y43120D01*
X173190Y43189D01*
X173279Y43366D01*
X173397Y43573D01*
X173535Y43799D01*
X173702Y44035D01*
X173899Y44281D01*
X173909Y44291D01*
X173928Y44311D01*
X173958Y44350D01*
X174007Y44399D01*
X174066Y44458D01*
X174135Y44537D01*
X174214Y44625D01*
X174312Y44724D01*
X174420Y44822D01*
X174539Y44940D01*
X174676Y45068D01*
X174814Y45206D01*
X174972Y45344D01*
X175139Y45491D01*
X175326Y45649D01*
X175513Y45806D01*
X175532Y45826D01*
X175582Y45865D01*
X175670Y45934D01*
X175778Y46033D01*
X175916Y46141D01*
X176064Y46279D01*
X176231Y46426D01*
X176408Y46584D01*
X176782Y46928D01*
X177146Y47282D01*
X177313Y47459D01*
X177471Y47636D01*
X177619Y47794D01*
X177737Y47951D01*
X177746Y47961D01*
X177766Y47991D01*
X177796Y48030D01*
X177825Y48089D01*
X177874Y48158D01*
X177924Y48237D01*
X177973Y48335D01*
X178032Y48433D01*
X178140Y48660D01*
X178238Y48906D01*
X178268Y49044D01*
X178297Y49171D01*
X178317Y49309D01*
X178327Y49437D01*
Y49447D01*
Y49467D01*
Y49506D01*
X178317Y49565D01*
X178307Y49624D01*
X178297Y49693D01*
X178258Y49870D01*
X178199Y50067D01*
X178101Y50274D01*
X178042Y50372D01*
X177973Y50480D01*
X177894Y50579D01*
X177796Y50677D01*
X177786Y50687D01*
X177776Y50697D01*
X177737Y50726D01*
X177697Y50756D01*
X177648Y50795D01*
X177579Y50834D01*
X177510Y50884D01*
X177422Y50933D01*
X177333Y50982D01*
X177225Y51031D01*
X176989Y51110D01*
X176723Y51169D01*
X176576Y51179D01*
X176418Y51189D01*
X176330D01*
X176270Y51179D01*
X176192Y51169D01*
X176103Y51159D01*
X176005Y51139D01*
X175906Y51120D01*
X175670Y51061D01*
X175434Y50962D01*
X175316Y50903D01*
X175198Y50825D01*
X175090Y50746D01*
X174981Y50647D01*
X174972Y50638D01*
X174962Y50628D01*
X174932Y50588D01*
X174903Y50549D01*
X174863Y50500D01*
X174814Y50431D01*
X174765Y50352D01*
X174716Y50264D01*
X174667Y50165D01*
X174617Y50057D01*
X174578Y49929D01*
X174529Y49801D01*
X174499Y49663D01*
X174470Y49506D01*
X174460Y49349D01*
X174450Y49171D01*
X173181Y49299D01*
Y49319D01*
X173190Y49358D01*
X173200Y49437D01*
X173210Y49536D01*
X173240Y49654D01*
X173269Y49791D01*
X173309Y49939D01*
X173348Y50106D01*
X173407Y50274D01*
X173476Y50451D01*
X173555Y50628D01*
X173643Y50815D01*
X173751Y50992D01*
X173870Y51159D01*
X174007Y51317D01*
X174155Y51464D01*
X174165Y51474D01*
X174194Y51494D01*
X174243Y51533D01*
X174312Y51582D01*
X174401Y51641D01*
X174499Y51700D01*
X174627Y51769D01*
X174765Y51838D01*
X174922Y51907D01*
X175090Y51976D01*
X175277Y52035D01*
X175483Y52094D01*
X175700Y52143D01*
X175936Y52183D01*
X176182Y52202D01*
X176448Y52212D01*
X176516D01*
X176585Y52202D01*
D02*
G37*
G36*
X169933Y42087D02*
X168694Y42087D01*
Y49968D01*
X168684D01*
X168674Y49949D01*
X168644Y49929D01*
X168615Y49900D01*
X168517Y49811D01*
X168379Y49703D01*
X168211Y49575D01*
X168005Y49427D01*
X167769Y49270D01*
X167513Y49112D01*
X167503D01*
X167483Y49093D01*
X167444Y49073D01*
X167395Y49044D01*
X167326Y49004D01*
X167257Y48965D01*
X167080Y48876D01*
X166883Y48778D01*
X166667Y48670D01*
X166440Y48571D01*
X166224Y48483D01*
Y49673D01*
X166234Y49683D01*
X166273Y49693D01*
X166322Y49722D01*
X166401Y49762D01*
X166490Y49811D01*
X166588Y49870D01*
X166706Y49929D01*
X166834Y50008D01*
X167119Y50175D01*
X167424Y50382D01*
X167729Y50608D01*
X168034Y50854D01*
X168044Y50864D01*
X168064Y50884D01*
X168113Y50923D01*
X168162Y50972D01*
X168221Y51041D01*
X168300Y51110D01*
X168379Y51199D01*
X168467Y51287D01*
X168644Y51494D01*
X168822Y51720D01*
X168989Y51966D01*
X169068Y52084D01*
X169127Y52212D01*
X169933Y52212D01*
Y42087D01*
D02*
G37*
G36*
X149830Y43277D02*
X154790D01*
Y42087D01*
X148492D01*
Y52173D01*
X149830D01*
Y43277D01*
D02*
G37*
G36*
X231424Y52202D02*
X231542Y52192D01*
X231670Y52173D01*
X231807Y52143D01*
X231965Y52114D01*
X232132Y52074D01*
X232309Y52025D01*
X232486Y51966D01*
X232663Y51887D01*
X232841Y51799D01*
X233008Y51700D01*
X233175Y51582D01*
X233333Y51445D01*
X233343Y51435D01*
X233372Y51405D01*
X233411Y51366D01*
X233460Y51307D01*
X233520Y51238D01*
X233589Y51139D01*
X233657Y51041D01*
X233736Y50923D01*
X233815Y50795D01*
X233884Y50647D01*
X233952Y50500D01*
X234012Y50333D01*
X234061Y50156D01*
X234110Y49968D01*
X234130Y49782D01*
X234139Y49575D01*
Y49565D01*
Y49545D01*
Y49506D01*
X234130Y49457D01*
Y49398D01*
X234120Y49319D01*
X234090Y49152D01*
X234051Y48965D01*
X233982Y48758D01*
X233893Y48551D01*
X233766Y48345D01*
Y48335D01*
X233746Y48325D01*
X233697Y48256D01*
X233608Y48168D01*
X233490Y48050D01*
X233333Y47922D01*
X233146Y47794D01*
X232919Y47666D01*
X232654Y47548D01*
X232663D01*
X232693Y47538D01*
X232742Y47518D01*
X232801Y47489D01*
X232880Y47459D01*
X232968Y47420D01*
X233175Y47312D01*
X233401Y47174D01*
X233638Y47007D01*
X233864Y46810D01*
X233962Y46692D01*
X234061Y46574D01*
X234071Y46564D01*
X234081Y46544D01*
X234110Y46505D01*
X234139Y46456D01*
X234179Y46387D01*
X234218Y46318D01*
X234258Y46220D01*
X234307Y46121D01*
X234356Y46013D01*
X234395Y45885D01*
X234474Y45619D01*
X234533Y45304D01*
X234543Y45147D01*
X234553Y44970D01*
Y44960D01*
Y44911D01*
X234543Y44842D01*
Y44753D01*
X234523Y44645D01*
X234504Y44517D01*
X234474Y44370D01*
X234435Y44212D01*
X234385Y44045D01*
X234327Y43868D01*
X234258Y43691D01*
X234169Y43504D01*
X234061Y43317D01*
X233943Y43139D01*
X233795Y42962D01*
X233638Y42795D01*
X233628Y42785D01*
X233598Y42756D01*
X233539Y42716D01*
X233470Y42657D01*
X233382Y42588D01*
X233274Y42520D01*
X233136Y42441D01*
X232998Y42362D01*
X232831Y42274D01*
X232644Y42195D01*
X232447Y42126D01*
X232230Y42057D01*
X232004Y41998D01*
X231758Y41959D01*
X231502Y41929D01*
X231227Y41919D01*
X231158D01*
X231079Y41929D01*
X230981D01*
X230853Y41949D01*
X230705Y41969D01*
X230538Y41988D01*
X230361Y42028D01*
X230174Y42077D01*
X229977Y42136D01*
X229780Y42205D01*
X229584Y42293D01*
X229377Y42392D01*
X229180Y42510D01*
X228993Y42638D01*
X228816Y42795D01*
X228806Y42805D01*
X228777Y42834D01*
X228737Y42884D01*
X228678Y42953D01*
X228609Y43041D01*
X228531Y43149D01*
X228452Y43268D01*
X228363Y43405D01*
X228275Y43553D01*
X228196Y43720D01*
X228117Y43907D01*
X228048Y44104D01*
X227999Y44311D01*
X227950Y44527D01*
X227921Y44753D01*
X227911Y44999D01*
Y45009D01*
Y45039D01*
Y45098D01*
X227921Y45167D01*
X227930Y45245D01*
X227940Y45344D01*
X227950Y45452D01*
X227970Y45570D01*
X228029Y45836D01*
X228117Y46111D01*
X228176Y46249D01*
X228245Y46387D01*
X228314Y46515D01*
X228403Y46643D01*
X228413Y46652D01*
X228422Y46672D01*
X228452Y46702D01*
X228491Y46751D01*
X228550Y46810D01*
X228609Y46869D01*
X228688Y46938D01*
X228767Y47007D01*
X228865Y47085D01*
X228974Y47154D01*
X229092Y47233D01*
X229220Y47312D01*
X229357Y47381D01*
X229505Y47440D01*
X229662Y47499D01*
X229830Y47548D01*
X229820D01*
X229800Y47558D01*
X229751Y47577D01*
X229702Y47597D01*
X229643Y47627D01*
X229564Y47666D01*
X229397Y47754D01*
X229210Y47873D01*
X229013Y48010D01*
X228836Y48168D01*
X228678Y48355D01*
Y48365D01*
X228659Y48374D01*
X228649Y48404D01*
X228619Y48443D01*
X228590Y48502D01*
X228560Y48561D01*
X228501Y48709D01*
X228432Y48886D01*
X228373Y49103D01*
X228334Y49339D01*
X228314Y49604D01*
Y49614D01*
Y49654D01*
X228324Y49713D01*
Y49791D01*
X228334Y49880D01*
X228354Y49988D01*
X228383Y50116D01*
X228413Y50254D01*
X228452Y50392D01*
X228511Y50539D01*
X228570Y50697D01*
X228649Y50854D01*
X228737Y51002D01*
X228846Y51159D01*
X228964Y51307D01*
X229101Y51454D01*
X229111Y51464D01*
X229141Y51484D01*
X229180Y51523D01*
X229249Y51572D01*
X229328Y51631D01*
X229416Y51691D01*
X229534Y51759D01*
X229662Y51838D01*
X229800Y51907D01*
X229958Y51976D01*
X230135Y52035D01*
X230322Y52094D01*
X230528Y52143D01*
X230735Y52183D01*
X230971Y52202D01*
X231207Y52212D01*
X231335D01*
X231424Y52202D01*
D02*
G37*
G36*
X223581Y52202D02*
X223660Y52192D01*
X223758Y52183D01*
X223857Y52173D01*
X224073Y52133D01*
X224309Y52074D01*
X224555Y51986D01*
X224792Y51877D01*
X224801D01*
X224821Y51858D01*
X224851Y51848D01*
X224900Y51818D01*
X225008Y51740D01*
X225156Y51641D01*
X225313Y51503D01*
X225480Y51346D01*
X225648Y51149D01*
X225805Y50933D01*
Y50923D01*
X225825Y50903D01*
X225844Y50874D01*
X225874Y50825D01*
X225903Y50766D01*
X225943Y50697D01*
X225982Y50608D01*
X226031Y50520D01*
X226080Y50411D01*
X226130Y50303D01*
X226228Y50047D01*
X226336Y49752D01*
X226425Y49437D01*
Y49427D01*
X226435Y49398D01*
X226445Y49349D01*
X226464Y49280D01*
X226484Y49191D01*
X226504Y49083D01*
X226523Y48955D01*
X226543Y48807D01*
X226563Y48650D01*
X226582Y48463D01*
X226602Y48276D01*
X226622Y48059D01*
X226641Y47833D01*
X226651Y47587D01*
X226661Y47331D01*
Y47056D01*
Y47036D01*
Y46977D01*
Y46889D01*
X226651Y46761D01*
Y46613D01*
X226641Y46436D01*
X226632Y46249D01*
X226612Y46033D01*
X226592Y45806D01*
X226572Y45580D01*
X226504Y45098D01*
X226415Y44625D01*
X226356Y44409D01*
X226287Y44192D01*
Y44183D01*
X226268Y44143D01*
X226248Y44084D01*
X226218Y44015D01*
X226179Y43917D01*
X226130Y43819D01*
X226080Y43700D01*
X226012Y43573D01*
X225864Y43307D01*
X225677Y43021D01*
X225451Y42756D01*
X225323Y42628D01*
X225195Y42510D01*
X225185Y42500D01*
X225165Y42480D01*
X225126Y42451D01*
X225067Y42421D01*
X224998Y42372D01*
X224910Y42323D01*
X224811Y42274D01*
X224703Y42215D01*
X224575Y42156D01*
X224437Y42106D01*
X224290Y42057D01*
X224122Y42008D01*
X223955Y41978D01*
X223768Y41949D01*
X223581Y41929D01*
X223375Y41919D01*
X223306D01*
X223237Y41929D01*
X223129Y41939D01*
X223010Y41949D01*
X222863Y41978D01*
X222705Y42008D01*
X222538Y42047D01*
X222361Y42106D01*
X222174Y42175D01*
X221977Y42254D01*
X221790Y42352D01*
X221603Y42470D01*
X221416Y42608D01*
X221239Y42775D01*
X221082Y42953D01*
X221072Y42972D01*
X221042Y43012D01*
X220993Y43090D01*
X220924Y43199D01*
X220855Y43336D01*
X220767Y43504D01*
X220678Y43710D01*
X220590Y43946D01*
X220491Y44212D01*
X220403Y44517D01*
X220314Y44852D01*
X220245Y45216D01*
X220177Y45629D01*
X220127Y46062D01*
X220098Y46544D01*
X220088Y47056D01*
Y47066D01*
Y47076D01*
Y47135D01*
Y47233D01*
X220098Y47351D01*
Y47508D01*
X220108Y47676D01*
X220117Y47873D01*
X220137Y48089D01*
X220157Y48315D01*
X220177Y48551D01*
X220245Y49024D01*
X220334Y49506D01*
X220393Y49722D01*
X220452Y49939D01*
Y49949D01*
X220472Y49988D01*
X220491Y50047D01*
X220521Y50116D01*
X220560Y50214D01*
X220609Y50313D01*
X220659Y50431D01*
X220728Y50559D01*
X220875Y50834D01*
X221062Y51110D01*
X221288Y51376D01*
X221416Y51503D01*
X221544Y51622D01*
X221554Y51631D01*
X221574Y51651D01*
X221623Y51681D01*
X221672Y51710D01*
X221751Y51759D01*
X221830Y51809D01*
X221938Y51858D01*
X222046Y51917D01*
X222174Y51976D01*
X222312Y52025D01*
X222459Y52074D01*
X222627Y52123D01*
X222794Y52153D01*
X222981Y52183D01*
X223168Y52202D01*
X223375Y52212D01*
X223512D01*
X223581Y52202D01*
D02*
G37*
G36*
X184438D02*
X184556Y52192D01*
X184684Y52173D01*
X184821Y52143D01*
X184979Y52114D01*
X185146Y52074D01*
X185323Y52025D01*
X185500Y51966D01*
X185678Y51887D01*
X185855Y51799D01*
X186022Y51700D01*
X186189Y51582D01*
X186347Y51445D01*
X186356Y51435D01*
X186386Y51405D01*
X186425Y51366D01*
X186475Y51307D01*
X186534Y51238D01*
X186602Y51139D01*
X186671Y51041D01*
X186750Y50923D01*
X186829Y50795D01*
X186898Y50647D01*
X186967Y50500D01*
X187026Y50333D01*
X187075Y50156D01*
X187124Y49968D01*
X187144Y49782D01*
X187153Y49575D01*
Y49565D01*
Y49545D01*
Y49506D01*
X187144Y49457D01*
Y49398D01*
X187134Y49319D01*
X187104Y49152D01*
X187065Y48965D01*
X186996Y48758D01*
X186907Y48551D01*
X186780Y48345D01*
Y48335D01*
X186760Y48325D01*
X186711Y48256D01*
X186622Y48168D01*
X186504Y48050D01*
X186347Y47922D01*
X186160Y47794D01*
X185933Y47666D01*
X185668Y47548D01*
X185678D01*
X185707Y47538D01*
X185756Y47518D01*
X185815Y47489D01*
X185894Y47459D01*
X185983Y47420D01*
X186189Y47312D01*
X186416Y47174D01*
X186652Y47007D01*
X186878Y46810D01*
X186976Y46692D01*
X187075Y46574D01*
X187085Y46564D01*
X187094Y46544D01*
X187124Y46505D01*
X187153Y46456D01*
X187193Y46387D01*
X187232Y46318D01*
X187272Y46220D01*
X187321Y46121D01*
X187370Y46013D01*
X187409Y45885D01*
X187488Y45619D01*
X187547Y45304D01*
X187557Y45147D01*
X187567Y44970D01*
Y44960D01*
Y44911D01*
X187557Y44842D01*
Y44753D01*
X187537Y44645D01*
X187518Y44517D01*
X187488Y44370D01*
X187449Y44212D01*
X187399Y44045D01*
X187340Y43868D01*
X187272Y43691D01*
X187183Y43504D01*
X187075Y43317D01*
X186957Y43139D01*
X186809Y42962D01*
X186652Y42795D01*
X186642Y42785D01*
X186612Y42756D01*
X186553Y42716D01*
X186484Y42657D01*
X186396Y42588D01*
X186288Y42520D01*
X186150Y42441D01*
X186012Y42362D01*
X185845Y42274D01*
X185658Y42195D01*
X185461Y42126D01*
X185245Y42057D01*
X185018Y41998D01*
X184772Y41959D01*
X184516Y41929D01*
X184241Y41919D01*
X184172D01*
X184093Y41929D01*
X183995D01*
X183867Y41949D01*
X183719Y41969D01*
X183552Y41988D01*
X183375Y42028D01*
X183188Y42077D01*
X182991Y42136D01*
X182794Y42205D01*
X182598Y42293D01*
X182391Y42392D01*
X182194Y42510D01*
X182007Y42638D01*
X181830Y42795D01*
X181820Y42805D01*
X181791Y42834D01*
X181751Y42884D01*
X181692Y42953D01*
X181623Y43041D01*
X181545Y43149D01*
X181466Y43268D01*
X181377Y43405D01*
X181289Y43553D01*
X181210Y43720D01*
X181131Y43907D01*
X181062Y44104D01*
X181013Y44311D01*
X180964Y44527D01*
X180935Y44753D01*
X180925Y44999D01*
Y45009D01*
Y45039D01*
Y45098D01*
X180935Y45167D01*
X180945Y45245D01*
X180954Y45344D01*
X180964Y45452D01*
X180984Y45570D01*
X181043Y45836D01*
X181131Y46111D01*
X181191Y46249D01*
X181259Y46387D01*
X181328Y46515D01*
X181417Y46643D01*
X181427Y46652D01*
X181437Y46672D01*
X181466Y46702D01*
X181505Y46751D01*
X181564Y46810D01*
X181623Y46869D01*
X181702Y46938D01*
X181781Y47007D01*
X181879Y47085D01*
X181988Y47154D01*
X182106Y47233D01*
X182234Y47312D01*
X182371Y47381D01*
X182519Y47440D01*
X182676Y47499D01*
X182844Y47548D01*
X182834D01*
X182814Y47558D01*
X182765Y47577D01*
X182716Y47597D01*
X182657Y47627D01*
X182578Y47666D01*
X182411Y47754D01*
X182224Y47873D01*
X182027Y48010D01*
X181850Y48168D01*
X181692Y48355D01*
Y48365D01*
X181673Y48374D01*
X181663Y48404D01*
X181633Y48443D01*
X181604Y48502D01*
X181574Y48561D01*
X181515Y48709D01*
X181446Y48886D01*
X181387Y49103D01*
X181348Y49339D01*
X181328Y49604D01*
Y49614D01*
Y49654D01*
X181338Y49713D01*
Y49791D01*
X181348Y49880D01*
X181368Y49988D01*
X181397Y50116D01*
X181427Y50254D01*
X181466Y50392D01*
X181525Y50539D01*
X181584Y50697D01*
X181663Y50854D01*
X181751Y51002D01*
X181860Y51159D01*
X181978Y51307D01*
X182115Y51454D01*
X182125Y51464D01*
X182155Y51484D01*
X182194Y51523D01*
X182263Y51572D01*
X182342Y51631D01*
X182430Y51691D01*
X182548Y51759D01*
X182676Y51838D01*
X182814Y51907D01*
X182972Y51976D01*
X183149Y52035D01*
X183336Y52094D01*
X183542Y52143D01*
X183749Y52183D01*
X183985Y52202D01*
X184221Y52212D01*
X184349D01*
X184438Y52202D01*
D02*
G37*
G36*
X-16766Y86316D02*
X-16736D01*
X-16706Y86312D01*
X-16669Y86308D01*
X-16627Y86304D01*
X-16537Y86286D01*
X-16444Y86263D01*
X-16342Y86229D01*
X-16241Y86184D01*
X-16238D01*
X-16230Y86177D01*
X-16215Y86169D01*
X-16196Y86158D01*
X-16174Y86147D01*
X-16151Y86128D01*
X-16091Y86087D01*
X-16024Y86034D01*
X-15956Y85971D01*
X-15892Y85896D01*
X-15836Y85813D01*
Y85809D01*
X-15829Y85802D01*
X-15821Y85791D01*
X-15814Y85772D01*
X-15802Y85753D01*
X-15791Y85727D01*
X-15765Y85663D01*
X-15739Y85592D01*
X-15716Y85506D01*
X-15701Y85416D01*
X-15694Y85318D01*
Y85314D01*
Y85307D01*
Y85296D01*
X-15698Y85277D01*
Y85254D01*
X-15701Y85228D01*
X-15709Y85168D01*
X-15728Y85097D01*
X-15750Y85022D01*
X-15784Y84943D01*
X-15829Y84864D01*
Y84861D01*
X-15836Y84857D01*
X-15844Y84846D01*
X-15855Y84831D01*
X-15885Y84793D01*
X-15930Y84748D01*
X-15986Y84696D01*
X-16054Y84643D01*
X-16132Y84591D01*
X-16226Y84542D01*
X-16222D01*
X-16211Y84538D01*
X-16193Y84534D01*
X-16170Y84527D01*
X-16140Y84516D01*
X-16110Y84504D01*
X-16031Y84471D01*
X-15949Y84429D01*
X-15859Y84369D01*
X-15773Y84302D01*
X-15735Y84261D01*
X-15698Y84216D01*
X-15694Y84212D01*
X-15690Y84204D01*
X-15679Y84189D01*
X-15667Y84171D01*
X-15653Y84148D01*
X-15638Y84118D01*
X-15619Y84084D01*
X-15600Y84047D01*
X-15585Y84002D01*
X-15566Y83957D01*
X-15551Y83904D01*
X-15536Y83852D01*
X-15514Y83732D01*
X-15510Y83664D01*
X-15506Y83597D01*
Y83593D01*
Y83574D01*
X-15510Y83548D01*
Y83514D01*
X-15518Y83469D01*
X-15525Y83421D01*
X-15536Y83364D01*
X-15551Y83301D01*
X-15570Y83237D01*
X-15596Y83169D01*
X-15626Y83098D01*
X-15660Y83027D01*
X-15705Y82956D01*
X-15754Y82881D01*
X-15810Y82813D01*
X-15874Y82746D01*
X-15878Y82742D01*
X-15889Y82731D01*
X-15911Y82712D01*
X-15941Y82693D01*
X-15975Y82663D01*
X-16020Y82637D01*
X-16069Y82603D01*
X-16129Y82573D01*
X-16193Y82539D01*
X-16264Y82506D01*
X-16339Y82479D01*
X-16421Y82453D01*
X-16508Y82431D01*
X-16601Y82412D01*
X-16699Y82401D01*
X-16804Y82397D01*
X-16826D01*
X-16852Y82401D01*
X-16886D01*
X-16931Y82404D01*
X-16980Y82412D01*
X-17036Y82423D01*
X-17100Y82434D01*
X-17164Y82449D01*
X-17231Y82472D01*
X-17302Y82494D01*
X-17370Y82524D01*
X-17441Y82558D01*
X-17513Y82599D01*
X-17580Y82644D01*
X-17644Y82697D01*
X-17648Y82701D01*
X-17659Y82712D01*
X-17674Y82727D01*
X-17696Y82753D01*
X-17722Y82783D01*
X-17752Y82817D01*
X-17783Y82858D01*
X-17816Y82907D01*
X-17850Y82959D01*
X-17884Y83019D01*
X-17914Y83083D01*
X-17944Y83154D01*
X-17970Y83229D01*
X-17992Y83308D01*
X-18011Y83391D01*
X-18022Y83481D01*
X-17550Y83544D01*
Y83541D01*
X-17546Y83526D01*
X-17542Y83507D01*
X-17535Y83477D01*
X-17527Y83447D01*
X-17516Y83406D01*
X-17501Y83364D01*
X-17486Y83319D01*
X-17449Y83226D01*
X-17400Y83128D01*
X-17344Y83038D01*
X-17310Y83001D01*
X-17276Y82963D01*
X-17273D01*
X-17269Y82956D01*
X-17257Y82948D01*
X-17243Y82937D01*
X-17224Y82922D01*
X-17201Y82907D01*
X-17145Y82877D01*
X-17074Y82843D01*
X-16991Y82813D01*
X-16901Y82794D01*
X-16852Y82791D01*
X-16800Y82787D01*
X-16766D01*
X-16744Y82791D01*
X-16714Y82794D01*
X-16684Y82798D01*
X-16646Y82806D01*
X-16605Y82817D01*
X-16515Y82843D01*
X-16470Y82862D01*
X-16421Y82884D01*
X-16373Y82911D01*
X-16328Y82941D01*
X-16283Y82974D01*
X-16238Y83016D01*
X-16234Y83019D01*
X-16226Y83027D01*
X-16215Y83038D01*
X-16200Y83057D01*
X-16185Y83079D01*
X-16166Y83106D01*
X-16144Y83136D01*
X-16121Y83173D01*
X-16103Y83211D01*
X-16080Y83256D01*
X-16043Y83353D01*
X-16031Y83406D01*
X-16020Y83462D01*
X-16013Y83522D01*
X-16009Y83586D01*
Y83589D01*
Y83601D01*
Y83616D01*
X-16013Y83642D01*
X-16016Y83668D01*
X-16020Y83702D01*
X-16027Y83736D01*
X-16035Y83777D01*
X-16061Y83859D01*
X-16076Y83904D01*
X-16099Y83949D01*
X-16125Y83994D01*
X-16151Y84039D01*
X-16185Y84081D01*
X-16222Y84122D01*
X-16226Y84126D01*
X-16234Y84129D01*
X-16245Y84141D01*
X-16260Y84156D01*
X-16283Y84171D01*
X-16309Y84189D01*
X-16335Y84208D01*
X-16369Y84227D01*
X-16406Y84246D01*
X-16447Y84264D01*
X-16541Y84298D01*
X-16646Y84324D01*
X-16702Y84328D01*
X-16762Y84332D01*
X-16785D01*
X-16815Y84328D01*
X-16852Y84324D01*
X-16901Y84321D01*
X-16958Y84313D01*
X-17021Y84298D01*
X-17093Y84283D01*
X-17040Y84696D01*
X-17032D01*
X-17014Y84692D01*
X-16987Y84688D01*
X-16935D01*
X-16913Y84692D01*
X-16886D01*
X-16856Y84696D01*
X-16823Y84703D01*
X-16785Y84707D01*
X-16699Y84726D01*
X-16609Y84756D01*
X-16515Y84793D01*
X-16421Y84846D01*
X-16418Y84849D01*
X-16410Y84853D01*
X-16399Y84861D01*
X-16384Y84876D01*
X-16365Y84891D01*
X-16342Y84913D01*
X-16324Y84936D01*
X-16297Y84966D01*
X-16275Y84996D01*
X-16256Y85033D01*
X-16234Y85074D01*
X-16215Y85116D01*
X-16200Y85164D01*
X-16189Y85217D01*
X-16181Y85269D01*
X-16177Y85329D01*
Y85333D01*
Y85341D01*
Y85356D01*
X-16181Y85374D01*
Y85397D01*
X-16185Y85423D01*
X-16200Y85483D01*
X-16219Y85551D01*
X-16252Y85622D01*
X-16294Y85693D01*
X-16324Y85727D01*
X-16354Y85761D01*
X-16357Y85764D01*
X-16361Y85768D01*
X-16373Y85776D01*
X-16384Y85787D01*
X-16425Y85817D01*
X-16477Y85847D01*
X-16541Y85877D01*
X-16620Y85907D01*
X-16710Y85926D01*
X-16755Y85933D01*
X-16834D01*
X-16852Y85929D01*
X-16879D01*
X-16905Y85926D01*
X-16969Y85911D01*
X-17044Y85892D01*
X-17119Y85858D01*
X-17198Y85817D01*
X-17235Y85787D01*
X-17269Y85757D01*
X-17273Y85753D01*
X-17276Y85749D01*
X-17288Y85738D01*
X-17299Y85723D01*
X-17314Y85708D01*
X-17329Y85686D01*
X-17347Y85659D01*
X-17366Y85629D01*
X-17385Y85592D01*
X-17408Y85554D01*
X-17426Y85513D01*
X-17445Y85464D01*
X-17460Y85416D01*
X-17479Y85359D01*
X-17490Y85303D01*
X-17501Y85239D01*
X-17974Y85322D01*
Y85326D01*
X-17970Y85344D01*
X-17963Y85367D01*
X-17955Y85401D01*
X-17944Y85438D01*
X-17929Y85487D01*
X-17914Y85536D01*
X-17891Y85592D01*
X-17869Y85648D01*
X-17839Y85708D01*
X-17809Y85772D01*
X-17771Y85832D01*
X-17734Y85892D01*
X-17689Y85952D01*
X-17636Y86004D01*
X-17584Y86057D01*
X-17580Y86061D01*
X-17569Y86068D01*
X-17554Y86079D01*
X-17527Y86098D01*
X-17497Y86117D01*
X-17464Y86139D01*
X-17419Y86166D01*
X-17374Y86188D01*
X-17321Y86214D01*
X-17261Y86237D01*
X-17198Y86259D01*
X-17130Y86278D01*
X-17059Y86297D01*
X-16984Y86308D01*
X-16901Y86316D01*
X-16819Y86319D01*
X-16789D01*
X-16766Y86316D01*
D02*
G37*
G36*
X-21244D02*
X-21214D01*
X-21184Y86312D01*
X-21146Y86308D01*
X-21105Y86304D01*
X-21015Y86286D01*
X-20921Y86263D01*
X-20820Y86229D01*
X-20719Y86184D01*
X-20715D01*
X-20707Y86177D01*
X-20693Y86169D01*
X-20674Y86158D01*
X-20651Y86147D01*
X-20629Y86128D01*
X-20569Y86087D01*
X-20501Y86034D01*
X-20434Y85971D01*
X-20370Y85896D01*
X-20314Y85813D01*
Y85809D01*
X-20306Y85802D01*
X-20299Y85791D01*
X-20291Y85772D01*
X-20280Y85753D01*
X-20269Y85727D01*
X-20243Y85663D01*
X-20216Y85592D01*
X-20194Y85506D01*
X-20179Y85416D01*
X-20171Y85318D01*
Y85314D01*
Y85307D01*
Y85296D01*
X-20175Y85277D01*
Y85254D01*
X-20179Y85228D01*
X-20186Y85168D01*
X-20205Y85097D01*
X-20227Y85022D01*
X-20261Y84943D01*
X-20306Y84864D01*
Y84861D01*
X-20314Y84857D01*
X-20321Y84846D01*
X-20333Y84831D01*
X-20362Y84793D01*
X-20407Y84748D01*
X-20464Y84696D01*
X-20531Y84643D01*
X-20610Y84591D01*
X-20704Y84542D01*
X-20700D01*
X-20689Y84538D01*
X-20670Y84534D01*
X-20648Y84527D01*
X-20617Y84516D01*
X-20587Y84504D01*
X-20509Y84471D01*
X-20426Y84429D01*
X-20336Y84369D01*
X-20250Y84302D01*
X-20212Y84261D01*
X-20175Y84216D01*
X-20171Y84212D01*
X-20167Y84204D01*
X-20156Y84189D01*
X-20145Y84171D01*
X-20130Y84148D01*
X-20115Y84118D01*
X-20096Y84084D01*
X-20077Y84047D01*
X-20063Y84002D01*
X-20044Y83957D01*
X-20029Y83904D01*
X-20014Y83852D01*
X-19991Y83732D01*
X-19987Y83664D01*
X-19984Y83597D01*
Y83593D01*
Y83574D01*
X-19987Y83548D01*
Y83514D01*
X-19995Y83469D01*
X-20003Y83421D01*
X-20014Y83364D01*
X-20029Y83301D01*
X-20048Y83237D01*
X-20074Y83169D01*
X-20104Y83098D01*
X-20137Y83027D01*
X-20182Y82956D01*
X-20231Y82881D01*
X-20288Y82813D01*
X-20351Y82746D01*
X-20355Y82742D01*
X-20366Y82731D01*
X-20389Y82712D01*
X-20419Y82693D01*
X-20452Y82663D01*
X-20497Y82637D01*
X-20546Y82603D01*
X-20606Y82573D01*
X-20670Y82539D01*
X-20741Y82506D01*
X-20816Y82479D01*
X-20899Y82453D01*
X-20985Y82431D01*
X-21079Y82412D01*
X-21176Y82401D01*
X-21281Y82397D01*
X-21304D01*
X-21330Y82401D01*
X-21364D01*
X-21409Y82404D01*
X-21457Y82412D01*
X-21514Y82423D01*
X-21577Y82434D01*
X-21641Y82449D01*
X-21709Y82472D01*
X-21780Y82494D01*
X-21847Y82524D01*
X-21919Y82558D01*
X-21990Y82599D01*
X-22058Y82644D01*
X-22121Y82697D01*
X-22125Y82701D01*
X-22136Y82712D01*
X-22151Y82727D01*
X-22174Y82753D01*
X-22200Y82783D01*
X-22230Y82817D01*
X-22260Y82858D01*
X-22294Y82907D01*
X-22328Y82959D01*
X-22361Y83019D01*
X-22391Y83083D01*
X-22421Y83154D01*
X-22447Y83229D01*
X-22470Y83308D01*
X-22489Y83391D01*
X-22500Y83481D01*
X-22027Y83544D01*
Y83541D01*
X-22024Y83526D01*
X-22020Y83507D01*
X-22013Y83477D01*
X-22005Y83447D01*
X-21994Y83406D01*
X-21979Y83364D01*
X-21964Y83319D01*
X-21926Y83226D01*
X-21878Y83128D01*
X-21821Y83038D01*
X-21788Y83001D01*
X-21754Y82963D01*
X-21750D01*
X-21746Y82956D01*
X-21735Y82948D01*
X-21720Y82937D01*
X-21701Y82922D01*
X-21679Y82907D01*
X-21622Y82877D01*
X-21551Y82843D01*
X-21469Y82813D01*
X-21379Y82794D01*
X-21330Y82791D01*
X-21278Y82787D01*
X-21244D01*
X-21221Y82791D01*
X-21191Y82794D01*
X-21161Y82798D01*
X-21124Y82806D01*
X-21082Y82817D01*
X-20992Y82843D01*
X-20947Y82862D01*
X-20899Y82884D01*
X-20850Y82911D01*
X-20805Y82941D01*
X-20760Y82974D01*
X-20715Y83016D01*
X-20711Y83019D01*
X-20704Y83027D01*
X-20693Y83038D01*
X-20677Y83057D01*
X-20662Y83079D01*
X-20644Y83106D01*
X-20621Y83136D01*
X-20599Y83173D01*
X-20580Y83211D01*
X-20558Y83256D01*
X-20520Y83353D01*
X-20509Y83406D01*
X-20497Y83462D01*
X-20490Y83522D01*
X-20486Y83586D01*
Y83589D01*
Y83601D01*
Y83616D01*
X-20490Y83642D01*
X-20494Y83668D01*
X-20497Y83702D01*
X-20505Y83736D01*
X-20513Y83777D01*
X-20539Y83859D01*
X-20554Y83904D01*
X-20576Y83949D01*
X-20603Y83994D01*
X-20629Y84039D01*
X-20662Y84081D01*
X-20700Y84122D01*
X-20704Y84126D01*
X-20711Y84129D01*
X-20722Y84141D01*
X-20738Y84156D01*
X-20760Y84171D01*
X-20786Y84189D01*
X-20812Y84208D01*
X-20846Y84227D01*
X-20884Y84246D01*
X-20925Y84264D01*
X-21019Y84298D01*
X-21124Y84324D01*
X-21180Y84328D01*
X-21240Y84332D01*
X-21262D01*
X-21293Y84328D01*
X-21330Y84324D01*
X-21379Y84321D01*
X-21435Y84313D01*
X-21499Y84298D01*
X-21570Y84283D01*
X-21518Y84696D01*
X-21510D01*
X-21491Y84692D01*
X-21465Y84688D01*
X-21413D01*
X-21390Y84692D01*
X-21364D01*
X-21334Y84696D01*
X-21300Y84703D01*
X-21262Y84707D01*
X-21176Y84726D01*
X-21086Y84756D01*
X-20992Y84793D01*
X-20899Y84846D01*
X-20895Y84849D01*
X-20888Y84853D01*
X-20876Y84861D01*
X-20861Y84876D01*
X-20843Y84891D01*
X-20820Y84913D01*
X-20801Y84936D01*
X-20775Y84966D01*
X-20752Y84996D01*
X-20734Y85033D01*
X-20711Y85074D01*
X-20693Y85116D01*
X-20677Y85164D01*
X-20666Y85217D01*
X-20659Y85269D01*
X-20655Y85329D01*
Y85333D01*
Y85341D01*
Y85356D01*
X-20659Y85374D01*
Y85397D01*
X-20662Y85423D01*
X-20677Y85483D01*
X-20696Y85551D01*
X-20730Y85622D01*
X-20771Y85693D01*
X-20801Y85727D01*
X-20831Y85761D01*
X-20835Y85764D01*
X-20839Y85768D01*
X-20850Y85776D01*
X-20861Y85787D01*
X-20902Y85817D01*
X-20955Y85847D01*
X-21019Y85877D01*
X-21098Y85907D01*
X-21188Y85926D01*
X-21233Y85933D01*
X-21311D01*
X-21330Y85929D01*
X-21356D01*
X-21383Y85926D01*
X-21446Y85911D01*
X-21521Y85892D01*
X-21596Y85858D01*
X-21675Y85817D01*
X-21712Y85787D01*
X-21746Y85757D01*
X-21750Y85753D01*
X-21754Y85749D01*
X-21765Y85738D01*
X-21776Y85723D01*
X-21791Y85708D01*
X-21806Y85686D01*
X-21825Y85659D01*
X-21844Y85629D01*
X-21862Y85592D01*
X-21885Y85554D01*
X-21904Y85513D01*
X-21923Y85464D01*
X-21937Y85416D01*
X-21956Y85359D01*
X-21968Y85303D01*
X-21979Y85239D01*
X-22451Y85322D01*
Y85326D01*
X-22447Y85344D01*
X-22440Y85367D01*
X-22433Y85401D01*
X-22421Y85438D01*
X-22406Y85487D01*
X-22391Y85536D01*
X-22369Y85592D01*
X-22346Y85648D01*
X-22316Y85708D01*
X-22286Y85772D01*
X-22249Y85832D01*
X-22211Y85892D01*
X-22166Y85952D01*
X-22114Y86004D01*
X-22061Y86057D01*
X-22058Y86061D01*
X-22046Y86068D01*
X-22031Y86079D01*
X-22005Y86098D01*
X-21975Y86117D01*
X-21941Y86139D01*
X-21896Y86166D01*
X-21851Y86188D01*
X-21799Y86214D01*
X-21739Y86237D01*
X-21675Y86259D01*
X-21608Y86278D01*
X-21536Y86297D01*
X-21461Y86308D01*
X-21379Y86316D01*
X-21296Y86319D01*
X-21266D01*
X-21244Y86316D01*
D02*
G37*
G36*
X-13226Y82461D02*
X-13755D01*
X-15240Y86304D01*
X-14689D01*
X-13691Y83511D01*
Y83507D01*
X-13688Y83496D01*
X-13680Y83477D01*
X-13672Y83454D01*
X-13661Y83424D01*
X-13650Y83387D01*
X-13635Y83349D01*
X-13620Y83304D01*
X-13590Y83207D01*
X-13556Y83102D01*
X-13522Y82993D01*
X-13489Y82881D01*
Y82884D01*
X-13485Y82896D01*
X-13481Y82911D01*
X-13474Y82933D01*
X-13463Y82963D01*
X-13455Y82997D01*
X-13444Y83034D01*
X-13429Y83079D01*
X-13399Y83173D01*
X-13365Y83278D01*
X-13324Y83394D01*
X-13283Y83511D01*
X-12240Y86304D01*
X-11722D01*
X-13226Y82461D01*
D02*
G37*
G36*
X-18716D02*
X-19252D01*
Y82997D01*
X-18716D01*
Y82461D01*
D02*
G37*
G36*
X-17235Y64278D02*
X-15795Y62261D01*
X-16421D01*
X-17392Y63629D01*
X-17396Y63633D01*
X-17408Y63648D01*
X-17423Y63674D01*
X-17445Y63704D01*
X-17468Y63738D01*
X-17494Y63779D01*
X-17554Y63869D01*
Y63866D01*
X-17558Y63862D01*
X-17572Y63836D01*
X-17595Y63802D01*
X-17621Y63761D01*
X-17651Y63716D01*
X-17681Y63667D01*
X-17711Y63626D01*
X-17734Y63592D01*
X-18709Y62261D01*
X-19320D01*
X-17835Y64252D01*
X-19144Y66104D01*
X-18536D01*
X-17835Y65122D01*
X-17831Y65118D01*
X-17824Y65107D01*
X-17812Y65092D01*
X-17801Y65073D01*
X-17783Y65047D01*
X-17760Y65017D01*
X-17715Y64949D01*
X-17666Y64871D01*
X-17614Y64792D01*
X-17569Y64717D01*
X-17531Y64649D01*
Y64653D01*
X-17524Y64657D01*
X-17516Y64668D01*
X-17509Y64683D01*
X-17479Y64724D01*
X-17445Y64781D01*
X-17400Y64844D01*
X-17347Y64916D01*
X-17291Y64998D01*
X-17228Y65081D01*
X-16455Y66104D01*
X-15900D01*
X-17235Y64278D01*
D02*
G37*
G36*
X-19451Y65651D02*
X-20722D01*
Y62261D01*
X-21233D01*
Y65651D01*
X-22500D01*
Y66104D01*
X-19451D01*
Y65651D01*
D02*
G37*
G36*
X-16939Y74784D02*
X-15499Y72767D01*
X-16125D01*
X-17096Y74135D01*
X-17100Y74139D01*
X-17111Y74154D01*
X-17126Y74180D01*
X-17149Y74210D01*
X-17171Y74244D01*
X-17198Y74285D01*
X-17257Y74375D01*
Y74371D01*
X-17261Y74368D01*
X-17276Y74341D01*
X-17299Y74308D01*
X-17325Y74266D01*
X-17355Y74221D01*
X-17385Y74173D01*
X-17415Y74132D01*
X-17437Y74098D01*
X-18413Y72767D01*
X-19024D01*
X-17539Y74758D01*
X-18847Y76610D01*
X-18240D01*
X-17539Y75628D01*
X-17535Y75624D01*
X-17527Y75613D01*
X-17516Y75598D01*
X-17505Y75579D01*
X-17486Y75553D01*
X-17464Y75523D01*
X-17419Y75455D01*
X-17370Y75376D01*
X-17318Y75298D01*
X-17273Y75223D01*
X-17235Y75155D01*
Y75159D01*
X-17228Y75163D01*
X-17220Y75174D01*
X-17212Y75189D01*
X-17183Y75230D01*
X-17149Y75287D01*
X-17104Y75350D01*
X-17051Y75422D01*
X-16995Y75504D01*
X-16931Y75586D01*
X-16159Y76610D01*
X-15604D01*
X-16939Y74784D01*
D02*
G37*
G36*
X-20670Y76607D02*
X-20621D01*
X-20565Y76603D01*
X-20509Y76599D01*
X-20381Y76584D01*
X-20250Y76565D01*
X-20126Y76539D01*
X-20070Y76524D01*
X-20018Y76505D01*
X-20014D01*
X-20006Y76502D01*
X-19991Y76494D01*
X-19973Y76486D01*
X-19950Y76472D01*
X-19924Y76456D01*
X-19864Y76419D01*
X-19796Y76370D01*
X-19725Y76306D01*
X-19654Y76228D01*
X-19590Y76138D01*
X-19586Y76134D01*
X-19582Y76126D01*
X-19575Y76112D01*
X-19564Y76093D01*
X-19553Y76066D01*
X-19537Y76037D01*
X-19523Y76007D01*
X-19508Y75969D01*
X-19481Y75883D01*
X-19455Y75785D01*
X-19436Y75677D01*
X-19429Y75620D01*
Y75560D01*
Y75556D01*
Y75542D01*
Y75519D01*
X-19433Y75493D01*
X-19436Y75455D01*
X-19444Y75418D01*
X-19451Y75369D01*
X-19463Y75320D01*
X-19478Y75268D01*
X-19492Y75212D01*
X-19515Y75155D01*
X-19541Y75095D01*
X-19571Y75039D01*
X-19609Y74979D01*
X-19646Y74923D01*
X-19695Y74870D01*
X-19699Y74866D01*
X-19706Y74859D01*
X-19721Y74844D01*
X-19744Y74825D01*
X-19774Y74803D01*
X-19807Y74777D01*
X-19849Y74750D01*
X-19897Y74720D01*
X-19950Y74690D01*
X-20010Y74660D01*
X-20077Y74630D01*
X-20153Y74600D01*
X-20231Y74574D01*
X-20317Y74551D01*
X-20411Y74529D01*
X-20513Y74514D01*
X-20509D01*
X-20505Y74510D01*
X-20494Y74503D01*
X-20479Y74499D01*
X-20441Y74476D01*
X-20396Y74454D01*
X-20347Y74424D01*
X-20299Y74394D01*
X-20250Y74357D01*
X-20205Y74323D01*
X-20201Y74319D01*
X-20194Y74315D01*
X-20182Y74300D01*
X-20167Y74285D01*
X-20149Y74266D01*
X-20126Y74240D01*
X-20100Y74214D01*
X-20070Y74180D01*
X-20006Y74105D01*
X-19935Y74019D01*
X-19860Y73918D01*
X-19785Y73809D01*
X-19121Y72767D01*
X-19755D01*
X-20265Y73565D01*
X-20269Y73569D01*
X-20276Y73580D01*
X-20288Y73599D01*
X-20302Y73621D01*
X-20321Y73651D01*
X-20344Y73685D01*
X-20392Y73760D01*
X-20452Y73847D01*
X-20513Y73933D01*
X-20576Y74019D01*
X-20603Y74057D01*
X-20632Y74094D01*
Y74098D01*
X-20640Y74102D01*
X-20655Y74124D01*
X-20685Y74158D01*
X-20719Y74195D01*
X-20760Y74237D01*
X-20801Y74278D01*
X-20846Y74319D01*
X-20891Y74349D01*
X-20895Y74353D01*
X-20910Y74360D01*
X-20933Y74375D01*
X-20963Y74390D01*
X-20996Y74409D01*
X-21034Y74424D01*
X-21075Y74443D01*
X-21120Y74454D01*
X-21124D01*
X-21135Y74458D01*
X-21158Y74462D01*
X-21188Y74465D01*
X-21225D01*
X-21274Y74469D01*
X-21334Y74473D01*
X-21990D01*
Y72767D01*
X-22500D01*
Y76610D01*
X-20711D01*
X-20670Y76607D01*
D02*
G37*
G36*
X-20710Y56931D02*
X-20676D01*
X-20631Y56927D01*
X-20582Y56924D01*
X-20530Y56916D01*
X-20473Y56909D01*
X-20414Y56901D01*
X-20290Y56875D01*
X-20158Y56841D01*
X-20031Y56796D01*
X-20027D01*
X-20016Y56789D01*
X-19997Y56781D01*
X-19975Y56770D01*
X-19948Y56759D01*
X-19915Y56740D01*
X-19840Y56699D01*
X-19753Y56646D01*
X-19667Y56582D01*
X-19581Y56507D01*
X-19502Y56421D01*
X-19498Y56417D01*
X-19495Y56410D01*
X-19483Y56395D01*
X-19468Y56376D01*
X-19454Y56354D01*
X-19435Y56324D01*
X-19416Y56290D01*
X-19394Y56252D01*
X-19367Y56211D01*
X-19345Y56162D01*
X-19322Y56110D01*
X-19296Y56054D01*
X-19273Y55994D01*
X-19251Y55930D01*
X-19229Y55862D01*
X-19210Y55791D01*
X-19667Y55667D01*
Y55671D01*
X-19671Y55679D01*
X-19675Y55697D01*
X-19682Y55716D01*
X-19690Y55739D01*
X-19701Y55769D01*
X-19727Y55836D01*
X-19757Y55907D01*
X-19795Y55986D01*
X-19836Y56061D01*
X-19885Y56129D01*
Y56132D01*
X-19892Y56136D01*
X-19907Y56155D01*
X-19937Y56189D01*
X-19978Y56226D01*
X-20031Y56267D01*
X-20095Y56312D01*
X-20166Y56357D01*
X-20252Y56399D01*
X-20256D01*
X-20264Y56402D01*
X-20275Y56410D01*
X-20293Y56414D01*
X-20316Y56421D01*
X-20342Y56432D01*
X-20372Y56440D01*
X-20406Y56451D01*
X-20485Y56466D01*
X-20575Y56485D01*
X-20676Y56496D01*
X-20781Y56500D01*
X-20841D01*
X-20871Y56496D01*
X-20905D01*
X-20942Y56492D01*
X-20987Y56485D01*
X-21081Y56474D01*
X-21182Y56455D01*
X-21287Y56429D01*
X-21385Y56391D01*
X-21388D01*
X-21396Y56387D01*
X-21407Y56380D01*
X-21426Y56372D01*
X-21448Y56361D01*
X-21471Y56350D01*
X-21531Y56316D01*
X-21595Y56275D01*
X-21662Y56230D01*
X-21730Y56174D01*
X-21793Y56110D01*
X-21801Y56102D01*
X-21820Y56080D01*
X-21846Y56046D01*
X-21880Y55997D01*
X-21921Y55941D01*
X-21958Y55877D01*
X-22000Y55806D01*
X-22033Y55731D01*
Y55727D01*
X-22041Y55716D01*
X-22048Y55697D01*
X-22056Y55667D01*
X-22067Y55637D01*
X-22079Y55596D01*
X-22094Y55551D01*
X-22105Y55502D01*
X-22120Y55446D01*
X-22135Y55386D01*
X-22146Y55322D01*
X-22157Y55255D01*
X-22172Y55112D01*
X-22180Y54959D01*
Y54951D01*
Y54936D01*
Y54910D01*
X-22176Y54872D01*
Y54827D01*
X-22169Y54779D01*
X-22165Y54722D01*
X-22157Y54659D01*
X-22150Y54591D01*
X-22135Y54524D01*
X-22105Y54377D01*
X-22060Y54235D01*
X-22033Y54164D01*
X-22004Y54096D01*
X-22000Y54092D01*
X-21996Y54081D01*
X-21985Y54062D01*
X-21970Y54040D01*
X-21951Y54010D01*
X-21928Y53980D01*
X-21902Y53942D01*
X-21872Y53901D01*
X-21838Y53860D01*
X-21801Y53819D01*
X-21760Y53777D01*
X-21711Y53732D01*
X-21662Y53691D01*
X-21610Y53654D01*
X-21550Y53616D01*
X-21490Y53582D01*
X-21486D01*
X-21475Y53575D01*
X-21456Y53567D01*
X-21430Y53556D01*
X-21400Y53545D01*
X-21362Y53530D01*
X-21321Y53515D01*
X-21272Y53500D01*
X-21223Y53485D01*
X-21167Y53470D01*
X-21044Y53444D01*
X-20912Y53425D01*
X-20845Y53421D01*
X-20773Y53417D01*
X-20740D01*
X-20717Y53421D01*
X-20687D01*
X-20653Y53425D01*
X-20612Y53429D01*
X-20567Y53432D01*
X-20470Y53447D01*
X-20361Y53470D01*
X-20245Y53500D01*
X-20129Y53541D01*
X-20125D01*
X-20113Y53549D01*
X-20098Y53552D01*
X-20076Y53564D01*
X-20050Y53575D01*
X-20020Y53590D01*
X-19948Y53624D01*
X-19873Y53665D01*
X-19795Y53710D01*
X-19716Y53762D01*
X-19648Y53815D01*
Y54531D01*
X-20777D01*
Y54985D01*
X-19150D01*
Y53556D01*
X-19153Y53552D01*
X-19165Y53545D01*
X-19187Y53526D01*
X-19214Y53507D01*
X-19247Y53481D01*
X-19288Y53455D01*
X-19337Y53425D01*
X-19386Y53391D01*
X-19442Y53354D01*
X-19502Y53316D01*
X-19633Y53245D01*
X-19776Y53174D01*
X-19926Y53110D01*
X-19930D01*
X-19945Y53102D01*
X-19963Y53095D01*
X-19994Y53087D01*
X-20031Y53076D01*
X-20072Y53061D01*
X-20121Y53050D01*
X-20177Y53035D01*
X-20237Y53020D01*
X-20301Y53009D01*
X-20369Y52994D01*
X-20440Y52982D01*
X-20586Y52967D01*
X-20743Y52960D01*
X-20800D01*
X-20837Y52964D01*
X-20890Y52967D01*
X-20946Y52971D01*
X-21013Y52979D01*
X-21085Y52990D01*
X-21163Y53001D01*
X-21242Y53020D01*
X-21328Y53039D01*
X-21418Y53061D01*
X-21508Y53087D01*
X-21598Y53121D01*
X-21685Y53159D01*
X-21775Y53200D01*
X-21779Y53204D01*
X-21793Y53211D01*
X-21820Y53226D01*
X-21850Y53245D01*
X-21887Y53271D01*
X-21932Y53301D01*
X-21981Y53339D01*
X-22033Y53380D01*
X-22090Y53425D01*
X-22146Y53477D01*
X-22206Y53537D01*
X-22262Y53597D01*
X-22319Y53665D01*
X-22375Y53740D01*
X-22423Y53819D01*
X-22472Y53901D01*
X-22476Y53905D01*
X-22483Y53924D01*
X-22495Y53946D01*
X-22510Y53984D01*
X-22525Y54025D01*
X-22547Y54077D01*
X-22566Y54137D01*
X-22589Y54201D01*
X-22611Y54276D01*
X-22630Y54355D01*
X-22652Y54441D01*
X-22667Y54531D01*
X-22682Y54625D01*
X-22693Y54722D01*
X-22701Y54824D01*
X-22705Y54929D01*
Y54936D01*
Y54955D01*
Y54985D01*
X-22701Y55022D01*
X-22697Y55075D01*
X-22693Y55131D01*
X-22686Y55199D01*
X-22675Y55270D01*
X-22663Y55349D01*
X-22648Y55431D01*
X-22630Y55517D01*
X-22607Y55607D01*
X-22581Y55697D01*
X-22547Y55791D01*
X-22513Y55881D01*
X-22472Y55975D01*
X-22468Y55982D01*
X-22461Y55997D01*
X-22446Y56020D01*
X-22427Y56054D01*
X-22405Y56095D01*
X-22375Y56140D01*
X-22341Y56192D01*
X-22300Y56249D01*
X-22255Y56305D01*
X-22202Y56365D01*
X-22150Y56425D01*
X-22086Y56485D01*
X-22022Y56545D01*
X-21951Y56601D01*
X-21876Y56650D01*
X-21797Y56699D01*
X-21793Y56702D01*
X-21779Y56710D01*
X-21752Y56721D01*
X-21719Y56736D01*
X-21677Y56755D01*
X-21629Y56774D01*
X-21568Y56796D01*
X-21505Y56819D01*
X-21433Y56837D01*
X-21355Y56860D01*
X-21272Y56879D01*
X-21182Y56897D01*
X-21089Y56912D01*
X-20991Y56924D01*
X-20886Y56931D01*
X-20781Y56935D01*
X-20740D01*
X-20710Y56931D01*
D02*
G37*
G36*
X-15373Y53024D02*
X-15898D01*
X-17916Y56039D01*
Y53024D01*
X-18404D01*
Y56867D01*
X-17882D01*
X-15861Y53849D01*
Y56867D01*
X-15373D01*
Y53024D01*
D02*
G37*
G36*
X-13045Y56864D02*
X-12996D01*
X-12947Y56860D01*
X-12835Y56852D01*
X-12722Y56845D01*
X-12614Y56830D01*
X-12561Y56822D01*
X-12516Y56811D01*
X-12512D01*
X-12501Y56807D01*
X-12482Y56804D01*
X-12460Y56796D01*
X-12430Y56789D01*
X-12400Y56777D01*
X-12362Y56762D01*
X-12321Y56747D01*
X-12231Y56710D01*
X-12137Y56661D01*
X-12040Y56605D01*
X-11950Y56534D01*
X-11946Y56530D01*
X-11935Y56522D01*
X-11920Y56507D01*
X-11901Y56489D01*
X-11875Y56462D01*
X-11845Y56432D01*
X-11815Y56395D01*
X-11777Y56357D01*
X-11743Y56312D01*
X-11706Y56260D01*
X-11668Y56207D01*
X-11631Y56151D01*
X-11593Y56087D01*
X-11560Y56020D01*
X-11496Y55877D01*
Y55874D01*
X-11489Y55859D01*
X-11481Y55836D01*
X-11473Y55806D01*
X-11458Y55769D01*
X-11447Y55724D01*
X-11432Y55671D01*
X-11417Y55615D01*
X-11406Y55551D01*
X-11391Y55480D01*
X-11376Y55405D01*
X-11365Y55326D01*
X-11357Y55240D01*
X-11350Y55154D01*
X-11342Y54966D01*
Y54962D01*
Y54947D01*
Y54925D01*
Y54891D01*
X-11346Y54854D01*
Y54809D01*
X-11350Y54760D01*
X-11353Y54704D01*
X-11361Y54644D01*
X-11368Y54584D01*
X-11387Y54452D01*
X-11413Y54317D01*
X-11447Y54186D01*
Y54182D01*
X-11451Y54171D01*
X-11458Y54152D01*
X-11466Y54130D01*
X-11477Y54100D01*
X-11489Y54066D01*
X-11503Y54029D01*
X-11518Y53991D01*
X-11556Y53901D01*
X-11601Y53807D01*
X-11653Y53714D01*
X-11710Y53627D01*
Y53624D01*
X-11717Y53616D01*
X-11725Y53605D01*
X-11736Y53590D01*
X-11770Y53552D01*
X-11811Y53500D01*
X-11863Y53444D01*
X-11923Y53387D01*
X-11987Y53331D01*
X-12059Y53279D01*
X-12062D01*
X-12066Y53275D01*
X-12077Y53267D01*
X-12092Y53256D01*
X-12111Y53249D01*
X-12133Y53234D01*
X-12186Y53207D01*
X-12253Y53177D01*
X-12332Y53144D01*
X-12422Y53114D01*
X-12520Y53087D01*
X-12523D01*
X-12531Y53084D01*
X-12546Y53080D01*
X-12568Y53076D01*
X-12591Y53072D01*
X-12621Y53069D01*
X-12659Y53061D01*
X-12696Y53057D01*
X-12741Y53050D01*
X-12786Y53042D01*
X-12891Y53035D01*
X-13007Y53027D01*
X-13135Y53024D01*
X-14522D01*
Y56867D01*
X-13086D01*
X-13045Y56864D01*
D02*
G37*
G36*
X58752Y41412D02*
X57729D01*
X55692Y44713D01*
Y41412D01*
X54748D01*
Y46455D01*
X55737D01*
X57808Y43080D01*
Y46455D01*
X58752D01*
Y41412D01*
D02*
G37*
G36*
X75043Y45603D02*
X72597D01*
Y44408D01*
X74708D01*
Y43557D01*
X72597D01*
Y41412D01*
X71579D01*
Y46455D01*
X75043D01*
Y45603D01*
D02*
G37*
G36*
X70738D02*
X68292D01*
Y44408D01*
X70403D01*
Y43557D01*
X68292D01*
Y41412D01*
X67274D01*
Y46455D01*
X70738D01*
Y45603D01*
D02*
G37*
G36*
X64096Y46538D02*
X64130D01*
X64204Y46533D01*
X64302Y46524D01*
X64410Y46509D01*
X64529Y46484D01*
X64661Y46455D01*
X64799Y46420D01*
X64947Y46376D01*
X65094Y46317D01*
X65242Y46253D01*
X65390Y46169D01*
X65532Y46081D01*
X65675Y45972D01*
X65803Y45849D01*
X65813Y45840D01*
X65832Y45815D01*
X65867Y45776D01*
X65906Y45722D01*
X65960Y45653D01*
X66014Y45564D01*
X66078Y45466D01*
X66142Y45348D01*
X66201Y45220D01*
X66265Y45077D01*
X66319Y44915D01*
X66373Y44747D01*
X66413Y44561D01*
X66447Y44364D01*
X66467Y44152D01*
X66477Y43926D01*
Y43921D01*
Y43911D01*
Y43896D01*
Y43872D01*
Y43842D01*
X66472Y43808D01*
Y43768D01*
X66467Y43724D01*
X66457Y43621D01*
X66442Y43503D01*
X66423Y43370D01*
X66393Y43232D01*
X66359Y43080D01*
X66315Y42922D01*
X66260Y42765D01*
X66196Y42607D01*
X66118Y42450D01*
X66029Y42297D01*
X65926Y42150D01*
X65808Y42017D01*
X65798Y42007D01*
X65778Y41987D01*
X65739Y41953D01*
X65685Y41909D01*
X65621Y41859D01*
X65537Y41800D01*
X65444Y41736D01*
X65335Y41672D01*
X65217Y41609D01*
X65084Y41544D01*
X64937Y41490D01*
X64779Y41436D01*
X64607Y41392D01*
X64425Y41358D01*
X64233Y41338D01*
X64032Y41328D01*
X63982D01*
X63958Y41333D01*
X63923D01*
X63845Y41338D01*
X63751Y41348D01*
X63643Y41363D01*
X63520Y41387D01*
X63387Y41412D01*
X63249Y41451D01*
X63102Y41495D01*
X62954Y41549D01*
X62806Y41618D01*
X62659Y41697D01*
X62511Y41786D01*
X62374Y41894D01*
X62246Y42012D01*
X62241Y42022D01*
X62216Y42041D01*
X62187Y42081D01*
X62142Y42140D01*
X62093Y42209D01*
X62034Y42292D01*
X61975Y42391D01*
X61916Y42504D01*
X61852Y42632D01*
X61793Y42775D01*
X61734Y42927D01*
X61685Y43099D01*
X61641Y43281D01*
X61611Y43473D01*
X61591Y43680D01*
X61581Y43901D01*
Y43911D01*
Y43936D01*
Y43975D01*
X61586Y44029D01*
Y44098D01*
X61591Y44172D01*
X61601Y44260D01*
X61611Y44354D01*
X61621Y44452D01*
X61636Y44556D01*
X61675Y44772D01*
X61734Y44989D01*
X61768Y45097D01*
X61808Y45195D01*
Y45200D01*
X61818Y45215D01*
X61827Y45235D01*
X61837Y45259D01*
X61857Y45294D01*
X61877Y45333D01*
X61901Y45377D01*
X61931Y45426D01*
X62000Y45530D01*
X62078Y45648D01*
X62172Y45766D01*
X62275Y45884D01*
X62280Y45889D01*
X62290Y45899D01*
X62305Y45913D01*
X62329Y45933D01*
X62354Y45963D01*
X62388Y45992D01*
X62472Y46056D01*
X62565Y46130D01*
X62679Y46209D01*
X62802Y46278D01*
X62929Y46341D01*
X62934D01*
X62949Y46351D01*
X62979Y46361D01*
X63013Y46371D01*
X63057Y46391D01*
X63112Y46406D01*
X63175Y46425D01*
X63244Y46445D01*
X63318Y46460D01*
X63402Y46479D01*
X63495Y46499D01*
X63589Y46514D01*
X63692Y46524D01*
X63795Y46533D01*
X64022Y46543D01*
X64071D01*
X64096Y46538D01*
D02*
G37*
G36*
X60022Y41328D02*
X59308D01*
X60553Y46543D01*
X61281D01*
X60022Y41328D01*
D02*
G37*
G36*
X51569Y46538D02*
X51604D01*
X51678Y46533D01*
X51776Y46524D01*
X51884Y46509D01*
X52002Y46484D01*
X52135Y46455D01*
X52273Y46420D01*
X52420Y46376D01*
X52568Y46317D01*
X52716Y46253D01*
X52863Y46169D01*
X53006Y46081D01*
X53149Y45972D01*
X53276Y45849D01*
X53286Y45840D01*
X53306Y45815D01*
X53340Y45776D01*
X53380Y45722D01*
X53434Y45653D01*
X53488Y45564D01*
X53552Y45466D01*
X53616Y45348D01*
X53675Y45220D01*
X53739Y45077D01*
X53793Y44915D01*
X53847Y44747D01*
X53887Y44561D01*
X53921Y44364D01*
X53941Y44152D01*
X53951Y43926D01*
Y43921D01*
Y43911D01*
Y43896D01*
Y43872D01*
Y43842D01*
X53946Y43808D01*
Y43768D01*
X53941Y43724D01*
X53931Y43621D01*
X53916Y43503D01*
X53896Y43370D01*
X53867Y43232D01*
X53832Y43080D01*
X53788Y42922D01*
X53734Y42765D01*
X53670Y42607D01*
X53591Y42450D01*
X53503Y42297D01*
X53399Y42150D01*
X53281Y42017D01*
X53272Y42007D01*
X53252Y41987D01*
X53212Y41953D01*
X53158Y41909D01*
X53094Y41859D01*
X53011Y41800D01*
X52917Y41736D01*
X52809Y41672D01*
X52691Y41609D01*
X52558Y41544D01*
X52411Y41490D01*
X52253Y41436D01*
X52081Y41392D01*
X51899Y41358D01*
X51707Y41338D01*
X51505Y41328D01*
X51456D01*
X51432Y41333D01*
X51397D01*
X51318Y41338D01*
X51225Y41348D01*
X51117Y41363D01*
X50994Y41387D01*
X50861Y41412D01*
X50723Y41451D01*
X50575Y41495D01*
X50428Y41549D01*
X50280Y41618D01*
X50133Y41697D01*
X49985Y41786D01*
X49847Y41894D01*
X49719Y42012D01*
X49714Y42022D01*
X49690Y42041D01*
X49660Y42081D01*
X49616Y42140D01*
X49567Y42209D01*
X49508Y42292D01*
X49449Y42391D01*
X49390Y42504D01*
X49326Y42632D01*
X49267Y42775D01*
X49208Y42927D01*
X49158Y43099D01*
X49114Y43281D01*
X49085Y43473D01*
X49065Y43680D01*
X49055Y43901D01*
Y43911D01*
Y43936D01*
Y43975D01*
X49060Y44029D01*
Y44098D01*
X49065Y44172D01*
X49075Y44260D01*
X49085Y44354D01*
X49095Y44452D01*
X49109Y44556D01*
X49149Y44772D01*
X49208Y44989D01*
X49242Y45097D01*
X49281Y45195D01*
Y45200D01*
X49291Y45215D01*
X49301Y45235D01*
X49311Y45259D01*
X49331Y45294D01*
X49350Y45333D01*
X49375Y45377D01*
X49404Y45426D01*
X49473Y45530D01*
X49552Y45648D01*
X49646Y45766D01*
X49749Y45884D01*
X49754Y45889D01*
X49764Y45899D01*
X49778Y45913D01*
X49803Y45933D01*
X49828Y45963D01*
X49862Y45992D01*
X49946Y46056D01*
X50039Y46130D01*
X50152Y46209D01*
X50275Y46278D01*
X50403Y46341D01*
X50408D01*
X50423Y46351D01*
X50452Y46361D01*
X50487Y46371D01*
X50531Y46391D01*
X50585Y46406D01*
X50649Y46425D01*
X50718Y46445D01*
X50792Y46460D01*
X50876Y46479D01*
X50969Y46499D01*
X51063Y46514D01*
X51166Y46524D01*
X51269Y46533D01*
X51495Y46543D01*
X51545D01*
X51569Y46538D01*
D02*
G37*
%LPC*%
G36*
X239128Y47538D02*
X239050D01*
X238991Y47528D01*
X238922Y47518D01*
X238833Y47508D01*
X238745Y47489D01*
X238636Y47459D01*
X238420Y47390D01*
X238302Y47341D01*
X238174Y47282D01*
X238056Y47213D01*
X237938Y47125D01*
X237820Y47036D01*
X237711Y46928D01*
X237702Y46918D01*
X237682Y46898D01*
X237662Y46869D01*
X237623Y46820D01*
X237574Y46761D01*
X237525Y46692D01*
X237475Y46603D01*
X237426Y46505D01*
X237367Y46397D01*
X237318Y46279D01*
X237269Y46151D01*
X237219Y46013D01*
X237180Y45865D01*
X237160Y45698D01*
X237141Y45531D01*
X237131Y45353D01*
Y45344D01*
Y45324D01*
Y45294D01*
Y45245D01*
X237141Y45186D01*
Y45117D01*
X237160Y44960D01*
X237200Y44773D01*
X237239Y44566D01*
X237308Y44350D01*
X237397Y44124D01*
Y44114D01*
X237406Y44094D01*
X237426Y44065D01*
X237446Y44025D01*
X237505Y43927D01*
X237593Y43799D01*
X237702Y43651D01*
X237829Y43504D01*
X237987Y43366D01*
X238154Y43238D01*
X238164D01*
X238174Y43228D01*
X238203Y43208D01*
X238243Y43189D01*
X238331Y43139D01*
X238459Y43090D01*
X238617Y43031D01*
X238794Y42982D01*
X238981Y42943D01*
X239178Y42933D01*
X239256D01*
X239305Y42943D01*
X239374Y42953D01*
X239453Y42962D01*
X239640Y43012D01*
X239857Y43090D01*
X239965Y43139D01*
X240083Y43199D01*
X240191Y43268D01*
X240309Y43356D01*
X240417Y43454D01*
X240526Y43563D01*
X240535Y43573D01*
X240555Y43592D01*
X240575Y43632D01*
X240614Y43681D01*
X240654Y43740D01*
X240703Y43819D01*
X240762Y43907D01*
X240811Y44015D01*
X240860Y44133D01*
X240919Y44261D01*
X240968Y44399D01*
X241008Y44556D01*
X241047Y44724D01*
X241077Y44901D01*
X241087Y45088D01*
X241096Y45285D01*
Y45294D01*
Y45334D01*
Y45383D01*
X241087Y45462D01*
X241077Y45540D01*
X241067Y45649D01*
X241047Y45757D01*
X241027Y45885D01*
X240959Y46141D01*
X240919Y46279D01*
X240860Y46416D01*
X240791Y46554D01*
X240722Y46682D01*
X240634Y46810D01*
X240535Y46928D01*
X240526Y46938D01*
X240506Y46957D01*
X240476Y46987D01*
X240437Y47026D01*
X240378Y47066D01*
X240319Y47125D01*
X240240Y47174D01*
X240152Y47233D01*
X240053Y47292D01*
X239955Y47341D01*
X239709Y47440D01*
X239581Y47479D01*
X239433Y47508D01*
X239286Y47528D01*
X239128Y47538D01*
D02*
G37*
G36*
X192142Y47538D02*
X192064D01*
X192005Y47528D01*
X191936Y47518D01*
X191847Y47508D01*
X191759Y47489D01*
X191650Y47459D01*
X191434Y47390D01*
X191316Y47341D01*
X191188Y47282D01*
X191070Y47213D01*
X190952Y47125D01*
X190834Y47036D01*
X190725Y46928D01*
X190716Y46918D01*
X190696Y46898D01*
X190676Y46869D01*
X190637Y46820D01*
X190588Y46761D01*
X190539Y46692D01*
X190489Y46603D01*
X190440Y46505D01*
X190381Y46397D01*
X190332Y46279D01*
X190283Y46151D01*
X190233Y46013D01*
X190194Y45865D01*
X190174Y45698D01*
X190155Y45531D01*
X190145Y45353D01*
Y45344D01*
Y45324D01*
Y45294D01*
Y45245D01*
X190155Y45186D01*
Y45117D01*
X190174Y44960D01*
X190214Y44773D01*
X190253Y44566D01*
X190322Y44350D01*
X190410Y44124D01*
Y44114D01*
X190420Y44094D01*
X190440Y44065D01*
X190460Y44025D01*
X190519Y43927D01*
X190607Y43799D01*
X190716Y43651D01*
X190843Y43504D01*
X191001Y43366D01*
X191168Y43238D01*
X191178D01*
X191188Y43228D01*
X191217Y43208D01*
X191257Y43189D01*
X191345Y43139D01*
X191473Y43090D01*
X191631Y43031D01*
X191808Y42982D01*
X191995Y42943D01*
X192192Y42933D01*
X192270D01*
X192320Y42943D01*
X192388Y42953D01*
X192467Y42962D01*
X192654Y43012D01*
X192870Y43090D01*
X192979Y43139D01*
X193097Y43199D01*
X193205Y43268D01*
X193323Y43356D01*
X193431Y43454D01*
X193540Y43563D01*
X193550Y43573D01*
X193569Y43592D01*
X193589Y43632D01*
X193628Y43681D01*
X193668Y43740D01*
X193717Y43819D01*
X193776Y43907D01*
X193825Y44015D01*
X193874Y44133D01*
X193933Y44261D01*
X193983Y44399D01*
X194022Y44556D01*
X194061Y44724D01*
X194091Y44901D01*
X194100Y45088D01*
X194110Y45285D01*
Y45294D01*
Y45334D01*
Y45383D01*
X194100Y45462D01*
X194091Y45540D01*
X194081Y45649D01*
X194061Y45757D01*
X194042Y45885D01*
X193973Y46141D01*
X193933Y46279D01*
X193874Y46416D01*
X193805Y46554D01*
X193737Y46682D01*
X193648Y46810D01*
X193550Y46928D01*
X193540Y46938D01*
X193520Y46957D01*
X193491Y46987D01*
X193451Y47026D01*
X193392Y47066D01*
X193333Y47125D01*
X193254Y47174D01*
X193166Y47233D01*
X193067Y47292D01*
X192969Y47341D01*
X192723Y47440D01*
X192595Y47479D01*
X192447Y47508D01*
X192300Y47528D01*
X192142Y47538D01*
D02*
G37*
G36*
X200575Y50185D02*
X197407Y45629D01*
X200575D01*
Y50185D01*
D02*
G37*
G36*
X231227Y51199D02*
X231158D01*
X231109Y51189D01*
X231050D01*
X230971Y51179D01*
X230814Y51139D01*
X230627Y51090D01*
X230430Y51002D01*
X230233Y50893D01*
X230135Y50815D01*
X230046Y50736D01*
Y50726D01*
X230026Y50716D01*
X229977Y50657D01*
X229899Y50559D01*
X229820Y50431D01*
X229731Y50274D01*
X229653Y50087D01*
X229603Y49880D01*
X229593Y49772D01*
X229584Y49654D01*
Y49644D01*
Y49624D01*
Y49585D01*
X229593Y49536D01*
Y49477D01*
X229603Y49408D01*
X229643Y49240D01*
X229692Y49053D01*
X229770Y48857D01*
X229889Y48660D01*
X229958Y48571D01*
X230036Y48483D01*
X230046D01*
X230056Y48463D01*
X230085Y48443D01*
X230125Y48414D01*
X230223Y48335D01*
X230361Y48256D01*
X230528Y48178D01*
X230735Y48099D01*
X230971Y48050D01*
X231099Y48040D01*
X231237Y48030D01*
X231306D01*
X231355Y48040D01*
X231414D01*
X231492Y48050D01*
X231650Y48089D01*
X231837Y48138D01*
X232034Y48217D01*
X232230Y48325D01*
X232319Y48394D01*
X232408Y48473D01*
X232417Y48483D01*
X232427Y48493D01*
X232447Y48522D01*
X232476Y48551D01*
X232555Y48650D01*
X232644Y48778D01*
X232722Y48945D01*
X232801Y49132D01*
X232851Y49349D01*
X232870Y49467D01*
Y49585D01*
Y49595D01*
Y49614D01*
Y49654D01*
X232860Y49703D01*
Y49752D01*
X232851Y49821D01*
X232811Y49978D01*
X232752Y50165D01*
X232673Y50352D01*
X232555Y50549D01*
X232476Y50638D01*
X232398Y50726D01*
X232388Y50736D01*
X232378Y50746D01*
X232349Y50766D01*
X232309Y50805D01*
X232211Y50874D01*
X232073Y50962D01*
X231906Y51051D01*
X231709Y51130D01*
X231483Y51179D01*
X231355Y51189D01*
X231227Y51199D01*
D02*
G37*
G36*
X231197Y47017D02*
X231109D01*
X231050Y47007D01*
X230981Y46997D01*
X230892Y46987D01*
X230794Y46967D01*
X230686Y46948D01*
X230459Y46879D01*
X230341Y46830D01*
X230213Y46771D01*
X230095Y46702D01*
X229977Y46633D01*
X229859Y46534D01*
X229751Y46436D01*
X229741Y46426D01*
X229731Y46406D01*
X229702Y46377D01*
X229662Y46328D01*
X229623Y46279D01*
X229574Y46210D01*
X229515Y46131D01*
X229466Y46042D01*
X229416Y45934D01*
X229357Y45826D01*
X229269Y45580D01*
X229229Y45442D01*
X229210Y45304D01*
X229190Y45147D01*
X229180Y44989D01*
Y44980D01*
Y44970D01*
Y44940D01*
Y44901D01*
X229190Y44793D01*
X229210Y44665D01*
X229239Y44507D01*
X229288Y44330D01*
X229347Y44153D01*
X229426Y43966D01*
Y43956D01*
X229436Y43946D01*
X229475Y43887D01*
X229534Y43799D01*
X229613Y43691D01*
X229712Y43563D01*
X229839Y43435D01*
X229987Y43307D01*
X230164Y43199D01*
X230174D01*
X230184Y43189D01*
X230213Y43179D01*
X230253Y43159D01*
X230351Y43110D01*
X230489Y43071D01*
X230646Y43022D01*
X230833Y42972D01*
X231030Y42943D01*
X231237Y42933D01*
X231325D01*
X231384Y42943D01*
X231463Y42953D01*
X231552Y42962D01*
X231650Y42982D01*
X231758Y43002D01*
X231984Y43071D01*
X232113Y43120D01*
X232230Y43169D01*
X232359Y43238D01*
X232476Y43307D01*
X232595Y43395D01*
X232703Y43494D01*
X232713Y43504D01*
X232732Y43523D01*
X232752Y43553D01*
X232791Y43602D01*
X232841Y43651D01*
X232890Y43720D01*
X232939Y43799D01*
X232998Y43887D01*
X233047Y43986D01*
X233097Y44104D01*
X233195Y44350D01*
X233234Y44488D01*
X233254Y44635D01*
X233274Y44793D01*
X233283Y44950D01*
Y44960D01*
Y44989D01*
Y45039D01*
X233274Y45098D01*
X233264Y45176D01*
X233254Y45265D01*
X233234Y45363D01*
X233205Y45472D01*
X233136Y45708D01*
X233087Y45826D01*
X233028Y45954D01*
X232959Y46072D01*
X232880Y46200D01*
X232791Y46318D01*
X232683Y46426D01*
X232673Y46436D01*
X232654Y46456D01*
X232624Y46485D01*
X232575Y46515D01*
X232516Y46564D01*
X232447Y46613D01*
X232368Y46662D01*
X232280Y46721D01*
X232172Y46780D01*
X232063Y46830D01*
X231807Y46928D01*
X231670Y46957D01*
X231522Y46987D01*
X231365Y47007D01*
X231197Y47017D01*
D02*
G37*
G36*
X223355Y51189D02*
X223276D01*
X223217Y51179D01*
X223138Y51169D01*
X223060Y51149D01*
X222863Y51100D01*
X222755Y51061D01*
X222646Y51012D01*
X222528Y50953D01*
X222420Y50884D01*
X222302Y50795D01*
X222194Y50697D01*
X222085Y50588D01*
X221987Y50460D01*
X221977Y50451D01*
X221958Y50421D01*
X221928Y50362D01*
X221889Y50274D01*
X221839Y50175D01*
X221790Y50037D01*
X221731Y49880D01*
X221672Y49693D01*
X221613Y49467D01*
X221554Y49221D01*
X221505Y48945D01*
X221456Y48630D01*
X221416Y48296D01*
X221387Y47912D01*
X221367Y47499D01*
X221357Y47056D01*
Y47046D01*
Y47026D01*
Y46997D01*
Y46948D01*
Y46889D01*
Y46820D01*
X221367Y46741D01*
Y46652D01*
X221377Y46456D01*
X221387Y46229D01*
X221407Y45974D01*
X221426Y45708D01*
X221495Y45157D01*
X221544Y44881D01*
X221603Y44616D01*
X221672Y44360D01*
X221751Y44124D01*
X221839Y43917D01*
X221938Y43750D01*
X221948Y43740D01*
X221967Y43710D01*
X221997Y43671D01*
X222046Y43622D01*
X222095Y43563D01*
X222164Y43494D01*
X222243Y43415D01*
X222332Y43346D01*
X222440Y43268D01*
X222548Y43189D01*
X222794Y43061D01*
X222922Y43012D01*
X223070Y42972D01*
X223217Y42943D01*
X223375Y42933D01*
X223414D01*
X223453Y42943D01*
X223512D01*
X223591Y42962D01*
X223670Y42972D01*
X223768Y43002D01*
X223867Y43031D01*
X223985Y43080D01*
X224093Y43130D01*
X224211Y43199D01*
X224329Y43277D01*
X224457Y43376D01*
X224575Y43484D01*
X224693Y43602D01*
X224801Y43750D01*
X224811Y43759D01*
X224831Y43789D01*
X224860Y43838D01*
X224890Y43917D01*
X224939Y44015D01*
X224988Y44143D01*
X225038Y44291D01*
X225097Y44478D01*
X225156Y44684D01*
X225205Y44921D01*
X225254Y45186D01*
X225303Y45491D01*
X225333Y45826D01*
X225362Y46200D01*
X225382Y46613D01*
X225392Y47056D01*
Y47066D01*
Y47085D01*
Y47115D01*
Y47164D01*
Y47223D01*
Y47292D01*
X225382Y47371D01*
Y47459D01*
X225372Y47656D01*
X225362Y47882D01*
X225342Y48138D01*
X225323Y48404D01*
X225254Y48955D01*
X225205Y49231D01*
X225146Y49506D01*
X225077Y49752D01*
X225008Y49988D01*
X224910Y50195D01*
X224811Y50362D01*
X224801Y50372D01*
X224782Y50401D01*
X224752Y50441D01*
X224703Y50490D01*
X224654Y50559D01*
X224585Y50628D01*
X224506Y50697D01*
X224408Y50775D01*
X224309Y50854D01*
X224201Y50923D01*
X223955Y51061D01*
X223817Y51110D01*
X223670Y51149D01*
X223512Y51179D01*
X223355Y51189D01*
D02*
G37*
G36*
X184241Y51199D02*
X184172D01*
X184123Y51189D01*
X184064D01*
X183985Y51179D01*
X183828Y51139D01*
X183641Y51090D01*
X183444Y51002D01*
X183247Y50893D01*
X183149Y50815D01*
X183060Y50736D01*
Y50726D01*
X183040Y50716D01*
X182991Y50657D01*
X182913Y50559D01*
X182834Y50431D01*
X182745Y50274D01*
X182667Y50087D01*
X182617Y49880D01*
X182607Y49772D01*
X182598Y49654D01*
Y49644D01*
Y49624D01*
Y49585D01*
X182607Y49536D01*
Y49477D01*
X182617Y49408D01*
X182657Y49240D01*
X182706Y49053D01*
X182784Y48857D01*
X182903Y48660D01*
X182972Y48571D01*
X183050Y48483D01*
X183060D01*
X183070Y48463D01*
X183099Y48443D01*
X183139Y48414D01*
X183237Y48335D01*
X183375Y48256D01*
X183542Y48178D01*
X183749Y48099D01*
X183985Y48050D01*
X184113Y48040D01*
X184251Y48030D01*
X184320D01*
X184369Y48040D01*
X184428D01*
X184506Y48050D01*
X184664Y48089D01*
X184851Y48138D01*
X185048Y48217D01*
X185245Y48325D01*
X185333Y48394D01*
X185422Y48473D01*
X185432Y48483D01*
X185441Y48493D01*
X185461Y48522D01*
X185491Y48551D01*
X185569Y48650D01*
X185658Y48778D01*
X185737Y48945D01*
X185815Y49132D01*
X185864Y49349D01*
X185884Y49467D01*
Y49585D01*
Y49595D01*
Y49614D01*
Y49654D01*
X185874Y49703D01*
Y49752D01*
X185864Y49821D01*
X185825Y49978D01*
X185766Y50165D01*
X185687Y50352D01*
X185569Y50549D01*
X185491Y50638D01*
X185412Y50726D01*
X185402Y50736D01*
X185392Y50746D01*
X185363Y50766D01*
X185323Y50805D01*
X185225Y50874D01*
X185087Y50962D01*
X184920Y51051D01*
X184723Y51130D01*
X184497Y51179D01*
X184369Y51189D01*
X184241Y51199D01*
D02*
G37*
G36*
X184211Y47017D02*
X184123D01*
X184064Y47007D01*
X183995Y46997D01*
X183906Y46987D01*
X183808Y46967D01*
X183700Y46948D01*
X183473Y46879D01*
X183355Y46830D01*
X183227Y46771D01*
X183109Y46702D01*
X182991Y46633D01*
X182873Y46534D01*
X182765Y46436D01*
X182755Y46426D01*
X182745Y46406D01*
X182716Y46377D01*
X182676Y46328D01*
X182637Y46279D01*
X182588Y46210D01*
X182529Y46131D01*
X182480Y46042D01*
X182430Y45934D01*
X182371Y45826D01*
X182283Y45580D01*
X182243Y45442D01*
X182224Y45304D01*
X182204Y45147D01*
X182194Y44989D01*
Y44980D01*
Y44970D01*
Y44940D01*
Y44901D01*
X182204Y44793D01*
X182224Y44665D01*
X182253Y44507D01*
X182302Y44330D01*
X182361Y44153D01*
X182440Y43966D01*
Y43956D01*
X182450Y43946D01*
X182489Y43887D01*
X182548Y43799D01*
X182627Y43691D01*
X182726Y43563D01*
X182853Y43435D01*
X183001Y43307D01*
X183178Y43199D01*
X183188D01*
X183198Y43189D01*
X183227Y43179D01*
X183267Y43159D01*
X183365Y43110D01*
X183503Y43071D01*
X183660Y43021D01*
X183847Y42972D01*
X184044Y42943D01*
X184251Y42933D01*
X184339D01*
X184398Y42943D01*
X184477Y42953D01*
X184566Y42962D01*
X184664Y42982D01*
X184772Y43002D01*
X184999Y43071D01*
X185126Y43120D01*
X185245Y43169D01*
X185372Y43238D01*
X185491Y43307D01*
X185609Y43395D01*
X185717Y43494D01*
X185727Y43504D01*
X185746Y43523D01*
X185766Y43553D01*
X185805Y43602D01*
X185855Y43651D01*
X185904Y43720D01*
X185953Y43799D01*
X186012Y43887D01*
X186061Y43986D01*
X186110Y44104D01*
X186209Y44350D01*
X186248Y44488D01*
X186268Y44635D01*
X186288Y44793D01*
X186297Y44950D01*
Y44960D01*
Y44989D01*
Y45039D01*
X186288Y45098D01*
X186278Y45176D01*
X186268Y45265D01*
X186248Y45363D01*
X186219Y45472D01*
X186150Y45708D01*
X186101Y45826D01*
X186042Y45954D01*
X185973Y46072D01*
X185894Y46200D01*
X185805Y46318D01*
X185697Y46426D01*
X185687Y46436D01*
X185668Y46456D01*
X185638Y46485D01*
X185589Y46515D01*
X185530Y46564D01*
X185461Y46613D01*
X185382Y46662D01*
X185294Y46721D01*
X185186Y46780D01*
X185077Y46830D01*
X184821Y46928D01*
X184684Y46957D01*
X184536Y46987D01*
X184379Y47007D01*
X184211Y47017D01*
D02*
G37*
G36*
X-20696Y76187D02*
X-21990D01*
Y74911D01*
X-20843D01*
X-20812Y74915D01*
X-20779D01*
X-20741Y74919D01*
X-20700D01*
X-20614Y74930D01*
X-20524Y74941D01*
X-20434Y74960D01*
X-20355Y74983D01*
X-20351D01*
X-20347Y74986D01*
X-20321Y74998D01*
X-20288Y75013D01*
X-20246Y75039D01*
X-20198Y75069D01*
X-20149Y75110D01*
X-20100Y75155D01*
X-20059Y75212D01*
Y75215D01*
X-20055Y75219D01*
X-20044Y75242D01*
X-20025Y75271D01*
X-20006Y75317D01*
X-19987Y75369D01*
X-19969Y75425D01*
X-19958Y75493D01*
X-19954Y75560D01*
Y75564D01*
Y75572D01*
Y75586D01*
X-19958Y75605D01*
X-19961Y75628D01*
X-19965Y75658D01*
X-19980Y75718D01*
X-20003Y75789D01*
X-20036Y75864D01*
X-20059Y75905D01*
X-20085Y75939D01*
X-20119Y75977D01*
X-20153Y76010D01*
X-20156Y76014D01*
X-20160Y76018D01*
X-20175Y76025D01*
X-20190Y76037D01*
X-20212Y76051D01*
X-20239Y76066D01*
X-20269Y76082D01*
X-20306Y76100D01*
X-20347Y76115D01*
X-20392Y76130D01*
X-20441Y76145D01*
X-20497Y76160D01*
X-20561Y76171D01*
X-20625Y76179D01*
X-20696Y76187D01*
D02*
G37*
G36*
X-13123Y56414D02*
X-14012D01*
Y53477D01*
X-13131D01*
X-13101Y53481D01*
X-13063D01*
X-13022Y53485D01*
X-12977D01*
X-12880Y53492D01*
X-12782Y53507D01*
X-12685Y53522D01*
X-12640Y53534D01*
X-12598Y53545D01*
X-12595D01*
X-12587Y53549D01*
X-12576Y53552D01*
X-12561Y53560D01*
X-12523Y53575D01*
X-12475Y53597D01*
X-12418Y53627D01*
X-12362Y53661D01*
X-12306Y53702D01*
X-12253Y53747D01*
X-12250Y53751D01*
X-12246Y53755D01*
X-12235Y53766D01*
X-12223Y53781D01*
X-12208Y53800D01*
X-12190Y53819D01*
X-12148Y53875D01*
X-12103Y53946D01*
X-12055Y54029D01*
X-12010Y54122D01*
X-11968Y54231D01*
Y54235D01*
X-11965Y54246D01*
X-11957Y54261D01*
X-11953Y54287D01*
X-11946Y54317D01*
X-11935Y54351D01*
X-11927Y54392D01*
X-11916Y54441D01*
X-11908Y54490D01*
X-11901Y54546D01*
X-11890Y54610D01*
X-11882Y54674D01*
X-11875Y54745D01*
X-11871Y54816D01*
X-11867Y54974D01*
Y54981D01*
Y55000D01*
Y55030D01*
X-11871Y55071D01*
X-11875Y55124D01*
X-11878Y55180D01*
X-11882Y55244D01*
X-11893Y55315D01*
X-11901Y55386D01*
X-11916Y55461D01*
X-11950Y55615D01*
X-11972Y55690D01*
X-11998Y55765D01*
X-12032Y55832D01*
X-12066Y55896D01*
X-12070Y55900D01*
X-12073Y55911D01*
X-12085Y55926D01*
X-12100Y55949D01*
X-12122Y55975D01*
X-12145Y56005D01*
X-12201Y56072D01*
X-12272Y56147D01*
X-12355Y56219D01*
X-12448Y56282D01*
X-12497Y56312D01*
X-12550Y56335D01*
X-12553D01*
X-12561Y56339D01*
X-12572Y56342D01*
X-12587Y56346D01*
X-12610Y56354D01*
X-12636Y56361D01*
X-12670Y56369D01*
X-12707Y56376D01*
X-12752Y56380D01*
X-12797Y56387D01*
X-12854Y56395D01*
X-12913Y56402D01*
X-12977Y56406D01*
X-13048Y56410D01*
X-13123Y56414D01*
D02*
G37*
G36*
X64032Y45672D02*
X64002D01*
X63973Y45667D01*
X63928D01*
X63874Y45658D01*
X63810Y45648D01*
X63741Y45638D01*
X63668Y45618D01*
X63589Y45594D01*
X63505Y45569D01*
X63421Y45530D01*
X63338Y45490D01*
X63249Y45441D01*
X63171Y45382D01*
X63087Y45318D01*
X63013Y45239D01*
X63008Y45235D01*
X62998Y45220D01*
X62979Y45195D01*
X62954Y45161D01*
X62925Y45112D01*
X62890Y45057D01*
X62856Y44989D01*
X62821Y44915D01*
X62787Y44826D01*
X62752Y44733D01*
X62718Y44624D01*
X62688Y44506D01*
X62664Y44378D01*
X62644Y44241D01*
X62634Y44093D01*
X62629Y43936D01*
Y43926D01*
Y43896D01*
X62634Y43852D01*
Y43793D01*
X62639Y43724D01*
X62649Y43640D01*
X62664Y43552D01*
X62679Y43453D01*
X62698Y43350D01*
X62728Y43242D01*
X62757Y43134D01*
X62797Y43025D01*
X62841Y42922D01*
X62895Y42819D01*
X62954Y42725D01*
X63023Y42637D01*
X63028Y42632D01*
X63043Y42617D01*
X63062Y42597D01*
X63097Y42568D01*
X63136Y42533D01*
X63180Y42499D01*
X63235Y42460D01*
X63298Y42420D01*
X63367Y42376D01*
X63446Y42337D01*
X63530Y42302D01*
X63618Y42268D01*
X63712Y42238D01*
X63815Y42219D01*
X63918Y42204D01*
X64032Y42199D01*
X64061D01*
X64091Y42204D01*
X64135D01*
X64184Y42214D01*
X64243Y42224D01*
X64312Y42233D01*
X64386Y42253D01*
X64465Y42278D01*
X64543Y42307D01*
X64627Y42342D01*
X64711Y42386D01*
X64794Y42435D01*
X64878Y42494D01*
X64961Y42558D01*
X65035Y42637D01*
X65040Y42642D01*
X65050Y42656D01*
X65070Y42681D01*
X65099Y42720D01*
X65129Y42765D01*
X65158Y42824D01*
X65198Y42888D01*
X65232Y42966D01*
X65267Y43055D01*
X65306Y43148D01*
X65335Y43257D01*
X65370Y43375D01*
X65394Y43503D01*
X65414Y43640D01*
X65424Y43793D01*
X65429Y43950D01*
Y43955D01*
Y43960D01*
Y43990D01*
Y44034D01*
X65424Y44093D01*
X65419Y44167D01*
X65409Y44246D01*
X65394Y44339D01*
X65380Y44438D01*
X65360Y44541D01*
X65335Y44649D01*
X65306Y44752D01*
X65267Y44861D01*
X65222Y44964D01*
X65173Y45067D01*
X65114Y45161D01*
X65045Y45244D01*
X65040Y45249D01*
X65025Y45264D01*
X65006Y45284D01*
X64976Y45313D01*
X64937Y45343D01*
X64893Y45382D01*
X64838Y45417D01*
X64775Y45461D01*
X64706Y45500D01*
X64627Y45540D01*
X64548Y45574D01*
X64455Y45603D01*
X64361Y45633D01*
X64258Y45653D01*
X64145Y45667D01*
X64032Y45672D01*
D02*
G37*
G36*
X51505D02*
X51476D01*
X51446Y45667D01*
X51402D01*
X51348Y45658D01*
X51284Y45648D01*
X51215Y45638D01*
X51141Y45618D01*
X51063Y45594D01*
X50979Y45569D01*
X50895Y45530D01*
X50812Y45490D01*
X50723Y45441D01*
X50644Y45382D01*
X50561Y45318D01*
X50487Y45239D01*
X50482Y45235D01*
X50472Y45220D01*
X50452Y45195D01*
X50428Y45161D01*
X50398Y45112D01*
X50364Y45057D01*
X50329Y44989D01*
X50295Y44915D01*
X50261Y44826D01*
X50226Y44733D01*
X50192Y44624D01*
X50162Y44506D01*
X50138Y44378D01*
X50118Y44241D01*
X50108Y44093D01*
X50103Y43936D01*
Y43926D01*
Y43896D01*
X50108Y43852D01*
Y43793D01*
X50113Y43724D01*
X50123Y43640D01*
X50138Y43552D01*
X50152Y43453D01*
X50172Y43350D01*
X50201Y43242D01*
X50231Y43134D01*
X50270Y43025D01*
X50315Y42922D01*
X50369Y42819D01*
X50428Y42725D01*
X50497Y42637D01*
X50502Y42632D01*
X50516Y42617D01*
X50536Y42597D01*
X50570Y42568D01*
X50610Y42533D01*
X50654Y42499D01*
X50708Y42460D01*
X50772Y42420D01*
X50841Y42376D01*
X50920Y42337D01*
X51003Y42302D01*
X51092Y42268D01*
X51186Y42238D01*
X51289Y42219D01*
X51392Y42204D01*
X51505Y42199D01*
X51535D01*
X51564Y42204D01*
X51609D01*
X51658Y42214D01*
X51717Y42224D01*
X51786Y42233D01*
X51859Y42253D01*
X51938Y42278D01*
X52017Y42307D01*
X52101Y42342D01*
X52184Y42386D01*
X52268Y42435D01*
X52351Y42494D01*
X52435Y42558D01*
X52509Y42637D01*
X52514Y42642D01*
X52524Y42656D01*
X52543Y42681D01*
X52573Y42720D01*
X52602Y42765D01*
X52632Y42824D01*
X52671Y42888D01*
X52706Y42966D01*
X52740Y43055D01*
X52780Y43148D01*
X52809Y43257D01*
X52843Y43375D01*
X52868Y43503D01*
X52888Y43640D01*
X52898Y43793D01*
X52903Y43950D01*
Y43955D01*
Y43960D01*
Y43990D01*
Y44034D01*
X52898Y44093D01*
X52893Y44167D01*
X52883Y44246D01*
X52868Y44339D01*
X52853Y44438D01*
X52834Y44541D01*
X52809Y44649D01*
X52780Y44752D01*
X52740Y44861D01*
X52696Y44964D01*
X52647Y45067D01*
X52588Y45161D01*
X52519Y45244D01*
X52514Y45249D01*
X52499Y45264D01*
X52479Y45284D01*
X52450Y45313D01*
X52411Y45343D01*
X52366Y45382D01*
X52312Y45417D01*
X52248Y45461D01*
X52179Y45500D01*
X52101Y45540D01*
X52022Y45574D01*
X51928Y45603D01*
X51835Y45633D01*
X51732Y45653D01*
X51618Y45667D01*
X51505Y45672D01*
D02*
G37*
%LPD*%
D10*
X134484Y70780D02*
G03*
X134484Y70780I-984J0D01*
G01*
D11*
X145500Y83280D02*
G03*
X145500Y83280I-3000J0D01*
G01*
X319618Y20146D02*
G03*
X319618Y20146I-18110J0D01*
G01*
X-2520Y133819D02*
G03*
X-2520Y133819I-15748J0D01*
G01*
X414016Y5472D02*
G03*
X414016Y5472I-15748J0D01*
G01*
X-2520D02*
G03*
X-2520Y5472I-15748J0D01*
G01*
X414016Y133819D02*
G03*
X414016Y133819I-15748J0D01*
G01*
X82505Y13762D02*
G03*
X74660Y13762I-3922J5883D01*
G01*
X104439Y-10667D02*
X121565D01*
X275699D01*
Y149963D01*
X104439D02*
X275699D01*
X104439Y-10667D02*
Y149963D01*
X136500Y77279D02*
X170500D01*
X136500Y111279D02*
X170500D01*
X136500Y77279D02*
Y111279D01*
X170500Y77279D02*
Y111279D01*
X296417Y20646D02*
X306417D01*
X296417Y18646D02*
X306418D01*
X296417Y22343D02*
X306417D01*
X296417Y18646D02*
X296417Y20646D01*
Y16855D02*
X306417D01*
X306417Y20646D02*
X306418Y18646D01*
X301417Y22843D02*
Y25146D01*
Y14146D02*
Y16855D01*
X310417Y7146D02*
Y12146D01*
X307917Y9646D02*
X312917D01*
X398600Y-25874D02*
Y-23874D01*
X-17935Y-25874D02*
Y-23874D01*
X392600Y-26874D02*
X398600Y-24874D01*
X392600Y-22874D02*
X398600Y-24874D01*
X-17935D02*
X-11935Y-26874D01*
X-17935Y-24874D02*
X-11935Y-22874D01*
X218424Y-24874D02*
X398600D01*
X-17935D02*
X162241D01*
X427372Y134002D02*
X429372D01*
X427372Y5655D02*
X429372D01*
X428371Y134002D02*
X430372Y128002D01*
X426371D02*
X428371Y134002D01*
Y5655D02*
X430372Y11655D01*
X426371D02*
X428371Y5655D01*
Y95421D02*
Y134002D01*
Y5655D02*
Y44236D01*
X75083Y13646D02*
X82083D01*
X-7614Y60646D02*
Y78646D01*
X14386Y60646D02*
Y78646D01*
X-614Y55646D02*
X7386D01*
X-614Y83646D02*
X7386D01*
X-1614Y76646D02*
X1286D01*
X-1614Y62646D02*
Y76646D01*
Y62646D02*
X1286D01*
X7386Y66646D02*
Y72546D01*
X2786Y69646D02*
X5386D01*
X-1614D02*
X986D01*
X23882Y84268D02*
Y102268D01*
X45882Y84268D02*
Y102268D01*
X30882Y79268D02*
X38882D01*
X30882Y107268D02*
X38882D01*
X29882Y100268D02*
X32782D01*
X29882Y86268D02*
Y100268D01*
Y86268D02*
X32782D01*
X38882Y90268D02*
Y96168D01*
X34282Y93268D02*
X36882D01*
X29882D02*
X32482D01*
X55378Y60646D02*
Y78646D01*
X77378Y60646D02*
Y78646D01*
X62378Y55646D02*
X70378D01*
X62378Y83646D02*
X70378D01*
X61378Y76646D02*
X64278D01*
X61378Y62646D02*
Y76646D01*
Y62646D02*
X64278D01*
X70378Y66646D02*
Y72546D01*
X65778Y69646D02*
X68378D01*
X61378D02*
X63978D01*
X302622Y60646D02*
Y78646D01*
X324622Y60646D02*
Y78646D01*
X309622Y55646D02*
X317622D01*
X309622Y83646D02*
X317622D01*
X308622Y76646D02*
X311522D01*
X308622Y62646D02*
Y76646D01*
Y62646D02*
X311522D01*
X317622Y66646D02*
Y72546D01*
X313022Y69646D02*
X315622D01*
X308622D02*
X311222D01*
X334118Y84268D02*
Y102268D01*
X356118Y84268D02*
Y102268D01*
X341118Y79268D02*
X349118D01*
X341118Y107268D02*
X349118D01*
X340118Y100268D02*
X343018D01*
X340118Y86268D02*
Y100268D01*
Y86268D02*
X343018D01*
X349118Y90268D02*
Y96168D01*
X344518Y93268D02*
X347118D01*
X340118D02*
X342718D01*
X365614Y60646D02*
Y78646D01*
X387614Y60646D02*
Y78646D01*
X372614Y55646D02*
X380614D01*
X372614Y83646D02*
X380614D01*
X371614Y76646D02*
X374514D01*
X371614Y62646D02*
Y76646D01*
Y62646D02*
X374514D01*
X380614Y66646D02*
Y72546D01*
X376014Y69646D02*
X378614D01*
X371614D02*
X374214D01*
X23882Y37024D02*
Y55024D01*
X45882Y37024D02*
Y55024D01*
X30882Y32024D02*
X38882D01*
X30882Y60024D02*
X38882D01*
X29882Y53024D02*
X32782D01*
X29882Y39024D02*
Y53024D01*
Y39024D02*
X32782D01*
X38882Y43024D02*
Y48924D01*
X34282Y46024D02*
X36882D01*
X29882D02*
X32482D01*
X334118Y37024D02*
Y55024D01*
X356118Y37024D02*
Y55024D01*
X341118Y32024D02*
X349118D01*
X341118Y60024D02*
X349118D01*
X340118Y53024D02*
X343018D01*
X340118Y39024D02*
Y53024D01*
Y39024D02*
X343018D01*
X349118Y43024D02*
Y48924D01*
X344518Y46024D02*
X347118D01*
X340118D02*
X342718D01*
X222177Y78740D02*
X218504D01*
X222177Y82414D01*
Y83332D01*
X221259Y84250D01*
X219422D01*
X218504Y83332D01*
X227687Y78740D02*
X224014D01*
X227687Y82414D01*
Y83332D01*
X226769Y84250D01*
X224932D01*
X224014Y83332D01*
X229524Y78740D02*
Y84250D01*
X232279D01*
X233197Y83332D01*
Y81495D01*
X232279Y80577D01*
X229524D01*
X238707Y84250D02*
X235034D01*
Y81495D01*
X236871D01*
X235034D01*
Y78740D01*
X222177Y98425D02*
X218504D01*
X222177Y102099D01*
Y103017D01*
X221259Y103935D01*
X219422D01*
X218504Y103017D01*
X227687Y98425D02*
X224014D01*
X227687Y102099D01*
Y103017D01*
X226769Y103935D01*
X224932D01*
X224014Y103017D01*
X229524Y98425D02*
Y103935D01*
X232279D01*
X233197Y103017D01*
Y101180D01*
X232279Y100262D01*
X229524D01*
X238707Y103935D02*
X235034D01*
Y101180D01*
X236871D01*
X235034D01*
Y98425D01*
D12*
X83898Y19646D02*
G03*
X83898Y19646I-5315J0D01*
G01*
X113457Y27629D02*
Y124873D01*
Y27629D02*
X267000D01*
Y124873D01*
X113457D02*
X267000D01*
X-34000Y49331D02*
X-24000D01*
X-34000D02*
Y89331D01*
X-24000Y49331D02*
Y89331D01*
X-34000D02*
X-24000D01*
D13*
X208432Y80211D02*
Y83211D01*
X207432Y80211D02*
Y83211D01*
X206932Y81711D02*
X207432D01*
X208432D02*
X208932D01*
X208432Y99079D02*
Y102079D01*
X207432Y99079D02*
Y102079D01*
X206932Y100579D02*
X207432D01*
X208432D02*
X208932D01*
X27462Y-7295D02*
Y2547D01*
Y-7295D02*
X31399D01*
Y2547D01*
X27462D02*
X31399D01*
X42347Y-7295D02*
Y2547D01*
X38410Y-7295D02*
X42347D01*
X38410D02*
Y2547D01*
X42347D01*
X28882Y-5268D02*
Y2547D01*
Y-5268D02*
X29682D01*
X29882D01*
Y2547D01*
X39882Y-5268D02*
Y2547D01*
Y-5268D02*
X40882D01*
Y2547D01*
X163241Y-28473D02*
X165241D01*
X164241D01*
Y-22475D01*
X163241Y-23475D01*
X168240D02*
X169239Y-22475D01*
X171239D01*
X172238Y-23475D01*
Y-27473D01*
X171239Y-28473D01*
X169239D01*
X168240Y-27473D01*
Y-23475D01*
X178236Y-22475D02*
X174238D01*
Y-25474D01*
X176237Y-24474D01*
X177237D01*
X178236Y-25474D01*
Y-27473D01*
X177237Y-28473D01*
X175237D01*
X174238Y-27473D01*
X180236Y-28473D02*
Y-27473D01*
X181236D01*
Y-28473D01*
X180236D01*
X185234Y-23475D02*
X186234Y-22475D01*
X188233D01*
X189233Y-23475D01*
Y-24474D01*
X188233Y-25474D01*
X189233Y-26474D01*
Y-27473D01*
X188233Y-28473D01*
X186234D01*
X185234Y-27473D01*
Y-26474D01*
X186234Y-25474D01*
X185234Y-24474D01*
Y-23475D01*
X186234Y-25474D02*
X188233D01*
X199230Y-28473D02*
X197230Y-26474D01*
Y-24474D01*
X199230Y-22475D01*
X202229Y-28473D02*
Y-24474D01*
X203228D01*
X204228Y-25474D01*
Y-28473D01*
Y-25474D01*
X205228Y-24474D01*
X206227Y-25474D01*
Y-28473D01*
X208227D02*
Y-24474D01*
X209226D01*
X210226Y-25474D01*
Y-28473D01*
Y-25474D01*
X211226Y-24474D01*
X212225Y-25474D01*
Y-28473D01*
X214225D02*
X216224Y-26474D01*
Y-24474D01*
X214225Y-22475D01*
X426972Y45236D02*
X425972Y46236D01*
Y48235D01*
X426972Y49235D01*
X427972D01*
X428971Y48235D01*
Y47236D01*
Y48235D01*
X429971Y49235D01*
X430971D01*
X431971Y48235D01*
Y46236D01*
X430971Y45236D01*
X431971Y55233D02*
Y51234D01*
X427972Y55233D01*
X426972D01*
X425972Y54233D01*
Y52234D01*
X426972Y51234D01*
X431971Y57232D02*
X430971D01*
Y58232D01*
X431971D01*
Y57232D01*
X425972Y66229D02*
X426972Y64230D01*
X428971Y62231D01*
X430971D01*
X431971Y63230D01*
Y65230D01*
X430971Y66229D01*
X429971D01*
X428971Y65230D01*
Y62231D01*
X431971Y76226D02*
X429971Y74227D01*
X427972D01*
X425972Y76226D01*
X431971Y79225D02*
X427972D01*
Y80225D01*
X428971Y81225D01*
X431971D01*
X428971D01*
X427972Y82224D01*
X428971Y83224D01*
X431971D01*
Y85223D02*
X427972D01*
Y86223D01*
X428971Y87223D01*
X431971D01*
X428971D01*
X427972Y88222D01*
X428971Y89222D01*
X431971D01*
Y91221D02*
X429971Y93221D01*
X427972D01*
X425972Y91221D01*
D14*
X201239Y78111D02*
Y85311D01*
X214625Y78111D02*
Y85311D01*
X209432Y78111D02*
X214625D01*
X201239D02*
X206432D01*
X201239Y85311D02*
X206432D01*
X209432D02*
X214625D01*
X201239Y96979D02*
Y104179D01*
X214625Y96979D02*
Y104179D01*
X209432Y96979D02*
X214625D01*
X201239D02*
X206432D01*
X201239Y104179D02*
X206432D01*
X209432D02*
X214625D01*
X41882Y12598D02*
X45882D01*
X23882D02*
X27882D01*
X34882Y-13228D02*
Y3599D01*
X48882Y2599D02*
Y6599D01*
Y-13401D02*
Y-7401D01*
X20882Y-13401D02*
X48882D01*
X20882D02*
Y-7401D01*
Y2599D02*
Y6599D01*
D15*
X28264Y16540D02*
X29764Y15040D01*
X28264Y16540D02*
X31264D01*
X29764Y15040D02*
X31264Y16540D01*
M02*
