M48
;Layer_Color=9474304
;FILE_FORMAT=2:5
INCH,LZ
;TYPE=PLATED
T1F00S00C0.01181
T2F00S00C0.01575
T4F00S00C0.02362
T5F00S00C0.03543
T6F00S00C0.03937
T7F00S00C0.12500
;TYPE=NON_PLATED
T8F00S00C0.02165
%
T01
X0022Y0024
X0026
X003
X0034
X0038
T02
X-003Y002
Y003
X-002
Y002
X-001
X0
X001
X0007626Y002388
X001Y001
X0
Y0
X001
X003Y-0005
X004
X0065Y002
Y003
X0095Y001
X0105
X0165Y0
X0175
X0174Y0035
X0185Y0
X0195
X0205
X0215
X0225
X0235Y001
X0245
X0255
Y0
X0265
X0275
X0285
X0295
X0305
X0315
X0325
X0259Y0025
Y003
Y0035
X0253Y003
Y0025
X0248
X0213Y0026
X0208Y0021
X0218Y0031
X0365Y003
X0375
X0385
X0395
X0405
Y004
Y005
Y006
Y007
Y008
Y009
Y01
Y011
X0395
X0385
X0375
Y01
X0365
Y011
X0375Y012
Y013
Y014
X0385
Y013
Y012
X0395
X0405
X0395Y01
X0385
X0395Y009
Y008
Y007
Y006
Y005
Y004
X0375
X0365
X0345
Y005
Y009
Y01
X0375Y0075
Y0065
X0315Y006
Y009
Y01
X0275
Y0105
Y0095
X02749Y009
X0275Y0084831
Y008
X02749Y0066961
X02812Y0068361
Y0063858
X02845Y0076061
X02715Y0057861
X02595Y0057061
X0246Y0036
X0223
X0208Y0045
X0202
Y004
X0179
Y0045
X018Y0064
X0194Y0068
X02029Y0065282
X0255Y0138858
X0176414Y0126472
X016Y0105
X0155
X015
X0145
X014
X0142499Y010872
X01525Y010872
X0152499Y009122
X01525Y0085961
X01517Y0065461
X0148Y0062261
X01566Y0063261
X01753Y00651
X0174Y0045
Y004
X01615Y0043
X0154
X014Y004
X013
X012
X011
Y0055
X0115
Y006
X011
X0105
Y0055
X01
X0095
X009
X0085
Y006
X009
X0095
X01
Y0065
X0105
X011
X0115
X012974Y006546
X0095Y0065
X009
X0085
X0085532Y0110011
X0090532Y0105161
X0100532Y0102261
X0110532Y0098861
X0105532Y0117511
X01Y012
X0095
X009
X0085
X008
Y0135
X0085
X009
X0095
X01
Y014
X0095
X009
X0085
X008
X0095532Y0113511
X0142499Y0098701
X004Y004
X002
X001
X0
X-003
Y01
Y011
Y012
X-002
Y011
X-001Y012
Y01
Y009
X0
Y01
Y011
X001
Y01
Y009
T04
X0196332Y0081562
Y010046
T05
X0078583Y0009646
Y0019646
Y0029646
X0185Y0033858
X0195
X0301417Y0029488
Y0009803
X0343532Y0124871
Y0134871
Y0144871
X0360664
Y0134871
Y0124871
X0316
Y0134871
Y0144871
X0306
Y0134871
Y0124871
X0296Y0134961
Y0144961
X0286
Y0134961
X0326
Y0144961
X0055496Y0144871
Y0134871
Y0124871
X0045496
Y0134871
Y0144871
X0035496
Y0134871
Y0124871
X0019528Y0125
Y0135
Y0145
X0003662Y0144936
Y0134936
Y0124936
X-0029Y0084331
Y0074331
Y0064331
Y0054331
T06
X0026024Y0032638
X004374
X0131802Y-0004761
X0141802
X0238337
X0248337
X033626Y0032638
X0353976
Y0059409
X0367756Y005626
X0385472
Y0083031
X0367756
X0353976Y0079882
X033626
Y0059409
Y0106654
X0353976
X032248Y0083031
X0304764
Y005626
X032248
X0244991Y0143861
X0234991
X0224991
X0214991
X0204991
X0194991
X0184991
X0174991
X0164991
X0154991
X0144991
X0134991
X004374Y0106654
X0026024
Y0079882
X004374
X005752Y0083031
Y005626
X004374Y0059409
X0026024
X0075236Y005626
X0012244
X-0005472
Y0083031
X0012244
T07
X-0018268Y0005472
X0398268
Y0133819
X-0018268
T08
X0027008Y0006142
X0042756
M30
