G04*
G04 #@! TF.GenerationSoftware,Altium Limited,Altium Designer,21.9.1 (22)*
G04*
G04 Layer_Physical_Order=1*
G04 Layer_Color=255*
%FSLAX25Y25*%
%MOIN*%
G70*
G04*
G04 #@! TF.SameCoordinates,41BA0B49-DCAA-4547-B712-30F71D3BADEB*
G04*
G04*
G04 #@! TF.FilePolarity,Positive*
G04*
G01*
G75*
%ADD11C,0.01000*%
%ADD30C,0.00965*%
%ADD31C,0.01575*%
%ADD32O,0.07480X0.01772*%
%ADD33O,0.01772X0.07480*%
%ADD34R,0.03500X0.05000*%
%ADD35C,0.07480*%
%ADD36R,0.01500X0.08465*%
%ADD37C,0.01181*%
%ADD38C,0.02362*%
%ADD39C,0.01299*%
%ADD40C,0.03150*%
%ADD41C,0.01496*%
%ADD42C,0.03937*%
%ADD43C,0.01968*%
%ADD44C,0.07087*%
%ADD45R,0.07087X0.07087*%
%ADD46C,0.20000*%
%ADD47C,0.06693*%
%ADD48R,0.06693X0.06693*%
%ADD49C,0.05118*%
%ADD50R,0.07480X0.07480*%
%ADD51O,0.04724X0.07874*%
%ADD52C,0.03150*%
%ADD53C,0.02362*%
G36*
X302771Y148100D02*
X302045Y147154D01*
X301589Y146053D01*
X301433Y144871D01*
X301589Y143689D01*
X302045Y142588D01*
X302771Y141642D01*
X302799Y141207D01*
X300919Y139326D01*
X300528Y139488D01*
Y139488D01*
X300528Y139488D01*
X291473D01*
Y134045D01*
X290989Y133562D01*
X290528Y133754D01*
Y139488D01*
X281472D01*
Y136767D01*
X176705D01*
X176014Y136629D01*
X175428Y136238D01*
X162067Y122878D01*
X161606Y123069D01*
Y129030D01*
X172439Y139864D01*
X172608Y139734D01*
X173757Y139258D01*
X174991Y139095D01*
X176224Y139258D01*
X177373Y139734D01*
X178360Y140491D01*
X179117Y141478D01*
X179593Y142627D01*
X179741Y143745D01*
X180241D01*
X180388Y142627D01*
X180864Y141478D01*
X181621Y140491D01*
X182608Y139734D01*
X183757Y139258D01*
X184991Y139095D01*
X186224Y139258D01*
X187373Y139734D01*
X188360Y140491D01*
X189117Y141478D01*
X189593Y142627D01*
X189741Y143745D01*
X190241D01*
X190388Y142627D01*
X190864Y141478D01*
X191621Y140491D01*
X192608Y139734D01*
X193757Y139258D01*
X194203Y139199D01*
Y143861D01*
X195778D01*
Y139199D01*
X196224Y139258D01*
X197373Y139734D01*
X198360Y140491D01*
X199117Y141478D01*
X199593Y142627D01*
X199741Y143745D01*
X200241D01*
X200388Y142627D01*
X200864Y141478D01*
X201621Y140491D01*
X202608Y139734D01*
X203757Y139258D01*
X204991Y139095D01*
X206224Y139258D01*
X207373Y139734D01*
X208360Y140491D01*
X209117Y141478D01*
X209593Y142627D01*
X209741Y143745D01*
X210241D01*
X210388Y142627D01*
X210864Y141478D01*
X211621Y140491D01*
X212608Y139734D01*
X213757Y139258D01*
X214991Y139095D01*
X216224Y139258D01*
X217373Y139734D01*
X218360Y140491D01*
X219117Y141478D01*
X219593Y142627D01*
X219741Y143745D01*
X220241D01*
X220388Y142627D01*
X220864Y141478D01*
X221621Y140491D01*
X222608Y139734D01*
X223757Y139258D01*
X224991Y139095D01*
X226224Y139258D01*
X227373Y139734D01*
X228360Y140491D01*
X229117Y141478D01*
X229593Y142627D01*
X229741Y143745D01*
X230241D01*
X230388Y142627D01*
X230864Y141478D01*
X231621Y140491D01*
X232608Y139734D01*
X233757Y139258D01*
X234991Y139095D01*
X236224Y139258D01*
X237373Y139734D01*
X238360Y140491D01*
X239117Y141478D01*
X239593Y142627D01*
X239741Y143745D01*
X240241D01*
X240388Y142627D01*
X240864Y141478D01*
X241621Y140491D01*
X242608Y139734D01*
X243757Y139258D01*
X244991Y139095D01*
X246224Y139258D01*
X247373Y139734D01*
X248360Y140491D01*
X249117Y141478D01*
X249593Y142627D01*
X249756Y143861D01*
X249593Y145094D01*
X249117Y146243D01*
X248360Y147230D01*
X247373Y147987D01*
X247185Y148065D01*
X247283Y148556D01*
X282487D01*
X282708Y148107D01*
X282045Y147244D01*
X281589Y146143D01*
X281537Y145748D01*
X290463D01*
X290411Y146143D01*
X289955Y147244D01*
X289292Y148107D01*
X289513Y148556D01*
X292487D01*
X292708Y148107D01*
X292045Y147244D01*
X291589Y146143D01*
X291537Y145748D01*
X300463D01*
X300411Y146143D01*
X299955Y147244D01*
X299292Y148107D01*
X299514Y148556D01*
X302616D01*
X302771Y148100D01*
D02*
G37*
G36*
X400577Y148397D02*
X402829Y147856D01*
X404968Y146969D01*
X406943Y145759D01*
X408704Y144255D01*
X410208Y142494D01*
X411418Y140519D01*
X412305Y138380D01*
X412845Y136128D01*
X413021Y133900D01*
X413004Y133819D01*
Y5472D01*
X413021Y5391D01*
X412845Y3164D01*
X412305Y912D01*
X411418Y-1228D01*
X410208Y-3203D01*
X408704Y-4964D01*
X406943Y-6468D01*
X404968Y-7678D01*
X402829Y-8564D01*
X400577Y-9105D01*
X398348Y-9280D01*
X398268Y-9264D01*
X398268D01*
Y-9264D01*
X398267Y-9264D01*
X251007D01*
X250846Y-8791D01*
X251706Y-8131D01*
X252464Y-7144D01*
X252940Y-5995D01*
X253102Y-4761D01*
X252940Y-3528D01*
X252464Y-2379D01*
X251706Y-1392D01*
X250720Y-635D01*
X249570Y-158D01*
X248337Y4D01*
X247104Y-158D01*
X245954Y-635D01*
X244968Y-1392D01*
X244210Y-2379D01*
X243734Y-3528D01*
X243587Y-4646D01*
X243087D01*
X242940Y-3528D01*
X242464Y-2379D01*
X241706Y-1392D01*
X240720Y-635D01*
X239570Y-158D01*
X238337Y4D01*
X237104Y-158D01*
X235954Y-635D01*
X234967Y-1392D01*
X234210Y-2379D01*
X233734Y-3528D01*
X233572Y-4761D01*
X233734Y-5995D01*
X234210Y-7144D01*
X234967Y-8131D01*
X235828Y-8791D01*
X235667Y-9264D01*
X144472D01*
X144311Y-8791D01*
X145171Y-8131D01*
X145928Y-7144D01*
X146404Y-5995D01*
X146567Y-4761D01*
X146404Y-3528D01*
X145928Y-2379D01*
X145171Y-1392D01*
X144184Y-635D01*
X143035Y-158D01*
X141802Y4D01*
X140568Y-158D01*
X139419Y-635D01*
X138432Y-1392D01*
X137675Y-2379D01*
X137199Y-3528D01*
X137052Y-4646D01*
X136552D01*
X136404Y-3528D01*
X135928Y-2379D01*
X135171Y-1392D01*
X134184Y-635D01*
X133035Y-158D01*
X131802Y4D01*
X130568Y-158D01*
X129419Y-635D01*
X128432Y-1392D01*
X127675Y-2379D01*
X127199Y-3528D01*
X127036Y-4761D01*
X127199Y-5995D01*
X127675Y-7144D01*
X128432Y-8131D01*
X129292Y-8791D01*
X129132Y-9264D01*
X-18267D01*
X-18268Y-9264D01*
Y-9264D01*
X-18268D01*
X-18349Y-9280D01*
X-20577Y-9105D01*
X-22829Y-8564D01*
X-24968Y-7678D01*
X-26943Y-6468D01*
X-28704Y-4964D01*
X-30208Y-3203D01*
X-31418Y-1228D01*
X-32305Y912D01*
X-32845Y3164D01*
X-33021Y5391D01*
X-33004Y5472D01*
Y49803D01*
X-29787D01*
Y54331D01*
Y58858D01*
X-33004D01*
Y61334D01*
X-32531Y61495D01*
X-32229Y61102D01*
X-31283Y60376D01*
X-30182Y59920D01*
X-29000Y59764D01*
X-27818Y59920D01*
X-26717Y60376D01*
X-25771Y61102D01*
X-25045Y62047D01*
X-24589Y63149D01*
X-24433Y64331D01*
X-24589Y65513D01*
X-25045Y66614D01*
X-25771Y67560D01*
X-26717Y68286D01*
X-27818Y68742D01*
X-29000Y68897D01*
X-30182Y68742D01*
X-31283Y68286D01*
X-32229Y67560D01*
X-32531Y67166D01*
X-33004Y67327D01*
Y71334D01*
X-32531Y71495D01*
X-32229Y71102D01*
X-31283Y70376D01*
X-30182Y69920D01*
X-29000Y69764D01*
X-27818Y69920D01*
X-26717Y70376D01*
X-25771Y71102D01*
X-25045Y72047D01*
X-24589Y73149D01*
X-24433Y74331D01*
X-24589Y75513D01*
X-25045Y76614D01*
X-25771Y77560D01*
X-26717Y78285D01*
X-27818Y78742D01*
X-29000Y78897D01*
X-30182Y78742D01*
X-31283Y78285D01*
X-32229Y77560D01*
X-32531Y77166D01*
X-33004Y77327D01*
Y81334D01*
X-32531Y81495D01*
X-32229Y81102D01*
X-31283Y80376D01*
X-30182Y79920D01*
X-29000Y79764D01*
X-27818Y79920D01*
X-26717Y80376D01*
X-25771Y81102D01*
X-25045Y82047D01*
X-24589Y83149D01*
X-24433Y84331D01*
X-24589Y85513D01*
X-25045Y86614D01*
X-25771Y87560D01*
X-26717Y88285D01*
X-27818Y88742D01*
X-29000Y88897D01*
X-30182Y88742D01*
X-31283Y88285D01*
X-32229Y87560D01*
X-32531Y87166D01*
X-33004Y87327D01*
Y133819D01*
X-33021Y133900D01*
X-32845Y136128D01*
X-32305Y138380D01*
X-31418Y140519D01*
X-30208Y142494D01*
X-28704Y144255D01*
X-26943Y145759D01*
X-24968Y146969D01*
X-22829Y147856D01*
X-20577Y148397D01*
X-18349Y148572D01*
X-18268Y148556D01*
X-866D01*
Y145724D01*
X3662D01*
Y144936D01*
X4449D01*
Y140409D01*
X8189D01*
Y142592D01*
X15000D01*
Y140472D01*
X18740D01*
Y145000D01*
X20315D01*
Y140472D01*
X24055D01*
Y142462D01*
X31637D01*
X32267Y141642D01*
X33213Y140916D01*
X34314Y140460D01*
X34709Y140408D01*
Y144871D01*
X36284D01*
Y140408D01*
X36678Y140460D01*
X37780Y140916D01*
X38725Y141642D01*
X39355Y142462D01*
X41638D01*
X42267Y141642D01*
X43213Y140916D01*
X44314Y140460D01*
X44709Y140408D01*
Y144871D01*
X46284D01*
Y140408D01*
X46678Y140460D01*
X47780Y140916D01*
X48725Y141642D01*
X49355Y142462D01*
X51638D01*
X52267Y141642D01*
X53213Y140916D01*
X54314Y140460D01*
X54709Y140408D01*
Y144871D01*
X55496D01*
Y145658D01*
X59959D01*
X59907Y146053D01*
X59451Y147154D01*
X58725Y148100D01*
X58880Y148556D01*
X132699D01*
X132796Y148065D01*
X132608Y147987D01*
X131621Y147230D01*
X130864Y146243D01*
X130388Y145094D01*
X130225Y143861D01*
X130388Y142627D01*
X130864Y141478D01*
X131621Y140491D01*
X132608Y139734D01*
X133194Y139491D01*
Y133043D01*
X133331Y132351D01*
X133723Y131765D01*
X142245Y123243D01*
Y122290D01*
X141783Y122098D01*
X139951Y123930D01*
X139300Y124365D01*
X138532Y124518D01*
X134532D01*
X133764Y124365D01*
X133112Y123930D01*
X128700Y119518D01*
X107443D01*
X106922Y119918D01*
X106251Y120196D01*
X105532Y120291D01*
X104812Y120196D01*
X104142Y119918D01*
X103566Y119477D01*
X103124Y118901D01*
X102847Y118230D01*
X102752Y117511D01*
X102847Y116792D01*
X103124Y116121D01*
X103243Y115967D01*
X103022Y115518D01*
X97443D01*
X96921Y115918D01*
X96251Y116196D01*
X95532Y116291D01*
X94812Y116196D01*
X94142Y115918D01*
X93566Y115477D01*
X93124Y114901D01*
X92847Y114231D01*
X92752Y113511D01*
X92847Y112792D01*
X92988Y112450D01*
X92710Y112035D01*
X87422D01*
X86922Y112418D01*
X86251Y112696D01*
X85532Y112791D01*
X84812Y112696D01*
X84142Y112418D01*
X83566Y111977D01*
X83124Y111401D01*
X82884Y110820D01*
X82393Y110722D01*
X59766Y133349D01*
X59907Y133689D01*
X60063Y134871D01*
X59907Y136053D01*
X59451Y137154D01*
X58725Y138100D01*
X57780Y138826D01*
X56678Y139282D01*
X55496Y139437D01*
X54314Y139282D01*
X53213Y138826D01*
X52267Y138100D01*
X51541Y137154D01*
X51085Y136053D01*
X50930Y134871D01*
X51085Y133689D01*
X51541Y132588D01*
X52267Y131642D01*
X53213Y130916D01*
X54314Y130460D01*
X55496Y130304D01*
X56678Y130460D01*
X57292Y130714D01*
X58146Y129860D01*
X57954Y129398D01*
X52240D01*
Y129808D01*
X52102Y130499D01*
X51710Y131085D01*
X49673Y133123D01*
X49907Y133689D01*
X50063Y134871D01*
X49907Y136053D01*
X49451Y137154D01*
X48725Y138100D01*
X47780Y138826D01*
X46678Y139282D01*
X45496Y139437D01*
X44314Y139282D01*
X43213Y138826D01*
X42267Y138100D01*
X41541Y137154D01*
X41085Y136053D01*
X40930Y134871D01*
X41085Y133689D01*
X41541Y132588D01*
X42267Y131642D01*
X43213Y130916D01*
X44314Y130460D01*
X45496Y130304D01*
X46678Y130460D01*
X47066Y130621D01*
X47826Y129860D01*
X47635Y129398D01*
X42136D01*
X42102Y129567D01*
X41710Y130153D01*
X39375Y132489D01*
X39451Y132588D01*
X39907Y133689D01*
X40063Y134871D01*
X39907Y136053D01*
X39451Y137154D01*
X38725Y138100D01*
X37780Y138826D01*
X36678Y139282D01*
X35496Y139437D01*
X34314Y139282D01*
X33213Y138826D01*
X32267Y138100D01*
X31541Y137154D01*
X31085Y136053D01*
X30930Y134871D01*
X31085Y133689D01*
X31541Y132588D01*
X32267Y131642D01*
X33213Y130916D01*
X34314Y130460D01*
X35496Y130304D01*
X36340Y130415D01*
X36894Y129860D01*
X36703Y129398D01*
X30969D01*
Y120343D01*
X38627D01*
Y119609D01*
X38764Y118918D01*
X39156Y118332D01*
X39508Y117980D01*
X39317Y117518D01*
X32363D01*
X29539Y120342D01*
Y126996D01*
X29386Y127764D01*
X28951Y128415D01*
X23824Y133542D01*
X23939Y133818D01*
X24094Y135000D01*
X23939Y136182D01*
X23483Y137283D01*
X22757Y138229D01*
X21811Y138955D01*
X20710Y139411D01*
X19528Y139567D01*
X18346Y139411D01*
X17244Y138955D01*
X16299Y138229D01*
X15573Y137283D01*
X15117Y136182D01*
X14961Y135000D01*
X15117Y133818D01*
X15573Y132717D01*
X16299Y131771D01*
X17244Y131045D01*
X18346Y130589D01*
X19528Y130433D01*
X20710Y130589D01*
X20986Y130703D01*
X23076Y128613D01*
X22746Y128237D01*
X22746Y128237D01*
X21811Y128955D01*
X20710Y129411D01*
X19528Y129567D01*
X18346Y129411D01*
X17244Y128955D01*
X16299Y128229D01*
X15573Y127283D01*
X15117Y126182D01*
X14961Y125000D01*
X15117Y123818D01*
X15573Y122717D01*
X16299Y121771D01*
X17244Y121045D01*
X18346Y120589D01*
X19528Y120433D01*
X20710Y120589D01*
X21811Y121045D01*
X22757Y121771D01*
X23483Y122717D01*
X23939Y123818D01*
X24094Y125000D01*
X23939Y126182D01*
X23483Y127283D01*
X22765Y128218D01*
X22988Y128414D01*
X23141Y128548D01*
X25525Y126164D01*
Y119511D01*
X25525Y119511D01*
X25525D01*
X25677Y118743D01*
X26112Y118092D01*
X28799Y115405D01*
X28608Y114943D01*
X18568D01*
X13539Y119972D01*
Y127066D01*
X13411Y127707D01*
X13386Y127834D01*
X12951Y128485D01*
X7958Y133478D01*
X8073Y133754D01*
X8228Y134936D01*
X8073Y136118D01*
X7616Y137220D01*
X6891Y138165D01*
X5945Y138891D01*
X4843Y139347D01*
X3662Y139503D01*
X2480Y139347D01*
X1378Y138891D01*
X433Y138165D01*
X-293Y137220D01*
X-750Y136118D01*
X-905Y134936D01*
X-750Y133754D01*
X-293Y132653D01*
X433Y131707D01*
X1378Y130982D01*
X2480Y130525D01*
X3662Y130370D01*
X4843Y130525D01*
X5120Y130640D01*
X7210Y128549D01*
X6880Y128173D01*
X6880Y128173D01*
X5945Y128891D01*
X4843Y129347D01*
X3662Y129503D01*
X2480Y129347D01*
X1378Y128891D01*
X433Y128165D01*
X-293Y127220D01*
X-750Y126118D01*
X-905Y124936D01*
X-750Y123754D01*
X-293Y122653D01*
X433Y121707D01*
X1378Y120982D01*
X2480Y120525D01*
X3662Y120370D01*
X4843Y120525D01*
X5945Y120982D01*
X6891Y121707D01*
X7616Y122653D01*
X8073Y123754D01*
X8228Y124936D01*
X8073Y126118D01*
X7616Y127220D01*
X6899Y128155D01*
X7275Y128485D01*
X9525Y126235D01*
Y119141D01*
X9525Y119141D01*
X9525D01*
X9677Y118373D01*
X10112Y117722D01*
X16317Y111517D01*
X16968Y111082D01*
X17096Y111057D01*
X17736Y110929D01*
X22734D01*
X22895Y110456D01*
X22514Y110163D01*
X21725Y109135D01*
X21229Y107938D01*
X21060Y106654D01*
X21229Y105369D01*
X21725Y104172D01*
X22514Y103144D01*
X23542Y102355D01*
X24739Y101859D01*
X26024Y101690D01*
X27308Y101859D01*
X28506Y102355D01*
X29533Y103144D01*
X30322Y104172D01*
X30818Y105369D01*
X30987Y106654D01*
X30818Y107938D01*
X30322Y109135D01*
X29533Y110163D01*
X29153Y110456D01*
X29313Y110929D01*
X40450D01*
X40611Y110456D01*
X40230Y110163D01*
X39441Y109135D01*
X38946Y107938D01*
X38776Y106654D01*
X38946Y105369D01*
X39441Y104172D01*
X40230Y103144D01*
X41258Y102355D01*
X42456Y101859D01*
X43740Y101690D01*
X45025Y101859D01*
X46222Y102355D01*
X47250Y103144D01*
X48039Y104172D01*
X48535Y105369D01*
X48704Y106654D01*
X48535Y107938D01*
X48508Y108002D01*
X48924Y108280D01*
X51745Y105459D01*
X52397Y105024D01*
X53165Y104871D01*
X69663D01*
X103621Y70913D01*
D01*
X103621D01*
Y70913D01*
D01*
X103621D01*
Y70913D01*
X103621D01*
X103621Y70913D01*
Y70913D01*
X103621Y70913D01*
Y70913D01*
X104272Y70478D01*
X105040Y70325D01*
X135645D01*
Y69478D01*
X135805Y68671D01*
X136262Y67988D01*
X136946Y67531D01*
X137752Y67370D01*
X138508Y67521D01*
X138895Y67204D01*
Y58511D01*
X138897Y58498D01*
X139044Y56633D01*
X139484Y54801D01*
X140205Y53061D01*
X141189Y51454D01*
X142412Y50022D01*
X143845Y48798D01*
X145451Y47814D01*
X147192Y47093D01*
X149023Y46653D01*
X149697Y46600D01*
Y19000D01*
X149789Y18539D01*
X150050Y18148D01*
X150441Y17887D01*
X150902Y17796D01*
X164353D01*
X164544Y17334D01*
X153990Y6780D01*
X116250D01*
X115530Y6685D01*
X114860Y6407D01*
X114284Y5965D01*
X111098Y2780D01*
X75428D01*
X57975Y20233D01*
X57399Y20675D01*
X56729Y20952D01*
X56009Y21047D01*
X44161D01*
Y25637D01*
X43992Y26482D01*
X43514Y27198D01*
X43482Y27231D01*
X43703Y27679D01*
X43740Y27674D01*
X45025Y27843D01*
X46222Y28339D01*
X47250Y29128D01*
X48039Y30156D01*
X48535Y31353D01*
X48704Y32638D01*
X48535Y33923D01*
X48039Y35120D01*
X47250Y36148D01*
X46222Y36937D01*
X45025Y37433D01*
X43740Y37602D01*
X42456Y37433D01*
X41258Y36937D01*
X40230Y36148D01*
X39441Y35120D01*
X38946Y33923D01*
X38776Y32638D01*
X38781Y32601D01*
X38333Y32379D01*
X36513Y34199D01*
X35797Y34678D01*
X34952Y34846D01*
X30945D01*
Y37559D01*
X21102D01*
Y27717D01*
X30945D01*
Y30430D01*
X34038D01*
X36829Y27639D01*
X36638Y27177D01*
X22000D01*
X21178Y27068D01*
X20412Y26751D01*
X19754Y26246D01*
X19249Y25588D01*
X18932Y24822D01*
X18823Y24000D01*
X18932Y23178D01*
X19249Y22412D01*
X19754Y21754D01*
X20412Y21249D01*
X21178Y20932D01*
X22000Y20823D01*
X26587D01*
Y16000D01*
X26695Y15178D01*
X27013Y14412D01*
X27517Y13754D01*
X27797Y13539D01*
Y10039D01*
X27833Y9859D01*
Y8680D01*
X27446Y8363D01*
X27008Y8450D01*
X26125Y8274D01*
X25376Y7774D01*
X24876Y7025D01*
X24700Y6142D01*
X24876Y5259D01*
X25376Y4510D01*
X26125Y4009D01*
X27008Y3834D01*
X27891Y4009D01*
X28640Y4510D01*
X28718Y4626D01*
X31695D01*
Y9860D01*
X31731Y10039D01*
Y13539D01*
X32010Y13754D01*
X32515Y14412D01*
X32832Y15178D01*
X32941Y16000D01*
Y20823D01*
X38000D01*
X38822Y20932D01*
X39329Y21141D01*
X39745Y20864D01*
Y19666D01*
X38035Y17955D01*
X37593Y17379D01*
X37315Y16709D01*
X37220Y15990D01*
X37315Y15270D01*
X37593Y14600D01*
X38035Y14024D01*
X38069Y13997D01*
Y4626D01*
X41046D01*
X41124Y4510D01*
X41873Y4009D01*
X42756Y3834D01*
X43639Y4009D01*
X44388Y4510D01*
X44888Y5259D01*
X45064Y6142D01*
X44888Y7025D01*
X44388Y7774D01*
X43639Y8274D01*
X42756Y8450D01*
X42318Y8363D01*
X41931Y8680D01*
Y13998D01*
X41966Y14024D01*
X43429Y15488D01*
X46059D01*
X46281Y15039D01*
X45960Y14622D01*
X45603Y13760D01*
X45481Y12835D01*
Y9685D01*
X45603Y8760D01*
X45960Y7898D01*
X46528Y7158D01*
X47268Y6590D01*
X48130Y6233D01*
X49055Y6111D01*
X49980Y6233D01*
X50842Y6590D01*
X51582Y7158D01*
X52150Y7898D01*
X52507Y8760D01*
X52629Y9685D01*
Y12835D01*
X52507Y13760D01*
X52150Y14622D01*
X51830Y15039D01*
X52051Y15488D01*
X54858D01*
X72311Y-1966D01*
X72887Y-2407D01*
X73557Y-2685D01*
X74277Y-2780D01*
X112250D01*
X112969Y-2685D01*
X113640Y-2407D01*
X114215Y-1966D01*
X114215Y-1966D01*
X114215Y-1966D01*
X117401Y1220D01*
X155142D01*
X155861Y1315D01*
X156532Y1593D01*
X157107Y2035D01*
X157107Y2035D01*
X157107Y2035D01*
X172426Y17353D01*
X173616Y18148D01*
X173813Y18017D01*
X174007Y17887D01*
X174315Y17826D01*
X174468Y17796D01*
X262000D01*
X262461Y17887D01*
X262852Y18148D01*
X263113Y18539D01*
X263204Y19000D01*
Y46504D01*
X271608D01*
X271621Y46507D01*
X273486Y46653D01*
X275318Y47093D01*
X277059Y47814D01*
X278665Y48798D01*
X280088Y50014D01*
X280099Y50021D01*
X292694Y62616D01*
X292722Y62634D01*
Y62634D01*
Y62644D01*
X292887Y62809D01*
X293027Y63019D01*
X293516Y63614D01*
X294110Y64726D01*
X294476Y65932D01*
X294592Y67111D01*
X294607Y67187D01*
Y78437D01*
X294589Y78529D01*
X294734Y80002D01*
X295190Y81507D01*
X295932Y82893D01*
X296871Y84037D01*
X296948Y84089D01*
X326022Y113163D01*
X326074Y113240D01*
X327218Y114180D01*
X328605Y114921D01*
X330109Y115377D01*
X331582Y115522D01*
X331674Y115504D01*
X346850D01*
X346860Y115506D01*
X348373Y115655D01*
X349837Y116099D01*
X351186Y116820D01*
X352369Y117791D01*
X353340Y118974D01*
X354061Y120323D01*
X354505Y121787D01*
X354654Y123300D01*
X354656Y123310D01*
Y126024D01*
X355675Y127043D01*
X356137Y126852D01*
Y120343D01*
X365192D01*
Y129398D01*
X358683D01*
X358492Y129860D01*
X359206Y130574D01*
X359482Y130460D01*
X360664Y130304D01*
X361846Y130460D01*
X362948Y130916D01*
X363893Y131642D01*
X364619Y132588D01*
X365075Y133689D01*
X365231Y134871D01*
X365075Y136053D01*
X364619Y137154D01*
X363893Y138100D01*
X362948Y138826D01*
X361846Y139282D01*
X360664Y139437D01*
X359482Y139282D01*
X358381Y138826D01*
X357435Y138100D01*
X356709Y137154D01*
X356253Y136053D01*
X356098Y134871D01*
X356253Y133689D01*
X356368Y133413D01*
X351230Y128275D01*
X351222Y128283D01*
X351220Y128281D01*
X351228Y128273D01*
X350794Y127623D01*
X350641Y126855D01*
X350642Y126850D01*
Y123310D01*
X350655Y123245D01*
X350533Y122323D01*
X350152Y121403D01*
X349546Y120614D01*
X348757Y120008D01*
X347837Y119627D01*
X346915Y119505D01*
X346850Y119518D01*
X331674D01*
X331661Y119516D01*
X331545Y119506D01*
X331366Y119973D01*
X331835Y120333D01*
X331834Y120334D01*
X331834Y120334D01*
X338542Y127043D01*
X339004Y126852D01*
Y120343D01*
X348059D01*
Y129398D01*
X341551D01*
X341359Y129860D01*
X342073Y130574D01*
X342350Y130460D01*
X343532Y130304D01*
X344714Y130460D01*
X345815Y130916D01*
X346761Y131642D01*
X347486Y132588D01*
X347943Y133689D01*
X348098Y134871D01*
X347943Y136053D01*
X347486Y137154D01*
X346761Y138100D01*
X345815Y138826D01*
X344714Y139282D01*
X343532Y139437D01*
X342350Y139282D01*
X341248Y138826D01*
X340303Y138100D01*
X339577Y137154D01*
X339121Y136053D01*
X338965Y134871D01*
X339121Y133689D01*
X339235Y133413D01*
X328995Y123173D01*
X328992Y123168D01*
X328769Y123019D01*
X328561Y122978D01*
X328500Y122978D01*
Y122978D01*
X327029Y122784D01*
X326055Y122381D01*
X325777Y122796D01*
X327277Y124297D01*
X327669Y124883D01*
X327806Y125574D01*
X327806Y125574D01*
X327806Y125574D01*
Y125574D01*
Y130433D01*
X330528D01*
Y139488D01*
X321473D01*
Y130433D01*
X324194D01*
Y126322D01*
X320989Y123118D01*
X320528Y123310D01*
Y129398D01*
X312743D01*
Y131098D01*
X313192Y131319D01*
X313717Y130916D01*
X314818Y130460D01*
X315213Y130408D01*
Y134871D01*
Y139334D01*
X314818Y139282D01*
X313717Y138826D01*
X313192Y138423D01*
X312850Y138592D01*
X312769Y139085D01*
X314341Y140657D01*
X314818Y140460D01*
X316000Y140304D01*
X317182Y140460D01*
X318283Y140916D01*
X319229Y141642D01*
X319955Y142588D01*
X320411Y143689D01*
X320567Y144871D01*
X320411Y146053D01*
X319955Y147154D01*
X319229Y148100D01*
X319384Y148556D01*
X322486D01*
X322708Y148107D01*
X322045Y147244D01*
X321589Y146143D01*
X321537Y145748D01*
X330463D01*
X330411Y146143D01*
X329955Y147244D01*
X329292Y148107D01*
X329514Y148556D01*
X340148D01*
X340303Y148100D01*
X339577Y147154D01*
X339121Y146053D01*
X339069Y145658D01*
X347995D01*
X347943Y146053D01*
X347486Y147154D01*
X346761Y148100D01*
X346916Y148556D01*
X357280D01*
X357435Y148100D01*
X356709Y147154D01*
X356253Y146053D01*
X356201Y145658D01*
X365127D01*
X365075Y146053D01*
X364619Y147154D01*
X363893Y148100D01*
X364048Y148556D01*
X398268D01*
X398349Y148572D01*
X400577Y148397D01*
D02*
G37*
G36*
X311789Y108607D02*
X291535Y88353D01*
X291528Y88342D01*
X290313Y86919D01*
X289328Y85313D01*
X288607Y83572D01*
X288168Y81741D01*
X288021Y79875D01*
X288018Y79862D01*
Y67725D01*
X288022Y67706D01*
X287950Y67345D01*
X287746Y67040D01*
X287730Y67029D01*
X284447Y63746D01*
X283973Y63907D01*
X283885Y64578D01*
X283607Y65248D01*
X283166Y65824D01*
X283119Y65860D01*
Y66360D01*
X283166Y66395D01*
X283607Y66971D01*
X283885Y67641D01*
X283980Y68361D01*
X283885Y69080D01*
X283607Y69750D01*
X283166Y70326D01*
X282590Y70768D01*
X281920Y71046D01*
X281200Y71140D01*
X280974Y71111D01*
X280670Y71507D01*
X280797Y71815D01*
X281950D01*
X282599Y71944D01*
X283150Y72312D01*
X283150Y72312D01*
X283150Y72312D01*
X284163Y73325D01*
X284500Y73281D01*
X285220Y73376D01*
X285890Y73653D01*
X286466Y74095D01*
X286907Y74671D01*
X287185Y75341D01*
X287280Y76061D01*
X287185Y76780D01*
X286907Y77451D01*
X286466Y78026D01*
X285890Y78468D01*
X285220Y78746D01*
X284500Y78840D01*
X283781Y78746D01*
X283110Y78468D01*
X282535Y78026D01*
X282093Y77451D01*
X281815Y76780D01*
X281720Y76061D01*
X281765Y75724D01*
X281248Y75207D01*
X192000D01*
X184845Y82362D01*
X185037Y82823D01*
X192232D01*
X192668Y82388D01*
X192559Y81562D01*
X192688Y80586D01*
X193065Y79676D01*
X193664Y78895D01*
X194445Y78295D01*
X195355Y77918D01*
X196332Y77790D01*
X197308Y77918D01*
X198218Y78295D01*
X198999Y78895D01*
X199506Y79555D01*
X201261D01*
Y78030D01*
X207123D01*
Y85392D01*
X201261D01*
Y83569D01*
X199506D01*
X198999Y84230D01*
X198218Y84829D01*
X197308Y85206D01*
X196332Y85335D01*
X195506Y85226D01*
X194483Y86250D01*
X193831Y86685D01*
X193063Y86838D01*
X186201D01*
X186010Y87300D01*
X195506Y96796D01*
X196332Y96687D01*
X197308Y96816D01*
X198218Y97193D01*
X198999Y97792D01*
X199506Y98453D01*
X201261D01*
Y96898D01*
X207123D01*
Y104260D01*
X201261D01*
Y102467D01*
X199506D01*
X198999Y103127D01*
X198218Y103727D01*
X197308Y104104D01*
X196332Y104232D01*
X195355Y104104D01*
X194445Y103727D01*
X193664Y103127D01*
X193065Y102346D01*
X192688Y101436D01*
X192559Y100460D01*
X192668Y99634D01*
X183021Y89987D01*
X180576D01*
X180284Y90342D01*
X175447D01*
Y91917D01*
X180252D01*
X180248Y91936D01*
X179792Y92620D01*
Y92789D01*
X180248Y93473D01*
X180409Y94279D01*
X180248Y95086D01*
X180184Y95182D01*
X180420Y95623D01*
X183788D01*
X184479Y95760D01*
X185065Y96152D01*
X197894Y108980D01*
X311213D01*
X311554Y109048D01*
X311789Y108607D01*
D02*
G37*
G36*
X262000Y19000D02*
X174468D01*
X174276Y19462D01*
X184213Y29398D01*
Y33071D01*
X180540D01*
X166469Y19000D01*
X150902D01*
Y46687D01*
Y46689D01*
X262000D01*
Y19000D01*
D02*
G37*
%LPC*%
G36*
X300463Y144173D02*
X296787D01*
Y140498D01*
X297182Y140550D01*
X298283Y141006D01*
X299229Y141732D01*
X299955Y142677D01*
X300411Y143779D01*
X300463Y144173D01*
D02*
G37*
G36*
X295213D02*
X291537D01*
X291589Y143779D01*
X292045Y142677D01*
X292771Y141732D01*
X293717Y141006D01*
X294818Y140550D01*
X295213Y140498D01*
Y144173D01*
D02*
G37*
G36*
X290463D02*
X286787D01*
Y140498D01*
X287182Y140550D01*
X288283Y141006D01*
X289229Y141732D01*
X289955Y142677D01*
X290411Y143779D01*
X290463Y144173D01*
D02*
G37*
G36*
X285213D02*
X281537D01*
X281589Y143779D01*
X282045Y142677D01*
X282771Y141732D01*
X283717Y141006D01*
X284818Y140550D01*
X285213Y140498D01*
Y144173D01*
D02*
G37*
G36*
X330463D02*
X326787D01*
Y140498D01*
X327182Y140550D01*
X328283Y141006D01*
X329229Y141732D01*
X329955Y142677D01*
X330411Y143779D01*
X330463Y144173D01*
D02*
G37*
G36*
X325213D02*
X321537D01*
X321589Y143779D01*
X322045Y142677D01*
X322771Y141732D01*
X323717Y141006D01*
X324818Y140550D01*
X325213Y140498D01*
Y144173D01*
D02*
G37*
G36*
X2874Y144149D02*
X-866D01*
Y140409D01*
X2874D01*
Y144149D01*
D02*
G37*
G36*
X365127Y144083D02*
X361452D01*
Y140408D01*
X361846Y140460D01*
X362948Y140916D01*
X363893Y141642D01*
X364619Y142588D01*
X365075Y143689D01*
X365127Y144083D01*
D02*
G37*
G36*
X359877D02*
X356201D01*
X356253Y143689D01*
X356709Y142588D01*
X357435Y141642D01*
X358381Y140916D01*
X359482Y140460D01*
X359877Y140408D01*
Y144083D01*
D02*
G37*
G36*
X347995D02*
X344319D01*
Y140408D01*
X344714Y140460D01*
X345815Y140916D01*
X346761Y141642D01*
X347486Y142588D01*
X347943Y143689D01*
X347995Y144083D01*
D02*
G37*
G36*
X342744D02*
X339069D01*
X339121Y143689D01*
X339577Y142588D01*
X340303Y141642D01*
X341248Y140916D01*
X342350Y140460D01*
X342744Y140408D01*
Y144083D01*
D02*
G37*
G36*
X59959D02*
X56284D01*
Y140408D01*
X56678Y140460D01*
X57780Y140916D01*
X58725Y141642D01*
X59451Y142588D01*
X59907Y143689D01*
X59959Y144083D01*
D02*
G37*
G36*
X316787Y139334D02*
Y135658D01*
X320463D01*
X320411Y136053D01*
X319955Y137154D01*
X319229Y138100D01*
X318283Y138826D01*
X317182Y139282D01*
X316787Y139334D01*
D02*
G37*
G36*
X320463Y134083D02*
X316787D01*
Y130408D01*
X317182Y130460D01*
X318283Y130916D01*
X319229Y131642D01*
X319955Y132588D01*
X320411Y133689D01*
X320463Y134083D01*
D02*
G37*
G36*
X398268Y145035D02*
X396513Y144896D01*
X394802Y144486D01*
X393176Y143812D01*
X391675Y142893D01*
X390337Y141750D01*
X389194Y140411D01*
X388275Y138911D01*
X387601Y137285D01*
X387190Y135573D01*
X387052Y133819D01*
X387190Y132064D01*
X387601Y130353D01*
X388275Y128727D01*
X389194Y127226D01*
X390337Y125888D01*
X391675Y124745D01*
X393176Y123826D01*
X394802Y123152D01*
X396513Y122741D01*
X398268Y122603D01*
X400022Y122741D01*
X401734Y123152D01*
X403360Y123826D01*
X404860Y124745D01*
X406199Y125888D01*
X407341Y127226D01*
X408261Y128727D01*
X408935Y130353D01*
X409345Y132064D01*
X409483Y133819D01*
X409345Y135573D01*
X408935Y137285D01*
X408261Y138911D01*
X407341Y140411D01*
X406199Y141750D01*
X404860Y142893D01*
X403360Y143812D01*
X401734Y144486D01*
X400022Y144896D01*
X398268Y145035D01*
D02*
G37*
G36*
X-18268D02*
X-20022Y144896D01*
X-21734Y144486D01*
X-23360Y143812D01*
X-24860Y142893D01*
X-26199Y141750D01*
X-27341Y140411D01*
X-28261Y138911D01*
X-28934Y137285D01*
X-29345Y135573D01*
X-29483Y133819D01*
X-29345Y132064D01*
X-28934Y130353D01*
X-28261Y128727D01*
X-27341Y127226D01*
X-26199Y125888D01*
X-24860Y124745D01*
X-23360Y123826D01*
X-21734Y123152D01*
X-20022Y122741D01*
X-18268Y122603D01*
X-16513Y122741D01*
X-14802Y123152D01*
X-13176Y123826D01*
X-11675Y124745D01*
X-10337Y125888D01*
X-9194Y127226D01*
X-8275Y128727D01*
X-7601Y130353D01*
X-7190Y132064D01*
X-7052Y133819D01*
X-7190Y135573D01*
X-7601Y137285D01*
X-8275Y138911D01*
X-9194Y140411D01*
X-10337Y141750D01*
X-11675Y142893D01*
X-13176Y143812D01*
X-14802Y144486D01*
X-16513Y144896D01*
X-18268Y145035D01*
D02*
G37*
G36*
X353976Y111617D02*
X352692Y111448D01*
X351495Y110952D01*
X350466Y110163D01*
X349678Y109135D01*
X349182Y107938D01*
X349013Y106654D01*
X349182Y105369D01*
X349678Y104172D01*
X350466Y103144D01*
X351495Y102355D01*
X352692Y101859D01*
X353976Y101690D01*
X355261Y101859D01*
X356458Y102355D01*
X357486Y103144D01*
X358275Y104172D01*
X358771Y105369D01*
X358940Y106654D01*
X358771Y107938D01*
X358275Y109135D01*
X357486Y110163D01*
X356458Y110952D01*
X355261Y111448D01*
X353976Y111617D01*
D02*
G37*
G36*
X336260D02*
X334975Y111448D01*
X333778Y110952D01*
X332750Y110163D01*
X331961Y109135D01*
X331465Y107938D01*
X331296Y106654D01*
X331465Y105369D01*
X331961Y104172D01*
X332750Y103144D01*
X333778Y102355D01*
X334975Y101859D01*
X336260Y101690D01*
X337544Y101859D01*
X338742Y102355D01*
X339770Y103144D01*
X340559Y104172D01*
X341054Y105369D01*
X341224Y106654D01*
X341054Y107938D01*
X340559Y109135D01*
X339770Y110163D01*
X338742Y110952D01*
X337544Y111448D01*
X336260Y111617D01*
D02*
G37*
G36*
X386260Y87892D02*
Y83819D01*
X390333D01*
X390267Y84316D01*
X389771Y85513D01*
X388982Y86541D01*
X387954Y87330D01*
X386757Y87826D01*
X386260Y87892D01*
D02*
G37*
G36*
X384685D02*
X384188Y87826D01*
X382991Y87330D01*
X381962Y86541D01*
X381174Y85513D01*
X380678Y84316D01*
X380612Y83819D01*
X384685D01*
Y87892D01*
D02*
G37*
G36*
X305551D02*
Y83819D01*
X309624D01*
X309558Y84316D01*
X309063Y85513D01*
X308274Y86541D01*
X307246Y87330D01*
X306048Y87826D01*
X305551Y87892D01*
D02*
G37*
G36*
X303976D02*
X303479Y87826D01*
X302282Y87330D01*
X301254Y86541D01*
X300465Y85513D01*
X299969Y84316D01*
X299904Y83819D01*
X303976D01*
Y87892D01*
D02*
G37*
G36*
X341181Y84803D02*
X337047D01*
Y80669D01*
X341181D01*
Y84803D01*
D02*
G37*
G36*
X335472D02*
X331339D01*
Y80669D01*
X335472D01*
Y84803D01*
D02*
G37*
G36*
X30945D02*
X26811D01*
Y80669D01*
X30945D01*
Y84803D01*
D02*
G37*
G36*
X25236D02*
X21102D01*
Y80669D01*
X25236D01*
Y84803D01*
D02*
G37*
G36*
X390333Y82244D02*
X386260D01*
Y78171D01*
X386757Y78237D01*
X387954Y78733D01*
X388982Y79522D01*
X389771Y80550D01*
X390267Y81747D01*
X390333Y82244D01*
D02*
G37*
G36*
X384685D02*
X380612D01*
X380678Y81747D01*
X381174Y80550D01*
X381962Y79522D01*
X382991Y78733D01*
X384188Y78237D01*
X384685Y78171D01*
Y82244D01*
D02*
G37*
G36*
X309624D02*
X305551D01*
Y78171D01*
X306048Y78237D01*
X307246Y78733D01*
X308274Y79522D01*
X309063Y80550D01*
X309558Y81747D01*
X309624Y82244D01*
D02*
G37*
G36*
X303976D02*
X299904D01*
X299969Y81747D01*
X300465Y80550D01*
X301254Y79522D01*
X302282Y78733D01*
X303479Y78237D01*
X303976Y78171D01*
Y82244D01*
D02*
G37*
G36*
X367756Y87995D02*
X366471Y87826D01*
X365274Y87330D01*
X364246Y86541D01*
X363457Y85513D01*
X362961Y84316D01*
X362792Y83031D01*
X362961Y81747D01*
X363457Y80550D01*
X364246Y79522D01*
X365274Y78733D01*
X366471Y78237D01*
X367756Y78068D01*
X369041Y78237D01*
X370238Y78733D01*
X371266Y79522D01*
X372055Y80550D01*
X372551Y81747D01*
X372720Y83031D01*
X372551Y84316D01*
X372055Y85513D01*
X371266Y86541D01*
X370238Y87330D01*
X369041Y87826D01*
X367756Y87995D01*
D02*
G37*
G36*
X322480D02*
X321196Y87826D01*
X319999Y87330D01*
X318970Y86541D01*
X318182Y85513D01*
X317686Y84316D01*
X317517Y83031D01*
X317686Y81747D01*
X318182Y80550D01*
X318970Y79522D01*
X319999Y78733D01*
X321196Y78237D01*
X322480Y78068D01*
X323765Y78237D01*
X324962Y78733D01*
X325990Y79522D01*
X326779Y80550D01*
X327275Y81747D01*
X327444Y83031D01*
X327275Y84316D01*
X326779Y85513D01*
X325990Y86541D01*
X324962Y87330D01*
X323765Y87826D01*
X322480Y87995D01*
D02*
G37*
G36*
X75236D02*
X73952Y87826D01*
X72754Y87330D01*
X71726Y86541D01*
X70938Y85513D01*
X70442Y84316D01*
X70272Y83031D01*
X70442Y81747D01*
X70938Y80550D01*
X71726Y79522D01*
X72754Y78733D01*
X73952Y78237D01*
X75236Y78068D01*
X76521Y78237D01*
X77718Y78733D01*
X78746Y79522D01*
X79535Y80550D01*
X80031Y81747D01*
X80200Y83031D01*
X80031Y84316D01*
X79535Y85513D01*
X78746Y86541D01*
X77718Y87330D01*
X76521Y87826D01*
X75236Y87995D01*
D02*
G37*
G36*
X57520D02*
X56235Y87826D01*
X55038Y87330D01*
X54010Y86541D01*
X53221Y85513D01*
X52725Y84316D01*
X52556Y83031D01*
X52725Y81747D01*
X53221Y80550D01*
X54010Y79522D01*
X55038Y78733D01*
X56235Y78237D01*
X57520Y78068D01*
X58804Y78237D01*
X60001Y78733D01*
X61029Y79522D01*
X61818Y80550D01*
X62314Y81747D01*
X62483Y83031D01*
X62314Y84316D01*
X61818Y85513D01*
X61029Y86541D01*
X60001Y87330D01*
X58804Y87826D01*
X57520Y87995D01*
D02*
G37*
G36*
X12244D02*
X10959Y87826D01*
X9762Y87330D01*
X8734Y86541D01*
X7945Y85513D01*
X7449Y84316D01*
X7280Y83031D01*
X7449Y81747D01*
X7945Y80550D01*
X8734Y79522D01*
X9762Y78733D01*
X10959Y78237D01*
X12244Y78068D01*
X13529Y78237D01*
X14726Y78733D01*
X15754Y79522D01*
X16543Y80550D01*
X17039Y81747D01*
X17208Y83031D01*
X17039Y84316D01*
X16543Y85513D01*
X15754Y86541D01*
X14726Y87330D01*
X13529Y87826D01*
X12244Y87995D01*
D02*
G37*
G36*
X-5472D02*
X-6757Y87826D01*
X-7954Y87330D01*
X-8982Y86541D01*
X-9771Y85513D01*
X-10267Y84316D01*
X-10436Y83031D01*
X-10267Y81747D01*
X-9771Y80550D01*
X-8982Y79522D01*
X-7954Y78733D01*
X-6757Y78237D01*
X-5472Y78068D01*
X-4188Y78237D01*
X-2991Y78733D01*
X-1963Y79522D01*
X-1174Y80550D01*
X-678Y81747D01*
X-509Y83031D01*
X-678Y84316D01*
X-1174Y85513D01*
X-1963Y86541D01*
X-2991Y87330D01*
X-4188Y87826D01*
X-5472Y87995D01*
D02*
G37*
G36*
X341181Y79094D02*
X337047D01*
Y74961D01*
X341181D01*
Y79094D01*
D02*
G37*
G36*
X335472D02*
X331339D01*
Y74961D01*
X335472D01*
Y79094D01*
D02*
G37*
G36*
X30945D02*
X26811D01*
Y74961D01*
X30945D01*
Y79094D01*
D02*
G37*
G36*
X25236D02*
X21102D01*
Y74961D01*
X25236D01*
Y79094D01*
D02*
G37*
G36*
X353976Y84846D02*
X352692Y84676D01*
X351495Y84181D01*
X350466Y83392D01*
X349678Y82364D01*
X349182Y81167D01*
X349013Y79882D01*
X349182Y78597D01*
X349678Y77400D01*
X350466Y76372D01*
X351495Y75583D01*
X352692Y75087D01*
X353976Y74918D01*
X355261Y75087D01*
X356458Y75583D01*
X357486Y76372D01*
X358275Y77400D01*
X358771Y78597D01*
X358940Y79882D01*
X358771Y81167D01*
X358275Y82364D01*
X357486Y83392D01*
X356458Y84181D01*
X355261Y84676D01*
X353976Y84846D01*
D02*
G37*
G36*
X43740D02*
X42456Y84676D01*
X41258Y84181D01*
X40230Y83392D01*
X39441Y82364D01*
X38946Y81167D01*
X38776Y79882D01*
X38946Y78597D01*
X39441Y77400D01*
X40230Y76372D01*
X41258Y75583D01*
X42456Y75087D01*
X43740Y74918D01*
X45025Y75087D01*
X46222Y75583D01*
X47250Y76372D01*
X48039Y77400D01*
X48535Y78597D01*
X48704Y79882D01*
X48535Y81167D01*
X48039Y82364D01*
X47250Y83392D01*
X46222Y84181D01*
X45025Y84676D01*
X43740Y84846D01*
D02*
G37*
G36*
X337047Y64270D02*
Y60197D01*
X341120D01*
X341054Y60694D01*
X340559Y61891D01*
X339770Y62919D01*
X338742Y63708D01*
X337544Y64204D01*
X337047Y64270D01*
D02*
G37*
G36*
X335472D02*
X334975Y64204D01*
X333778Y63708D01*
X332750Y62919D01*
X331961Y61891D01*
X331465Y60694D01*
X331400Y60197D01*
X335472D01*
Y64270D01*
D02*
G37*
G36*
X76024Y61120D02*
Y57047D01*
X80096D01*
X80031Y57545D01*
X79535Y58742D01*
X78746Y59770D01*
X77718Y60559D01*
X76521Y61054D01*
X76024Y61120D01*
D02*
G37*
G36*
X74449D02*
X73952Y61054D01*
X72754Y60559D01*
X71726Y59770D01*
X70938Y58742D01*
X70442Y57545D01*
X70376Y57047D01*
X74449D01*
Y61120D01*
D02*
G37*
G36*
X-551Y61181D02*
X-4685D01*
Y57047D01*
X-551D01*
Y61181D01*
D02*
G37*
G36*
X-6260D02*
X-10394D01*
Y57047D01*
X-6260D01*
Y61181D01*
D02*
G37*
G36*
X-24472Y58858D02*
X-28213D01*
Y55118D01*
X-24472D01*
Y58858D01*
D02*
G37*
G36*
X341120Y58622D02*
X337047D01*
Y54549D01*
X337544Y54615D01*
X338742Y55111D01*
X339770Y55900D01*
X340559Y56928D01*
X341054Y58125D01*
X341120Y58622D01*
D02*
G37*
G36*
X335472D02*
X331400D01*
X331465Y58125D01*
X331961Y56928D01*
X332750Y55900D01*
X333778Y55111D01*
X334975Y54615D01*
X335472Y54549D01*
Y58622D01*
D02*
G37*
G36*
X353976Y64373D02*
X352692Y64204D01*
X351495Y63708D01*
X350466Y62919D01*
X349678Y61891D01*
X349182Y60694D01*
X349013Y59409D01*
X349182Y58125D01*
X349678Y56928D01*
X350466Y55900D01*
X351495Y55111D01*
X352692Y54615D01*
X353976Y54446D01*
X355261Y54615D01*
X356458Y55111D01*
X357486Y55900D01*
X358275Y56928D01*
X358771Y58125D01*
X358940Y59409D01*
X358771Y60694D01*
X358275Y61891D01*
X357486Y62919D01*
X356458Y63708D01*
X355261Y64204D01*
X353976Y64373D01*
D02*
G37*
G36*
X43740D02*
X42456Y64204D01*
X41258Y63708D01*
X40230Y62919D01*
X39441Y61891D01*
X38946Y60694D01*
X38776Y59409D01*
X38946Y58125D01*
X39441Y56928D01*
X40230Y55900D01*
X41258Y55111D01*
X42456Y54615D01*
X43740Y54446D01*
X45025Y54615D01*
X46222Y55111D01*
X47250Y55900D01*
X48039Y56928D01*
X48535Y58125D01*
X48704Y59409D01*
X48535Y60694D01*
X48039Y61891D01*
X47250Y62919D01*
X46222Y63708D01*
X45025Y64204D01*
X43740Y64373D01*
D02*
G37*
G36*
X26024D02*
X24739Y64204D01*
X23542Y63708D01*
X22514Y62919D01*
X21725Y61891D01*
X21229Y60694D01*
X21060Y59409D01*
X21229Y58125D01*
X21725Y56928D01*
X22514Y55900D01*
X23542Y55111D01*
X24739Y54615D01*
X26024Y54446D01*
X27308Y54615D01*
X28506Y55111D01*
X29533Y55900D01*
X30322Y56928D01*
X30818Y58125D01*
X30987Y59409D01*
X30818Y60694D01*
X30322Y61891D01*
X29533Y62919D01*
X28506Y63708D01*
X27308Y64204D01*
X26024Y64373D01*
D02*
G37*
G36*
X80096Y55472D02*
X76024D01*
Y51400D01*
X76521Y51465D01*
X77718Y51961D01*
X78746Y52750D01*
X79535Y53778D01*
X80031Y54975D01*
X80096Y55472D01*
D02*
G37*
G36*
X74449D02*
X70376D01*
X70442Y54975D01*
X70938Y53778D01*
X71726Y52750D01*
X72754Y51961D01*
X73952Y51465D01*
X74449Y51400D01*
Y55472D01*
D02*
G37*
G36*
X372677Y61181D02*
X362835D01*
Y51339D01*
X372677D01*
Y61181D01*
D02*
G37*
G36*
X309685D02*
X299843D01*
Y51339D01*
X309685D01*
Y61181D01*
D02*
G37*
G36*
X62441D02*
X52598D01*
Y51339D01*
X62441D01*
Y61181D01*
D02*
G37*
G36*
X-551Y55472D02*
X-4685D01*
Y51339D01*
X-551D01*
Y55472D01*
D02*
G37*
G36*
X-6260D02*
X-10394D01*
Y51339D01*
X-6260D01*
Y55472D01*
D02*
G37*
G36*
X385472Y61224D02*
X384188Y61054D01*
X382991Y60559D01*
X381962Y59770D01*
X381174Y58742D01*
X380678Y57545D01*
X380509Y56260D01*
X380678Y54975D01*
X381174Y53778D01*
X381962Y52750D01*
X382991Y51961D01*
X384188Y51465D01*
X385472Y51296D01*
X386757Y51465D01*
X387954Y51961D01*
X388982Y52750D01*
X389771Y53778D01*
X390267Y54975D01*
X390436Y56260D01*
X390267Y57545D01*
X389771Y58742D01*
X388982Y59770D01*
X387954Y60559D01*
X386757Y61054D01*
X385472Y61224D01*
D02*
G37*
G36*
X322480D02*
X321196Y61054D01*
X319999Y60559D01*
X318970Y59770D01*
X318182Y58742D01*
X317686Y57545D01*
X317517Y56260D01*
X317686Y54975D01*
X318182Y53778D01*
X318970Y52750D01*
X319999Y51961D01*
X321196Y51465D01*
X322480Y51296D01*
X323765Y51465D01*
X324962Y51961D01*
X325990Y52750D01*
X326779Y53778D01*
X327275Y54975D01*
X327444Y56260D01*
X327275Y57545D01*
X326779Y58742D01*
X325990Y59770D01*
X324962Y60559D01*
X323765Y61054D01*
X322480Y61224D01*
D02*
G37*
G36*
X12244D02*
X10959Y61054D01*
X9762Y60559D01*
X8734Y59770D01*
X7945Y58742D01*
X7449Y57545D01*
X7280Y56260D01*
X7449Y54975D01*
X7945Y53778D01*
X8734Y52750D01*
X9762Y51961D01*
X10959Y51465D01*
X12244Y51296D01*
X13529Y51465D01*
X14726Y51961D01*
X15754Y52750D01*
X16543Y53778D01*
X17039Y54975D01*
X17208Y56260D01*
X17039Y57545D01*
X16543Y58742D01*
X15754Y59770D01*
X14726Y60559D01*
X13529Y61054D01*
X12244Y61224D01*
D02*
G37*
G36*
X-24472Y53543D02*
X-28213D01*
Y49803D01*
X-24472D01*
Y53543D01*
D02*
G37*
G36*
X341181Y37559D02*
X331339D01*
Y27717D01*
X341181D01*
Y37559D01*
D02*
G37*
G36*
X353976Y37602D02*
X352692Y37433D01*
X351495Y36937D01*
X350466Y36148D01*
X349678Y35120D01*
X349182Y33923D01*
X349013Y32638D01*
X349182Y31353D01*
X349678Y30156D01*
X350466Y29128D01*
X351495Y28339D01*
X352692Y27843D01*
X353976Y27674D01*
X355261Y27843D01*
X356458Y28339D01*
X357486Y29128D01*
X358275Y30156D01*
X358771Y31353D01*
X358940Y32638D01*
X358771Y33923D01*
X358275Y35120D01*
X357486Y36148D01*
X356458Y36937D01*
X355261Y37433D01*
X353976Y37602D01*
D02*
G37*
G36*
X78583Y34212D02*
X77401Y34057D01*
X76299Y33601D01*
X75353Y32875D01*
X74628Y31929D01*
X74172Y30828D01*
X74016Y29646D01*
X74172Y28464D01*
X74628Y27362D01*
X75353Y26417D01*
X76299Y25691D01*
X77401Y25235D01*
X78583Y25079D01*
X79764Y25235D01*
X80866Y25691D01*
X81812Y26417D01*
X82537Y27362D01*
X82994Y28464D01*
X83149Y29646D01*
X82994Y30828D01*
X82537Y31929D01*
X81812Y32875D01*
X80866Y33601D01*
X79764Y34057D01*
X78583Y34212D01*
D02*
G37*
G36*
X301417Y34253D02*
X300184Y34091D01*
X299035Y33615D01*
X298048Y32858D01*
X297291Y31871D01*
X296815Y30722D01*
X296652Y29488D01*
X296815Y28255D01*
X297291Y27106D01*
X298048Y26119D01*
X299035Y25361D01*
X300184Y24885D01*
X301417Y24723D01*
X302651Y24885D01*
X303800Y25361D01*
X304787Y26119D01*
X305544Y27106D01*
X306020Y28255D01*
X306183Y29488D01*
X306020Y30722D01*
X305544Y31871D01*
X304787Y32858D01*
X303800Y33615D01*
X302651Y34091D01*
X301417Y34253D01*
D02*
G37*
G36*
X78583Y24212D02*
X77401Y24057D01*
X76299Y23600D01*
X75353Y22875D01*
X74628Y21929D01*
X74172Y20828D01*
X74016Y19646D01*
X74172Y18464D01*
X74628Y17362D01*
X75353Y16417D01*
X76299Y15691D01*
X77401Y15235D01*
X78583Y15079D01*
X79764Y15235D01*
X80866Y15691D01*
X81812Y16417D01*
X82537Y17362D01*
X82994Y18464D01*
X83149Y19646D01*
X82994Y20828D01*
X82537Y21929D01*
X81812Y22875D01*
X80866Y23600D01*
X79764Y24057D01*
X78583Y24212D01*
D02*
G37*
G36*
X20709Y16409D02*
X19784Y16287D01*
X18922Y15930D01*
X18182Y15362D01*
X17614Y14622D01*
X17257Y13760D01*
X17135Y12835D01*
Y9685D01*
X17257Y8760D01*
X17614Y7898D01*
X18182Y7158D01*
X18922Y6590D01*
X19784Y6233D01*
X20709Y6111D01*
X21634Y6233D01*
X22496Y6590D01*
X23236Y7158D01*
X23804Y7898D01*
X24161Y8760D01*
X24283Y9685D01*
Y12835D01*
X24161Y13760D01*
X23804Y14622D01*
X23236Y15362D01*
X22496Y15930D01*
X21634Y16287D01*
X20709Y16409D01*
D02*
G37*
G36*
X78583Y14212D02*
X77401Y14057D01*
X76299Y13600D01*
X75353Y12875D01*
X74628Y11929D01*
X74172Y10828D01*
X74016Y9646D01*
X74172Y8464D01*
X74628Y7362D01*
X75353Y6417D01*
X76299Y5691D01*
X77401Y5235D01*
X78583Y5079D01*
X79764Y5235D01*
X80866Y5691D01*
X81812Y6417D01*
X82537Y7362D01*
X82994Y8464D01*
X83149Y9646D01*
X82994Y10828D01*
X82537Y11929D01*
X81812Y12875D01*
X80866Y13600D01*
X79764Y14057D01*
X78583Y14212D01*
D02*
G37*
G36*
X306142Y14528D02*
X296693D01*
Y5079D01*
X306142D01*
Y14528D01*
D02*
G37*
G36*
X398268Y16688D02*
X396513Y16550D01*
X394802Y16139D01*
X393176Y15466D01*
X391675Y14546D01*
X390337Y13403D01*
X389194Y12065D01*
X388275Y10564D01*
X387601Y8938D01*
X387190Y7227D01*
X387052Y5472D01*
X387190Y3718D01*
X387601Y2007D01*
X388275Y381D01*
X389194Y-1120D01*
X390337Y-2458D01*
X391675Y-3601D01*
X393176Y-4521D01*
X394802Y-5194D01*
X396513Y-5605D01*
X398268Y-5743D01*
X400022Y-5605D01*
X401734Y-5194D01*
X403360Y-4521D01*
X404860Y-3601D01*
X406199Y-2458D01*
X407341Y-1120D01*
X408261Y381D01*
X408935Y2007D01*
X409345Y3718D01*
X409483Y5472D01*
X409345Y7227D01*
X408935Y8938D01*
X408261Y10564D01*
X407341Y12065D01*
X406199Y13403D01*
X404860Y14546D01*
X403360Y15466D01*
X401734Y16139D01*
X400022Y16550D01*
X398268Y16688D01*
D02*
G37*
G36*
X-18268D02*
X-20022Y16550D01*
X-21734Y16139D01*
X-23360Y15466D01*
X-24860Y14546D01*
X-26199Y13403D01*
X-27341Y12065D01*
X-28261Y10564D01*
X-28934Y8938D01*
X-29345Y7227D01*
X-29483Y5472D01*
X-29345Y3718D01*
X-28934Y2007D01*
X-28261Y381D01*
X-27341Y-1120D01*
X-26199Y-2458D01*
X-24860Y-3601D01*
X-23360Y-4521D01*
X-21734Y-5194D01*
X-20022Y-5605D01*
X-18268Y-5743D01*
X-16513Y-5605D01*
X-14802Y-5194D01*
X-13176Y-4521D01*
X-11675Y-3601D01*
X-10337Y-2458D01*
X-9194Y-1120D01*
X-8275Y381D01*
X-7601Y2007D01*
X-7190Y3718D01*
X-7052Y5472D01*
X-7190Y7227D01*
X-7601Y8938D01*
X-8275Y10564D01*
X-9194Y12065D01*
X-10337Y13403D01*
X-11675Y14546D01*
X-13176Y15466D01*
X-14802Y16139D01*
X-16513Y16550D01*
X-18268Y16688D01*
D02*
G37*
G36*
X49055Y2747D02*
X48130Y2625D01*
X47268Y2268D01*
X46528Y1700D01*
X45960Y960D01*
X45603Y98D01*
X45481Y-827D01*
Y-3976D01*
X45603Y-4901D01*
X45960Y-5763D01*
X46528Y-6504D01*
X47268Y-7071D01*
X48130Y-7428D01*
X49055Y-7550D01*
X49980Y-7428D01*
X50842Y-7071D01*
X51582Y-6504D01*
X52150Y-5763D01*
X52507Y-4901D01*
X52629Y-3976D01*
Y-827D01*
X52507Y98D01*
X52150Y960D01*
X51582Y1700D01*
X50842Y2268D01*
X49980Y2625D01*
X49055Y2747D01*
D02*
G37*
G36*
X20709D02*
X19784Y2625D01*
X18922Y2268D01*
X18182Y1700D01*
X17614Y960D01*
X17257Y98D01*
X17135Y-827D01*
Y-3976D01*
X17257Y-4901D01*
X17614Y-5763D01*
X18182Y-6504D01*
X18922Y-7071D01*
X19784Y-7428D01*
X20709Y-7550D01*
X21634Y-7428D01*
X22496Y-7071D01*
X23236Y-6504D01*
X23804Y-5763D01*
X24161Y-4901D01*
X24283Y-3976D01*
Y-827D01*
X24161Y98D01*
X23804Y960D01*
X23236Y1700D01*
X22496Y2268D01*
X21634Y2625D01*
X20709Y2747D01*
D02*
G37*
G36*
X214603Y104260D02*
X212459D01*
Y101366D01*
X214603D01*
Y104260D01*
D02*
G37*
G36*
X210885D02*
X208741D01*
Y101366D01*
X210885D01*
Y104260D01*
D02*
G37*
G36*
X214603Y99792D02*
X212459D01*
Y96898D01*
X214603D01*
Y99792D01*
D02*
G37*
G36*
X210885D02*
X208741D01*
Y96898D01*
X210885D01*
Y99792D01*
D02*
G37*
G36*
X214603Y85392D02*
X212459D01*
Y82499D01*
X214603D01*
Y85392D01*
D02*
G37*
G36*
X210885D02*
X208741D01*
Y82499D01*
X210885D01*
Y85392D01*
D02*
G37*
G36*
X214603Y80924D02*
X212459D01*
Y78030D01*
X214603D01*
Y80924D01*
D02*
G37*
G36*
X210885D02*
X208741D01*
Y78030D01*
X210885D01*
Y80924D01*
D02*
G37*
G36*
X189346Y38205D02*
X185787D01*
Y34646D01*
X189346D01*
Y38205D01*
D02*
G37*
G36*
X184213D02*
X180654D01*
Y34646D01*
X184213D01*
Y38205D01*
D02*
G37*
G36*
X189346Y33071D02*
X185787D01*
Y29512D01*
X189346D01*
Y33071D01*
D02*
G37*
G36*
X195000Y38242D02*
X193865Y38093D01*
X192808Y37655D01*
X191900Y36958D01*
X191203Y36050D01*
X190765Y34993D01*
X190616Y33858D01*
X190765Y32724D01*
X191203Y31666D01*
X191900Y30758D01*
X192808Y30062D01*
X193865Y29624D01*
X195000Y29474D01*
X196135Y29624D01*
X197192Y30062D01*
X198100Y30758D01*
X198797Y31666D01*
X199234Y32724D01*
X199384Y33858D01*
X199234Y34993D01*
X198797Y36050D01*
X198100Y36958D01*
X197192Y37655D01*
X196135Y38093D01*
X195000Y38242D01*
D02*
G37*
%LPD*%
D11*
X156650Y63261D02*
Y72332D01*
X150293Y72275D02*
X150350Y72332D01*
X150293Y66868D02*
Y72275D01*
Y66868D02*
X151700Y65461D01*
X148000Y62261D02*
Y66361D01*
X147201Y67160D02*
X148000Y66361D01*
X147201Y67160D02*
Y72332D01*
D30*
X269500Y53761D02*
G03*
X276155Y56516I0J9415D01*
G01*
X281200Y61561D01*
X170598Y53761D02*
X269500D01*
X175447Y81681D02*
X183128D01*
X175447Y78531D02*
X183499D01*
X190719Y71311D01*
X183128Y81681D02*
X191298Y73511D01*
X159799Y64559D02*
Y72332D01*
Y64559D02*
X170598Y53761D01*
X278250Y71311D02*
X281200Y68361D01*
X190719Y71311D02*
X278250D01*
X281200Y61561D02*
Y63858D01*
X281950Y73511D02*
X284500Y76061D01*
X191298Y73511D02*
X281950D01*
X270632Y62693D02*
X274900Y66961D01*
X257167Y62693D02*
X270632D01*
X255349Y60875D02*
X257167Y62693D01*
X174093Y60875D02*
X255349D01*
X169134Y65834D02*
X174093Y60875D01*
X169134Y65834D02*
Y71592D01*
D31*
X295529Y85508D02*
G03*
X292600Y78437I7071J-7071D01*
G01*
X289149Y65610D02*
G03*
X290025Y67725I-2116J2116D01*
G01*
X291302Y64054D02*
G03*
X291468Y64228I-3133J3133D01*
G01*
D02*
G03*
X292600Y67187I-3299J2958D01*
G01*
X140902Y58511D02*
G03*
X150902Y48511I10000J0D01*
G01*
X271608D02*
G03*
X278679Y51440I0J10000D01*
G01*
X144051Y60890D02*
G03*
X153450Y51491I9399J0D01*
G01*
X270888D02*
G03*
X277959Y54420I0J10000D01*
G01*
X346850Y117511D02*
G03*
X352649Y123310I0J5798D01*
G01*
Y126855D02*
G03*
X352648Y126855I2697J-2697D01*
G01*
X331674Y117511D02*
G03*
X324603Y114582I0J-10000D01*
G01*
X328500Y120961D02*
G03*
X325907Y119887I0J-3667D01*
G01*
X328500Y120961D02*
G03*
X330414Y121754I0J2707D01*
G01*
X292954Y86934D02*
G03*
X290025Y79862I7071J-7071D01*
G01*
X166098Y65660D02*
X173153Y58605D01*
X162835Y65282D02*
Y71265D01*
Y65282D02*
X172087Y56030D01*
X258470D01*
X140000Y98701D02*
X142499D01*
X138728Y97429D02*
X140000Y98701D01*
X131553Y97429D02*
X138728D01*
X204043Y81562D02*
X204192Y81711D01*
X196332Y81562D02*
X204043D01*
X204073Y100460D02*
X204192Y100579D01*
X196332Y100460D02*
X204073D01*
X193063Y84831D02*
X196332Y81562D01*
X175447Y84831D02*
X193063D01*
X175447Y87980D02*
X183852D01*
X196332Y100460D01*
X140902Y58511D02*
Y72332D01*
X3661Y134936D02*
X11532Y127066D01*
Y119141D02*
Y127066D01*
Y119141D02*
X17736Y112936D01*
X47106D02*
X53165Y106878D01*
X17736Y112936D02*
X47106D01*
X48532Y115511D02*
X54532Y109511D01*
X31532Y115511D02*
X48532D01*
X27532Y119511D02*
X31532Y115511D01*
X27532Y119511D02*
Y126996D01*
X19527Y135000D02*
X27532Y126996D01*
X85532Y110028D02*
X131553D01*
X140902Y116227D02*
Y120141D01*
X138532Y122511D02*
X140902Y120141D01*
X134532Y122511D02*
X138532D01*
X129532Y117511D02*
X134532Y122511D01*
X105532Y117511D02*
X129532D01*
X135036Y113511D02*
X137752Y116227D01*
X95532Y113511D02*
X135036D01*
X137752Y116227D02*
Y119079D01*
X295529Y85508D02*
X324603Y114582D01*
X290025Y67725D02*
Y79862D01*
X292600Y67187D02*
Y78437D01*
X277959Y54420D02*
X289149Y65610D01*
X278679Y51440D02*
X291468Y64228D01*
X144051Y60890D02*
Y72332D01*
X166098Y65660D02*
Y72332D01*
X54532Y109511D02*
X71502D01*
X102482Y78531D01*
X53165Y106878D02*
X70494D01*
X150902Y48511D02*
X271608D01*
X153450Y51491D02*
X270888D01*
X173153Y58605D02*
X256290D01*
X258107Y60423D01*
X264700D01*
X258470Y56030D02*
X259500Y57061D01*
X267262Y57861D02*
X271500D01*
X264700Y60423D02*
X267262Y57861D01*
X110532Y98861D02*
X112250Y100579D01*
X131553D01*
X100532Y102261D02*
X101999Y103728D01*
X131553D01*
X90532Y105161D02*
X92249Y106878D01*
X131553D01*
X352649Y123310D02*
Y126855D01*
X331674Y117511D02*
X346850D01*
X352648Y126855D02*
X352649Y126855D01*
X360664Y134871D01*
X330414Y121754D02*
X343532Y134871D01*
X325500Y119480D02*
Y119480D01*
X325907Y119887D01*
X292954Y86934D02*
X325500Y119480D01*
X131553Y91130D02*
X142429D01*
X147598Y85961D01*
X152500D01*
X102482Y78531D02*
X131553D01*
X70494Y106878D02*
X105040Y72332D01*
X137752D01*
X180000Y63144D02*
Y64000D01*
X202900D02*
Y65282D01*
X180000Y64000D02*
X202900D01*
D32*
X131553Y78531D02*
D03*
Y81681D02*
D03*
Y84831D02*
D03*
Y87980D02*
D03*
Y91130D02*
D03*
Y94279D02*
D03*
Y97429D02*
D03*
Y100579D02*
D03*
Y103728D02*
D03*
Y106878D02*
D03*
Y110028D02*
D03*
X175447D02*
D03*
Y106878D02*
D03*
Y103728D02*
D03*
Y100579D02*
D03*
Y97429D02*
D03*
Y94279D02*
D03*
Y91130D02*
D03*
Y87980D02*
D03*
Y84831D02*
D03*
Y81681D02*
D03*
Y78531D02*
D03*
D33*
X137752Y116227D02*
D03*
X140902D02*
D03*
X144051D02*
D03*
X147201D02*
D03*
X150350D02*
D03*
X153500D02*
D03*
X156650D02*
D03*
X159799D02*
D03*
X162949D02*
D03*
X166098D02*
D03*
X169248D02*
D03*
Y72332D02*
D03*
X166098D02*
D03*
X162949D02*
D03*
X159799D02*
D03*
X156650D02*
D03*
X153500D02*
D03*
X150350D02*
D03*
X147201D02*
D03*
X144051D02*
D03*
X140902D02*
D03*
X137752D02*
D03*
D34*
X211672Y81711D02*
D03*
X204192D02*
D03*
X211672Y100579D02*
D03*
X204192D02*
D03*
D35*
X75236Y83031D02*
D03*
X12244Y56260D02*
D03*
Y83031D02*
D03*
X-5472D02*
D03*
X43740Y79882D02*
D03*
Y106654D02*
D03*
X26024D02*
D03*
X75236Y56260D02*
D03*
X57520Y83031D02*
D03*
X322480Y56260D02*
D03*
Y83031D02*
D03*
X304764D02*
D03*
X353976Y79882D02*
D03*
Y106654D02*
D03*
X336260D02*
D03*
X385472Y56260D02*
D03*
Y83031D02*
D03*
X367756D02*
D03*
X43740Y32638D02*
D03*
Y59409D02*
D03*
X26024D02*
D03*
X353976Y32638D02*
D03*
Y59409D02*
D03*
X336260D02*
D03*
D36*
X40000Y10040D02*
D03*
X29764D02*
D03*
D37*
X175300Y67400D02*
X194500D01*
X176705Y134961D02*
X286000D01*
X162949Y116227D02*
Y121204D01*
X177608Y132780D02*
X279239D01*
X166098Y116227D02*
Y121270D01*
X177608Y132780D01*
X162949Y121204D02*
X176705Y134961D01*
X156650Y116227D02*
Y135508D01*
X165000Y143858D01*
X150350Y116227D02*
Y139209D01*
X155000Y143858D01*
X147201Y116227D02*
Y124510D01*
X145000Y126711D02*
X147201Y124510D01*
X145000Y126711D02*
Y143858D01*
X159799Y116227D02*
Y129779D01*
X173879Y143858D01*
X175000D01*
X144051Y116227D02*
Y123992D01*
X135000Y133043D02*
X144051Y123992D01*
X135000Y133043D02*
Y143858D01*
X183788Y97429D02*
X197145Y110787D01*
X175447Y97429D02*
X183788D01*
X183853Y100579D02*
X196242Y112968D01*
X175447Y100579D02*
X183853D01*
X183918Y103728D02*
X195338Y115149D01*
X175447Y103728D02*
X183918D01*
X183983Y106878D02*
X194435Y117330D01*
X175447Y106878D02*
X183983D01*
X197145Y110787D02*
X311213D01*
X196242Y112968D02*
X309988D01*
X195338Y115149D02*
X305626D01*
X194435Y117330D02*
X298459D01*
X193532Y119511D02*
X293532D01*
X184048Y110028D02*
X193532Y119511D01*
X175447Y110028D02*
X184048D01*
X301063Y127042D02*
Y136916D01*
X293532Y119511D02*
X301063Y127042D01*
X298459Y117330D02*
X306000Y124871D01*
X311213Y110787D02*
X326000Y125574D01*
X305626Y115149D02*
X310937Y120460D01*
X309988Y112968D02*
X315532Y118511D01*
X279239Y132780D02*
X281995Y130024D01*
X290005D01*
X326000Y125574D02*
Y134961D01*
X315532Y118511D02*
Y124402D01*
X316000Y124871D01*
X310937Y120460D02*
Y139808D01*
X316000Y144871D01*
X301063Y136916D02*
X306000Y141853D01*
Y144871D01*
X290005Y130024D02*
X294942Y134961D01*
X296000D01*
X41532Y118511D02*
X48895D01*
X40433Y119609D02*
X41532Y118511D01*
X40433Y119609D02*
Y128876D01*
X35496Y133813D02*
X40433Y128876D01*
X35496Y133813D02*
Y134871D01*
X45496Y134745D02*
Y134871D01*
Y134745D02*
X50433Y129808D01*
Y120239D02*
Y129808D01*
X102630Y84831D02*
X131553D01*
X56490Y134071D02*
Y134871D01*
Y134071D02*
X102580Y87980D01*
X131553D01*
X169248Y119306D02*
X176414Y126472D01*
X169248Y117661D02*
Y119306D01*
X102695Y81681D02*
X131553D01*
X68382Y119079D02*
X102630Y84831D01*
X51594Y119079D02*
X68382D01*
X50433Y120239D02*
X51594Y119079D01*
X72487Y111889D02*
X102695Y81681D01*
X48895Y118511D02*
X55517Y111889D01*
X72487D01*
X175300Y65100D02*
Y67400D01*
D38*
X185000Y33858D02*
Y35000D01*
X19657Y144871D02*
X35496D01*
X19528Y145000D02*
X19657Y144871D01*
X35496D02*
X45496D01*
X55496D01*
X3725Y145000D02*
X19528D01*
X3662Y144936D02*
X3725Y145000D01*
D39*
X40000Y10039D02*
Y15990D01*
D40*
X155142Y4000D02*
X185000Y33858D01*
X56009Y18268D02*
X74277Y0D01*
X112250D01*
X116250Y4000D01*
X155142D01*
X42278Y18268D02*
X56009D01*
X40000Y15990D02*
X42278Y18268D01*
D41*
X29764Y10039D02*
Y16000D01*
D42*
X30000Y24000D02*
X34000D01*
X38000D01*
X29764Y16000D02*
Y24000D01*
X22000D02*
X29764D01*
X30000D01*
D43*
X26024Y32638D02*
X34952D01*
X41953Y25637D01*
Y18593D02*
Y25637D01*
Y18593D02*
X42278Y18268D01*
D44*
X238337Y-4761D02*
D03*
X248337D02*
D03*
X141802D02*
D03*
X131802D02*
D03*
X134991Y143861D02*
D03*
X144991D02*
D03*
X154991D02*
D03*
X164991D02*
D03*
X174991D02*
D03*
X184991D02*
D03*
X194991D02*
D03*
X204991D02*
D03*
X214991D02*
D03*
X224991D02*
D03*
X234991D02*
D03*
X244991D02*
D03*
X301417Y29488D02*
D03*
D45*
Y9803D02*
D03*
D46*
X-18268Y133819D02*
D03*
X398268Y5472D02*
D03*
X-18268D02*
D03*
X398268Y133819D02*
D03*
D47*
X326000Y144961D02*
D03*
X316000Y144871D02*
D03*
Y134871D02*
D03*
X306000Y144871D02*
D03*
Y134871D02*
D03*
X296000Y144961D02*
D03*
X286000D02*
D03*
X360664Y144871D02*
D03*
Y134871D02*
D03*
X343532Y144871D02*
D03*
Y134871D02*
D03*
X55496Y144871D02*
D03*
Y134871D02*
D03*
X45496Y144871D02*
D03*
Y134871D02*
D03*
X35496Y144871D02*
D03*
Y134871D02*
D03*
X19528Y125000D02*
D03*
Y135000D02*
D03*
X3662Y124936D02*
D03*
Y134936D02*
D03*
X78583Y19646D02*
D03*
Y9646D02*
D03*
Y29646D02*
D03*
X195000Y33858D02*
D03*
X-29000Y84331D02*
D03*
Y74331D02*
D03*
Y64331D02*
D03*
D48*
X326000Y134961D02*
D03*
X316000Y124871D02*
D03*
X306000D02*
D03*
X296000Y134961D02*
D03*
X286000D02*
D03*
X360664Y124871D02*
D03*
X343532D02*
D03*
X55496D02*
D03*
X45496D02*
D03*
X35496D02*
D03*
X19528Y145000D02*
D03*
X3662Y144936D02*
D03*
X185000Y33858D02*
D03*
X-29000Y54331D02*
D03*
D49*
X196332Y100460D02*
D03*
Y81562D02*
D03*
D50*
X-5472Y56260D02*
D03*
X26024Y79882D02*
D03*
X57520Y56260D02*
D03*
X304764D02*
D03*
X336260Y79882D02*
D03*
X367756Y56260D02*
D03*
X26024Y32638D02*
D03*
X336260D02*
D03*
D51*
X20709Y-2402D02*
D03*
X49055D02*
D03*
Y11260D02*
D03*
X20709D02*
D03*
D52*
X142499Y98701D02*
D03*
X281200Y63858D02*
D03*
X274900Y66961D02*
D03*
X284500Y76061D02*
D03*
X156600Y63261D02*
D03*
X151700Y65461D02*
D03*
X148000Y62261D02*
D03*
X110532Y98861D02*
D03*
X100532Y102261D02*
D03*
X90532Y105161D02*
D03*
X85532Y110011D02*
D03*
X95532Y113511D02*
D03*
X105532Y117511D02*
D03*
X176414Y126472D02*
D03*
X271500Y57861D02*
D03*
X259500Y57061D02*
D03*
X281200Y68361D02*
D03*
X152500Y85961D02*
D03*
X202900Y65282D02*
D03*
X180000Y64000D02*
D03*
X142499Y108720D02*
D03*
X152500Y108720D02*
D03*
X152499Y91220D02*
D03*
X129740Y65460D02*
D03*
X175300Y65100D02*
D03*
X194000Y68000D02*
D03*
X80000Y135000D02*
D03*
X85000D02*
D03*
X90000D02*
D03*
X95000D02*
D03*
X100000D02*
D03*
X275000Y105000D02*
D03*
Y100000D02*
D03*
Y95000D02*
D03*
X274900Y90000D02*
D03*
X275000Y84831D02*
D03*
Y80000D02*
D03*
X115000Y55000D02*
D03*
X110000D02*
D03*
X105000D02*
D03*
X100000D02*
D03*
X95000D02*
D03*
X90000D02*
D03*
X85000D02*
D03*
Y60000D02*
D03*
X90000D02*
D03*
X95000D02*
D03*
X100000D02*
D03*
X105000D02*
D03*
X110000D02*
D03*
X115000D02*
D03*
Y65000D02*
D03*
X110000D02*
D03*
X105000D02*
D03*
X100000D02*
D03*
X95000D02*
D03*
X90000D02*
D03*
X85000D02*
D03*
X100000Y120000D02*
D03*
X95000D02*
D03*
X90000D02*
D03*
X85000D02*
D03*
X80000D02*
D03*
Y140000D02*
D03*
X85000D02*
D03*
X90000D02*
D03*
X95000D02*
D03*
X100000D02*
D03*
X375000Y75000D02*
D03*
Y65000D02*
D03*
X345000Y100000D02*
D03*
Y90000D02*
D03*
Y50000D02*
D03*
Y40000D02*
D03*
X315000Y60000D02*
D03*
Y90000D02*
D03*
X165000Y0D02*
D03*
X175000D02*
D03*
X185000D02*
D03*
X195000D02*
D03*
X205000D02*
D03*
X215000D02*
D03*
X225000D02*
D03*
X110000Y40000D02*
D03*
X120000D02*
D03*
X130000D02*
D03*
X140000D02*
D03*
Y105000D02*
D03*
X145000D02*
D03*
X150000D02*
D03*
X155000D02*
D03*
X160000D02*
D03*
X-30000Y100000D02*
D03*
Y110000D02*
D03*
Y120000D02*
D03*
X-20000D02*
D03*
Y110000D02*
D03*
X-10000Y120000D02*
D03*
Y100000D02*
D03*
Y90000D02*
D03*
X0Y110000D02*
D03*
Y100000D02*
D03*
X10000D02*
D03*
Y110000D02*
D03*
Y90000D02*
D03*
X0D02*
D03*
X-30000Y40000D02*
D03*
Y30000D02*
D03*
Y20000D02*
D03*
X0Y40000D02*
D03*
X10000D02*
D03*
X-20000Y30000D02*
D03*
Y20000D02*
D03*
X-10000D02*
D03*
X0D02*
D03*
X10000D02*
D03*
X0Y10000D02*
D03*
Y0D02*
D03*
X10000D02*
D03*
Y10000D02*
D03*
X20000Y40000D02*
D03*
X235000Y10000D02*
D03*
X245000D02*
D03*
X255000D02*
D03*
Y0D02*
D03*
X265000D02*
D03*
X275000D02*
D03*
X285000D02*
D03*
X295000D02*
D03*
X305000D02*
D03*
X315000D02*
D03*
X325000D02*
D03*
X315000Y100000D02*
D03*
X365000D02*
D03*
X375000D02*
D03*
Y110000D02*
D03*
Y120000D02*
D03*
Y130000D02*
D03*
Y140000D02*
D03*
X385000Y120000D02*
D03*
Y110000D02*
D03*
X395000D02*
D03*
X405000D02*
D03*
Y100000D02*
D03*
X395000D02*
D03*
X385000D02*
D03*
X405000Y120000D02*
D03*
X395000D02*
D03*
X385000Y130000D02*
D03*
Y140000D02*
D03*
X365000Y110000D02*
D03*
X405000Y90000D02*
D03*
X395000D02*
D03*
X405000Y80000D02*
D03*
Y70000D02*
D03*
X395000D02*
D03*
Y80000D02*
D03*
Y60000D02*
D03*
X405000D02*
D03*
Y50000D02*
D03*
X395000D02*
D03*
Y40000D02*
D03*
X405000D02*
D03*
Y30000D02*
D03*
X395000D02*
D03*
X385000D02*
D03*
X375000D02*
D03*
X365000D02*
D03*
Y40000D02*
D03*
X375000D02*
D03*
X255000Y138858D02*
D03*
X7626Y23880D02*
D03*
X40000Y40000D02*
D03*
X65000Y30000D02*
D03*
Y20000D02*
D03*
X40000Y-5000D02*
D03*
X30000D02*
D03*
X95000Y10000D02*
D03*
X105000D02*
D03*
X174000Y35000D02*
D03*
Y40000D02*
D03*
X179000D02*
D03*
Y45000D02*
D03*
X174000D02*
D03*
X154000Y43000D02*
D03*
X202000Y40000D02*
D03*
Y45000D02*
D03*
X208000D02*
D03*
Y21000D02*
D03*
X213000Y26000D02*
D03*
X218000Y31000D02*
D03*
X223000Y36000D02*
D03*
X246000D02*
D03*
X253000Y30000D02*
D03*
X248000Y25000D02*
D03*
X253000D02*
D03*
X259000D02*
D03*
Y30000D02*
D03*
Y35000D02*
D03*
X161500Y43000D02*
D03*
D53*
X38000Y24000D02*
D03*
X34000D02*
D03*
X30000D02*
D03*
X26000D02*
D03*
X22000D02*
D03*
M02*
