G04*
G04 #@! TF.GenerationSoftware,Altium Limited,Altium Designer,21.9.1 (22)*
G04*
G04 Layer_Color=32896*
%FSLAX25Y25*%
%MOIN*%
G70*
G04*
G04 #@! TF.SameCoordinates,41BA0B49-DCAA-4547-B712-30F71D3BADEB*
G04*
G04*
G04 #@! TF.FilePolarity,Positive*
G04*
G01*
G75*
%ADD11C,0.01000*%
%ADD12C,0.00787*%
%ADD13C,0.00600*%
%ADD14C,0.00800*%
%ADD15C,0.00394*%
%ADD43C,0.01968*%
%ADD80C,0.00984*%
G36*
X231687Y57413D02*
X231310Y57366D01*
X231275Y57413D01*
X231234Y57458D01*
X231195Y57496D01*
X231154Y57531D01*
X231122Y57557D01*
X231093Y57576D01*
X231074Y57589D01*
X231071Y57592D01*
X231068D01*
X231007Y57621D01*
X230946Y57643D01*
X230889Y57659D01*
X230835Y57672D01*
X230787Y57678D01*
X230768D01*
X230749Y57681D01*
X230717D01*
X230660Y57678D01*
X230605Y57672D01*
X230554Y57662D01*
X230503Y57649D01*
X230458Y57633D01*
X230417Y57617D01*
X230379Y57598D01*
X230344Y57582D01*
X230315Y57563D01*
X230286Y57544D01*
X230264Y57528D01*
X230245Y57512D01*
X230229Y57499D01*
X230219Y57490D01*
X230213Y57484D01*
X230210Y57480D01*
X230175Y57442D01*
X230146Y57401D01*
X230120Y57356D01*
X230098Y57311D01*
X230079Y57267D01*
X230063Y57222D01*
X230041Y57136D01*
X230031Y57094D01*
X230025Y57056D01*
X230022Y57024D01*
X230018Y56995D01*
X230015Y56970D01*
Y56954D01*
Y56941D01*
Y56938D01*
X230018Y56871D01*
X230025Y56810D01*
X230034Y56750D01*
X230047Y56696D01*
X230063Y56644D01*
X230079Y56597D01*
X230098Y56552D01*
X230114Y56514D01*
X230133Y56479D01*
X230152Y56447D01*
X230168Y56418D01*
X230184Y56399D01*
X230197Y56380D01*
X230206Y56367D01*
X230213Y56361D01*
X230216Y56357D01*
X230254Y56319D01*
X230296Y56287D01*
X230337Y56258D01*
X230379Y56233D01*
X230420Y56211D01*
X230458Y56195D01*
X230538Y56169D01*
X230573Y56160D01*
X230605Y56153D01*
X230634Y56147D01*
X230660Y56144D01*
X230679Y56141D01*
X230707D01*
X230752Y56144D01*
X230793Y56147D01*
X230873Y56166D01*
X230943Y56188D01*
X231004Y56217D01*
X231055Y56246D01*
X231074Y56258D01*
X231090Y56271D01*
X231103Y56281D01*
X231112Y56287D01*
X231119Y56290D01*
X231122Y56294D01*
X231151Y56326D01*
X231179Y56357D01*
X231227Y56434D01*
X231262Y56511D01*
X231291Y56584D01*
X231313Y56654D01*
X231320Y56683D01*
X231326Y56708D01*
X231329Y56731D01*
X231332Y56747D01*
X231336Y56756D01*
Y56759D01*
X231757Y56724D01*
X231747Y56648D01*
X231731Y56577D01*
X231712Y56511D01*
X231690Y56447D01*
X231664Y56386D01*
X231639Y56332D01*
X231610Y56281D01*
X231581Y56236D01*
X231556Y56198D01*
X231527Y56163D01*
X231505Y56131D01*
X231483Y56105D01*
X231463Y56086D01*
X231451Y56073D01*
X231441Y56064D01*
X231438Y56061D01*
X231384Y56016D01*
X231326Y55978D01*
X231265Y55946D01*
X231205Y55917D01*
X231141Y55892D01*
X231081Y55873D01*
X231023Y55857D01*
X230966Y55844D01*
X230911Y55834D01*
X230864Y55825D01*
X230819Y55818D01*
X230781Y55815D01*
X230749D01*
X230726Y55812D01*
X230707D01*
X230608Y55815D01*
X230513Y55828D01*
X230427Y55847D01*
X230344Y55873D01*
X230267Y55904D01*
X230197Y55936D01*
X230133Y55971D01*
X230072Y56010D01*
X230022Y56048D01*
X229977Y56083D01*
X229939Y56115D01*
X229907Y56147D01*
X229881Y56172D01*
X229865Y56191D01*
X229852Y56204D01*
X229849Y56208D01*
X229804Y56268D01*
X229763Y56332D01*
X229728Y56399D01*
X229699Y56463D01*
X229674Y56526D01*
X229651Y56590D01*
X229636Y56654D01*
X229620Y56712D01*
X229610Y56766D01*
X229600Y56817D01*
X229594Y56862D01*
X229591Y56900D01*
Y56932D01*
X229588Y56954D01*
Y56967D01*
Y56973D01*
X229591Y57059D01*
X229600Y57142D01*
X229616Y57219D01*
X229632Y57292D01*
X229658Y57359D01*
X229680Y57423D01*
X229709Y57480D01*
X229734Y57531D01*
X229763Y57579D01*
X229792Y57621D01*
X229814Y57656D01*
X229836Y57684D01*
X229856Y57707D01*
X229872Y57726D01*
X229881Y57736D01*
X229884Y57739D01*
X229942Y57790D01*
X229999Y57838D01*
X230060Y57876D01*
X230120Y57911D01*
X230181Y57940D01*
X230242Y57962D01*
X230302Y57981D01*
X230356Y57997D01*
X230407Y58010D01*
X230455Y58019D01*
X230500Y58026D01*
X230535Y58032D01*
X230567D01*
X230589Y58035D01*
X230608D01*
X230669Y58032D01*
X230730Y58026D01*
X230787Y58016D01*
X230841Y58003D01*
X230946Y57968D01*
X230994Y57952D01*
X231039Y57933D01*
X231081Y57911D01*
X231116Y57895D01*
X231151Y57876D01*
X231176Y57860D01*
X231199Y57847D01*
X231214Y57838D01*
X231224Y57831D01*
X231227Y57828D01*
X231052Y58712D01*
X229741D01*
Y59094D01*
X231371D01*
X231687Y57413D01*
D02*
G37*
G36*
X228158Y59145D02*
X228248Y59133D01*
X228331Y59114D01*
X228411Y59091D01*
X228484Y59062D01*
X228551Y59031D01*
X228611Y58996D01*
X228669Y58960D01*
X228717Y58925D01*
X228761Y58890D01*
X228800Y58858D01*
X228828Y58830D01*
X228854Y58807D01*
X228873Y58788D01*
X228883Y58776D01*
X228886Y58772D01*
X228946Y58686D01*
X229001Y58590D01*
X229048Y58485D01*
X229087Y58377D01*
X229122Y58262D01*
X229147Y58147D01*
X229173Y58032D01*
X229189Y57920D01*
X229205Y57815D01*
X229214Y57716D01*
X229224Y57627D01*
X229227Y57586D01*
Y57551D01*
X229230Y57515D01*
Y57484D01*
X229234Y57458D01*
Y57436D01*
Y57416D01*
Y57404D01*
Y57397D01*
Y57394D01*
X229230Y57241D01*
X229221Y57101D01*
X229205Y56967D01*
X229183Y56849D01*
X229160Y56737D01*
X229135Y56638D01*
X229106Y56549D01*
X229074Y56469D01*
X229045Y56399D01*
X229017Y56341D01*
X228991Y56290D01*
X228966Y56249D01*
X228946Y56217D01*
X228930Y56198D01*
X228921Y56182D01*
X228918Y56179D01*
X228857Y56115D01*
X228793Y56058D01*
X228726Y56010D01*
X228656Y55968D01*
X228589Y55930D01*
X228519Y55901D01*
X228455Y55876D01*
X228391Y55857D01*
X228331Y55844D01*
X228276Y55831D01*
X228225Y55825D01*
X228184Y55818D01*
X228149Y55815D01*
X228123Y55812D01*
X228101D01*
X228047Y55815D01*
X227993Y55818D01*
X227894Y55834D01*
X227804Y55857D01*
X227763Y55869D01*
X227728Y55882D01*
X227693Y55895D01*
X227664Y55908D01*
X227639Y55920D01*
X227616Y55930D01*
X227597Y55940D01*
X227584Y55946D01*
X227578Y55952D01*
X227575D01*
X227492Y56010D01*
X227418Y56073D01*
X227358Y56141D01*
X227304Y56208D01*
X227262Y56265D01*
X227246Y56290D01*
X227233Y56313D01*
X227221Y56329D01*
X227214Y56341D01*
X227208Y56351D01*
Y56354D01*
X227163Y56456D01*
X227131Y56555D01*
X227106Y56651D01*
X227090Y56740D01*
X227083Y56782D01*
X227080Y56817D01*
X227077Y56849D01*
Y56877D01*
X227074Y56900D01*
Y56916D01*
Y56925D01*
Y56928D01*
X227077Y57015D01*
X227087Y57094D01*
X227099Y57171D01*
X227119Y57244D01*
X227141Y57311D01*
X227163Y57375D01*
X227189Y57433D01*
X227214Y57484D01*
X227243Y57531D01*
X227269Y57573D01*
X227291Y57608D01*
X227313Y57637D01*
X227332Y57659D01*
X227345Y57678D01*
X227355Y57688D01*
X227358Y57691D01*
X227412Y57742D01*
X227466Y57790D01*
X227524Y57828D01*
X227584Y57863D01*
X227642Y57892D01*
X227696Y57914D01*
X227753Y57933D01*
X227804Y57949D01*
X227852Y57962D01*
X227897Y57972D01*
X227938Y57978D01*
X227974Y57984D01*
X228002D01*
X228021Y57987D01*
X228041D01*
X228127Y57984D01*
X228206Y57972D01*
X228280Y57952D01*
X228347Y57933D01*
X228375Y57924D01*
X228401Y57914D01*
X228423Y57905D01*
X228446Y57895D01*
X228458Y57889D01*
X228471Y57882D01*
X228478Y57879D01*
X228481D01*
X228557Y57834D01*
X228624Y57783D01*
X228685Y57729D01*
X228736Y57675D01*
X228777Y57627D01*
X228797Y57605D01*
X228809Y57586D01*
X228819Y57573D01*
X228828Y57560D01*
X228832Y57554D01*
X228835Y57551D01*
X228832Y57640D01*
X228828Y57723D01*
X228822Y57802D01*
X228816Y57876D01*
X228806Y57943D01*
X228797Y58007D01*
X228787Y58061D01*
X228777Y58112D01*
X228768Y58157D01*
X228758Y58198D01*
X228749Y58230D01*
X228739Y58259D01*
X228733Y58278D01*
X228726Y58294D01*
X228723Y58303D01*
Y58306D01*
X228678Y58402D01*
X228631Y58482D01*
X228580Y58552D01*
X228532Y58610D01*
X228487Y58654D01*
X228455Y58686D01*
X228442Y58699D01*
X228433Y58705D01*
X228427Y58712D01*
X228423D01*
X228366Y58747D01*
X228308Y58776D01*
X228251Y58795D01*
X228200Y58807D01*
X228152Y58814D01*
X228117Y58820D01*
X228085D01*
X228041Y58817D01*
X227999Y58814D01*
X227922Y58795D01*
X227852Y58766D01*
X227795Y58734D01*
X227747Y58702D01*
X227728Y58689D01*
X227712Y58673D01*
X227699Y58664D01*
X227690Y58654D01*
X227686Y58651D01*
X227683Y58648D01*
X227648Y58603D01*
X227616Y58549D01*
X227591Y58491D01*
X227568Y58434D01*
X227552Y58383D01*
X227546Y58361D01*
X227540Y58342D01*
X227536Y58326D01*
X227533Y58313D01*
X227530Y58306D01*
Y58303D01*
X227131Y58335D01*
X227144Y58405D01*
X227160Y58469D01*
X227176Y58530D01*
X227198Y58587D01*
X227224Y58641D01*
X227246Y58689D01*
X227272Y58737D01*
X227297Y58776D01*
X227323Y58811D01*
X227348Y58842D01*
X227371Y58871D01*
X227390Y58894D01*
X227406Y58909D01*
X227418Y58922D01*
X227425Y58929D01*
X227428Y58932D01*
X227476Y58970D01*
X227527Y59002D01*
X227578Y59034D01*
X227632Y59056D01*
X227683Y59079D01*
X227737Y59094D01*
X227836Y59123D01*
X227884Y59130D01*
X227926Y59136D01*
X227964Y59142D01*
X227999Y59145D01*
X228025Y59149D01*
X228063D01*
X228158Y59145D01*
D02*
G37*
G36*
X242756Y58750D02*
X241678D01*
Y55866D01*
X241244D01*
Y58750D01*
X240162D01*
Y59136D01*
X242756D01*
Y58750D01*
D02*
G37*
G36*
X239719Y55866D02*
X239285D01*
Y57196D01*
X238446D01*
X238322Y57200D01*
X238207Y57209D01*
X238102Y57222D01*
X238006Y57241D01*
X237917Y57263D01*
X237840Y57289D01*
X237770Y57314D01*
X237709Y57340D01*
X237655Y57366D01*
X237611Y57394D01*
X237572Y57416D01*
X237540Y57439D01*
X237518Y57458D01*
X237502Y57471D01*
X237492Y57480D01*
X237489Y57484D01*
X237441Y57541D01*
X237400Y57598D01*
X237365Y57656D01*
X237333Y57716D01*
X237307Y57777D01*
X237285Y57834D01*
X237269Y57892D01*
X237253Y57946D01*
X237244Y57997D01*
X237234Y58042D01*
X237231Y58083D01*
X237225Y58118D01*
Y58147D01*
X237221Y58169D01*
Y58185D01*
Y58188D01*
X237225Y58278D01*
X237237Y58361D01*
X237253Y58437D01*
X237272Y58504D01*
X237282Y58533D01*
X237292Y58558D01*
X237301Y58581D01*
X237307Y58600D01*
X237314Y58616D01*
X237320Y58626D01*
X237323Y58632D01*
Y58635D01*
X237362Y58709D01*
X237406Y58772D01*
X237451Y58823D01*
X237492Y58871D01*
X237527Y58906D01*
X237559Y58932D01*
X237579Y58944D01*
X237582Y58951D01*
X237585D01*
X237649Y58989D01*
X237716Y59021D01*
X237786Y59050D01*
X237850Y59069D01*
X237904Y59085D01*
X237930Y59091D01*
X237949Y59094D01*
X237968Y59101D01*
X237981D01*
X237987Y59104D01*
X237990D01*
X238022Y59110D01*
X238060Y59114D01*
X238140Y59123D01*
X238223Y59130D01*
X238303Y59133D01*
X238341D01*
X238376Y59136D01*
X239719D01*
Y55866D01*
D02*
G37*
G36*
X236966Y57015D02*
Y56648D01*
X235546D01*
Y55866D01*
X235145D01*
Y56648D01*
X234704D01*
Y57015D01*
X235145D01*
Y59136D01*
X235473D01*
X236966Y57015D01*
D02*
G37*
G36*
X233298Y59145D02*
X233358Y59139D01*
X233419Y59130D01*
X233473Y59120D01*
X233527Y59104D01*
X233575Y59088D01*
X233620Y59072D01*
X233661Y59053D01*
X233696Y59034D01*
X233731Y59018D01*
X233757Y59002D01*
X233783Y58986D01*
X233798Y58976D01*
X233814Y58967D01*
X233821Y58960D01*
X233824Y58957D01*
X233865Y58919D01*
X233907Y58877D01*
X233980Y58791D01*
X234041Y58702D01*
X234089Y58613D01*
X234111Y58571D01*
X234127Y58533D01*
X234143Y58501D01*
X234156Y58469D01*
X234165Y58447D01*
X234172Y58428D01*
X234178Y58415D01*
Y58412D01*
X234197Y58342D01*
X234216Y58271D01*
X234245Y58115D01*
X234267Y57962D01*
X234274Y57885D01*
X234280Y57812D01*
X234286Y57742D01*
X234290Y57678D01*
X234293Y57624D01*
Y57573D01*
X234296Y57534D01*
Y57503D01*
Y57484D01*
Y57480D01*
Y57477D01*
X234293Y57311D01*
X234283Y57155D01*
X234267Y57015D01*
X234245Y56881D01*
X234223Y56763D01*
X234194Y56654D01*
X234165Y56555D01*
X234133Y56469D01*
X234105Y56393D01*
X234076Y56326D01*
X234047Y56271D01*
X234025Y56227D01*
X234003Y56191D01*
X233987Y56166D01*
X233977Y56153D01*
X233974Y56147D01*
X233923Y56090D01*
X233865Y56035D01*
X233805Y55991D01*
X233744Y55952D01*
X233684Y55920D01*
X233620Y55895D01*
X233559Y55873D01*
X233502Y55853D01*
X233448Y55841D01*
X233397Y55831D01*
X233349Y55822D01*
X233310Y55818D01*
X233275Y55815D01*
X233253Y55812D01*
X233231D01*
X233164Y55815D01*
X233103Y55822D01*
X233042Y55831D01*
X232988Y55841D01*
X232934Y55857D01*
X232886Y55873D01*
X232841Y55888D01*
X232800Y55908D01*
X232765Y55927D01*
X232733Y55943D01*
X232704Y55959D01*
X232682Y55975D01*
X232663Y55984D01*
X232650Y55994D01*
X232644Y56000D01*
X232640Y56003D01*
X232599Y56042D01*
X232558Y56083D01*
X232484Y56169D01*
X232423Y56262D01*
X232376Y56348D01*
X232353Y56389D01*
X232337Y56428D01*
X232321Y56459D01*
X232309Y56491D01*
X232299Y56514D01*
X232293Y56533D01*
X232286Y56546D01*
Y56549D01*
X232264Y56619D01*
X232245Y56689D01*
X232216Y56842D01*
X232194Y56999D01*
X232188Y57072D01*
X232181Y57145D01*
X232175Y57215D01*
X232172Y57276D01*
X232168Y57334D01*
Y57381D01*
X232165Y57423D01*
Y57452D01*
Y57471D01*
Y57477D01*
Y57566D01*
X232168Y57649D01*
X232172Y57729D01*
X232178Y57802D01*
X232184Y57873D01*
X232191Y57933D01*
X232197Y57994D01*
X232203Y58045D01*
X232210Y58093D01*
X232216Y58134D01*
X232223Y58169D01*
X232229Y58198D01*
X232235Y58220D01*
X232239Y58236D01*
X232242Y58246D01*
Y58249D01*
X232270Y58351D01*
X232306Y58447D01*
X232337Y58530D01*
X232353Y58565D01*
X232369Y58600D01*
X232385Y58629D01*
X232398Y58657D01*
X232411Y58680D01*
X232420Y58699D01*
X232430Y58715D01*
X232436Y58724D01*
X232443Y58731D01*
Y58734D01*
X232494Y58804D01*
X232548Y58868D01*
X232602Y58919D01*
X232653Y58964D01*
X232701Y58996D01*
X232736Y59021D01*
X232752Y59031D01*
X232762Y59034D01*
X232768Y59040D01*
X232771D01*
X232848Y59075D01*
X232927Y59104D01*
X233004Y59123D01*
X233074Y59136D01*
X233106Y59139D01*
X233138Y59142D01*
X233164Y59145D01*
X233186Y59149D01*
X233231D01*
X233298Y59145D01*
D02*
G37*
G36*
X231378Y105051D02*
X231474Y105038D01*
X231560Y105019D01*
X231643Y104994D01*
X231719Y104962D01*
X231790Y104930D01*
X231854Y104895D01*
X231914Y104856D01*
X231965Y104818D01*
X232010Y104783D01*
X232048Y104751D01*
X232080Y104719D01*
X232105Y104694D01*
X232121Y104675D01*
X232134Y104662D01*
X232137Y104659D01*
X232182Y104598D01*
X232224Y104534D01*
X232259Y104467D01*
X232287Y104403D01*
X232313Y104340D01*
X232335Y104276D01*
X232351Y104212D01*
X232367Y104155D01*
X232377Y104100D01*
X232386Y104049D01*
X232393Y104005D01*
X232396Y103966D01*
Y103935D01*
X232399Y103912D01*
Y103900D01*
Y103893D01*
X232396Y103807D01*
X232386Y103724D01*
X232370Y103647D01*
X232354Y103574D01*
X232329Y103507D01*
X232307Y103443D01*
X232278Y103386D01*
X232252Y103335D01*
X232224Y103287D01*
X232195Y103245D01*
X232172Y103210D01*
X232150Y103182D01*
X232131Y103159D01*
X232115Y103140D01*
X232105Y103131D01*
X232102Y103128D01*
X232045Y103076D01*
X231988Y103029D01*
X231927Y102990D01*
X231866Y102955D01*
X231806Y102927D01*
X231745Y102904D01*
X231684Y102885D01*
X231630Y102869D01*
X231579Y102856D01*
X231531Y102847D01*
X231487Y102840D01*
X231452Y102834D01*
X231420D01*
X231397Y102831D01*
X231378D01*
X231318Y102834D01*
X231257Y102840D01*
X231200Y102850D01*
X231145Y102863D01*
X231040Y102898D01*
X230992Y102914D01*
X230948Y102933D01*
X230906Y102955D01*
X230871Y102971D01*
X230836Y102990D01*
X230810Y103006D01*
X230788Y103019D01*
X230772Y103029D01*
X230763Y103035D01*
X230759Y103038D01*
X230935Y102155D01*
X232246D01*
Y101772D01*
X230616D01*
X230300Y103453D01*
X230676Y103501D01*
X230712Y103453D01*
X230753Y103408D01*
X230791Y103370D01*
X230833Y103335D01*
X230865Y103309D01*
X230893Y103290D01*
X230912Y103277D01*
X230916Y103274D01*
X230919D01*
X230979Y103245D01*
X231040Y103223D01*
X231098Y103207D01*
X231152Y103194D01*
X231200Y103188D01*
X231219D01*
X231238Y103185D01*
X231270D01*
X231327Y103188D01*
X231381Y103194D01*
X231432Y103204D01*
X231484Y103217D01*
X231528Y103233D01*
X231570Y103249D01*
X231608Y103268D01*
X231643Y103284D01*
X231672Y103303D01*
X231700Y103322D01*
X231723Y103338D01*
X231742Y103354D01*
X231758Y103367D01*
X231767Y103376D01*
X231774Y103383D01*
X231777Y103386D01*
X231812Y103424D01*
X231841Y103466D01*
X231866Y103510D01*
X231889Y103555D01*
X231908Y103600D01*
X231924Y103644D01*
X231946Y103730D01*
X231956Y103772D01*
X231962Y103810D01*
X231965Y103842D01*
X231968Y103871D01*
X231972Y103896D01*
Y103912D01*
Y103925D01*
Y103928D01*
X231968Y103995D01*
X231962Y104056D01*
X231952Y104116D01*
X231940Y104171D01*
X231924Y104222D01*
X231908Y104270D01*
X231889Y104314D01*
X231873Y104352D01*
X231854Y104387D01*
X231834Y104419D01*
X231818Y104448D01*
X231803Y104467D01*
X231790Y104486D01*
X231780Y104499D01*
X231774Y104506D01*
X231771Y104509D01*
X231732Y104547D01*
X231691Y104579D01*
X231649Y104608D01*
X231608Y104633D01*
X231566Y104656D01*
X231528Y104671D01*
X231448Y104697D01*
X231413Y104707D01*
X231381Y104713D01*
X231353Y104719D01*
X231327Y104722D01*
X231308Y104726D01*
X231279D01*
X231235Y104722D01*
X231193Y104719D01*
X231113Y104700D01*
X231043Y104678D01*
X230983Y104649D01*
X230932Y104620D01*
X230912Y104608D01*
X230896Y104595D01*
X230884Y104585D01*
X230874Y104579D01*
X230868Y104576D01*
X230865Y104572D01*
X230836Y104541D01*
X230807Y104509D01*
X230759Y104432D01*
X230724Y104356D01*
X230696Y104282D01*
X230673Y104212D01*
X230667Y104183D01*
X230661Y104158D01*
X230657Y104136D01*
X230654Y104120D01*
X230651Y104110D01*
Y104107D01*
X230230Y104142D01*
X230239Y104218D01*
X230255Y104289D01*
X230275Y104356D01*
X230297Y104419D01*
X230322Y104480D01*
X230348Y104534D01*
X230377Y104585D01*
X230405Y104630D01*
X230431Y104668D01*
X230459Y104703D01*
X230482Y104735D01*
X230504Y104761D01*
X230523Y104780D01*
X230536Y104793D01*
X230546Y104802D01*
X230549Y104805D01*
X230603Y104850D01*
X230661Y104888D01*
X230721Y104920D01*
X230782Y104949D01*
X230845Y104974D01*
X230906Y104994D01*
X230963Y105010D01*
X231021Y105022D01*
X231075Y105032D01*
X231123Y105042D01*
X231168Y105048D01*
X231206Y105051D01*
X231238D01*
X231260Y105054D01*
X231279D01*
X231378Y105051D01*
D02*
G37*
G36*
X238594Y101717D02*
X238332D01*
X238313Y101759D01*
X238288Y101797D01*
X238233Y101877D01*
X238176Y101950D01*
X238119Y102017D01*
X238090Y102046D01*
X238064Y102075D01*
X238039Y102097D01*
X238020Y102119D01*
X238004Y102135D01*
X237988Y102148D01*
X237982Y102155D01*
X237978Y102158D01*
X237879Y102237D01*
X237780Y102311D01*
X237682Y102378D01*
X237589Y102432D01*
X237548Y102458D01*
X237509Y102477D01*
X237477Y102496D01*
X237449Y102512D01*
X237423Y102525D01*
X237407Y102534D01*
X237394Y102537D01*
X237391Y102541D01*
Y102927D01*
X237461Y102898D01*
X237535Y102866D01*
X237605Y102831D01*
X237669Y102799D01*
X237726Y102770D01*
X237749Y102757D01*
X237771Y102745D01*
X237787Y102735D01*
X237800Y102729D01*
X237806Y102722D01*
X237809D01*
X237892Y102671D01*
X237969Y102620D01*
X238036Y102572D01*
X238090Y102531D01*
X238135Y102496D01*
X238166Y102467D01*
X238176Y102458D01*
X238186Y102451D01*
X238189Y102445D01*
X238192D01*
Y105000D01*
X238594D01*
Y101717D01*
D02*
G37*
G36*
X229203D02*
X228941D01*
X228922Y101759D01*
X228896Y101797D01*
X228842Y101877D01*
X228785Y101950D01*
X228727Y102017D01*
X228699Y102046D01*
X228673Y102075D01*
X228648Y102097D01*
X228628Y102119D01*
X228612Y102135D01*
X228596Y102148D01*
X228590Y102155D01*
X228587Y102158D01*
X228488Y102237D01*
X228389Y102311D01*
X228290Y102378D01*
X228198Y102432D01*
X228156Y102458D01*
X228118Y102477D01*
X228086Y102496D01*
X228057Y102512D01*
X228032Y102525D01*
X228016Y102534D01*
X228003Y102537D01*
X228000Y102541D01*
Y102927D01*
X228070Y102898D01*
X228144Y102866D01*
X228214Y102831D01*
X228277Y102799D01*
X228335Y102770D01*
X228357Y102757D01*
X228380Y102745D01*
X228396Y102735D01*
X228408Y102729D01*
X228415Y102722D01*
X228418D01*
X228501Y102671D01*
X228577Y102620D01*
X228644Y102572D01*
X228699Y102531D01*
X228743Y102496D01*
X228775Y102467D01*
X228785Y102458D01*
X228794Y102451D01*
X228798Y102445D01*
X228801D01*
Y105000D01*
X229203D01*
Y101717D01*
D02*
G37*
G36*
X236843Y101730D02*
X236406D01*
X235895Y103832D01*
X235860Y103979D01*
X235841Y104046D01*
X235825Y104113D01*
X235812Y104177D01*
X235800Y104234D01*
X235787Y104289D01*
X235774Y104340D01*
X235765Y104384D01*
X235755Y104426D01*
X235749Y104461D01*
X235742Y104490D01*
X235736Y104512D01*
X235733Y104531D01*
X235729Y104541D01*
Y104544D01*
X235694Y104340D01*
X235656Y104136D01*
X235634Y104033D01*
X235614Y103938D01*
X235592Y103848D01*
X235573Y103762D01*
X235551Y103682D01*
X235535Y103609D01*
X235519Y103545D01*
X235503Y103491D01*
X235490Y103446D01*
X235480Y103415D01*
X235477Y103402D01*
Y103392D01*
X235474Y103389D01*
Y103386D01*
X235005Y101730D01*
X234485D01*
X233863Y103941D01*
X233857Y103960D01*
X233851Y103989D01*
X233841Y104027D01*
X233831Y104069D01*
X233819Y104116D01*
X233806Y104167D01*
X233780Y104273D01*
X233768Y104324D01*
X233755Y104375D01*
X233745Y104419D01*
X233732Y104461D01*
X233726Y104496D01*
X233720Y104522D01*
X233713Y104537D01*
Y104544D01*
X233691Y104419D01*
X233669Y104298D01*
X233646Y104187D01*
X233633Y104132D01*
X233624Y104085D01*
X233614Y104040D01*
X233605Y103998D01*
X233595Y103963D01*
X233589Y103931D01*
X233582Y103906D01*
X233579Y103890D01*
X233576Y103877D01*
Y103874D01*
X233079Y101730D01*
X232635D01*
X233500Y105000D01*
X233946D01*
X234635Y102509D01*
X234651Y102448D01*
X234670Y102384D01*
X234686Y102317D01*
X234702Y102260D01*
X234715Y102206D01*
X234721Y102183D01*
X234724Y102164D01*
X234728Y102148D01*
X234731Y102135D01*
X234734Y102129D01*
Y102126D01*
X234737Y102142D01*
X234744Y102161D01*
X234750Y102186D01*
X234756Y102215D01*
X234776Y102279D01*
X234791Y102343D01*
X234811Y102407D01*
X234817Y102435D01*
X234827Y102458D01*
X234830Y102480D01*
X234836Y102496D01*
X234839Y102505D01*
Y102509D01*
X235525Y105000D01*
X235946D01*
X236843Y101730D01*
D02*
G37*
G36*
X243851Y104218D02*
X244291D01*
Y103852D01*
X243851D01*
Y101730D01*
X243523D01*
X242030Y103852D01*
Y104218D01*
X243449D01*
Y105000D01*
X243851D01*
Y104218D01*
D02*
G37*
G36*
X240754Y105051D02*
X240814Y105045D01*
X240875Y105035D01*
X240929Y105025D01*
X240983Y105010D01*
X241031Y104994D01*
X241076Y104978D01*
X241117Y104958D01*
X241152Y104939D01*
X241184Y104923D01*
X241213Y104908D01*
X241235Y104892D01*
X241254Y104882D01*
X241267Y104872D01*
X241274Y104866D01*
X241277Y104863D01*
X241318Y104824D01*
X241360Y104783D01*
X241433Y104697D01*
X241494Y104604D01*
X241542Y104518D01*
X241564Y104477D01*
X241580Y104439D01*
X241596Y104407D01*
X241609Y104375D01*
X241618Y104352D01*
X241624Y104333D01*
X241631Y104321D01*
Y104317D01*
X241653Y104247D01*
X241672Y104177D01*
X241701Y104024D01*
X241723Y103868D01*
X241730Y103794D01*
X241736Y103721D01*
X241742Y103651D01*
X241746Y103590D01*
X241749Y103533D01*
Y103485D01*
X241752Y103443D01*
Y103415D01*
Y103395D01*
Y103389D01*
Y103300D01*
X241749Y103217D01*
X241746Y103137D01*
X241739Y103064D01*
X241733Y102994D01*
X241727Y102933D01*
X241720Y102872D01*
X241714Y102821D01*
X241707Y102773D01*
X241701Y102732D01*
X241695Y102697D01*
X241688Y102668D01*
X241682Y102646D01*
X241679Y102630D01*
X241675Y102620D01*
Y102617D01*
X241647Y102515D01*
X241612Y102419D01*
X241580Y102336D01*
X241564Y102301D01*
X241548Y102266D01*
X241532Y102237D01*
X241519Y102209D01*
X241507Y102186D01*
X241497Y102167D01*
X241487Y102151D01*
X241481Y102142D01*
X241475Y102135D01*
Y102132D01*
X241424Y102062D01*
X241369Y101998D01*
X241315Y101947D01*
X241264Y101902D01*
X241216Y101871D01*
X241181Y101845D01*
X241165Y101836D01*
X241156Y101832D01*
X241149Y101826D01*
X241146D01*
X241069Y101791D01*
X240990Y101762D01*
X240913Y101743D01*
X240843Y101730D01*
X240811Y101727D01*
X240779Y101724D01*
X240754Y101721D01*
X240731Y101717D01*
X240687D01*
X240620Y101721D01*
X240559Y101727D01*
X240498Y101737D01*
X240444Y101746D01*
X240390Y101762D01*
X240342Y101778D01*
X240297Y101794D01*
X240256Y101813D01*
X240221Y101832D01*
X240186Y101848D01*
X240160Y101864D01*
X240135Y101880D01*
X240119Y101890D01*
X240103Y101899D01*
X240096Y101906D01*
X240093Y101909D01*
X240052Y101947D01*
X240010Y101989D01*
X239937Y102075D01*
X239876Y102164D01*
X239828Y102253D01*
X239806Y102295D01*
X239790Y102333D01*
X239774Y102365D01*
X239761Y102397D01*
X239752Y102419D01*
X239746Y102438D01*
X239739Y102451D01*
Y102454D01*
X239720Y102525D01*
X239701Y102595D01*
X239672Y102751D01*
X239650Y102904D01*
X239644Y102981D01*
X239637Y103054D01*
X239631Y103124D01*
X239628Y103188D01*
X239624Y103242D01*
Y103293D01*
X239621Y103332D01*
Y103364D01*
Y103383D01*
Y103386D01*
Y103389D01*
X239624Y103555D01*
X239634Y103711D01*
X239650Y103852D01*
X239672Y103986D01*
X239694Y104104D01*
X239723Y104212D01*
X239752Y104311D01*
X239784Y104397D01*
X239813Y104474D01*
X239841Y104541D01*
X239870Y104595D01*
X239892Y104639D01*
X239915Y104675D01*
X239931Y104700D01*
X239940Y104713D01*
X239943Y104719D01*
X239994Y104777D01*
X240052Y104831D01*
X240112Y104876D01*
X240173Y104914D01*
X240234Y104946D01*
X240297Y104971D01*
X240358Y104994D01*
X240416Y105013D01*
X240470Y105025D01*
X240521Y105035D01*
X240569Y105045D01*
X240607Y105048D01*
X240642Y105051D01*
X240664Y105054D01*
X240687D01*
X240754Y105051D01*
D02*
G37*
G36*
X256000Y146785D02*
X254549D01*
Y147261D01*
X256000D01*
Y146785D01*
D02*
G37*
G36*
X262785Y148476D02*
X262879Y148461D01*
X262961Y148439D01*
X263036Y148416D01*
X263096Y148394D01*
X263119Y148382D01*
X263141Y148371D01*
X263156Y148364D01*
X263168Y148356D01*
X263175Y148352D01*
X263179D01*
X263258Y148304D01*
X263325Y148251D01*
X263385Y148195D01*
X263434Y148143D01*
X263475Y148098D01*
X263505Y148060D01*
X263512Y148045D01*
X263520Y148034D01*
X263527Y148030D01*
Y148416D01*
X263951D01*
Y145630D01*
X263479D01*
Y147074D01*
Y147145D01*
X263475Y147209D01*
X263471Y147269D01*
X263468Y147325D01*
X263460Y147377D01*
X263456Y147426D01*
X263449Y147471D01*
X263441Y147509D01*
X263434Y147546D01*
X263426Y147576D01*
X263422Y147599D01*
X263415Y147621D01*
X263411Y147636D01*
X263407Y147651D01*
X263404Y147655D01*
Y147659D01*
X263370Y147730D01*
X263333Y147794D01*
X263295Y147846D01*
X263254Y147887D01*
X263216Y147921D01*
X263186Y147948D01*
X263168Y147962D01*
X263160Y147966D01*
X263096Y148000D01*
X263029Y148026D01*
X262965Y148045D01*
X262909Y148060D01*
X262860Y148067D01*
X262823Y148071D01*
X262789D01*
X262699Y148064D01*
X262620Y148045D01*
X262556Y148022D01*
X262504Y147993D01*
X262462Y147962D01*
X262436Y147940D01*
X262418Y147921D01*
X262414Y147914D01*
X262376Y147850D01*
X262346Y147775D01*
X262328Y147696D01*
X262313Y147617D01*
X262305Y147550D01*
X262301Y147520D01*
X262298Y147494D01*
Y147471D01*
Y147456D01*
Y147445D01*
Y147441D01*
Y145630D01*
X261825D01*
Y147246D01*
X261821Y147325D01*
X261818Y147396D01*
X261806Y147464D01*
X261795Y147527D01*
X261780Y147584D01*
X261765Y147632D01*
X261746Y147681D01*
X261727Y147722D01*
X261713Y147756D01*
X261694Y147790D01*
X261679Y147812D01*
X261664Y147835D01*
X261652Y147850D01*
X261641Y147865D01*
X261637Y147869D01*
X261634Y147872D01*
X261596Y147906D01*
X261555Y147940D01*
X261518Y147966D01*
X261476Y147989D01*
X261394Y148022D01*
X261315Y148045D01*
X261247Y148060D01*
X261217Y148064D01*
X261191Y148067D01*
X261173Y148071D01*
X261142D01*
X261083Y148067D01*
X261030Y148060D01*
X260981Y148045D01*
X260940Y148034D01*
X260906Y148019D01*
X260884Y148004D01*
X260865Y147996D01*
X260861Y147993D01*
X260820Y147962D01*
X260786Y147929D01*
X260756Y147895D01*
X260734Y147865D01*
X260715Y147835D01*
X260704Y147812D01*
X260700Y147798D01*
X260696Y147790D01*
X260681Y147737D01*
X260666Y147674D01*
X260659Y147606D01*
X260655Y147543D01*
X260651Y147482D01*
X260648Y147452D01*
Y147430D01*
Y147411D01*
Y147396D01*
Y147389D01*
Y147385D01*
Y145630D01*
X260175D01*
Y147543D01*
X260179Y147629D01*
X260186Y147711D01*
X260197Y147786D01*
X260209Y147854D01*
X260227Y147917D01*
X260246Y147974D01*
X260265Y148026D01*
X260287Y148075D01*
X260310Y148116D01*
X260329Y148150D01*
X260348Y148180D01*
X260366Y148206D01*
X260378Y148225D01*
X260389Y148236D01*
X260396Y148244D01*
X260400Y148248D01*
X260445Y148289D01*
X260490Y148322D01*
X260542Y148356D01*
X260591Y148382D01*
X260648Y148405D01*
X260700Y148424D01*
X260801Y148450D01*
X260850Y148461D01*
X260895Y148469D01*
X260932Y148472D01*
X260970Y148476D01*
X260996Y148480D01*
X261037D01*
X261135Y148476D01*
X261225Y148457D01*
X261315Y148435D01*
X261394Y148405D01*
X261473Y148368D01*
X261544Y148326D01*
X261608Y148281D01*
X261667Y148236D01*
X261720Y148191D01*
X261765Y148146D01*
X261806Y148105D01*
X261840Y148067D01*
X261866Y148037D01*
X261885Y148015D01*
X261896Y147996D01*
X261900Y147993D01*
X261934Y148075D01*
X261975Y148146D01*
X262024Y148206D01*
X262069Y148255D01*
X262110Y148296D01*
X262144Y148326D01*
X262170Y148341D01*
X262174Y148349D01*
X262177D01*
X262256Y148394D01*
X262339Y148424D01*
X262425Y148446D01*
X262504Y148465D01*
X262575Y148472D01*
X262605Y148476D01*
X262631D01*
X262654Y148480D01*
X262684D01*
X262785Y148476D01*
D02*
G37*
G36*
X268781D02*
X268871Y148465D01*
X268950Y148446D01*
X269018Y148427D01*
X269074Y148405D01*
X269096Y148398D01*
X269115Y148390D01*
X269130Y148382D01*
X269141Y148375D01*
X269145Y148371D01*
X269149D01*
X269220Y148326D01*
X269284Y148277D01*
X269340Y148225D01*
X269392Y148172D01*
X269434Y148127D01*
X269464Y148086D01*
X269475Y148071D01*
X269482Y148064D01*
X269490Y148056D01*
Y148416D01*
X269921D01*
Y144561D01*
X269449D01*
Y145915D01*
X269400Y145859D01*
X269351Y145810D01*
X269299Y145769D01*
X269250Y145731D01*
X269205Y145701D01*
X269171Y145682D01*
X269149Y145668D01*
X269145Y145664D01*
X269141D01*
X269070Y145630D01*
X268995Y145607D01*
X268924Y145589D01*
X268860Y145577D01*
X268804Y145570D01*
X268777D01*
X268759Y145566D01*
X268718D01*
X268657Y145570D01*
X268598Y145574D01*
X268485Y145596D01*
X268380Y145623D01*
X268335Y145641D01*
X268290Y145656D01*
X268249Y145675D01*
X268211Y145690D01*
X268181Y145705D01*
X268151Y145720D01*
X268132Y145731D01*
X268114Y145739D01*
X268106Y145742D01*
X268103Y145746D01*
X267998Y145821D01*
X267908Y145907D01*
X267832Y145994D01*
X267769Y146076D01*
X267720Y146155D01*
X267701Y146185D01*
X267686Y146215D01*
X267671Y146237D01*
X267664Y146256D01*
X267656Y146267D01*
Y146271D01*
X267604Y146402D01*
X267566Y146537D01*
X267540Y146669D01*
X267529Y146729D01*
X267521Y146789D01*
X267514Y146841D01*
X267510Y146890D01*
X267506Y146935D01*
Y146973D01*
X267502Y147002D01*
Y147025D01*
Y147040D01*
Y147044D01*
X267510Y147190D01*
X267525Y147325D01*
X267536Y147389D01*
X267547Y147449D01*
X267559Y147505D01*
X267574Y147557D01*
X267589Y147606D01*
X267600Y147648D01*
X267611Y147685D01*
X267622Y147715D01*
X267630Y147741D01*
X267637Y147760D01*
X267645Y147771D01*
Y147775D01*
X267701Y147895D01*
X267735Y147948D01*
X267769Y148000D01*
X267803Y148045D01*
X267836Y148090D01*
X267870Y148127D01*
X267904Y148161D01*
X267934Y148195D01*
X267964Y148221D01*
X267990Y148244D01*
X268012Y148262D01*
X268031Y148277D01*
X268046Y148289D01*
X268054Y148293D01*
X268057Y148296D01*
X268110Y148330D01*
X268162Y148356D01*
X268215Y148382D01*
X268267Y148401D01*
X268373Y148435D01*
X268470Y148457D01*
X268515Y148465D01*
X268556Y148469D01*
X268594Y148476D01*
X268624D01*
X268650Y148480D01*
X268684D01*
X268781Y148476D01*
D02*
G37*
G36*
X265796D02*
X265886Y148465D01*
X265965Y148446D01*
X266033Y148427D01*
X266089Y148405D01*
X266111Y148398D01*
X266130Y148390D01*
X266145Y148382D01*
X266156Y148375D01*
X266160Y148371D01*
X266164D01*
X266235Y148326D01*
X266299Y148277D01*
X266355Y148225D01*
X266407Y148172D01*
X266449Y148127D01*
X266479Y148086D01*
X266490Y148071D01*
X266497Y148064D01*
X266505Y148056D01*
Y148416D01*
X266936D01*
Y144561D01*
X266464D01*
Y145915D01*
X266415Y145859D01*
X266366Y145810D01*
X266314Y145769D01*
X266265Y145731D01*
X266220Y145701D01*
X266186Y145682D01*
X266164Y145668D01*
X266160Y145664D01*
X266156D01*
X266085Y145630D01*
X266010Y145607D01*
X265939Y145589D01*
X265875Y145577D01*
X265819Y145570D01*
X265792D01*
X265774Y145566D01*
X265733D01*
X265672Y145570D01*
X265613Y145574D01*
X265500Y145596D01*
X265395Y145623D01*
X265350Y145641D01*
X265305Y145656D01*
X265264Y145675D01*
X265226Y145690D01*
X265196Y145705D01*
X265166Y145720D01*
X265147Y145731D01*
X265129Y145739D01*
X265121Y145742D01*
X265118Y145746D01*
X265013Y145821D01*
X264922Y145907D01*
X264847Y145994D01*
X264784Y146076D01*
X264735Y146155D01*
X264716Y146185D01*
X264701Y146215D01*
X264686Y146237D01*
X264679Y146256D01*
X264671Y146267D01*
Y146271D01*
X264619Y146402D01*
X264581Y146537D01*
X264555Y146669D01*
X264544Y146729D01*
X264536Y146789D01*
X264529Y146841D01*
X264525Y146890D01*
X264521Y146935D01*
Y146973D01*
X264517Y147002D01*
Y147025D01*
Y147040D01*
Y147044D01*
X264525Y147190D01*
X264540Y147325D01*
X264551Y147389D01*
X264563Y147449D01*
X264574Y147505D01*
X264589Y147557D01*
X264604Y147606D01*
X264615Y147648D01*
X264626Y147685D01*
X264637Y147715D01*
X264645Y147741D01*
X264652Y147760D01*
X264660Y147771D01*
Y147775D01*
X264716Y147895D01*
X264750Y147948D01*
X264784Y148000D01*
X264818Y148045D01*
X264851Y148090D01*
X264885Y148127D01*
X264919Y148161D01*
X264949Y148195D01*
X264979Y148221D01*
X265005Y148244D01*
X265027Y148262D01*
X265046Y148277D01*
X265061Y148289D01*
X265069Y148293D01*
X265072Y148296D01*
X265125Y148330D01*
X265177Y148356D01*
X265230Y148382D01*
X265283Y148401D01*
X265388Y148435D01*
X265485Y148457D01*
X265530Y148465D01*
X265571Y148469D01*
X265609Y148476D01*
X265639D01*
X265665Y148480D01*
X265699D01*
X265796Y148476D01*
D02*
G37*
G36*
X224895Y130024D02*
X224367D01*
X222863Y133867D01*
X223380D01*
X224423Y131074D01*
X224464Y130957D01*
X224505Y130841D01*
X224539Y130736D01*
X224569Y130642D01*
X224584Y130597D01*
X224595Y130560D01*
X224603Y130526D01*
X224614Y130496D01*
X224622Y130474D01*
X224625Y130459D01*
X224629Y130447D01*
Y130444D01*
X224663Y130556D01*
X224697Y130665D01*
X224730Y130770D01*
X224760Y130867D01*
X224775Y130912D01*
X224790Y130950D01*
X224802Y130987D01*
X224813Y131017D01*
X224820Y131040D01*
X224828Y131059D01*
X224832Y131070D01*
Y131074D01*
X225829Y133867D01*
X226380D01*
X224895Y130024D01*
D02*
G37*
G36*
X220834Y133931D02*
X220928Y133924D01*
X221014Y133912D01*
X221100Y133897D01*
X221183Y133882D01*
X221262Y133860D01*
X221333Y133841D01*
X221397Y133819D01*
X221460Y133796D01*
X221513Y133777D01*
X221562Y133755D01*
X221599Y133740D01*
X221633Y133725D01*
X221655Y133714D01*
X221670Y133706D01*
X221674Y133702D01*
X221753Y133657D01*
X221824Y133605D01*
X221892Y133552D01*
X221955Y133496D01*
X222012Y133440D01*
X222068Y133384D01*
X222117Y133327D01*
X222158Y133275D01*
X222199Y133222D01*
X222233Y133174D01*
X222259Y133132D01*
X222285Y133095D01*
X222304Y133065D01*
X222315Y133039D01*
X222323Y133024D01*
X222327Y133020D01*
X222368Y132934D01*
X222402Y132847D01*
X222432Y132757D01*
X222458Y132667D01*
X222480Y132581D01*
X222499Y132491D01*
X222514Y132409D01*
X222525Y132330D01*
X222537Y132255D01*
X222544Y132187D01*
X222548Y132127D01*
X222552Y132075D01*
X222555Y132034D01*
Y132000D01*
Y131981D01*
Y131974D01*
X222552Y131872D01*
X222548Y131771D01*
X222537Y131674D01*
X222525Y131580D01*
X222507Y131490D01*
X222492Y131404D01*
X222473Y131325D01*
X222454Y131250D01*
X222435Y131182D01*
X222417Y131122D01*
X222398Y131070D01*
X222383Y131025D01*
X222372Y130991D01*
X222360Y130965D01*
X222357Y130950D01*
X222353Y130942D01*
X222312Y130856D01*
X222270Y130774D01*
X222222Y130699D01*
X222177Y130627D01*
X222128Y130560D01*
X222079Y130500D01*
X222030Y130447D01*
X221982Y130399D01*
X221937Y130354D01*
X221895Y130316D01*
X221862Y130282D01*
X221828Y130260D01*
X221802Y130237D01*
X221779Y130222D01*
X221768Y130215D01*
X221764Y130211D01*
X221689Y130166D01*
X221610Y130129D01*
X221524Y130095D01*
X221442Y130065D01*
X221355Y130042D01*
X221273Y130020D01*
X221190Y130005D01*
X221112Y129990D01*
X221037Y129982D01*
X220969Y129975D01*
X220909Y129967D01*
X220857Y129964D01*
X220812Y129960D01*
X220752D01*
X220643Y129964D01*
X220534Y129975D01*
X220437Y129990D01*
X220339Y130012D01*
X220249Y130035D01*
X220167Y130065D01*
X220088Y130091D01*
X220017Y130125D01*
X219957Y130155D01*
X219900Y130185D01*
X219852Y130211D01*
X219810Y130234D01*
X219777Y130256D01*
X219754Y130271D01*
X219739Y130282D01*
X219735Y130286D01*
X219660Y130350D01*
X219589Y130421D01*
X219529Y130496D01*
X219469Y130575D01*
X219417Y130654D01*
X219368Y130732D01*
X219327Y130811D01*
X219289Y130890D01*
X219259Y130961D01*
X219229Y131029D01*
X219207Y131089D01*
X219188Y131141D01*
X219177Y131182D01*
X219165Y131216D01*
X219158Y131235D01*
Y131242D01*
X219668Y131370D01*
X219690Y131284D01*
X219717Y131201D01*
X219743Y131122D01*
X219773Y131051D01*
X219807Y130987D01*
X219840Y130927D01*
X219874Y130871D01*
X219908Y130822D01*
X219938Y130781D01*
X219968Y130744D01*
X219998Y130710D01*
X220020Y130684D01*
X220039Y130665D01*
X220058Y130650D01*
X220065Y130642D01*
X220069Y130639D01*
X220125Y130597D01*
X220185Y130560D01*
X220245Y130526D01*
X220305Y130496D01*
X220369Y130474D01*
X220429Y130455D01*
X220542Y130425D01*
X220594Y130414D01*
X220643Y130406D01*
X220684Y130402D01*
X220722Y130399D01*
X220752Y130395D01*
X220793D01*
X220857Y130399D01*
X220920Y130402D01*
X221044Y130425D01*
X221153Y130451D01*
X221205Y130470D01*
X221250Y130485D01*
X221295Y130504D01*
X221333Y130519D01*
X221367Y130534D01*
X221393Y130549D01*
X221415Y130560D01*
X221430Y130567D01*
X221442Y130571D01*
X221445Y130575D01*
X221498Y130612D01*
X221550Y130650D01*
X221640Y130736D01*
X221715Y130826D01*
X221779Y130916D01*
X221828Y130995D01*
X221847Y131029D01*
X221862Y131059D01*
X221873Y131085D01*
X221880Y131104D01*
X221888Y131115D01*
Y131119D01*
X221937Y131261D01*
X221970Y131407D01*
X221997Y131554D01*
X222004Y131621D01*
X222012Y131685D01*
X222019Y131749D01*
X222023Y131801D01*
X222027Y131854D01*
Y131895D01*
X222030Y131929D01*
Y131955D01*
Y131974D01*
Y131977D01*
X222027Y132116D01*
X222012Y132251D01*
X221993Y132375D01*
X221982Y132435D01*
X221970Y132487D01*
X221959Y132536D01*
X221948Y132581D01*
X221937Y132619D01*
X221929Y132652D01*
X221922Y132679D01*
X221914Y132697D01*
X221910Y132709D01*
Y132712D01*
X221884Y132780D01*
X221858Y132840D01*
X221828Y132900D01*
X221794Y132952D01*
X221760Y133005D01*
X221727Y133054D01*
X221693Y133095D01*
X221655Y133136D01*
X221625Y133170D01*
X221595Y133200D01*
X221565Y133226D01*
X221543Y133249D01*
X221520Y133264D01*
X221505Y133275D01*
X221498Y133282D01*
X221494Y133286D01*
X221438Y133324D01*
X221378Y133357D01*
X221314Y133384D01*
X221254Y133410D01*
X221190Y133432D01*
X221130Y133447D01*
X221010Y133474D01*
X220958Y133481D01*
X220909Y133489D01*
X220864Y133492D01*
X220827Y133496D01*
X220793Y133500D01*
X220752D01*
X220680Y133496D01*
X220613Y133492D01*
X220489Y133470D01*
X220433Y133455D01*
X220380Y133440D01*
X220332Y133421D01*
X220290Y133402D01*
X220249Y133384D01*
X220215Y133365D01*
X220185Y133350D01*
X220159Y133335D01*
X220140Y133324D01*
X220125Y133312D01*
X220118Y133309D01*
X220114Y133305D01*
X220069Y133267D01*
X220024Y133222D01*
X219945Y133129D01*
X219878Y133027D01*
X219822Y132930D01*
X219799Y132881D01*
X219780Y132840D01*
X219762Y132799D01*
X219750Y132765D01*
X219739Y132739D01*
X219732Y132716D01*
X219724Y132701D01*
Y132697D01*
X219222Y132814D01*
X219255Y132911D01*
X219289Y133001D01*
X219330Y133087D01*
X219375Y133166D01*
X219420Y133241D01*
X219465Y133309D01*
X219510Y133369D01*
X219555Y133425D01*
X219600Y133474D01*
X219642Y133519D01*
X219675Y133556D01*
X219709Y133586D01*
X219735Y133609D01*
X219754Y133624D01*
X219769Y133635D01*
X219773Y133639D01*
X219848Y133691D01*
X219927Y133736D01*
X220009Y133777D01*
X220092Y133811D01*
X220170Y133837D01*
X220253Y133864D01*
X220332Y133882D01*
X220403Y133897D01*
X220474Y133909D01*
X220538Y133920D01*
X220594Y133927D01*
X220643Y133931D01*
X220684Y133935D01*
X220740D01*
X220834Y133931D01*
D02*
G37*
G36*
X216957D02*
X217050Y133924D01*
X217137Y133912D01*
X217223Y133897D01*
X217305Y133882D01*
X217384Y133860D01*
X217455Y133841D01*
X217519Y133819D01*
X217583Y133796D01*
X217635Y133777D01*
X217684Y133755D01*
X217722Y133740D01*
X217755Y133725D01*
X217778Y133714D01*
X217793Y133706D01*
X217797Y133702D01*
X217875Y133657D01*
X217947Y133605D01*
X218014Y133552D01*
X218078Y133496D01*
X218134Y133440D01*
X218190Y133384D01*
X218239Y133327D01*
X218280Y133275D01*
X218322Y133222D01*
X218355Y133174D01*
X218382Y133132D01*
X218408Y133095D01*
X218427Y133065D01*
X218438Y133039D01*
X218445Y133024D01*
X218449Y133020D01*
X218490Y132934D01*
X218524Y132847D01*
X218554Y132757D01*
X218580Y132667D01*
X218603Y132581D01*
X218622Y132491D01*
X218637Y132409D01*
X218648Y132330D01*
X218659Y132255D01*
X218667Y132187D01*
X218670Y132127D01*
X218674Y132075D01*
X218678Y132034D01*
Y132000D01*
Y131981D01*
Y131974D01*
X218674Y131872D01*
X218670Y131771D01*
X218659Y131674D01*
X218648Y131580D01*
X218629Y131490D01*
X218614Y131404D01*
X218595Y131325D01*
X218577Y131250D01*
X218558Y131182D01*
X218539Y131122D01*
X218520Y131070D01*
X218505Y131025D01*
X218494Y130991D01*
X218483Y130965D01*
X218479Y130950D01*
X218475Y130942D01*
X218434Y130856D01*
X218393Y130774D01*
X218344Y130699D01*
X218299Y130627D01*
X218250Y130560D01*
X218202Y130500D01*
X218153Y130447D01*
X218104Y130399D01*
X218059Y130354D01*
X218018Y130316D01*
X217984Y130282D01*
X217950Y130260D01*
X217924Y130237D01*
X217902Y130222D01*
X217890Y130215D01*
X217887Y130211D01*
X217812Y130166D01*
X217733Y130129D01*
X217647Y130095D01*
X217564Y130065D01*
X217478Y130042D01*
X217395Y130020D01*
X217313Y130005D01*
X217234Y129990D01*
X217159Y129982D01*
X217092Y129975D01*
X217032Y129967D01*
X216979Y129964D01*
X216934Y129960D01*
X216874D01*
X216765Y129964D01*
X216657Y129975D01*
X216559Y129990D01*
X216462Y130012D01*
X216372Y130035D01*
X216289Y130065D01*
X216210Y130091D01*
X216139Y130125D01*
X216079Y130155D01*
X216023Y130185D01*
X215974Y130211D01*
X215933Y130234D01*
X215899Y130256D01*
X215877Y130271D01*
X215862Y130282D01*
X215858Y130286D01*
X215783Y130350D01*
X215712Y130421D01*
X215652Y130496D01*
X215592Y130575D01*
X215539Y130654D01*
X215490Y130732D01*
X215449Y130811D01*
X215412Y130890D01*
X215382Y130961D01*
X215352Y131029D01*
X215329Y131089D01*
X215310Y131141D01*
X215299Y131182D01*
X215288Y131216D01*
X215280Y131235D01*
Y131242D01*
X215790Y131370D01*
X215813Y131284D01*
X215839Y131201D01*
X215865Y131122D01*
X215895Y131051D01*
X215929Y130987D01*
X215963Y130927D01*
X215997Y130871D01*
X216030Y130822D01*
X216060Y130781D01*
X216090Y130744D01*
X216120Y130710D01*
X216143Y130684D01*
X216162Y130665D01*
X216180Y130650D01*
X216188Y130642D01*
X216192Y130639D01*
X216248Y130597D01*
X216308Y130560D01*
X216368Y130526D01*
X216428Y130496D01*
X216492Y130474D01*
X216552Y130455D01*
X216664Y130425D01*
X216717Y130414D01*
X216765Y130406D01*
X216807Y130402D01*
X216844Y130399D01*
X216874Y130395D01*
X216915D01*
X216979Y130399D01*
X217043Y130402D01*
X217167Y130425D01*
X217275Y130451D01*
X217328Y130470D01*
X217373Y130485D01*
X217418Y130504D01*
X217455Y130519D01*
X217489Y130534D01*
X217515Y130549D01*
X217538Y130560D01*
X217553Y130567D01*
X217564Y130571D01*
X217568Y130575D01*
X217620Y130612D01*
X217673Y130650D01*
X217763Y130736D01*
X217838Y130826D01*
X217902Y130916D01*
X217950Y130995D01*
X217969Y131029D01*
X217984Y131059D01*
X217995Y131085D01*
X218003Y131104D01*
X218010Y131115D01*
Y131119D01*
X218059Y131261D01*
X218093Y131407D01*
X218119Y131554D01*
X218127Y131621D01*
X218134Y131685D01*
X218142Y131749D01*
X218145Y131801D01*
X218149Y131854D01*
Y131895D01*
X218153Y131929D01*
Y131955D01*
Y131974D01*
Y131977D01*
X218149Y132116D01*
X218134Y132251D01*
X218115Y132375D01*
X218104Y132435D01*
X218093Y132487D01*
X218082Y132536D01*
X218070Y132581D01*
X218059Y132619D01*
X218052Y132652D01*
X218044Y132679D01*
X218037Y132697D01*
X218033Y132709D01*
Y132712D01*
X218007Y132780D01*
X217980Y132840D01*
X217950Y132900D01*
X217917Y132952D01*
X217883Y133005D01*
X217849Y133054D01*
X217815Y133095D01*
X217778Y133136D01*
X217748Y133170D01*
X217718Y133200D01*
X217688Y133226D01*
X217665Y133249D01*
X217643Y133264D01*
X217628Y133275D01*
X217620Y133282D01*
X217617Y133286D01*
X217560Y133324D01*
X217500Y133357D01*
X217437Y133384D01*
X217377Y133410D01*
X217313Y133432D01*
X217253Y133447D01*
X217133Y133474D01*
X217080Y133481D01*
X217032Y133489D01*
X216987Y133492D01*
X216949Y133496D01*
X216915Y133500D01*
X216874D01*
X216803Y133496D01*
X216735Y133492D01*
X216612Y133470D01*
X216555Y133455D01*
X216503Y133440D01*
X216454Y133421D01*
X216413Y133402D01*
X216372Y133384D01*
X216338Y133365D01*
X216308Y133350D01*
X216282Y133335D01*
X216263Y133324D01*
X216248Y133312D01*
X216240Y133309D01*
X216237Y133305D01*
X216192Y133267D01*
X216147Y133222D01*
X216068Y133129D01*
X216000Y133027D01*
X215944Y132930D01*
X215922Y132881D01*
X215903Y132840D01*
X215884Y132799D01*
X215873Y132765D01*
X215862Y132739D01*
X215854Y132716D01*
X215847Y132701D01*
Y132697D01*
X215344Y132814D01*
X215378Y132911D01*
X215412Y133001D01*
X215453Y133087D01*
X215498Y133166D01*
X215543Y133241D01*
X215588Y133309D01*
X215633Y133369D01*
X215678Y133425D01*
X215723Y133474D01*
X215764Y133519D01*
X215798Y133556D01*
X215832Y133586D01*
X215858Y133609D01*
X215877Y133624D01*
X215892Y133635D01*
X215895Y133639D01*
X215970Y133691D01*
X216049Y133736D01*
X216132Y133777D01*
X216214Y133811D01*
X216293Y133837D01*
X216375Y133864D01*
X216454Y133882D01*
X216525Y133897D01*
X216597Y133909D01*
X216660Y133920D01*
X216717Y133927D01*
X216765Y133931D01*
X216807Y133935D01*
X216863D01*
X216957Y133931D01*
D02*
G37*
G36*
X209092Y131991D02*
X210577Y130000D01*
X209966D01*
X208991Y131331D01*
X208968Y131365D01*
X208939Y131406D01*
X208909Y131455D01*
X208878Y131500D01*
X208852Y131541D01*
X208830Y131575D01*
X208815Y131601D01*
X208811Y131605D01*
Y131609D01*
X208751Y131519D01*
X208725Y131477D01*
X208702Y131444D01*
X208680Y131414D01*
X208665Y131387D01*
X208653Y131372D01*
X208650Y131369D01*
X207679Y130000D01*
X207052D01*
X208492Y132018D01*
X207157Y133844D01*
X207712D01*
X208485Y132820D01*
X208548Y132738D01*
X208605Y132655D01*
X208657Y132584D01*
X208702Y132520D01*
X208736Y132464D01*
X208766Y132422D01*
X208773Y132407D01*
X208781Y132396D01*
X208788Y132393D01*
Y132389D01*
X208826Y132456D01*
X208871Y132531D01*
X208924Y132610D01*
X208972Y132689D01*
X209017Y132756D01*
X209040Y132786D01*
X209058Y132812D01*
X209070Y132831D01*
X209081Y132846D01*
X209088Y132858D01*
X209092Y132861D01*
X209793Y133844D01*
X210401D01*
X209092Y131991D01*
D02*
G37*
G36*
X213757Y133390D02*
X212490D01*
Y130000D01*
X211980D01*
Y133390D01*
X210708D01*
Y133844D01*
X213757D01*
Y133390D01*
D02*
G37*
G36*
X198392Y132015D02*
X199877Y130024D01*
X199266D01*
X198291Y131355D01*
X198268Y131389D01*
X198238Y131430D01*
X198208Y131479D01*
X198178Y131524D01*
X198152Y131565D01*
X198129Y131599D01*
X198115Y131625D01*
X198111Y131629D01*
Y131632D01*
X198051Y131542D01*
X198024Y131501D01*
X198002Y131467D01*
X197979Y131437D01*
X197965Y131411D01*
X197953Y131396D01*
X197950Y131392D01*
X196978Y130024D01*
X196352D01*
X197792Y132041D01*
X196457Y133867D01*
X197012D01*
X197784Y132844D01*
X197848Y132761D01*
X197905Y132679D01*
X197957Y132607D01*
X198002Y132544D01*
X198036Y132487D01*
X198066Y132446D01*
X198073Y132431D01*
X198081Y132420D01*
X198088Y132416D01*
Y132412D01*
X198126Y132480D01*
X198171Y132555D01*
X198223Y132634D01*
X198272Y132712D01*
X198317Y132780D01*
X198339Y132810D01*
X198358Y132836D01*
X198370Y132855D01*
X198381Y132870D01*
X198388Y132881D01*
X198392Y132885D01*
X199093Y133867D01*
X199701D01*
X198392Y132015D01*
D02*
G37*
G36*
X203353Y130024D02*
X202843D01*
Y131730D01*
X202187D01*
X202127Y131726D01*
X202078Y131722D01*
X202041D01*
X202011Y131719D01*
X201988Y131715D01*
X201977Y131711D01*
X201973D01*
X201928Y131700D01*
X201887Y131681D01*
X201850Y131666D01*
X201816Y131647D01*
X201786Y131632D01*
X201763Y131617D01*
X201748Y131610D01*
X201745Y131606D01*
X201699Y131576D01*
X201655Y131535D01*
X201613Y131494D01*
X201572Y131452D01*
X201538Y131415D01*
X201508Y131381D01*
X201493Y131359D01*
X201486Y131355D01*
Y131351D01*
X201456Y131314D01*
X201430Y131276D01*
X201366Y131190D01*
X201306Y131104D01*
X201246Y131017D01*
X201197Y130942D01*
X201174Y130909D01*
X201156Y130879D01*
X201141Y130856D01*
X201130Y130837D01*
X201122Y130826D01*
X201118Y130822D01*
X200608Y130024D01*
X199975D01*
X200638Y131066D01*
X200713Y131175D01*
X200788Y131276D01*
X200859Y131362D01*
X200923Y131437D01*
X200953Y131471D01*
X200979Y131497D01*
X201002Y131524D01*
X201021Y131542D01*
X201036Y131557D01*
X201047Y131572D01*
X201055Y131576D01*
X201058Y131580D01*
X201103Y131614D01*
X201152Y131651D01*
X201201Y131681D01*
X201250Y131711D01*
X201294Y131734D01*
X201332Y131756D01*
X201347Y131760D01*
X201358Y131767D01*
X201362Y131771D01*
X201366D01*
X201265Y131786D01*
X201171Y131809D01*
X201084Y131831D01*
X201006Y131857D01*
X200931Y131887D01*
X200863Y131917D01*
X200803Y131947D01*
X200751Y131977D01*
X200702Y132007D01*
X200661Y132034D01*
X200627Y132060D01*
X200597Y132082D01*
X200574Y132101D01*
X200559Y132116D01*
X200552Y132124D01*
X200548Y132127D01*
X200500Y132180D01*
X200462Y132236D01*
X200425Y132296D01*
X200395Y132352D01*
X200368Y132412D01*
X200346Y132469D01*
X200331Y132525D01*
X200316Y132577D01*
X200305Y132626D01*
X200297Y132675D01*
X200290Y132712D01*
X200286Y132750D01*
X200282Y132776D01*
Y132799D01*
Y132814D01*
Y132817D01*
Y132877D01*
X200290Y132934D01*
X200308Y133042D01*
X200335Y133140D01*
X200361Y133226D01*
X200376Y133264D01*
X200391Y133294D01*
X200406Y133324D01*
X200417Y133350D01*
X200428Y133369D01*
X200436Y133384D01*
X200440Y133391D01*
X200443Y133395D01*
X200507Y133485D01*
X200578Y133564D01*
X200649Y133627D01*
X200717Y133676D01*
X200777Y133714D01*
X200803Y133729D01*
X200826Y133744D01*
X200845Y133751D01*
X200859Y133759D01*
X200867Y133762D01*
X200871D01*
X200923Y133781D01*
X200979Y133796D01*
X201103Y133822D01*
X201235Y133841D01*
X201362Y133856D01*
X201418Y133860D01*
X201474Y133864D01*
X201523D01*
X201565Y133867D01*
X203353D01*
Y130024D01*
D02*
G37*
G36*
X191477Y130000D02*
X190989D01*
Y133015D01*
X188972Y130000D01*
X188447D01*
Y133844D01*
X188934D01*
Y130825D01*
X190955Y133844D01*
X191477D01*
Y130000D01*
D02*
G37*
G36*
X193959Y133907D02*
X194064Y133900D01*
X194162Y133889D01*
X194255Y133874D01*
X194345Y133855D01*
X194428Y133836D01*
X194507Y133814D01*
X194578Y133795D01*
X194642Y133773D01*
X194702Y133750D01*
X194750Y133731D01*
X194792Y133712D01*
X194825Y133697D01*
X194852Y133686D01*
X194867Y133679D01*
X194870Y133675D01*
X194949Y133626D01*
X195024Y133578D01*
X195096Y133521D01*
X195159Y133461D01*
X195223Y133401D01*
X195275Y133341D01*
X195328Y133281D01*
X195373Y133225D01*
X195414Y133169D01*
X195448Y133116D01*
X195478Y133071D01*
X195501Y133030D01*
X195519Y132996D01*
X195534Y132974D01*
X195542Y132959D01*
X195545Y132951D01*
X195587Y132858D01*
X195621Y132767D01*
X195654Y132674D01*
X195680Y132584D01*
X195703Y132494D01*
X195722Y132407D01*
X195737Y132325D01*
X195748Y132246D01*
X195759Y132175D01*
X195767Y132107D01*
X195771Y132051D01*
X195774Y131999D01*
X195778Y131961D01*
Y131931D01*
Y131913D01*
Y131905D01*
X195774Y131800D01*
X195767Y131699D01*
X195756Y131601D01*
X195740Y131508D01*
X195726Y131418D01*
X195703Y131331D01*
X195684Y131253D01*
X195662Y131177D01*
X195639Y131114D01*
X195621Y131054D01*
X195598Y131001D01*
X195583Y130960D01*
X195568Y130922D01*
X195557Y130900D01*
X195549Y130881D01*
X195545Y130877D01*
X195497Y130795D01*
X195448Y130716D01*
X195392Y130641D01*
X195335Y130574D01*
X195279Y130514D01*
X195219Y130454D01*
X195163Y130401D01*
X195107Y130356D01*
X195054Y130315D01*
X195006Y130278D01*
X194960Y130247D01*
X194923Y130221D01*
X194893Y130202D01*
X194867Y130187D01*
X194852Y130180D01*
X194848Y130176D01*
X194758Y130135D01*
X194672Y130097D01*
X194582Y130064D01*
X194492Y130037D01*
X194402Y130015D01*
X194316Y129996D01*
X194237Y129978D01*
X194158Y129966D01*
X194087Y129955D01*
X194019Y129947D01*
X193963Y129944D01*
X193911Y129940D01*
X193873Y129936D01*
X193817D01*
X193659Y129944D01*
X193513Y129959D01*
X193442Y129970D01*
X193374Y129985D01*
X193310Y129996D01*
X193251Y130011D01*
X193194Y130026D01*
X193146Y130037D01*
X193104Y130052D01*
X193067Y130064D01*
X193037Y130071D01*
X193018Y130079D01*
X193003Y130086D01*
X192999D01*
X192849Y130150D01*
X192707Y130221D01*
X192576Y130292D01*
X192516Y130330D01*
X192459Y130368D01*
X192411Y130401D01*
X192362Y130431D01*
X192321Y130457D01*
X192287Y130484D01*
X192261Y130502D01*
X192238Y130521D01*
X192227Y130529D01*
X192223Y130533D01*
Y131961D01*
X193851D01*
Y131508D01*
X192722D01*
Y130791D01*
X192789Y130739D01*
X192868Y130686D01*
X192947Y130641D01*
X193022Y130600D01*
X193093Y130566D01*
X193123Y130551D01*
X193149Y130540D01*
X193172Y130529D01*
X193187Y130525D01*
X193198Y130517D01*
X193202D01*
X193318Y130476D01*
X193434Y130446D01*
X193543Y130424D01*
X193640Y130409D01*
X193685Y130405D01*
X193727Y130401D01*
X193761Y130397D01*
X193790D01*
X193813Y130394D01*
X193847D01*
X193918Y130397D01*
X193985Y130401D01*
X194117Y130420D01*
X194240Y130446D01*
X194297Y130461D01*
X194345Y130476D01*
X194394Y130491D01*
X194436Y130506D01*
X194473Y130521D01*
X194503Y130533D01*
X194529Y130544D01*
X194548Y130551D01*
X194559Y130559D01*
X194563D01*
X194623Y130593D01*
X194683Y130630D01*
X194736Y130667D01*
X194784Y130709D01*
X194833Y130754D01*
X194874Y130795D01*
X194912Y130836D01*
X194946Y130877D01*
X194975Y130919D01*
X195002Y130956D01*
X195024Y130986D01*
X195043Y131016D01*
X195058Y131039D01*
X195069Y131058D01*
X195073Y131069D01*
X195077Y131072D01*
X195107Y131140D01*
X195133Y131211D01*
X195178Y131354D01*
X195208Y131500D01*
X195223Y131568D01*
X195230Y131635D01*
X195238Y131699D01*
X195242Y131755D01*
X195249Y131804D01*
Y131849D01*
X195253Y131886D01*
Y131913D01*
Y131928D01*
Y131935D01*
X195246Y132089D01*
X195230Y132231D01*
X195219Y132299D01*
X195208Y132362D01*
X195193Y132422D01*
X195178Y132479D01*
X195167Y132527D01*
X195152Y132572D01*
X195141Y132614D01*
X195129Y132644D01*
X195122Y132674D01*
X195114Y132693D01*
X195107Y132704D01*
Y132708D01*
X195073Y132782D01*
X195032Y132854D01*
X194994Y132917D01*
X194953Y132974D01*
X194919Y133022D01*
X194893Y133056D01*
X194874Y133079D01*
X194867Y133086D01*
X194803Y133150D01*
X194736Y133206D01*
X194668Y133251D01*
X194604Y133292D01*
X194544Y133326D01*
X194522Y133337D01*
X194499Y133349D01*
X194481Y133356D01*
X194469Y133364D01*
X194462Y133368D01*
X194458D01*
X194360Y133405D01*
X194255Y133431D01*
X194154Y133450D01*
X194061Y133461D01*
X194016Y133469D01*
X193978Y133473D01*
X193944D01*
X193914Y133476D01*
X193854D01*
X193749Y133473D01*
X193648Y133461D01*
X193558Y133442D01*
X193479Y133428D01*
X193446Y133416D01*
X193415Y133409D01*
X193389Y133397D01*
X193367Y133390D01*
X193348Y133386D01*
X193337Y133379D01*
X193329Y133375D01*
X193325D01*
X193239Y133334D01*
X193168Y133289D01*
X193104Y133244D01*
X193052Y133203D01*
X193010Y133165D01*
X192981Y133131D01*
X192965Y133113D01*
X192958Y133109D01*
Y133105D01*
X192909Y133037D01*
X192868Y132963D01*
X192831Y132884D01*
X192800Y132812D01*
X192774Y132745D01*
X192763Y132715D01*
X192755Y132693D01*
X192748Y132674D01*
X192744Y132655D01*
X192740Y132648D01*
Y132644D01*
X192283Y132767D01*
X192302Y132839D01*
X192324Y132906D01*
X192347Y132970D01*
X192369Y133030D01*
X192395Y133086D01*
X192418Y133139D01*
X192440Y133187D01*
X192467Y133229D01*
X192489Y133266D01*
X192508Y133300D01*
X192527Y133330D01*
X192542Y133352D01*
X192557Y133371D01*
X192568Y133386D01*
X192572Y133394D01*
X192576Y133397D01*
X192654Y133484D01*
X192740Y133559D01*
X192827Y133623D01*
X192913Y133675D01*
X192988Y133716D01*
X193022Y133735D01*
X193048Y133746D01*
X193070Y133757D01*
X193089Y133765D01*
X193101Y133773D01*
X193104D01*
X193232Y133818D01*
X193363Y133851D01*
X193487Y133878D01*
X193547Y133885D01*
X193603Y133893D01*
X193656Y133900D01*
X193704Y133904D01*
X193749Y133907D01*
X193783D01*
X193813Y133911D01*
X193854D01*
X193959Y133907D01*
D02*
G37*
G36*
X187595Y130000D02*
X186208D01*
X186081Y130004D01*
X185964Y130011D01*
X185859Y130019D01*
X185814Y130026D01*
X185769Y130034D01*
X185732Y130037D01*
X185694Y130045D01*
X185664Y130049D01*
X185642Y130052D01*
X185619Y130056D01*
X185604Y130060D01*
X185597Y130064D01*
X185593D01*
X185495Y130090D01*
X185406Y130120D01*
X185327Y130154D01*
X185259Y130184D01*
X185207Y130210D01*
X185184Y130225D01*
X185166Y130233D01*
X185151Y130244D01*
X185139Y130251D01*
X185135Y130255D01*
X185132D01*
X185061Y130307D01*
X184997Y130364D01*
X184937Y130420D01*
X184884Y130476D01*
X184843Y130529D01*
X184809Y130566D01*
X184798Y130581D01*
X184791Y130593D01*
X184783Y130600D01*
Y130604D01*
X184727Y130690D01*
X184674Y130784D01*
X184629Y130877D01*
X184592Y130967D01*
X184577Y131005D01*
X184562Y131043D01*
X184550Y131076D01*
X184539Y131106D01*
X184532Y131129D01*
X184524Y131148D01*
X184520Y131159D01*
Y131163D01*
X184487Y131294D01*
X184460Y131429D01*
X184442Y131560D01*
X184434Y131620D01*
X184427Y131680D01*
X184423Y131736D01*
X184419Y131785D01*
Y131830D01*
X184415Y131868D01*
Y131901D01*
Y131924D01*
Y131939D01*
Y131942D01*
X184423Y132130D01*
X184431Y132216D01*
X184438Y132302D01*
X184449Y132381D01*
X184464Y132456D01*
X184479Y132527D01*
X184491Y132591D01*
X184505Y132648D01*
X184520Y132700D01*
X184532Y132745D01*
X184547Y132782D01*
X184554Y132812D01*
X184562Y132835D01*
X184569Y132850D01*
Y132854D01*
X184633Y132996D01*
X184667Y133064D01*
X184704Y133127D01*
X184742Y133184D01*
X184779Y133236D01*
X184817Y133289D01*
X184851Y133334D01*
X184888Y133371D01*
X184918Y133409D01*
X184948Y133439D01*
X184974Y133465D01*
X184993Y133484D01*
X185008Y133499D01*
X185019Y133506D01*
X185023Y133510D01*
X185113Y133581D01*
X185211Y133637D01*
X185304Y133686D01*
X185394Y133724D01*
X185435Y133739D01*
X185473Y133754D01*
X185503Y133765D01*
X185533Y133773D01*
X185556Y133780D01*
X185574Y133784D01*
X185585Y133788D01*
X185589D01*
X185634Y133799D01*
X185687Y133806D01*
X185795Y133821D01*
X185908Y133829D01*
X186021Y133836D01*
X186069Y133840D01*
X186118D01*
X186159Y133844D01*
X187595D01*
Y130000D01*
D02*
G37*
%LPC*%
G36*
X228149Y57633D02*
X228123D01*
X228072Y57630D01*
X228025Y57624D01*
X227977Y57614D01*
X227935Y57601D01*
X227855Y57570D01*
X227823Y57554D01*
X227792Y57534D01*
X227763Y57515D01*
X227737Y57499D01*
X227718Y57480D01*
X227699Y57468D01*
X227686Y57455D01*
X227677Y57445D01*
X227670Y57439D01*
X227667Y57436D01*
X227635Y57397D01*
X227607Y57356D01*
X227584Y57314D01*
X227562Y57270D01*
X227543Y57225D01*
X227530Y57180D01*
X227508Y57098D01*
X227501Y57056D01*
X227495Y57021D01*
X227492Y56986D01*
X227489Y56960D01*
X227485Y56935D01*
Y56919D01*
Y56906D01*
Y56903D01*
X227489Y56839D01*
X227492Y56779D01*
X227501Y56721D01*
X227514Y56667D01*
X227527Y56616D01*
X227543Y56571D01*
X227562Y56530D01*
X227578Y56491D01*
X227594Y56456D01*
X227613Y56428D01*
X227629Y56402D01*
X227642Y56383D01*
X227655Y56367D01*
X227661Y56354D01*
X227667Y56348D01*
X227670Y56345D01*
X227706Y56310D01*
X227741Y56278D01*
X227779Y56249D01*
X227814Y56227D01*
X227852Y56208D01*
X227887Y56191D01*
X227958Y56166D01*
X228018Y56150D01*
X228044Y56147D01*
X228066Y56144D01*
X228082Y56141D01*
X228108D01*
X228171Y56144D01*
X228232Y56156D01*
X228289Y56172D01*
X228340Y56191D01*
X228382Y56208D01*
X228411Y56223D01*
X228423Y56230D01*
X228433Y56236D01*
X228436Y56239D01*
X228439D01*
X228493Y56281D01*
X228544Y56326D01*
X228586Y56373D01*
X228621Y56421D01*
X228650Y56463D01*
X228669Y56495D01*
X228675Y56507D01*
X228682Y56517D01*
X228685Y56523D01*
Y56526D01*
X228713Y56600D01*
X228736Y56670D01*
X228749Y56737D01*
X228761Y56798D01*
X228768Y56849D01*
Y56871D01*
X228771Y56890D01*
Y56906D01*
Y56916D01*
Y56922D01*
Y56925D01*
X228768Y56983D01*
X228761Y57037D01*
X228755Y57091D01*
X228742Y57139D01*
X228726Y57184D01*
X228710Y57225D01*
X228694Y57263D01*
X228675Y57298D01*
X228659Y57330D01*
X228643Y57359D01*
X228627Y57381D01*
X228611Y57401D01*
X228599Y57416D01*
X228592Y57426D01*
X228586Y57433D01*
X228583Y57436D01*
X228548Y57471D01*
X228509Y57499D01*
X228471Y57528D01*
X228433Y57551D01*
X228391Y57570D01*
X228353Y57586D01*
X228283Y57608D01*
X228248Y57617D01*
X228219Y57624D01*
X228190Y57627D01*
X228168Y57630D01*
X228149Y57633D01*
D02*
G37*
G36*
X239285Y58750D02*
X238347D01*
X238303Y58747D01*
X238261Y58744D01*
X238226D01*
X238194Y58740D01*
X238165Y58737D01*
X238137Y58734D01*
X238118Y58731D01*
X238099Y58728D01*
X238083Y58724D01*
X238070D01*
X238054Y58718D01*
X238048D01*
X237987Y58696D01*
X237933Y58670D01*
X237885Y58638D01*
X237846Y58606D01*
X237815Y58574D01*
X237792Y58549D01*
X237776Y58533D01*
X237773Y58530D01*
Y58527D01*
X237738Y58469D01*
X237713Y58409D01*
X237693Y58351D01*
X237681Y58297D01*
X237674Y58249D01*
X237671Y58227D01*
X237668Y58211D01*
Y58195D01*
Y58185D01*
Y58179D01*
Y58176D01*
X237671Y58125D01*
X237674Y58077D01*
X237697Y57987D01*
X237709Y57949D01*
X237725Y57911D01*
X237741Y57879D01*
X237757Y57850D01*
X237773Y57822D01*
X237789Y57799D01*
X237805Y57780D01*
X237818Y57764D01*
X237831Y57752D01*
X237840Y57742D01*
X237843Y57739D01*
X237846Y57736D01*
X237882Y57710D01*
X237923Y57684D01*
X237968Y57665D01*
X238012Y57646D01*
X238111Y57621D01*
X238210Y57601D01*
X238255Y57595D01*
X238299Y57592D01*
X238338Y57586D01*
X238373D01*
X238402Y57582D01*
X239285D01*
Y58750D01*
D02*
G37*
G36*
X235546Y58491D02*
Y57015D01*
X236574D01*
X235546Y58491D01*
D02*
G37*
G36*
X233262Y58817D02*
X233237D01*
X233186Y58814D01*
X233135Y58804D01*
X233087Y58791D01*
X233042Y58776D01*
X232963Y58731D01*
X232927Y58709D01*
X232896Y58683D01*
X232864Y58657D01*
X232838Y58635D01*
X232816Y58613D01*
X232800Y58590D01*
X232784Y58574D01*
X232774Y58562D01*
X232768Y58552D01*
X232765Y58549D01*
X232733Y58495D01*
X232701Y58428D01*
X232679Y58351D01*
X232656Y58271D01*
X232637Y58182D01*
X232621Y58093D01*
X232599Y57914D01*
X232593Y57828D01*
X232586Y57745D01*
X232583Y57672D01*
X232580Y57608D01*
Y57579D01*
X232577Y57554D01*
Y57531D01*
Y57512D01*
Y57496D01*
Y57487D01*
Y57480D01*
Y57477D01*
X232580Y57334D01*
X232586Y57200D01*
X232596Y57078D01*
X232605Y56970D01*
X232621Y56871D01*
X232637Y56785D01*
X232653Y56708D01*
X232672Y56641D01*
X232692Y56581D01*
X232707Y56533D01*
X232723Y56491D01*
X232739Y56459D01*
X232749Y56434D01*
X232758Y56418D01*
X232765Y56409D01*
X232768Y56405D01*
X232803Y56357D01*
X232841Y56319D01*
X232880Y56284D01*
X232921Y56252D01*
X232959Y56227D01*
X232998Y56204D01*
X233033Y56188D01*
X233071Y56172D01*
X233103Y56163D01*
X233135Y56153D01*
X233160Y56150D01*
X233186Y56144D01*
X233205D01*
X233218Y56141D01*
X233231D01*
X233282Y56144D01*
X233330Y56153D01*
X233377Y56166D01*
X233419Y56182D01*
X233499Y56223D01*
X233534Y56249D01*
X233569Y56274D01*
X233597Y56297D01*
X233623Y56322D01*
X233645Y56345D01*
X233661Y56364D01*
X233677Y56380D01*
X233687Y56393D01*
X233693Y56402D01*
X233696Y56405D01*
X233728Y56459D01*
X233757Y56526D01*
X233783Y56603D01*
X233805Y56686D01*
X233824Y56772D01*
X233840Y56862D01*
X233862Y57040D01*
X233869Y57126D01*
X233875Y57209D01*
X233878Y57283D01*
X233881Y57346D01*
Y57375D01*
X233885Y57401D01*
Y57423D01*
Y57442D01*
Y57458D01*
Y57468D01*
Y57474D01*
Y57477D01*
X233881Y57621D01*
X233875Y57755D01*
X233865Y57879D01*
X233853Y57987D01*
X233837Y58090D01*
X233821Y58179D01*
X233802Y58259D01*
X233783Y58332D01*
X233763Y58393D01*
X233744Y58444D01*
X233728Y58488D01*
X233712Y58520D01*
X233699Y58549D01*
X233690Y58568D01*
X233684Y58578D01*
X233680Y58581D01*
X233648Y58622D01*
X233613Y58657D01*
X233578Y58689D01*
X233540Y58718D01*
X233505Y58740D01*
X233467Y58759D01*
X233432Y58776D01*
X233397Y58788D01*
X233333Y58804D01*
X233307Y58811D01*
X233282Y58814D01*
X233262Y58817D01*
D02*
G37*
G36*
X243449Y103852D02*
X242422D01*
X243449Y102375D01*
Y103852D01*
D02*
G37*
G36*
X240699Y104726D02*
X240687D01*
X240636Y104722D01*
X240588Y104713D01*
X240540Y104700D01*
X240498Y104684D01*
X240419Y104643D01*
X240384Y104617D01*
X240349Y104592D01*
X240320Y104569D01*
X240294Y104544D01*
X240272Y104522D01*
X240256Y104502D01*
X240240Y104486D01*
X240230Y104474D01*
X240224Y104464D01*
X240221Y104461D01*
X240189Y104407D01*
X240160Y104340D01*
X240135Y104263D01*
X240112Y104180D01*
X240093Y104094D01*
X240077Y104005D01*
X240055Y103826D01*
X240049Y103740D01*
X240042Y103657D01*
X240039Y103584D01*
X240036Y103520D01*
Y103491D01*
X240033Y103466D01*
Y103443D01*
Y103424D01*
Y103408D01*
Y103399D01*
Y103392D01*
Y103389D01*
X240036Y103245D01*
X240042Y103112D01*
X240052Y102987D01*
X240065Y102879D01*
X240080Y102777D01*
X240096Y102687D01*
X240116Y102608D01*
X240135Y102534D01*
X240154Y102473D01*
X240173Y102422D01*
X240189Y102378D01*
X240205Y102346D01*
X240218Y102317D01*
X240227Y102298D01*
X240234Y102288D01*
X240237Y102285D01*
X240269Y102244D01*
X240304Y102209D01*
X240339Y102177D01*
X240377Y102148D01*
X240412Y102126D01*
X240451Y102107D01*
X240486Y102091D01*
X240521Y102078D01*
X240584Y102062D01*
X240610Y102056D01*
X240636Y102052D01*
X240655Y102049D01*
X240680D01*
X240731Y102052D01*
X240782Y102062D01*
X240830Y102075D01*
X240875Y102091D01*
X240955Y102135D01*
X240990Y102158D01*
X241022Y102183D01*
X241054Y102209D01*
X241079Y102231D01*
X241101Y102253D01*
X241117Y102276D01*
X241133Y102292D01*
X241143Y102304D01*
X241149Y102314D01*
X241152Y102317D01*
X241184Y102371D01*
X241216Y102438D01*
X241238Y102515D01*
X241261Y102595D01*
X241280Y102684D01*
X241296Y102773D01*
X241318Y102952D01*
X241325Y103038D01*
X241331Y103121D01*
X241334Y103194D01*
X241337Y103258D01*
Y103287D01*
X241341Y103313D01*
Y103335D01*
Y103354D01*
Y103370D01*
Y103379D01*
Y103386D01*
Y103389D01*
X241337Y103533D01*
X241331Y103667D01*
X241321Y103788D01*
X241312Y103896D01*
X241296Y103995D01*
X241280Y104081D01*
X241264Y104158D01*
X241245Y104225D01*
X241226Y104285D01*
X241210Y104333D01*
X241194Y104375D01*
X241178Y104407D01*
X241168Y104432D01*
X241159Y104448D01*
X241152Y104458D01*
X241149Y104461D01*
X241114Y104509D01*
X241076Y104547D01*
X241038Y104582D01*
X240996Y104614D01*
X240958Y104639D01*
X240919Y104662D01*
X240884Y104678D01*
X240846Y104694D01*
X240814Y104703D01*
X240782Y104713D01*
X240757Y104716D01*
X240731Y104722D01*
X240712D01*
X240699Y104726D01*
D02*
G37*
G36*
X268759Y148109D02*
X268729D01*
X268672Y148105D01*
X268620Y148098D01*
X268567Y148082D01*
X268519Y148067D01*
X268429Y148026D01*
X268354Y147977D01*
X268320Y147951D01*
X268294Y147925D01*
X268267Y147902D01*
X268245Y147884D01*
X268230Y147869D01*
X268219Y147854D01*
X268211Y147846D01*
X268208Y147843D01*
X268170Y147790D01*
X268132Y147730D01*
X268106Y147670D01*
X268080Y147606D01*
X268057Y147539D01*
X268039Y147471D01*
X268012Y147344D01*
X268005Y147284D01*
X267998Y147227D01*
X267994Y147175D01*
X267990Y147130D01*
X267986Y147096D01*
Y147066D01*
Y147051D01*
Y147044D01*
X267990Y146942D01*
X267998Y146849D01*
X268009Y146759D01*
X268020Y146680D01*
X268039Y146605D01*
X268057Y146537D01*
X268076Y146477D01*
X268099Y146421D01*
X268121Y146372D01*
X268140Y146331D01*
X268159Y146298D01*
X268178Y146267D01*
X268189Y146249D01*
X268200Y146230D01*
X268208Y146222D01*
X268211Y146219D01*
X268252Y146174D01*
X268298Y146132D01*
X268346Y146095D01*
X268391Y146065D01*
X268436Y146039D01*
X268481Y146016D01*
X268523Y146001D01*
X268564Y145986D01*
X268605Y145975D01*
X268639Y145967D01*
X268672Y145960D01*
X268699Y145956D01*
X268721Y145952D01*
X268751D01*
X268808Y145956D01*
X268864Y145964D01*
X268913Y145975D01*
X268961Y145994D01*
X269051Y146035D01*
X269130Y146080D01*
X269164Y146102D01*
X269190Y146129D01*
X269216Y146148D01*
X269239Y146166D01*
X269254Y146185D01*
X269265Y146196D01*
X269272Y146204D01*
X269276Y146207D01*
X269314Y146260D01*
X269348Y146316D01*
X269377Y146376D01*
X269400Y146440D01*
X269423Y146507D01*
X269441Y146571D01*
X269467Y146702D01*
X269475Y146762D01*
X269482Y146819D01*
X269486Y146871D01*
X269490Y146916D01*
X269494Y146950D01*
Y146980D01*
Y146995D01*
Y147002D01*
X269490Y147100D01*
X269482Y147194D01*
X269471Y147280D01*
X269456Y147359D01*
X269441Y147434D01*
X269423Y147501D01*
X269400Y147561D01*
X269377Y147617D01*
X269359Y147662D01*
X269336Y147707D01*
X269318Y147741D01*
X269299Y147771D01*
X269287Y147794D01*
X269276Y147812D01*
X269269Y147820D01*
X269265Y147824D01*
X269220Y147872D01*
X269175Y147917D01*
X269130Y147955D01*
X269081Y147989D01*
X269036Y148015D01*
X268991Y148037D01*
X268950Y148060D01*
X268909Y148075D01*
X268871Y148086D01*
X268837Y148094D01*
X268808Y148101D01*
X268781Y148105D01*
X268759Y148109D01*
D02*
G37*
G36*
X265774D02*
X265744D01*
X265687Y148105D01*
X265635Y148098D01*
X265582Y148082D01*
X265534Y148067D01*
X265444Y148026D01*
X265369Y147977D01*
X265335Y147951D01*
X265309Y147925D01*
X265283Y147902D01*
X265260Y147884D01*
X265245Y147869D01*
X265234Y147854D01*
X265226Y147846D01*
X265223Y147843D01*
X265185Y147790D01*
X265147Y147730D01*
X265121Y147670D01*
X265095Y147606D01*
X265072Y147539D01*
X265054Y147471D01*
X265027Y147344D01*
X265020Y147284D01*
X265013Y147227D01*
X265009Y147175D01*
X265005Y147130D01*
X265001Y147096D01*
Y147066D01*
Y147051D01*
Y147044D01*
X265005Y146942D01*
X265013Y146849D01*
X265024Y146759D01*
X265035Y146680D01*
X265054Y146605D01*
X265072Y146537D01*
X265091Y146477D01*
X265114Y146421D01*
X265136Y146372D01*
X265155Y146331D01*
X265174Y146298D01*
X265193Y146267D01*
X265204Y146249D01*
X265215Y146230D01*
X265223Y146222D01*
X265226Y146219D01*
X265267Y146174D01*
X265313Y146132D01*
X265361Y146095D01*
X265406Y146065D01*
X265451Y146039D01*
X265496Y146016D01*
X265538Y146001D01*
X265579Y145986D01*
X265620Y145975D01*
X265654Y145967D01*
X265687Y145960D01*
X265714Y145956D01*
X265736Y145952D01*
X265766D01*
X265823Y145956D01*
X265879Y145964D01*
X265928Y145975D01*
X265976Y145994D01*
X266066Y146035D01*
X266145Y146080D01*
X266179Y146102D01*
X266205Y146129D01*
X266231Y146148D01*
X266254Y146166D01*
X266269Y146185D01*
X266280Y146196D01*
X266287Y146204D01*
X266291Y146207D01*
X266329Y146260D01*
X266363Y146316D01*
X266392Y146376D01*
X266415Y146440D01*
X266438Y146507D01*
X266456Y146571D01*
X266482Y146702D01*
X266490Y146762D01*
X266497Y146819D01*
X266501Y146871D01*
X266505Y146916D01*
X266509Y146950D01*
Y146980D01*
Y146995D01*
Y147002D01*
X266505Y147100D01*
X266497Y147194D01*
X266486Y147280D01*
X266471Y147359D01*
X266456Y147434D01*
X266438Y147501D01*
X266415Y147561D01*
X266392Y147617D01*
X266374Y147662D01*
X266351Y147707D01*
X266333Y147741D01*
X266314Y147771D01*
X266302Y147794D01*
X266291Y147812D01*
X266284Y147820D01*
X266280Y147824D01*
X266235Y147872D01*
X266190Y147917D01*
X266145Y147955D01*
X266096Y147989D01*
X266051Y148015D01*
X266006Y148037D01*
X265965Y148060D01*
X265924Y148075D01*
X265886Y148086D01*
X265852Y148094D01*
X265823Y148101D01*
X265796Y148105D01*
X265774Y148109D01*
D02*
G37*
G36*
X202843Y133444D02*
X201550D01*
X201478Y133436D01*
X201414Y133429D01*
X201351Y133417D01*
X201294Y133402D01*
X201246Y133387D01*
X201201Y133372D01*
X201160Y133357D01*
X201122Y133339D01*
X201092Y133324D01*
X201066Y133309D01*
X201043Y133294D01*
X201028Y133282D01*
X201013Y133275D01*
X201009Y133271D01*
X201006Y133267D01*
X200972Y133234D01*
X200938Y133196D01*
X200912Y133162D01*
X200889Y133121D01*
X200856Y133046D01*
X200833Y132975D01*
X200818Y132915D01*
X200815Y132885D01*
X200811Y132862D01*
X200807Y132844D01*
Y132829D01*
Y132821D01*
Y132817D01*
X200811Y132750D01*
X200822Y132682D01*
X200841Y132626D01*
X200859Y132574D01*
X200878Y132529D01*
X200897Y132499D01*
X200908Y132476D01*
X200912Y132472D01*
Y132469D01*
X200953Y132412D01*
X201002Y132367D01*
X201051Y132326D01*
X201099Y132296D01*
X201141Y132270D01*
X201174Y132255D01*
X201201Y132244D01*
X201204Y132240D01*
X201208D01*
X201287Y132217D01*
X201377Y132199D01*
X201467Y132187D01*
X201553Y132176D01*
X201594D01*
X201632Y132172D01*
X201666D01*
X201696Y132169D01*
X202843D01*
Y133444D01*
D02*
G37*
G36*
X187085Y133390D02*
X186197D01*
X186122Y133386D01*
X186050Y133382D01*
X185987Y133379D01*
X185927Y133371D01*
X185871Y133364D01*
X185826Y133356D01*
X185781Y133352D01*
X185743Y133345D01*
X185709Y133337D01*
X185683Y133330D01*
X185661Y133323D01*
X185645Y133319D01*
X185634Y133315D01*
X185627Y133311D01*
X185623D01*
X185571Y133289D01*
X185522Y133259D01*
X185428Y133195D01*
X185345Y133124D01*
X185274Y133049D01*
X185218Y132981D01*
X185196Y132951D01*
X185173Y132925D01*
X185158Y132903D01*
X185147Y132887D01*
X185143Y132876D01*
X185139Y132872D01*
X185106Y132809D01*
X185072Y132741D01*
X185046Y132666D01*
X185023Y132591D01*
X184989Y132438D01*
X184974Y132362D01*
X184967Y132291D01*
X184956Y132220D01*
X184952Y132156D01*
X184948Y132100D01*
X184944Y132047D01*
X184941Y132006D01*
Y131976D01*
Y131957D01*
Y131950D01*
X184944Y131792D01*
X184948Y131721D01*
X184956Y131650D01*
X184963Y131586D01*
X184974Y131523D01*
X184982Y131466D01*
X184989Y131418D01*
X185001Y131369D01*
X185008Y131327D01*
X185019Y131294D01*
X185027Y131264D01*
X185030Y131237D01*
X185038Y131222D01*
X185042Y131211D01*
Y131208D01*
X185083Y131099D01*
X185128Y131005D01*
X185177Y130922D01*
X185222Y130851D01*
X185263Y130795D01*
X185282Y130776D01*
X185297Y130757D01*
X185308Y130743D01*
X185319Y130731D01*
X185323Y130728D01*
X185327Y130724D01*
X185379Y130679D01*
X185435Y130638D01*
X185492Y130604D01*
X185548Y130574D01*
X185597Y130551D01*
X185634Y130536D01*
X185649Y130529D01*
X185661Y130525D01*
X185668Y130521D01*
X185672D01*
X185713Y130510D01*
X185758Y130499D01*
X185855Y130484D01*
X185953Y130469D01*
X186050Y130461D01*
X186095D01*
X186137Y130457D01*
X186174D01*
X186204Y130454D01*
X187085D01*
Y133390D01*
D02*
G37*
%LPD*%
D11*
X204000Y4358D02*
G03*
X204000Y4358I-500J0D01*
G01*
X189000Y9658D02*
X190090Y9858D01*
X189000Y9658D02*
Y11058D01*
X191200Y9858D01*
X188700Y8658D02*
X191200Y9858D01*
X196500Y4543D02*
Y5858D01*
X200000Y3858D02*
Y5858D01*
X196500Y13858D02*
Y15173D01*
X200000Y13858D02*
Y15858D01*
X179370Y3858D02*
Y5606D01*
Y15858D02*
X200000D01*
X179370Y14209D02*
Y15858D01*
Y3858D02*
X200000D01*
X-5614Y60646D02*
Y78646D01*
X12386Y60646D02*
Y78646D01*
X25882Y84268D02*
Y102268D01*
X43882Y84268D02*
X43882Y102268D01*
X57378Y60646D02*
Y78646D01*
X75378Y60646D02*
Y78646D01*
X304622Y60646D02*
Y78646D01*
X322622Y60646D02*
Y78646D01*
X336118Y84268D02*
Y102268D01*
X354118Y84268D02*
Y102268D01*
X367614Y60646D02*
Y78646D01*
X385614Y60646D02*
Y78646D01*
X25882Y37024D02*
Y55024D01*
X43882Y37024D02*
X43882Y55024D01*
X336118Y37024D02*
Y55024D01*
X354118Y37024D02*
Y55024D01*
X175010Y24528D02*
Y47658D01*
X204710Y24528D02*
Y47658D01*
X175010D02*
X204710D01*
X193750Y24528D02*
Y27058D01*
X175010Y24528D02*
X185800D01*
Y27058D01*
X193750Y24528D02*
X201630D01*
X204710D01*
X185800Y27058D02*
X193750D01*
X197283Y20795D02*
X193284D01*
X195284Y22794D02*
Y18795D01*
X187000Y20825D02*
X183001D01*
X29000Y144715D02*
X25851D01*
X29000Y125361D02*
X25851D01*
X27426Y126936D02*
Y123787D01*
X353533Y125030D02*
X350384D01*
X351959Y126604D02*
Y123456D01*
X353533Y144361D02*
X350384D01*
X113000Y27058D02*
X111294D01*
X112147D01*
Y32175D01*
X113000Y31322D01*
X108736Y32175D02*
Y27058D01*
Y28764D01*
X105325Y32175D01*
X107884Y29616D01*
X105325Y27058D01*
X113000Y16500D02*
X111294D01*
X112147D01*
Y21617D01*
X113000Y20764D01*
X108736Y21617D02*
Y16500D01*
Y18205D01*
X105325Y21617D01*
X107884Y19058D01*
X105325Y16500D01*
X166616Y123575D02*
X165764Y121870D01*
X164058Y120164D01*
X162353D01*
X161500Y121017D01*
Y122722D01*
X162353Y123575D01*
X163206D01*
X164058Y122722D01*
Y120164D01*
X166616Y128692D02*
X165764Y126986D01*
X164058Y125281D01*
X162353D01*
X161500Y126134D01*
Y127839D01*
X162353Y128692D01*
X163206D01*
X164058Y127839D01*
Y125281D01*
X161500Y133808D02*
Y130397D01*
X164911Y133808D01*
X165764D01*
X166616Y132955D01*
Y131250D01*
X165764Y130397D01*
X166616Y135514D02*
X161500D01*
X163206D01*
X166616Y138925D01*
X164058Y136366D01*
X161500Y138925D01*
X226224Y77451D02*
X224518D01*
X225371D01*
Y82567D01*
X226224Y81714D01*
X221960D02*
X221107Y82567D01*
X219402D01*
X218549Y81714D01*
Y78303D01*
X219402Y77451D01*
X221107D01*
X221960Y78303D01*
Y81714D01*
X216844Y77451D02*
Y82567D01*
Y79156D02*
X214285Y80862D01*
X216844Y79156D02*
X214285Y77451D01*
X261466Y120000D02*
X259760D01*
X260613D01*
Y125117D01*
X261466Y124264D01*
X257202D02*
X256349Y125117D01*
X254644D01*
X253791Y124264D01*
Y120853D01*
X254644Y120000D01*
X256349D01*
X257202Y120853D01*
Y124264D01*
X252085Y125117D02*
Y120000D01*
Y121705D01*
X248674Y125117D01*
X251233Y122558D01*
X248674Y120000D01*
X276000Y77461D02*
X274294D01*
X275147D01*
Y82577D01*
X276000Y81724D01*
X271736D02*
X270884Y82577D01*
X269178D01*
X268325Y81724D01*
Y78313D01*
X269178Y77461D01*
X270884D01*
X271736Y78313D01*
Y81724D01*
X266620Y82577D02*
Y77461D01*
Y79166D01*
X263209Y82577D01*
X265767Y80019D01*
X263209Y77461D01*
X169992Y20000D02*
Y25117D01*
X166581Y20000D01*
Y25117D01*
X164876Y19147D02*
X161465D01*
X159759Y20000D02*
Y25117D01*
X158054Y23411D01*
X156348Y25117D01*
Y20000D01*
X152085Y25117D02*
X153790D01*
X154643Y24264D01*
Y20853D01*
X153790Y20000D01*
X152085D01*
X151232Y20853D01*
Y24264D01*
X152085Y25117D01*
X146115Y24264D02*
X146968Y25117D01*
X148674D01*
X149526Y24264D01*
Y23411D01*
X148674Y22558D01*
X146968D01*
X146115Y21705D01*
Y20853D01*
X146968Y20000D01*
X148674D01*
X149526Y20853D01*
X281472Y98012D02*
X280620Y98864D01*
X278914D01*
X278062Y98012D01*
Y97159D01*
X278914Y96306D01*
X278062Y95454D01*
Y94601D01*
X278914Y93748D01*
X280620D01*
X281472Y94601D01*
Y95454D01*
X280620Y96306D01*
X281472Y97159D01*
Y98012D01*
X280620Y96306D02*
X278914D01*
X276356Y98012D02*
X275503Y98864D01*
X273798D01*
X272945Y98012D01*
Y94601D01*
X273798Y93748D01*
X275503D01*
X276356Y94601D01*
Y98012D01*
X267829Y98864D02*
X271240D01*
Y96306D01*
X269534Y97159D01*
X268681D01*
X267829Y96306D01*
Y94601D01*
X268681Y93748D01*
X270387D01*
X271240Y94601D01*
X266123Y98012D02*
X265270Y98864D01*
X263565D01*
X262712Y98012D01*
Y94601D01*
X263565Y93748D01*
X265270D01*
X266123Y94601D01*
Y98012D01*
X197500Y45998D02*
Y40000D01*
X194501D01*
X193501Y41000D01*
Y41999D01*
X194501Y42999D01*
X197500D01*
X194501D01*
X193501Y43999D01*
Y44998D01*
X194501Y45998D01*
X197500D01*
X191502Y40000D02*
Y43999D01*
X189503Y45998D01*
X187503Y43999D01*
Y40000D01*
Y42999D01*
X191502D01*
X185504Y45998D02*
X181505D01*
X183504D01*
Y40000D01*
X150000Y120745D02*
Y122451D01*
Y121598D01*
X155116D01*
X154264Y120745D01*
Y125009D02*
X155116Y125862D01*
Y127567D01*
X154264Y128420D01*
X150853D01*
X150000Y127567D01*
Y125862D01*
X150853Y125009D01*
X154264D01*
X150000Y132684D02*
X155116D01*
X152558Y130125D01*
Y133536D01*
X177636Y121000D02*
Y122705D01*
Y121853D01*
X182752D01*
X181900Y121000D01*
Y125264D02*
X182752Y126117D01*
Y127822D01*
X181900Y128675D01*
X178489D01*
X177636Y127822D01*
Y126117D01*
X178489Y125264D01*
X181900D01*
X181047Y130380D02*
X178489D01*
X177636Y131233D01*
Y133791D01*
X181047D01*
X182752Y138908D02*
Y135497D01*
X180194D01*
Y137202D01*
Y135497D01*
X177636D01*
X119589Y54331D02*
X123000D01*
X119589Y57742D01*
Y58594D01*
X120442Y59447D01*
X122147D01*
X123000Y58594D01*
X117884D02*
X117031Y59447D01*
X115325D01*
X114473Y58594D01*
Y55183D01*
X115325Y54331D01*
X117031D01*
X117884Y55183D01*
Y58594D01*
X112767Y59447D02*
Y54331D01*
Y56036D01*
X109356Y59447D01*
X111914Y56889D01*
X109356Y54331D01*
X147638Y62992D02*
X145932D01*
X146785D01*
Y68109D01*
X147638Y67256D01*
X143374D02*
X142521Y68109D01*
X140816D01*
X139963Y67256D01*
Y63845D01*
X140816Y62992D01*
X142521D01*
X143374Y63845D01*
Y67256D01*
X138258Y68109D02*
Y62992D01*
Y64698D01*
X134847Y68109D01*
X137405Y65550D01*
X134847Y62992D01*
X363060Y116724D02*
X363913Y117577D01*
X365619D01*
X366471Y116724D01*
Y113313D01*
X365619Y112461D01*
X363913D01*
X363060Y113313D01*
X361355Y117577D02*
Y112461D01*
Y115019D01*
X357944D01*
Y117577D01*
Y112461D01*
X356238D02*
X354533D01*
X355386D01*
Y117577D01*
X356238Y116724D01*
X347056D02*
X347908Y117577D01*
X349614D01*
X350466Y116724D01*
Y113313D01*
X349614Y112461D01*
X347908D01*
X347056Y113313D01*
X345350Y117577D02*
Y112461D01*
Y115019D01*
X341939D01*
Y117577D01*
Y112461D01*
X336823D02*
X340234D01*
X336823Y115872D01*
Y116724D01*
X337675Y117577D01*
X339381D01*
X340234Y116724D01*
X22589Y117055D02*
X23442Y117908D01*
X25147D01*
X26000Y117055D01*
Y113644D01*
X25147Y112792D01*
X23442D01*
X22589Y113644D01*
X20884Y117908D02*
Y112792D01*
Y115350D01*
X17473D01*
Y117908D01*
Y112792D01*
X15767Y117055D02*
X14914Y117908D01*
X13209D01*
X12356Y117055D01*
Y116203D01*
X13209Y115350D01*
X14062D01*
X13209D01*
X12356Y114497D01*
Y113644D01*
X13209Y112792D01*
X14914D01*
X15767Y113644D01*
X6589Y117264D02*
X7442Y118116D01*
X9147D01*
X10000Y117264D01*
Y113853D01*
X9147Y113000D01*
X7442D01*
X6589Y113853D01*
X4883Y118116D02*
Y113000D01*
Y115558D01*
X1473D01*
Y118116D01*
Y113000D01*
X-2791D02*
Y118116D01*
X-233Y115558D01*
X-3644D01*
X53214Y118459D02*
X57213D01*
Y115460D01*
X55213Y116459D01*
X54214D01*
X53214Y115460D01*
Y113460D01*
X54214Y112461D01*
X56213D01*
X57213Y113460D01*
X43368Y118459D02*
X45368Y117459D01*
X47367Y115460D01*
Y113460D01*
X46367Y112461D01*
X44368D01*
X43368Y113460D01*
Y114460D01*
X44368Y115460D01*
X47367D01*
X37000Y118119D02*
X33001D01*
Y117120D01*
X37000Y113121D01*
Y112121D01*
X332849Y126932D02*
X333702Y127785D01*
X335407D01*
X336260Y126932D01*
Y123521D01*
X335407Y122669D01*
X333702D01*
X332849Y123521D01*
X331143Y127785D02*
Y122669D01*
Y125227D01*
X327732D01*
Y127785D01*
Y122669D01*
X326027D02*
Y126080D01*
X324321Y127785D01*
X322616Y126080D01*
Y122669D01*
Y125227D01*
X326027D01*
X317620Y117998D02*
Y112000D01*
X314621D01*
X313622Y113000D01*
Y113999D01*
X314621Y114999D01*
X317620D01*
X314621D01*
X313622Y115999D01*
Y116998D01*
X314621Y117998D01*
X317620D01*
X304001Y116998D02*
X305001Y117998D01*
X307000D01*
X308000Y116998D01*
Y113000D01*
X307000Y112000D01*
X305001D01*
X304001Y113000D01*
X298000Y127651D02*
Y121653D01*
X295001D01*
X294001Y122653D01*
Y126652D01*
X295001Y127651D01*
X298000D01*
X284285D02*
X288283D01*
Y121653D01*
X284285D01*
X288283Y124652D02*
X286284D01*
X242883Y23622D02*
X241178D01*
X242030D01*
Y28738D01*
X242883Y27886D01*
X238619Y23622D02*
Y24475D01*
X237767D01*
Y23622D01*
X238619D01*
X230945D02*
X234356D01*
X230945Y27033D01*
Y27886D01*
X231798Y28738D01*
X233503D01*
X234356Y27886D01*
X229239Y28738D02*
Y23622D01*
Y25328D01*
X225828Y28738D01*
X228386Y26180D01*
X225828Y23622D01*
X207576Y86000D02*
Y87705D01*
Y86853D01*
X212693D01*
X211840Y86000D01*
X207576Y93675D02*
Y90264D01*
X210987Y93675D01*
X211840D01*
X212693Y92822D01*
Y91116D01*
X211840Y90264D01*
X207576Y95380D02*
X212693D01*
X210987Y97086D01*
X212693Y98791D01*
X207576D01*
X212693Y100497D02*
X207576D01*
X210135D01*
Y103908D01*
X212693D01*
X207576D01*
X210987Y105613D02*
Y109024D01*
X207576Y105613D01*
Y109024D01*
X140000Y121164D02*
Y122870D01*
Y122017D01*
X145116D01*
X144264Y121164D01*
Y125428D02*
X145116Y126281D01*
Y127986D01*
X144264Y128839D01*
X140853D01*
X140000Y127986D01*
Y126281D01*
X140853Y125428D01*
X144264D01*
X143411Y130544D02*
X140853D01*
X140000Y131397D01*
Y133955D01*
X143411D01*
X145116Y139072D02*
Y135661D01*
X142558D01*
Y137366D01*
Y135661D01*
X140000D01*
X168389Y51700D02*
X171800D01*
X168389Y55111D01*
Y55964D01*
X169242Y56817D01*
X170947D01*
X171800Y55964D01*
X166683D02*
X165831Y56817D01*
X164125D01*
X163273Y55964D01*
Y52553D01*
X164125Y51700D01*
X165831D01*
X166683Y52553D01*
Y55964D01*
X161567Y56817D02*
Y51700D01*
Y53405D01*
X158156Y56817D01*
X160714Y54258D01*
X158156Y51700D01*
D12*
X225157Y109461D02*
X244843D01*
X225157Y97461D02*
X244843D01*
Y109461D01*
X249100Y100217D02*
X252250D01*
X249100Y96674D02*
Y100217D01*
X257761D02*
X260911D01*
Y96674D02*
Y100217D01*
X225157Y51461D02*
Y63461D01*
X244843D01*
X225157Y51461D02*
X244843D01*
X167756Y80217D02*
Y83366D01*
X163819D02*
X167756D01*
Y71555D02*
Y74705D01*
X163819Y71555D02*
X167756D01*
X167756Y115217D02*
Y118366D01*
X163819D02*
X167756D01*
Y106555D02*
Y109705D01*
X163819Y106555D02*
X167756D01*
X331000Y129961D02*
Y149961D01*
X321000Y129961D02*
X331000D01*
X321000D02*
Y149961D01*
X331000D01*
X311000Y119871D02*
X321000D01*
Y149871D01*
X311000D02*
X321000D01*
X311000Y119871D02*
Y149871D01*
X301000Y119871D02*
X311000D01*
Y149871D01*
X301000D02*
X311000D01*
X301000Y119871D02*
Y149871D01*
Y129961D02*
Y149961D01*
X291000Y129961D02*
X301000D01*
X291000D02*
Y149961D01*
X301000D01*
X291000Y129961D02*
Y149961D01*
X281000Y129961D02*
X291000D01*
X281000D02*
Y149961D01*
X291000D01*
X355664Y119871D02*
X365664D01*
Y149871D01*
X355664D02*
X365664D01*
X355664Y119871D02*
Y149871D01*
X338532Y119871D02*
X348532D01*
Y149871D01*
X338532D02*
X348532D01*
X338532Y119871D02*
Y149871D01*
X50496Y119871D02*
X60496D01*
Y149871D01*
X50496D02*
X60496D01*
X50496Y119871D02*
Y149871D01*
X40496Y119871D02*
X50496D01*
Y149871D01*
X40496D02*
X50496D01*
X40496Y119871D02*
Y149871D01*
X30496Y119871D02*
X40496D01*
Y149871D01*
X30496D02*
X40496D01*
X30496Y119871D02*
Y149871D01*
X14528Y150000D02*
X24528D01*
X14528Y120000D02*
Y150000D01*
Y120000D02*
X24528D01*
Y150000D01*
X-1338Y149936D02*
X8662D01*
X-1338Y119936D02*
Y149936D01*
Y119936D02*
X8662D01*
Y149936D01*
X160244Y27561D02*
Y30710D01*
Y27561D02*
X163787D01*
X160244Y36222D02*
Y39372D01*
X163787D01*
X163819Y89055D02*
X167756D01*
Y92205D01*
X163819Y100866D02*
X167756D01*
Y97717D02*
Y100866D01*
X107869Y104020D02*
X103870Y101163D01*
Y105448D01*
X107869Y104020D02*
X101870D01*
X107869Y107362D02*
X103013D01*
X102156Y107647D01*
X101870Y108219D01*
Y108790D01*
X105869Y106505D02*
Y108504D01*
Y111075D02*
X105584Y110504D01*
X105012Y109933D01*
X104155Y109647D01*
X103584D01*
X102727Y109933D01*
X102156Y110504D01*
X101870Y111075D01*
Y111932D01*
X102156Y112503D01*
X102727Y113075D01*
X103584Y113360D01*
X104155D01*
X105012Y113075D01*
X105584Y112503D01*
X105869Y111932D01*
Y111075D01*
X106726Y114674D02*
X107012Y115246D01*
X107869Y116103D01*
X101870D01*
X97337Y101163D02*
X91339D01*
X97337D02*
X91339Y105162D01*
X97337D02*
X91339D01*
X97337Y106819D02*
X91339D01*
X97337D02*
Y109390D01*
X97052Y110247D01*
X96766Y110532D01*
X96195Y110818D01*
X95623D01*
X95052Y110532D01*
X94766Y110247D01*
X94481Y109390D01*
Y106819D01*
Y108818D02*
X91339Y110818D01*
X97337Y114446D02*
Y113875D01*
X97052Y113303D01*
X96195Y113018D01*
X91339D01*
X95338Y112161D02*
Y114160D01*
X95909Y115588D02*
X96195D01*
X96766Y115874D01*
X97052Y116160D01*
X97337Y116731D01*
Y117874D01*
X97052Y118445D01*
X96766Y118731D01*
X96195Y119016D01*
X95623D01*
X95052Y118731D01*
X94195Y118159D01*
X91339Y115303D01*
Y119302D01*
X97337Y123501D02*
X93338Y120645D01*
Y124929D01*
X97337Y123501D02*
X91339D01*
X97337Y125986D02*
X91339D01*
Y129414D01*
X97337Y131785D02*
X97052Y130928D01*
X96195Y130357D01*
X94766Y130071D01*
X93910D01*
X92481Y130357D01*
X91624Y130928D01*
X91339Y131785D01*
Y132356D01*
X91624Y133213D01*
X92481Y133785D01*
X93910Y134070D01*
X94766D01*
X96195Y133785D01*
X97052Y133213D01*
X97337Y132356D01*
Y131785D01*
X96195Y135413D02*
X96480Y135984D01*
X97337Y136841D01*
X91339D01*
X83066Y127935D02*
X77067D01*
X79923Y129192D02*
Y131762D01*
X80209Y132619D01*
X80495Y132905D01*
X81066Y133191D01*
X81923D01*
X82494Y132905D01*
X82780Y132619D01*
X83066Y131762D01*
Y129192D01*
X77067D01*
X83066Y134533D02*
X77067Y138532D01*
X83066D02*
X77067Y134533D01*
D13*
X235500Y123264D02*
Y126264D01*
X234500Y123264D02*
Y126264D01*
X234000Y124764D02*
X234500D01*
X235500D02*
X236000D01*
X255500Y60961D02*
Y63961D01*
X254500Y60961D02*
Y63961D01*
X254000Y62461D02*
X254500D01*
X255500D02*
X256000D01*
X142500Y76461D02*
Y76961D01*
Y77961D02*
Y78461D01*
X141000Y77961D02*
X144000D01*
X141000Y76961D02*
X144000D01*
X180000Y76461D02*
Y76961D01*
Y77961D02*
Y78461D01*
X178500Y77961D02*
X181500D01*
X178500Y76961D02*
X181500D01*
X178500Y94460D02*
X181500D01*
X178500Y95460D02*
X181500D01*
X180000D02*
Y95960D01*
Y93960D02*
Y94460D01*
X179999Y111461D02*
Y111961D01*
Y112961D02*
Y113461D01*
X178499Y112961D02*
X181500D01*
X178499Y111961D02*
X181500D01*
X151000D02*
X154000D01*
X151000Y112961D02*
X154000D01*
X152500D02*
Y113461D01*
Y111461D02*
Y111961D01*
X152500Y93961D02*
Y94461D01*
Y95461D02*
Y95961D01*
X151000Y95461D02*
X154000D01*
X151000Y94461D02*
X154000D01*
X142500Y93961D02*
Y94461D01*
Y95461D02*
Y95961D01*
X141000Y95461D02*
X144000D01*
X141000Y94461D02*
X144000D01*
X196332Y85511D02*
Y88511D01*
Y93511D02*
Y96511D01*
X192332Y93511D02*
X200332D01*
X192332Y88511D02*
X200332D01*
Y90011D02*
Y92011D01*
X192332D02*
X200332D01*
X192332Y90011D02*
Y92011D01*
Y90011D02*
X200332D01*
X214500Y56358D02*
Y56858D01*
Y57858D02*
Y58358D01*
X213000Y57858D02*
X216000D01*
X213000Y56858D02*
X216000D01*
X140999Y111960D02*
X143999D01*
X140999Y112961D02*
X143999D01*
X142499D02*
Y113461D01*
Y111460D02*
Y111960D01*
X150999Y76961D02*
X153999D01*
X150999Y77961D02*
X153999D01*
X152499D02*
Y78461D01*
Y76461D02*
Y76961D01*
D14*
X225157Y101461D02*
G03*
X227157Y103461I0J2000D01*
G01*
X227157Y103461D02*
G03*
X225157Y105461I-2000J0D01*
G01*
X242843Y57461D02*
G03*
X244843Y55461I2000J0D01*
G01*
X244843Y59461D02*
G03*
X242843Y57461I0J-2000D01*
G01*
X187179Y78519D02*
G03*
X205485Y78511I9153J-106D01*
G01*
X205484Y103504D02*
G03*
X187178Y103511I-9153J106D01*
G01*
X269000Y138858D02*
G03*
X269000Y138858I-4000J0D01*
G01*
X259000D02*
G03*
X259000Y138858I-4000J0D01*
G01*
X214000Y125000D02*
G03*
X214000Y125000I-4000J0D01*
G01*
X204000D02*
G03*
X204000Y125000I-4000J0D01*
G01*
X224000D02*
G03*
X224000Y125000I-4000J0D01*
G01*
X194000D02*
G03*
X194000Y125000I-4000J0D01*
G01*
X225157Y97461D02*
Y101461D01*
Y105461D02*
Y109461D01*
X102693Y15258D02*
Y22458D01*
X89307D02*
X102693D01*
X89307Y15258D02*
Y22458D01*
Y15258D02*
X102693D01*
X248307Y111361D02*
Y118561D01*
Y111361D02*
X261693D01*
Y118561D01*
X248307D02*
X261693D01*
X228307Y38561D02*
X241693D01*
Y31361D02*
Y38561D01*
X228307Y31361D02*
X241693D01*
X228307D02*
Y38561D01*
X102693Y26046D02*
Y33246D01*
X89307D02*
X102693D01*
X89307Y26046D02*
Y33246D01*
Y26046D02*
X102693D01*
X248307Y76361D02*
Y83561D01*
Y76361D02*
X261693D01*
Y83561D01*
X248307D02*
X261693D01*
X228307Y121163D02*
Y128364D01*
X241693Y121163D02*
Y128364D01*
X236500D02*
X241693D01*
X228307D02*
X233500D01*
X228307Y121164D02*
X233500D01*
X236500D02*
X241693D01*
X244843Y51461D02*
Y55461D01*
Y59461D02*
Y63461D01*
X248307Y58860D02*
Y66060D01*
X261693Y58860D02*
Y66060D01*
X256500D02*
X261693D01*
X248307D02*
X253500D01*
X248307Y58861D02*
X253500D01*
X256500D02*
X261693D01*
X191945Y7858D02*
Y11858D01*
X188445D02*
X191945Y9858D01*
X188445Y7858D02*
Y11858D01*
Y7858D02*
X191945Y9858D01*
X138900Y70768D02*
Y75961D01*
Y78961D02*
Y84154D01*
X146100Y78961D02*
Y84154D01*
Y70768D02*
Y75961D01*
X138900Y70768D02*
X146100D01*
X138900Y84154D02*
X146100D01*
X176400Y70768D02*
Y75961D01*
Y78961D02*
Y84154D01*
X183600Y78961D02*
Y84154D01*
Y70768D02*
Y75961D01*
X176400Y70768D02*
X183600D01*
X176400Y84154D02*
X183600D01*
X176400Y101654D02*
X183600D01*
X176400Y88268D02*
X183600D01*
Y93461D01*
Y96460D02*
Y101654D01*
X176400Y96460D02*
Y101654D01*
Y88268D02*
Y93461D01*
X176400Y105768D02*
Y110961D01*
Y113961D02*
Y119154D01*
X183599Y113961D02*
Y119154D01*
Y105768D02*
Y110961D01*
X176399Y105768D02*
X183599D01*
X176399Y119154D02*
X183599D01*
X148900D02*
X156100D01*
X148900Y105768D02*
X156100D01*
Y110961D01*
Y113961D02*
Y119154D01*
X148900Y113961D02*
Y119154D01*
Y105768D02*
Y110961D01*
X148900Y88268D02*
Y93461D01*
Y96461D02*
Y101654D01*
X156099Y96461D02*
Y101654D01*
Y88268D02*
Y93461D01*
X148899Y88268D02*
X156099D01*
X148899Y101654D02*
X156099D01*
X138900Y88268D02*
Y93461D01*
Y96461D02*
Y101654D01*
X146099Y96461D02*
Y101654D01*
Y88268D02*
Y93461D01*
X138899Y88268D02*
X146099D01*
X138899Y101654D02*
X146099D01*
X187178Y78519D02*
Y103511D01*
X205485Y78511D02*
Y103504D01*
X119307Y61860D02*
X132693D01*
X119307D02*
Y69060D01*
X132693D01*
Y61860D02*
Y69060D01*
X124807Y60061D02*
X138193D01*
X138193Y52861D02*
X138193Y60061D01*
X124807Y52861D02*
X138193D01*
X124807D02*
X124807Y60061D01*
X241693Y76360D02*
Y83560D01*
X228307D02*
X241693D01*
X228307Y76360D02*
Y83560D01*
Y76360D02*
X241693D01*
X210900Y50665D02*
Y55858D01*
Y58858D02*
Y64051D01*
X218100Y58858D02*
Y64051D01*
Y50665D02*
Y55858D01*
X210900Y50665D02*
X218100D01*
X210900Y64051D02*
X218100D01*
X138899Y119153D02*
X146099D01*
X138899Y105768D02*
X146099D01*
Y110960D01*
Y113961D02*
Y119153D01*
X138899Y113961D02*
Y119153D01*
Y105768D02*
Y110960D01*
X148899Y84154D02*
X156099D01*
X148899Y70768D02*
X156099D01*
Y75961D01*
Y78961D02*
Y84154D01*
X148900Y78961D02*
Y84154D01*
Y70768D02*
Y75961D01*
X158661Y49939D02*
X172047D01*
Y42739D02*
Y49939D01*
X158661Y42739D02*
X172047D01*
X158661D02*
Y49939D01*
D15*
X126543Y71487D02*
Y142354D01*
X69457Y71487D02*
X126543D01*
X69457D02*
Y142354D01*
X126543D01*
X72410Y124637D02*
X88158D01*
X72410Y77393D02*
X123591D01*
X88158Y124637D02*
Y140385D01*
X123591D01*
Y77393D02*
Y140385D01*
X72410Y77393D02*
Y124637D01*
X123366Y71553D02*
Y146314D01*
X73291Y71553D02*
X123366D01*
X73291D02*
Y146411D01*
X123661Y71616D02*
Y146314D01*
X72618Y71616D02*
Y146419D01*
Y71616D02*
X123661D01*
X72480D02*
X123661D01*
X72480D02*
Y146419D01*
X72618D02*
X123661D01*
X123662Y71616D02*
Y146419D01*
X77005Y109712D02*
X77305Y109562D01*
X77605Y109262D01*
X77755Y108962D01*
Y108362D01*
X77605Y108062D01*
X77305Y107762D01*
X77005Y107612D01*
X76556Y107462D01*
X75806D01*
X75356Y107612D01*
X75056Y107762D01*
X74756Y108062D01*
X74606Y108362D01*
Y108962D01*
X74756Y109262D01*
X75056Y109562D01*
X75356Y109712D01*
X75806D01*
Y108962D02*
Y109712D01*
X77755Y110431D02*
X74606D01*
X77755D02*
X74606Y112531D01*
X77755D02*
X74606D01*
X77755Y113400D02*
X74606D01*
X77755D02*
Y114450D01*
X77605Y114900D01*
X77305Y115200D01*
X77005Y115350D01*
X76556Y115499D01*
X75806D01*
X75356Y115350D01*
X75056Y115200D01*
X74756Y114900D01*
X74606Y114450D01*
Y113400D01*
X81344Y81886D02*
X81644Y81736D01*
X81944Y81436D01*
X82094Y81137D01*
Y80537D01*
X81944Y80237D01*
X81644Y79937D01*
X81344Y79787D01*
X80894Y79637D01*
X80145D01*
X79695Y79787D01*
X79395Y79937D01*
X79095Y80237D01*
X78945Y80537D01*
Y81137D01*
X79095Y81436D01*
X79395Y81736D01*
X79695Y81886D01*
X80145D01*
Y81137D02*
Y81886D01*
X82094Y82606D02*
X78945D01*
X82094D02*
X78945Y84705D01*
X82094D02*
X78945D01*
X82094Y85575D02*
X78945D01*
X82094D02*
Y86625D01*
X81944Y87075D01*
X81644Y87374D01*
X81344Y87524D01*
X80894Y87674D01*
X80145D01*
X79695Y87524D01*
X79395Y87374D01*
X79095Y87075D01*
X78945Y86625D01*
Y85575D01*
X86739Y80228D02*
X83591D01*
X86739Y80887D02*
X83591D01*
X86739D02*
Y82237D01*
X86590Y82687D01*
X86440Y82837D01*
X86140Y82987D01*
X85840D01*
X85540Y82837D01*
X85390Y82687D01*
X85240Y82237D01*
Y80887D01*
Y81937D02*
X83591Y82987D01*
X86739Y84591D02*
X86590Y84291D01*
X86290Y83991D01*
X85990Y83841D01*
X85540Y83691D01*
X84790D01*
X84340Y83841D01*
X84040Y83991D01*
X83741Y84291D01*
X83591Y84591D01*
Y85191D01*
X83741Y85491D01*
X84040Y85791D01*
X84340Y85941D01*
X84790Y86091D01*
X85540D01*
X85990Y85941D01*
X86290Y85791D01*
X86590Y85491D01*
X86739Y85191D01*
Y84591D01*
X84190Y85041D02*
X83291Y85941D01*
X91897Y80306D02*
X88748D01*
X91897D02*
X88748Y81506D01*
X91897Y82705D02*
X88748Y81506D01*
X91897Y82705D02*
X88748D01*
X91897Y83605D02*
X88748D01*
X91447Y86364D02*
X91747Y86064D01*
X91897Y85615D01*
Y85015D01*
X91747Y84565D01*
X91447Y84265D01*
X91147D01*
X90847Y84415D01*
X90697Y84565D01*
X90547Y84865D01*
X90247Y85764D01*
X90098Y86064D01*
X89948Y86214D01*
X89648Y86364D01*
X89198D01*
X88898Y86064D01*
X88748Y85615D01*
Y85015D01*
X88898Y84565D01*
X89198Y84265D01*
X91897Y87969D02*
X91747Y87669D01*
X91447Y87369D01*
X91147Y87219D01*
X90697Y87069D01*
X89948D01*
X89498Y87219D01*
X89198Y87369D01*
X88898Y87669D01*
X88748Y87969D01*
Y88569D01*
X88898Y88868D01*
X89198Y89168D01*
X89498Y89318D01*
X89948Y89468D01*
X90697D01*
X91147Y89318D01*
X91447Y89168D01*
X91747Y88868D01*
X91897Y88569D01*
Y87969D01*
X97015Y80110D02*
X93866D01*
X97015D02*
X93866Y81309D01*
X97015Y82509D02*
X93866Y81309D01*
X97015Y82509D02*
X93866D01*
X97015Y84308D02*
X96865Y84008D01*
X96565Y83708D01*
X96265Y83558D01*
X95815Y83408D01*
X95066D01*
X94616Y83558D01*
X94316Y83708D01*
X94016Y84008D01*
X93866Y84308D01*
Y84908D01*
X94016Y85208D01*
X94316Y85508D01*
X94616Y85658D01*
X95066Y85808D01*
X95815D01*
X96265Y85658D01*
X96565Y85508D01*
X96865Y85208D01*
X97015Y84908D01*
Y84308D01*
X96565Y88642D02*
X96865Y88342D01*
X97015Y87892D01*
Y87292D01*
X96865Y86842D01*
X96565Y86542D01*
X96265D01*
X95965Y86692D01*
X95815Y86842D01*
X95666Y87142D01*
X95366Y88042D01*
X95216Y88342D01*
X95066Y88492D01*
X94766Y88642D01*
X94316D01*
X94016Y88342D01*
X93866Y87892D01*
Y87292D01*
X94016Y86842D01*
X94316Y86542D01*
X97015Y89346D02*
X93866D01*
X101605Y82130D02*
X101904Y81830D01*
X102055Y81380D01*
Y80781D01*
X101904Y80331D01*
X101605Y80031D01*
X101305D01*
X101005Y80181D01*
X100855Y80331D01*
X100705Y80631D01*
X100405Y81530D01*
X100255Y81830D01*
X100105Y81980D01*
X99805Y82130D01*
X99355D01*
X99055Y81830D01*
X98905Y81380D01*
Y80781D01*
X99055Y80331D01*
X99355Y80031D01*
X101305Y85084D02*
X101605Y84934D01*
X101904Y84634D01*
X102055Y84334D01*
Y83735D01*
X101904Y83435D01*
X101605Y83135D01*
X101305Y82985D01*
X100855Y82835D01*
X100105D01*
X99655Y82985D01*
X99355Y83135D01*
X99055Y83435D01*
X98905Y83735D01*
Y84334D01*
X99055Y84634D01*
X99355Y84934D01*
X99655Y85084D01*
X102055Y85969D02*
X98905D01*
X102055Y88068D02*
X99955Y85969D01*
X100705Y86718D02*
X98905Y88068D01*
X106502Y82201D02*
X106801Y82051D01*
X107101Y81751D01*
X107251Y81451D01*
Y80852D01*
X107101Y80552D01*
X106801Y80252D01*
X106502Y80102D01*
X106052Y79952D01*
X105302D01*
X104852Y80102D01*
X104552Y80252D01*
X104252Y80552D01*
X104102Y80852D01*
Y81451D01*
X104252Y81751D01*
X104552Y82051D01*
X104852Y82201D01*
X106801Y85185D02*
X107101Y84885D01*
X107251Y84435D01*
Y83836D01*
X107101Y83386D01*
X106801Y83086D01*
X106502D01*
X106202Y83236D01*
X106052Y83386D01*
X105902Y83686D01*
X105602Y84585D01*
X105452Y84885D01*
X105302Y85035D01*
X105002Y85185D01*
X104552D01*
X104252Y84885D01*
X104102Y84435D01*
Y83836D01*
X104252Y83386D01*
X104552Y83086D01*
X107251Y85890D02*
X104102D01*
X107251D02*
X104102Y87989D01*
X107251D02*
X104102D01*
X111423Y82201D02*
X111723Y82051D01*
X112023Y81751D01*
X112173Y81451D01*
Y80852D01*
X112023Y80552D01*
X111723Y80252D01*
X111423Y80102D01*
X110973Y79952D01*
X110223D01*
X109773Y80102D01*
X109474Y80252D01*
X109174Y80552D01*
X109024Y80852D01*
Y81451D01*
X109174Y81751D01*
X109474Y82051D01*
X109773Y82201D01*
X112173Y85035D02*
Y83086D01*
X109024D01*
Y85035D01*
X110673Y83086D02*
Y84285D01*
X120635Y114563D02*
X120935Y114413D01*
X121235Y114114D01*
X121385Y113814D01*
Y113214D01*
X121235Y112914D01*
X120935Y112614D01*
X120635Y112464D01*
X120186Y112314D01*
X119436D01*
X118986Y112464D01*
X118686Y112614D01*
X118386Y112914D01*
X118236Y113214D01*
Y113814D01*
X118386Y114114D01*
X118686Y114413D01*
X118986Y114563D01*
X119436D01*
Y113814D02*
Y114563D01*
X121385Y115283D02*
X118236D01*
X121385D02*
X118236Y117383D01*
X121385D02*
X118236D01*
X121385Y118252D02*
X118236D01*
X121385D02*
Y119302D01*
X121235Y119752D01*
X120935Y120052D01*
X120635Y120202D01*
X120186Y120352D01*
X119436D01*
X118986Y120202D01*
X118686Y120052D01*
X118386Y119752D01*
X118236Y119302D01*
Y118252D01*
X117133Y79637D02*
X113984Y80837D01*
X117133Y82036D02*
X113984Y80837D01*
X116384Y84690D02*
X116683Y84540D01*
X116983Y84241D01*
X117133Y83941D01*
Y83341D01*
X116983Y83041D01*
X116683Y82741D01*
X116384Y82591D01*
X115934Y82441D01*
X115184D01*
X114734Y82591D01*
X114434Y82741D01*
X114134Y83041D01*
X113984Y83341D01*
Y83941D01*
X114134Y84241D01*
X114434Y84540D01*
X114734Y84690D01*
X116384Y87824D02*
X116683Y87674D01*
X116983Y87374D01*
X117133Y87075D01*
Y86475D01*
X116983Y86175D01*
X116683Y85875D01*
X116384Y85725D01*
X115934Y85575D01*
X115184D01*
X114734Y85725D01*
X114434Y85875D01*
X114134Y86175D01*
X113984Y86475D01*
Y87075D01*
X114134Y87374D01*
X114434Y87674D01*
X114734Y87824D01*
D43*
X223608Y113461D02*
G03*
X223608Y113461I-608J0D01*
G01*
X247608Y47461D02*
G03*
X247608Y47461I-608J0D01*
G01*
D80*
X261791Y90961D02*
G03*
X261791Y90961I-492J0D01*
G01*
X159492Y71161D02*
G03*
X159492Y71161I-492J0D01*
G01*
X159492Y106161D02*
G03*
X159492Y106161I-492J0D01*
G01*
X169992Y39760D02*
G03*
X169992Y39760I-492J0D01*
G01*
X159492Y88661D02*
G03*
X159492Y88661I-492J0D01*
G01*
M02*
