G04*
G04 #@! TF.GenerationSoftware,Altium Limited,Altium Designer,21.9.1 (22)*
G04*
G04 Layer_Color=8388736*
%FSLAX25Y25*%
%MOIN*%
G70*
G04*
G04 #@! TF.SameCoordinates,41BA0B49-DCAA-4547-B712-30F71D3BADEB*
G04*
G04*
G04 #@! TF.FilePolarity,Negative*
G04*
G01*
G75*
%ADD16O,0.08280X0.02572*%
%ADD17O,0.02572X0.08280*%
%ADD18R,0.04300X0.05800*%
%ADD19C,0.08280*%
%ADD20R,0.02300X0.09265*%
%ADD21C,0.07887*%
%ADD22R,0.07887X0.07887*%
%ADD23C,0.20800*%
%ADD24C,0.07493*%
%ADD25R,0.07493X0.07493*%
%ADD26C,0.05918*%
%ADD27R,0.08280X0.08280*%
%ADD28C,0.00800*%
%ADD29O,0.05524X0.08674*%
D16*
X131553Y78531D02*
D03*
Y81681D02*
D03*
Y84831D02*
D03*
Y87980D02*
D03*
Y91130D02*
D03*
Y94279D02*
D03*
Y97429D02*
D03*
Y100579D02*
D03*
Y103728D02*
D03*
Y106878D02*
D03*
Y110028D02*
D03*
X175447D02*
D03*
Y106878D02*
D03*
Y103728D02*
D03*
Y100579D02*
D03*
Y97429D02*
D03*
Y94279D02*
D03*
Y91130D02*
D03*
Y87980D02*
D03*
Y84831D02*
D03*
Y81681D02*
D03*
Y78531D02*
D03*
D17*
X137752Y116227D02*
D03*
X140902D02*
D03*
X144051D02*
D03*
X147201D02*
D03*
X150350D02*
D03*
X153500D02*
D03*
X156650D02*
D03*
X159799D02*
D03*
X162949D02*
D03*
X166098D02*
D03*
X169248D02*
D03*
Y72332D02*
D03*
X166098D02*
D03*
X162949D02*
D03*
X159799D02*
D03*
X156650D02*
D03*
X153500D02*
D03*
X150350D02*
D03*
X147201D02*
D03*
X144051D02*
D03*
X140902D02*
D03*
X137752D02*
D03*
D18*
X211672Y81711D02*
D03*
X204192D02*
D03*
X211672Y100579D02*
D03*
X204192D02*
D03*
D19*
X75236Y83031D02*
D03*
X12244Y56260D02*
D03*
Y83031D02*
D03*
X-5472D02*
D03*
X43740Y79882D02*
D03*
Y106654D02*
D03*
X26024D02*
D03*
X75236Y56260D02*
D03*
X57520Y83031D02*
D03*
X322480Y56260D02*
D03*
Y83031D02*
D03*
X304764D02*
D03*
X353976Y79882D02*
D03*
Y106654D02*
D03*
X336260D02*
D03*
X385472Y56260D02*
D03*
Y83031D02*
D03*
X367756D02*
D03*
X43740Y32638D02*
D03*
Y59409D02*
D03*
X26024D02*
D03*
X353976Y32638D02*
D03*
Y59409D02*
D03*
X336260D02*
D03*
D20*
X40000Y10040D02*
D03*
X29764D02*
D03*
D21*
X238337Y-4761D02*
D03*
X248337D02*
D03*
X141802D02*
D03*
X131802D02*
D03*
X134991Y143861D02*
D03*
X144991D02*
D03*
X154991D02*
D03*
X164991D02*
D03*
X174991D02*
D03*
X184991D02*
D03*
X194991D02*
D03*
X204991D02*
D03*
X214991D02*
D03*
X224991D02*
D03*
X234991D02*
D03*
X244991D02*
D03*
X301417Y29488D02*
D03*
D22*
Y9803D02*
D03*
D23*
X-18268Y133819D02*
D03*
X398268Y5472D02*
D03*
X-18268D02*
D03*
X398268Y133819D02*
D03*
D24*
X326000Y144961D02*
D03*
X316000Y144871D02*
D03*
Y134871D02*
D03*
X306000Y144871D02*
D03*
Y134871D02*
D03*
X296000Y144961D02*
D03*
X286000D02*
D03*
X360664Y144871D02*
D03*
Y134871D02*
D03*
X343532Y144871D02*
D03*
Y134871D02*
D03*
X55496Y144871D02*
D03*
Y134871D02*
D03*
X45496Y144871D02*
D03*
Y134871D02*
D03*
X35496Y144871D02*
D03*
Y134871D02*
D03*
X19528Y125000D02*
D03*
Y135000D02*
D03*
X3662Y124936D02*
D03*
Y134936D02*
D03*
X78583Y19646D02*
D03*
Y9646D02*
D03*
Y29646D02*
D03*
X195000Y33858D02*
D03*
X-29000Y84331D02*
D03*
Y74331D02*
D03*
Y64331D02*
D03*
D25*
X326000Y134961D02*
D03*
X316000Y124871D02*
D03*
X306000D02*
D03*
X296000Y134961D02*
D03*
X286000D02*
D03*
X360664Y124871D02*
D03*
X343532D02*
D03*
X55496D02*
D03*
X45496D02*
D03*
X35496D02*
D03*
X19528Y145000D02*
D03*
X3662Y144936D02*
D03*
X185000Y33858D02*
D03*
X-29000Y54331D02*
D03*
D26*
X196332Y100460D02*
D03*
Y81562D02*
D03*
D27*
X-5472Y56260D02*
D03*
X26024Y79882D02*
D03*
X57520Y56260D02*
D03*
X304764D02*
D03*
X336260Y79882D02*
D03*
X367756Y56260D02*
D03*
X26024Y32638D02*
D03*
X336260D02*
D03*
D28*
X42756Y6142D02*
D03*
X27008D02*
D03*
D29*
X20709Y-2402D02*
D03*
X49055D02*
D03*
Y11260D02*
D03*
X20709D02*
D03*
M02*
