M48
;Layer_Color=9474304
;FILE_FORMAT=2:5
INCH,LZ
;TYPE=PLATED
T1F00S00C0.01181
T2F00S00C0.03543
%
T01
X001Y0004
X0005Y0009
Y0014
Y0019
Y0024
X001
X0005Y0029
Y0034
Y0039
Y0044
Y0049
Y0064
X001
X0015
X002
X0025
X003
X0042579
X00425Y0074
X004Y0084
X0035
X003
X0025
X0005
X0045
X0066Y0079
Y0074
X0055Y0064
Y0024
X005
X0045
X0047532Y0019
X00525
X0057516
X0065Y0014
Y0009
X00625Y0004
X00575
X00525Y00037
X0052531Y000655
X00285Y00273
X00231Y00384
Y0043
X00199Y0045279
Y00494
X00231Y0055516
T02
X0095Y0009
Y0019
Y0029
Y0039
Y0049
Y0059
Y0069
Y0079
X0085
Y0069
Y0059
Y0049
Y0039
Y0029
Y0019
Y0009
X0075
Y0019
Y0029
Y0039
Y0049
Y0059
Y0069
Y0079
M30
