G04*
G04 #@! TF.GenerationSoftware,Altium Limited,Altium Designer,22.2.1 (43)*
G04*
G04 Layer_Physical_Order=2*
G04 Layer_Color=15428901*
%FSTAX25Y25*%
%MOIN*%
G70*
G04*
G04 #@! TF.SameCoordinates,04582349-F352-462C-AFDD-1AE5C237541B*
G04*
G04*
G04 #@! TF.FilePolarity,Positive*
G04*
G01*
G75*
%ADD11C,0.01000*%
%ADD33C,0.01181*%
%ADD34C,0.02598*%
%ADD35C,0.01299*%
%ADD38C,0.05906*%
%ADD40C,0.06693*%
%ADD41R,0.06693X0.06693*%
%ADD42C,0.02362*%
%ADD43R,0.07874X0.07874*%
%ADD44R,0.07874X0.05906*%
%ADD45C,0.07874*%
%ADD46R,0.03543X0.07874*%
G36*
X0068865Y0082865D02*
X0068865Y0082865D01*
X0069385Y0082517D01*
X007Y0082394D01*
X0070473D01*
Y0075867D01*
X0067458D01*
X0066922Y0076225D01*
X0066Y0076408D01*
X0065078Y0076225D01*
X0064297Y0075703D01*
X0063775Y0074922D01*
X0063611Y0074096D01*
X0063143Y007392D01*
X0062983Y0074043D01*
X0061738Y0074559D01*
X0060402Y0074735D01*
X0059066Y0074559D01*
X005782Y0074043D01*
X0056751Y0073223D01*
X0055931Y0072154D01*
X0055415Y0070908D01*
X0055239Y0069573D01*
X0055415Y0068236D01*
X0055931Y0066991D01*
X0056751Y0065922D01*
X005782Y0065102D01*
X0059066Y0064586D01*
X0060402Y006441D01*
X0061738Y0064586D01*
X0062983Y0065102D01*
X0064052Y0065922D01*
X0064872Y0066991D01*
X0065388Y0068236D01*
X0065564Y0069573D01*
X0065388Y0070908D01*
X0065228Y0071295D01*
X0065545Y0071682D01*
X0066Y0071592D01*
X0066922Y0071775D01*
X0067458Y0072133D01*
X0071132D01*
X0071353Y0071685D01*
X0071045Y0071283D01*
X0070589Y0070182D01*
X0070433Y0069D01*
X0070589Y0067818D01*
X0071045Y0066717D01*
X0071771Y0065771D01*
X0072717Y0065045D01*
X0073818Y0064589D01*
X0075Y0064433D01*
Y0063567D01*
X0073818Y0063411D01*
X0072717Y0062955D01*
X0071771Y0062229D01*
X0071045Y0061283D01*
X0070589Y0060182D01*
X0070433Y0059D01*
X0070589Y0057818D01*
X0071045Y0056717D01*
X0071771Y0055771D01*
X0072717Y0055045D01*
X0073818Y0054589D01*
X0075Y0054433D01*
Y0053567D01*
X0073818Y0053411D01*
X0072717Y0052955D01*
X0071771Y0052229D01*
X0071045Y0051283D01*
X0070589Y0050182D01*
X0070433Y0049D01*
X0070589Y0047818D01*
X0071045Y0046717D01*
X0071771Y0045771D01*
X0072717Y0045045D01*
X0073818Y0044589D01*
X0075Y0044433D01*
Y0043567D01*
X0073818Y0043411D01*
X0072717Y0042955D01*
X0071771Y0042229D01*
X0071045Y0041283D01*
X0070589Y0040182D01*
X0070433Y0039D01*
X0070589Y0037818D01*
X0071045Y0036717D01*
X0071771Y0035771D01*
X0072717Y0035045D01*
X0073818Y0034589D01*
X0075Y0034433D01*
Y0033567D01*
X0073818Y0033411D01*
X0072717Y0032955D01*
X0071771Y0032229D01*
X0071045Y0031283D01*
X0070589Y0030182D01*
X0070433Y0029D01*
X0070589Y0027818D01*
X0071045Y0026717D01*
X0071577Y0026024D01*
X0071495Y002553D01*
X007118Y002532D01*
X0067389Y0021529D01*
X0047532D01*
X0046564Y0021336D01*
X0045743Y0020788D01*
X0045195Y0019968D01*
X0045003Y0019D01*
X0045195Y0018032D01*
X0045743Y0017212D01*
X0046564Y0016664D01*
X0047532Y0016471D01*
X0067389D01*
X007118Y001268D01*
X0071495Y001247D01*
X0071577Y0011976D01*
X0071045Y0011283D01*
X0070589Y0010182D01*
X0070433Y0009D01*
X0070589Y0007818D01*
X0071045Y0006717D01*
X0071554Y0006054D01*
X0071333Y0005606D01*
X007D01*
X0069385Y0005483D01*
X0068865Y0005135D01*
X0068865Y0005135D01*
X0065335Y0001606D01*
X0055484D01*
Y0011669D01*
X0048191D01*
X0048127Y0011993D01*
X0047755Y0012549D01*
X0046292Y0014012D01*
X0045737Y0014384D01*
X0045081Y0014514D01*
X004371D01*
X0030916Y0027308D01*
X0030898Y0027351D01*
X0030725Y0028222D01*
X0030203Y0029003D01*
X0029422Y0029525D01*
X00285Y0029708D01*
X00279Y0029589D01*
X0027514Y0029906D01*
Y0052816D01*
X0027384Y0053472D01*
X0027012Y0054028D01*
X0025516Y0055524D01*
X0025498Y0055566D01*
X0025325Y0056437D01*
X0024803Y0057219D01*
X0024022Y0057741D01*
X00231Y0057924D01*
X0022178Y0057741D01*
X0021397Y0057219D01*
X0020875Y0056437D01*
X0020692Y0055516D01*
X0020875Y0054594D01*
X0021397Y0053813D01*
X0022178Y0053291D01*
X002305Y0053117D01*
X0023092Y00531D01*
X0024086Y0052106D01*
Y0045606D01*
X0023699Y0045289D01*
X00231Y0045408D01*
X0022332Y0045256D01*
X0022309Y0045279D01*
X0022125Y0046201D01*
X0021603Y0046983D01*
X0021443Y004709D01*
Y004759D01*
X0021603Y0047697D01*
X0022125Y0048478D01*
X0022309Y00494D01*
X0022125Y0050322D01*
X0021603Y0051103D01*
X0020822Y0051625D01*
X00199Y0051809D01*
X0018978Y0051625D01*
X0018197Y0051103D01*
X0017675Y0050322D01*
X0017492Y00494D01*
X0017496Y0049378D01*
X0017451Y0049151D01*
X001731Y004894D01*
X0017313Y0048937D01*
X00137Y0045324D01*
X0013329Y0044768D01*
X0013198Y0044112D01*
Y00186D01*
X0013198Y00186D01*
X0013198D01*
X0013329Y0017944D01*
X00137Y0017388D01*
X0017661Y0013427D01*
X0018409Y0012516D01*
X0018633Y0012097D01*
X0018375Y0011669D01*
X0018032D01*
Y000655D01*
X0017531D01*
Y000605D01*
X0014579D01*
Y0001606D01*
X0004665D01*
X0001606Y0004665D01*
Y0053574D01*
X0005414D01*
X0005695Y0052897D01*
X0006515Y0051828D01*
X0007584Y0051007D01*
X0008829Y0050492D01*
X0010165Y0050316D01*
X0011501Y0050492D01*
X0012746Y0051007D01*
X0013816Y0051828D01*
X0014636Y0052897D01*
X0015152Y0054142D01*
X0015328Y0055478D01*
X0015152Y0056814D01*
X0014636Y0058059D01*
X0013816Y0059128D01*
X0012746Y0059949D01*
X0011575Y0060434D01*
Y0061842D01*
X0001606D01*
Y0083335D01*
X0004665Y0086394D01*
X0010257D01*
Y0076332D01*
X0020494D01*
Y0086394D01*
X0049628D01*
Y0076332D01*
X0059864D01*
Y0086394D01*
X0065335D01*
X0068865Y0082865D01*
D02*
G37*
%LPC*%
G36*
X0068661Y0061842D02*
X0058425D01*
Y0053574D01*
X0068661D01*
Y0061842D01*
D02*
G37*
G36*
X0017031Y0011669D02*
X0014579D01*
Y000705D01*
X0017031D01*
Y0011669D01*
D02*
G37*
%LPD*%
D11*
X0018525Y0047725D02*
G03*
X0019219Y00494I-0001675J0001675D01*
G01*
X0020382Y0044798D02*
G03*
X00199Y0043635I0001163J-0001163D01*
G01*
D02*
G03*
X0019418Y0044798I-0001644J0D01*
G01*
X0021725Y0041325D02*
G03*
X0022419Y0043I-0001675J0001675D01*
G01*
X0023781Y0055516D02*
G03*
X0024263Y0054353I0001644J0D01*
G01*
D02*
G03*
X00231Y0054835I-0001163J-0001163D01*
G01*
X002726Y0008716D02*
G03*
X0025828Y0012172I-0004887J0D01*
G01*
X002626Y0008716D02*
G03*
X0024121Y0013879I-0007301J0D01*
G01*
X003226Y0008716D02*
G03*
X0031025Y0011697I-0004216J0D01*
G01*
X003126Y0008716D02*
G03*
X0029318Y0013404I-000663J0D01*
G01*
X002326Y0008716D02*
G03*
X0022173Y0011339I-0003709J0D01*
G01*
X002226Y0008716D02*
G03*
X0020466Y0013046I-0006123J0D01*
G01*
X002126Y0008716D02*
G03*
X0018759Y0014753I-0008538J0D01*
G01*
X0021869Y0009802D02*
G03*
X0022532Y001098I-0000719J0001179D01*
G01*
D02*
G03*
X0023193Y0009802I0001381J0D01*
G01*
X0044909Y0012615D02*
X0046338Y0011186D01*
X00285Y00273D02*
X0043185Y0012615D01*
X0044909D01*
X0046338Y0009353D02*
Y0011186D01*
X00231Y0055516D02*
X00258Y0052816D01*
Y00262D02*
Y0052816D01*
Y00262D02*
X0042531Y0009469D01*
X0017531Y0040332D02*
X00199Y00427D01*
Y0045279D01*
X0014912Y0044112D02*
X00198Y0049D01*
X0014912Y00186D02*
Y0044112D01*
X002Y00396D02*
X0023Y00426D01*
X002Y0022722D02*
Y00396D01*
X0017531Y0020469D02*
Y0040332D01*
X0014912Y00186D02*
X0022532Y0010981D01*
Y000655D02*
Y0010981D01*
X0017531Y0020469D02*
X0027531Y0010469D01*
Y000655D02*
Y0010469D01*
X0042531Y000655D02*
Y0009469D01*
X002Y0022722D02*
X0032531Y0010191D01*
Y000655D02*
Y0010191D01*
D33*
X0023518Y0037982D02*
G03*
X00231Y0036974I0001008J-0001008D01*
G01*
D02*
G03*
X0022682Y0037982I-0001426J0D01*
G01*
X0037532Y0008716D02*
G03*
X0036575Y0011025I-0003266J0D01*
G01*
X003635Y0008716D02*
G03*
X0034559Y0013041I-0006117J0D01*
G01*
X00231Y00245D02*
X0037532Y0010069D01*
X00231Y00245D02*
Y00384D01*
X0037532Y000655D02*
Y0010069D01*
D34*
X0057516Y0019D02*
X00675D01*
X00525D02*
X0057516D01*
X0047532D02*
X00525D01*
D35*
X0066376Y0074376D02*
G03*
X0067283Y0074I0000907J0000907D01*
G01*
D02*
G03*
X0066376Y0073624I0J-0001283D01*
G01*
X00725Y0054028D02*
X0072528Y0054D01*
X0095D01*
X0072717Y0064D02*
X0095D01*
X0066Y0074D02*
X0085D01*
X00675Y0019D02*
X00725Y0014D01*
X0085D01*
X00675Y0019D02*
X00725Y0024D01*
X0085D01*
D38*
X0095Y0054D02*
Y0059D01*
Y0049D02*
Y0054D01*
Y0064D02*
Y0069D01*
Y0059D02*
Y0064D01*
Y0069D02*
Y0079D01*
Y0039D02*
Y0049D01*
Y0029D02*
Y0039D01*
Y0019D02*
Y0029D01*
Y0009D02*
Y0019D01*
X0085Y0074D02*
Y0079D01*
Y0069D02*
Y0074D01*
Y0024D02*
Y0029D01*
Y0019D02*
Y0024D01*
Y0014D02*
Y0019D01*
Y0009D02*
Y0014D01*
Y0039D02*
Y0049D01*
Y0029D02*
Y0039D01*
D40*
X0095Y0029D02*
D03*
Y0039D02*
D03*
Y0049D02*
D03*
Y0059D02*
D03*
Y0069D02*
D03*
Y0019D02*
D03*
Y0009D02*
D03*
X0085Y0029D02*
D03*
Y0039D02*
D03*
Y0049D02*
D03*
Y0059D02*
D03*
Y0069D02*
D03*
Y0019D02*
D03*
Y0009D02*
D03*
X0075Y0029D02*
D03*
Y0039D02*
D03*
Y0049D02*
D03*
Y0059D02*
D03*
Y0069D02*
D03*
Y0019D02*
D03*
Y0009D02*
D03*
D41*
X0095Y0079D02*
D03*
X0085D02*
D03*
X0075D02*
D03*
D42*
X0066D02*
D03*
X00575Y0004D02*
D03*
X00625D02*
D03*
X00425Y0074D02*
D03*
X0042579Y0064D02*
D03*
X0005Y0084D02*
D03*
X0025D02*
D03*
X003D02*
D03*
X0035D02*
D03*
X004D02*
D03*
X0045D02*
D03*
X001Y0064D02*
D03*
X0015D02*
D03*
X002D02*
D03*
X0025D02*
D03*
X003D02*
D03*
X0055D02*
D03*
Y0024D02*
D03*
X005D02*
D03*
X0045D02*
D03*
X0065Y0014D02*
D03*
Y0009D02*
D03*
X001Y0004D02*
D03*
Y0024D02*
D03*
X0005Y0064D02*
D03*
Y0049D02*
D03*
Y0044D02*
D03*
Y0039D02*
D03*
Y0034D02*
D03*
Y0029D02*
D03*
Y0024D02*
D03*
Y0019D02*
D03*
Y0014D02*
D03*
Y0009D02*
D03*
X00525Y00037D02*
D03*
X0052531Y000655D02*
D03*
X0066Y0074D02*
D03*
X0047532Y0019D02*
D03*
X0057516D02*
D03*
X00525D02*
D03*
X00231Y0055516D02*
D03*
Y0043D02*
D03*
X00199Y0045279D02*
D03*
X00285Y00273D02*
D03*
X00231Y00384D02*
D03*
X00199Y00494D02*
D03*
D43*
X0054746Y008145D02*
D03*
X0015376D02*
D03*
D44*
X0063543Y0057708D02*
D03*
X0006457D02*
D03*
D45*
X0010165Y0055478D02*
D03*
X0060402Y0069573D02*
D03*
D46*
X0052531Y000655D02*
D03*
X0047532D02*
D03*
X0037532D02*
D03*
X0022532D02*
D03*
X0042531D02*
D03*
X0032531D02*
D03*
X0027531D02*
D03*
X0017531D02*
D03*
M02*
