G04*
G04 #@! TF.GenerationSoftware,Altium Limited,Altium Designer,22.2.1 (43)*
G04*
G04 Layer_Color=32896*
%FSTAX25Y25*%
%MOIN*%
G70*
G04*
G04 #@! TF.SameCoordinates,04582349-F352-462C-AFDD-1AE5C237541B*
G04*
G04*
G04 #@! TF.FilePolarity,Positive*
G04*
G01*
G75*
%ADD10C,0.00787*%
%ADD52C,0.00394*%
%ADD53R,0.00689X0.08957*%
%ADD54R,0.00787X0.09055*%
%ADD55R,0.00689X0.09055*%
D10*
X0024999Y0038857D02*
X0021Y0036D01*
Y0040285D01*
X0024999Y0038857D02*
X0019D01*
X0024999Y0042199D02*
X0020143D01*
X0019286Y0042484D01*
X0019Y0043056D01*
Y0043627D01*
X0022999Y0041342D02*
Y0043341D01*
Y0045912D02*
X0022714Y0045341D01*
X0022142Y0044769D01*
X0021285Y0044484D01*
X0020714D01*
X0019857Y0044769D01*
X0019286Y0045341D01*
X0019Y0045912D01*
Y0046769D01*
X0019286Y004734D01*
X0019857Y0047912D01*
X0020714Y0048197D01*
X0021285D01*
X0022142Y0047912D01*
X0022714Y004734D01*
X0022999Y0046769D01*
Y0045912D01*
X0023856Y0049511D02*
X0024142Y0050083D01*
X0024999Y005094D01*
X0019D01*
X0034337Y0036202D02*
X0028339D01*
X0034337D02*
X0028339Y0040202D01*
X0034337D02*
X0028339D01*
X0034337Y0041858D02*
X0028339D01*
X0034337D02*
Y0044429D01*
X0034052Y0045286D01*
X0033766Y0045572D01*
X0033195Y0045857D01*
X0032623D01*
X0032052Y0045572D01*
X0031766Y0045286D01*
X0031481Y0044429D01*
Y0041858D01*
Y0043858D02*
X0028339Y0045857D01*
X0034337Y0049485D02*
Y0048914D01*
X0034052Y0048343D01*
X0033195Y0048057D01*
X0028339D01*
X0032338Y00472D02*
Y00492D01*
X0032909Y0050628D02*
X0033195D01*
X0033766Y0050914D01*
X0034052Y0051199D01*
X0034337Y0051771D01*
Y0052913D01*
X0034052Y0053484D01*
X0033766Y005377D01*
X0033195Y0054056D01*
X0032623D01*
X0032052Y005377D01*
X0031195Y0053199D01*
X0028339Y0050342D01*
Y0054341D01*
X0034337Y005854D02*
X0030338Y0055684D01*
Y0059969D01*
X0034337Y005854D02*
X0028339D01*
X0034337Y0061026D02*
X0028339D01*
Y0064453D01*
X0034337Y0066824D02*
X0034052Y0065967D01*
X0033195Y0065396D01*
X0031766Y006511D01*
X0030909D01*
X0029481Y0065396D01*
X0028624Y0065967D01*
X0028339Y0066824D01*
Y0067396D01*
X0028624Y0068253D01*
X0029481Y0068824D01*
X0030909Y006911D01*
X0031766D01*
X0033195Y0068824D01*
X0034052Y0068253D01*
X0034337Y0067396D01*
Y0066824D01*
X0033195Y0070452D02*
X003348Y0071023D01*
X0034337Y007188D01*
X0028339D01*
X0020066Y0062974D02*
X0014067D01*
X0016924Y0064231D02*
Y0066802D01*
X0017209Y0067659D01*
X0017495Y0067944D01*
X0018066Y006823D01*
X0018923D01*
X0019494Y0067944D01*
X001978Y0067659D01*
X0020066Y0066802D01*
Y0064231D01*
X0014067D01*
X0020066Y0069573D02*
X0014067Y0073572D01*
X0020066D02*
X0014067Y0069573D01*
D52*
X0063543Y0006527D02*
Y0077393D01*
X0006457Y0006527D02*
Y0077393D01*
X0063543D01*
X0009409Y0059676D02*
X0025157D01*
X0009409Y0012432D02*
X006059D01*
X0025157Y0059676D02*
Y0075424D01*
X006059D01*
Y0012432D02*
Y0075424D01*
X0009409Y0012432D02*
Y0059676D01*
X0060366Y0006592D02*
Y0081353D01*
X0010291Y0006592D02*
Y008145D01*
X0060661Y0006655D02*
Y0081353D01*
X0009618Y0006655D02*
Y0081458D01*
X000948Y0006655D02*
Y0081458D01*
X0009618D02*
X0060661D01*
X0060662Y0006655D02*
Y0081458D01*
X0055236Y0006527D02*
X0063543D01*
X0006457D02*
X0014067D01*
X0014532D01*
X0014006Y0044751D02*
X0014305Y0044601D01*
X0014605Y0044301D01*
X0014755Y0044001D01*
Y0043401D01*
X0014605Y0043101D01*
X0014305Y0042801D01*
X0014006Y0042652D01*
X0013556Y0042502D01*
X0012806D01*
X0012356Y0042652D01*
X0012056Y0042801D01*
X0011756Y0043101D01*
X0011606Y0043401D01*
Y0044001D01*
X0011756Y0044301D01*
X0012056Y0044601D01*
X0012356Y0044751D01*
X0012806D01*
Y0044001D02*
Y0044751D01*
X0014755Y0045471D02*
X0011606D01*
X0014755D02*
X0011606Y004757D01*
X0014755D02*
X0011606D01*
X0014755Y004844D02*
X0011606D01*
X0014755D02*
Y0049489D01*
X0014605Y0049939D01*
X0014305Y0050239D01*
X0014006Y0050389D01*
X0013556Y0050539D01*
X0012806D01*
X0012356Y0050389D01*
X0012056Y0050239D01*
X0011756Y0049939D01*
X0011606Y0049489D01*
Y004844D01*
X0018344Y0016926D02*
X0018644Y0016776D01*
X0018944Y0016476D01*
X0019094Y0016176D01*
Y0015576D01*
X0018944Y0015276D01*
X0018644Y0014976D01*
X0018344Y0014826D01*
X0017894Y0014676D01*
X0017144D01*
X0016695Y0014826D01*
X0016395Y0014976D01*
X0016095Y0015276D01*
X0015945Y0015576D01*
Y0016176D01*
X0016095Y0016476D01*
X0016395Y0016776D01*
X0016695Y0016926D01*
X0017144D01*
Y0016176D02*
Y0016926D01*
X0019094Y0017645D02*
X0015945D01*
X0019094D02*
X0015945Y0019745D01*
X0019094D02*
X0015945D01*
X0019094Y0020614D02*
X0015945D01*
X0019094D02*
Y0021664D01*
X0018944Y0022114D01*
X0018644Y0022414D01*
X0018344Y0022564D01*
X0017894Y0022714D01*
X0017144D01*
X0016695Y0022564D01*
X0016395Y0022414D01*
X0016095Y0022114D01*
X0015945Y0021664D01*
Y0020614D01*
X002374Y0015267D02*
X0020591D01*
X002374Y0015927D02*
X0020591D01*
X002374D02*
Y0017276D01*
X0023589Y0017726D01*
X002344Y0017876D01*
X002314Y0018026D01*
X002284D01*
X002254Y0017876D01*
X002239Y0017726D01*
X002224Y0017276D01*
Y0015927D01*
Y0016976D02*
X0020591Y0018026D01*
X002374Y0019631D02*
X0023589Y0019331D01*
X002329Y0019031D01*
X002299Y0018881D01*
X002254Y0018731D01*
X002179D01*
X002134Y0018881D01*
X002104Y0019031D01*
X0020741Y0019331D01*
X0020591Y0019631D01*
Y002023D01*
X0020741Y002053D01*
X002104Y002083D01*
X002134Y002098D01*
X002179Y002113D01*
X002254D01*
X002299Y002098D01*
X002329Y002083D01*
X0023589Y002053D01*
X002374Y002023D01*
Y0019631D01*
X002119Y002008D02*
X0020291Y002098D01*
X0028897Y0015346D02*
X0025748D01*
X0028897D02*
X0025748Y0016545D01*
X0028897Y0017745D02*
X0025748Y0016545D01*
X0028897Y0017745D02*
X0025748D01*
X0028897Y0018645D02*
X0025748D01*
X0028447Y0021404D02*
X0028747Y0021104D01*
X0028897Y0020654D01*
Y0020054D01*
X0028747Y0019604D01*
X0028447Y0019304D01*
X0028147D01*
X0027847Y0019454D01*
X0027697Y0019604D01*
X0027547Y0019904D01*
X0027248Y0020804D01*
X0027098Y0021104D01*
X0026948Y0021254D01*
X0026648Y0021404D01*
X0026198D01*
X0025898Y0021104D01*
X0025748Y0020654D01*
Y0020054D01*
X0025898Y0019604D01*
X0026198Y0019304D01*
X0028897Y0023008D02*
X0028747Y0022708D01*
X0028447Y0022408D01*
X0028147Y0022258D01*
X0027697Y0022108D01*
X0026948D01*
X0026498Y0022258D01*
X0026198Y0022408D01*
X0025898Y0022708D01*
X0025748Y0023008D01*
Y0023608D01*
X0025898Y0023908D01*
X0026198Y0024208D01*
X0026498Y0024358D01*
X0026948Y0024508D01*
X0027697D01*
X0028147Y0024358D01*
X0028447Y0024208D01*
X0028747Y0023908D01*
X0028897Y0023608D01*
Y0023008D01*
X0034015Y0015149D02*
X0030866D01*
X0034015D02*
X0030866Y0016348D01*
X0034015Y0017548D02*
X0030866Y0016348D01*
X0034015Y0017548D02*
X0030866D01*
X0034015Y0019347D02*
X0033865Y0019048D01*
X0033565Y0018748D01*
X0033265Y0018598D01*
X0032816Y0018448D01*
X0032066D01*
X0031616Y0018598D01*
X0031316Y0018748D01*
X0031016Y0019048D01*
X0030866Y0019347D01*
Y0019947D01*
X0031016Y0020247D01*
X0031316Y0020547D01*
X0031616Y0020697D01*
X0032066Y0020847D01*
X0032816D01*
X0033265Y0020697D01*
X0033565Y0020547D01*
X0033865Y0020247D01*
X0034015Y0019947D01*
Y0019347D01*
X0033565Y0023681D02*
X0033865Y0023381D01*
X0034015Y0022931D01*
Y0022331D01*
X0033865Y0021881D01*
X0033565Y0021582D01*
X0033265D01*
X0032965Y0021732D01*
X0032816Y0021881D01*
X0032666Y0022182D01*
X0032366Y0023081D01*
X0032216Y0023381D01*
X0032066Y0023531D01*
X0031766Y0023681D01*
X0031316D01*
X0031016Y0023381D01*
X0030866Y0022931D01*
Y0022331D01*
X0031016Y0021881D01*
X0031316Y0021582D01*
X0034015Y0024386D02*
X0030866D01*
X0038605Y0017169D02*
X0038905Y001687D01*
X0039055Y001642D01*
Y001582D01*
X0038905Y001537D01*
X0038605Y001507D01*
X0038305D01*
X0038005Y001522D01*
X0037855Y001537D01*
X0037705Y001567D01*
X0037405Y001657D01*
X0037255Y001687D01*
X0037105Y0017019D01*
X0036805Y0017169D01*
X0036355D01*
X0036055Y001687D01*
X0035906Y001642D01*
Y001582D01*
X0036055Y001537D01*
X0036355Y001507D01*
X0038305Y0020123D02*
X0038605Y0019973D01*
X0038905Y0019673D01*
X0039055Y0019374D01*
Y0018774D01*
X0038905Y0018474D01*
X0038605Y0018174D01*
X0038305Y0018024D01*
X0037855Y0017874D01*
X0037105D01*
X0036655Y0018024D01*
X0036355Y0018174D01*
X0036055Y0018474D01*
X0035906Y0018774D01*
Y0019374D01*
X0036055Y0019673D01*
X0036355Y0019973D01*
X0036655Y0020123D01*
X0039055Y0021008D02*
X0035906D01*
X0039055Y0023107D02*
X0036955Y0021008D01*
X0037705Y0021758D02*
X0035906Y0023107D01*
X0043501Y0017241D02*
X0043801Y0017091D01*
X0044101Y0016791D01*
X0044251Y0016491D01*
Y0015891D01*
X0044101Y0015591D01*
X0043801Y0015291D01*
X0043501Y0015141D01*
X0043052Y0014991D01*
X0042302D01*
X0041852Y0015141D01*
X0041552Y0015291D01*
X0041252Y0015591D01*
X0041102Y0015891D01*
Y0016491D01*
X0041252Y0016791D01*
X0041552Y0017091D01*
X0041852Y0017241D01*
X0043801Y0020225D02*
X0044101Y0019925D01*
X0044251Y0019475D01*
Y0018875D01*
X0044101Y0018425D01*
X0043801Y0018125D01*
X0043501D01*
X0043202Y0018275D01*
X0043052Y0018425D01*
X0042902Y0018725D01*
X0042602Y0019625D01*
X0042452Y0019925D01*
X0042302Y0020075D01*
X0042002Y0020225D01*
X0041552D01*
X0041252Y0019925D01*
X0041102Y0019475D01*
Y0018875D01*
X0041252Y0018425D01*
X0041552Y0018125D01*
X0044251Y0020929D02*
X0041102D01*
X0044251D02*
X0041102Y0023029D01*
X0044251D02*
X0041102D01*
X0048423Y0017241D02*
X0048723Y0017091D01*
X0049023Y0016791D01*
X0049173Y0016491D01*
Y0015891D01*
X0049023Y0015591D01*
X0048723Y0015291D01*
X0048423Y0015141D01*
X0047973Y0014991D01*
X0047223D01*
X0046773Y0015141D01*
X0046474Y0015291D01*
X0046174Y0015591D01*
X0046024Y0015891D01*
Y0016491D01*
X0046174Y0016791D01*
X0046474Y0017091D01*
X0046773Y0017241D01*
X0049173Y0020075D02*
Y0018125D01*
X0046024D01*
Y0020075D01*
X0047673Y0018125D02*
Y0019325D01*
X0057635Y0049603D02*
X0057935Y0049453D01*
X0058235Y0049153D01*
X0058385Y0048853D01*
Y0048253D01*
X0058235Y0047953D01*
X0057935Y0047653D01*
X0057635Y0047504D01*
X0057186Y0047354D01*
X0056436D01*
X0055986Y0047504D01*
X0055686Y0047653D01*
X0055386Y0047953D01*
X0055236Y0048253D01*
Y0048853D01*
X0055386Y0049153D01*
X0055686Y0049453D01*
X0055986Y0049603D01*
X0056436D01*
Y0048853D02*
Y0049603D01*
X0058385Y0050323D02*
X0055236D01*
X0058385D02*
X0055236Y0052422D01*
X0058385D02*
X0055236D01*
X0058385Y0053291D02*
X0055236D01*
X0058385D02*
Y0054341D01*
X0058235Y0054791D01*
X0057935Y0055091D01*
X0057635Y0055241D01*
X0057186Y0055391D01*
X0056436D01*
X0055986Y0055241D01*
X0055686Y0055091D01*
X0055386Y0054791D01*
X0055236Y0054341D01*
Y0053291D01*
X0054133Y0014676D02*
X0050984Y0015876D01*
X0054133Y0017076D02*
X0050984Y0015876D01*
X0053383Y001973D02*
X0053683Y001958D01*
X0053983Y001928D01*
X0054133Y001898D01*
Y001838D01*
X0053983Y001808D01*
X0053683Y001778D01*
X0053383Y001763D01*
X0052934Y001748D01*
X0052184D01*
X0051734Y001763D01*
X0051434Y001778D01*
X0051134Y001808D01*
X0050984Y001838D01*
Y001898D01*
X0051134Y001928D01*
X0051434Y001958D01*
X0051734Y001973D01*
X0053383Y0022864D02*
X0053683Y0022714D01*
X0053983Y0022414D01*
X0054133Y0022114D01*
Y0021514D01*
X0053983Y0021214D01*
X0053683Y0020914D01*
X0053383Y0020764D01*
X0052934Y0020614D01*
X0052184D01*
X0051734Y0020764D01*
X0051434Y0020914D01*
X0051134Y0021214D01*
X0050984Y0021514D01*
Y0022114D01*
X0051134Y0022414D01*
X0051434Y0022714D01*
X0051734Y0022864D01*
D53*
X0030043Y00067D02*
D03*
X0034964D02*
D03*
X002Y0006696D02*
D03*
D54*
X0049975Y0006745D02*
D03*
D55*
X0045002Y0006747D02*
D03*
X0039982D02*
D03*
X0025022Y0006747D02*
D03*
M02*
