G04*
G04 #@! TF.GenerationSoftware,Altium Limited,Altium Designer,22.2.1 (43)*
G04*
G04 Layer_Color=8388736*
%FSTAX25Y25*%
%MOIN*%
G70*
G04*
G04 #@! TF.SameCoordinates,04582349-F352-462C-AFDD-1AE5C237541B*
G04*
G04*
G04 #@! TF.FilePolarity,Negative*
G04*
G01*
G75*
%ADD23R,0.05800X0.04300*%
G04:AMPARAMS|DCode=24|XSize=43mil|YSize=58mil|CornerRadius=0mil|HoleSize=0mil|Usage=FLASHONLY|Rotation=270.000|XOffset=0mil|YOffset=0mil|HoleType=Round|Shape=Octagon|*
%AMOCTAGOND24*
4,1,8,0.02900,0.01075,0.02900,-0.01075,0.01825,-0.02150,-0.01825,-0.02150,-0.02900,-0.01075,-0.02900,0.01075,-0.01825,0.02150,0.01825,0.02150,0.02900,0.01075,0.0*
%
%ADD24OCTAGOND24*%

%ADD25R,0.05800X0.04300*%
%ADD26O,0.06706X0.01981*%
%ADD27R,0.04343X0.03359*%
%ADD28R,0.04343X0.02769*%
%ADD29R,0.04737X0.02572*%
%ADD30R,0.07887X0.11824*%
%ADD31C,0.07493*%
%ADD32R,0.07493X0.07493*%
D23*
X00475Y0078D02*
D03*
D24*
Y007D02*
D03*
D25*
X00375Y007026D02*
D03*
Y0077741D02*
D03*
X00575Y007026D02*
D03*
Y0077741D02*
D03*
X00275Y007026D02*
D03*
Y0077741D02*
D03*
X00175Y007026D02*
D03*
Y0077741D02*
D03*
X0047526Y001774D02*
D03*
Y001026D02*
D03*
X00125Y001026D02*
D03*
Y001774D02*
D03*
X00575Y001026D02*
D03*
Y001774D02*
D03*
X00225Y001774D02*
D03*
Y001026D02*
D03*
D26*
X0013602Y0055516D02*
D03*
Y0052957D02*
D03*
Y0050398D02*
D03*
Y0047839D02*
D03*
Y0045279D02*
D03*
Y004272D02*
D03*
Y0040161D02*
D03*
Y0037602D02*
D03*
Y0035043D02*
D03*
Y0032484D02*
D03*
X0038798Y0055516D02*
D03*
Y0052957D02*
D03*
Y0050398D02*
D03*
Y0047839D02*
D03*
Y0045279D02*
D03*
Y004272D02*
D03*
Y0040161D02*
D03*
Y0037602D02*
D03*
Y0035043D02*
D03*
Y0032484D02*
D03*
D27*
X005435Y0039039D02*
D03*
Y0028961D02*
D03*
X006065D02*
D03*
Y0039039D02*
D03*
X005435Y0059039D02*
D03*
Y0048961D02*
D03*
X006065D02*
D03*
Y0059039D02*
D03*
D28*
X005435Y0035575D02*
D03*
Y0032425D02*
D03*
X006065D02*
D03*
Y0035575D02*
D03*
X005435Y0055575D02*
D03*
Y0052425D02*
D03*
X006065D02*
D03*
Y0055575D02*
D03*
D29*
X00305Y001774D02*
D03*
Y001026D02*
D03*
X0039429Y0014D02*
D03*
D30*
X00075Y0074D02*
D03*
D31*
X0095Y0029D02*
D03*
Y0039D02*
D03*
Y0049D02*
D03*
Y0059D02*
D03*
Y0069D02*
D03*
Y0019D02*
D03*
Y0009D02*
D03*
X0085Y0029D02*
D03*
Y0039D02*
D03*
Y0049D02*
D03*
Y0059D02*
D03*
Y0069D02*
D03*
Y0019D02*
D03*
Y0009D02*
D03*
X0075Y0029D02*
D03*
Y0039D02*
D03*
Y0049D02*
D03*
Y0059D02*
D03*
Y0069D02*
D03*
Y0019D02*
D03*
Y0009D02*
D03*
D32*
X0095Y0079D02*
D03*
X0085D02*
D03*
X0075D02*
D03*
M02*
