G04*
G04 #@! TF.GenerationSoftware,Altium Limited,Altium Designer,22.2.1 (43)*
G04*
G04 Layer_Color=65535*
%FSTAX25Y25*%
%MOIN*%
G70*
G04*
G04 #@! TF.SameCoordinates,04582349-F352-462C-AFDD-1AE5C237541B*
G04*
G04*
G04 #@! TF.FilePolarity,Positive*
G04*
G01*
G75*
%ADD10C,0.00787*%
%ADD11C,0.01000*%
%ADD12C,0.00984*%
%ADD13C,0.00800*%
%ADD14C,0.00600*%
D10*
X00242Y0057D02*
G03*
X00282Y0056992I0002J-0000008D01*
G01*
X00337D01*
X00187Y005699D02*
X00242Y0057D01*
X00187Y0031008D02*
Y005699D01*
X00337Y0031008D02*
Y0056992D01*
X00187Y0031008D02*
X00337D01*
X009Y0084D02*
X01D01*
X009Y0004D02*
Y0084D01*
Y0004D02*
X01D01*
Y0084D01*
X008D02*
X009D01*
X008Y0004D02*
Y0084D01*
Y0004D02*
X009D01*
Y0084D01*
X007D02*
X008D01*
X007Y0004D02*
Y0084D01*
Y0004D02*
X008D01*
Y0084D01*
X0033819Y0019906D02*
X0037756D01*
Y0016756D02*
Y0019906D01*
X0033819Y0008095D02*
X0037756D01*
Y0011244D01*
D11*
X001371Y0058D02*
G03*
X001371Y0058I-000051J0D01*
G01*
D12*
X0029492Y0020299D02*
G03*
X0029492Y0020299I-0000492J0D01*
G01*
D13*
X0044Y00672D02*
X0051D01*
X0044Y0066D02*
Y0072D01*
Y0066D02*
X0051D01*
Y0072D01*
X0044Y0076D02*
Y00808D01*
X0051D01*
Y0076D02*
Y00808D01*
X00339Y00755D02*
Y0080693D01*
Y0067307D02*
Y00725D01*
X00411Y0067307D02*
Y00725D01*
Y00755D02*
Y0080693D01*
X00339D02*
X00411D01*
X00339Y0067307D02*
X00411D01*
X00539Y0080693D02*
X00611D01*
Y0067307D02*
Y0080693D01*
X00539Y0067307D02*
X00611D01*
X00539D02*
Y0080693D01*
X00239D02*
X00311D01*
Y0067307D02*
Y0080693D01*
X00239Y0067307D02*
X00311D01*
X00239D02*
Y0080693D01*
X00139D02*
X00211D01*
Y0067307D02*
Y0080693D01*
X00139Y0067307D02*
X00211D01*
X00139D02*
Y0080693D01*
X0051125Y0007307D02*
Y00125D01*
Y00155D02*
Y0020693D01*
X0043926Y00155D02*
Y0020693D01*
Y0007307D02*
Y00125D01*
Y0007307D02*
X0051126D01*
X0043926Y0020693D02*
X0051126D01*
X00089Y00155D02*
Y0020693D01*
Y0007307D02*
Y00125D01*
X00161Y0007307D02*
Y00125D01*
Y00155D02*
Y0020693D01*
X00089D02*
X00161D01*
X00089Y0007307D02*
X00161D01*
X00539Y0020693D02*
X00611D01*
X00539Y0007307D02*
X00611D01*
X00539D02*
Y00125D01*
Y00155D02*
Y0020693D01*
X00611Y00155D02*
Y0020693D01*
Y0007307D02*
Y00125D01*
X00189Y0007307D02*
X00261D01*
X00189Y0020693D02*
X00261D01*
Y00155D02*
Y0020693D01*
Y0007307D02*
Y00125D01*
X00189Y0007307D02*
Y00125D01*
Y00155D02*
Y0020693D01*
D14*
X00375Y00745D02*
Y0075D01*
Y0073D02*
Y00735D01*
X0036D02*
X0039D01*
X0036Y00745D02*
X0039D01*
X0047526Y0013D02*
Y00135D01*
Y00145D02*
Y0015D01*
X0046026Y00145D02*
X0049026D01*
X0046026Y00135D02*
X0049026D01*
X00125Y00145D02*
Y0015D01*
Y0013D02*
Y00135D01*
X0011D02*
X0014D01*
X0011Y00145D02*
X0014D01*
X0052Y0041D02*
X0063D01*
Y0027D02*
Y0041D01*
X0052Y0027D02*
X0063D01*
X0052D02*
Y0041D01*
Y0061D02*
X0063D01*
Y0047D02*
Y0061D01*
X0052Y0047D02*
X0063D01*
X0052D02*
Y0061D01*
X0056Y00135D02*
X0059D01*
X0056Y00145D02*
X0059D01*
X00575D02*
Y0015D01*
Y0013D02*
Y00135D01*
X0021Y00145D02*
X0024D01*
X0021Y00135D02*
X0024D01*
X00225Y0013D02*
Y00135D01*
Y00145D02*
Y0015D01*
M02*
